%TF.GenerationSoftware,KiCad,Pcbnew,(6.0.2)*%
%TF.CreationDate,2022-04-25T03:39:25-07:00*%
%TF.ProjectId,schematic,73636865-6d61-4746-9963-2e6b69636164,rev?*%
%TF.SameCoordinates,Original*%
%TF.FileFunction,Soldermask,Bot*%
%TF.FilePolarity,Negative*%
%FSLAX46Y46*%
G04 Gerber Fmt 4.6, Leading zero omitted, Abs format (unit mm)*
G04 Created by KiCad (PCBNEW (6.0.2)) date 2022-04-25 03:39:25*
%MOMM*%
%LPD*%
G01*
G04 APERTURE LIST*
G04 Aperture macros list*
%AMRoundRect*
0 Rectangle with rounded corners*
0 $1 Rounding radius*
0 $2 $3 $4 $5 $6 $7 $8 $9 X,Y pos of 4 corners*
0 Add a 4 corners polygon primitive as box body*
4,1,4,$2,$3,$4,$5,$6,$7,$8,$9,$2,$3,0*
0 Add four circle primitives for the rounded corners*
1,1,$1+$1,$2,$3*
1,1,$1+$1,$4,$5*
1,1,$1+$1,$6,$7*
1,1,$1+$1,$8,$9*
0 Add four rect primitives between the rounded corners*
20,1,$1+$1,$2,$3,$4,$5,0*
20,1,$1+$1,$4,$5,$6,$7,0*
20,1,$1+$1,$6,$7,$8,$9,0*
20,1,$1+$1,$8,$9,$2,$3,0*%
G04 Aperture macros list end*
%ADD10O,1.700000X1.700000*%
%ADD11R,1.700000X1.700000*%
%ADD12R,0.650000X1.700000*%
%ADD13RoundRect,0.250000X-0.475000X0.337500X-0.475000X-0.337500X0.475000X-0.337500X0.475000X0.337500X0*%
%ADD14RoundRect,0.250000X0.475000X-0.337500X0.475000X0.337500X-0.475000X0.337500X-0.475000X-0.337500X0*%
%ADD15R,8.000000X10.000000*%
%ADD16O,1.700000X1.100000*%
%ADD17R,10.000000X8.000000*%
%ADD18RoundRect,0.250000X0.450000X-0.350000X0.450000X0.350000X-0.450000X0.350000X-0.450000X-0.350000X0*%
%ADD19R,3.500000X1.800000*%
%ADD20O,1.600000X1.600000*%
%ADD21R,1.600000X1.600000*%
%ADD22R,0.900000X1.650000*%
%ADD23RoundRect,0.062500X0.325000X0.062500X-0.325000X0.062500X-0.325000X-0.062500X0.325000X-0.062500X0*%
%ADD24RoundRect,0.250000X0.350000X0.450000X-0.350000X0.450000X-0.350000X-0.450000X0.350000X-0.450000X0*%
%ADD25RoundRect,0.250000X-0.337500X-0.475000X0.337500X-0.475000X0.337500X0.475000X-0.337500X0.475000X0*%
%ADD26RoundRect,0.062500X-0.325000X-0.062500X0.325000X-0.062500X0.325000X0.062500X-0.325000X0.062500X0*%
%ADD27RoundRect,0.250000X0.337500X0.475000X-0.337500X0.475000X-0.337500X-0.475000X0.337500X-0.475000X0*%
%ADD28R,0.300000X0.450000*%
%ADD29R,1.500000X0.400000*%
%ADD30RoundRect,0.250000X-0.350000X-0.450000X0.350000X-0.450000X0.350000X0.450000X-0.350000X0.450000X0*%
%ADD31RoundRect,0.250000X-0.450000X0.350000X-0.450000X-0.350000X0.450000X-0.350000X0.450000X0.350000X0*%
%ADD32R,0.450000X0.300000*%
%ADD33R,3.600000X2.700000*%
G04 APERTURE END LIST*
D10*
%TO.C,J11*%
X149123400Y-110515400D03*
D11*
X149123400Y-107975400D03*
%TD*%
D10*
%TO.C,J10*%
X142011400Y-103002000D03*
D11*
X142011400Y-105542000D03*
%TD*%
D10*
%TO.C,J9*%
X144805400Y-84002800D03*
D11*
X144805400Y-86542800D03*
%TD*%
D10*
%TO.C,J4*%
X144703800Y-110439200D03*
D11*
X142163800Y-110439200D03*
%TD*%
D12*
%TO.C,U22*%
X152095200Y-98341200D03*
X150825200Y-98341200D03*
X149555200Y-98341200D03*
X148285200Y-98341200D03*
X148285200Y-91041200D03*
X149555200Y-91041200D03*
X150825200Y-91041200D03*
X152095200Y-91041200D03*
%TD*%
D13*
%TO.C,C18*%
X141554200Y-98849000D03*
X141554200Y-96774000D03*
%TD*%
D14*
%TO.C,C17*%
X154127200Y-90093800D03*
X154127200Y-88018800D03*
%TD*%
D15*
%TO.C,J3*%
X181946400Y-63550800D03*
X173946400Y-63550800D03*
%TD*%
D10*
%TO.C,SW1*%
X111702800Y-55769600D03*
D11*
X114242800Y-55769600D03*
%TD*%
D10*
%TO.C,BT2*%
X100196600Y-69282400D03*
D11*
X100196600Y-66742400D03*
%TD*%
D15*
%TO.C,J6*%
X183419600Y-103454200D03*
X175419600Y-103454200D03*
%TD*%
D16*
%TO.C,J2*%
X103291800Y-92550600D03*
X99541800Y-101200600D03*
X103341800Y-101200600D03*
X99491800Y-92550600D03*
%TD*%
D10*
%TO.C,BT3*%
X100425200Y-76750000D03*
D11*
X100425200Y-74210000D03*
%TD*%
D17*
%TO.C,J7*%
X103098600Y-130504200D03*
X103098600Y-122504200D03*
%TD*%
D15*
%TO.C,J5*%
X149783800Y-50266600D03*
X141783800Y-50266600D03*
%TD*%
%TO.C,J8*%
X178847600Y-121437400D03*
X170847600Y-121437400D03*
%TD*%
D10*
%TO.C,J1*%
X156921200Y-66527600D03*
D11*
X156921200Y-69067600D03*
%TD*%
D10*
%TO.C,BT1*%
X100044200Y-61992600D03*
D11*
X100044200Y-59452600D03*
%TD*%
D18*
%TO.C,R34*%
X106572000Y-83338000D03*
X106572000Y-85338000D03*
%TD*%
D19*
%TO.C,D4*%
X110754800Y-109880400D03*
X105754800Y-109880400D03*
%TD*%
D20*
%TO.C,U14*%
X110702200Y-75729000D03*
X110702200Y-78269000D03*
X118322200Y-78269000D03*
D21*
X118322200Y-75729000D03*
%TD*%
D22*
%TO.C,U6*%
X161747000Y-63887600D03*
D23*
X160759500Y-63137600D03*
X160759500Y-63637600D03*
X160759500Y-64137600D03*
X160759500Y-64637600D03*
X162734500Y-64637600D03*
X162734500Y-64137600D03*
X162734500Y-63637600D03*
X162734500Y-63137600D03*
%TD*%
D24*
%TO.C,R9*%
X101158800Y-95910400D03*
X103158800Y-95910400D03*
%TD*%
D25*
%TO.C,C6*%
X137791200Y-87636600D03*
X139866200Y-87636600D03*
%TD*%
D22*
%TO.C,U18*%
X149374200Y-72318600D03*
D26*
X150361700Y-73068600D03*
X150361700Y-72568600D03*
X150361700Y-72068600D03*
X150361700Y-71568600D03*
X148386700Y-71568600D03*
X148386700Y-72068600D03*
X148386700Y-72568600D03*
X148386700Y-73068600D03*
%TD*%
D27*
%TO.C,C5*%
X136056200Y-91614600D03*
X133981200Y-91614600D03*
%TD*%
D14*
%TO.C,C15*%
X104063800Y-104880500D03*
X104063800Y-106955500D03*
%TD*%
D27*
%TO.C,C10*%
X141681200Y-91465400D03*
X139606200Y-91465400D03*
%TD*%
D28*
%TO.C,U2*%
X164914200Y-60615600D03*
X163914200Y-60615600D03*
X163914200Y-62015600D03*
X164414200Y-62015600D03*
X164914200Y-62015600D03*
%TD*%
D29*
%TO.C,U10*%
X104641600Y-71847800D03*
X104641600Y-72497800D03*
X104641600Y-73147800D03*
X107301600Y-73147800D03*
X107301600Y-72497800D03*
X107301600Y-71847800D03*
%TD*%
%TO.C,U11*%
X104724800Y-79874200D03*
X104724800Y-80524200D03*
X104724800Y-81174200D03*
X107384800Y-81174200D03*
X107384800Y-80524200D03*
X107384800Y-79874200D03*
%TD*%
D30*
%TO.C,R8*%
X105241600Y-98018600D03*
X103241600Y-98018600D03*
%TD*%
D24*
%TO.C,R7*%
X102387600Y-84277800D03*
X104387600Y-84277800D03*
%TD*%
D31*
%TO.C,R1*%
X133897200Y-89042600D03*
X133897200Y-87042600D03*
%TD*%
D29*
%TO.C,U9*%
X104708600Y-63704800D03*
X104708600Y-64354800D03*
X104708600Y-65004800D03*
X107368600Y-65004800D03*
X107368600Y-64354800D03*
X107368600Y-63704800D03*
%TD*%
D27*
%TO.C,C7*%
X140120200Y-85223600D03*
X138045200Y-85223600D03*
%TD*%
D30*
%TO.C,R30*%
X106343400Y-90526200D03*
X104343400Y-90526200D03*
%TD*%
D20*
%TO.C,U12*%
X110803800Y-59854000D03*
X110803800Y-62394000D03*
X118423800Y-62394000D03*
D21*
X118423800Y-59854000D03*
%TD*%
D32*
%TO.C,U7*%
X147243800Y-73660000D03*
X147243800Y-72660000D03*
X145843800Y-72660000D03*
X145843800Y-73160000D03*
X145843800Y-73660000D03*
%TD*%
D20*
%TO.C,U13*%
X110549800Y-67499400D03*
X110549800Y-70039400D03*
X118169800Y-70039400D03*
D21*
X118169800Y-67499400D03*
%TD*%
D27*
%TO.C,C21*%
X100587900Y-110109000D03*
X102662900Y-110109000D03*
%TD*%
D33*
%TO.C,L3*%
X112877600Y-97907200D03*
X112877600Y-106207200D03*
%TD*%
D30*
%TO.C,R6*%
X108604000Y-87376600D03*
X106604000Y-87376600D03*
%TD*%
%TO.C,R31*%
X110197600Y-90526200D03*
X108197600Y-90526200D03*
%TD*%
M02*
