%TF.GenerationSoftware,KiCad,Pcbnew,(6.0.2)*%
%TF.CreationDate,2022-04-25T03:39:25-07:00*%
%TF.ProjectId,schematic,73636865-6d61-4746-9963-2e6b69636164,rev?*%
%TF.SameCoordinates,Original*%
%TF.FileFunction,Paste,Top*%
%TF.FilePolarity,Positive*%
%FSLAX46Y46*%
G04 Gerber Fmt 4.6, Leading zero omitted, Abs format (unit mm)*
G04 Created by KiCad (PCBNEW (6.0.2)) date 2022-04-25 03:39:25*
%MOMM*%
%LPD*%
G01*
G04 APERTURE LIST*
G04 Aperture macros list*
%AMRoundRect*
0 Rectangle with rounded corners*
0 $1 Rounding radius*
0 $2 $3 $4 $5 $6 $7 $8 $9 X,Y pos of 4 corners*
0 Add a 4 corners polygon primitive as box body*
4,1,4,$2,$3,$4,$5,$6,$7,$8,$9,$2,$3,0*
0 Add four circle primitives for the rounded corners*
1,1,$1+$1,$2,$3*
1,1,$1+$1,$4,$5*
1,1,$1+$1,$6,$7*
1,1,$1+$1,$8,$9*
0 Add four rect primitives between the rounded corners*
20,1,$1+$1,$2,$3,$4,$5,0*
20,1,$1+$1,$4,$5,$6,$7,0*
20,1,$1+$1,$6,$7,$8,$9,0*
20,1,$1+$1,$8,$9,$2,$3,0*%
%AMFreePoly0*
4,1,9,3.862500,-0.866500,0.737500,-0.866500,0.737500,-0.450000,-0.737500,-0.450000,-0.737500,0.450000,0.737500,0.450000,0.737500,0.866500,3.862500,0.866500,3.862500,-0.866500,3.862500,-0.866500,$1*%
G04 Aperture macros list end*
%ADD10RoundRect,0.250000X-0.650000X0.350000X-0.650000X-0.350000X0.650000X-0.350000X0.650000X0.350000X0*%
%ADD11RoundRect,0.250000X-0.337500X-0.475000X0.337500X-0.475000X0.337500X0.475000X-0.337500X0.475000X0*%
%ADD12RoundRect,0.250000X0.450000X-0.325000X0.450000X0.325000X-0.450000X0.325000X-0.450000X-0.325000X0*%
%ADD13R,0.400000X1.500000*%
%ADD14RoundRect,0.250000X-0.350000X-0.450000X0.350000X-0.450000X0.350000X0.450000X-0.350000X0.450000X0*%
%ADD15RoundRect,0.250000X0.337500X0.475000X-0.337500X0.475000X-0.337500X-0.475000X0.337500X-0.475000X0*%
%ADD16RoundRect,0.150000X-0.150000X0.725000X-0.150000X-0.725000X0.150000X-0.725000X0.150000X0.725000X0*%
%ADD17RoundRect,0.150000X0.512500X0.150000X-0.512500X0.150000X-0.512500X-0.150000X0.512500X-0.150000X0*%
%ADD18R,0.900000X1.300000*%
%ADD19FreePoly0,90.000000*%
%ADD20RoundRect,0.250000X-0.475000X0.337500X-0.475000X-0.337500X0.475000X-0.337500X0.475000X0.337500X0*%
%ADD21RoundRect,0.250000X0.450000X-0.350000X0.450000X0.350000X-0.450000X0.350000X-0.450000X-0.350000X0*%
%ADD22RoundRect,0.250000X-0.450000X0.350000X-0.450000X-0.350000X0.450000X-0.350000X0.450000X0.350000X0*%
%ADD23R,2.400000X4.200000*%
%ADD24R,0.650000X1.560000*%
%ADD25RoundRect,0.250000X0.350000X0.450000X-0.350000X0.450000X-0.350000X-0.450000X0.350000X-0.450000X0*%
%ADD26R,1.600000X0.800000*%
%ADD27R,1.600000X0.760000*%
%ADD28R,1.600000X0.700000*%
%ADD29R,2.100000X1.800000*%
%ADD30R,1.100000X4.600000*%
%ADD31R,5.250000X4.550000*%
%ADD32RoundRect,0.247500X-0.247500X-0.247500X0.247500X-0.247500X0.247500X0.247500X-0.247500X0.247500X0*%
%ADD33RoundRect,0.050000X-0.350000X-0.050000X0.350000X-0.050000X0.350000X0.050000X-0.350000X0.050000X0*%
%ADD34RoundRect,0.050000X-0.050000X-0.350000X0.050000X-0.350000X0.050000X0.350000X-0.050000X0.350000X0*%
%ADD35RoundRect,0.250000X0.625000X-0.400000X0.625000X0.400000X-0.625000X0.400000X-0.625000X-0.400000X0*%
%ADD36R,0.450000X0.300000*%
%ADD37RoundRect,0.150000X-0.825000X-0.150000X0.825000X-0.150000X0.825000X0.150000X-0.825000X0.150000X0*%
%ADD38RoundRect,0.249999X-1.425001X0.450001X-1.425001X-0.450001X1.425001X-0.450001X1.425001X0.450001X0*%
%ADD39RoundRect,0.150000X0.150000X-0.725000X0.150000X0.725000X-0.150000X0.725000X-0.150000X-0.725000X0*%
%ADD40RoundRect,0.250000X0.475000X-0.337500X0.475000X0.337500X-0.475000X0.337500X-0.475000X-0.337500X0*%
G04 APERTURE END LIST*
D10*
%TO.C,AE1*%
X127203200Y-125018800D03*
X127203200Y-127918800D03*
%TD*%
D11*
%TO.C,C1*%
X127203200Y-122986800D03*
X129278200Y-122986800D03*
%TD*%
%TO.C,C2*%
X127177800Y-117170200D03*
X129252800Y-117170200D03*
%TD*%
D12*
%TO.C,L1*%
X127203200Y-121099800D03*
X127203200Y-119049800D03*
%TD*%
D13*
%TO.C,U21*%
X146319000Y-105597000D03*
X145669000Y-105597000D03*
X145019000Y-105597000D03*
X145019000Y-102937000D03*
X145669000Y-102937000D03*
X146319000Y-102937000D03*
%TD*%
%TO.C,U20*%
X137932400Y-103292600D03*
X138582400Y-103292600D03*
X139232400Y-103292600D03*
X139232400Y-105952600D03*
X138582400Y-105952600D03*
X137932400Y-105952600D03*
%TD*%
D14*
%TO.C,R10*%
X132096000Y-94589600D03*
X134096000Y-94589600D03*
%TD*%
D15*
%TO.C,C16*%
X133350000Y-96875600D03*
X131275000Y-96875600D03*
%TD*%
D16*
%TO.C,U3*%
X163347400Y-66379800D03*
X162077400Y-66379800D03*
X160807400Y-66379800D03*
X159537400Y-66379800D03*
X159537400Y-61229800D03*
X160807400Y-61229800D03*
X162077400Y-61229800D03*
X163347400Y-61229800D03*
%TD*%
D14*
%TO.C,R2*%
X138430000Y-64617600D03*
X140430000Y-64617600D03*
%TD*%
D17*
%TO.C,U16*%
X155210100Y-98587600D03*
X155210100Y-97637600D03*
X155210100Y-96687600D03*
X157485100Y-96687600D03*
X157485100Y-97637600D03*
X157485100Y-98587600D03*
%TD*%
D18*
%TO.C,U19*%
X135891400Y-64870600D03*
D19*
X134391400Y-64783100D03*
D18*
X132891400Y-64870600D03*
%TD*%
D11*
%TO.C,C13*%
X161957100Y-98475800D03*
X159882100Y-98475800D03*
%TD*%
D20*
%TO.C,C12*%
X136982200Y-69232600D03*
X136982200Y-67157600D03*
%TD*%
D21*
%TO.C,R39*%
X116357400Y-115731800D03*
X116357400Y-113731800D03*
%TD*%
D22*
%TO.C,R26*%
X118205200Y-85513000D03*
X118205200Y-83513000D03*
%TD*%
D23*
%TO.C,L2*%
X157810200Y-103682800D03*
X153310200Y-103682800D03*
%TD*%
D24*
%TO.C,U15*%
X101000600Y-90681800D03*
X99100600Y-90681800D03*
X99100600Y-87981800D03*
X100050600Y-87981800D03*
X101000600Y-87981800D03*
%TD*%
D25*
%TO.C,R3*%
X141214600Y-100076000D03*
X143214600Y-100076000D03*
%TD*%
D20*
%TO.C,C3*%
X133897200Y-89074600D03*
X133897200Y-86999600D03*
%TD*%
D22*
%TO.C,R25*%
X122015200Y-89418000D03*
X122015200Y-87418000D03*
%TD*%
D14*
%TO.C,R17*%
X122465800Y-59859000D03*
X120465800Y-59859000D03*
%TD*%
D25*
%TO.C,R20*%
X145710400Y-116662200D03*
X147710400Y-116662200D03*
%TD*%
D26*
%TO.C,J2*%
X103291800Y-94150600D03*
D27*
X103291800Y-95380600D03*
D28*
X103291800Y-97400600D03*
D26*
X103291800Y-99650600D03*
D27*
X103291800Y-98420600D03*
D28*
X103291800Y-96400600D03*
%TD*%
D14*
%TO.C,R18*%
X122211800Y-67479000D03*
X120211800Y-67479000D03*
%TD*%
D25*
%TO.C,R40*%
X117332000Y-110363000D03*
X115332000Y-110363000D03*
%TD*%
D29*
%TO.C,Y1*%
X137474200Y-87550600D03*
X140374200Y-87550600D03*
X140374200Y-85350600D03*
X137474200Y-85350600D03*
%TD*%
D14*
%TO.C,R19*%
X122440400Y-75759400D03*
X120440400Y-75759400D03*
%TD*%
D30*
%TO.C,U17*%
X115515600Y-106409800D03*
X113815600Y-106409800D03*
X112115600Y-106409800D03*
X110415600Y-106409800D03*
X108715600Y-106409800D03*
D31*
X109340600Y-99684800D03*
X109340600Y-94834800D03*
X114890600Y-94834800D03*
X114890600Y-99684800D03*
%TD*%
D32*
%TO.C,U1*%
X139826200Y-92075600D03*
X138596200Y-92075600D03*
X138596200Y-93305600D03*
X139826200Y-93305600D03*
X137366200Y-92075600D03*
X138596200Y-94535600D03*
X137366200Y-94535600D03*
X137366200Y-93305600D03*
X139826200Y-94535600D03*
D33*
X136146200Y-91030600D03*
X136146200Y-91380600D03*
X136146200Y-91730600D03*
X136146200Y-92080600D03*
X136146200Y-92430600D03*
X136146200Y-92780600D03*
X136146200Y-93130600D03*
X136146200Y-93480600D03*
X136146200Y-93830600D03*
X136146200Y-94180600D03*
X136146200Y-94530600D03*
X136146200Y-94880600D03*
X136146200Y-95230600D03*
X136146200Y-95580600D03*
D34*
X137021200Y-95755600D03*
X137371200Y-95755600D03*
X137721200Y-95755600D03*
X138071200Y-95755600D03*
X138421200Y-95755600D03*
X138771200Y-95755600D03*
X139121200Y-95755600D03*
X139471200Y-95755600D03*
X139821200Y-95755600D03*
X140171200Y-95755600D03*
D33*
X141046200Y-95580600D03*
X141046200Y-95230600D03*
X141046200Y-94880600D03*
X141046200Y-94530600D03*
X141046200Y-94180600D03*
X141046200Y-93830600D03*
X141046200Y-93480600D03*
X141046200Y-93130600D03*
X141046200Y-92780600D03*
X141046200Y-92430600D03*
X141046200Y-92080600D03*
X141046200Y-91730600D03*
X141046200Y-91380600D03*
X141046200Y-91030600D03*
D34*
X140171200Y-90855600D03*
X139821200Y-90855600D03*
X139471200Y-90855600D03*
X139121200Y-90855600D03*
X138771200Y-90855600D03*
X138421200Y-90855600D03*
X138071200Y-90855600D03*
X137721200Y-90855600D03*
X137371200Y-90855600D03*
X137021200Y-90855600D03*
%TD*%
D25*
%TO.C,TH1*%
X141113000Y-116535200D03*
X143113000Y-116535200D03*
%TD*%
D35*
%TO.C,R4*%
X100755400Y-79950400D03*
X100755400Y-83050400D03*
%TD*%
D25*
%TO.C,R21*%
X146066000Y-125857000D03*
X148066000Y-125857000D03*
%TD*%
D36*
%TO.C,U8*%
X148756600Y-74379200D03*
X148756600Y-75379200D03*
X147356600Y-75379200D03*
X147356600Y-74879200D03*
X147356600Y-74379200D03*
%TD*%
D25*
%TO.C,TH2*%
X141011400Y-125831600D03*
X143011400Y-125831600D03*
%TD*%
D22*
%TO.C,R27*%
X118205200Y-89418000D03*
X118205200Y-87418000D03*
%TD*%
D37*
%TO.C,U5*%
X111688600Y-83007800D03*
X111688600Y-84277800D03*
X111688600Y-85547800D03*
X111688600Y-86817800D03*
X111688600Y-88087800D03*
X111688600Y-89357800D03*
X111688600Y-90627800D03*
X106738600Y-90627800D03*
X106738600Y-89357800D03*
X106738600Y-88087800D03*
X106738600Y-86817800D03*
X106738600Y-85547800D03*
X106738600Y-84277800D03*
X106738600Y-83007800D03*
%TD*%
D25*
%TO.C,TH3*%
X141306800Y-139979400D03*
X143306800Y-139979400D03*
%TD*%
D38*
%TO.C,R16*%
X106165600Y-80181000D03*
X106165600Y-74081000D03*
%TD*%
D39*
%TO.C,U4*%
X150317200Y-69662600D03*
X151587200Y-69662600D03*
X152857200Y-69662600D03*
X154127200Y-69662600D03*
X154127200Y-74812600D03*
X152857200Y-74812600D03*
X151587200Y-74812600D03*
X150317200Y-74812600D03*
%TD*%
D20*
%TO.C,C8*%
X138379200Y-101265900D03*
X138379200Y-99190900D03*
%TD*%
D11*
%TO.C,C14*%
X162642900Y-101879400D03*
X160567900Y-101879400D03*
%TD*%
D40*
%TO.C,C4*%
X131865200Y-86999600D03*
X131865200Y-89074600D03*
%TD*%
D25*
%TO.C,R24*%
X145745200Y-139979400D03*
X147745200Y-139979400D03*
%TD*%
D14*
%TO.C,R22*%
X122047000Y-81584800D03*
X120047000Y-81584800D03*
%TD*%
D22*
%TO.C,R23*%
X122015200Y-85513000D03*
X122015200Y-83513000D03*
%TD*%
%TO.C,R33*%
X102914400Y-88291000D03*
X102914400Y-86291000D03*
%TD*%
%TO.C,R29*%
X114395200Y-89418000D03*
X114395200Y-87418000D03*
%TD*%
D38*
%TO.C,R15*%
X106114800Y-72103800D03*
X106114800Y-66003800D03*
%TD*%
D22*
%TO.C,R28*%
X114395200Y-85513000D03*
X114395200Y-83513000D03*
%TD*%
D38*
%TO.C,R12*%
X106089400Y-64001200D03*
X106089400Y-57901200D03*
%TD*%
D21*
%TO.C,R5*%
X104336800Y-82252400D03*
X104336800Y-84252400D03*
%TD*%
D20*
%TO.C,C11*%
X151826400Y-99208500D03*
X151826400Y-97133500D03*
%TD*%
%TO.C,C9*%
X133553200Y-68953200D03*
X133553200Y-66878200D03*
%TD*%
M02*
