%TF.GenerationSoftware,KiCad,Pcbnew,(5.1.10)-1*%
%TF.CreationDate,2022-01-27T03:50:03-08:00*%
%TF.ProjectId,schematic,73636865-6d61-4746-9963-2e6b69636164,rev?*%
%TF.SameCoordinates,Original*%
%TF.FileFunction,Copper,L1,Top*%
%TF.FilePolarity,Positive*%
%FSLAX46Y46*%
G04 Gerber Fmt 4.6, Leading zero omitted, Abs format (unit mm)*
G04 Created by KiCad (PCBNEW (5.1.10)-1) date 2022-01-27 03:50:03*
%MOMM*%
%LPD*%
G01*
G04 APERTURE LIST*
%TA.AperFunction,ComponentPad*%
%ADD10O,1.700000X1.700000*%
%TD*%
%TA.AperFunction,ComponentPad*%
%ADD11R,1.700000X1.700000*%
%TD*%
%TA.AperFunction,SMDPad,CuDef*%
%ADD12R,1.800000X2.100000*%
%TD*%
%TA.AperFunction,ComponentPad*%
%ADD13C,0.500000*%
%TD*%
%TA.AperFunction,SMDPad,CuDef*%
%ADD14R,3.700000X3.700000*%
%TD*%
%TA.AperFunction,ViaPad*%
%ADD15C,0.400000*%
%TD*%
%TA.AperFunction,Conductor*%
%ADD16C,1.375000*%
%TD*%
%TA.AperFunction,Conductor*%
%ADD17C,1.250000*%
%TD*%
%TA.AperFunction,Conductor*%
%ADD18C,0.127000*%
%TD*%
%TA.AperFunction,Conductor*%
%ADD19C,0.500000*%
%TD*%
%TA.AperFunction,Conductor*%
%ADD20C,0.750000*%
%TD*%
%TA.AperFunction,Conductor*%
%ADD21C,0.250000*%
%TD*%
%TA.AperFunction,Conductor*%
%ADD22C,0.254000*%
%TD*%
%TA.AperFunction,Conductor*%
%ADD23C,0.100000*%
%TD*%
G04 APERTURE END LIST*
%TO.P,C4,2*%
%TO.N,GND*%
%TA.AperFunction,SMDPad,CuDef*%
G36*
G01*
X158321500Y-85580200D02*
X158321500Y-86530200D01*
G75*
G02*
X158071500Y-86780200I-250000J0D01*
G01*
X157396500Y-86780200D01*
G75*
G02*
X157146500Y-86530200I0J250000D01*
G01*
X157146500Y-85580200D01*
G75*
G02*
X157396500Y-85330200I250000J0D01*
G01*
X158071500Y-85330200D01*
G75*
G02*
X158321500Y-85580200I0J-250000D01*
G01*
G37*
%TD.AperFunction*%
%TO.P,C4,1*%
%TO.N,Net-(C3-Pad2)*%
%TA.AperFunction,SMDPad,CuDef*%
G36*
G01*
X160396500Y-85580200D02*
X160396500Y-86530200D01*
G75*
G02*
X160146500Y-86780200I-250000J0D01*
G01*
X159471500Y-86780200D01*
G75*
G02*
X159221500Y-86530200I0J250000D01*
G01*
X159221500Y-85580200D01*
G75*
G02*
X159471500Y-85330200I250000J0D01*
G01*
X160146500Y-85330200D01*
G75*
G02*
X160396500Y-85580200I0J-250000D01*
G01*
G37*
%TD.AperFunction*%
%TD*%
%TO.P,C5,2*%
%TO.N,GND*%
%TA.AperFunction,SMDPad,CuDef*%
G36*
G01*
X161750500Y-92565200D02*
X161750500Y-93515200D01*
G75*
G02*
X161500500Y-93765200I-250000J0D01*
G01*
X160825500Y-93765200D01*
G75*
G02*
X160575500Y-93515200I0J250000D01*
G01*
X160575500Y-92565200D01*
G75*
G02*
X160825500Y-92315200I250000J0D01*
G01*
X161500500Y-92315200D01*
G75*
G02*
X161750500Y-92565200I0J-250000D01*
G01*
G37*
%TD.AperFunction*%
%TO.P,C5,1*%
%TO.N,+3V3*%
%TA.AperFunction,SMDPad,CuDef*%
G36*
G01*
X163825500Y-92565200D02*
X163825500Y-93515200D01*
G75*
G02*
X163575500Y-93765200I-250000J0D01*
G01*
X162900500Y-93765200D01*
G75*
G02*
X162650500Y-93515200I0J250000D01*
G01*
X162650500Y-92565200D01*
G75*
G02*
X162900500Y-92315200I250000J0D01*
G01*
X163575500Y-92315200D01*
G75*
G02*
X163825500Y-92565200I0J-250000D01*
G01*
G37*
%TD.AperFunction*%
%TD*%
D10*
%TO.P,J5,14*%
%TO.N,Net-(J5-Pad14)*%
X192036700Y-68567300D03*
%TO.P,J5,13*%
%TO.N,Net-(J5-Pad13)*%
X192036700Y-71107300D03*
%TO.P,J5,12*%
%TO.N,Net-(J5-Pad12)*%
X192036700Y-73647300D03*
%TO.P,J5,11*%
%TO.N,Net-(J5-Pad11)*%
X192036700Y-76187300D03*
%TO.P,J5,10*%
%TO.N,Net-(J5-Pad10)*%
X192036700Y-78727300D03*
%TO.P,J5,9*%
%TO.N,Net-(J5-Pad9)*%
X192036700Y-81267300D03*
%TO.P,J5,8*%
%TO.N,Net-(J5-Pad8)*%
X192036700Y-83807300D03*
%TO.P,J5,7*%
%TO.N,Net-(J5-Pad7)*%
X192036700Y-86347300D03*
%TO.P,J5,6*%
%TO.N,Net-(J5-Pad6)*%
X192036700Y-88887300D03*
%TO.P,J5,5*%
%TO.N,Net-(J5-Pad5)*%
X192036700Y-91427300D03*
%TO.P,J5,4*%
%TO.N,Net-(J5-Pad4)*%
X192036700Y-93967300D03*
%TO.P,J5,3*%
%TO.N,Net-(J5-Pad3)*%
X192036700Y-96507300D03*
%TO.P,J5,2*%
%TO.N,Net-(J5-Pad2)*%
X192036700Y-99047300D03*
D11*
%TO.P,J5,1*%
%TO.N,Net-(J5-Pad1)*%
X192036700Y-101587300D03*
%TD*%
D10*
%TO.P,J3,10*%
%TO.N,+3V3*%
X161201100Y-68287900D03*
%TO.P,J3,9*%
X163741100Y-68287900D03*
%TO.P,J3,8*%
X166281100Y-68287900D03*
%TO.P,J3,7*%
%TO.N,GND*%
X168821100Y-68287900D03*
%TO.P,J3,6*%
X171361100Y-68287900D03*
%TO.P,J3,5*%
X173901100Y-68287900D03*
%TO.P,J3,4*%
%TO.N,Net-(J3-Pad4)*%
X176441100Y-68287900D03*
%TO.P,J3,3*%
%TO.N,Net-(J3-Pad3)*%
X178981100Y-68287900D03*
%TO.P,J3,2*%
%TO.N,Net-(J3-Pad2)*%
X181521100Y-68287900D03*
D11*
%TO.P,J3,1*%
%TO.N,Net-(J3-Pad1)*%
X184061100Y-68287900D03*
%TD*%
D10*
%TO.P,J2,10*%
%TO.N,Net-(J2-Pad10)*%
X190957200Y-107315000D03*
%TO.P,J2,9*%
%TO.N,Net-(J2-Pad9)*%
X188417200Y-107315000D03*
%TO.P,J2,8*%
%TO.N,Net-(J2-Pad8)*%
X185877200Y-107315000D03*
%TO.P,J2,7*%
%TO.N,Net-(J2-Pad7)*%
X183337200Y-107315000D03*
%TO.P,J2,6*%
%TO.N,Net-(J2-Pad6)*%
X180797200Y-107315000D03*
%TO.P,J2,5*%
%TO.N,Net-(J2-Pad5)*%
X178257200Y-107315000D03*
%TO.P,J2,4*%
%TO.N,Net-(J2-Pad4)*%
X175717200Y-107315000D03*
%TO.P,J2,3*%
%TO.N,Net-(J2-Pad3)*%
X173177200Y-107315000D03*
%TO.P,J2,2*%
%TO.N,Net-(J2-Pad2)*%
X170637200Y-107315000D03*
D11*
%TO.P,J2,1*%
%TO.N,Net-(J2-Pad1)*%
X168097200Y-107315000D03*
%TD*%
D10*
%TO.P,J1,14*%
%TO.N,Net-(J1-Pad14)*%
X173266100Y-112077500D03*
%TO.P,J1,13*%
%TO.N,Net-(J1-Pad13)*%
X170726100Y-112077500D03*
%TO.P,J1,12*%
%TO.N,Net-(J1-Pad12)*%
X168186100Y-112077500D03*
%TO.P,J1,11*%
%TO.N,Net-(J1-Pad11)*%
X165646100Y-112077500D03*
%TO.P,J1,10*%
%TO.N,Net-(J1-Pad10)*%
X163106100Y-112077500D03*
%TO.P,J1,9*%
%TO.N,Net-(J1-Pad9)*%
X160566100Y-112077500D03*
%TO.P,J1,8*%
%TO.N,Net-(J1-Pad8)*%
X158026100Y-112077500D03*
%TO.P,J1,7*%
%TO.N,Net-(J1-Pad7)*%
X155486100Y-112077500D03*
%TO.P,J1,6*%
%TO.N,Net-(J1-Pad6)*%
X152946100Y-112077500D03*
%TO.P,J1,5*%
%TO.N,Net-(J1-Pad5)*%
X150406100Y-112077500D03*
%TO.P,J1,4*%
%TO.N,Net-(J1-Pad4)*%
X147866100Y-112077500D03*
%TO.P,J1,3*%
%TO.N,Net-(J1-Pad3)*%
X145326100Y-112077500D03*
%TO.P,J1,2*%
%TO.N,Net-(J1-Pad2)*%
X142786100Y-112077500D03*
D11*
%TO.P,J1,1*%
%TO.N,Net-(J1-Pad1)*%
X140246100Y-112077500D03*
%TD*%
D12*
%TO.P,Y1,4*%
%TO.N,GND*%
X171148100Y-80987900D03*
%TO.P,Y1,3*%
%TO.N,Net-(C7-Pad1)*%
X171148100Y-83887900D03*
%TO.P,Y1,2*%
%TO.N,GND*%
X168948100Y-83887900D03*
%TO.P,Y1,1*%
%TO.N,Net-(C6-Pad1)*%
X168948100Y-80987900D03*
%TD*%
D13*
%TO.P,U1,49*%
%TO.N,GND*%
X172630900Y-94805300D03*
X171564233Y-94805300D03*
X170497567Y-94805300D03*
X169430900Y-94805300D03*
X172630900Y-93738633D03*
X171564233Y-93738633D03*
X170497567Y-93738633D03*
X169430900Y-93738633D03*
X172630900Y-92671967D03*
X171564233Y-92671967D03*
X170497567Y-92671967D03*
X169430900Y-92671967D03*
X172630900Y-91605300D03*
X171564233Y-91605300D03*
X170497567Y-91605300D03*
X169430900Y-91605300D03*
D14*
X171030900Y-93205300D03*
%TO.P,U1,48*%
%TO.N,Net-(C3-Pad2)*%
%TA.AperFunction,SMDPad,CuDef*%
G36*
G01*
X169355900Y-91105300D02*
X169355900Y-90405300D01*
G75*
G02*
X169405900Y-90355300I50000J0D01*
G01*
X169505900Y-90355300D01*
G75*
G02*
X169555900Y-90405300I0J-50000D01*
G01*
X169555900Y-91105300D01*
G75*
G02*
X169505900Y-91155300I-50000J0D01*
G01*
X169405900Y-91155300D01*
G75*
G02*
X169355900Y-91105300I0J50000D01*
G01*
G37*
%TD.AperFunction*%
%TO.P,U1,47*%
%TO.N,Net-(C3-Pad1)*%
%TA.AperFunction,SMDPad,CuDef*%
G36*
G01*
X169705900Y-91105300D02*
X169705900Y-90405300D01*
G75*
G02*
X169755900Y-90355300I50000J0D01*
G01*
X169855900Y-90355300D01*
G75*
G02*
X169905900Y-90405300I0J-50000D01*
G01*
X169905900Y-91105300D01*
G75*
G02*
X169855900Y-91155300I-50000J0D01*
G01*
X169755900Y-91155300D01*
G75*
G02*
X169705900Y-91105300I0J50000D01*
G01*
G37*
%TD.AperFunction*%
%TO.P,U1,46*%
%TO.N,+3V3*%
%TA.AperFunction,SMDPad,CuDef*%
G36*
G01*
X170055900Y-91105300D02*
X170055900Y-90405300D01*
G75*
G02*
X170105900Y-90355300I50000J0D01*
G01*
X170205900Y-90355300D01*
G75*
G02*
X170255900Y-90405300I0J-50000D01*
G01*
X170255900Y-91105300D01*
G75*
G02*
X170205900Y-91155300I-50000J0D01*
G01*
X170105900Y-91155300D01*
G75*
G02*
X170055900Y-91105300I0J50000D01*
G01*
G37*
%TD.AperFunction*%
%TO.P,U1,45*%
%TO.N,Net-(C6-Pad1)*%
%TA.AperFunction,SMDPad,CuDef*%
G36*
G01*
X170405900Y-91105300D02*
X170405900Y-90405300D01*
G75*
G02*
X170455900Y-90355300I50000J0D01*
G01*
X170555900Y-90355300D01*
G75*
G02*
X170605900Y-90405300I0J-50000D01*
G01*
X170605900Y-91105300D01*
G75*
G02*
X170555900Y-91155300I-50000J0D01*
G01*
X170455900Y-91155300D01*
G75*
G02*
X170405900Y-91105300I0J50000D01*
G01*
G37*
%TD.AperFunction*%
%TO.P,U1,44*%
%TO.N,Net-(C7-Pad1)*%
%TA.AperFunction,SMDPad,CuDef*%
G36*
G01*
X170755900Y-91105300D02*
X170755900Y-90405300D01*
G75*
G02*
X170805900Y-90355300I50000J0D01*
G01*
X170905900Y-90355300D01*
G75*
G02*
X170955900Y-90405300I0J-50000D01*
G01*
X170955900Y-91105300D01*
G75*
G02*
X170905900Y-91155300I-50000J0D01*
G01*
X170805900Y-91155300D01*
G75*
G02*
X170755900Y-91105300I0J50000D01*
G01*
G37*
%TD.AperFunction*%
%TO.P,U1,43*%
%TO.N,+3V3*%
%TA.AperFunction,SMDPad,CuDef*%
G36*
G01*
X171105900Y-91105300D02*
X171105900Y-90405300D01*
G75*
G02*
X171155900Y-90355300I50000J0D01*
G01*
X171255900Y-90355300D01*
G75*
G02*
X171305900Y-90405300I0J-50000D01*
G01*
X171305900Y-91105300D01*
G75*
G02*
X171255900Y-91155300I-50000J0D01*
G01*
X171155900Y-91155300D01*
G75*
G02*
X171105900Y-91105300I0J50000D01*
G01*
G37*
%TD.AperFunction*%
%TO.P,U1,42*%
%TO.N,Net-(J3-Pad4)*%
%TA.AperFunction,SMDPad,CuDef*%
G36*
G01*
X171455900Y-91105300D02*
X171455900Y-90405300D01*
G75*
G02*
X171505900Y-90355300I50000J0D01*
G01*
X171605900Y-90355300D01*
G75*
G02*
X171655900Y-90405300I0J-50000D01*
G01*
X171655900Y-91105300D01*
G75*
G02*
X171605900Y-91155300I-50000J0D01*
G01*
X171505900Y-91155300D01*
G75*
G02*
X171455900Y-91105300I0J50000D01*
G01*
G37*
%TD.AperFunction*%
%TO.P,U1,41*%
%TO.N,Net-(J3-Pad3)*%
%TA.AperFunction,SMDPad,CuDef*%
G36*
G01*
X171805900Y-91105300D02*
X171805900Y-90405300D01*
G75*
G02*
X171855900Y-90355300I50000J0D01*
G01*
X171955900Y-90355300D01*
G75*
G02*
X172005900Y-90405300I0J-50000D01*
G01*
X172005900Y-91105300D01*
G75*
G02*
X171955900Y-91155300I-50000J0D01*
G01*
X171855900Y-91155300D01*
G75*
G02*
X171805900Y-91105300I0J50000D01*
G01*
G37*
%TD.AperFunction*%
%TO.P,U1,40*%
%TO.N,Net-(J3-Pad2)*%
%TA.AperFunction,SMDPad,CuDef*%
G36*
G01*
X172155900Y-91105300D02*
X172155900Y-90405300D01*
G75*
G02*
X172205900Y-90355300I50000J0D01*
G01*
X172305900Y-90355300D01*
G75*
G02*
X172355900Y-90405300I0J-50000D01*
G01*
X172355900Y-91105300D01*
G75*
G02*
X172305900Y-91155300I-50000J0D01*
G01*
X172205900Y-91155300D01*
G75*
G02*
X172155900Y-91105300I0J50000D01*
G01*
G37*
%TD.AperFunction*%
%TO.P,U1,39*%
%TO.N,Net-(J3-Pad1)*%
%TA.AperFunction,SMDPad,CuDef*%
G36*
G01*
X172505900Y-91105300D02*
X172505900Y-90405300D01*
G75*
G02*
X172555900Y-90355300I50000J0D01*
G01*
X172655900Y-90355300D01*
G75*
G02*
X172705900Y-90405300I0J-50000D01*
G01*
X172705900Y-91105300D01*
G75*
G02*
X172655900Y-91155300I-50000J0D01*
G01*
X172555900Y-91155300D01*
G75*
G02*
X172505900Y-91105300I0J50000D01*
G01*
G37*
%TD.AperFunction*%
%TO.P,U1,38*%
%TO.N,Net-(J5-Pad14)*%
%TA.AperFunction,SMDPad,CuDef*%
G36*
G01*
X173080900Y-90980300D02*
X173080900Y-90880300D01*
G75*
G02*
X173130900Y-90830300I50000J0D01*
G01*
X173830900Y-90830300D01*
G75*
G02*
X173880900Y-90880300I0J-50000D01*
G01*
X173880900Y-90980300D01*
G75*
G02*
X173830900Y-91030300I-50000J0D01*
G01*
X173130900Y-91030300D01*
G75*
G02*
X173080900Y-90980300I0J50000D01*
G01*
G37*
%TD.AperFunction*%
%TO.P,U1,37*%
%TO.N,+3V3*%
%TA.AperFunction,SMDPad,CuDef*%
G36*
G01*
X173080900Y-91330300D02*
X173080900Y-91230300D01*
G75*
G02*
X173130900Y-91180300I50000J0D01*
G01*
X173830900Y-91180300D01*
G75*
G02*
X173880900Y-91230300I0J-50000D01*
G01*
X173880900Y-91330300D01*
G75*
G02*
X173830900Y-91380300I-50000J0D01*
G01*
X173130900Y-91380300D01*
G75*
G02*
X173080900Y-91330300I0J50000D01*
G01*
G37*
%TD.AperFunction*%
%TO.P,U1,36*%
%TO.N,Net-(J5-Pad13)*%
%TA.AperFunction,SMDPad,CuDef*%
G36*
G01*
X173080900Y-91680300D02*
X173080900Y-91580300D01*
G75*
G02*
X173130900Y-91530300I50000J0D01*
G01*
X173830900Y-91530300D01*
G75*
G02*
X173880900Y-91580300I0J-50000D01*
G01*
X173880900Y-91680300D01*
G75*
G02*
X173830900Y-91730300I-50000J0D01*
G01*
X173130900Y-91730300D01*
G75*
G02*
X173080900Y-91680300I0J50000D01*
G01*
G37*
%TD.AperFunction*%
%TO.P,U1,35*%
%TO.N,Net-(J5-Pad12)*%
%TA.AperFunction,SMDPad,CuDef*%
G36*
G01*
X173080900Y-92030300D02*
X173080900Y-91930300D01*
G75*
G02*
X173130900Y-91880300I50000J0D01*
G01*
X173830900Y-91880300D01*
G75*
G02*
X173880900Y-91930300I0J-50000D01*
G01*
X173880900Y-92030300D01*
G75*
G02*
X173830900Y-92080300I-50000J0D01*
G01*
X173130900Y-92080300D01*
G75*
G02*
X173080900Y-92030300I0J50000D01*
G01*
G37*
%TD.AperFunction*%
%TO.P,U1,34*%
%TO.N,Net-(J5-Pad11)*%
%TA.AperFunction,SMDPad,CuDef*%
G36*
G01*
X173080900Y-92380300D02*
X173080900Y-92280300D01*
G75*
G02*
X173130900Y-92230300I50000J0D01*
G01*
X173830900Y-92230300D01*
G75*
G02*
X173880900Y-92280300I0J-50000D01*
G01*
X173880900Y-92380300D01*
G75*
G02*
X173830900Y-92430300I-50000J0D01*
G01*
X173130900Y-92430300D01*
G75*
G02*
X173080900Y-92380300I0J50000D01*
G01*
G37*
%TD.AperFunction*%
%TO.P,U1,33*%
%TO.N,Net-(J5-Pad10)*%
%TA.AperFunction,SMDPad,CuDef*%
G36*
G01*
X173080900Y-92730300D02*
X173080900Y-92630300D01*
G75*
G02*
X173130900Y-92580300I50000J0D01*
G01*
X173830900Y-92580300D01*
G75*
G02*
X173880900Y-92630300I0J-50000D01*
G01*
X173880900Y-92730300D01*
G75*
G02*
X173830900Y-92780300I-50000J0D01*
G01*
X173130900Y-92780300D01*
G75*
G02*
X173080900Y-92730300I0J50000D01*
G01*
G37*
%TD.AperFunction*%
%TO.P,U1,32*%
%TO.N,Net-(J5-Pad9)*%
%TA.AperFunction,SMDPad,CuDef*%
G36*
G01*
X173080900Y-93080300D02*
X173080900Y-92980300D01*
G75*
G02*
X173130900Y-92930300I50000J0D01*
G01*
X173830900Y-92930300D01*
G75*
G02*
X173880900Y-92980300I0J-50000D01*
G01*
X173880900Y-93080300D01*
G75*
G02*
X173830900Y-93130300I-50000J0D01*
G01*
X173130900Y-93130300D01*
G75*
G02*
X173080900Y-93080300I0J50000D01*
G01*
G37*
%TD.AperFunction*%
%TO.P,U1,31*%
%TO.N,Net-(J5-Pad8)*%
%TA.AperFunction,SMDPad,CuDef*%
G36*
G01*
X173080900Y-93430300D02*
X173080900Y-93330300D01*
G75*
G02*
X173130900Y-93280300I50000J0D01*
G01*
X173830900Y-93280300D01*
G75*
G02*
X173880900Y-93330300I0J-50000D01*
G01*
X173880900Y-93430300D01*
G75*
G02*
X173830900Y-93480300I-50000J0D01*
G01*
X173130900Y-93480300D01*
G75*
G02*
X173080900Y-93430300I0J50000D01*
G01*
G37*
%TD.AperFunction*%
%TO.P,U1,30*%
%TO.N,Net-(J5-Pad7)*%
%TA.AperFunction,SMDPad,CuDef*%
G36*
G01*
X173080900Y-93780300D02*
X173080900Y-93680300D01*
G75*
G02*
X173130900Y-93630300I50000J0D01*
G01*
X173830900Y-93630300D01*
G75*
G02*
X173880900Y-93680300I0J-50000D01*
G01*
X173880900Y-93780300D01*
G75*
G02*
X173830900Y-93830300I-50000J0D01*
G01*
X173130900Y-93830300D01*
G75*
G02*
X173080900Y-93780300I0J50000D01*
G01*
G37*
%TD.AperFunction*%
%TO.P,U1,29*%
%TO.N,Net-(J5-Pad6)*%
%TA.AperFunction,SMDPad,CuDef*%
G36*
G01*
X173080900Y-94130300D02*
X173080900Y-94030300D01*
G75*
G02*
X173130900Y-93980300I50000J0D01*
G01*
X173830900Y-93980300D01*
G75*
G02*
X173880900Y-94030300I0J-50000D01*
G01*
X173880900Y-94130300D01*
G75*
G02*
X173830900Y-94180300I-50000J0D01*
G01*
X173130900Y-94180300D01*
G75*
G02*
X173080900Y-94130300I0J50000D01*
G01*
G37*
%TD.AperFunction*%
%TO.P,U1,28*%
%TO.N,Net-(J5-Pad5)*%
%TA.AperFunction,SMDPad,CuDef*%
G36*
G01*
X173080900Y-94480300D02*
X173080900Y-94380300D01*
G75*
G02*
X173130900Y-94330300I50000J0D01*
G01*
X173830900Y-94330300D01*
G75*
G02*
X173880900Y-94380300I0J-50000D01*
G01*
X173880900Y-94480300D01*
G75*
G02*
X173830900Y-94530300I-50000J0D01*
G01*
X173130900Y-94530300D01*
G75*
G02*
X173080900Y-94480300I0J50000D01*
G01*
G37*
%TD.AperFunction*%
%TO.P,U1,27*%
%TO.N,Net-(J5-Pad4)*%
%TA.AperFunction,SMDPad,CuDef*%
G36*
G01*
X173080900Y-94830300D02*
X173080900Y-94730300D01*
G75*
G02*
X173130900Y-94680300I50000J0D01*
G01*
X173830900Y-94680300D01*
G75*
G02*
X173880900Y-94730300I0J-50000D01*
G01*
X173880900Y-94830300D01*
G75*
G02*
X173830900Y-94880300I-50000J0D01*
G01*
X173130900Y-94880300D01*
G75*
G02*
X173080900Y-94830300I0J50000D01*
G01*
G37*
%TD.AperFunction*%
%TO.P,U1,26*%
%TO.N,Net-(J5-Pad3)*%
%TA.AperFunction,SMDPad,CuDef*%
G36*
G01*
X173080900Y-95180300D02*
X173080900Y-95080300D01*
G75*
G02*
X173130900Y-95030300I50000J0D01*
G01*
X173830900Y-95030300D01*
G75*
G02*
X173880900Y-95080300I0J-50000D01*
G01*
X173880900Y-95180300D01*
G75*
G02*
X173830900Y-95230300I-50000J0D01*
G01*
X173130900Y-95230300D01*
G75*
G02*
X173080900Y-95180300I0J50000D01*
G01*
G37*
%TD.AperFunction*%
%TO.P,U1,25*%
%TO.N,Net-(J5-Pad2)*%
%TA.AperFunction,SMDPad,CuDef*%
G36*
G01*
X173080900Y-95530300D02*
X173080900Y-95430300D01*
G75*
G02*
X173130900Y-95380300I50000J0D01*
G01*
X173830900Y-95380300D01*
G75*
G02*
X173880900Y-95430300I0J-50000D01*
G01*
X173880900Y-95530300D01*
G75*
G02*
X173830900Y-95580300I-50000J0D01*
G01*
X173130900Y-95580300D01*
G75*
G02*
X173080900Y-95530300I0J50000D01*
G01*
G37*
%TD.AperFunction*%
%TO.P,U1,24*%
%TO.N,Net-(J2-Pad10)*%
%TA.AperFunction,SMDPad,CuDef*%
G36*
G01*
X172505900Y-96005300D02*
X172505900Y-95305300D01*
G75*
G02*
X172555900Y-95255300I50000J0D01*
G01*
X172655900Y-95255300D01*
G75*
G02*
X172705900Y-95305300I0J-50000D01*
G01*
X172705900Y-96005300D01*
G75*
G02*
X172655900Y-96055300I-50000J0D01*
G01*
X172555900Y-96055300D01*
G75*
G02*
X172505900Y-96005300I0J50000D01*
G01*
G37*
%TD.AperFunction*%
%TO.P,U1,23*%
%TO.N,Net-(J2-Pad9)*%
%TA.AperFunction,SMDPad,CuDef*%
G36*
G01*
X172155900Y-96005300D02*
X172155900Y-95305300D01*
G75*
G02*
X172205900Y-95255300I50000J0D01*
G01*
X172305900Y-95255300D01*
G75*
G02*
X172355900Y-95305300I0J-50000D01*
G01*
X172355900Y-96005300D01*
G75*
G02*
X172305900Y-96055300I-50000J0D01*
G01*
X172205900Y-96055300D01*
G75*
G02*
X172155900Y-96005300I0J50000D01*
G01*
G37*
%TD.AperFunction*%
%TO.P,U1,22*%
%TO.N,Net-(J2-Pad8)*%
%TA.AperFunction,SMDPad,CuDef*%
G36*
G01*
X171805900Y-96005300D02*
X171805900Y-95305300D01*
G75*
G02*
X171855900Y-95255300I50000J0D01*
G01*
X171955900Y-95255300D01*
G75*
G02*
X172005900Y-95305300I0J-50000D01*
G01*
X172005900Y-96005300D01*
G75*
G02*
X171955900Y-96055300I-50000J0D01*
G01*
X171855900Y-96055300D01*
G75*
G02*
X171805900Y-96005300I0J50000D01*
G01*
G37*
%TD.AperFunction*%
%TO.P,U1,21*%
%TO.N,Net-(J2-Pad7)*%
%TA.AperFunction,SMDPad,CuDef*%
G36*
G01*
X171455900Y-96005300D02*
X171455900Y-95305300D01*
G75*
G02*
X171505900Y-95255300I50000J0D01*
G01*
X171605900Y-95255300D01*
G75*
G02*
X171655900Y-95305300I0J-50000D01*
G01*
X171655900Y-96005300D01*
G75*
G02*
X171605900Y-96055300I-50000J0D01*
G01*
X171505900Y-96055300D01*
G75*
G02*
X171455900Y-96005300I0J50000D01*
G01*
G37*
%TD.AperFunction*%
%TO.P,U1,20*%
%TO.N,Net-(J2-Pad6)*%
%TA.AperFunction,SMDPad,CuDef*%
G36*
G01*
X171105900Y-96005300D02*
X171105900Y-95305300D01*
G75*
G02*
X171155900Y-95255300I50000J0D01*
G01*
X171255900Y-95255300D01*
G75*
G02*
X171305900Y-95305300I0J-50000D01*
G01*
X171305900Y-96005300D01*
G75*
G02*
X171255900Y-96055300I-50000J0D01*
G01*
X171155900Y-96055300D01*
G75*
G02*
X171105900Y-96005300I0J50000D01*
G01*
G37*
%TD.AperFunction*%
%TO.P,U1,19*%
%TO.N,+3V3*%
%TA.AperFunction,SMDPad,CuDef*%
G36*
G01*
X170755900Y-96005300D02*
X170755900Y-95305300D01*
G75*
G02*
X170805900Y-95255300I50000J0D01*
G01*
X170905900Y-95255300D01*
G75*
G02*
X170955900Y-95305300I0J-50000D01*
G01*
X170955900Y-96005300D01*
G75*
G02*
X170905900Y-96055300I-50000J0D01*
G01*
X170805900Y-96055300D01*
G75*
G02*
X170755900Y-96005300I0J50000D01*
G01*
G37*
%TD.AperFunction*%
%TO.P,U1,18*%
%TO.N,Net-(J2-Pad5)*%
%TA.AperFunction,SMDPad,CuDef*%
G36*
G01*
X170405900Y-96005300D02*
X170405900Y-95305300D01*
G75*
G02*
X170455900Y-95255300I50000J0D01*
G01*
X170555900Y-95255300D01*
G75*
G02*
X170605900Y-95305300I0J-50000D01*
G01*
X170605900Y-96005300D01*
G75*
G02*
X170555900Y-96055300I-50000J0D01*
G01*
X170455900Y-96055300D01*
G75*
G02*
X170405900Y-96005300I0J50000D01*
G01*
G37*
%TD.AperFunction*%
%TO.P,U1,17*%
%TO.N,Net-(J2-Pad4)*%
%TA.AperFunction,SMDPad,CuDef*%
G36*
G01*
X170055900Y-96005300D02*
X170055900Y-95305300D01*
G75*
G02*
X170105900Y-95255300I50000J0D01*
G01*
X170205900Y-95255300D01*
G75*
G02*
X170255900Y-95305300I0J-50000D01*
G01*
X170255900Y-96005300D01*
G75*
G02*
X170205900Y-96055300I-50000J0D01*
G01*
X170105900Y-96055300D01*
G75*
G02*
X170055900Y-96005300I0J50000D01*
G01*
G37*
%TD.AperFunction*%
%TO.P,U1,16*%
%TO.N,Net-(J2-Pad3)*%
%TA.AperFunction,SMDPad,CuDef*%
G36*
G01*
X169705900Y-96005300D02*
X169705900Y-95305300D01*
G75*
G02*
X169755900Y-95255300I50000J0D01*
G01*
X169855900Y-95255300D01*
G75*
G02*
X169905900Y-95305300I0J-50000D01*
G01*
X169905900Y-96005300D01*
G75*
G02*
X169855900Y-96055300I-50000J0D01*
G01*
X169755900Y-96055300D01*
G75*
G02*
X169705900Y-96005300I0J50000D01*
G01*
G37*
%TD.AperFunction*%
%TO.P,U1,15*%
%TO.N,Net-(J2-Pad2)*%
%TA.AperFunction,SMDPad,CuDef*%
G36*
G01*
X169355900Y-96005300D02*
X169355900Y-95305300D01*
G75*
G02*
X169405900Y-95255300I50000J0D01*
G01*
X169505900Y-95255300D01*
G75*
G02*
X169555900Y-95305300I0J-50000D01*
G01*
X169555900Y-96005300D01*
G75*
G02*
X169505900Y-96055300I-50000J0D01*
G01*
X169405900Y-96055300D01*
G75*
G02*
X169355900Y-96005300I0J50000D01*
G01*
G37*
%TD.AperFunction*%
%TO.P,U1,14*%
%TO.N,Net-(J1-Pad10)*%
%TA.AperFunction,SMDPad,CuDef*%
G36*
G01*
X168180900Y-95530300D02*
X168180900Y-95430300D01*
G75*
G02*
X168230900Y-95380300I50000J0D01*
G01*
X168930900Y-95380300D01*
G75*
G02*
X168980900Y-95430300I0J-50000D01*
G01*
X168980900Y-95530300D01*
G75*
G02*
X168930900Y-95580300I-50000J0D01*
G01*
X168230900Y-95580300D01*
G75*
G02*
X168180900Y-95530300I0J50000D01*
G01*
G37*
%TD.AperFunction*%
%TO.P,U1,13*%
%TO.N,Net-(J1-Pad9)*%
%TA.AperFunction,SMDPad,CuDef*%
G36*
G01*
X168180900Y-95180300D02*
X168180900Y-95080300D01*
G75*
G02*
X168230900Y-95030300I50000J0D01*
G01*
X168930900Y-95030300D01*
G75*
G02*
X168980900Y-95080300I0J-50000D01*
G01*
X168980900Y-95180300D01*
G75*
G02*
X168930900Y-95230300I-50000J0D01*
G01*
X168230900Y-95230300D01*
G75*
G02*
X168180900Y-95180300I0J50000D01*
G01*
G37*
%TD.AperFunction*%
%TO.P,U1,12*%
%TO.N,Net-(J1-Pad8)*%
%TA.AperFunction,SMDPad,CuDef*%
G36*
G01*
X168180900Y-94830300D02*
X168180900Y-94730300D01*
G75*
G02*
X168230900Y-94680300I50000J0D01*
G01*
X168930900Y-94680300D01*
G75*
G02*
X168980900Y-94730300I0J-50000D01*
G01*
X168980900Y-94830300D01*
G75*
G02*
X168930900Y-94880300I-50000J0D01*
G01*
X168230900Y-94880300D01*
G75*
G02*
X168180900Y-94830300I0J50000D01*
G01*
G37*
%TD.AperFunction*%
%TO.P,U1,11*%
%TO.N,Net-(J1-Pad7)*%
%TA.AperFunction,SMDPad,CuDef*%
G36*
G01*
X168180900Y-94480300D02*
X168180900Y-94380300D01*
G75*
G02*
X168230900Y-94330300I50000J0D01*
G01*
X168930900Y-94330300D01*
G75*
G02*
X168980900Y-94380300I0J-50000D01*
G01*
X168980900Y-94480300D01*
G75*
G02*
X168930900Y-94530300I-50000J0D01*
G01*
X168230900Y-94530300D01*
G75*
G02*
X168180900Y-94480300I0J50000D01*
G01*
G37*
%TD.AperFunction*%
%TO.P,U1,10*%
%TO.N,Net-(J1-Pad6)*%
%TA.AperFunction,SMDPad,CuDef*%
G36*
G01*
X168180900Y-94130300D02*
X168180900Y-94030300D01*
G75*
G02*
X168230900Y-93980300I50000J0D01*
G01*
X168930900Y-93980300D01*
G75*
G02*
X168980900Y-94030300I0J-50000D01*
G01*
X168980900Y-94130300D01*
G75*
G02*
X168930900Y-94180300I-50000J0D01*
G01*
X168230900Y-94180300D01*
G75*
G02*
X168180900Y-94130300I0J50000D01*
G01*
G37*
%TD.AperFunction*%
%TO.P,U1,9*%
%TO.N,Net-(J1-Pad5)*%
%TA.AperFunction,SMDPad,CuDef*%
G36*
G01*
X168180900Y-93780300D02*
X168180900Y-93680300D01*
G75*
G02*
X168230900Y-93630300I50000J0D01*
G01*
X168930900Y-93630300D01*
G75*
G02*
X168980900Y-93680300I0J-50000D01*
G01*
X168980900Y-93780300D01*
G75*
G02*
X168930900Y-93830300I-50000J0D01*
G01*
X168230900Y-93830300D01*
G75*
G02*
X168180900Y-93780300I0J50000D01*
G01*
G37*
%TD.AperFunction*%
%TO.P,U1,8*%
%TO.N,Net-(J1-Pad4)*%
%TA.AperFunction,SMDPad,CuDef*%
G36*
G01*
X168180900Y-93430300D02*
X168180900Y-93330300D01*
G75*
G02*
X168230900Y-93280300I50000J0D01*
G01*
X168930900Y-93280300D01*
G75*
G02*
X168980900Y-93330300I0J-50000D01*
G01*
X168980900Y-93430300D01*
G75*
G02*
X168930900Y-93480300I-50000J0D01*
G01*
X168230900Y-93480300D01*
G75*
G02*
X168180900Y-93430300I0J50000D01*
G01*
G37*
%TD.AperFunction*%
%TO.P,U1,7*%
%TO.N,Net-(J1-Pad3)*%
%TA.AperFunction,SMDPad,CuDef*%
G36*
G01*
X168180900Y-93080300D02*
X168180900Y-92980300D01*
G75*
G02*
X168230900Y-92930300I50000J0D01*
G01*
X168930900Y-92930300D01*
G75*
G02*
X168980900Y-92980300I0J-50000D01*
G01*
X168980900Y-93080300D01*
G75*
G02*
X168930900Y-93130300I-50000J0D01*
G01*
X168230900Y-93130300D01*
G75*
G02*
X168180900Y-93080300I0J50000D01*
G01*
G37*
%TD.AperFunction*%
%TO.P,U1,6*%
%TO.N,Net-(J1-Pad2)*%
%TA.AperFunction,SMDPad,CuDef*%
G36*
G01*
X168180900Y-92730300D02*
X168180900Y-92630300D01*
G75*
G02*
X168230900Y-92580300I50000J0D01*
G01*
X168930900Y-92580300D01*
G75*
G02*
X168980900Y-92630300I0J-50000D01*
G01*
X168980900Y-92730300D01*
G75*
G02*
X168930900Y-92780300I-50000J0D01*
G01*
X168230900Y-92780300D01*
G75*
G02*
X168180900Y-92730300I0J50000D01*
G01*
G37*
%TD.AperFunction*%
%TO.P,U1,5*%
%TO.N,Net-(J1-Pad1)*%
%TA.AperFunction,SMDPad,CuDef*%
G36*
G01*
X168180900Y-92380300D02*
X168180900Y-92280300D01*
G75*
G02*
X168230900Y-92230300I50000J0D01*
G01*
X168930900Y-92230300D01*
G75*
G02*
X168980900Y-92280300I0J-50000D01*
G01*
X168980900Y-92380300D01*
G75*
G02*
X168930900Y-92430300I-50000J0D01*
G01*
X168230900Y-92430300D01*
G75*
G02*
X168180900Y-92380300I0J50000D01*
G01*
G37*
%TD.AperFunction*%
%TO.P,U1,4*%
%TO.N,+3V3*%
%TA.AperFunction,SMDPad,CuDef*%
G36*
G01*
X168180900Y-92030300D02*
X168180900Y-91930300D01*
G75*
G02*
X168230900Y-91880300I50000J0D01*
G01*
X168930900Y-91880300D01*
G75*
G02*
X168980900Y-91930300I0J-50000D01*
G01*
X168980900Y-92030300D01*
G75*
G02*
X168930900Y-92080300I-50000J0D01*
G01*
X168230900Y-92080300D01*
G75*
G02*
X168180900Y-92030300I0J50000D01*
G01*
G37*
%TD.AperFunction*%
%TO.P,U1,3*%
%TA.AperFunction,SMDPad,CuDef*%
G36*
G01*
X168180900Y-91680300D02*
X168180900Y-91580300D01*
G75*
G02*
X168230900Y-91530300I50000J0D01*
G01*
X168930900Y-91530300D01*
G75*
G02*
X168980900Y-91580300I0J-50000D01*
G01*
X168980900Y-91680300D01*
G75*
G02*
X168930900Y-91730300I-50000J0D01*
G01*
X168230900Y-91730300D01*
G75*
G02*
X168180900Y-91680300I0J50000D01*
G01*
G37*
%TD.AperFunction*%
%TO.P,U1,2*%
%TO.N,Net-(C2-Pad1)*%
%TA.AperFunction,SMDPad,CuDef*%
G36*
G01*
X168180900Y-91330300D02*
X168180900Y-91230300D01*
G75*
G02*
X168230900Y-91180300I50000J0D01*
G01*
X168930900Y-91180300D01*
G75*
G02*
X168980900Y-91230300I0J-50000D01*
G01*
X168980900Y-91330300D01*
G75*
G02*
X168930900Y-91380300I-50000J0D01*
G01*
X168230900Y-91380300D01*
G75*
G02*
X168180900Y-91330300I0J50000D01*
G01*
G37*
%TD.AperFunction*%
%TO.P,U1,1*%
%TO.N,+3V3*%
%TA.AperFunction,SMDPad,CuDef*%
G36*
G01*
X168180900Y-90980300D02*
X168180900Y-90880300D01*
G75*
G02*
X168230900Y-90830300I50000J0D01*
G01*
X168930900Y-90830300D01*
G75*
G02*
X168980900Y-90880300I0J-50000D01*
G01*
X168980900Y-90980300D01*
G75*
G02*
X168930900Y-91030300I-50000J0D01*
G01*
X168230900Y-91030300D01*
G75*
G02*
X168180900Y-90980300I0J50000D01*
G01*
G37*
%TD.AperFunction*%
%TD*%
%TO.P,R1,2*%
%TO.N,Net-(C3-Pad2)*%
%TA.AperFunction,SMDPad,CuDef*%
G36*
G01*
X162605299Y-84966000D02*
X163505301Y-84966000D01*
G75*
G02*
X163755300Y-85215999I0J-249999D01*
G01*
X163755300Y-85916001D01*
G75*
G02*
X163505301Y-86166000I-249999J0D01*
G01*
X162605299Y-86166000D01*
G75*
G02*
X162355300Y-85916001I0J249999D01*
G01*
X162355300Y-85215999D01*
G75*
G02*
X162605299Y-84966000I249999J0D01*
G01*
G37*
%TD.AperFunction*%
%TO.P,R1,1*%
%TO.N,Net-(C3-Pad1)*%
%TA.AperFunction,SMDPad,CuDef*%
G36*
G01*
X162605299Y-82966000D02*
X163505301Y-82966000D01*
G75*
G02*
X163755300Y-83215999I0J-249999D01*
G01*
X163755300Y-83916001D01*
G75*
G02*
X163505301Y-84166000I-249999J0D01*
G01*
X162605299Y-84166000D01*
G75*
G02*
X162355300Y-83916001I0J249999D01*
G01*
X162355300Y-83215999D01*
G75*
G02*
X162605299Y-82966000I249999J0D01*
G01*
G37*
%TD.AperFunction*%
%TD*%
%TO.P,L1,2*%
%TO.N,Net-(C2-Pad1)*%
%TA.AperFunction,SMDPad,CuDef*%
G36*
G01*
X133072400Y-91763001D02*
X133072400Y-90862999D01*
G75*
G02*
X133322399Y-90613000I249999J0D01*
G01*
X133972401Y-90613000D01*
G75*
G02*
X134222400Y-90862999I0J-249999D01*
G01*
X134222400Y-91763001D01*
G75*
G02*
X133972401Y-92013000I-249999J0D01*
G01*
X133322399Y-92013000D01*
G75*
G02*
X133072400Y-91763001I0J249999D01*
G01*
G37*
%TD.AperFunction*%
%TO.P,L1,1*%
%TO.N,Net-(AE1-Pad1)*%
%TA.AperFunction,SMDPad,CuDef*%
G36*
G01*
X131022400Y-91763001D02*
X131022400Y-90862999D01*
G75*
G02*
X131272399Y-90613000I249999J0D01*
G01*
X131922401Y-90613000D01*
G75*
G02*
X132172400Y-90862999I0J-249999D01*
G01*
X132172400Y-91763001D01*
G75*
G02*
X131922401Y-92013000I-249999J0D01*
G01*
X131272399Y-92013000D01*
G75*
G02*
X131022400Y-91763001I0J249999D01*
G01*
G37*
%TD.AperFunction*%
%TD*%
%TO.P,C10,2*%
%TO.N,GND*%
%TA.AperFunction,SMDPad,CuDef*%
G36*
G01*
X180158900Y-90251300D02*
X180158900Y-89301300D01*
G75*
G02*
X180408900Y-89051300I250000J0D01*
G01*
X181083900Y-89051300D01*
G75*
G02*
X181333900Y-89301300I0J-250000D01*
G01*
X181333900Y-90251300D01*
G75*
G02*
X181083900Y-90501300I-250000J0D01*
G01*
X180408900Y-90501300D01*
G75*
G02*
X180158900Y-90251300I0J250000D01*
G01*
G37*
%TD.AperFunction*%
%TO.P,C10,1*%
%TO.N,+3V3*%
%TA.AperFunction,SMDPad,CuDef*%
G36*
G01*
X178083900Y-90251300D02*
X178083900Y-89301300D01*
G75*
G02*
X178333900Y-89051300I250000J0D01*
G01*
X179008900Y-89051300D01*
G75*
G02*
X179258900Y-89301300I0J-250000D01*
G01*
X179258900Y-90251300D01*
G75*
G02*
X179008900Y-90501300I-250000J0D01*
G01*
X178333900Y-90501300D01*
G75*
G02*
X178083900Y-90251300I0J250000D01*
G01*
G37*
%TD.AperFunction*%
%TD*%
%TO.P,C9,2*%
%TO.N,GND*%
%TA.AperFunction,SMDPad,CuDef*%
G36*
G01*
X174528500Y-85956900D02*
X173578500Y-85956900D01*
G75*
G02*
X173328500Y-85706900I0J250000D01*
G01*
X173328500Y-85031900D01*
G75*
G02*
X173578500Y-84781900I250000J0D01*
G01*
X174528500Y-84781900D01*
G75*
G02*
X174778500Y-85031900I0J-250000D01*
G01*
X174778500Y-85706900D01*
G75*
G02*
X174528500Y-85956900I-250000J0D01*
G01*
G37*
%TD.AperFunction*%
%TO.P,C9,1*%
%TO.N,+3V3*%
%TA.AperFunction,SMDPad,CuDef*%
G36*
G01*
X174528500Y-88031900D02*
X173578500Y-88031900D01*
G75*
G02*
X173328500Y-87781900I0J250000D01*
G01*
X173328500Y-87106900D01*
G75*
G02*
X173578500Y-86856900I250000J0D01*
G01*
X174528500Y-86856900D01*
G75*
G02*
X174778500Y-87106900I0J-250000D01*
G01*
X174778500Y-87781900D01*
G75*
G02*
X174528500Y-88031900I-250000J0D01*
G01*
G37*
%TD.AperFunction*%
%TD*%
%TO.P,C8,2*%
%TO.N,GND*%
%TA.AperFunction,SMDPad,CuDef*%
G36*
G01*
X170238400Y-100128400D02*
X171188400Y-100128400D01*
G75*
G02*
X171438400Y-100378400I0J-250000D01*
G01*
X171438400Y-101053400D01*
G75*
G02*
X171188400Y-101303400I-250000J0D01*
G01*
X170238400Y-101303400D01*
G75*
G02*
X169988400Y-101053400I0J250000D01*
G01*
X169988400Y-100378400D01*
G75*
G02*
X170238400Y-100128400I250000J0D01*
G01*
G37*
%TD.AperFunction*%
%TO.P,C8,1*%
%TO.N,+3V3*%
%TA.AperFunction,SMDPad,CuDef*%
G36*
G01*
X170238400Y-98053400D02*
X171188400Y-98053400D01*
G75*
G02*
X171438400Y-98303400I0J-250000D01*
G01*
X171438400Y-98978400D01*
G75*
G02*
X171188400Y-99228400I-250000J0D01*
G01*
X170238400Y-99228400D01*
G75*
G02*
X169988400Y-98978400I0J250000D01*
G01*
X169988400Y-98303400D01*
G75*
G02*
X170238400Y-98053400I250000J0D01*
G01*
G37*
%TD.AperFunction*%
%TD*%
%TO.P,C7,2*%
%TO.N,GND*%
%TA.AperFunction,SMDPad,CuDef*%
G36*
G01*
X169772000Y-86520000D02*
X169772000Y-87470000D01*
G75*
G02*
X169522000Y-87720000I-250000J0D01*
G01*
X168847000Y-87720000D01*
G75*
G02*
X168597000Y-87470000I0J250000D01*
G01*
X168597000Y-86520000D01*
G75*
G02*
X168847000Y-86270000I250000J0D01*
G01*
X169522000Y-86270000D01*
G75*
G02*
X169772000Y-86520000I0J-250000D01*
G01*
G37*
%TD.AperFunction*%
%TO.P,C7,1*%
%TO.N,Net-(C7-Pad1)*%
%TA.AperFunction,SMDPad,CuDef*%
G36*
G01*
X171847000Y-86520000D02*
X171847000Y-87470000D01*
G75*
G02*
X171597000Y-87720000I-250000J0D01*
G01*
X170922000Y-87720000D01*
G75*
G02*
X170672000Y-87470000I0J250000D01*
G01*
X170672000Y-86520000D01*
G75*
G02*
X170922000Y-86270000I250000J0D01*
G01*
X171597000Y-86270000D01*
G75*
G02*
X171847000Y-86520000I0J-250000D01*
G01*
G37*
%TD.AperFunction*%
%TD*%
%TO.P,C6,2*%
%TO.N,GND*%
%TA.AperFunction,SMDPad,CuDef*%
G36*
G01*
X170473700Y-78326000D02*
X170473700Y-77376000D01*
G75*
G02*
X170723700Y-77126000I250000J0D01*
G01*
X171398700Y-77126000D01*
G75*
G02*
X171648700Y-77376000I0J-250000D01*
G01*
X171648700Y-78326000D01*
G75*
G02*
X171398700Y-78576000I-250000J0D01*
G01*
X170723700Y-78576000D01*
G75*
G02*
X170473700Y-78326000I0J250000D01*
G01*
G37*
%TD.AperFunction*%
%TO.P,C6,1*%
%TO.N,Net-(C6-Pad1)*%
%TA.AperFunction,SMDPad,CuDef*%
G36*
G01*
X168398700Y-78326000D02*
X168398700Y-77376000D01*
G75*
G02*
X168648700Y-77126000I250000J0D01*
G01*
X169323700Y-77126000D01*
G75*
G02*
X169573700Y-77376000I0J-250000D01*
G01*
X169573700Y-78326000D01*
G75*
G02*
X169323700Y-78576000I-250000J0D01*
G01*
X168648700Y-78576000D01*
G75*
G02*
X168398700Y-78326000I0J250000D01*
G01*
G37*
%TD.AperFunction*%
%TD*%
%TO.P,C3,2*%
%TO.N,Net-(C3-Pad2)*%
%TA.AperFunction,SMDPad,CuDef*%
G36*
G01*
X159481500Y-83016600D02*
X160431500Y-83016600D01*
G75*
G02*
X160681500Y-83266600I0J-250000D01*
G01*
X160681500Y-83941600D01*
G75*
G02*
X160431500Y-84191600I-250000J0D01*
G01*
X159481500Y-84191600D01*
G75*
G02*
X159231500Y-83941600I0J250000D01*
G01*
X159231500Y-83266600D01*
G75*
G02*
X159481500Y-83016600I250000J0D01*
G01*
G37*
%TD.AperFunction*%
%TO.P,C3,1*%
%TO.N,Net-(C3-Pad1)*%
%TA.AperFunction,SMDPad,CuDef*%
G36*
G01*
X159481500Y-80941600D02*
X160431500Y-80941600D01*
G75*
G02*
X160681500Y-81191600I0J-250000D01*
G01*
X160681500Y-81866600D01*
G75*
G02*
X160431500Y-82116600I-250000J0D01*
G01*
X159481500Y-82116600D01*
G75*
G02*
X159231500Y-81866600I0J250000D01*
G01*
X159231500Y-81191600D01*
G75*
G02*
X159481500Y-80941600I250000J0D01*
G01*
G37*
%TD.AperFunction*%
%TD*%
%TO.P,C2,2*%
%TO.N,GND*%
%TA.AperFunction,SMDPad,CuDef*%
G36*
G01*
X136253200Y-92800500D02*
X137203200Y-92800500D01*
G75*
G02*
X137453200Y-93050500I0J-250000D01*
G01*
X137453200Y-93725500D01*
G75*
G02*
X137203200Y-93975500I-250000J0D01*
G01*
X136253200Y-93975500D01*
G75*
G02*
X136003200Y-93725500I0J250000D01*
G01*
X136003200Y-93050500D01*
G75*
G02*
X136253200Y-92800500I250000J0D01*
G01*
G37*
%TD.AperFunction*%
%TO.P,C2,1*%
%TO.N,Net-(C2-Pad1)*%
%TA.AperFunction,SMDPad,CuDef*%
G36*
G01*
X136253200Y-90725500D02*
X137203200Y-90725500D01*
G75*
G02*
X137453200Y-90975500I0J-250000D01*
G01*
X137453200Y-91650500D01*
G75*
G02*
X137203200Y-91900500I-250000J0D01*
G01*
X136253200Y-91900500D01*
G75*
G02*
X136003200Y-91650500I0J250000D01*
G01*
X136003200Y-90975500D01*
G75*
G02*
X136253200Y-90725500I250000J0D01*
G01*
G37*
%TD.AperFunction*%
%TD*%
%TO.P,C1,2*%
%TO.N,GND*%
%TA.AperFunction,SMDPad,CuDef*%
G36*
G01*
X128391900Y-92737000D02*
X129341900Y-92737000D01*
G75*
G02*
X129591900Y-92987000I0J-250000D01*
G01*
X129591900Y-93662000D01*
G75*
G02*
X129341900Y-93912000I-250000J0D01*
G01*
X128391900Y-93912000D01*
G75*
G02*
X128141900Y-93662000I0J250000D01*
G01*
X128141900Y-92987000D01*
G75*
G02*
X128391900Y-92737000I250000J0D01*
G01*
G37*
%TD.AperFunction*%
%TO.P,C1,1*%
%TO.N,Net-(AE1-Pad1)*%
%TA.AperFunction,SMDPad,CuDef*%
G36*
G01*
X128391900Y-90662000D02*
X129341900Y-90662000D01*
G75*
G02*
X129591900Y-90912000I0J-250000D01*
G01*
X129591900Y-91587000D01*
G75*
G02*
X129341900Y-91837000I-250000J0D01*
G01*
X128391900Y-91837000D01*
G75*
G02*
X128141900Y-91587000I0J250000D01*
G01*
X128141900Y-90912000D01*
G75*
G02*
X128391900Y-90662000I250000J0D01*
G01*
G37*
%TD.AperFunction*%
%TD*%
%TO.P,AE1,2*%
%TO.N,Net-(AE1-Pad2)*%
%TA.AperFunction,SMDPad,CuDef*%
G36*
G01*
X122414000Y-90599499D02*
X122414000Y-91899501D01*
G75*
G02*
X122164001Y-92149500I-249999J0D01*
G01*
X121463999Y-92149500D01*
G75*
G02*
X121214000Y-91899501I0J249999D01*
G01*
X121214000Y-90599499D01*
G75*
G02*
X121463999Y-90349500I249999J0D01*
G01*
X122164001Y-90349500D01*
G75*
G02*
X122414000Y-90599499I0J-249999D01*
G01*
G37*
%TD.AperFunction*%
%TO.P,AE1,1*%
%TO.N,Net-(AE1-Pad1)*%
%TA.AperFunction,SMDPad,CuDef*%
G36*
G01*
X125314000Y-90599499D02*
X125314000Y-91899501D01*
G75*
G02*
X125064001Y-92149500I-249999J0D01*
G01*
X124363999Y-92149500D01*
G75*
G02*
X124114000Y-91899501I0J249999D01*
G01*
X124114000Y-90599499D01*
G75*
G02*
X124363999Y-90349500I249999J0D01*
G01*
X125064001Y-90349500D01*
G75*
G02*
X125314000Y-90599499I0J-249999D01*
G01*
G37*
%TD.AperFunction*%
%TD*%
D15*
%TO.N,GND*%
X168910000Y-83820000D03*
X137795000Y-73025000D03*
X137795000Y-82550000D03*
X150495000Y-72390000D03*
X151130000Y-83820000D03*
X133350000Y-104140000D03*
X141605000Y-100965000D03*
X188595000Y-113030000D03*
X180975000Y-112395000D03*
X180340000Y-87630000D03*
X173355000Y-102235000D03*
%TO.N,+3V3*%
X171513500Y-89623900D03*
X170115400Y-89636600D03*
X167055800Y-92760800D03*
X167170100Y-90195400D03*
X178671400Y-89776300D03*
X174028100Y-87553800D03*
X170713400Y-98640900D03*
%TD*%
D16*
%TO.N,Net-(AE1-Pad1)*%
X128930400Y-91313000D02*
X128866900Y-91249500D01*
X131597400Y-91313000D02*
X128930400Y-91313000D01*
X128866900Y-91249500D02*
X124714000Y-91249500D01*
D17*
%TO.N,GND*%
X168948100Y-86758600D02*
X169184500Y-86995000D01*
X168948100Y-83887900D02*
X168948100Y-86758600D01*
D18*
%TO.N,+3V3*%
X170855900Y-95655300D02*
X170855900Y-96326700D01*
X170713400Y-96469200D02*
X170855900Y-96326700D01*
X170713400Y-98640900D02*
X170713400Y-98640900D01*
X171205900Y-89512400D02*
X171205900Y-90755300D01*
X171402000Y-89512400D02*
X171513500Y-89623900D01*
X171205900Y-89512400D02*
X171402000Y-89512400D01*
X170115400Y-90714800D02*
X170155900Y-90755300D01*
X170115400Y-89636600D02*
X170115400Y-90714800D01*
X168580900Y-91630300D02*
X168580900Y-91980300D01*
X167836300Y-91980300D02*
X167055800Y-92760800D01*
X168580900Y-91980300D02*
X167836300Y-91980300D01*
X167905000Y-90930300D02*
X167170100Y-90195400D01*
X168580900Y-90930300D02*
X167905000Y-90930300D01*
D19*
X163517400Y-92760800D02*
X163238000Y-93040200D01*
X167055800Y-92760800D02*
X163517400Y-92760800D01*
D18*
X178671400Y-89776300D02*
X178671400Y-89776300D01*
X173871034Y-91280300D02*
X173480900Y-91280300D01*
X174041534Y-91109800D02*
X173871034Y-91280300D01*
X175958500Y-91109800D02*
X174041534Y-91109800D01*
X177292000Y-89776300D02*
X175958500Y-91109800D01*
X171538900Y-89179400D02*
X171205900Y-89512400D01*
X172034200Y-89179400D02*
X171538900Y-89179400D01*
X173659800Y-87553800D02*
X172034200Y-89179400D01*
X174028100Y-87553800D02*
X174028100Y-87553800D01*
X178671400Y-89776300D02*
X177292000Y-89776300D01*
X174028100Y-87553800D02*
X173659800Y-87553800D01*
X170713400Y-98640900D02*
X170713400Y-96469200D01*
%TO.N,Net-(C7-Pad1)*%
X171259500Y-86995000D02*
X171259500Y-88328500D01*
X170855900Y-88732100D02*
X170855900Y-90755300D01*
X171259500Y-88328500D02*
X170855900Y-88732100D01*
D19*
X171259500Y-83999300D02*
X171148100Y-83887900D01*
X171259500Y-86995000D02*
X171259500Y-83999300D01*
D18*
%TO.N,Net-(C2-Pad1)*%
X168580900Y-91280300D02*
X167418700Y-91280300D01*
D20*
X167418700Y-91280300D02*
X167411400Y-91287600D01*
X167411400Y-91287600D02*
X166814500Y-91287600D01*
D16*
X136753600Y-91287600D02*
X136728200Y-91313000D01*
X166814500Y-91287600D02*
X136753600Y-91287600D01*
X133647400Y-91313000D02*
X136728200Y-91313000D01*
D19*
%TO.N,Net-(C3-Pad2)*%
X159809000Y-83751600D02*
X159956500Y-83604100D01*
X159809000Y-86055200D02*
X159809000Y-83751600D01*
X160298200Y-85566000D02*
X159809000Y-86055200D01*
X163055300Y-85566000D02*
X160298200Y-85566000D01*
D18*
X169455900Y-90755300D02*
X169455900Y-90258700D01*
X169455900Y-90258700D02*
X168084500Y-88887300D01*
X168084500Y-88887300D02*
X164465000Y-88887300D01*
X163055300Y-87477600D02*
X163055300Y-85566000D01*
X164465000Y-88887300D02*
X163055300Y-87477600D01*
D19*
%TO.N,Net-(C3-Pad1)*%
X161018400Y-81529100D02*
X163055300Y-83566000D01*
X159956500Y-81529100D02*
X161018400Y-81529100D01*
D18*
X169709910Y-90233310D02*
X169709910Y-89649110D01*
X169805900Y-90329300D02*
X169709910Y-90233310D01*
X169805900Y-90755300D02*
X169805900Y-90329300D01*
X163122424Y-83566000D02*
X163055300Y-83566000D01*
X168697724Y-89141300D02*
X163122424Y-83566000D01*
X169202100Y-89141300D02*
X168697724Y-89141300D01*
X169709910Y-89649110D02*
X169202100Y-89141300D01*
D19*
%TO.N,Net-(C6-Pad1)*%
X168948100Y-80987900D02*
X167576500Y-80987900D01*
X167576500Y-80987900D02*
X167322500Y-81241900D01*
X167322500Y-81241900D02*
X167322500Y-87134700D01*
X167322500Y-87134700D02*
X168871900Y-88684100D01*
D21*
X168871900Y-88684100D02*
X170053000Y-88684100D01*
X170053000Y-88684100D02*
X170357800Y-88684100D01*
D18*
X170505900Y-88832200D02*
X170357800Y-88684100D01*
X170505900Y-90755300D02*
X170505900Y-88832200D01*
D20*
X168986200Y-80949800D02*
X168948100Y-80987900D01*
X168986200Y-77851000D02*
X168986200Y-80949800D01*
D18*
%TO.N,Net-(J1-Pad10)*%
X163106100Y-100955100D02*
X163106100Y-112077500D01*
X168580900Y-95480300D02*
X163106100Y-100955100D01*
%TO.N,Net-(J1-Pad9)*%
X168189672Y-95130300D02*
X168580900Y-95130300D01*
X160566100Y-102753872D02*
X168189672Y-95130300D01*
X160566100Y-112077500D02*
X160566100Y-102753872D01*
%TO.N,Net-(J1-Pad8)*%
X168180447Y-94780300D02*
X158026100Y-104934647D01*
X158026100Y-110875419D02*
X158026100Y-112077500D01*
X168580900Y-94780300D02*
X168180447Y-94780300D01*
X158026100Y-104934647D02*
X158026100Y-110875419D01*
%TO.N,Net-(J1-Pad7)*%
X168171222Y-94430300D02*
X168580900Y-94430300D01*
X155486100Y-107115422D02*
X168171222Y-94430300D01*
X155486100Y-112077500D02*
X155486100Y-107115422D01*
%TO.N,Net-(J1-Pad6)*%
X152946100Y-110875419D02*
X152946100Y-112077500D01*
X152946100Y-109296197D02*
X152946100Y-110875419D01*
X168161997Y-94080300D02*
X152946100Y-109296197D01*
X168580900Y-94080300D02*
X168161997Y-94080300D01*
%TO.N,Net-(J1-Pad5)*%
X150406100Y-111471524D02*
X150406100Y-112077500D01*
X168147324Y-93730300D02*
X150406100Y-111471524D01*
X168580900Y-93730300D02*
X168147324Y-93730300D01*
%TO.N,Net-(J1-Pad4)*%
X168138100Y-93380300D02*
X168580900Y-93380300D01*
X162445700Y-99072700D02*
X168138100Y-93380300D01*
X160870900Y-99072700D02*
X162445700Y-99072700D01*
X147866100Y-112077500D02*
X160870900Y-99072700D01*
%TO.N,Net-(J1-Pad3)*%
X168128876Y-93030300D02*
X162391276Y-98767900D01*
X162391276Y-98767900D02*
X158635700Y-98767900D01*
X168580900Y-93030300D02*
X168128876Y-93030300D01*
X158635700Y-98767900D02*
X145326100Y-112077500D01*
%TO.N,Net-(J1-Pad2)*%
X163162351Y-97637600D02*
X168119651Y-92680300D01*
X168119651Y-92680300D02*
X168580900Y-92680300D01*
X142786100Y-112077500D02*
X157226000Y-97637600D01*
X157226000Y-97637600D02*
X163162351Y-97637600D01*
%TO.N,Net-(J1-Pad1)*%
X156121100Y-96202500D02*
X140246100Y-112077500D01*
X164238226Y-96202500D02*
X156121100Y-96202500D01*
X168110426Y-92330300D02*
X164238226Y-96202500D01*
X168580900Y-92330300D02*
X168110426Y-92330300D01*
%TO.N,Net-(J2-Pad10)*%
X188315600Y-104673400D02*
X190957200Y-107315000D01*
X180918748Y-104673400D02*
X188315600Y-104673400D01*
X172605900Y-96360552D02*
X180918748Y-104673400D01*
X172605900Y-95655300D02*
X172605900Y-96360552D01*
%TO.N,Net-(J2-Pad9)*%
X172255900Y-95655300D02*
X172255900Y-96369777D01*
X186029611Y-104927411D02*
X188417200Y-107315000D01*
X172255900Y-96369777D02*
X180813534Y-104927411D01*
X180813534Y-104927411D02*
X186029611Y-104927411D01*
%TO.N,Net-(J2-Pad8)*%
X184162690Y-105600490D02*
X185877200Y-107315000D01*
X181127390Y-105600490D02*
X184162690Y-105600490D01*
X171905900Y-96379000D02*
X181127390Y-105600490D01*
X171905900Y-95655300D02*
X171905900Y-96379000D01*
%TO.N,Net-(J2-Pad7)*%
X181876700Y-105854500D02*
X183337200Y-107315000D01*
X180809900Y-105854500D02*
X181876700Y-105854500D01*
X171555900Y-96600500D02*
X180809900Y-105854500D01*
X171555900Y-95655300D02*
X171555900Y-96600500D01*
%TO.N,Net-(J2-Pad6)*%
X180797200Y-107315000D02*
X180797200Y-106201025D01*
X180797200Y-106201025D02*
X171205900Y-96609725D01*
X171205900Y-96609725D02*
X171205900Y-95655300D01*
%TO.N,Net-(J2-Pad5)*%
X174853600Y-103911400D02*
X178257200Y-107315000D01*
X171665900Y-103911400D02*
X174853600Y-103911400D01*
X169797890Y-102043390D02*
X171665900Y-103911400D01*
X169797890Y-97422810D02*
X169797890Y-102043390D01*
X170446410Y-96774290D02*
X169797890Y-97422810D01*
X170446410Y-95974190D02*
X170446410Y-96774290D01*
X170505900Y-95914700D02*
X170446410Y-95974190D01*
X170505900Y-95655300D02*
X170505900Y-95914700D01*
%TO.N,Net-(J2-Pad4)*%
X170155900Y-96404400D02*
X170155900Y-95655300D01*
X168922700Y-97637600D02*
X170155900Y-96404400D01*
X168922700Y-102412800D02*
X168922700Y-97637600D01*
X171145200Y-104635300D02*
X168922700Y-102412800D01*
X173037500Y-104635300D02*
X171145200Y-104635300D01*
X175717200Y-107315000D02*
X173037500Y-104635300D01*
%TO.N,Net-(J2-Pad3)*%
X169805900Y-96055900D02*
X169805900Y-95655300D01*
X168668690Y-97193110D02*
X169805900Y-96055900D01*
X168668690Y-102806490D02*
X168668690Y-97193110D01*
X173177200Y-107315000D02*
X168668690Y-102806490D01*
%TO.N,Net-(J2-Pad2)*%
X168414681Y-96696519D02*
X168414681Y-104444781D01*
X169455900Y-95655300D02*
X168414681Y-96696519D01*
X170637200Y-106667300D02*
X170637200Y-107315000D01*
X168414681Y-104444781D02*
X170637200Y-106667300D01*
%TO.N,Net-(J3-Pad4)*%
X176441100Y-68287900D02*
X176441100Y-70459600D01*
X176441100Y-70459600D02*
X177787300Y-71805800D01*
X177787300Y-85146078D02*
X173919078Y-89014300D01*
X177787300Y-71805800D02*
X177787300Y-85146078D01*
X173919078Y-89014300D02*
X173012100Y-89014300D01*
X171555900Y-90346718D02*
X171555900Y-90755300D01*
X172710527Y-89192091D02*
X171555900Y-90346718D01*
X172834310Y-89192090D02*
X172710527Y-89192091D01*
X173012100Y-89014300D02*
X172834310Y-89192090D01*
%TO.N,Net-(J3-Pad3)*%
X171905900Y-90355942D02*
X172815742Y-89446100D01*
X171905900Y-90755300D02*
X171905900Y-90355942D01*
X172815742Y-89446100D02*
X175488600Y-89446100D01*
X175488600Y-89446100D02*
X179031900Y-85902800D01*
X179031900Y-68338700D02*
X178981100Y-68287900D01*
X179031900Y-85902800D02*
X179031900Y-68338700D01*
%TO.N,Net-(J3-Pad2)*%
X172255900Y-90365166D02*
X172255900Y-90755300D01*
X172456276Y-90164790D02*
X172255900Y-90365166D01*
X179705000Y-86029800D02*
X175570010Y-90164790D01*
X179705000Y-70104000D02*
X179705000Y-86029800D01*
X181521100Y-68287900D02*
X179705000Y-70104000D01*
X175570010Y-90164790D02*
X172456276Y-90164790D01*
%TO.N,Net-(J3-Pad1)*%
X172605900Y-90755300D02*
X172942399Y-90418801D01*
X175675224Y-90418801D02*
X181089300Y-85004725D01*
X172942399Y-90418801D02*
X175675224Y-90418801D01*
X181089300Y-85004725D02*
X181089300Y-70282700D01*
X181089300Y-70282700D02*
X183084100Y-68287900D01*
X183084100Y-68287900D02*
X184061100Y-68287900D01*
%TO.N,Net-(J5-Pad14)*%
X173480900Y-90930300D02*
X173593500Y-90817700D01*
X175891376Y-90817700D02*
X178257200Y-88451876D01*
X173593500Y-90817700D02*
X175891376Y-90817700D01*
X190834619Y-68567300D02*
X192036700Y-68567300D01*
X181444890Y-77957029D02*
X190834619Y-68567300D01*
X181444890Y-85008359D02*
X181444890Y-77957029D01*
X178257200Y-88196049D02*
X181444890Y-85008359D01*
X178257200Y-88451876D02*
X178257200Y-88196049D01*
%TO.N,Net-(J5-Pad13)*%
X180327878Y-91630300D02*
X181698900Y-90259278D01*
X173480900Y-91630300D02*
X180327878Y-91630300D01*
X181698900Y-90259278D02*
X181698900Y-78841600D01*
X189433200Y-71107300D02*
X192036700Y-71107300D01*
X181698900Y-78841600D02*
X189433200Y-71107300D01*
%TO.N,Net-(J5-Pad12)*%
X192036700Y-73647300D02*
X190588900Y-73647300D01*
X190588900Y-73647300D02*
X184391300Y-79844900D01*
X180337102Y-91980300D02*
X173480900Y-91980300D01*
X184391300Y-87926102D02*
X180337102Y-91980300D01*
X184391300Y-79844900D02*
X184391300Y-87926102D01*
%TO.N,Net-(J5-Pad11)*%
X186270890Y-81953110D02*
X192036700Y-76187300D01*
X186270890Y-87020410D02*
X186270890Y-81953110D01*
X180961000Y-92330300D02*
X186270890Y-87020410D01*
X173480900Y-92330300D02*
X180961000Y-92330300D01*
%TO.N,Net-(J5-Pad10)*%
X192036700Y-78727300D02*
X186524900Y-84239100D01*
X173480900Y-92680300D02*
X182655700Y-92680300D01*
X186524900Y-88811100D02*
X186524900Y-84239100D01*
X182655700Y-92680300D02*
X186524900Y-88811100D01*
%TO.N,Net-(J5-Pad9)*%
X190119000Y-81267300D02*
X192036700Y-81267300D01*
X189534800Y-81851500D02*
X190119000Y-81267300D01*
X189534800Y-87210900D02*
X189534800Y-81851500D01*
X183680100Y-93065600D02*
X189534800Y-87210900D01*
X173916200Y-93065600D02*
X183680100Y-93065600D01*
X173880900Y-93030300D02*
X173916200Y-93065600D01*
X173480900Y-93030300D02*
X173880900Y-93030300D01*
%TO.N,Net-(J5-Pad8)*%
X189788811Y-87316114D02*
X183724625Y-93380300D01*
X192036700Y-83807300D02*
X189788811Y-86055189D01*
X189788811Y-86055189D02*
X189788811Y-87316114D01*
X183724625Y-93380300D02*
X173480900Y-93380300D01*
%TO.N,Net-(J5-Pad7)*%
X173480900Y-93730300D02*
X183815500Y-93730300D01*
X191198500Y-86347300D02*
X192036700Y-86347300D01*
X183815500Y-93730300D02*
X191198500Y-86347300D01*
%TO.N,Net-(J5-Pad6)*%
X173480900Y-94080300D02*
X185840400Y-94080300D01*
X191033400Y-88887300D02*
X192036700Y-88887300D01*
X185840400Y-94080300D02*
X191033400Y-88887300D01*
%TO.N,Net-(J5-Pad5)*%
X192036700Y-91427300D02*
X189966600Y-93497400D01*
X189966600Y-93497400D02*
X188506100Y-93497400D01*
X187573200Y-94430300D02*
X173480900Y-94430300D01*
X188506100Y-93497400D02*
X187573200Y-94430300D01*
%TO.N,Net-(J5-Pad4)*%
X173480900Y-94780300D02*
X188950400Y-94780300D01*
X188950400Y-94780300D02*
X189522100Y-94208600D01*
X191795400Y-94208600D02*
X192036700Y-93967300D01*
X189522100Y-94208600D02*
X191795400Y-94208600D01*
%TO.N,Net-(J5-Pad3)*%
X173480900Y-95130300D02*
X179267800Y-95130300D01*
X180644800Y-96507300D02*
X192036700Y-96507300D01*
X179267800Y-95130300D02*
X180644800Y-96507300D01*
%TO.N,Net-(J5-Pad2)*%
X192036700Y-99047300D02*
X180746400Y-99047300D01*
X177179400Y-95480300D02*
X173480900Y-95480300D01*
X180746400Y-99047300D02*
X177179400Y-95480300D01*
%TD*%
D22*
%TO.N,GND*%
X193548000Y-116078000D02*
X127762000Y-116078000D01*
X127762000Y-94421687D01*
X127787406Y-94442537D01*
X127897720Y-94501502D01*
X128017418Y-94537812D01*
X128141900Y-94550072D01*
X128581150Y-94547000D01*
X128739900Y-94388250D01*
X128739900Y-93451500D01*
X128993900Y-93451500D01*
X128993900Y-94388250D01*
X129152650Y-94547000D01*
X129591900Y-94550072D01*
X129716382Y-94537812D01*
X129836080Y-94501502D01*
X129946394Y-94442537D01*
X130043085Y-94363185D01*
X130122437Y-94266494D01*
X130181402Y-94156180D01*
X130217712Y-94036482D01*
X130223718Y-93975500D01*
X135365128Y-93975500D01*
X135377388Y-94099982D01*
X135413698Y-94219680D01*
X135472663Y-94329994D01*
X135552015Y-94426685D01*
X135648706Y-94506037D01*
X135759020Y-94565002D01*
X135878718Y-94601312D01*
X136003200Y-94613572D01*
X136442450Y-94610500D01*
X136601200Y-94451750D01*
X136601200Y-93515000D01*
X136855200Y-93515000D01*
X136855200Y-94451750D01*
X137013950Y-94610500D01*
X137453200Y-94613572D01*
X137577682Y-94601312D01*
X137697380Y-94565002D01*
X137807694Y-94506037D01*
X137904385Y-94426685D01*
X137983737Y-94329994D01*
X138042702Y-94219680D01*
X138079012Y-94099982D01*
X138091272Y-93975500D01*
X138089132Y-93765200D01*
X159937428Y-93765200D01*
X159949688Y-93889682D01*
X159985998Y-94009380D01*
X160044963Y-94119694D01*
X160124315Y-94216385D01*
X160221006Y-94295737D01*
X160331320Y-94354702D01*
X160451018Y-94391012D01*
X160575500Y-94403272D01*
X160877250Y-94400200D01*
X161036000Y-94241450D01*
X161036000Y-93167200D01*
X160099250Y-93167200D01*
X159940500Y-93325950D01*
X159937428Y-93765200D01*
X138089132Y-93765200D01*
X138088200Y-93673750D01*
X137929450Y-93515000D01*
X136855200Y-93515000D01*
X136601200Y-93515000D01*
X135526950Y-93515000D01*
X135368200Y-93673750D01*
X135365128Y-93975500D01*
X130223718Y-93975500D01*
X130229972Y-93912000D01*
X130226900Y-93610250D01*
X130068150Y-93451500D01*
X128993900Y-93451500D01*
X128739900Y-93451500D01*
X128719900Y-93451500D01*
X128719900Y-93197500D01*
X128739900Y-93197500D01*
X128739900Y-93177500D01*
X128993900Y-93177500D01*
X128993900Y-93197500D01*
X130068150Y-93197500D01*
X130226900Y-93038750D01*
X130229972Y-92737000D01*
X130217712Y-92612518D01*
X130181402Y-92492820D01*
X130122437Y-92382506D01*
X130118329Y-92377500D01*
X131142334Y-92377500D01*
X131149722Y-92379741D01*
X131272399Y-92391824D01*
X131922401Y-92391824D01*
X132045078Y-92379741D01*
X132163041Y-92343958D01*
X132271756Y-92285848D01*
X132367046Y-92207646D01*
X132445248Y-92112356D01*
X132503358Y-92003641D01*
X132539141Y-91885678D01*
X132548362Y-91792056D01*
X132585628Y-91722337D01*
X132622400Y-91601115D01*
X132659172Y-91722337D01*
X132696438Y-91792056D01*
X132705659Y-91885678D01*
X132741442Y-92003641D01*
X132799552Y-92112356D01*
X132877754Y-92207646D01*
X132973044Y-92285848D01*
X133081759Y-92343958D01*
X133199722Y-92379741D01*
X133322399Y-92391824D01*
X133972401Y-92391824D01*
X134095078Y-92379741D01*
X134102466Y-92377500D01*
X135528884Y-92377500D01*
X135472663Y-92446006D01*
X135413698Y-92556320D01*
X135377388Y-92676018D01*
X135365128Y-92800500D01*
X135368200Y-93102250D01*
X135526950Y-93261000D01*
X136601200Y-93261000D01*
X136601200Y-93241000D01*
X136855200Y-93241000D01*
X136855200Y-93261000D01*
X137929450Y-93261000D01*
X138088200Y-93102250D01*
X138091272Y-92800500D01*
X138079012Y-92676018D01*
X138042702Y-92556320D01*
X137983737Y-92446006D01*
X137906671Y-92352100D01*
X159937686Y-92352100D01*
X159940500Y-92754450D01*
X160099250Y-92913200D01*
X161036000Y-92913200D01*
X161036000Y-92893200D01*
X161290000Y-92893200D01*
X161290000Y-92913200D01*
X161310000Y-92913200D01*
X161310000Y-93167200D01*
X161290000Y-93167200D01*
X161290000Y-94241450D01*
X161448750Y-94400200D01*
X161750500Y-94403272D01*
X161874982Y-94391012D01*
X161994680Y-94354702D01*
X162104994Y-94295737D01*
X162201685Y-94216385D01*
X162281037Y-94119694D01*
X162340002Y-94009380D01*
X162376312Y-93889682D01*
X162378665Y-93865790D01*
X162455854Y-93959846D01*
X162551144Y-94038048D01*
X162659859Y-94096158D01*
X162777823Y-94131941D01*
X162900500Y-94144024D01*
X163575500Y-94144024D01*
X163698177Y-94131941D01*
X163816141Y-94096158D01*
X163924856Y-94038048D01*
X164020146Y-93959846D01*
X164098348Y-93864556D01*
X164156458Y-93755841D01*
X164192241Y-93637877D01*
X164204324Y-93515200D01*
X164204324Y-93387800D01*
X166429965Y-93387800D01*
X164055766Y-95762000D01*
X156142725Y-95762000D01*
X156121099Y-95759870D01*
X156099473Y-95762000D01*
X156099464Y-95762000D01*
X156034747Y-95768374D01*
X155951712Y-95793562D01*
X155875187Y-95834466D01*
X155808113Y-95889513D01*
X155794323Y-95906316D01*
X140851964Y-110848676D01*
X139396100Y-110848676D01*
X139322195Y-110855955D01*
X139251130Y-110877512D01*
X139185637Y-110912519D01*
X139128231Y-110959631D01*
X139081119Y-111017037D01*
X139046112Y-111082530D01*
X139024555Y-111153595D01*
X139017276Y-111227500D01*
X139017276Y-112927500D01*
X139024555Y-113001405D01*
X139046112Y-113072470D01*
X139081119Y-113137963D01*
X139128231Y-113195369D01*
X139185637Y-113242481D01*
X139251130Y-113277488D01*
X139322195Y-113299045D01*
X139396100Y-113306324D01*
X141096100Y-113306324D01*
X141170005Y-113299045D01*
X141241070Y-113277488D01*
X141306563Y-113242481D01*
X141363969Y-113195369D01*
X141411081Y-113137963D01*
X141446088Y-113072470D01*
X141467645Y-113001405D01*
X141474924Y-112927500D01*
X141474924Y-111471636D01*
X156303561Y-96643000D01*
X163533991Y-96643000D01*
X162979891Y-97197100D01*
X157247625Y-97197100D01*
X157225999Y-97194970D01*
X157204373Y-97197100D01*
X157204364Y-97197100D01*
X157139647Y-97203474D01*
X157056612Y-97228662D01*
X156980087Y-97269566D01*
X156913013Y-97324613D01*
X156899223Y-97341416D01*
X143284706Y-110955934D01*
X143144003Y-110897653D01*
X142906949Y-110850500D01*
X142665251Y-110850500D01*
X142428197Y-110897653D01*
X142204898Y-110990147D01*
X142003933Y-111124427D01*
X141833027Y-111295333D01*
X141698747Y-111496298D01*
X141606253Y-111719597D01*
X141559100Y-111956651D01*
X141559100Y-112198349D01*
X141606253Y-112435403D01*
X141698747Y-112658702D01*
X141833027Y-112859667D01*
X142003933Y-113030573D01*
X142204898Y-113164853D01*
X142428197Y-113257347D01*
X142665251Y-113304500D01*
X142906949Y-113304500D01*
X143144003Y-113257347D01*
X143367302Y-113164853D01*
X143568267Y-113030573D01*
X143739173Y-112859667D01*
X143873453Y-112658702D01*
X143965947Y-112435403D01*
X144013100Y-112198349D01*
X144013100Y-111956651D01*
X143965947Y-111719597D01*
X143907666Y-111578894D01*
X157408461Y-98078100D01*
X162458116Y-98078100D01*
X162208816Y-98327400D01*
X158657329Y-98327400D01*
X158635700Y-98325270D01*
X158614071Y-98327400D01*
X158614064Y-98327400D01*
X158549347Y-98333774D01*
X158466312Y-98358962D01*
X158389787Y-98399866D01*
X158322713Y-98454913D01*
X158308923Y-98471716D01*
X145824706Y-110955934D01*
X145684003Y-110897653D01*
X145446949Y-110850500D01*
X145205251Y-110850500D01*
X144968197Y-110897653D01*
X144744898Y-110990147D01*
X144543933Y-111124427D01*
X144373027Y-111295333D01*
X144238747Y-111496298D01*
X144146253Y-111719597D01*
X144099100Y-111956651D01*
X144099100Y-112198349D01*
X144146253Y-112435403D01*
X144238747Y-112658702D01*
X144373027Y-112859667D01*
X144543933Y-113030573D01*
X144744898Y-113164853D01*
X144968197Y-113257347D01*
X145205251Y-113304500D01*
X145446949Y-113304500D01*
X145684003Y-113257347D01*
X145907302Y-113164853D01*
X146108267Y-113030573D01*
X146279173Y-112859667D01*
X146413453Y-112658702D01*
X146505947Y-112435403D01*
X146553100Y-112198349D01*
X146553100Y-111956651D01*
X146505947Y-111719597D01*
X146447666Y-111578894D01*
X158818161Y-99208400D01*
X160112239Y-99208400D01*
X148364706Y-110955934D01*
X148224003Y-110897653D01*
X147986949Y-110850500D01*
X147745251Y-110850500D01*
X147508197Y-110897653D01*
X147284898Y-110990147D01*
X147083933Y-111124427D01*
X146913027Y-111295333D01*
X146778747Y-111496298D01*
X146686253Y-111719597D01*
X146639100Y-111956651D01*
X146639100Y-112198349D01*
X146686253Y-112435403D01*
X146778747Y-112658702D01*
X146913027Y-112859667D01*
X147083933Y-113030573D01*
X147284898Y-113164853D01*
X147508197Y-113257347D01*
X147745251Y-113304500D01*
X147986949Y-113304500D01*
X148224003Y-113257347D01*
X148447302Y-113164853D01*
X148648267Y-113030573D01*
X148819173Y-112859667D01*
X148953453Y-112658702D01*
X149045947Y-112435403D01*
X149093100Y-112198349D01*
X149093100Y-111956651D01*
X149045947Y-111719597D01*
X148987666Y-111578894D01*
X161053361Y-99513200D01*
X161741463Y-99513200D01*
X150404164Y-110850500D01*
X150285251Y-110850500D01*
X150048197Y-110897653D01*
X149824898Y-110990147D01*
X149623933Y-111124427D01*
X149453027Y-111295333D01*
X149318747Y-111496298D01*
X149226253Y-111719597D01*
X149179100Y-111956651D01*
X149179100Y-112198349D01*
X149226253Y-112435403D01*
X149318747Y-112658702D01*
X149453027Y-112859667D01*
X149623933Y-113030573D01*
X149824898Y-113164853D01*
X150048197Y-113257347D01*
X150285251Y-113304500D01*
X150526949Y-113304500D01*
X150764003Y-113257347D01*
X150987302Y-113164853D01*
X151188267Y-113030573D01*
X151359173Y-112859667D01*
X151493453Y-112658702D01*
X151585947Y-112435403D01*
X151633100Y-112198349D01*
X151633100Y-111956651D01*
X151585947Y-111719597D01*
X151493453Y-111496298D01*
X151359173Y-111295333D01*
X151282212Y-111218372D01*
X152505600Y-109994984D01*
X152505601Y-110853774D01*
X152505600Y-110853784D01*
X152505600Y-110931866D01*
X152364898Y-110990147D01*
X152163933Y-111124427D01*
X151993027Y-111295333D01*
X151858747Y-111496298D01*
X151766253Y-111719597D01*
X151719100Y-111956651D01*
X151719100Y-112198349D01*
X151766253Y-112435403D01*
X151858747Y-112658702D01*
X151993027Y-112859667D01*
X152163933Y-113030573D01*
X152364898Y-113164853D01*
X152588197Y-113257347D01*
X152825251Y-113304500D01*
X153066949Y-113304500D01*
X153304003Y-113257347D01*
X153527302Y-113164853D01*
X153728267Y-113030573D01*
X153899173Y-112859667D01*
X154033453Y-112658702D01*
X154125947Y-112435403D01*
X154173100Y-112198349D01*
X154173100Y-111956651D01*
X154125947Y-111719597D01*
X154033453Y-111496298D01*
X153899173Y-111295333D01*
X153728267Y-111124427D01*
X153527302Y-110990147D01*
X153386600Y-110931866D01*
X153386600Y-109478657D01*
X155045601Y-107819656D01*
X155045600Y-110931866D01*
X154904898Y-110990147D01*
X154703933Y-111124427D01*
X154533027Y-111295333D01*
X154398747Y-111496298D01*
X154306253Y-111719597D01*
X154259100Y-111956651D01*
X154259100Y-112198349D01*
X154306253Y-112435403D01*
X154398747Y-112658702D01*
X154533027Y-112859667D01*
X154703933Y-113030573D01*
X154904898Y-113164853D01*
X155128197Y-113257347D01*
X155365251Y-113304500D01*
X155606949Y-113304500D01*
X155844003Y-113257347D01*
X156067302Y-113164853D01*
X156268267Y-113030573D01*
X156439173Y-112859667D01*
X156573453Y-112658702D01*
X156665947Y-112435403D01*
X156713100Y-112198349D01*
X156713100Y-111956651D01*
X156665947Y-111719597D01*
X156573453Y-111496298D01*
X156439173Y-111295333D01*
X156268267Y-111124427D01*
X156067302Y-110990147D01*
X155926600Y-110931866D01*
X155926600Y-107297882D01*
X157585600Y-105638882D01*
X157585601Y-110853774D01*
X157585600Y-110853784D01*
X157585600Y-110931866D01*
X157444898Y-110990147D01*
X157243933Y-111124427D01*
X157073027Y-111295333D01*
X156938747Y-111496298D01*
X156846253Y-111719597D01*
X156799100Y-111956651D01*
X156799100Y-112198349D01*
X156846253Y-112435403D01*
X156938747Y-112658702D01*
X157073027Y-112859667D01*
X157243933Y-113030573D01*
X157444898Y-113164853D01*
X157668197Y-113257347D01*
X157905251Y-113304500D01*
X158146949Y-113304500D01*
X158384003Y-113257347D01*
X158607302Y-113164853D01*
X158808267Y-113030573D01*
X158979173Y-112859667D01*
X159113453Y-112658702D01*
X159205947Y-112435403D01*
X159253100Y-112198349D01*
X159253100Y-111956651D01*
X159205947Y-111719597D01*
X159113453Y-111496298D01*
X158979173Y-111295333D01*
X158808267Y-111124427D01*
X158607302Y-110990147D01*
X158466600Y-110931866D01*
X158466600Y-105117107D01*
X160125601Y-103458106D01*
X160125600Y-110931866D01*
X159984898Y-110990147D01*
X159783933Y-111124427D01*
X159613027Y-111295333D01*
X159478747Y-111496298D01*
X159386253Y-111719597D01*
X159339100Y-111956651D01*
X159339100Y-112198349D01*
X159386253Y-112435403D01*
X159478747Y-112658702D01*
X159613027Y-112859667D01*
X159783933Y-113030573D01*
X159984898Y-113164853D01*
X160208197Y-113257347D01*
X160445251Y-113304500D01*
X160686949Y-113304500D01*
X160924003Y-113257347D01*
X161147302Y-113164853D01*
X161348267Y-113030573D01*
X161519173Y-112859667D01*
X161653453Y-112658702D01*
X161745947Y-112435403D01*
X161793100Y-112198349D01*
X161793100Y-111956651D01*
X161745947Y-111719597D01*
X161653453Y-111496298D01*
X161519173Y-111295333D01*
X161348267Y-111124427D01*
X161147302Y-110990147D01*
X161006600Y-110931866D01*
X161006600Y-102936332D01*
X162665600Y-101277332D01*
X162665601Y-110931866D01*
X162524898Y-110990147D01*
X162323933Y-111124427D01*
X162153027Y-111295333D01*
X162018747Y-111496298D01*
X161926253Y-111719597D01*
X161879100Y-111956651D01*
X161879100Y-112198349D01*
X161926253Y-112435403D01*
X162018747Y-112658702D01*
X162153027Y-112859667D01*
X162323933Y-113030573D01*
X162524898Y-113164853D01*
X162748197Y-113257347D01*
X162985251Y-113304500D01*
X163226949Y-113304500D01*
X163464003Y-113257347D01*
X163687302Y-113164853D01*
X163888267Y-113030573D01*
X164059173Y-112859667D01*
X164193453Y-112658702D01*
X164285947Y-112435403D01*
X164333100Y-112198349D01*
X164333100Y-111956651D01*
X164419100Y-111956651D01*
X164419100Y-112198349D01*
X164466253Y-112435403D01*
X164558747Y-112658702D01*
X164693027Y-112859667D01*
X164863933Y-113030573D01*
X165064898Y-113164853D01*
X165288197Y-113257347D01*
X165525251Y-113304500D01*
X165766949Y-113304500D01*
X166004003Y-113257347D01*
X166227302Y-113164853D01*
X166428267Y-113030573D01*
X166599173Y-112859667D01*
X166733453Y-112658702D01*
X166825947Y-112435403D01*
X166873100Y-112198349D01*
X166873100Y-111956651D01*
X166959100Y-111956651D01*
X166959100Y-112198349D01*
X167006253Y-112435403D01*
X167098747Y-112658702D01*
X167233027Y-112859667D01*
X167403933Y-113030573D01*
X167604898Y-113164853D01*
X167828197Y-113257347D01*
X168065251Y-113304500D01*
X168306949Y-113304500D01*
X168544003Y-113257347D01*
X168767302Y-113164853D01*
X168968267Y-113030573D01*
X169139173Y-112859667D01*
X169273453Y-112658702D01*
X169365947Y-112435403D01*
X169413100Y-112198349D01*
X169413100Y-111956651D01*
X169499100Y-111956651D01*
X169499100Y-112198349D01*
X169546253Y-112435403D01*
X169638747Y-112658702D01*
X169773027Y-112859667D01*
X169943933Y-113030573D01*
X170144898Y-113164853D01*
X170368197Y-113257347D01*
X170605251Y-113304500D01*
X170846949Y-113304500D01*
X171084003Y-113257347D01*
X171307302Y-113164853D01*
X171508267Y-113030573D01*
X171679173Y-112859667D01*
X171813453Y-112658702D01*
X171905947Y-112435403D01*
X171953100Y-112198349D01*
X171953100Y-111956651D01*
X172039100Y-111956651D01*
X172039100Y-112198349D01*
X172086253Y-112435403D01*
X172178747Y-112658702D01*
X172313027Y-112859667D01*
X172483933Y-113030573D01*
X172684898Y-113164853D01*
X172908197Y-113257347D01*
X173145251Y-113304500D01*
X173386949Y-113304500D01*
X173624003Y-113257347D01*
X173847302Y-113164853D01*
X174048267Y-113030573D01*
X174219173Y-112859667D01*
X174353453Y-112658702D01*
X174445947Y-112435403D01*
X174493100Y-112198349D01*
X174493100Y-111956651D01*
X174445947Y-111719597D01*
X174353453Y-111496298D01*
X174219173Y-111295333D01*
X174048267Y-111124427D01*
X173847302Y-110990147D01*
X173624003Y-110897653D01*
X173386949Y-110850500D01*
X173145251Y-110850500D01*
X172908197Y-110897653D01*
X172684898Y-110990147D01*
X172483933Y-111124427D01*
X172313027Y-111295333D01*
X172178747Y-111496298D01*
X172086253Y-111719597D01*
X172039100Y-111956651D01*
X171953100Y-111956651D01*
X171905947Y-111719597D01*
X171813453Y-111496298D01*
X171679173Y-111295333D01*
X171508267Y-111124427D01*
X171307302Y-110990147D01*
X171084003Y-110897653D01*
X170846949Y-110850500D01*
X170605251Y-110850500D01*
X170368197Y-110897653D01*
X170144898Y-110990147D01*
X169943933Y-111124427D01*
X169773027Y-111295333D01*
X169638747Y-111496298D01*
X169546253Y-111719597D01*
X169499100Y-111956651D01*
X169413100Y-111956651D01*
X169365947Y-111719597D01*
X169273453Y-111496298D01*
X169139173Y-111295333D01*
X168968267Y-111124427D01*
X168767302Y-110990147D01*
X168544003Y-110897653D01*
X168306949Y-110850500D01*
X168065251Y-110850500D01*
X167828197Y-110897653D01*
X167604898Y-110990147D01*
X167403933Y-111124427D01*
X167233027Y-111295333D01*
X167098747Y-111496298D01*
X167006253Y-111719597D01*
X166959100Y-111956651D01*
X166873100Y-111956651D01*
X166825947Y-111719597D01*
X166733453Y-111496298D01*
X166599173Y-111295333D01*
X166428267Y-111124427D01*
X166227302Y-110990147D01*
X166004003Y-110897653D01*
X165766949Y-110850500D01*
X165525251Y-110850500D01*
X165288197Y-110897653D01*
X165064898Y-110990147D01*
X164863933Y-111124427D01*
X164693027Y-111295333D01*
X164558747Y-111496298D01*
X164466253Y-111719597D01*
X164419100Y-111956651D01*
X164333100Y-111956651D01*
X164285947Y-111719597D01*
X164193453Y-111496298D01*
X164059173Y-111295333D01*
X163888267Y-111124427D01*
X163687302Y-110990147D01*
X163546600Y-110931866D01*
X163546600Y-106465000D01*
X166868376Y-106465000D01*
X166868376Y-108165000D01*
X166875655Y-108238905D01*
X166897212Y-108309970D01*
X166932219Y-108375463D01*
X166979331Y-108432869D01*
X167036737Y-108479981D01*
X167102230Y-108514988D01*
X167173295Y-108536545D01*
X167247200Y-108543824D01*
X168947200Y-108543824D01*
X169021105Y-108536545D01*
X169092170Y-108514988D01*
X169157663Y-108479981D01*
X169215069Y-108432869D01*
X169262181Y-108375463D01*
X169297188Y-108309970D01*
X169318745Y-108238905D01*
X169326024Y-108165000D01*
X169326024Y-106465000D01*
X169318745Y-106391095D01*
X169297188Y-106320030D01*
X169262181Y-106254537D01*
X169215069Y-106197131D01*
X169157663Y-106150019D01*
X169092170Y-106115012D01*
X169021105Y-106093455D01*
X168947200Y-106086176D01*
X167247200Y-106086176D01*
X167173295Y-106093455D01*
X167102230Y-106115012D01*
X167036737Y-106150019D01*
X166979331Y-106197131D01*
X166932219Y-106254537D01*
X166897212Y-106320030D01*
X166875655Y-106391095D01*
X166868376Y-106465000D01*
X163546600Y-106465000D01*
X163546600Y-101137560D01*
X167973449Y-96710712D01*
X167974181Y-96718148D01*
X167974182Y-104423142D01*
X167972051Y-104444781D01*
X167980555Y-104531133D01*
X168005743Y-104614168D01*
X168046647Y-104690693D01*
X168072056Y-104721653D01*
X168101695Y-104757768D01*
X168118498Y-104771558D01*
X169781950Y-106435010D01*
X169684127Y-106532833D01*
X169549847Y-106733798D01*
X169457353Y-106957097D01*
X169410200Y-107194151D01*
X169410200Y-107435849D01*
X169457353Y-107672903D01*
X169549847Y-107896202D01*
X169684127Y-108097167D01*
X169855033Y-108268073D01*
X170055998Y-108402353D01*
X170279297Y-108494847D01*
X170516351Y-108542000D01*
X170758049Y-108542000D01*
X170995103Y-108494847D01*
X171218402Y-108402353D01*
X171419367Y-108268073D01*
X171590273Y-108097167D01*
X171724553Y-107896202D01*
X171817047Y-107672903D01*
X171864200Y-107435849D01*
X171864200Y-107194151D01*
X171817047Y-106957097D01*
X171724553Y-106733798D01*
X171590273Y-106532833D01*
X171419367Y-106361927D01*
X171218402Y-106227647D01*
X170995103Y-106135153D01*
X170758049Y-106088000D01*
X170680861Y-106088000D01*
X168855181Y-104262321D01*
X168855181Y-103615941D01*
X172055634Y-106816395D01*
X171997353Y-106957097D01*
X171950200Y-107194151D01*
X171950200Y-107435849D01*
X171997353Y-107672903D01*
X172089847Y-107896202D01*
X172224127Y-108097167D01*
X172395033Y-108268073D01*
X172595998Y-108402353D01*
X172819297Y-108494847D01*
X173056351Y-108542000D01*
X173298049Y-108542000D01*
X173535103Y-108494847D01*
X173758402Y-108402353D01*
X173959367Y-108268073D01*
X174130273Y-108097167D01*
X174264553Y-107896202D01*
X174357047Y-107672903D01*
X174404200Y-107435849D01*
X174404200Y-107194151D01*
X174357047Y-106957097D01*
X174264553Y-106733798D01*
X174130273Y-106532833D01*
X173959367Y-106361927D01*
X173758402Y-106227647D01*
X173535103Y-106135153D01*
X173298049Y-106088000D01*
X173056351Y-106088000D01*
X172819297Y-106135153D01*
X172678595Y-106193434D01*
X171560961Y-105075800D01*
X172855040Y-105075800D01*
X174595634Y-106816395D01*
X174537353Y-106957097D01*
X174490200Y-107194151D01*
X174490200Y-107435849D01*
X174537353Y-107672903D01*
X174629847Y-107896202D01*
X174764127Y-108097167D01*
X174935033Y-108268073D01*
X175135998Y-108402353D01*
X175359297Y-108494847D01*
X175596351Y-108542000D01*
X175838049Y-108542000D01*
X176075103Y-108494847D01*
X176298402Y-108402353D01*
X176499367Y-108268073D01*
X176670273Y-108097167D01*
X176804553Y-107896202D01*
X176897047Y-107672903D01*
X176944200Y-107435849D01*
X176944200Y-107194151D01*
X176897047Y-106957097D01*
X176804553Y-106733798D01*
X176670273Y-106532833D01*
X176499367Y-106361927D01*
X176298402Y-106227647D01*
X176075103Y-106135153D01*
X175838049Y-106088000D01*
X175596351Y-106088000D01*
X175359297Y-106135153D01*
X175218595Y-106193434D01*
X173377060Y-104351900D01*
X174671140Y-104351900D01*
X177135634Y-106816395D01*
X177077353Y-106957097D01*
X177030200Y-107194151D01*
X177030200Y-107435849D01*
X177077353Y-107672903D01*
X177169847Y-107896202D01*
X177304127Y-108097167D01*
X177475033Y-108268073D01*
X177675998Y-108402353D01*
X177899297Y-108494847D01*
X178136351Y-108542000D01*
X178378049Y-108542000D01*
X178615103Y-108494847D01*
X178838402Y-108402353D01*
X179039367Y-108268073D01*
X179210273Y-108097167D01*
X179344553Y-107896202D01*
X179437047Y-107672903D01*
X179484200Y-107435849D01*
X179484200Y-107194151D01*
X179437047Y-106957097D01*
X179344553Y-106733798D01*
X179210273Y-106532833D01*
X179039367Y-106361927D01*
X178838402Y-106227647D01*
X178615103Y-106135153D01*
X178378049Y-106088000D01*
X178136351Y-106088000D01*
X177899297Y-106135153D01*
X177758595Y-106193434D01*
X175180382Y-103615222D01*
X175166587Y-103598413D01*
X175099513Y-103543366D01*
X175022988Y-103502462D01*
X174939953Y-103477274D01*
X174875236Y-103470900D01*
X174875229Y-103470900D01*
X174853600Y-103468770D01*
X174831971Y-103470900D01*
X171848361Y-103470900D01*
X170316637Y-101939176D01*
X170427650Y-101938400D01*
X170586400Y-101779650D01*
X170586400Y-100842900D01*
X170840400Y-100842900D01*
X170840400Y-101779650D01*
X170999150Y-101938400D01*
X171438400Y-101941472D01*
X171562882Y-101929212D01*
X171682580Y-101892902D01*
X171792894Y-101833937D01*
X171889585Y-101754585D01*
X171968937Y-101657894D01*
X172027902Y-101547580D01*
X172064212Y-101427882D01*
X172076472Y-101303400D01*
X172073400Y-101001650D01*
X171914650Y-100842900D01*
X170840400Y-100842900D01*
X170586400Y-100842900D01*
X170566400Y-100842900D01*
X170566400Y-100588900D01*
X170586400Y-100588900D01*
X170586400Y-100568900D01*
X170840400Y-100568900D01*
X170840400Y-100588900D01*
X171914650Y-100588900D01*
X172073400Y-100430150D01*
X172076472Y-100128400D01*
X172064212Y-100003918D01*
X172027902Y-99884220D01*
X171968937Y-99773906D01*
X171889585Y-99677215D01*
X171792894Y-99597863D01*
X171682580Y-99538898D01*
X171562882Y-99502588D01*
X171538990Y-99500235D01*
X171633046Y-99423046D01*
X171711248Y-99327756D01*
X171769358Y-99219041D01*
X171805141Y-99101077D01*
X171817224Y-98978400D01*
X171817224Y-98303400D01*
X171805141Y-98180723D01*
X171769358Y-98062759D01*
X171711248Y-97954044D01*
X171633046Y-97858754D01*
X171537756Y-97780552D01*
X171429041Y-97722442D01*
X171311077Y-97686659D01*
X171188400Y-97674576D01*
X171153900Y-97674576D01*
X171153900Y-97180685D01*
X180206924Y-106233710D01*
X180015033Y-106361927D01*
X179844127Y-106532833D01*
X179709847Y-106733798D01*
X179617353Y-106957097D01*
X179570200Y-107194151D01*
X179570200Y-107435849D01*
X179617353Y-107672903D01*
X179709847Y-107896202D01*
X179844127Y-108097167D01*
X180015033Y-108268073D01*
X180215998Y-108402353D01*
X180439297Y-108494847D01*
X180676351Y-108542000D01*
X180918049Y-108542000D01*
X181155103Y-108494847D01*
X181378402Y-108402353D01*
X181579367Y-108268073D01*
X181750273Y-108097167D01*
X181884553Y-107896202D01*
X181977047Y-107672903D01*
X182024200Y-107435849D01*
X182024200Y-107194151D01*
X181977047Y-106957097D01*
X181884553Y-106733798D01*
X181750273Y-106532833D01*
X181579367Y-106361927D01*
X181479203Y-106295000D01*
X181694240Y-106295000D01*
X182215634Y-106816395D01*
X182157353Y-106957097D01*
X182110200Y-107194151D01*
X182110200Y-107435849D01*
X182157353Y-107672903D01*
X182249847Y-107896202D01*
X182384127Y-108097167D01*
X182555033Y-108268073D01*
X182755998Y-108402353D01*
X182979297Y-108494847D01*
X183216351Y-108542000D01*
X183458049Y-108542000D01*
X183695103Y-108494847D01*
X183918402Y-108402353D01*
X184119367Y-108268073D01*
X184290273Y-108097167D01*
X184424553Y-107896202D01*
X184517047Y-107672903D01*
X184564200Y-107435849D01*
X184564200Y-107194151D01*
X184517047Y-106957097D01*
X184424553Y-106733798D01*
X184290273Y-106532833D01*
X184119367Y-106361927D01*
X183918402Y-106227647D01*
X183695103Y-106135153D01*
X183458049Y-106088000D01*
X183216351Y-106088000D01*
X182979297Y-106135153D01*
X182838595Y-106193434D01*
X182686150Y-106040990D01*
X183980230Y-106040990D01*
X184755634Y-106816395D01*
X184697353Y-106957097D01*
X184650200Y-107194151D01*
X184650200Y-107435849D01*
X184697353Y-107672903D01*
X184789847Y-107896202D01*
X184924127Y-108097167D01*
X185095033Y-108268073D01*
X185295998Y-108402353D01*
X185519297Y-108494847D01*
X185756351Y-108542000D01*
X185998049Y-108542000D01*
X186235103Y-108494847D01*
X186458402Y-108402353D01*
X186659367Y-108268073D01*
X186830273Y-108097167D01*
X186964553Y-107896202D01*
X187057047Y-107672903D01*
X187104200Y-107435849D01*
X187104200Y-107194151D01*
X187057047Y-106957097D01*
X186964553Y-106733798D01*
X186830273Y-106532833D01*
X186659367Y-106361927D01*
X186458402Y-106227647D01*
X186235103Y-106135153D01*
X185998049Y-106088000D01*
X185756351Y-106088000D01*
X185519297Y-106135153D01*
X185378595Y-106193434D01*
X184553071Y-105367911D01*
X185847151Y-105367911D01*
X187295634Y-106816395D01*
X187237353Y-106957097D01*
X187190200Y-107194151D01*
X187190200Y-107435849D01*
X187237353Y-107672903D01*
X187329847Y-107896202D01*
X187464127Y-108097167D01*
X187635033Y-108268073D01*
X187835998Y-108402353D01*
X188059297Y-108494847D01*
X188296351Y-108542000D01*
X188538049Y-108542000D01*
X188775103Y-108494847D01*
X188998402Y-108402353D01*
X189199367Y-108268073D01*
X189370273Y-108097167D01*
X189504553Y-107896202D01*
X189597047Y-107672903D01*
X189644200Y-107435849D01*
X189644200Y-107194151D01*
X189597047Y-106957097D01*
X189504553Y-106733798D01*
X189370273Y-106532833D01*
X189199367Y-106361927D01*
X188998402Y-106227647D01*
X188775103Y-106135153D01*
X188538049Y-106088000D01*
X188296351Y-106088000D01*
X188059297Y-106135153D01*
X187918595Y-106193434D01*
X186839060Y-105113900D01*
X188133140Y-105113900D01*
X189835634Y-106816395D01*
X189777353Y-106957097D01*
X189730200Y-107194151D01*
X189730200Y-107435849D01*
X189777353Y-107672903D01*
X189869847Y-107896202D01*
X190004127Y-108097167D01*
X190175033Y-108268073D01*
X190375998Y-108402353D01*
X190599297Y-108494847D01*
X190836351Y-108542000D01*
X191078049Y-108542000D01*
X191315103Y-108494847D01*
X191538402Y-108402353D01*
X191739367Y-108268073D01*
X191910273Y-108097167D01*
X192044553Y-107896202D01*
X192137047Y-107672903D01*
X192184200Y-107435849D01*
X192184200Y-107194151D01*
X192137047Y-106957097D01*
X192044553Y-106733798D01*
X191910273Y-106532833D01*
X191739367Y-106361927D01*
X191538402Y-106227647D01*
X191315103Y-106135153D01*
X191078049Y-106088000D01*
X190836351Y-106088000D01*
X190599297Y-106135153D01*
X190458595Y-106193434D01*
X188642382Y-104377222D01*
X188628587Y-104360413D01*
X188561513Y-104305366D01*
X188484988Y-104264462D01*
X188401953Y-104239274D01*
X188337236Y-104232900D01*
X188337229Y-104232900D01*
X188315600Y-104230770D01*
X188293971Y-104232900D01*
X181101209Y-104232900D01*
X177605609Y-100737300D01*
X190807876Y-100737300D01*
X190807876Y-102437300D01*
X190815155Y-102511205D01*
X190836712Y-102582270D01*
X190871719Y-102647763D01*
X190918831Y-102705169D01*
X190976237Y-102752281D01*
X191041730Y-102787288D01*
X191112795Y-102808845D01*
X191186700Y-102816124D01*
X192886700Y-102816124D01*
X192960605Y-102808845D01*
X193031670Y-102787288D01*
X193097163Y-102752281D01*
X193154569Y-102705169D01*
X193201681Y-102647763D01*
X193236688Y-102582270D01*
X193258245Y-102511205D01*
X193265524Y-102437300D01*
X193265524Y-100737300D01*
X193258245Y-100663395D01*
X193236688Y-100592330D01*
X193201681Y-100526837D01*
X193154569Y-100469431D01*
X193097163Y-100422319D01*
X193031670Y-100387312D01*
X192960605Y-100365755D01*
X192886700Y-100358476D01*
X191186700Y-100358476D01*
X191112795Y-100365755D01*
X191041730Y-100387312D01*
X190976237Y-100422319D01*
X190918831Y-100469431D01*
X190871719Y-100526837D01*
X190836712Y-100592330D01*
X190815155Y-100663395D01*
X190807876Y-100737300D01*
X177605609Y-100737300D01*
X173047077Y-96178769D01*
X173052082Y-96169404D01*
X173076484Y-96088959D01*
X173084724Y-96005300D01*
X173084724Y-95954576D01*
X173130900Y-95959124D01*
X173830900Y-95959124D01*
X173914559Y-95950884D01*
X173995004Y-95926482D01*
X174005634Y-95920800D01*
X176996940Y-95920800D01*
X180419623Y-99343484D01*
X180433413Y-99360287D01*
X180450216Y-99374077D01*
X180450218Y-99374079D01*
X180500487Y-99415334D01*
X180577012Y-99456238D01*
X180660047Y-99481426D01*
X180724764Y-99487800D01*
X180724771Y-99487800D01*
X180746400Y-99489930D01*
X180768029Y-99487800D01*
X190891066Y-99487800D01*
X190949347Y-99628502D01*
X191083627Y-99829467D01*
X191254533Y-100000373D01*
X191455498Y-100134653D01*
X191678797Y-100227147D01*
X191915851Y-100274300D01*
X192157549Y-100274300D01*
X192394603Y-100227147D01*
X192617902Y-100134653D01*
X192818867Y-100000373D01*
X192989773Y-99829467D01*
X193124053Y-99628502D01*
X193216547Y-99405203D01*
X193263700Y-99168149D01*
X193263700Y-98926451D01*
X193216547Y-98689397D01*
X193124053Y-98466098D01*
X192989773Y-98265133D01*
X192818867Y-98094227D01*
X192617902Y-97959947D01*
X192394603Y-97867453D01*
X192157549Y-97820300D01*
X191915851Y-97820300D01*
X191678797Y-97867453D01*
X191455498Y-97959947D01*
X191254533Y-98094227D01*
X191083627Y-98265133D01*
X190949347Y-98466098D01*
X190891066Y-98606800D01*
X180928861Y-98606800D01*
X177892860Y-95570800D01*
X179085340Y-95570800D01*
X180318023Y-96803484D01*
X180331813Y-96820287D01*
X180348616Y-96834077D01*
X180348618Y-96834079D01*
X180387399Y-96865906D01*
X180398887Y-96875334D01*
X180475412Y-96916238D01*
X180558447Y-96941426D01*
X180623164Y-96947800D01*
X180623170Y-96947800D01*
X180644799Y-96949930D01*
X180666428Y-96947800D01*
X190891066Y-96947800D01*
X190949347Y-97088502D01*
X191083627Y-97289467D01*
X191254533Y-97460373D01*
X191455498Y-97594653D01*
X191678797Y-97687147D01*
X191915851Y-97734300D01*
X192157549Y-97734300D01*
X192394603Y-97687147D01*
X192617902Y-97594653D01*
X192818867Y-97460373D01*
X192989773Y-97289467D01*
X193124053Y-97088502D01*
X193216547Y-96865203D01*
X193263700Y-96628149D01*
X193263700Y-96386451D01*
X193216547Y-96149397D01*
X193124053Y-95926098D01*
X192989773Y-95725133D01*
X192818867Y-95554227D01*
X192617902Y-95419947D01*
X192394603Y-95327453D01*
X192157549Y-95280300D01*
X191915851Y-95280300D01*
X191678797Y-95327453D01*
X191455498Y-95419947D01*
X191254533Y-95554227D01*
X191083627Y-95725133D01*
X190949347Y-95926098D01*
X190891066Y-96066800D01*
X180827261Y-96066800D01*
X179981260Y-95220800D01*
X188928771Y-95220800D01*
X188950400Y-95222930D01*
X188972029Y-95220800D01*
X188972036Y-95220800D01*
X189036753Y-95214426D01*
X189119788Y-95189238D01*
X189196313Y-95148334D01*
X189263387Y-95093287D01*
X189277182Y-95076478D01*
X189704561Y-94649100D01*
X191016564Y-94649100D01*
X191083627Y-94749467D01*
X191254533Y-94920373D01*
X191455498Y-95054653D01*
X191678797Y-95147147D01*
X191915851Y-95194300D01*
X192157549Y-95194300D01*
X192394603Y-95147147D01*
X192617902Y-95054653D01*
X192818867Y-94920373D01*
X192989773Y-94749467D01*
X193124053Y-94548502D01*
X193216547Y-94325203D01*
X193263700Y-94088149D01*
X193263700Y-93846451D01*
X193216547Y-93609397D01*
X193124053Y-93386098D01*
X192989773Y-93185133D01*
X192818867Y-93014227D01*
X192617902Y-92879947D01*
X192394603Y-92787453D01*
X192157549Y-92740300D01*
X191915851Y-92740300D01*
X191678797Y-92787453D01*
X191455498Y-92879947D01*
X191254533Y-93014227D01*
X191083627Y-93185133D01*
X190949347Y-93386098D01*
X190856853Y-93609397D01*
X190825285Y-93768100D01*
X190318860Y-93768100D01*
X191538095Y-92548866D01*
X191678797Y-92607147D01*
X191915851Y-92654300D01*
X192157549Y-92654300D01*
X192394603Y-92607147D01*
X192617902Y-92514653D01*
X192818867Y-92380373D01*
X192989773Y-92209467D01*
X193124053Y-92008502D01*
X193216547Y-91785203D01*
X193263700Y-91548149D01*
X193263700Y-91306451D01*
X193216547Y-91069397D01*
X193124053Y-90846098D01*
X192989773Y-90645133D01*
X192818867Y-90474227D01*
X192617902Y-90339947D01*
X192394603Y-90247453D01*
X192157549Y-90200300D01*
X191915851Y-90200300D01*
X191678797Y-90247453D01*
X191455498Y-90339947D01*
X191254533Y-90474227D01*
X191083627Y-90645133D01*
X190949347Y-90846098D01*
X190856853Y-91069397D01*
X190809700Y-91306451D01*
X190809700Y-91548149D01*
X190856853Y-91785203D01*
X190915134Y-91925905D01*
X189784140Y-93056900D01*
X188527729Y-93056900D01*
X188506100Y-93054770D01*
X188484471Y-93056900D01*
X188484464Y-93056900D01*
X188419747Y-93063274D01*
X188336712Y-93088462D01*
X188260187Y-93129366D01*
X188214087Y-93167200D01*
X188193113Y-93184413D01*
X188179322Y-93201217D01*
X187390740Y-93989800D01*
X186553860Y-93989800D01*
X190999740Y-89543921D01*
X191083627Y-89669467D01*
X191254533Y-89840373D01*
X191455498Y-89974653D01*
X191678797Y-90067147D01*
X191915851Y-90114300D01*
X192157549Y-90114300D01*
X192394603Y-90067147D01*
X192617902Y-89974653D01*
X192818867Y-89840373D01*
X192989773Y-89669467D01*
X193124053Y-89468502D01*
X193216547Y-89245203D01*
X193263700Y-89008149D01*
X193263700Y-88766451D01*
X193216547Y-88529397D01*
X193124053Y-88306098D01*
X192989773Y-88105133D01*
X192818867Y-87934227D01*
X192617902Y-87799947D01*
X192394603Y-87707453D01*
X192157549Y-87660300D01*
X191915851Y-87660300D01*
X191678797Y-87707453D01*
X191455498Y-87799947D01*
X191254533Y-87934227D01*
X191083627Y-88105133D01*
X190949347Y-88306098D01*
X190880002Y-88473512D01*
X190864012Y-88478362D01*
X190787487Y-88519266D01*
X190775143Y-88529397D01*
X190720413Y-88574313D01*
X190706623Y-88591116D01*
X185657940Y-93639800D01*
X184528960Y-93639800D01*
X191065870Y-87102891D01*
X191083627Y-87129467D01*
X191254533Y-87300373D01*
X191455498Y-87434653D01*
X191678797Y-87527147D01*
X191915851Y-87574300D01*
X192157549Y-87574300D01*
X192394603Y-87527147D01*
X192617902Y-87434653D01*
X192818867Y-87300373D01*
X192989773Y-87129467D01*
X193124053Y-86928502D01*
X193216547Y-86705203D01*
X193263700Y-86468149D01*
X193263700Y-86226451D01*
X193216547Y-85989397D01*
X193124053Y-85766098D01*
X192989773Y-85565133D01*
X192818867Y-85394227D01*
X192617902Y-85259947D01*
X192394603Y-85167453D01*
X192157549Y-85120300D01*
X191915851Y-85120300D01*
X191678797Y-85167453D01*
X191455498Y-85259947D01*
X191254533Y-85394227D01*
X191083627Y-85565133D01*
X190949347Y-85766098D01*
X190856853Y-85989397D01*
X190837836Y-86085003D01*
X190229311Y-86693528D01*
X190229311Y-86237649D01*
X191538095Y-84928866D01*
X191678797Y-84987147D01*
X191915851Y-85034300D01*
X192157549Y-85034300D01*
X192394603Y-84987147D01*
X192617902Y-84894653D01*
X192818867Y-84760373D01*
X192989773Y-84589467D01*
X193124053Y-84388502D01*
X193216547Y-84165203D01*
X193263700Y-83928149D01*
X193263700Y-83686451D01*
X193216547Y-83449397D01*
X193124053Y-83226098D01*
X192989773Y-83025133D01*
X192818867Y-82854227D01*
X192617902Y-82719947D01*
X192394603Y-82627453D01*
X192157549Y-82580300D01*
X191915851Y-82580300D01*
X191678797Y-82627453D01*
X191455498Y-82719947D01*
X191254533Y-82854227D01*
X191083627Y-83025133D01*
X190949347Y-83226098D01*
X190856853Y-83449397D01*
X190809700Y-83686451D01*
X190809700Y-83928149D01*
X190856853Y-84165203D01*
X190915134Y-84305905D01*
X189975300Y-85245740D01*
X189975300Y-82033960D01*
X190301461Y-81707800D01*
X190891066Y-81707800D01*
X190949347Y-81848502D01*
X191083627Y-82049467D01*
X191254533Y-82220373D01*
X191455498Y-82354653D01*
X191678797Y-82447147D01*
X191915851Y-82494300D01*
X192157549Y-82494300D01*
X192394603Y-82447147D01*
X192617902Y-82354653D01*
X192818867Y-82220373D01*
X192989773Y-82049467D01*
X193124053Y-81848502D01*
X193216547Y-81625203D01*
X193263700Y-81388149D01*
X193263700Y-81146451D01*
X193216547Y-80909397D01*
X193124053Y-80686098D01*
X192989773Y-80485133D01*
X192818867Y-80314227D01*
X192617902Y-80179947D01*
X192394603Y-80087453D01*
X192157549Y-80040300D01*
X191915851Y-80040300D01*
X191678797Y-80087453D01*
X191455498Y-80179947D01*
X191254533Y-80314227D01*
X191083627Y-80485133D01*
X190949347Y-80686098D01*
X190891066Y-80826800D01*
X190560161Y-80826800D01*
X191538095Y-79848866D01*
X191678797Y-79907147D01*
X191915851Y-79954300D01*
X192157549Y-79954300D01*
X192394603Y-79907147D01*
X192617902Y-79814653D01*
X192818867Y-79680373D01*
X192989773Y-79509467D01*
X193124053Y-79308502D01*
X193216547Y-79085203D01*
X193263700Y-78848149D01*
X193263700Y-78606451D01*
X193216547Y-78369397D01*
X193124053Y-78146098D01*
X192989773Y-77945133D01*
X192818867Y-77774227D01*
X192617902Y-77639947D01*
X192394603Y-77547453D01*
X192157549Y-77500300D01*
X191915851Y-77500300D01*
X191678797Y-77547453D01*
X191455498Y-77639947D01*
X191254533Y-77774227D01*
X191083627Y-77945133D01*
X190949347Y-78146098D01*
X190856853Y-78369397D01*
X190809700Y-78606451D01*
X190809700Y-78848149D01*
X190856853Y-79085203D01*
X190915134Y-79225905D01*
X186711390Y-83429650D01*
X186711390Y-82135570D01*
X191538095Y-77308866D01*
X191678797Y-77367147D01*
X191915851Y-77414300D01*
X192157549Y-77414300D01*
X192394603Y-77367147D01*
X192617902Y-77274653D01*
X192818867Y-77140373D01*
X192989773Y-76969467D01*
X193124053Y-76768502D01*
X193216547Y-76545203D01*
X193263700Y-76308149D01*
X193263700Y-76066451D01*
X193216547Y-75829397D01*
X193124053Y-75606098D01*
X192989773Y-75405133D01*
X192818867Y-75234227D01*
X192617902Y-75099947D01*
X192394603Y-75007453D01*
X192157549Y-74960300D01*
X191915851Y-74960300D01*
X191678797Y-75007453D01*
X191455498Y-75099947D01*
X191254533Y-75234227D01*
X191083627Y-75405133D01*
X190949347Y-75606098D01*
X190856853Y-75829397D01*
X190809700Y-76066451D01*
X190809700Y-76308149D01*
X190856853Y-76545203D01*
X190915134Y-76685905D01*
X185974707Y-81626333D01*
X185957904Y-81640123D01*
X185944114Y-81656926D01*
X185944111Y-81656929D01*
X185902856Y-81707198D01*
X185861952Y-81783723D01*
X185836764Y-81866758D01*
X185828260Y-81953110D01*
X185830391Y-81974749D01*
X185830390Y-86837949D01*
X184831800Y-87836539D01*
X184831800Y-80027360D01*
X190771361Y-74087800D01*
X190891066Y-74087800D01*
X190949347Y-74228502D01*
X191083627Y-74429467D01*
X191254533Y-74600373D01*
X191455498Y-74734653D01*
X191678797Y-74827147D01*
X191915851Y-74874300D01*
X192157549Y-74874300D01*
X192394603Y-74827147D01*
X192617902Y-74734653D01*
X192818867Y-74600373D01*
X192989773Y-74429467D01*
X193124053Y-74228502D01*
X193216547Y-74005203D01*
X193263700Y-73768149D01*
X193263700Y-73526451D01*
X193216547Y-73289397D01*
X193124053Y-73066098D01*
X192989773Y-72865133D01*
X192818867Y-72694227D01*
X192617902Y-72559947D01*
X192394603Y-72467453D01*
X192157549Y-72420300D01*
X191915851Y-72420300D01*
X191678797Y-72467453D01*
X191455498Y-72559947D01*
X191254533Y-72694227D01*
X191083627Y-72865133D01*
X190949347Y-73066098D01*
X190891066Y-73206800D01*
X190610529Y-73206800D01*
X190588900Y-73204670D01*
X190567271Y-73206800D01*
X190567264Y-73206800D01*
X190502547Y-73213174D01*
X190419512Y-73238362D01*
X190342987Y-73279266D01*
X190330643Y-73289397D01*
X190275913Y-73334313D01*
X190262123Y-73351116D01*
X184095122Y-79518118D01*
X184078313Y-79531913D01*
X184023266Y-79598988D01*
X183982362Y-79675513D01*
X183957174Y-79758548D01*
X183950800Y-79823265D01*
X183950800Y-79823271D01*
X183948670Y-79844900D01*
X183950800Y-79866529D01*
X183950801Y-87743640D01*
X182139400Y-89555041D01*
X182139400Y-79024060D01*
X189615661Y-71547800D01*
X190891066Y-71547800D01*
X190949347Y-71688502D01*
X191083627Y-71889467D01*
X191254533Y-72060373D01*
X191455498Y-72194653D01*
X191678797Y-72287147D01*
X191915851Y-72334300D01*
X192157549Y-72334300D01*
X192394603Y-72287147D01*
X192617902Y-72194653D01*
X192818867Y-72060373D01*
X192989773Y-71889467D01*
X193124053Y-71688502D01*
X193216547Y-71465203D01*
X193263700Y-71228149D01*
X193263700Y-70986451D01*
X193216547Y-70749397D01*
X193124053Y-70526098D01*
X192989773Y-70325133D01*
X192818867Y-70154227D01*
X192617902Y-70019947D01*
X192394603Y-69927453D01*
X192157549Y-69880300D01*
X191915851Y-69880300D01*
X191678797Y-69927453D01*
X191455498Y-70019947D01*
X191254533Y-70154227D01*
X191083627Y-70325133D01*
X190949347Y-70526098D01*
X190891066Y-70666800D01*
X189454829Y-70666800D01*
X189433200Y-70664670D01*
X189411571Y-70666800D01*
X189411564Y-70666800D01*
X189352237Y-70672643D01*
X190927975Y-69096905D01*
X190949347Y-69148502D01*
X191083627Y-69349467D01*
X191254533Y-69520373D01*
X191455498Y-69654653D01*
X191678797Y-69747147D01*
X191915851Y-69794300D01*
X192157549Y-69794300D01*
X192394603Y-69747147D01*
X192617902Y-69654653D01*
X192818867Y-69520373D01*
X192989773Y-69349467D01*
X193124053Y-69148502D01*
X193216547Y-68925203D01*
X193263700Y-68688149D01*
X193263700Y-68446451D01*
X193216547Y-68209397D01*
X193124053Y-67986098D01*
X192989773Y-67785133D01*
X192818867Y-67614227D01*
X192617902Y-67479947D01*
X192394603Y-67387453D01*
X192157549Y-67340300D01*
X191915851Y-67340300D01*
X191678797Y-67387453D01*
X191455498Y-67479947D01*
X191254533Y-67614227D01*
X191083627Y-67785133D01*
X190949347Y-67986098D01*
X190891066Y-68126800D01*
X190856247Y-68126800D01*
X190834618Y-68124670D01*
X190812989Y-68126800D01*
X190812983Y-68126800D01*
X190748266Y-68133174D01*
X190665231Y-68158362D01*
X190588706Y-68199266D01*
X190576362Y-68209397D01*
X190521632Y-68254313D01*
X190507842Y-68271116D01*
X181529800Y-77249159D01*
X181529800Y-70465160D01*
X182834498Y-69160463D01*
X182839555Y-69211805D01*
X182861112Y-69282870D01*
X182896119Y-69348363D01*
X182943231Y-69405769D01*
X183000637Y-69452881D01*
X183066130Y-69487888D01*
X183137195Y-69509445D01*
X183211100Y-69516724D01*
X184911100Y-69516724D01*
X184985005Y-69509445D01*
X185056070Y-69487888D01*
X185121563Y-69452881D01*
X185178969Y-69405769D01*
X185226081Y-69348363D01*
X185261088Y-69282870D01*
X185282645Y-69211805D01*
X185289924Y-69137900D01*
X185289924Y-67437900D01*
X185282645Y-67363995D01*
X185261088Y-67292930D01*
X185226081Y-67227437D01*
X185178969Y-67170031D01*
X185121563Y-67122919D01*
X185056070Y-67087912D01*
X184985005Y-67066355D01*
X184911100Y-67059076D01*
X183211100Y-67059076D01*
X183137195Y-67066355D01*
X183066130Y-67087912D01*
X183000637Y-67122919D01*
X182943231Y-67170031D01*
X182896119Y-67227437D01*
X182861112Y-67292930D01*
X182839555Y-67363995D01*
X182832276Y-67437900D01*
X182832276Y-67924717D01*
X182825843Y-67929997D01*
X182771113Y-67974913D01*
X182757323Y-67991716D01*
X182720540Y-68028499D01*
X182700947Y-67929997D01*
X182608453Y-67706698D01*
X182474173Y-67505733D01*
X182303267Y-67334827D01*
X182102302Y-67200547D01*
X181879003Y-67108053D01*
X181641949Y-67060900D01*
X181400251Y-67060900D01*
X181163197Y-67108053D01*
X180939898Y-67200547D01*
X180738933Y-67334827D01*
X180568027Y-67505733D01*
X180433747Y-67706698D01*
X180341253Y-67929997D01*
X180294100Y-68167051D01*
X180294100Y-68408749D01*
X180341253Y-68645803D01*
X180399534Y-68786505D01*
X179472400Y-69713640D01*
X179472400Y-69412492D01*
X179562302Y-69375253D01*
X179763267Y-69240973D01*
X179934173Y-69070067D01*
X180068453Y-68869102D01*
X180160947Y-68645803D01*
X180208100Y-68408749D01*
X180208100Y-68167051D01*
X180160947Y-67929997D01*
X180068453Y-67706698D01*
X179934173Y-67505733D01*
X179763267Y-67334827D01*
X179562302Y-67200547D01*
X179339003Y-67108053D01*
X179101949Y-67060900D01*
X178860251Y-67060900D01*
X178623197Y-67108053D01*
X178399898Y-67200547D01*
X178198933Y-67334827D01*
X178028027Y-67505733D01*
X177893747Y-67706698D01*
X177801253Y-67929997D01*
X177754100Y-68167051D01*
X177754100Y-68408749D01*
X177801253Y-68645803D01*
X177893747Y-68869102D01*
X178028027Y-69070067D01*
X178198933Y-69240973D01*
X178399898Y-69375253D01*
X178591401Y-69454577D01*
X178591400Y-85720339D01*
X175306140Y-89005600D01*
X174550738Y-89005600D01*
X178083484Y-85472855D01*
X178100287Y-85459065D01*
X178116877Y-85438851D01*
X178155334Y-85391991D01*
X178196238Y-85315466D01*
X178221426Y-85232431D01*
X178226385Y-85182080D01*
X178227800Y-85167714D01*
X178227800Y-85167708D01*
X178229930Y-85146079D01*
X178227800Y-85124450D01*
X178227800Y-71827425D01*
X178229930Y-71805799D01*
X178227800Y-71784173D01*
X178227800Y-71784164D01*
X178221426Y-71719447D01*
X178196238Y-71636412D01*
X178155334Y-71559887D01*
X178100287Y-71492813D01*
X178083485Y-71479024D01*
X176881600Y-70277140D01*
X176881600Y-69433534D01*
X177022302Y-69375253D01*
X177223267Y-69240973D01*
X177394173Y-69070067D01*
X177528453Y-68869102D01*
X177620947Y-68645803D01*
X177668100Y-68408749D01*
X177668100Y-68167051D01*
X177620947Y-67929997D01*
X177528453Y-67706698D01*
X177394173Y-67505733D01*
X177223267Y-67334827D01*
X177022302Y-67200547D01*
X176799003Y-67108053D01*
X176561949Y-67060900D01*
X176320251Y-67060900D01*
X176083197Y-67108053D01*
X175859898Y-67200547D01*
X175658933Y-67334827D01*
X175488027Y-67505733D01*
X175353747Y-67706698D01*
X175304869Y-67824698D01*
X175245257Y-67656648D01*
X175096278Y-67406545D01*
X174901369Y-67190312D01*
X174668020Y-67016259D01*
X174405199Y-66891075D01*
X174257990Y-66846424D01*
X174028100Y-66967745D01*
X174028100Y-68160900D01*
X174048100Y-68160900D01*
X174048100Y-68414900D01*
X174028100Y-68414900D01*
X174028100Y-69608055D01*
X174257990Y-69729376D01*
X174405199Y-69684725D01*
X174668020Y-69559541D01*
X174901369Y-69385488D01*
X175096278Y-69169255D01*
X175245257Y-68919152D01*
X175304869Y-68751102D01*
X175353747Y-68869102D01*
X175488027Y-69070067D01*
X175658933Y-69240973D01*
X175859898Y-69375253D01*
X176000601Y-69433534D01*
X176000601Y-70437961D01*
X175998470Y-70459600D01*
X176006974Y-70545952D01*
X176032162Y-70628987D01*
X176073066Y-70705512D01*
X176100768Y-70739266D01*
X176128114Y-70772587D01*
X176144917Y-70786377D01*
X177346800Y-71988261D01*
X177346801Y-84963616D01*
X175157324Y-87153094D01*
X175157324Y-87106900D01*
X175145241Y-86984223D01*
X175109458Y-86866259D01*
X175051348Y-86757544D01*
X174973146Y-86662254D01*
X174879090Y-86585065D01*
X174902982Y-86582712D01*
X175022680Y-86546402D01*
X175132994Y-86487437D01*
X175229685Y-86408085D01*
X175309037Y-86311394D01*
X175368002Y-86201080D01*
X175404312Y-86081382D01*
X175416572Y-85956900D01*
X175413500Y-85655150D01*
X175254750Y-85496400D01*
X174180500Y-85496400D01*
X174180500Y-85516400D01*
X173926500Y-85516400D01*
X173926500Y-85496400D01*
X172852250Y-85496400D01*
X172693500Y-85655150D01*
X172690428Y-85956900D01*
X172702688Y-86081382D01*
X172738998Y-86201080D01*
X172797963Y-86311394D01*
X172877315Y-86408085D01*
X172974006Y-86487437D01*
X173084320Y-86546402D01*
X173204018Y-86582712D01*
X173227910Y-86585065D01*
X173133854Y-86662254D01*
X173055652Y-86757544D01*
X172997542Y-86866259D01*
X172961759Y-86984223D01*
X172949676Y-87106900D01*
X172949676Y-87640963D01*
X171851740Y-88738900D01*
X171560528Y-88738900D01*
X171538899Y-88736770D01*
X171517270Y-88738900D01*
X171517264Y-88738900D01*
X171467122Y-88743838D01*
X171555683Y-88655278D01*
X171572487Y-88641487D01*
X171602135Y-88605362D01*
X171627534Y-88574413D01*
X171668438Y-88497888D01*
X171693626Y-88414853D01*
X171695223Y-88398641D01*
X171700000Y-88350136D01*
X171700000Y-88350129D01*
X171702130Y-88328500D01*
X171700000Y-88306871D01*
X171700000Y-88088679D01*
X171719677Y-88086741D01*
X171837641Y-88050958D01*
X171946356Y-87992848D01*
X172041646Y-87914646D01*
X172119848Y-87819356D01*
X172177958Y-87710641D01*
X172213741Y-87592677D01*
X172225824Y-87470000D01*
X172225824Y-86520000D01*
X172213741Y-86397323D01*
X172177958Y-86279359D01*
X172119848Y-86170644D01*
X172041646Y-86075354D01*
X171946356Y-85997152D01*
X171886500Y-85965158D01*
X171886500Y-85316724D01*
X172048100Y-85316724D01*
X172122005Y-85309445D01*
X172193070Y-85287888D01*
X172258563Y-85252881D01*
X172315969Y-85205769D01*
X172363081Y-85148363D01*
X172398088Y-85082870D01*
X172419645Y-85011805D01*
X172426924Y-84937900D01*
X172426924Y-84781900D01*
X172690428Y-84781900D01*
X172693500Y-85083650D01*
X172852250Y-85242400D01*
X173926500Y-85242400D01*
X173926500Y-84305650D01*
X174180500Y-84305650D01*
X174180500Y-85242400D01*
X175254750Y-85242400D01*
X175413500Y-85083650D01*
X175416572Y-84781900D01*
X175404312Y-84657418D01*
X175368002Y-84537720D01*
X175309037Y-84427406D01*
X175229685Y-84330715D01*
X175132994Y-84251363D01*
X175022680Y-84192398D01*
X174902982Y-84156088D01*
X174778500Y-84143828D01*
X174339250Y-84146900D01*
X174180500Y-84305650D01*
X173926500Y-84305650D01*
X173767750Y-84146900D01*
X173328500Y-84143828D01*
X173204018Y-84156088D01*
X173084320Y-84192398D01*
X172974006Y-84251363D01*
X172877315Y-84330715D01*
X172797963Y-84427406D01*
X172738998Y-84537720D01*
X172702688Y-84657418D01*
X172690428Y-84781900D01*
X172426924Y-84781900D01*
X172426924Y-82837900D01*
X172419645Y-82763995D01*
X172398088Y-82692930D01*
X172363081Y-82627437D01*
X172341473Y-82601107D01*
X172402594Y-82568437D01*
X172499285Y-82489085D01*
X172578637Y-82392394D01*
X172637602Y-82282080D01*
X172673912Y-82162382D01*
X172686172Y-82037900D01*
X172683100Y-81273650D01*
X172524350Y-81114900D01*
X171275100Y-81114900D01*
X171275100Y-81134900D01*
X171021100Y-81134900D01*
X171021100Y-81114900D01*
X171001100Y-81114900D01*
X171001100Y-80860900D01*
X171021100Y-80860900D01*
X171021100Y-79461650D01*
X171275100Y-79461650D01*
X171275100Y-80860900D01*
X172524350Y-80860900D01*
X172683100Y-80702150D01*
X172686172Y-79937900D01*
X172673912Y-79813418D01*
X172637602Y-79693720D01*
X172578637Y-79583406D01*
X172499285Y-79486715D01*
X172402594Y-79407363D01*
X172292280Y-79348398D01*
X172172582Y-79312088D01*
X172048100Y-79299828D01*
X171433850Y-79302900D01*
X171275100Y-79461650D01*
X171021100Y-79461650D01*
X170862350Y-79302900D01*
X170248100Y-79299828D01*
X170123618Y-79312088D01*
X170003920Y-79348398D01*
X169893606Y-79407363D01*
X169796915Y-79486715D01*
X169738200Y-79558260D01*
X169738200Y-78795386D01*
X169768346Y-78770646D01*
X169845535Y-78676590D01*
X169847888Y-78700482D01*
X169884198Y-78820180D01*
X169943163Y-78930494D01*
X170022515Y-79027185D01*
X170119206Y-79106537D01*
X170229520Y-79165502D01*
X170349218Y-79201812D01*
X170473700Y-79214072D01*
X170775450Y-79211000D01*
X170934200Y-79052250D01*
X170934200Y-77978000D01*
X171188200Y-77978000D01*
X171188200Y-79052250D01*
X171346950Y-79211000D01*
X171648700Y-79214072D01*
X171773182Y-79201812D01*
X171892880Y-79165502D01*
X172003194Y-79106537D01*
X172099885Y-79027185D01*
X172179237Y-78930494D01*
X172238202Y-78820180D01*
X172274512Y-78700482D01*
X172286772Y-78576000D01*
X172283700Y-78136750D01*
X172124950Y-77978000D01*
X171188200Y-77978000D01*
X170934200Y-77978000D01*
X170914200Y-77978000D01*
X170914200Y-77724000D01*
X170934200Y-77724000D01*
X170934200Y-76649750D01*
X171188200Y-76649750D01*
X171188200Y-77724000D01*
X172124950Y-77724000D01*
X172283700Y-77565250D01*
X172286772Y-77126000D01*
X172274512Y-77001518D01*
X172238202Y-76881820D01*
X172179237Y-76771506D01*
X172099885Y-76674815D01*
X172003194Y-76595463D01*
X171892880Y-76536498D01*
X171773182Y-76500188D01*
X171648700Y-76487928D01*
X171346950Y-76491000D01*
X171188200Y-76649750D01*
X170934200Y-76649750D01*
X170775450Y-76491000D01*
X170473700Y-76487928D01*
X170349218Y-76500188D01*
X170229520Y-76536498D01*
X170119206Y-76595463D01*
X170022515Y-76674815D01*
X169943163Y-76771506D01*
X169884198Y-76881820D01*
X169847888Y-77001518D01*
X169845535Y-77025410D01*
X169768346Y-76931354D01*
X169673056Y-76853152D01*
X169564341Y-76795042D01*
X169446377Y-76759259D01*
X169323700Y-76747176D01*
X168648700Y-76747176D01*
X168526023Y-76759259D01*
X168408059Y-76795042D01*
X168299344Y-76853152D01*
X168204054Y-76931354D01*
X168125852Y-77026644D01*
X168067742Y-77135359D01*
X168031959Y-77253323D01*
X168019876Y-77376000D01*
X168019876Y-78326000D01*
X168031959Y-78448677D01*
X168067742Y-78566641D01*
X168125852Y-78675356D01*
X168204054Y-78770646D01*
X168234200Y-78795386D01*
X168234201Y-79559076D01*
X168048100Y-79559076D01*
X167974195Y-79566355D01*
X167903130Y-79587912D01*
X167837637Y-79622919D01*
X167780231Y-79670031D01*
X167733119Y-79727437D01*
X167698112Y-79792930D01*
X167676555Y-79863995D01*
X167669276Y-79937900D01*
X167669276Y-80360900D01*
X167607293Y-80360900D01*
X167576499Y-80357867D01*
X167453586Y-80369973D01*
X167417734Y-80380849D01*
X167335397Y-80405825D01*
X167226472Y-80464047D01*
X167130999Y-80542399D01*
X167111362Y-80566327D01*
X166900927Y-80776762D01*
X166876999Y-80796399D01*
X166798647Y-80891873D01*
X166740425Y-81000798D01*
X166719760Y-81068923D01*
X166704573Y-81118988D01*
X166692467Y-81241900D01*
X166695500Y-81272694D01*
X166695501Y-86516116D01*
X164130651Y-83951266D01*
X164134124Y-83916001D01*
X164134124Y-83215999D01*
X164122041Y-83093322D01*
X164086258Y-82975359D01*
X164028148Y-82866644D01*
X163949946Y-82771354D01*
X163854656Y-82693152D01*
X163745941Y-82635042D01*
X163627978Y-82599259D01*
X163505301Y-82587176D01*
X162963188Y-82587176D01*
X161483538Y-81107527D01*
X161463901Y-81083599D01*
X161368428Y-81005247D01*
X161259503Y-80947025D01*
X161141313Y-80911173D01*
X161049194Y-80902100D01*
X161018400Y-80899067D01*
X160987606Y-80902100D01*
X160986342Y-80902100D01*
X160954348Y-80842244D01*
X160876146Y-80746954D01*
X160780856Y-80668752D01*
X160672141Y-80610642D01*
X160554177Y-80574859D01*
X160431500Y-80562776D01*
X159481500Y-80562776D01*
X159358823Y-80574859D01*
X159240859Y-80610642D01*
X159132144Y-80668752D01*
X159036854Y-80746954D01*
X158958652Y-80842244D01*
X158900542Y-80950959D01*
X158864759Y-81068923D01*
X158852676Y-81191600D01*
X158852676Y-81866600D01*
X158864759Y-81989277D01*
X158900542Y-82107241D01*
X158958652Y-82215956D01*
X159036854Y-82311246D01*
X159132144Y-82389448D01*
X159240859Y-82447558D01*
X159358823Y-82483341D01*
X159481500Y-82495424D01*
X160431500Y-82495424D01*
X160554177Y-82483341D01*
X160672141Y-82447558D01*
X160780856Y-82389448D01*
X160876146Y-82311246D01*
X160893134Y-82290546D01*
X161976476Y-83373888D01*
X161976476Y-83916001D01*
X161988559Y-84038678D01*
X162024342Y-84156641D01*
X162082452Y-84265356D01*
X162160654Y-84360646D01*
X162255944Y-84438848D01*
X162364659Y-84496958D01*
X162482622Y-84532741D01*
X162605299Y-84544824D01*
X163478288Y-84544824D01*
X163522316Y-84588852D01*
X163505301Y-84587176D01*
X162605299Y-84587176D01*
X162482622Y-84599259D01*
X162364659Y-84635042D01*
X162255944Y-84693152D01*
X162160654Y-84771354D01*
X162082452Y-84866644D01*
X162043776Y-84939000D01*
X160436000Y-84939000D01*
X160436000Y-84569981D01*
X160554177Y-84558341D01*
X160672141Y-84522558D01*
X160780856Y-84464448D01*
X160876146Y-84386246D01*
X160954348Y-84290956D01*
X161012458Y-84182241D01*
X161048241Y-84064277D01*
X161060324Y-83941600D01*
X161060324Y-83266600D01*
X161048241Y-83143923D01*
X161012458Y-83025959D01*
X160954348Y-82917244D01*
X160876146Y-82821954D01*
X160780856Y-82743752D01*
X160672141Y-82685642D01*
X160554177Y-82649859D01*
X160431500Y-82637776D01*
X159481500Y-82637776D01*
X159358823Y-82649859D01*
X159240859Y-82685642D01*
X159132144Y-82743752D01*
X159036854Y-82821954D01*
X158958652Y-82917244D01*
X158900542Y-83025959D01*
X158864759Y-83143923D01*
X158852676Y-83266600D01*
X158852676Y-83941600D01*
X158864759Y-84064277D01*
X158900542Y-84182241D01*
X158958652Y-84290956D01*
X159036854Y-84386246D01*
X159132144Y-84464448D01*
X159182001Y-84491097D01*
X159182000Y-85025358D01*
X159122144Y-85057352D01*
X159026854Y-85135554D01*
X158949665Y-85229610D01*
X158947312Y-85205718D01*
X158911002Y-85086020D01*
X158852037Y-84975706D01*
X158772685Y-84879015D01*
X158675994Y-84799663D01*
X158565680Y-84740698D01*
X158445982Y-84704388D01*
X158321500Y-84692128D01*
X158019750Y-84695200D01*
X157861000Y-84853950D01*
X157861000Y-85928200D01*
X157881000Y-85928200D01*
X157881000Y-86182200D01*
X157861000Y-86182200D01*
X157861000Y-87256450D01*
X158019750Y-87415200D01*
X158321500Y-87418272D01*
X158445982Y-87406012D01*
X158565680Y-87369702D01*
X158675994Y-87310737D01*
X158772685Y-87231385D01*
X158852037Y-87134694D01*
X158911002Y-87024380D01*
X158947312Y-86904682D01*
X158949665Y-86880790D01*
X159026854Y-86974846D01*
X159122144Y-87053048D01*
X159230859Y-87111158D01*
X159348823Y-87146941D01*
X159471500Y-87159024D01*
X160146500Y-87159024D01*
X160269177Y-87146941D01*
X160387141Y-87111158D01*
X160495856Y-87053048D01*
X160591146Y-86974846D01*
X160669348Y-86879556D01*
X160727458Y-86770841D01*
X160763241Y-86652877D01*
X160775324Y-86530200D01*
X160775324Y-86193000D01*
X162043776Y-86193000D01*
X162082452Y-86265356D01*
X162160654Y-86360646D01*
X162255944Y-86438848D01*
X162364659Y-86496958D01*
X162482622Y-86532741D01*
X162605299Y-86544824D01*
X162614800Y-86544824D01*
X162614800Y-87455971D01*
X162612670Y-87477600D01*
X162614800Y-87499229D01*
X162614800Y-87499235D01*
X162621174Y-87563952D01*
X162646362Y-87646987D01*
X162687266Y-87723512D01*
X162742313Y-87790587D01*
X162759122Y-87804382D01*
X164138220Y-89183481D01*
X164152013Y-89200287D01*
X164168816Y-89214077D01*
X164168818Y-89214079D01*
X164217134Y-89253731D01*
X164219087Y-89255334D01*
X164295612Y-89296238D01*
X164378647Y-89321426D01*
X164443364Y-89327800D01*
X164443371Y-89327800D01*
X164465000Y-89329930D01*
X164486629Y-89327800D01*
X167902040Y-89327800D01*
X168977297Y-90403058D01*
X168977076Y-90405300D01*
X168977076Y-90456024D01*
X168930900Y-90451476D01*
X168230900Y-90451476D01*
X168147241Y-90459716D01*
X168078292Y-90480631D01*
X167747100Y-90149440D01*
X167747100Y-90138570D01*
X167724926Y-90027095D01*
X167681431Y-89922088D01*
X167618285Y-89827584D01*
X167537916Y-89747215D01*
X167443412Y-89684069D01*
X167338405Y-89640574D01*
X167226930Y-89618400D01*
X167113270Y-89618400D01*
X167001795Y-89640574D01*
X166896788Y-89684069D01*
X166802284Y-89747215D01*
X166721915Y-89827584D01*
X166658769Y-89922088D01*
X166615274Y-90027095D01*
X166593100Y-90138570D01*
X166593100Y-90223100D01*
X136805885Y-90223100D01*
X136753599Y-90217950D01*
X136701313Y-90223100D01*
X136701311Y-90223100D01*
X136544922Y-90238503D01*
X136511966Y-90248500D01*
X134102466Y-90248500D01*
X134095078Y-90246259D01*
X133972401Y-90234176D01*
X133322399Y-90234176D01*
X133199722Y-90246259D01*
X133081759Y-90282042D01*
X132973044Y-90340152D01*
X132877754Y-90418354D01*
X132799552Y-90513644D01*
X132741442Y-90622359D01*
X132705659Y-90740322D01*
X132696438Y-90833944D01*
X132659172Y-90903663D01*
X132622400Y-91024885D01*
X132585628Y-90903663D01*
X132548362Y-90833944D01*
X132539141Y-90740322D01*
X132503358Y-90622359D01*
X132445248Y-90513644D01*
X132367046Y-90418354D01*
X132271756Y-90340152D01*
X132163041Y-90282042D01*
X132045078Y-90246259D01*
X131922401Y-90234176D01*
X131272399Y-90234176D01*
X131149722Y-90246259D01*
X131142334Y-90248500D01*
X129234133Y-90248500D01*
X129075578Y-90200403D01*
X128919189Y-90185000D01*
X128919186Y-90185000D01*
X128866900Y-90179850D01*
X128814614Y-90185000D01*
X127762000Y-90185000D01*
X127762000Y-86780200D01*
X156508428Y-86780200D01*
X156520688Y-86904682D01*
X156556998Y-87024380D01*
X156615963Y-87134694D01*
X156695315Y-87231385D01*
X156792006Y-87310737D01*
X156902320Y-87369702D01*
X157022018Y-87406012D01*
X157146500Y-87418272D01*
X157448250Y-87415200D01*
X157607000Y-87256450D01*
X157607000Y-86182200D01*
X156670250Y-86182200D01*
X156511500Y-86340950D01*
X156508428Y-86780200D01*
X127762000Y-86780200D01*
X127762000Y-85330200D01*
X156508428Y-85330200D01*
X156511500Y-85769450D01*
X156670250Y-85928200D01*
X157607000Y-85928200D01*
X157607000Y-84853950D01*
X157448250Y-84695200D01*
X157146500Y-84692128D01*
X157022018Y-84704388D01*
X156902320Y-84740698D01*
X156792006Y-84799663D01*
X156695315Y-84879015D01*
X156615963Y-84975706D01*
X156556998Y-85086020D01*
X156520688Y-85205718D01*
X156508428Y-85330200D01*
X127762000Y-85330200D01*
X127762000Y-68167051D01*
X159974100Y-68167051D01*
X159974100Y-68408749D01*
X160021253Y-68645803D01*
X160113747Y-68869102D01*
X160248027Y-69070067D01*
X160418933Y-69240973D01*
X160619898Y-69375253D01*
X160843197Y-69467747D01*
X161080251Y-69514900D01*
X161321949Y-69514900D01*
X161559003Y-69467747D01*
X161782302Y-69375253D01*
X161983267Y-69240973D01*
X162154173Y-69070067D01*
X162288453Y-68869102D01*
X162380947Y-68645803D01*
X162428100Y-68408749D01*
X162428100Y-68167051D01*
X162514100Y-68167051D01*
X162514100Y-68408749D01*
X162561253Y-68645803D01*
X162653747Y-68869102D01*
X162788027Y-69070067D01*
X162958933Y-69240973D01*
X163159898Y-69375253D01*
X163383197Y-69467747D01*
X163620251Y-69514900D01*
X163861949Y-69514900D01*
X164099003Y-69467747D01*
X164322302Y-69375253D01*
X164523267Y-69240973D01*
X164694173Y-69070067D01*
X164828453Y-68869102D01*
X164920947Y-68645803D01*
X164968100Y-68408749D01*
X164968100Y-68167051D01*
X165054100Y-68167051D01*
X165054100Y-68408749D01*
X165101253Y-68645803D01*
X165193747Y-68869102D01*
X165328027Y-69070067D01*
X165498933Y-69240973D01*
X165699898Y-69375253D01*
X165923197Y-69467747D01*
X166160251Y-69514900D01*
X166401949Y-69514900D01*
X166639003Y-69467747D01*
X166862302Y-69375253D01*
X167063267Y-69240973D01*
X167234173Y-69070067D01*
X167368453Y-68869102D01*
X167417331Y-68751102D01*
X167476943Y-68919152D01*
X167625922Y-69169255D01*
X167820831Y-69385488D01*
X168054180Y-69559541D01*
X168317001Y-69684725D01*
X168464210Y-69729376D01*
X168694100Y-69608055D01*
X168694100Y-68414900D01*
X168948100Y-68414900D01*
X168948100Y-69608055D01*
X169177990Y-69729376D01*
X169325199Y-69684725D01*
X169588020Y-69559541D01*
X169821369Y-69385488D01*
X170016278Y-69169255D01*
X170091100Y-69043645D01*
X170165922Y-69169255D01*
X170360831Y-69385488D01*
X170594180Y-69559541D01*
X170857001Y-69684725D01*
X171004210Y-69729376D01*
X171234100Y-69608055D01*
X171234100Y-68414900D01*
X171488100Y-68414900D01*
X171488100Y-69608055D01*
X171717990Y-69729376D01*
X171865199Y-69684725D01*
X172128020Y-69559541D01*
X172361369Y-69385488D01*
X172556278Y-69169255D01*
X172631100Y-69043645D01*
X172705922Y-69169255D01*
X172900831Y-69385488D01*
X173134180Y-69559541D01*
X173397001Y-69684725D01*
X173544210Y-69729376D01*
X173774100Y-69608055D01*
X173774100Y-68414900D01*
X171488100Y-68414900D01*
X171234100Y-68414900D01*
X168948100Y-68414900D01*
X168694100Y-68414900D01*
X168674100Y-68414900D01*
X168674100Y-68160900D01*
X168694100Y-68160900D01*
X168694100Y-66967745D01*
X168948100Y-66967745D01*
X168948100Y-68160900D01*
X171234100Y-68160900D01*
X171234100Y-66967745D01*
X171488100Y-66967745D01*
X171488100Y-68160900D01*
X173774100Y-68160900D01*
X173774100Y-66967745D01*
X173544210Y-66846424D01*
X173397001Y-66891075D01*
X173134180Y-67016259D01*
X172900831Y-67190312D01*
X172705922Y-67406545D01*
X172631100Y-67532155D01*
X172556278Y-67406545D01*
X172361369Y-67190312D01*
X172128020Y-67016259D01*
X171865199Y-66891075D01*
X171717990Y-66846424D01*
X171488100Y-66967745D01*
X171234100Y-66967745D01*
X171004210Y-66846424D01*
X170857001Y-66891075D01*
X170594180Y-67016259D01*
X170360831Y-67190312D01*
X170165922Y-67406545D01*
X170091100Y-67532155D01*
X170016278Y-67406545D01*
X169821369Y-67190312D01*
X169588020Y-67016259D01*
X169325199Y-66891075D01*
X169177990Y-66846424D01*
X168948100Y-66967745D01*
X168694100Y-66967745D01*
X168464210Y-66846424D01*
X168317001Y-66891075D01*
X168054180Y-67016259D01*
X167820831Y-67190312D01*
X167625922Y-67406545D01*
X167476943Y-67656648D01*
X167417331Y-67824698D01*
X167368453Y-67706698D01*
X167234173Y-67505733D01*
X167063267Y-67334827D01*
X166862302Y-67200547D01*
X166639003Y-67108053D01*
X166401949Y-67060900D01*
X166160251Y-67060900D01*
X165923197Y-67108053D01*
X165699898Y-67200547D01*
X165498933Y-67334827D01*
X165328027Y-67505733D01*
X165193747Y-67706698D01*
X165101253Y-67929997D01*
X165054100Y-68167051D01*
X164968100Y-68167051D01*
X164920947Y-67929997D01*
X164828453Y-67706698D01*
X164694173Y-67505733D01*
X164523267Y-67334827D01*
X164322302Y-67200547D01*
X164099003Y-67108053D01*
X163861949Y-67060900D01*
X163620251Y-67060900D01*
X163383197Y-67108053D01*
X163159898Y-67200547D01*
X162958933Y-67334827D01*
X162788027Y-67505733D01*
X162653747Y-67706698D01*
X162561253Y-67929997D01*
X162514100Y-68167051D01*
X162428100Y-68167051D01*
X162380947Y-67929997D01*
X162288453Y-67706698D01*
X162154173Y-67505733D01*
X161983267Y-67334827D01*
X161782302Y-67200547D01*
X161559003Y-67108053D01*
X161321949Y-67060900D01*
X161080251Y-67060900D01*
X160843197Y-67108053D01*
X160619898Y-67200547D01*
X160418933Y-67334827D01*
X160248027Y-67505733D01*
X160113747Y-67706698D01*
X160021253Y-67929997D01*
X159974100Y-68167051D01*
X127762000Y-68167051D01*
X127762000Y-65532000D01*
X193548000Y-65532000D01*
X193548000Y-116078000D01*
%TA.AperFunction,Conductor*%
D23*
G36*
X193548000Y-116078000D02*
G01*
X127762000Y-116078000D01*
X127762000Y-94421687D01*
X127787406Y-94442537D01*
X127897720Y-94501502D01*
X128017418Y-94537812D01*
X128141900Y-94550072D01*
X128581150Y-94547000D01*
X128739900Y-94388250D01*
X128739900Y-93451500D01*
X128993900Y-93451500D01*
X128993900Y-94388250D01*
X129152650Y-94547000D01*
X129591900Y-94550072D01*
X129716382Y-94537812D01*
X129836080Y-94501502D01*
X129946394Y-94442537D01*
X130043085Y-94363185D01*
X130122437Y-94266494D01*
X130181402Y-94156180D01*
X130217712Y-94036482D01*
X130223718Y-93975500D01*
X135365128Y-93975500D01*
X135377388Y-94099982D01*
X135413698Y-94219680D01*
X135472663Y-94329994D01*
X135552015Y-94426685D01*
X135648706Y-94506037D01*
X135759020Y-94565002D01*
X135878718Y-94601312D01*
X136003200Y-94613572D01*
X136442450Y-94610500D01*
X136601200Y-94451750D01*
X136601200Y-93515000D01*
X136855200Y-93515000D01*
X136855200Y-94451750D01*
X137013950Y-94610500D01*
X137453200Y-94613572D01*
X137577682Y-94601312D01*
X137697380Y-94565002D01*
X137807694Y-94506037D01*
X137904385Y-94426685D01*
X137983737Y-94329994D01*
X138042702Y-94219680D01*
X138079012Y-94099982D01*
X138091272Y-93975500D01*
X138089132Y-93765200D01*
X159937428Y-93765200D01*
X159949688Y-93889682D01*
X159985998Y-94009380D01*
X160044963Y-94119694D01*
X160124315Y-94216385D01*
X160221006Y-94295737D01*
X160331320Y-94354702D01*
X160451018Y-94391012D01*
X160575500Y-94403272D01*
X160877250Y-94400200D01*
X161036000Y-94241450D01*
X161036000Y-93167200D01*
X160099250Y-93167200D01*
X159940500Y-93325950D01*
X159937428Y-93765200D01*
X138089132Y-93765200D01*
X138088200Y-93673750D01*
X137929450Y-93515000D01*
X136855200Y-93515000D01*
X136601200Y-93515000D01*
X135526950Y-93515000D01*
X135368200Y-93673750D01*
X135365128Y-93975500D01*
X130223718Y-93975500D01*
X130229972Y-93912000D01*
X130226900Y-93610250D01*
X130068150Y-93451500D01*
X128993900Y-93451500D01*
X128739900Y-93451500D01*
X128719900Y-93451500D01*
X128719900Y-93197500D01*
X128739900Y-93197500D01*
X128739900Y-93177500D01*
X128993900Y-93177500D01*
X128993900Y-93197500D01*
X130068150Y-93197500D01*
X130226900Y-93038750D01*
X130229972Y-92737000D01*
X130217712Y-92612518D01*
X130181402Y-92492820D01*
X130122437Y-92382506D01*
X130118329Y-92377500D01*
X131142334Y-92377500D01*
X131149722Y-92379741D01*
X131272399Y-92391824D01*
X131922401Y-92391824D01*
X132045078Y-92379741D01*
X132163041Y-92343958D01*
X132271756Y-92285848D01*
X132367046Y-92207646D01*
X132445248Y-92112356D01*
X132503358Y-92003641D01*
X132539141Y-91885678D01*
X132548362Y-91792056D01*
X132585628Y-91722337D01*
X132622400Y-91601115D01*
X132659172Y-91722337D01*
X132696438Y-91792056D01*
X132705659Y-91885678D01*
X132741442Y-92003641D01*
X132799552Y-92112356D01*
X132877754Y-92207646D01*
X132973044Y-92285848D01*
X133081759Y-92343958D01*
X133199722Y-92379741D01*
X133322399Y-92391824D01*
X133972401Y-92391824D01*
X134095078Y-92379741D01*
X134102466Y-92377500D01*
X135528884Y-92377500D01*
X135472663Y-92446006D01*
X135413698Y-92556320D01*
X135377388Y-92676018D01*
X135365128Y-92800500D01*
X135368200Y-93102250D01*
X135526950Y-93261000D01*
X136601200Y-93261000D01*
X136601200Y-93241000D01*
X136855200Y-93241000D01*
X136855200Y-93261000D01*
X137929450Y-93261000D01*
X138088200Y-93102250D01*
X138091272Y-92800500D01*
X138079012Y-92676018D01*
X138042702Y-92556320D01*
X137983737Y-92446006D01*
X137906671Y-92352100D01*
X159937686Y-92352100D01*
X159940500Y-92754450D01*
X160099250Y-92913200D01*
X161036000Y-92913200D01*
X161036000Y-92893200D01*
X161290000Y-92893200D01*
X161290000Y-92913200D01*
X161310000Y-92913200D01*
X161310000Y-93167200D01*
X161290000Y-93167200D01*
X161290000Y-94241450D01*
X161448750Y-94400200D01*
X161750500Y-94403272D01*
X161874982Y-94391012D01*
X161994680Y-94354702D01*
X162104994Y-94295737D01*
X162201685Y-94216385D01*
X162281037Y-94119694D01*
X162340002Y-94009380D01*
X162376312Y-93889682D01*
X162378665Y-93865790D01*
X162455854Y-93959846D01*
X162551144Y-94038048D01*
X162659859Y-94096158D01*
X162777823Y-94131941D01*
X162900500Y-94144024D01*
X163575500Y-94144024D01*
X163698177Y-94131941D01*
X163816141Y-94096158D01*
X163924856Y-94038048D01*
X164020146Y-93959846D01*
X164098348Y-93864556D01*
X164156458Y-93755841D01*
X164192241Y-93637877D01*
X164204324Y-93515200D01*
X164204324Y-93387800D01*
X166429965Y-93387800D01*
X164055766Y-95762000D01*
X156142725Y-95762000D01*
X156121099Y-95759870D01*
X156099473Y-95762000D01*
X156099464Y-95762000D01*
X156034747Y-95768374D01*
X155951712Y-95793562D01*
X155875187Y-95834466D01*
X155808113Y-95889513D01*
X155794323Y-95906316D01*
X140851964Y-110848676D01*
X139396100Y-110848676D01*
X139322195Y-110855955D01*
X139251130Y-110877512D01*
X139185637Y-110912519D01*
X139128231Y-110959631D01*
X139081119Y-111017037D01*
X139046112Y-111082530D01*
X139024555Y-111153595D01*
X139017276Y-111227500D01*
X139017276Y-112927500D01*
X139024555Y-113001405D01*
X139046112Y-113072470D01*
X139081119Y-113137963D01*
X139128231Y-113195369D01*
X139185637Y-113242481D01*
X139251130Y-113277488D01*
X139322195Y-113299045D01*
X139396100Y-113306324D01*
X141096100Y-113306324D01*
X141170005Y-113299045D01*
X141241070Y-113277488D01*
X141306563Y-113242481D01*
X141363969Y-113195369D01*
X141411081Y-113137963D01*
X141446088Y-113072470D01*
X141467645Y-113001405D01*
X141474924Y-112927500D01*
X141474924Y-111471636D01*
X156303561Y-96643000D01*
X163533991Y-96643000D01*
X162979891Y-97197100D01*
X157247625Y-97197100D01*
X157225999Y-97194970D01*
X157204373Y-97197100D01*
X157204364Y-97197100D01*
X157139647Y-97203474D01*
X157056612Y-97228662D01*
X156980087Y-97269566D01*
X156913013Y-97324613D01*
X156899223Y-97341416D01*
X143284706Y-110955934D01*
X143144003Y-110897653D01*
X142906949Y-110850500D01*
X142665251Y-110850500D01*
X142428197Y-110897653D01*
X142204898Y-110990147D01*
X142003933Y-111124427D01*
X141833027Y-111295333D01*
X141698747Y-111496298D01*
X141606253Y-111719597D01*
X141559100Y-111956651D01*
X141559100Y-112198349D01*
X141606253Y-112435403D01*
X141698747Y-112658702D01*
X141833027Y-112859667D01*
X142003933Y-113030573D01*
X142204898Y-113164853D01*
X142428197Y-113257347D01*
X142665251Y-113304500D01*
X142906949Y-113304500D01*
X143144003Y-113257347D01*
X143367302Y-113164853D01*
X143568267Y-113030573D01*
X143739173Y-112859667D01*
X143873453Y-112658702D01*
X143965947Y-112435403D01*
X144013100Y-112198349D01*
X144013100Y-111956651D01*
X143965947Y-111719597D01*
X143907666Y-111578894D01*
X157408461Y-98078100D01*
X162458116Y-98078100D01*
X162208816Y-98327400D01*
X158657329Y-98327400D01*
X158635700Y-98325270D01*
X158614071Y-98327400D01*
X158614064Y-98327400D01*
X158549347Y-98333774D01*
X158466312Y-98358962D01*
X158389787Y-98399866D01*
X158322713Y-98454913D01*
X158308923Y-98471716D01*
X145824706Y-110955934D01*
X145684003Y-110897653D01*
X145446949Y-110850500D01*
X145205251Y-110850500D01*
X144968197Y-110897653D01*
X144744898Y-110990147D01*
X144543933Y-111124427D01*
X144373027Y-111295333D01*
X144238747Y-111496298D01*
X144146253Y-111719597D01*
X144099100Y-111956651D01*
X144099100Y-112198349D01*
X144146253Y-112435403D01*
X144238747Y-112658702D01*
X144373027Y-112859667D01*
X144543933Y-113030573D01*
X144744898Y-113164853D01*
X144968197Y-113257347D01*
X145205251Y-113304500D01*
X145446949Y-113304500D01*
X145684003Y-113257347D01*
X145907302Y-113164853D01*
X146108267Y-113030573D01*
X146279173Y-112859667D01*
X146413453Y-112658702D01*
X146505947Y-112435403D01*
X146553100Y-112198349D01*
X146553100Y-111956651D01*
X146505947Y-111719597D01*
X146447666Y-111578894D01*
X158818161Y-99208400D01*
X160112239Y-99208400D01*
X148364706Y-110955934D01*
X148224003Y-110897653D01*
X147986949Y-110850500D01*
X147745251Y-110850500D01*
X147508197Y-110897653D01*
X147284898Y-110990147D01*
X147083933Y-111124427D01*
X146913027Y-111295333D01*
X146778747Y-111496298D01*
X146686253Y-111719597D01*
X146639100Y-111956651D01*
X146639100Y-112198349D01*
X146686253Y-112435403D01*
X146778747Y-112658702D01*
X146913027Y-112859667D01*
X147083933Y-113030573D01*
X147284898Y-113164853D01*
X147508197Y-113257347D01*
X147745251Y-113304500D01*
X147986949Y-113304500D01*
X148224003Y-113257347D01*
X148447302Y-113164853D01*
X148648267Y-113030573D01*
X148819173Y-112859667D01*
X148953453Y-112658702D01*
X149045947Y-112435403D01*
X149093100Y-112198349D01*
X149093100Y-111956651D01*
X149045947Y-111719597D01*
X148987666Y-111578894D01*
X161053361Y-99513200D01*
X161741463Y-99513200D01*
X150404164Y-110850500D01*
X150285251Y-110850500D01*
X150048197Y-110897653D01*
X149824898Y-110990147D01*
X149623933Y-111124427D01*
X149453027Y-111295333D01*
X149318747Y-111496298D01*
X149226253Y-111719597D01*
X149179100Y-111956651D01*
X149179100Y-112198349D01*
X149226253Y-112435403D01*
X149318747Y-112658702D01*
X149453027Y-112859667D01*
X149623933Y-113030573D01*
X149824898Y-113164853D01*
X150048197Y-113257347D01*
X150285251Y-113304500D01*
X150526949Y-113304500D01*
X150764003Y-113257347D01*
X150987302Y-113164853D01*
X151188267Y-113030573D01*
X151359173Y-112859667D01*
X151493453Y-112658702D01*
X151585947Y-112435403D01*
X151633100Y-112198349D01*
X151633100Y-111956651D01*
X151585947Y-111719597D01*
X151493453Y-111496298D01*
X151359173Y-111295333D01*
X151282212Y-111218372D01*
X152505600Y-109994984D01*
X152505601Y-110853774D01*
X152505600Y-110853784D01*
X152505600Y-110931866D01*
X152364898Y-110990147D01*
X152163933Y-111124427D01*
X151993027Y-111295333D01*
X151858747Y-111496298D01*
X151766253Y-111719597D01*
X151719100Y-111956651D01*
X151719100Y-112198349D01*
X151766253Y-112435403D01*
X151858747Y-112658702D01*
X151993027Y-112859667D01*
X152163933Y-113030573D01*
X152364898Y-113164853D01*
X152588197Y-113257347D01*
X152825251Y-113304500D01*
X153066949Y-113304500D01*
X153304003Y-113257347D01*
X153527302Y-113164853D01*
X153728267Y-113030573D01*
X153899173Y-112859667D01*
X154033453Y-112658702D01*
X154125947Y-112435403D01*
X154173100Y-112198349D01*
X154173100Y-111956651D01*
X154125947Y-111719597D01*
X154033453Y-111496298D01*
X153899173Y-111295333D01*
X153728267Y-111124427D01*
X153527302Y-110990147D01*
X153386600Y-110931866D01*
X153386600Y-109478657D01*
X155045601Y-107819656D01*
X155045600Y-110931866D01*
X154904898Y-110990147D01*
X154703933Y-111124427D01*
X154533027Y-111295333D01*
X154398747Y-111496298D01*
X154306253Y-111719597D01*
X154259100Y-111956651D01*
X154259100Y-112198349D01*
X154306253Y-112435403D01*
X154398747Y-112658702D01*
X154533027Y-112859667D01*
X154703933Y-113030573D01*
X154904898Y-113164853D01*
X155128197Y-113257347D01*
X155365251Y-113304500D01*
X155606949Y-113304500D01*
X155844003Y-113257347D01*
X156067302Y-113164853D01*
X156268267Y-113030573D01*
X156439173Y-112859667D01*
X156573453Y-112658702D01*
X156665947Y-112435403D01*
X156713100Y-112198349D01*
X156713100Y-111956651D01*
X156665947Y-111719597D01*
X156573453Y-111496298D01*
X156439173Y-111295333D01*
X156268267Y-111124427D01*
X156067302Y-110990147D01*
X155926600Y-110931866D01*
X155926600Y-107297882D01*
X157585600Y-105638882D01*
X157585601Y-110853774D01*
X157585600Y-110853784D01*
X157585600Y-110931866D01*
X157444898Y-110990147D01*
X157243933Y-111124427D01*
X157073027Y-111295333D01*
X156938747Y-111496298D01*
X156846253Y-111719597D01*
X156799100Y-111956651D01*
X156799100Y-112198349D01*
X156846253Y-112435403D01*
X156938747Y-112658702D01*
X157073027Y-112859667D01*
X157243933Y-113030573D01*
X157444898Y-113164853D01*
X157668197Y-113257347D01*
X157905251Y-113304500D01*
X158146949Y-113304500D01*
X158384003Y-113257347D01*
X158607302Y-113164853D01*
X158808267Y-113030573D01*
X158979173Y-112859667D01*
X159113453Y-112658702D01*
X159205947Y-112435403D01*
X159253100Y-112198349D01*
X159253100Y-111956651D01*
X159205947Y-111719597D01*
X159113453Y-111496298D01*
X158979173Y-111295333D01*
X158808267Y-111124427D01*
X158607302Y-110990147D01*
X158466600Y-110931866D01*
X158466600Y-105117107D01*
X160125601Y-103458106D01*
X160125600Y-110931866D01*
X159984898Y-110990147D01*
X159783933Y-111124427D01*
X159613027Y-111295333D01*
X159478747Y-111496298D01*
X159386253Y-111719597D01*
X159339100Y-111956651D01*
X159339100Y-112198349D01*
X159386253Y-112435403D01*
X159478747Y-112658702D01*
X159613027Y-112859667D01*
X159783933Y-113030573D01*
X159984898Y-113164853D01*
X160208197Y-113257347D01*
X160445251Y-113304500D01*
X160686949Y-113304500D01*
X160924003Y-113257347D01*
X161147302Y-113164853D01*
X161348267Y-113030573D01*
X161519173Y-112859667D01*
X161653453Y-112658702D01*
X161745947Y-112435403D01*
X161793100Y-112198349D01*
X161793100Y-111956651D01*
X161745947Y-111719597D01*
X161653453Y-111496298D01*
X161519173Y-111295333D01*
X161348267Y-111124427D01*
X161147302Y-110990147D01*
X161006600Y-110931866D01*
X161006600Y-102936332D01*
X162665600Y-101277332D01*
X162665601Y-110931866D01*
X162524898Y-110990147D01*
X162323933Y-111124427D01*
X162153027Y-111295333D01*
X162018747Y-111496298D01*
X161926253Y-111719597D01*
X161879100Y-111956651D01*
X161879100Y-112198349D01*
X161926253Y-112435403D01*
X162018747Y-112658702D01*
X162153027Y-112859667D01*
X162323933Y-113030573D01*
X162524898Y-113164853D01*
X162748197Y-113257347D01*
X162985251Y-113304500D01*
X163226949Y-113304500D01*
X163464003Y-113257347D01*
X163687302Y-113164853D01*
X163888267Y-113030573D01*
X164059173Y-112859667D01*
X164193453Y-112658702D01*
X164285947Y-112435403D01*
X164333100Y-112198349D01*
X164333100Y-111956651D01*
X164419100Y-111956651D01*
X164419100Y-112198349D01*
X164466253Y-112435403D01*
X164558747Y-112658702D01*
X164693027Y-112859667D01*
X164863933Y-113030573D01*
X165064898Y-113164853D01*
X165288197Y-113257347D01*
X165525251Y-113304500D01*
X165766949Y-113304500D01*
X166004003Y-113257347D01*
X166227302Y-113164853D01*
X166428267Y-113030573D01*
X166599173Y-112859667D01*
X166733453Y-112658702D01*
X166825947Y-112435403D01*
X166873100Y-112198349D01*
X166873100Y-111956651D01*
X166959100Y-111956651D01*
X166959100Y-112198349D01*
X167006253Y-112435403D01*
X167098747Y-112658702D01*
X167233027Y-112859667D01*
X167403933Y-113030573D01*
X167604898Y-113164853D01*
X167828197Y-113257347D01*
X168065251Y-113304500D01*
X168306949Y-113304500D01*
X168544003Y-113257347D01*
X168767302Y-113164853D01*
X168968267Y-113030573D01*
X169139173Y-112859667D01*
X169273453Y-112658702D01*
X169365947Y-112435403D01*
X169413100Y-112198349D01*
X169413100Y-111956651D01*
X169499100Y-111956651D01*
X169499100Y-112198349D01*
X169546253Y-112435403D01*
X169638747Y-112658702D01*
X169773027Y-112859667D01*
X169943933Y-113030573D01*
X170144898Y-113164853D01*
X170368197Y-113257347D01*
X170605251Y-113304500D01*
X170846949Y-113304500D01*
X171084003Y-113257347D01*
X171307302Y-113164853D01*
X171508267Y-113030573D01*
X171679173Y-112859667D01*
X171813453Y-112658702D01*
X171905947Y-112435403D01*
X171953100Y-112198349D01*
X171953100Y-111956651D01*
X172039100Y-111956651D01*
X172039100Y-112198349D01*
X172086253Y-112435403D01*
X172178747Y-112658702D01*
X172313027Y-112859667D01*
X172483933Y-113030573D01*
X172684898Y-113164853D01*
X172908197Y-113257347D01*
X173145251Y-113304500D01*
X173386949Y-113304500D01*
X173624003Y-113257347D01*
X173847302Y-113164853D01*
X174048267Y-113030573D01*
X174219173Y-112859667D01*
X174353453Y-112658702D01*
X174445947Y-112435403D01*
X174493100Y-112198349D01*
X174493100Y-111956651D01*
X174445947Y-111719597D01*
X174353453Y-111496298D01*
X174219173Y-111295333D01*
X174048267Y-111124427D01*
X173847302Y-110990147D01*
X173624003Y-110897653D01*
X173386949Y-110850500D01*
X173145251Y-110850500D01*
X172908197Y-110897653D01*
X172684898Y-110990147D01*
X172483933Y-111124427D01*
X172313027Y-111295333D01*
X172178747Y-111496298D01*
X172086253Y-111719597D01*
X172039100Y-111956651D01*
X171953100Y-111956651D01*
X171905947Y-111719597D01*
X171813453Y-111496298D01*
X171679173Y-111295333D01*
X171508267Y-111124427D01*
X171307302Y-110990147D01*
X171084003Y-110897653D01*
X170846949Y-110850500D01*
X170605251Y-110850500D01*
X170368197Y-110897653D01*
X170144898Y-110990147D01*
X169943933Y-111124427D01*
X169773027Y-111295333D01*
X169638747Y-111496298D01*
X169546253Y-111719597D01*
X169499100Y-111956651D01*
X169413100Y-111956651D01*
X169365947Y-111719597D01*
X169273453Y-111496298D01*
X169139173Y-111295333D01*
X168968267Y-111124427D01*
X168767302Y-110990147D01*
X168544003Y-110897653D01*
X168306949Y-110850500D01*
X168065251Y-110850500D01*
X167828197Y-110897653D01*
X167604898Y-110990147D01*
X167403933Y-111124427D01*
X167233027Y-111295333D01*
X167098747Y-111496298D01*
X167006253Y-111719597D01*
X166959100Y-111956651D01*
X166873100Y-111956651D01*
X166825947Y-111719597D01*
X166733453Y-111496298D01*
X166599173Y-111295333D01*
X166428267Y-111124427D01*
X166227302Y-110990147D01*
X166004003Y-110897653D01*
X165766949Y-110850500D01*
X165525251Y-110850500D01*
X165288197Y-110897653D01*
X165064898Y-110990147D01*
X164863933Y-111124427D01*
X164693027Y-111295333D01*
X164558747Y-111496298D01*
X164466253Y-111719597D01*
X164419100Y-111956651D01*
X164333100Y-111956651D01*
X164285947Y-111719597D01*
X164193453Y-111496298D01*
X164059173Y-111295333D01*
X163888267Y-111124427D01*
X163687302Y-110990147D01*
X163546600Y-110931866D01*
X163546600Y-106465000D01*
X166868376Y-106465000D01*
X166868376Y-108165000D01*
X166875655Y-108238905D01*
X166897212Y-108309970D01*
X166932219Y-108375463D01*
X166979331Y-108432869D01*
X167036737Y-108479981D01*
X167102230Y-108514988D01*
X167173295Y-108536545D01*
X167247200Y-108543824D01*
X168947200Y-108543824D01*
X169021105Y-108536545D01*
X169092170Y-108514988D01*
X169157663Y-108479981D01*
X169215069Y-108432869D01*
X169262181Y-108375463D01*
X169297188Y-108309970D01*
X169318745Y-108238905D01*
X169326024Y-108165000D01*
X169326024Y-106465000D01*
X169318745Y-106391095D01*
X169297188Y-106320030D01*
X169262181Y-106254537D01*
X169215069Y-106197131D01*
X169157663Y-106150019D01*
X169092170Y-106115012D01*
X169021105Y-106093455D01*
X168947200Y-106086176D01*
X167247200Y-106086176D01*
X167173295Y-106093455D01*
X167102230Y-106115012D01*
X167036737Y-106150019D01*
X166979331Y-106197131D01*
X166932219Y-106254537D01*
X166897212Y-106320030D01*
X166875655Y-106391095D01*
X166868376Y-106465000D01*
X163546600Y-106465000D01*
X163546600Y-101137560D01*
X167973449Y-96710712D01*
X167974181Y-96718148D01*
X167974182Y-104423142D01*
X167972051Y-104444781D01*
X167980555Y-104531133D01*
X168005743Y-104614168D01*
X168046647Y-104690693D01*
X168072056Y-104721653D01*
X168101695Y-104757768D01*
X168118498Y-104771558D01*
X169781950Y-106435010D01*
X169684127Y-106532833D01*
X169549847Y-106733798D01*
X169457353Y-106957097D01*
X169410200Y-107194151D01*
X169410200Y-107435849D01*
X169457353Y-107672903D01*
X169549847Y-107896202D01*
X169684127Y-108097167D01*
X169855033Y-108268073D01*
X170055998Y-108402353D01*
X170279297Y-108494847D01*
X170516351Y-108542000D01*
X170758049Y-108542000D01*
X170995103Y-108494847D01*
X171218402Y-108402353D01*
X171419367Y-108268073D01*
X171590273Y-108097167D01*
X171724553Y-107896202D01*
X171817047Y-107672903D01*
X171864200Y-107435849D01*
X171864200Y-107194151D01*
X171817047Y-106957097D01*
X171724553Y-106733798D01*
X171590273Y-106532833D01*
X171419367Y-106361927D01*
X171218402Y-106227647D01*
X170995103Y-106135153D01*
X170758049Y-106088000D01*
X170680861Y-106088000D01*
X168855181Y-104262321D01*
X168855181Y-103615941D01*
X172055634Y-106816395D01*
X171997353Y-106957097D01*
X171950200Y-107194151D01*
X171950200Y-107435849D01*
X171997353Y-107672903D01*
X172089847Y-107896202D01*
X172224127Y-108097167D01*
X172395033Y-108268073D01*
X172595998Y-108402353D01*
X172819297Y-108494847D01*
X173056351Y-108542000D01*
X173298049Y-108542000D01*
X173535103Y-108494847D01*
X173758402Y-108402353D01*
X173959367Y-108268073D01*
X174130273Y-108097167D01*
X174264553Y-107896202D01*
X174357047Y-107672903D01*
X174404200Y-107435849D01*
X174404200Y-107194151D01*
X174357047Y-106957097D01*
X174264553Y-106733798D01*
X174130273Y-106532833D01*
X173959367Y-106361927D01*
X173758402Y-106227647D01*
X173535103Y-106135153D01*
X173298049Y-106088000D01*
X173056351Y-106088000D01*
X172819297Y-106135153D01*
X172678595Y-106193434D01*
X171560961Y-105075800D01*
X172855040Y-105075800D01*
X174595634Y-106816395D01*
X174537353Y-106957097D01*
X174490200Y-107194151D01*
X174490200Y-107435849D01*
X174537353Y-107672903D01*
X174629847Y-107896202D01*
X174764127Y-108097167D01*
X174935033Y-108268073D01*
X175135998Y-108402353D01*
X175359297Y-108494847D01*
X175596351Y-108542000D01*
X175838049Y-108542000D01*
X176075103Y-108494847D01*
X176298402Y-108402353D01*
X176499367Y-108268073D01*
X176670273Y-108097167D01*
X176804553Y-107896202D01*
X176897047Y-107672903D01*
X176944200Y-107435849D01*
X176944200Y-107194151D01*
X176897047Y-106957097D01*
X176804553Y-106733798D01*
X176670273Y-106532833D01*
X176499367Y-106361927D01*
X176298402Y-106227647D01*
X176075103Y-106135153D01*
X175838049Y-106088000D01*
X175596351Y-106088000D01*
X175359297Y-106135153D01*
X175218595Y-106193434D01*
X173377060Y-104351900D01*
X174671140Y-104351900D01*
X177135634Y-106816395D01*
X177077353Y-106957097D01*
X177030200Y-107194151D01*
X177030200Y-107435849D01*
X177077353Y-107672903D01*
X177169847Y-107896202D01*
X177304127Y-108097167D01*
X177475033Y-108268073D01*
X177675998Y-108402353D01*
X177899297Y-108494847D01*
X178136351Y-108542000D01*
X178378049Y-108542000D01*
X178615103Y-108494847D01*
X178838402Y-108402353D01*
X179039367Y-108268073D01*
X179210273Y-108097167D01*
X179344553Y-107896202D01*
X179437047Y-107672903D01*
X179484200Y-107435849D01*
X179484200Y-107194151D01*
X179437047Y-106957097D01*
X179344553Y-106733798D01*
X179210273Y-106532833D01*
X179039367Y-106361927D01*
X178838402Y-106227647D01*
X178615103Y-106135153D01*
X178378049Y-106088000D01*
X178136351Y-106088000D01*
X177899297Y-106135153D01*
X177758595Y-106193434D01*
X175180382Y-103615222D01*
X175166587Y-103598413D01*
X175099513Y-103543366D01*
X175022988Y-103502462D01*
X174939953Y-103477274D01*
X174875236Y-103470900D01*
X174875229Y-103470900D01*
X174853600Y-103468770D01*
X174831971Y-103470900D01*
X171848361Y-103470900D01*
X170316637Y-101939176D01*
X170427650Y-101938400D01*
X170586400Y-101779650D01*
X170586400Y-100842900D01*
X170840400Y-100842900D01*
X170840400Y-101779650D01*
X170999150Y-101938400D01*
X171438400Y-101941472D01*
X171562882Y-101929212D01*
X171682580Y-101892902D01*
X171792894Y-101833937D01*
X171889585Y-101754585D01*
X171968937Y-101657894D01*
X172027902Y-101547580D01*
X172064212Y-101427882D01*
X172076472Y-101303400D01*
X172073400Y-101001650D01*
X171914650Y-100842900D01*
X170840400Y-100842900D01*
X170586400Y-100842900D01*
X170566400Y-100842900D01*
X170566400Y-100588900D01*
X170586400Y-100588900D01*
X170586400Y-100568900D01*
X170840400Y-100568900D01*
X170840400Y-100588900D01*
X171914650Y-100588900D01*
X172073400Y-100430150D01*
X172076472Y-100128400D01*
X172064212Y-100003918D01*
X172027902Y-99884220D01*
X171968937Y-99773906D01*
X171889585Y-99677215D01*
X171792894Y-99597863D01*
X171682580Y-99538898D01*
X171562882Y-99502588D01*
X171538990Y-99500235D01*
X171633046Y-99423046D01*
X171711248Y-99327756D01*
X171769358Y-99219041D01*
X171805141Y-99101077D01*
X171817224Y-98978400D01*
X171817224Y-98303400D01*
X171805141Y-98180723D01*
X171769358Y-98062759D01*
X171711248Y-97954044D01*
X171633046Y-97858754D01*
X171537756Y-97780552D01*
X171429041Y-97722442D01*
X171311077Y-97686659D01*
X171188400Y-97674576D01*
X171153900Y-97674576D01*
X171153900Y-97180685D01*
X180206924Y-106233710D01*
X180015033Y-106361927D01*
X179844127Y-106532833D01*
X179709847Y-106733798D01*
X179617353Y-106957097D01*
X179570200Y-107194151D01*
X179570200Y-107435849D01*
X179617353Y-107672903D01*
X179709847Y-107896202D01*
X179844127Y-108097167D01*
X180015033Y-108268073D01*
X180215998Y-108402353D01*
X180439297Y-108494847D01*
X180676351Y-108542000D01*
X180918049Y-108542000D01*
X181155103Y-108494847D01*
X181378402Y-108402353D01*
X181579367Y-108268073D01*
X181750273Y-108097167D01*
X181884553Y-107896202D01*
X181977047Y-107672903D01*
X182024200Y-107435849D01*
X182024200Y-107194151D01*
X181977047Y-106957097D01*
X181884553Y-106733798D01*
X181750273Y-106532833D01*
X181579367Y-106361927D01*
X181479203Y-106295000D01*
X181694240Y-106295000D01*
X182215634Y-106816395D01*
X182157353Y-106957097D01*
X182110200Y-107194151D01*
X182110200Y-107435849D01*
X182157353Y-107672903D01*
X182249847Y-107896202D01*
X182384127Y-108097167D01*
X182555033Y-108268073D01*
X182755998Y-108402353D01*
X182979297Y-108494847D01*
X183216351Y-108542000D01*
X183458049Y-108542000D01*
X183695103Y-108494847D01*
X183918402Y-108402353D01*
X184119367Y-108268073D01*
X184290273Y-108097167D01*
X184424553Y-107896202D01*
X184517047Y-107672903D01*
X184564200Y-107435849D01*
X184564200Y-107194151D01*
X184517047Y-106957097D01*
X184424553Y-106733798D01*
X184290273Y-106532833D01*
X184119367Y-106361927D01*
X183918402Y-106227647D01*
X183695103Y-106135153D01*
X183458049Y-106088000D01*
X183216351Y-106088000D01*
X182979297Y-106135153D01*
X182838595Y-106193434D01*
X182686150Y-106040990D01*
X183980230Y-106040990D01*
X184755634Y-106816395D01*
X184697353Y-106957097D01*
X184650200Y-107194151D01*
X184650200Y-107435849D01*
X184697353Y-107672903D01*
X184789847Y-107896202D01*
X184924127Y-108097167D01*
X185095033Y-108268073D01*
X185295998Y-108402353D01*
X185519297Y-108494847D01*
X185756351Y-108542000D01*
X185998049Y-108542000D01*
X186235103Y-108494847D01*
X186458402Y-108402353D01*
X186659367Y-108268073D01*
X186830273Y-108097167D01*
X186964553Y-107896202D01*
X187057047Y-107672903D01*
X187104200Y-107435849D01*
X187104200Y-107194151D01*
X187057047Y-106957097D01*
X186964553Y-106733798D01*
X186830273Y-106532833D01*
X186659367Y-106361927D01*
X186458402Y-106227647D01*
X186235103Y-106135153D01*
X185998049Y-106088000D01*
X185756351Y-106088000D01*
X185519297Y-106135153D01*
X185378595Y-106193434D01*
X184553071Y-105367911D01*
X185847151Y-105367911D01*
X187295634Y-106816395D01*
X187237353Y-106957097D01*
X187190200Y-107194151D01*
X187190200Y-107435849D01*
X187237353Y-107672903D01*
X187329847Y-107896202D01*
X187464127Y-108097167D01*
X187635033Y-108268073D01*
X187835998Y-108402353D01*
X188059297Y-108494847D01*
X188296351Y-108542000D01*
X188538049Y-108542000D01*
X188775103Y-108494847D01*
X188998402Y-108402353D01*
X189199367Y-108268073D01*
X189370273Y-108097167D01*
X189504553Y-107896202D01*
X189597047Y-107672903D01*
X189644200Y-107435849D01*
X189644200Y-107194151D01*
X189597047Y-106957097D01*
X189504553Y-106733798D01*
X189370273Y-106532833D01*
X189199367Y-106361927D01*
X188998402Y-106227647D01*
X188775103Y-106135153D01*
X188538049Y-106088000D01*
X188296351Y-106088000D01*
X188059297Y-106135153D01*
X187918595Y-106193434D01*
X186839060Y-105113900D01*
X188133140Y-105113900D01*
X189835634Y-106816395D01*
X189777353Y-106957097D01*
X189730200Y-107194151D01*
X189730200Y-107435849D01*
X189777353Y-107672903D01*
X189869847Y-107896202D01*
X190004127Y-108097167D01*
X190175033Y-108268073D01*
X190375998Y-108402353D01*
X190599297Y-108494847D01*
X190836351Y-108542000D01*
X191078049Y-108542000D01*
X191315103Y-108494847D01*
X191538402Y-108402353D01*
X191739367Y-108268073D01*
X191910273Y-108097167D01*
X192044553Y-107896202D01*
X192137047Y-107672903D01*
X192184200Y-107435849D01*
X192184200Y-107194151D01*
X192137047Y-106957097D01*
X192044553Y-106733798D01*
X191910273Y-106532833D01*
X191739367Y-106361927D01*
X191538402Y-106227647D01*
X191315103Y-106135153D01*
X191078049Y-106088000D01*
X190836351Y-106088000D01*
X190599297Y-106135153D01*
X190458595Y-106193434D01*
X188642382Y-104377222D01*
X188628587Y-104360413D01*
X188561513Y-104305366D01*
X188484988Y-104264462D01*
X188401953Y-104239274D01*
X188337236Y-104232900D01*
X188337229Y-104232900D01*
X188315600Y-104230770D01*
X188293971Y-104232900D01*
X181101209Y-104232900D01*
X177605609Y-100737300D01*
X190807876Y-100737300D01*
X190807876Y-102437300D01*
X190815155Y-102511205D01*
X190836712Y-102582270D01*
X190871719Y-102647763D01*
X190918831Y-102705169D01*
X190976237Y-102752281D01*
X191041730Y-102787288D01*
X191112795Y-102808845D01*
X191186700Y-102816124D01*
X192886700Y-102816124D01*
X192960605Y-102808845D01*
X193031670Y-102787288D01*
X193097163Y-102752281D01*
X193154569Y-102705169D01*
X193201681Y-102647763D01*
X193236688Y-102582270D01*
X193258245Y-102511205D01*
X193265524Y-102437300D01*
X193265524Y-100737300D01*
X193258245Y-100663395D01*
X193236688Y-100592330D01*
X193201681Y-100526837D01*
X193154569Y-100469431D01*
X193097163Y-100422319D01*
X193031670Y-100387312D01*
X192960605Y-100365755D01*
X192886700Y-100358476D01*
X191186700Y-100358476D01*
X191112795Y-100365755D01*
X191041730Y-100387312D01*
X190976237Y-100422319D01*
X190918831Y-100469431D01*
X190871719Y-100526837D01*
X190836712Y-100592330D01*
X190815155Y-100663395D01*
X190807876Y-100737300D01*
X177605609Y-100737300D01*
X173047077Y-96178769D01*
X173052082Y-96169404D01*
X173076484Y-96088959D01*
X173084724Y-96005300D01*
X173084724Y-95954576D01*
X173130900Y-95959124D01*
X173830900Y-95959124D01*
X173914559Y-95950884D01*
X173995004Y-95926482D01*
X174005634Y-95920800D01*
X176996940Y-95920800D01*
X180419623Y-99343484D01*
X180433413Y-99360287D01*
X180450216Y-99374077D01*
X180450218Y-99374079D01*
X180500487Y-99415334D01*
X180577012Y-99456238D01*
X180660047Y-99481426D01*
X180724764Y-99487800D01*
X180724771Y-99487800D01*
X180746400Y-99489930D01*
X180768029Y-99487800D01*
X190891066Y-99487800D01*
X190949347Y-99628502D01*
X191083627Y-99829467D01*
X191254533Y-100000373D01*
X191455498Y-100134653D01*
X191678797Y-100227147D01*
X191915851Y-100274300D01*
X192157549Y-100274300D01*
X192394603Y-100227147D01*
X192617902Y-100134653D01*
X192818867Y-100000373D01*
X192989773Y-99829467D01*
X193124053Y-99628502D01*
X193216547Y-99405203D01*
X193263700Y-99168149D01*
X193263700Y-98926451D01*
X193216547Y-98689397D01*
X193124053Y-98466098D01*
X192989773Y-98265133D01*
X192818867Y-98094227D01*
X192617902Y-97959947D01*
X192394603Y-97867453D01*
X192157549Y-97820300D01*
X191915851Y-97820300D01*
X191678797Y-97867453D01*
X191455498Y-97959947D01*
X191254533Y-98094227D01*
X191083627Y-98265133D01*
X190949347Y-98466098D01*
X190891066Y-98606800D01*
X180928861Y-98606800D01*
X177892860Y-95570800D01*
X179085340Y-95570800D01*
X180318023Y-96803484D01*
X180331813Y-96820287D01*
X180348616Y-96834077D01*
X180348618Y-96834079D01*
X180387399Y-96865906D01*
X180398887Y-96875334D01*
X180475412Y-96916238D01*
X180558447Y-96941426D01*
X180623164Y-96947800D01*
X180623170Y-96947800D01*
X180644799Y-96949930D01*
X180666428Y-96947800D01*
X190891066Y-96947800D01*
X190949347Y-97088502D01*
X191083627Y-97289467D01*
X191254533Y-97460373D01*
X191455498Y-97594653D01*
X191678797Y-97687147D01*
X191915851Y-97734300D01*
X192157549Y-97734300D01*
X192394603Y-97687147D01*
X192617902Y-97594653D01*
X192818867Y-97460373D01*
X192989773Y-97289467D01*
X193124053Y-97088502D01*
X193216547Y-96865203D01*
X193263700Y-96628149D01*
X193263700Y-96386451D01*
X193216547Y-96149397D01*
X193124053Y-95926098D01*
X192989773Y-95725133D01*
X192818867Y-95554227D01*
X192617902Y-95419947D01*
X192394603Y-95327453D01*
X192157549Y-95280300D01*
X191915851Y-95280300D01*
X191678797Y-95327453D01*
X191455498Y-95419947D01*
X191254533Y-95554227D01*
X191083627Y-95725133D01*
X190949347Y-95926098D01*
X190891066Y-96066800D01*
X180827261Y-96066800D01*
X179981260Y-95220800D01*
X188928771Y-95220800D01*
X188950400Y-95222930D01*
X188972029Y-95220800D01*
X188972036Y-95220800D01*
X189036753Y-95214426D01*
X189119788Y-95189238D01*
X189196313Y-95148334D01*
X189263387Y-95093287D01*
X189277182Y-95076478D01*
X189704561Y-94649100D01*
X191016564Y-94649100D01*
X191083627Y-94749467D01*
X191254533Y-94920373D01*
X191455498Y-95054653D01*
X191678797Y-95147147D01*
X191915851Y-95194300D01*
X192157549Y-95194300D01*
X192394603Y-95147147D01*
X192617902Y-95054653D01*
X192818867Y-94920373D01*
X192989773Y-94749467D01*
X193124053Y-94548502D01*
X193216547Y-94325203D01*
X193263700Y-94088149D01*
X193263700Y-93846451D01*
X193216547Y-93609397D01*
X193124053Y-93386098D01*
X192989773Y-93185133D01*
X192818867Y-93014227D01*
X192617902Y-92879947D01*
X192394603Y-92787453D01*
X192157549Y-92740300D01*
X191915851Y-92740300D01*
X191678797Y-92787453D01*
X191455498Y-92879947D01*
X191254533Y-93014227D01*
X191083627Y-93185133D01*
X190949347Y-93386098D01*
X190856853Y-93609397D01*
X190825285Y-93768100D01*
X190318860Y-93768100D01*
X191538095Y-92548866D01*
X191678797Y-92607147D01*
X191915851Y-92654300D01*
X192157549Y-92654300D01*
X192394603Y-92607147D01*
X192617902Y-92514653D01*
X192818867Y-92380373D01*
X192989773Y-92209467D01*
X193124053Y-92008502D01*
X193216547Y-91785203D01*
X193263700Y-91548149D01*
X193263700Y-91306451D01*
X193216547Y-91069397D01*
X193124053Y-90846098D01*
X192989773Y-90645133D01*
X192818867Y-90474227D01*
X192617902Y-90339947D01*
X192394603Y-90247453D01*
X192157549Y-90200300D01*
X191915851Y-90200300D01*
X191678797Y-90247453D01*
X191455498Y-90339947D01*
X191254533Y-90474227D01*
X191083627Y-90645133D01*
X190949347Y-90846098D01*
X190856853Y-91069397D01*
X190809700Y-91306451D01*
X190809700Y-91548149D01*
X190856853Y-91785203D01*
X190915134Y-91925905D01*
X189784140Y-93056900D01*
X188527729Y-93056900D01*
X188506100Y-93054770D01*
X188484471Y-93056900D01*
X188484464Y-93056900D01*
X188419747Y-93063274D01*
X188336712Y-93088462D01*
X188260187Y-93129366D01*
X188214087Y-93167200D01*
X188193113Y-93184413D01*
X188179322Y-93201217D01*
X187390740Y-93989800D01*
X186553860Y-93989800D01*
X190999740Y-89543921D01*
X191083627Y-89669467D01*
X191254533Y-89840373D01*
X191455498Y-89974653D01*
X191678797Y-90067147D01*
X191915851Y-90114300D01*
X192157549Y-90114300D01*
X192394603Y-90067147D01*
X192617902Y-89974653D01*
X192818867Y-89840373D01*
X192989773Y-89669467D01*
X193124053Y-89468502D01*
X193216547Y-89245203D01*
X193263700Y-89008149D01*
X193263700Y-88766451D01*
X193216547Y-88529397D01*
X193124053Y-88306098D01*
X192989773Y-88105133D01*
X192818867Y-87934227D01*
X192617902Y-87799947D01*
X192394603Y-87707453D01*
X192157549Y-87660300D01*
X191915851Y-87660300D01*
X191678797Y-87707453D01*
X191455498Y-87799947D01*
X191254533Y-87934227D01*
X191083627Y-88105133D01*
X190949347Y-88306098D01*
X190880002Y-88473512D01*
X190864012Y-88478362D01*
X190787487Y-88519266D01*
X190775143Y-88529397D01*
X190720413Y-88574313D01*
X190706623Y-88591116D01*
X185657940Y-93639800D01*
X184528960Y-93639800D01*
X191065870Y-87102891D01*
X191083627Y-87129467D01*
X191254533Y-87300373D01*
X191455498Y-87434653D01*
X191678797Y-87527147D01*
X191915851Y-87574300D01*
X192157549Y-87574300D01*
X192394603Y-87527147D01*
X192617902Y-87434653D01*
X192818867Y-87300373D01*
X192989773Y-87129467D01*
X193124053Y-86928502D01*
X193216547Y-86705203D01*
X193263700Y-86468149D01*
X193263700Y-86226451D01*
X193216547Y-85989397D01*
X193124053Y-85766098D01*
X192989773Y-85565133D01*
X192818867Y-85394227D01*
X192617902Y-85259947D01*
X192394603Y-85167453D01*
X192157549Y-85120300D01*
X191915851Y-85120300D01*
X191678797Y-85167453D01*
X191455498Y-85259947D01*
X191254533Y-85394227D01*
X191083627Y-85565133D01*
X190949347Y-85766098D01*
X190856853Y-85989397D01*
X190837836Y-86085003D01*
X190229311Y-86693528D01*
X190229311Y-86237649D01*
X191538095Y-84928866D01*
X191678797Y-84987147D01*
X191915851Y-85034300D01*
X192157549Y-85034300D01*
X192394603Y-84987147D01*
X192617902Y-84894653D01*
X192818867Y-84760373D01*
X192989773Y-84589467D01*
X193124053Y-84388502D01*
X193216547Y-84165203D01*
X193263700Y-83928149D01*
X193263700Y-83686451D01*
X193216547Y-83449397D01*
X193124053Y-83226098D01*
X192989773Y-83025133D01*
X192818867Y-82854227D01*
X192617902Y-82719947D01*
X192394603Y-82627453D01*
X192157549Y-82580300D01*
X191915851Y-82580300D01*
X191678797Y-82627453D01*
X191455498Y-82719947D01*
X191254533Y-82854227D01*
X191083627Y-83025133D01*
X190949347Y-83226098D01*
X190856853Y-83449397D01*
X190809700Y-83686451D01*
X190809700Y-83928149D01*
X190856853Y-84165203D01*
X190915134Y-84305905D01*
X189975300Y-85245740D01*
X189975300Y-82033960D01*
X190301461Y-81707800D01*
X190891066Y-81707800D01*
X190949347Y-81848502D01*
X191083627Y-82049467D01*
X191254533Y-82220373D01*
X191455498Y-82354653D01*
X191678797Y-82447147D01*
X191915851Y-82494300D01*
X192157549Y-82494300D01*
X192394603Y-82447147D01*
X192617902Y-82354653D01*
X192818867Y-82220373D01*
X192989773Y-82049467D01*
X193124053Y-81848502D01*
X193216547Y-81625203D01*
X193263700Y-81388149D01*
X193263700Y-81146451D01*
X193216547Y-80909397D01*
X193124053Y-80686098D01*
X192989773Y-80485133D01*
X192818867Y-80314227D01*
X192617902Y-80179947D01*
X192394603Y-80087453D01*
X192157549Y-80040300D01*
X191915851Y-80040300D01*
X191678797Y-80087453D01*
X191455498Y-80179947D01*
X191254533Y-80314227D01*
X191083627Y-80485133D01*
X190949347Y-80686098D01*
X190891066Y-80826800D01*
X190560161Y-80826800D01*
X191538095Y-79848866D01*
X191678797Y-79907147D01*
X191915851Y-79954300D01*
X192157549Y-79954300D01*
X192394603Y-79907147D01*
X192617902Y-79814653D01*
X192818867Y-79680373D01*
X192989773Y-79509467D01*
X193124053Y-79308502D01*
X193216547Y-79085203D01*
X193263700Y-78848149D01*
X193263700Y-78606451D01*
X193216547Y-78369397D01*
X193124053Y-78146098D01*
X192989773Y-77945133D01*
X192818867Y-77774227D01*
X192617902Y-77639947D01*
X192394603Y-77547453D01*
X192157549Y-77500300D01*
X191915851Y-77500300D01*
X191678797Y-77547453D01*
X191455498Y-77639947D01*
X191254533Y-77774227D01*
X191083627Y-77945133D01*
X190949347Y-78146098D01*
X190856853Y-78369397D01*
X190809700Y-78606451D01*
X190809700Y-78848149D01*
X190856853Y-79085203D01*
X190915134Y-79225905D01*
X186711390Y-83429650D01*
X186711390Y-82135570D01*
X191538095Y-77308866D01*
X191678797Y-77367147D01*
X191915851Y-77414300D01*
X192157549Y-77414300D01*
X192394603Y-77367147D01*
X192617902Y-77274653D01*
X192818867Y-77140373D01*
X192989773Y-76969467D01*
X193124053Y-76768502D01*
X193216547Y-76545203D01*
X193263700Y-76308149D01*
X193263700Y-76066451D01*
X193216547Y-75829397D01*
X193124053Y-75606098D01*
X192989773Y-75405133D01*
X192818867Y-75234227D01*
X192617902Y-75099947D01*
X192394603Y-75007453D01*
X192157549Y-74960300D01*
X191915851Y-74960300D01*
X191678797Y-75007453D01*
X191455498Y-75099947D01*
X191254533Y-75234227D01*
X191083627Y-75405133D01*
X190949347Y-75606098D01*
X190856853Y-75829397D01*
X190809700Y-76066451D01*
X190809700Y-76308149D01*
X190856853Y-76545203D01*
X190915134Y-76685905D01*
X185974707Y-81626333D01*
X185957904Y-81640123D01*
X185944114Y-81656926D01*
X185944111Y-81656929D01*
X185902856Y-81707198D01*
X185861952Y-81783723D01*
X185836764Y-81866758D01*
X185828260Y-81953110D01*
X185830391Y-81974749D01*
X185830390Y-86837949D01*
X184831800Y-87836539D01*
X184831800Y-80027360D01*
X190771361Y-74087800D01*
X190891066Y-74087800D01*
X190949347Y-74228502D01*
X191083627Y-74429467D01*
X191254533Y-74600373D01*
X191455498Y-74734653D01*
X191678797Y-74827147D01*
X191915851Y-74874300D01*
X192157549Y-74874300D01*
X192394603Y-74827147D01*
X192617902Y-74734653D01*
X192818867Y-74600373D01*
X192989773Y-74429467D01*
X193124053Y-74228502D01*
X193216547Y-74005203D01*
X193263700Y-73768149D01*
X193263700Y-73526451D01*
X193216547Y-73289397D01*
X193124053Y-73066098D01*
X192989773Y-72865133D01*
X192818867Y-72694227D01*
X192617902Y-72559947D01*
X192394603Y-72467453D01*
X192157549Y-72420300D01*
X191915851Y-72420300D01*
X191678797Y-72467453D01*
X191455498Y-72559947D01*
X191254533Y-72694227D01*
X191083627Y-72865133D01*
X190949347Y-73066098D01*
X190891066Y-73206800D01*
X190610529Y-73206800D01*
X190588900Y-73204670D01*
X190567271Y-73206800D01*
X190567264Y-73206800D01*
X190502547Y-73213174D01*
X190419512Y-73238362D01*
X190342987Y-73279266D01*
X190330643Y-73289397D01*
X190275913Y-73334313D01*
X190262123Y-73351116D01*
X184095122Y-79518118D01*
X184078313Y-79531913D01*
X184023266Y-79598988D01*
X183982362Y-79675513D01*
X183957174Y-79758548D01*
X183950800Y-79823265D01*
X183950800Y-79823271D01*
X183948670Y-79844900D01*
X183950800Y-79866529D01*
X183950801Y-87743640D01*
X182139400Y-89555041D01*
X182139400Y-79024060D01*
X189615661Y-71547800D01*
X190891066Y-71547800D01*
X190949347Y-71688502D01*
X191083627Y-71889467D01*
X191254533Y-72060373D01*
X191455498Y-72194653D01*
X191678797Y-72287147D01*
X191915851Y-72334300D01*
X192157549Y-72334300D01*
X192394603Y-72287147D01*
X192617902Y-72194653D01*
X192818867Y-72060373D01*
X192989773Y-71889467D01*
X193124053Y-71688502D01*
X193216547Y-71465203D01*
X193263700Y-71228149D01*
X193263700Y-70986451D01*
X193216547Y-70749397D01*
X193124053Y-70526098D01*
X192989773Y-70325133D01*
X192818867Y-70154227D01*
X192617902Y-70019947D01*
X192394603Y-69927453D01*
X192157549Y-69880300D01*
X191915851Y-69880300D01*
X191678797Y-69927453D01*
X191455498Y-70019947D01*
X191254533Y-70154227D01*
X191083627Y-70325133D01*
X190949347Y-70526098D01*
X190891066Y-70666800D01*
X189454829Y-70666800D01*
X189433200Y-70664670D01*
X189411571Y-70666800D01*
X189411564Y-70666800D01*
X189352237Y-70672643D01*
X190927975Y-69096905D01*
X190949347Y-69148502D01*
X191083627Y-69349467D01*
X191254533Y-69520373D01*
X191455498Y-69654653D01*
X191678797Y-69747147D01*
X191915851Y-69794300D01*
X192157549Y-69794300D01*
X192394603Y-69747147D01*
X192617902Y-69654653D01*
X192818867Y-69520373D01*
X192989773Y-69349467D01*
X193124053Y-69148502D01*
X193216547Y-68925203D01*
X193263700Y-68688149D01*
X193263700Y-68446451D01*
X193216547Y-68209397D01*
X193124053Y-67986098D01*
X192989773Y-67785133D01*
X192818867Y-67614227D01*
X192617902Y-67479947D01*
X192394603Y-67387453D01*
X192157549Y-67340300D01*
X191915851Y-67340300D01*
X191678797Y-67387453D01*
X191455498Y-67479947D01*
X191254533Y-67614227D01*
X191083627Y-67785133D01*
X190949347Y-67986098D01*
X190891066Y-68126800D01*
X190856247Y-68126800D01*
X190834618Y-68124670D01*
X190812989Y-68126800D01*
X190812983Y-68126800D01*
X190748266Y-68133174D01*
X190665231Y-68158362D01*
X190588706Y-68199266D01*
X190576362Y-68209397D01*
X190521632Y-68254313D01*
X190507842Y-68271116D01*
X181529800Y-77249159D01*
X181529800Y-70465160D01*
X182834498Y-69160463D01*
X182839555Y-69211805D01*
X182861112Y-69282870D01*
X182896119Y-69348363D01*
X182943231Y-69405769D01*
X183000637Y-69452881D01*
X183066130Y-69487888D01*
X183137195Y-69509445D01*
X183211100Y-69516724D01*
X184911100Y-69516724D01*
X184985005Y-69509445D01*
X185056070Y-69487888D01*
X185121563Y-69452881D01*
X185178969Y-69405769D01*
X185226081Y-69348363D01*
X185261088Y-69282870D01*
X185282645Y-69211805D01*
X185289924Y-69137900D01*
X185289924Y-67437900D01*
X185282645Y-67363995D01*
X185261088Y-67292930D01*
X185226081Y-67227437D01*
X185178969Y-67170031D01*
X185121563Y-67122919D01*
X185056070Y-67087912D01*
X184985005Y-67066355D01*
X184911100Y-67059076D01*
X183211100Y-67059076D01*
X183137195Y-67066355D01*
X183066130Y-67087912D01*
X183000637Y-67122919D01*
X182943231Y-67170031D01*
X182896119Y-67227437D01*
X182861112Y-67292930D01*
X182839555Y-67363995D01*
X182832276Y-67437900D01*
X182832276Y-67924717D01*
X182825843Y-67929997D01*
X182771113Y-67974913D01*
X182757323Y-67991716D01*
X182720540Y-68028499D01*
X182700947Y-67929997D01*
X182608453Y-67706698D01*
X182474173Y-67505733D01*
X182303267Y-67334827D01*
X182102302Y-67200547D01*
X181879003Y-67108053D01*
X181641949Y-67060900D01*
X181400251Y-67060900D01*
X181163197Y-67108053D01*
X180939898Y-67200547D01*
X180738933Y-67334827D01*
X180568027Y-67505733D01*
X180433747Y-67706698D01*
X180341253Y-67929997D01*
X180294100Y-68167051D01*
X180294100Y-68408749D01*
X180341253Y-68645803D01*
X180399534Y-68786505D01*
X179472400Y-69713640D01*
X179472400Y-69412492D01*
X179562302Y-69375253D01*
X179763267Y-69240973D01*
X179934173Y-69070067D01*
X180068453Y-68869102D01*
X180160947Y-68645803D01*
X180208100Y-68408749D01*
X180208100Y-68167051D01*
X180160947Y-67929997D01*
X180068453Y-67706698D01*
X179934173Y-67505733D01*
X179763267Y-67334827D01*
X179562302Y-67200547D01*
X179339003Y-67108053D01*
X179101949Y-67060900D01*
X178860251Y-67060900D01*
X178623197Y-67108053D01*
X178399898Y-67200547D01*
X178198933Y-67334827D01*
X178028027Y-67505733D01*
X177893747Y-67706698D01*
X177801253Y-67929997D01*
X177754100Y-68167051D01*
X177754100Y-68408749D01*
X177801253Y-68645803D01*
X177893747Y-68869102D01*
X178028027Y-69070067D01*
X178198933Y-69240973D01*
X178399898Y-69375253D01*
X178591401Y-69454577D01*
X178591400Y-85720339D01*
X175306140Y-89005600D01*
X174550738Y-89005600D01*
X178083484Y-85472855D01*
X178100287Y-85459065D01*
X178116877Y-85438851D01*
X178155334Y-85391991D01*
X178196238Y-85315466D01*
X178221426Y-85232431D01*
X178226385Y-85182080D01*
X178227800Y-85167714D01*
X178227800Y-85167708D01*
X178229930Y-85146079D01*
X178227800Y-85124450D01*
X178227800Y-71827425D01*
X178229930Y-71805799D01*
X178227800Y-71784173D01*
X178227800Y-71784164D01*
X178221426Y-71719447D01*
X178196238Y-71636412D01*
X178155334Y-71559887D01*
X178100287Y-71492813D01*
X178083485Y-71479024D01*
X176881600Y-70277140D01*
X176881600Y-69433534D01*
X177022302Y-69375253D01*
X177223267Y-69240973D01*
X177394173Y-69070067D01*
X177528453Y-68869102D01*
X177620947Y-68645803D01*
X177668100Y-68408749D01*
X177668100Y-68167051D01*
X177620947Y-67929997D01*
X177528453Y-67706698D01*
X177394173Y-67505733D01*
X177223267Y-67334827D01*
X177022302Y-67200547D01*
X176799003Y-67108053D01*
X176561949Y-67060900D01*
X176320251Y-67060900D01*
X176083197Y-67108053D01*
X175859898Y-67200547D01*
X175658933Y-67334827D01*
X175488027Y-67505733D01*
X175353747Y-67706698D01*
X175304869Y-67824698D01*
X175245257Y-67656648D01*
X175096278Y-67406545D01*
X174901369Y-67190312D01*
X174668020Y-67016259D01*
X174405199Y-66891075D01*
X174257990Y-66846424D01*
X174028100Y-66967745D01*
X174028100Y-68160900D01*
X174048100Y-68160900D01*
X174048100Y-68414900D01*
X174028100Y-68414900D01*
X174028100Y-69608055D01*
X174257990Y-69729376D01*
X174405199Y-69684725D01*
X174668020Y-69559541D01*
X174901369Y-69385488D01*
X175096278Y-69169255D01*
X175245257Y-68919152D01*
X175304869Y-68751102D01*
X175353747Y-68869102D01*
X175488027Y-69070067D01*
X175658933Y-69240973D01*
X175859898Y-69375253D01*
X176000601Y-69433534D01*
X176000601Y-70437961D01*
X175998470Y-70459600D01*
X176006974Y-70545952D01*
X176032162Y-70628987D01*
X176073066Y-70705512D01*
X176100768Y-70739266D01*
X176128114Y-70772587D01*
X176144917Y-70786377D01*
X177346800Y-71988261D01*
X177346801Y-84963616D01*
X175157324Y-87153094D01*
X175157324Y-87106900D01*
X175145241Y-86984223D01*
X175109458Y-86866259D01*
X175051348Y-86757544D01*
X174973146Y-86662254D01*
X174879090Y-86585065D01*
X174902982Y-86582712D01*
X175022680Y-86546402D01*
X175132994Y-86487437D01*
X175229685Y-86408085D01*
X175309037Y-86311394D01*
X175368002Y-86201080D01*
X175404312Y-86081382D01*
X175416572Y-85956900D01*
X175413500Y-85655150D01*
X175254750Y-85496400D01*
X174180500Y-85496400D01*
X174180500Y-85516400D01*
X173926500Y-85516400D01*
X173926500Y-85496400D01*
X172852250Y-85496400D01*
X172693500Y-85655150D01*
X172690428Y-85956900D01*
X172702688Y-86081382D01*
X172738998Y-86201080D01*
X172797963Y-86311394D01*
X172877315Y-86408085D01*
X172974006Y-86487437D01*
X173084320Y-86546402D01*
X173204018Y-86582712D01*
X173227910Y-86585065D01*
X173133854Y-86662254D01*
X173055652Y-86757544D01*
X172997542Y-86866259D01*
X172961759Y-86984223D01*
X172949676Y-87106900D01*
X172949676Y-87640963D01*
X171851740Y-88738900D01*
X171560528Y-88738900D01*
X171538899Y-88736770D01*
X171517270Y-88738900D01*
X171517264Y-88738900D01*
X171467122Y-88743838D01*
X171555683Y-88655278D01*
X171572487Y-88641487D01*
X171602135Y-88605362D01*
X171627534Y-88574413D01*
X171668438Y-88497888D01*
X171693626Y-88414853D01*
X171695223Y-88398641D01*
X171700000Y-88350136D01*
X171700000Y-88350129D01*
X171702130Y-88328500D01*
X171700000Y-88306871D01*
X171700000Y-88088679D01*
X171719677Y-88086741D01*
X171837641Y-88050958D01*
X171946356Y-87992848D01*
X172041646Y-87914646D01*
X172119848Y-87819356D01*
X172177958Y-87710641D01*
X172213741Y-87592677D01*
X172225824Y-87470000D01*
X172225824Y-86520000D01*
X172213741Y-86397323D01*
X172177958Y-86279359D01*
X172119848Y-86170644D01*
X172041646Y-86075354D01*
X171946356Y-85997152D01*
X171886500Y-85965158D01*
X171886500Y-85316724D01*
X172048100Y-85316724D01*
X172122005Y-85309445D01*
X172193070Y-85287888D01*
X172258563Y-85252881D01*
X172315969Y-85205769D01*
X172363081Y-85148363D01*
X172398088Y-85082870D01*
X172419645Y-85011805D01*
X172426924Y-84937900D01*
X172426924Y-84781900D01*
X172690428Y-84781900D01*
X172693500Y-85083650D01*
X172852250Y-85242400D01*
X173926500Y-85242400D01*
X173926500Y-84305650D01*
X174180500Y-84305650D01*
X174180500Y-85242400D01*
X175254750Y-85242400D01*
X175413500Y-85083650D01*
X175416572Y-84781900D01*
X175404312Y-84657418D01*
X175368002Y-84537720D01*
X175309037Y-84427406D01*
X175229685Y-84330715D01*
X175132994Y-84251363D01*
X175022680Y-84192398D01*
X174902982Y-84156088D01*
X174778500Y-84143828D01*
X174339250Y-84146900D01*
X174180500Y-84305650D01*
X173926500Y-84305650D01*
X173767750Y-84146900D01*
X173328500Y-84143828D01*
X173204018Y-84156088D01*
X173084320Y-84192398D01*
X172974006Y-84251363D01*
X172877315Y-84330715D01*
X172797963Y-84427406D01*
X172738998Y-84537720D01*
X172702688Y-84657418D01*
X172690428Y-84781900D01*
X172426924Y-84781900D01*
X172426924Y-82837900D01*
X172419645Y-82763995D01*
X172398088Y-82692930D01*
X172363081Y-82627437D01*
X172341473Y-82601107D01*
X172402594Y-82568437D01*
X172499285Y-82489085D01*
X172578637Y-82392394D01*
X172637602Y-82282080D01*
X172673912Y-82162382D01*
X172686172Y-82037900D01*
X172683100Y-81273650D01*
X172524350Y-81114900D01*
X171275100Y-81114900D01*
X171275100Y-81134900D01*
X171021100Y-81134900D01*
X171021100Y-81114900D01*
X171001100Y-81114900D01*
X171001100Y-80860900D01*
X171021100Y-80860900D01*
X171021100Y-79461650D01*
X171275100Y-79461650D01*
X171275100Y-80860900D01*
X172524350Y-80860900D01*
X172683100Y-80702150D01*
X172686172Y-79937900D01*
X172673912Y-79813418D01*
X172637602Y-79693720D01*
X172578637Y-79583406D01*
X172499285Y-79486715D01*
X172402594Y-79407363D01*
X172292280Y-79348398D01*
X172172582Y-79312088D01*
X172048100Y-79299828D01*
X171433850Y-79302900D01*
X171275100Y-79461650D01*
X171021100Y-79461650D01*
X170862350Y-79302900D01*
X170248100Y-79299828D01*
X170123618Y-79312088D01*
X170003920Y-79348398D01*
X169893606Y-79407363D01*
X169796915Y-79486715D01*
X169738200Y-79558260D01*
X169738200Y-78795386D01*
X169768346Y-78770646D01*
X169845535Y-78676590D01*
X169847888Y-78700482D01*
X169884198Y-78820180D01*
X169943163Y-78930494D01*
X170022515Y-79027185D01*
X170119206Y-79106537D01*
X170229520Y-79165502D01*
X170349218Y-79201812D01*
X170473700Y-79214072D01*
X170775450Y-79211000D01*
X170934200Y-79052250D01*
X170934200Y-77978000D01*
X171188200Y-77978000D01*
X171188200Y-79052250D01*
X171346950Y-79211000D01*
X171648700Y-79214072D01*
X171773182Y-79201812D01*
X171892880Y-79165502D01*
X172003194Y-79106537D01*
X172099885Y-79027185D01*
X172179237Y-78930494D01*
X172238202Y-78820180D01*
X172274512Y-78700482D01*
X172286772Y-78576000D01*
X172283700Y-78136750D01*
X172124950Y-77978000D01*
X171188200Y-77978000D01*
X170934200Y-77978000D01*
X170914200Y-77978000D01*
X170914200Y-77724000D01*
X170934200Y-77724000D01*
X170934200Y-76649750D01*
X171188200Y-76649750D01*
X171188200Y-77724000D01*
X172124950Y-77724000D01*
X172283700Y-77565250D01*
X172286772Y-77126000D01*
X172274512Y-77001518D01*
X172238202Y-76881820D01*
X172179237Y-76771506D01*
X172099885Y-76674815D01*
X172003194Y-76595463D01*
X171892880Y-76536498D01*
X171773182Y-76500188D01*
X171648700Y-76487928D01*
X171346950Y-76491000D01*
X171188200Y-76649750D01*
X170934200Y-76649750D01*
X170775450Y-76491000D01*
X170473700Y-76487928D01*
X170349218Y-76500188D01*
X170229520Y-76536498D01*
X170119206Y-76595463D01*
X170022515Y-76674815D01*
X169943163Y-76771506D01*
X169884198Y-76881820D01*
X169847888Y-77001518D01*
X169845535Y-77025410D01*
X169768346Y-76931354D01*
X169673056Y-76853152D01*
X169564341Y-76795042D01*
X169446377Y-76759259D01*
X169323700Y-76747176D01*
X168648700Y-76747176D01*
X168526023Y-76759259D01*
X168408059Y-76795042D01*
X168299344Y-76853152D01*
X168204054Y-76931354D01*
X168125852Y-77026644D01*
X168067742Y-77135359D01*
X168031959Y-77253323D01*
X168019876Y-77376000D01*
X168019876Y-78326000D01*
X168031959Y-78448677D01*
X168067742Y-78566641D01*
X168125852Y-78675356D01*
X168204054Y-78770646D01*
X168234200Y-78795386D01*
X168234201Y-79559076D01*
X168048100Y-79559076D01*
X167974195Y-79566355D01*
X167903130Y-79587912D01*
X167837637Y-79622919D01*
X167780231Y-79670031D01*
X167733119Y-79727437D01*
X167698112Y-79792930D01*
X167676555Y-79863995D01*
X167669276Y-79937900D01*
X167669276Y-80360900D01*
X167607293Y-80360900D01*
X167576499Y-80357867D01*
X167453586Y-80369973D01*
X167417734Y-80380849D01*
X167335397Y-80405825D01*
X167226472Y-80464047D01*
X167130999Y-80542399D01*
X167111362Y-80566327D01*
X166900927Y-80776762D01*
X166876999Y-80796399D01*
X166798647Y-80891873D01*
X166740425Y-81000798D01*
X166719760Y-81068923D01*
X166704573Y-81118988D01*
X166692467Y-81241900D01*
X166695500Y-81272694D01*
X166695501Y-86516116D01*
X164130651Y-83951266D01*
X164134124Y-83916001D01*
X164134124Y-83215999D01*
X164122041Y-83093322D01*
X164086258Y-82975359D01*
X164028148Y-82866644D01*
X163949946Y-82771354D01*
X163854656Y-82693152D01*
X163745941Y-82635042D01*
X163627978Y-82599259D01*
X163505301Y-82587176D01*
X162963188Y-82587176D01*
X161483538Y-81107527D01*
X161463901Y-81083599D01*
X161368428Y-81005247D01*
X161259503Y-80947025D01*
X161141313Y-80911173D01*
X161049194Y-80902100D01*
X161018400Y-80899067D01*
X160987606Y-80902100D01*
X160986342Y-80902100D01*
X160954348Y-80842244D01*
X160876146Y-80746954D01*
X160780856Y-80668752D01*
X160672141Y-80610642D01*
X160554177Y-80574859D01*
X160431500Y-80562776D01*
X159481500Y-80562776D01*
X159358823Y-80574859D01*
X159240859Y-80610642D01*
X159132144Y-80668752D01*
X159036854Y-80746954D01*
X158958652Y-80842244D01*
X158900542Y-80950959D01*
X158864759Y-81068923D01*
X158852676Y-81191600D01*
X158852676Y-81866600D01*
X158864759Y-81989277D01*
X158900542Y-82107241D01*
X158958652Y-82215956D01*
X159036854Y-82311246D01*
X159132144Y-82389448D01*
X159240859Y-82447558D01*
X159358823Y-82483341D01*
X159481500Y-82495424D01*
X160431500Y-82495424D01*
X160554177Y-82483341D01*
X160672141Y-82447558D01*
X160780856Y-82389448D01*
X160876146Y-82311246D01*
X160893134Y-82290546D01*
X161976476Y-83373888D01*
X161976476Y-83916001D01*
X161988559Y-84038678D01*
X162024342Y-84156641D01*
X162082452Y-84265356D01*
X162160654Y-84360646D01*
X162255944Y-84438848D01*
X162364659Y-84496958D01*
X162482622Y-84532741D01*
X162605299Y-84544824D01*
X163478288Y-84544824D01*
X163522316Y-84588852D01*
X163505301Y-84587176D01*
X162605299Y-84587176D01*
X162482622Y-84599259D01*
X162364659Y-84635042D01*
X162255944Y-84693152D01*
X162160654Y-84771354D01*
X162082452Y-84866644D01*
X162043776Y-84939000D01*
X160436000Y-84939000D01*
X160436000Y-84569981D01*
X160554177Y-84558341D01*
X160672141Y-84522558D01*
X160780856Y-84464448D01*
X160876146Y-84386246D01*
X160954348Y-84290956D01*
X161012458Y-84182241D01*
X161048241Y-84064277D01*
X161060324Y-83941600D01*
X161060324Y-83266600D01*
X161048241Y-83143923D01*
X161012458Y-83025959D01*
X160954348Y-82917244D01*
X160876146Y-82821954D01*
X160780856Y-82743752D01*
X160672141Y-82685642D01*
X160554177Y-82649859D01*
X160431500Y-82637776D01*
X159481500Y-82637776D01*
X159358823Y-82649859D01*
X159240859Y-82685642D01*
X159132144Y-82743752D01*
X159036854Y-82821954D01*
X158958652Y-82917244D01*
X158900542Y-83025959D01*
X158864759Y-83143923D01*
X158852676Y-83266600D01*
X158852676Y-83941600D01*
X158864759Y-84064277D01*
X158900542Y-84182241D01*
X158958652Y-84290956D01*
X159036854Y-84386246D01*
X159132144Y-84464448D01*
X159182001Y-84491097D01*
X159182000Y-85025358D01*
X159122144Y-85057352D01*
X159026854Y-85135554D01*
X158949665Y-85229610D01*
X158947312Y-85205718D01*
X158911002Y-85086020D01*
X158852037Y-84975706D01*
X158772685Y-84879015D01*
X158675994Y-84799663D01*
X158565680Y-84740698D01*
X158445982Y-84704388D01*
X158321500Y-84692128D01*
X158019750Y-84695200D01*
X157861000Y-84853950D01*
X157861000Y-85928200D01*
X157881000Y-85928200D01*
X157881000Y-86182200D01*
X157861000Y-86182200D01*
X157861000Y-87256450D01*
X158019750Y-87415200D01*
X158321500Y-87418272D01*
X158445982Y-87406012D01*
X158565680Y-87369702D01*
X158675994Y-87310737D01*
X158772685Y-87231385D01*
X158852037Y-87134694D01*
X158911002Y-87024380D01*
X158947312Y-86904682D01*
X158949665Y-86880790D01*
X159026854Y-86974846D01*
X159122144Y-87053048D01*
X159230859Y-87111158D01*
X159348823Y-87146941D01*
X159471500Y-87159024D01*
X160146500Y-87159024D01*
X160269177Y-87146941D01*
X160387141Y-87111158D01*
X160495856Y-87053048D01*
X160591146Y-86974846D01*
X160669348Y-86879556D01*
X160727458Y-86770841D01*
X160763241Y-86652877D01*
X160775324Y-86530200D01*
X160775324Y-86193000D01*
X162043776Y-86193000D01*
X162082452Y-86265356D01*
X162160654Y-86360646D01*
X162255944Y-86438848D01*
X162364659Y-86496958D01*
X162482622Y-86532741D01*
X162605299Y-86544824D01*
X162614800Y-86544824D01*
X162614800Y-87455971D01*
X162612670Y-87477600D01*
X162614800Y-87499229D01*
X162614800Y-87499235D01*
X162621174Y-87563952D01*
X162646362Y-87646987D01*
X162687266Y-87723512D01*
X162742313Y-87790587D01*
X162759122Y-87804382D01*
X164138220Y-89183481D01*
X164152013Y-89200287D01*
X164168816Y-89214077D01*
X164168818Y-89214079D01*
X164217134Y-89253731D01*
X164219087Y-89255334D01*
X164295612Y-89296238D01*
X164378647Y-89321426D01*
X164443364Y-89327800D01*
X164443371Y-89327800D01*
X164465000Y-89329930D01*
X164486629Y-89327800D01*
X167902040Y-89327800D01*
X168977297Y-90403058D01*
X168977076Y-90405300D01*
X168977076Y-90456024D01*
X168930900Y-90451476D01*
X168230900Y-90451476D01*
X168147241Y-90459716D01*
X168078292Y-90480631D01*
X167747100Y-90149440D01*
X167747100Y-90138570D01*
X167724926Y-90027095D01*
X167681431Y-89922088D01*
X167618285Y-89827584D01*
X167537916Y-89747215D01*
X167443412Y-89684069D01*
X167338405Y-89640574D01*
X167226930Y-89618400D01*
X167113270Y-89618400D01*
X167001795Y-89640574D01*
X166896788Y-89684069D01*
X166802284Y-89747215D01*
X166721915Y-89827584D01*
X166658769Y-89922088D01*
X166615274Y-90027095D01*
X166593100Y-90138570D01*
X166593100Y-90223100D01*
X136805885Y-90223100D01*
X136753599Y-90217950D01*
X136701313Y-90223100D01*
X136701311Y-90223100D01*
X136544922Y-90238503D01*
X136511966Y-90248500D01*
X134102466Y-90248500D01*
X134095078Y-90246259D01*
X133972401Y-90234176D01*
X133322399Y-90234176D01*
X133199722Y-90246259D01*
X133081759Y-90282042D01*
X132973044Y-90340152D01*
X132877754Y-90418354D01*
X132799552Y-90513644D01*
X132741442Y-90622359D01*
X132705659Y-90740322D01*
X132696438Y-90833944D01*
X132659172Y-90903663D01*
X132622400Y-91024885D01*
X132585628Y-90903663D01*
X132548362Y-90833944D01*
X132539141Y-90740322D01*
X132503358Y-90622359D01*
X132445248Y-90513644D01*
X132367046Y-90418354D01*
X132271756Y-90340152D01*
X132163041Y-90282042D01*
X132045078Y-90246259D01*
X131922401Y-90234176D01*
X131272399Y-90234176D01*
X131149722Y-90246259D01*
X131142334Y-90248500D01*
X129234133Y-90248500D01*
X129075578Y-90200403D01*
X128919189Y-90185000D01*
X128919186Y-90185000D01*
X128866900Y-90179850D01*
X128814614Y-90185000D01*
X127762000Y-90185000D01*
X127762000Y-86780200D01*
X156508428Y-86780200D01*
X156520688Y-86904682D01*
X156556998Y-87024380D01*
X156615963Y-87134694D01*
X156695315Y-87231385D01*
X156792006Y-87310737D01*
X156902320Y-87369702D01*
X157022018Y-87406012D01*
X157146500Y-87418272D01*
X157448250Y-87415200D01*
X157607000Y-87256450D01*
X157607000Y-86182200D01*
X156670250Y-86182200D01*
X156511500Y-86340950D01*
X156508428Y-86780200D01*
X127762000Y-86780200D01*
X127762000Y-85330200D01*
X156508428Y-85330200D01*
X156511500Y-85769450D01*
X156670250Y-85928200D01*
X157607000Y-85928200D01*
X157607000Y-84853950D01*
X157448250Y-84695200D01*
X157146500Y-84692128D01*
X157022018Y-84704388D01*
X156902320Y-84740698D01*
X156792006Y-84799663D01*
X156695315Y-84879015D01*
X156615963Y-84975706D01*
X156556998Y-85086020D01*
X156520688Y-85205718D01*
X156508428Y-85330200D01*
X127762000Y-85330200D01*
X127762000Y-68167051D01*
X159974100Y-68167051D01*
X159974100Y-68408749D01*
X160021253Y-68645803D01*
X160113747Y-68869102D01*
X160248027Y-69070067D01*
X160418933Y-69240973D01*
X160619898Y-69375253D01*
X160843197Y-69467747D01*
X161080251Y-69514900D01*
X161321949Y-69514900D01*
X161559003Y-69467747D01*
X161782302Y-69375253D01*
X161983267Y-69240973D01*
X162154173Y-69070067D01*
X162288453Y-68869102D01*
X162380947Y-68645803D01*
X162428100Y-68408749D01*
X162428100Y-68167051D01*
X162514100Y-68167051D01*
X162514100Y-68408749D01*
X162561253Y-68645803D01*
X162653747Y-68869102D01*
X162788027Y-69070067D01*
X162958933Y-69240973D01*
X163159898Y-69375253D01*
X163383197Y-69467747D01*
X163620251Y-69514900D01*
X163861949Y-69514900D01*
X164099003Y-69467747D01*
X164322302Y-69375253D01*
X164523267Y-69240973D01*
X164694173Y-69070067D01*
X164828453Y-68869102D01*
X164920947Y-68645803D01*
X164968100Y-68408749D01*
X164968100Y-68167051D01*
X165054100Y-68167051D01*
X165054100Y-68408749D01*
X165101253Y-68645803D01*
X165193747Y-68869102D01*
X165328027Y-69070067D01*
X165498933Y-69240973D01*
X165699898Y-69375253D01*
X165923197Y-69467747D01*
X166160251Y-69514900D01*
X166401949Y-69514900D01*
X166639003Y-69467747D01*
X166862302Y-69375253D01*
X167063267Y-69240973D01*
X167234173Y-69070067D01*
X167368453Y-68869102D01*
X167417331Y-68751102D01*
X167476943Y-68919152D01*
X167625922Y-69169255D01*
X167820831Y-69385488D01*
X168054180Y-69559541D01*
X168317001Y-69684725D01*
X168464210Y-69729376D01*
X168694100Y-69608055D01*
X168694100Y-68414900D01*
X168948100Y-68414900D01*
X168948100Y-69608055D01*
X169177990Y-69729376D01*
X169325199Y-69684725D01*
X169588020Y-69559541D01*
X169821369Y-69385488D01*
X170016278Y-69169255D01*
X170091100Y-69043645D01*
X170165922Y-69169255D01*
X170360831Y-69385488D01*
X170594180Y-69559541D01*
X170857001Y-69684725D01*
X171004210Y-69729376D01*
X171234100Y-69608055D01*
X171234100Y-68414900D01*
X171488100Y-68414900D01*
X171488100Y-69608055D01*
X171717990Y-69729376D01*
X171865199Y-69684725D01*
X172128020Y-69559541D01*
X172361369Y-69385488D01*
X172556278Y-69169255D01*
X172631100Y-69043645D01*
X172705922Y-69169255D01*
X172900831Y-69385488D01*
X173134180Y-69559541D01*
X173397001Y-69684725D01*
X173544210Y-69729376D01*
X173774100Y-69608055D01*
X173774100Y-68414900D01*
X171488100Y-68414900D01*
X171234100Y-68414900D01*
X168948100Y-68414900D01*
X168694100Y-68414900D01*
X168674100Y-68414900D01*
X168674100Y-68160900D01*
X168694100Y-68160900D01*
X168694100Y-66967745D01*
X168948100Y-66967745D01*
X168948100Y-68160900D01*
X171234100Y-68160900D01*
X171234100Y-66967745D01*
X171488100Y-66967745D01*
X171488100Y-68160900D01*
X173774100Y-68160900D01*
X173774100Y-66967745D01*
X173544210Y-66846424D01*
X173397001Y-66891075D01*
X173134180Y-67016259D01*
X172900831Y-67190312D01*
X172705922Y-67406545D01*
X172631100Y-67532155D01*
X172556278Y-67406545D01*
X172361369Y-67190312D01*
X172128020Y-67016259D01*
X171865199Y-66891075D01*
X171717990Y-66846424D01*
X171488100Y-66967745D01*
X171234100Y-66967745D01*
X171004210Y-66846424D01*
X170857001Y-66891075D01*
X170594180Y-67016259D01*
X170360831Y-67190312D01*
X170165922Y-67406545D01*
X170091100Y-67532155D01*
X170016278Y-67406545D01*
X169821369Y-67190312D01*
X169588020Y-67016259D01*
X169325199Y-66891075D01*
X169177990Y-66846424D01*
X168948100Y-66967745D01*
X168694100Y-66967745D01*
X168464210Y-66846424D01*
X168317001Y-66891075D01*
X168054180Y-67016259D01*
X167820831Y-67190312D01*
X167625922Y-67406545D01*
X167476943Y-67656648D01*
X167417331Y-67824698D01*
X167368453Y-67706698D01*
X167234173Y-67505733D01*
X167063267Y-67334827D01*
X166862302Y-67200547D01*
X166639003Y-67108053D01*
X166401949Y-67060900D01*
X166160251Y-67060900D01*
X165923197Y-67108053D01*
X165699898Y-67200547D01*
X165498933Y-67334827D01*
X165328027Y-67505733D01*
X165193747Y-67706698D01*
X165101253Y-67929997D01*
X165054100Y-68167051D01*
X164968100Y-68167051D01*
X164920947Y-67929997D01*
X164828453Y-67706698D01*
X164694173Y-67505733D01*
X164523267Y-67334827D01*
X164322302Y-67200547D01*
X164099003Y-67108053D01*
X163861949Y-67060900D01*
X163620251Y-67060900D01*
X163383197Y-67108053D01*
X163159898Y-67200547D01*
X162958933Y-67334827D01*
X162788027Y-67505733D01*
X162653747Y-67706698D01*
X162561253Y-67929997D01*
X162514100Y-68167051D01*
X162428100Y-68167051D01*
X162380947Y-67929997D01*
X162288453Y-67706698D01*
X162154173Y-67505733D01*
X161983267Y-67334827D01*
X161782302Y-67200547D01*
X161559003Y-67108053D01*
X161321949Y-67060900D01*
X161080251Y-67060900D01*
X160843197Y-67108053D01*
X160619898Y-67200547D01*
X160418933Y-67334827D01*
X160248027Y-67505733D01*
X160113747Y-67706698D01*
X160021253Y-67929997D01*
X159974100Y-68167051D01*
X127762000Y-68167051D01*
X127762000Y-65532000D01*
X193548000Y-65532000D01*
X193548000Y-116078000D01*
G37*
%TD.AperFunction*%
D22*
X171093731Y-93094183D02*
X171143074Y-93093126D01*
X171142017Y-93142469D01*
X171177900Y-93178352D01*
X171177900Y-93232248D01*
X171142017Y-93268131D01*
X171143074Y-93317474D01*
X171093731Y-93316417D01*
X171057848Y-93352300D01*
X171003952Y-93352300D01*
X170968069Y-93316417D01*
X170918726Y-93317474D01*
X170919783Y-93268131D01*
X170883900Y-93232248D01*
X170883900Y-93178352D01*
X170919783Y-93142469D01*
X170918726Y-93093126D01*
X170968069Y-93094183D01*
X171003952Y-93058300D01*
X171057848Y-93058300D01*
X171093731Y-93094183D01*
%TA.AperFunction,Conductor*%
D23*
G36*
X171093731Y-93094183D02*
G01*
X171143074Y-93093126D01*
X171142017Y-93142469D01*
X171177900Y-93178352D01*
X171177900Y-93232248D01*
X171142017Y-93268131D01*
X171143074Y-93317474D01*
X171093731Y-93316417D01*
X171057848Y-93352300D01*
X171003952Y-93352300D01*
X170968069Y-93316417D01*
X170918726Y-93317474D01*
X170919783Y-93268131D01*
X170883900Y-93232248D01*
X170883900Y-93178352D01*
X170919783Y-93142469D01*
X170918726Y-93093126D01*
X170968069Y-93094183D01*
X171003952Y-93058300D01*
X171057848Y-93058300D01*
X171093731Y-93094183D01*
G37*
%TD.AperFunction*%
D22*
X181258400Y-88413997D02*
X181032150Y-88416300D01*
X180873400Y-88575050D01*
X180873400Y-89649300D01*
X180893400Y-89649300D01*
X180893400Y-89903300D01*
X180873400Y-89903300D01*
X180873400Y-89923300D01*
X180619400Y-89923300D01*
X180619400Y-89903300D01*
X180599400Y-89903300D01*
X180599400Y-89649300D01*
X180619400Y-89649300D01*
X180619400Y-88575050D01*
X180460650Y-88416300D01*
X180158900Y-88413228D01*
X180034418Y-88425488D01*
X179914720Y-88461798D01*
X179804406Y-88520763D01*
X179707715Y-88600115D01*
X179628363Y-88696806D01*
X179569398Y-88807120D01*
X179533088Y-88926818D01*
X179530735Y-88950710D01*
X179453546Y-88856654D01*
X179358256Y-88778452D01*
X179249541Y-88720342D01*
X179131577Y-88684559D01*
X179008900Y-88672476D01*
X178638764Y-88672476D01*
X178666138Y-88621264D01*
X178691326Y-88538229D01*
X178697700Y-88473512D01*
X178697700Y-88473503D01*
X178699830Y-88451877D01*
X178697700Y-88430251D01*
X178697700Y-88378509D01*
X181258400Y-85817809D01*
X181258400Y-88413997D01*
%TA.AperFunction,Conductor*%
D23*
G36*
X181258400Y-88413997D02*
G01*
X181032150Y-88416300D01*
X180873400Y-88575050D01*
X180873400Y-89649300D01*
X180893400Y-89649300D01*
X180893400Y-89903300D01*
X180873400Y-89903300D01*
X180873400Y-89923300D01*
X180619400Y-89923300D01*
X180619400Y-89903300D01*
X180599400Y-89903300D01*
X180599400Y-89649300D01*
X180619400Y-89649300D01*
X180619400Y-88575050D01*
X180460650Y-88416300D01*
X180158900Y-88413228D01*
X180034418Y-88425488D01*
X179914720Y-88461798D01*
X179804406Y-88520763D01*
X179707715Y-88600115D01*
X179628363Y-88696806D01*
X179569398Y-88807120D01*
X179533088Y-88926818D01*
X179530735Y-88950710D01*
X179453546Y-88856654D01*
X179358256Y-88778452D01*
X179249541Y-88720342D01*
X179131577Y-88684559D01*
X179008900Y-88672476D01*
X178638764Y-88672476D01*
X178666138Y-88621264D01*
X178691326Y-88538229D01*
X178697700Y-88473512D01*
X178697700Y-88473503D01*
X178699830Y-88451877D01*
X178697700Y-88430251D01*
X178697700Y-88378509D01*
X181258400Y-85817809D01*
X181258400Y-88413997D01*
G37*
%TD.AperFunction*%
D22*
X169075100Y-83760900D02*
X169095100Y-83760900D01*
X169095100Y-84014900D01*
X169075100Y-84014900D01*
X169075100Y-85414150D01*
X169233850Y-85572900D01*
X169848100Y-85575972D01*
X169972582Y-85563712D01*
X170092280Y-85527402D01*
X170202594Y-85468437D01*
X170299285Y-85389085D01*
X170358670Y-85316724D01*
X170632501Y-85316724D01*
X170632500Y-85965158D01*
X170572644Y-85997152D01*
X170477354Y-86075354D01*
X170400165Y-86169410D01*
X170397812Y-86145518D01*
X170361502Y-86025820D01*
X170302537Y-85915506D01*
X170223185Y-85818815D01*
X170126494Y-85739463D01*
X170016180Y-85680498D01*
X169896482Y-85644188D01*
X169772000Y-85631928D01*
X169470250Y-85635000D01*
X169311500Y-85793750D01*
X169311500Y-86868000D01*
X169331500Y-86868000D01*
X169331500Y-87122000D01*
X169311500Y-87122000D01*
X169311500Y-87142000D01*
X169057500Y-87142000D01*
X169057500Y-87122000D01*
X169037500Y-87122000D01*
X169037500Y-86868000D01*
X169057500Y-86868000D01*
X169057500Y-85793750D01*
X168898750Y-85635000D01*
X168597000Y-85631928D01*
X168472518Y-85644188D01*
X168352820Y-85680498D01*
X168242506Y-85739463D01*
X168145815Y-85818815D01*
X168066463Y-85915506D01*
X168007498Y-86025820D01*
X167971188Y-86145518D01*
X167958928Y-86270000D01*
X167962000Y-86709250D01*
X168120748Y-86867998D01*
X167962000Y-86867998D01*
X167962000Y-86887489D01*
X167949500Y-86874989D01*
X167949500Y-85566261D01*
X168048100Y-85575972D01*
X168662350Y-85572900D01*
X168821100Y-85414150D01*
X168821100Y-84014900D01*
X168801100Y-84014900D01*
X168801100Y-83760900D01*
X168821100Y-83760900D01*
X168821100Y-83740900D01*
X169075100Y-83740900D01*
X169075100Y-83760900D01*
%TA.AperFunction,Conductor*%
D23*
G36*
X169075100Y-83760900D02*
G01*
X169095100Y-83760900D01*
X169095100Y-84014900D01*
X169075100Y-84014900D01*
X169075100Y-85414150D01*
X169233850Y-85572900D01*
X169848100Y-85575972D01*
X169972582Y-85563712D01*
X170092280Y-85527402D01*
X170202594Y-85468437D01*
X170299285Y-85389085D01*
X170358670Y-85316724D01*
X170632501Y-85316724D01*
X170632500Y-85965158D01*
X170572644Y-85997152D01*
X170477354Y-86075354D01*
X170400165Y-86169410D01*
X170397812Y-86145518D01*
X170361502Y-86025820D01*
X170302537Y-85915506D01*
X170223185Y-85818815D01*
X170126494Y-85739463D01*
X170016180Y-85680498D01*
X169896482Y-85644188D01*
X169772000Y-85631928D01*
X169470250Y-85635000D01*
X169311500Y-85793750D01*
X169311500Y-86868000D01*
X169331500Y-86868000D01*
X169331500Y-87122000D01*
X169311500Y-87122000D01*
X169311500Y-87142000D01*
X169057500Y-87142000D01*
X169057500Y-87122000D01*
X169037500Y-87122000D01*
X169037500Y-86868000D01*
X169057500Y-86868000D01*
X169057500Y-85793750D01*
X168898750Y-85635000D01*
X168597000Y-85631928D01*
X168472518Y-85644188D01*
X168352820Y-85680498D01*
X168242506Y-85739463D01*
X168145815Y-85818815D01*
X168066463Y-85915506D01*
X168007498Y-86025820D01*
X167971188Y-86145518D01*
X167958928Y-86270000D01*
X167962000Y-86709250D01*
X168120748Y-86867998D01*
X167962000Y-86867998D01*
X167962000Y-86887489D01*
X167949500Y-86874989D01*
X167949500Y-85566261D01*
X168048100Y-85575972D01*
X168662350Y-85572900D01*
X168821100Y-85414150D01*
X168821100Y-84014900D01*
X168801100Y-84014900D01*
X168801100Y-83760900D01*
X168821100Y-83760900D01*
X168821100Y-83740900D01*
X169075100Y-83740900D01*
X169075100Y-83760900D01*
G37*
%TD.AperFunction*%
%TD*%
M02*
