%TF.GenerationSoftware,KiCad,Pcbnew,(5.1.10)-1*%
%TF.CreationDate,2022-01-27T03:50:03-08:00*%
%TF.ProjectId,schematic,73636865-6d61-4746-9963-2e6b69636164,rev?*%
%TF.SameCoordinates,Original*%
%TF.FileFunction,Soldermask,Bot*%
%TF.FilePolarity,Negative*%
%FSLAX46Y46*%
G04 Gerber Fmt 4.6, Leading zero omitted, Abs format (unit mm)*
G04 Created by KiCad (PCBNEW (5.1.10)-1) date 2022-01-27 03:50:03*
%MOMM*%
%LPD*%
G01*
G04 APERTURE LIST*
%ADD10O,1.700000X1.700000*%
%ADD11R,1.700000X1.700000*%
G04 APERTURE END LIST*
D10*
%TO.C,J5*%
X192036700Y-68567300D03*
X192036700Y-71107300D03*
X192036700Y-73647300D03*
X192036700Y-76187300D03*
X192036700Y-78727300D03*
X192036700Y-81267300D03*
X192036700Y-83807300D03*
X192036700Y-86347300D03*
X192036700Y-88887300D03*
X192036700Y-91427300D03*
X192036700Y-93967300D03*
X192036700Y-96507300D03*
X192036700Y-99047300D03*
D11*
X192036700Y-101587300D03*
%TD*%
D10*
%TO.C,J3*%
X161201100Y-68287900D03*
X163741100Y-68287900D03*
X166281100Y-68287900D03*
X168821100Y-68287900D03*
X171361100Y-68287900D03*
X173901100Y-68287900D03*
X176441100Y-68287900D03*
X178981100Y-68287900D03*
X181521100Y-68287900D03*
D11*
X184061100Y-68287900D03*
%TD*%
D10*
%TO.C,J2*%
X190957200Y-107315000D03*
X188417200Y-107315000D03*
X185877200Y-107315000D03*
X183337200Y-107315000D03*
X180797200Y-107315000D03*
X178257200Y-107315000D03*
X175717200Y-107315000D03*
X173177200Y-107315000D03*
X170637200Y-107315000D03*
D11*
X168097200Y-107315000D03*
%TD*%
D10*
%TO.C,J1*%
X173266100Y-112077500D03*
X170726100Y-112077500D03*
X168186100Y-112077500D03*
X165646100Y-112077500D03*
X163106100Y-112077500D03*
X160566100Y-112077500D03*
X158026100Y-112077500D03*
X155486100Y-112077500D03*
X152946100Y-112077500D03*
X150406100Y-112077500D03*
X147866100Y-112077500D03*
X145326100Y-112077500D03*
X142786100Y-112077500D03*
D11*
X140246100Y-112077500D03*
%TD*%
M02*
