%TF.GenerationSoftware,KiCad,Pcbnew,(5.1.10)-1*%
%TF.CreationDate,2022-01-27T03:50:03-08:00*%
%TF.ProjectId,schematic,73636865-6d61-4746-9963-2e6b69636164,rev?*%
%TF.SameCoordinates,Original*%
%TF.FileFunction,Copper,L2,Bot*%
%TF.FilePolarity,Positive*%
%FSLAX46Y46*%
G04 Gerber Fmt 4.6, Leading zero omitted, Abs format (unit mm)*
G04 Created by KiCad (PCBNEW (5.1.10)-1) date 2022-01-27 03:50:03*
%MOMM*%
%LPD*%
G01*
G04 APERTURE LIST*
%TA.AperFunction,ComponentPad*%
%ADD10O,1.700000X1.700000*%
%TD*%
%TA.AperFunction,ComponentPad*%
%ADD11R,1.700000X1.700000*%
%TD*%
%TA.AperFunction,SMDPad,CuDef*%
%ADD12R,3.700000X3.700000*%
%TD*%
%TA.AperFunction,ComponentPad*%
%ADD13C,0.500000*%
%TD*%
%TA.AperFunction,ViaPad*%
%ADD14C,0.400000*%
%TD*%
%TA.AperFunction,Conductor*%
%ADD15C,1.250000*%
%TD*%
%TA.AperFunction,Conductor*%
%ADD16C,0.127000*%
%TD*%
%TA.AperFunction,Conductor*%
%ADD17C,0.750000*%
%TD*%
%TA.AperFunction,Conductor*%
%ADD18C,0.254000*%
%TD*%
%TA.AperFunction,Conductor*%
%ADD19C,0.100000*%
%TD*%
G04 APERTURE END LIST*
D10*
%TO.P,J5,14*%
%TO.N,Net-(J5-Pad14)*%
X192036700Y-68567300D03*
%TO.P,J5,13*%
%TO.N,Net-(J5-Pad13)*%
X192036700Y-71107300D03*
%TO.P,J5,12*%
%TO.N,Net-(J5-Pad12)*%
X192036700Y-73647300D03*
%TO.P,J5,11*%
%TO.N,Net-(J5-Pad11)*%
X192036700Y-76187300D03*
%TO.P,J5,10*%
%TO.N,Net-(J5-Pad10)*%
X192036700Y-78727300D03*
%TO.P,J5,9*%
%TO.N,Net-(J5-Pad9)*%
X192036700Y-81267300D03*
%TO.P,J5,8*%
%TO.N,Net-(J5-Pad8)*%
X192036700Y-83807300D03*
%TO.P,J5,7*%
%TO.N,Net-(J5-Pad7)*%
X192036700Y-86347300D03*
%TO.P,J5,6*%
%TO.N,Net-(J5-Pad6)*%
X192036700Y-88887300D03*
%TO.P,J5,5*%
%TO.N,Net-(J5-Pad5)*%
X192036700Y-91427300D03*
%TO.P,J5,4*%
%TO.N,Net-(J5-Pad4)*%
X192036700Y-93967300D03*
%TO.P,J5,3*%
%TO.N,Net-(J5-Pad3)*%
X192036700Y-96507300D03*
%TO.P,J5,2*%
%TO.N,Net-(J5-Pad2)*%
X192036700Y-99047300D03*
D11*
%TO.P,J5,1*%
%TO.N,Net-(J5-Pad1)*%
X192036700Y-101587300D03*
%TD*%
D10*
%TO.P,J3,10*%
%TO.N,+3V3*%
X161201100Y-68287900D03*
%TO.P,J3,9*%
X163741100Y-68287900D03*
%TO.P,J3,8*%
X166281100Y-68287900D03*
%TO.P,J3,7*%
%TO.N,GND*%
X168821100Y-68287900D03*
%TO.P,J3,6*%
X171361100Y-68287900D03*
%TO.P,J3,5*%
X173901100Y-68287900D03*
%TO.P,J3,4*%
%TO.N,Net-(J3-Pad4)*%
X176441100Y-68287900D03*
%TO.P,J3,3*%
%TO.N,Net-(J3-Pad3)*%
X178981100Y-68287900D03*
%TO.P,J3,2*%
%TO.N,Net-(J3-Pad2)*%
X181521100Y-68287900D03*
D11*
%TO.P,J3,1*%
%TO.N,Net-(J3-Pad1)*%
X184061100Y-68287900D03*
%TD*%
D10*
%TO.P,J2,10*%
%TO.N,Net-(J2-Pad10)*%
X190957200Y-107315000D03*
%TO.P,J2,9*%
%TO.N,Net-(J2-Pad9)*%
X188417200Y-107315000D03*
%TO.P,J2,8*%
%TO.N,Net-(J2-Pad8)*%
X185877200Y-107315000D03*
%TO.P,J2,7*%
%TO.N,Net-(J2-Pad7)*%
X183337200Y-107315000D03*
%TO.P,J2,6*%
%TO.N,Net-(J2-Pad6)*%
X180797200Y-107315000D03*
%TO.P,J2,5*%
%TO.N,Net-(J2-Pad5)*%
X178257200Y-107315000D03*
%TO.P,J2,4*%
%TO.N,Net-(J2-Pad4)*%
X175717200Y-107315000D03*
%TO.P,J2,3*%
%TO.N,Net-(J2-Pad3)*%
X173177200Y-107315000D03*
%TO.P,J2,2*%
%TO.N,Net-(J2-Pad2)*%
X170637200Y-107315000D03*
D11*
%TO.P,J2,1*%
%TO.N,Net-(J2-Pad1)*%
X168097200Y-107315000D03*
%TD*%
D10*
%TO.P,J1,14*%
%TO.N,Net-(J1-Pad14)*%
X173266100Y-112077500D03*
%TO.P,J1,13*%
%TO.N,Net-(J1-Pad13)*%
X170726100Y-112077500D03*
%TO.P,J1,12*%
%TO.N,Net-(J1-Pad12)*%
X168186100Y-112077500D03*
%TO.P,J1,11*%
%TO.N,Net-(J1-Pad11)*%
X165646100Y-112077500D03*
%TO.P,J1,10*%
%TO.N,Net-(J1-Pad10)*%
X163106100Y-112077500D03*
%TO.P,J1,9*%
%TO.N,Net-(J1-Pad9)*%
X160566100Y-112077500D03*
%TO.P,J1,8*%
%TO.N,Net-(J1-Pad8)*%
X158026100Y-112077500D03*
%TO.P,J1,7*%
%TO.N,Net-(J1-Pad7)*%
X155486100Y-112077500D03*
%TO.P,J1,6*%
%TO.N,Net-(J1-Pad6)*%
X152946100Y-112077500D03*
%TO.P,J1,5*%
%TO.N,Net-(J1-Pad5)*%
X150406100Y-112077500D03*
%TO.P,J1,4*%
%TO.N,Net-(J1-Pad4)*%
X147866100Y-112077500D03*
%TO.P,J1,3*%
%TO.N,Net-(J1-Pad3)*%
X145326100Y-112077500D03*
%TO.P,J1,2*%
%TO.N,Net-(J1-Pad2)*%
X142786100Y-112077500D03*
D11*
%TO.P,J1,1*%
%TO.N,Net-(J1-Pad1)*%
X140246100Y-112077500D03*
%TD*%
D12*
%TO.P,U1,49*%
%TO.N,GND*%
X171030900Y-93205300D03*
D13*
X172630900Y-94805300D03*
X171564233Y-94805300D03*
X170497567Y-94805300D03*
X169430900Y-94805300D03*
X172630900Y-93738633D03*
X171564233Y-93738633D03*
X170497567Y-93738633D03*
X169430900Y-93738633D03*
X172630900Y-92671967D03*
X171564233Y-92671967D03*
X170497567Y-92671967D03*
X169430900Y-92671967D03*
X172630900Y-91605300D03*
X171564233Y-91605300D03*
X170497567Y-91605300D03*
X169430900Y-91605300D03*
%TD*%
D14*
%TO.N,GND*%
X168910000Y-83820000D03*
X137795000Y-73025000D03*
X137795000Y-82550000D03*
X150495000Y-72390000D03*
X151130000Y-83820000D03*
X133350000Y-104140000D03*
X141605000Y-100965000D03*
X188595000Y-113030000D03*
X180975000Y-112395000D03*
X180340000Y-87630000D03*
X173355000Y-102235000D03*
%TO.N,+3V3*%
X171513500Y-89623900D03*
X170115400Y-89636600D03*
X167055800Y-92760800D03*
X167170100Y-90195400D03*
X178671400Y-89776300D03*
X174028100Y-87553800D03*
X170713400Y-98640900D03*
%TD*%
D15*
%TO.N,GND*%
X169430900Y-94805300D02*
X168770500Y-94805300D01*
X168770500Y-94805300D02*
X166116000Y-97459800D01*
D16*
%TO.N,+3V3*%
X171513500Y-89623900D02*
X170281600Y-89623900D01*
X170268900Y-89636600D02*
X170115400Y-89636600D01*
X170281600Y-89623900D02*
X170268900Y-89636600D01*
X167055800Y-90309700D02*
X167170100Y-90195400D01*
X167055800Y-92760800D02*
X167055800Y-90309700D01*
D17*
X166281100Y-68287900D02*
X166281100Y-71031100D01*
X166281100Y-71031100D02*
X171272200Y-76022200D01*
X171272200Y-84797900D02*
X174028100Y-87553800D01*
X171272200Y-76022200D02*
X171272200Y-84797900D01*
X176250600Y-89776300D02*
X174028100Y-87553800D01*
X178671400Y-89776300D02*
X176250600Y-89776300D01*
X167170100Y-88900000D02*
X171272200Y-84797900D01*
X167170100Y-90195400D02*
X167170100Y-88900000D01*
X170713400Y-98640900D02*
X173558200Y-98640900D01*
X176250600Y-95948500D02*
X176250600Y-89776300D01*
X173558200Y-98640900D02*
X176250600Y-95948500D01*
D15*
X166281100Y-68287900D02*
X161201100Y-68287900D01*
%TD*%
D18*
%TO.N,GND*%
X193548000Y-116078000D02*
X127762000Y-116078000D01*
X127762000Y-111227500D01*
X138758028Y-111227500D01*
X138758028Y-112927500D01*
X138770288Y-113051982D01*
X138806598Y-113171680D01*
X138865563Y-113281994D01*
X138944915Y-113378685D01*
X139041606Y-113458037D01*
X139151920Y-113517002D01*
X139271618Y-113553312D01*
X139396100Y-113565572D01*
X141096100Y-113565572D01*
X141220582Y-113553312D01*
X141340280Y-113517002D01*
X141450594Y-113458037D01*
X141547285Y-113378685D01*
X141626637Y-113281994D01*
X141685602Y-113171680D01*
X141707613Y-113099120D01*
X141839468Y-113230975D01*
X142082689Y-113393490D01*
X142352942Y-113505432D01*
X142639840Y-113562500D01*
X142932360Y-113562500D01*
X143219258Y-113505432D01*
X143489511Y-113393490D01*
X143732732Y-113230975D01*
X143939575Y-113024132D01*
X144056100Y-112849740D01*
X144172625Y-113024132D01*
X144379468Y-113230975D01*
X144622689Y-113393490D01*
X144892942Y-113505432D01*
X145179840Y-113562500D01*
X145472360Y-113562500D01*
X145759258Y-113505432D01*
X146029511Y-113393490D01*
X146272732Y-113230975D01*
X146479575Y-113024132D01*
X146596100Y-112849740D01*
X146712625Y-113024132D01*
X146919468Y-113230975D01*
X147162689Y-113393490D01*
X147432942Y-113505432D01*
X147719840Y-113562500D01*
X148012360Y-113562500D01*
X148299258Y-113505432D01*
X148569511Y-113393490D01*
X148812732Y-113230975D01*
X149019575Y-113024132D01*
X149136100Y-112849740D01*
X149252625Y-113024132D01*
X149459468Y-113230975D01*
X149702689Y-113393490D01*
X149972942Y-113505432D01*
X150259840Y-113562500D01*
X150552360Y-113562500D01*
X150839258Y-113505432D01*
X151109511Y-113393490D01*
X151352732Y-113230975D01*
X151559575Y-113024132D01*
X151676100Y-112849740D01*
X151792625Y-113024132D01*
X151999468Y-113230975D01*
X152242689Y-113393490D01*
X152512942Y-113505432D01*
X152799840Y-113562500D01*
X153092360Y-113562500D01*
X153379258Y-113505432D01*
X153649511Y-113393490D01*
X153892732Y-113230975D01*
X154099575Y-113024132D01*
X154216100Y-112849740D01*
X154332625Y-113024132D01*
X154539468Y-113230975D01*
X154782689Y-113393490D01*
X155052942Y-113505432D01*
X155339840Y-113562500D01*
X155632360Y-113562500D01*
X155919258Y-113505432D01*
X156189511Y-113393490D01*
X156432732Y-113230975D01*
X156639575Y-113024132D01*
X156756100Y-112849740D01*
X156872625Y-113024132D01*
X157079468Y-113230975D01*
X157322689Y-113393490D01*
X157592942Y-113505432D01*
X157879840Y-113562500D01*
X158172360Y-113562500D01*
X158459258Y-113505432D01*
X158729511Y-113393490D01*
X158972732Y-113230975D01*
X159179575Y-113024132D01*
X159296100Y-112849740D01*
X159412625Y-113024132D01*
X159619468Y-113230975D01*
X159862689Y-113393490D01*
X160132942Y-113505432D01*
X160419840Y-113562500D01*
X160712360Y-113562500D01*
X160999258Y-113505432D01*
X161269511Y-113393490D01*
X161512732Y-113230975D01*
X161719575Y-113024132D01*
X161836100Y-112849740D01*
X161952625Y-113024132D01*
X162159468Y-113230975D01*
X162402689Y-113393490D01*
X162672942Y-113505432D01*
X162959840Y-113562500D01*
X163252360Y-113562500D01*
X163539258Y-113505432D01*
X163809511Y-113393490D01*
X164052732Y-113230975D01*
X164259575Y-113024132D01*
X164376100Y-112849740D01*
X164492625Y-113024132D01*
X164699468Y-113230975D01*
X164942689Y-113393490D01*
X165212942Y-113505432D01*
X165499840Y-113562500D01*
X165792360Y-113562500D01*
X166079258Y-113505432D01*
X166349511Y-113393490D01*
X166592732Y-113230975D01*
X166799575Y-113024132D01*
X166916100Y-112849740D01*
X167032625Y-113024132D01*
X167239468Y-113230975D01*
X167482689Y-113393490D01*
X167752942Y-113505432D01*
X168039840Y-113562500D01*
X168332360Y-113562500D01*
X168619258Y-113505432D01*
X168889511Y-113393490D01*
X169132732Y-113230975D01*
X169339575Y-113024132D01*
X169456100Y-112849740D01*
X169572625Y-113024132D01*
X169779468Y-113230975D01*
X170022689Y-113393490D01*
X170292942Y-113505432D01*
X170579840Y-113562500D01*
X170872360Y-113562500D01*
X171159258Y-113505432D01*
X171429511Y-113393490D01*
X171672732Y-113230975D01*
X171879575Y-113024132D01*
X171996100Y-112849740D01*
X172112625Y-113024132D01*
X172319468Y-113230975D01*
X172562689Y-113393490D01*
X172832942Y-113505432D01*
X173119840Y-113562500D01*
X173412360Y-113562500D01*
X173699258Y-113505432D01*
X173969511Y-113393490D01*
X174212732Y-113230975D01*
X174419575Y-113024132D01*
X174582090Y-112780911D01*
X174694032Y-112510658D01*
X174751100Y-112223760D01*
X174751100Y-111931240D01*
X174694032Y-111644342D01*
X174582090Y-111374089D01*
X174419575Y-111130868D01*
X174212732Y-110924025D01*
X173969511Y-110761510D01*
X173699258Y-110649568D01*
X173412360Y-110592500D01*
X173119840Y-110592500D01*
X172832942Y-110649568D01*
X172562689Y-110761510D01*
X172319468Y-110924025D01*
X172112625Y-111130868D01*
X171996100Y-111305260D01*
X171879575Y-111130868D01*
X171672732Y-110924025D01*
X171429511Y-110761510D01*
X171159258Y-110649568D01*
X170872360Y-110592500D01*
X170579840Y-110592500D01*
X170292942Y-110649568D01*
X170022689Y-110761510D01*
X169779468Y-110924025D01*
X169572625Y-111130868D01*
X169456100Y-111305260D01*
X169339575Y-111130868D01*
X169132732Y-110924025D01*
X168889511Y-110761510D01*
X168619258Y-110649568D01*
X168332360Y-110592500D01*
X168039840Y-110592500D01*
X167752942Y-110649568D01*
X167482689Y-110761510D01*
X167239468Y-110924025D01*
X167032625Y-111130868D01*
X166916100Y-111305260D01*
X166799575Y-111130868D01*
X166592732Y-110924025D01*
X166349511Y-110761510D01*
X166079258Y-110649568D01*
X165792360Y-110592500D01*
X165499840Y-110592500D01*
X165212942Y-110649568D01*
X164942689Y-110761510D01*
X164699468Y-110924025D01*
X164492625Y-111130868D01*
X164376100Y-111305260D01*
X164259575Y-111130868D01*
X164052732Y-110924025D01*
X163809511Y-110761510D01*
X163539258Y-110649568D01*
X163252360Y-110592500D01*
X162959840Y-110592500D01*
X162672942Y-110649568D01*
X162402689Y-110761510D01*
X162159468Y-110924025D01*
X161952625Y-111130868D01*
X161836100Y-111305260D01*
X161719575Y-111130868D01*
X161512732Y-110924025D01*
X161269511Y-110761510D01*
X160999258Y-110649568D01*
X160712360Y-110592500D01*
X160419840Y-110592500D01*
X160132942Y-110649568D01*
X159862689Y-110761510D01*
X159619468Y-110924025D01*
X159412625Y-111130868D01*
X159296100Y-111305260D01*
X159179575Y-111130868D01*
X158972732Y-110924025D01*
X158729511Y-110761510D01*
X158459258Y-110649568D01*
X158172360Y-110592500D01*
X157879840Y-110592500D01*
X157592942Y-110649568D01*
X157322689Y-110761510D01*
X157079468Y-110924025D01*
X156872625Y-111130868D01*
X156756100Y-111305260D01*
X156639575Y-111130868D01*
X156432732Y-110924025D01*
X156189511Y-110761510D01*
X155919258Y-110649568D01*
X155632360Y-110592500D01*
X155339840Y-110592500D01*
X155052942Y-110649568D01*
X154782689Y-110761510D01*
X154539468Y-110924025D01*
X154332625Y-111130868D01*
X154216100Y-111305260D01*
X154099575Y-111130868D01*
X153892732Y-110924025D01*
X153649511Y-110761510D01*
X153379258Y-110649568D01*
X153092360Y-110592500D01*
X152799840Y-110592500D01*
X152512942Y-110649568D01*
X152242689Y-110761510D01*
X151999468Y-110924025D01*
X151792625Y-111130868D01*
X151676100Y-111305260D01*
X151559575Y-111130868D01*
X151352732Y-110924025D01*
X151109511Y-110761510D01*
X150839258Y-110649568D01*
X150552360Y-110592500D01*
X150259840Y-110592500D01*
X149972942Y-110649568D01*
X149702689Y-110761510D01*
X149459468Y-110924025D01*
X149252625Y-111130868D01*
X149136100Y-111305260D01*
X149019575Y-111130868D01*
X148812732Y-110924025D01*
X148569511Y-110761510D01*
X148299258Y-110649568D01*
X148012360Y-110592500D01*
X147719840Y-110592500D01*
X147432942Y-110649568D01*
X147162689Y-110761510D01*
X146919468Y-110924025D01*
X146712625Y-111130868D01*
X146596100Y-111305260D01*
X146479575Y-111130868D01*
X146272732Y-110924025D01*
X146029511Y-110761510D01*
X145759258Y-110649568D01*
X145472360Y-110592500D01*
X145179840Y-110592500D01*
X144892942Y-110649568D01*
X144622689Y-110761510D01*
X144379468Y-110924025D01*
X144172625Y-111130868D01*
X144056100Y-111305260D01*
X143939575Y-111130868D01*
X143732732Y-110924025D01*
X143489511Y-110761510D01*
X143219258Y-110649568D01*
X142932360Y-110592500D01*
X142639840Y-110592500D01*
X142352942Y-110649568D01*
X142082689Y-110761510D01*
X141839468Y-110924025D01*
X141707613Y-111055880D01*
X141685602Y-110983320D01*
X141626637Y-110873006D01*
X141547285Y-110776315D01*
X141450594Y-110696963D01*
X141340280Y-110637998D01*
X141220582Y-110601688D01*
X141096100Y-110589428D01*
X139396100Y-110589428D01*
X139271618Y-110601688D01*
X139151920Y-110637998D01*
X139041606Y-110696963D01*
X138944915Y-110776315D01*
X138865563Y-110873006D01*
X138806598Y-110983320D01*
X138770288Y-111103018D01*
X138758028Y-111227500D01*
X127762000Y-111227500D01*
X127762000Y-106465000D01*
X166609128Y-106465000D01*
X166609128Y-108165000D01*
X166621388Y-108289482D01*
X166657698Y-108409180D01*
X166716663Y-108519494D01*
X166796015Y-108616185D01*
X166892706Y-108695537D01*
X167003020Y-108754502D01*
X167122718Y-108790812D01*
X167247200Y-108803072D01*
X168947200Y-108803072D01*
X169071682Y-108790812D01*
X169191380Y-108754502D01*
X169301694Y-108695537D01*
X169398385Y-108616185D01*
X169477737Y-108519494D01*
X169536702Y-108409180D01*
X169558713Y-108336620D01*
X169690568Y-108468475D01*
X169933789Y-108630990D01*
X170204042Y-108742932D01*
X170490940Y-108800000D01*
X170783460Y-108800000D01*
X171070358Y-108742932D01*
X171340611Y-108630990D01*
X171583832Y-108468475D01*
X171790675Y-108261632D01*
X171907200Y-108087240D01*
X172023725Y-108261632D01*
X172230568Y-108468475D01*
X172473789Y-108630990D01*
X172744042Y-108742932D01*
X173030940Y-108800000D01*
X173323460Y-108800000D01*
X173610358Y-108742932D01*
X173880611Y-108630990D01*
X174123832Y-108468475D01*
X174330675Y-108261632D01*
X174447200Y-108087240D01*
X174563725Y-108261632D01*
X174770568Y-108468475D01*
X175013789Y-108630990D01*
X175284042Y-108742932D01*
X175570940Y-108800000D01*
X175863460Y-108800000D01*
X176150358Y-108742932D01*
X176420611Y-108630990D01*
X176663832Y-108468475D01*
X176870675Y-108261632D01*
X176987200Y-108087240D01*
X177103725Y-108261632D01*
X177310568Y-108468475D01*
X177553789Y-108630990D01*
X177824042Y-108742932D01*
X178110940Y-108800000D01*
X178403460Y-108800000D01*
X178690358Y-108742932D01*
X178960611Y-108630990D01*
X179203832Y-108468475D01*
X179410675Y-108261632D01*
X179527200Y-108087240D01*
X179643725Y-108261632D01*
X179850568Y-108468475D01*
X180093789Y-108630990D01*
X180364042Y-108742932D01*
X180650940Y-108800000D01*
X180943460Y-108800000D01*
X181230358Y-108742932D01*
X181500611Y-108630990D01*
X181743832Y-108468475D01*
X181950675Y-108261632D01*
X182067200Y-108087240D01*
X182183725Y-108261632D01*
X182390568Y-108468475D01*
X182633789Y-108630990D01*
X182904042Y-108742932D01*
X183190940Y-108800000D01*
X183483460Y-108800000D01*
X183770358Y-108742932D01*
X184040611Y-108630990D01*
X184283832Y-108468475D01*
X184490675Y-108261632D01*
X184607200Y-108087240D01*
X184723725Y-108261632D01*
X184930568Y-108468475D01*
X185173789Y-108630990D01*
X185444042Y-108742932D01*
X185730940Y-108800000D01*
X186023460Y-108800000D01*
X186310358Y-108742932D01*
X186580611Y-108630990D01*
X186823832Y-108468475D01*
X187030675Y-108261632D01*
X187147200Y-108087240D01*
X187263725Y-108261632D01*
X187470568Y-108468475D01*
X187713789Y-108630990D01*
X187984042Y-108742932D01*
X188270940Y-108800000D01*
X188563460Y-108800000D01*
X188850358Y-108742932D01*
X189120611Y-108630990D01*
X189363832Y-108468475D01*
X189570675Y-108261632D01*
X189687200Y-108087240D01*
X189803725Y-108261632D01*
X190010568Y-108468475D01*
X190253789Y-108630990D01*
X190524042Y-108742932D01*
X190810940Y-108800000D01*
X191103460Y-108800000D01*
X191390358Y-108742932D01*
X191660611Y-108630990D01*
X191903832Y-108468475D01*
X192110675Y-108261632D01*
X192273190Y-108018411D01*
X192385132Y-107748158D01*
X192442200Y-107461260D01*
X192442200Y-107168740D01*
X192385132Y-106881842D01*
X192273190Y-106611589D01*
X192110675Y-106368368D01*
X191903832Y-106161525D01*
X191660611Y-105999010D01*
X191390358Y-105887068D01*
X191103460Y-105830000D01*
X190810940Y-105830000D01*
X190524042Y-105887068D01*
X190253789Y-105999010D01*
X190010568Y-106161525D01*
X189803725Y-106368368D01*
X189687200Y-106542760D01*
X189570675Y-106368368D01*
X189363832Y-106161525D01*
X189120611Y-105999010D01*
X188850358Y-105887068D01*
X188563460Y-105830000D01*
X188270940Y-105830000D01*
X187984042Y-105887068D01*
X187713789Y-105999010D01*
X187470568Y-106161525D01*
X187263725Y-106368368D01*
X187147200Y-106542760D01*
X187030675Y-106368368D01*
X186823832Y-106161525D01*
X186580611Y-105999010D01*
X186310358Y-105887068D01*
X186023460Y-105830000D01*
X185730940Y-105830000D01*
X185444042Y-105887068D01*
X185173789Y-105999010D01*
X184930568Y-106161525D01*
X184723725Y-106368368D01*
X184607200Y-106542760D01*
X184490675Y-106368368D01*
X184283832Y-106161525D01*
X184040611Y-105999010D01*
X183770358Y-105887068D01*
X183483460Y-105830000D01*
X183190940Y-105830000D01*
X182904042Y-105887068D01*
X182633789Y-105999010D01*
X182390568Y-106161525D01*
X182183725Y-106368368D01*
X182067200Y-106542760D01*
X181950675Y-106368368D01*
X181743832Y-106161525D01*
X181500611Y-105999010D01*
X181230358Y-105887068D01*
X180943460Y-105830000D01*
X180650940Y-105830000D01*
X180364042Y-105887068D01*
X180093789Y-105999010D01*
X179850568Y-106161525D01*
X179643725Y-106368368D01*
X179527200Y-106542760D01*
X179410675Y-106368368D01*
X179203832Y-106161525D01*
X178960611Y-105999010D01*
X178690358Y-105887068D01*
X178403460Y-105830000D01*
X178110940Y-105830000D01*
X177824042Y-105887068D01*
X177553789Y-105999010D01*
X177310568Y-106161525D01*
X177103725Y-106368368D01*
X176987200Y-106542760D01*
X176870675Y-106368368D01*
X176663832Y-106161525D01*
X176420611Y-105999010D01*
X176150358Y-105887068D01*
X175863460Y-105830000D01*
X175570940Y-105830000D01*
X175284042Y-105887068D01*
X175013789Y-105999010D01*
X174770568Y-106161525D01*
X174563725Y-106368368D01*
X174447200Y-106542760D01*
X174330675Y-106368368D01*
X174123832Y-106161525D01*
X173880611Y-105999010D01*
X173610358Y-105887068D01*
X173323460Y-105830000D01*
X173030940Y-105830000D01*
X172744042Y-105887068D01*
X172473789Y-105999010D01*
X172230568Y-106161525D01*
X172023725Y-106368368D01*
X171907200Y-106542760D01*
X171790675Y-106368368D01*
X171583832Y-106161525D01*
X171340611Y-105999010D01*
X171070358Y-105887068D01*
X170783460Y-105830000D01*
X170490940Y-105830000D01*
X170204042Y-105887068D01*
X169933789Y-105999010D01*
X169690568Y-106161525D01*
X169558713Y-106293380D01*
X169536702Y-106220820D01*
X169477737Y-106110506D01*
X169398385Y-106013815D01*
X169301694Y-105934463D01*
X169191380Y-105875498D01*
X169071682Y-105839188D01*
X168947200Y-105826928D01*
X167247200Y-105826928D01*
X167122718Y-105839188D01*
X167003020Y-105875498D01*
X166892706Y-105934463D01*
X166796015Y-106013815D01*
X166716663Y-106110506D01*
X166657698Y-106220820D01*
X166621388Y-106340518D01*
X166609128Y-106465000D01*
X127762000Y-106465000D01*
X127762000Y-100737300D01*
X190548628Y-100737300D01*
X190548628Y-102437300D01*
X190560888Y-102561782D01*
X190597198Y-102681480D01*
X190656163Y-102791794D01*
X190735515Y-102888485D01*
X190832206Y-102967837D01*
X190942520Y-103026802D01*
X191062218Y-103063112D01*
X191186700Y-103075372D01*
X192886700Y-103075372D01*
X193011182Y-103063112D01*
X193130880Y-103026802D01*
X193241194Y-102967837D01*
X193337885Y-102888485D01*
X193417237Y-102791794D01*
X193476202Y-102681480D01*
X193512512Y-102561782D01*
X193524772Y-102437300D01*
X193524772Y-100737300D01*
X193512512Y-100612818D01*
X193476202Y-100493120D01*
X193417237Y-100382806D01*
X193337885Y-100286115D01*
X193241194Y-100206763D01*
X193130880Y-100147798D01*
X193058320Y-100125787D01*
X193190175Y-99993932D01*
X193352690Y-99750711D01*
X193464632Y-99480458D01*
X193521700Y-99193560D01*
X193521700Y-98901040D01*
X193464632Y-98614142D01*
X193352690Y-98343889D01*
X193190175Y-98100668D01*
X192983332Y-97893825D01*
X192808940Y-97777300D01*
X192983332Y-97660775D01*
X193190175Y-97453932D01*
X193352690Y-97210711D01*
X193464632Y-96940458D01*
X193521700Y-96653560D01*
X193521700Y-96361040D01*
X193464632Y-96074142D01*
X193352690Y-95803889D01*
X193190175Y-95560668D01*
X192983332Y-95353825D01*
X192808940Y-95237300D01*
X192983332Y-95120775D01*
X193190175Y-94913932D01*
X193352690Y-94670711D01*
X193464632Y-94400458D01*
X193521700Y-94113560D01*
X193521700Y-93821040D01*
X193464632Y-93534142D01*
X193352690Y-93263889D01*
X193190175Y-93020668D01*
X192983332Y-92813825D01*
X192808940Y-92697300D01*
X192983332Y-92580775D01*
X193190175Y-92373932D01*
X193352690Y-92130711D01*
X193464632Y-91860458D01*
X193521700Y-91573560D01*
X193521700Y-91281040D01*
X193464632Y-90994142D01*
X193352690Y-90723889D01*
X193190175Y-90480668D01*
X192983332Y-90273825D01*
X192808940Y-90157300D01*
X192983332Y-90040775D01*
X193190175Y-89833932D01*
X193352690Y-89590711D01*
X193464632Y-89320458D01*
X193521700Y-89033560D01*
X193521700Y-88741040D01*
X193464632Y-88454142D01*
X193352690Y-88183889D01*
X193190175Y-87940668D01*
X192983332Y-87733825D01*
X192808940Y-87617300D01*
X192983332Y-87500775D01*
X193190175Y-87293932D01*
X193352690Y-87050711D01*
X193464632Y-86780458D01*
X193521700Y-86493560D01*
X193521700Y-86201040D01*
X193464632Y-85914142D01*
X193352690Y-85643889D01*
X193190175Y-85400668D01*
X192983332Y-85193825D01*
X192808940Y-85077300D01*
X192983332Y-84960775D01*
X193190175Y-84753932D01*
X193352690Y-84510711D01*
X193464632Y-84240458D01*
X193521700Y-83953560D01*
X193521700Y-83661040D01*
X193464632Y-83374142D01*
X193352690Y-83103889D01*
X193190175Y-82860668D01*
X192983332Y-82653825D01*
X192808940Y-82537300D01*
X192983332Y-82420775D01*
X193190175Y-82213932D01*
X193352690Y-81970711D01*
X193464632Y-81700458D01*
X193521700Y-81413560D01*
X193521700Y-81121040D01*
X193464632Y-80834142D01*
X193352690Y-80563889D01*
X193190175Y-80320668D01*
X192983332Y-80113825D01*
X192808940Y-79997300D01*
X192983332Y-79880775D01*
X193190175Y-79673932D01*
X193352690Y-79430711D01*
X193464632Y-79160458D01*
X193521700Y-78873560D01*
X193521700Y-78581040D01*
X193464632Y-78294142D01*
X193352690Y-78023889D01*
X193190175Y-77780668D01*
X192983332Y-77573825D01*
X192808940Y-77457300D01*
X192983332Y-77340775D01*
X193190175Y-77133932D01*
X193352690Y-76890711D01*
X193464632Y-76620458D01*
X193521700Y-76333560D01*
X193521700Y-76041040D01*
X193464632Y-75754142D01*
X193352690Y-75483889D01*
X193190175Y-75240668D01*
X192983332Y-75033825D01*
X192808940Y-74917300D01*
X192983332Y-74800775D01*
X193190175Y-74593932D01*
X193352690Y-74350711D01*
X193464632Y-74080458D01*
X193521700Y-73793560D01*
X193521700Y-73501040D01*
X193464632Y-73214142D01*
X193352690Y-72943889D01*
X193190175Y-72700668D01*
X192983332Y-72493825D01*
X192808940Y-72377300D01*
X192983332Y-72260775D01*
X193190175Y-72053932D01*
X193352690Y-71810711D01*
X193464632Y-71540458D01*
X193521700Y-71253560D01*
X193521700Y-70961040D01*
X193464632Y-70674142D01*
X193352690Y-70403889D01*
X193190175Y-70160668D01*
X192983332Y-69953825D01*
X192808940Y-69837300D01*
X192983332Y-69720775D01*
X193190175Y-69513932D01*
X193352690Y-69270711D01*
X193464632Y-69000458D01*
X193521700Y-68713560D01*
X193521700Y-68421040D01*
X193464632Y-68134142D01*
X193352690Y-67863889D01*
X193190175Y-67620668D01*
X192983332Y-67413825D01*
X192740111Y-67251310D01*
X192469858Y-67139368D01*
X192182960Y-67082300D01*
X191890440Y-67082300D01*
X191603542Y-67139368D01*
X191333289Y-67251310D01*
X191090068Y-67413825D01*
X190883225Y-67620668D01*
X190720710Y-67863889D01*
X190608768Y-68134142D01*
X190551700Y-68421040D01*
X190551700Y-68713560D01*
X190608768Y-69000458D01*
X190720710Y-69270711D01*
X190883225Y-69513932D01*
X191090068Y-69720775D01*
X191264460Y-69837300D01*
X191090068Y-69953825D01*
X190883225Y-70160668D01*
X190720710Y-70403889D01*
X190608768Y-70674142D01*
X190551700Y-70961040D01*
X190551700Y-71253560D01*
X190608768Y-71540458D01*
X190720710Y-71810711D01*
X190883225Y-72053932D01*
X191090068Y-72260775D01*
X191264460Y-72377300D01*
X191090068Y-72493825D01*
X190883225Y-72700668D01*
X190720710Y-72943889D01*
X190608768Y-73214142D01*
X190551700Y-73501040D01*
X190551700Y-73793560D01*
X190608768Y-74080458D01*
X190720710Y-74350711D01*
X190883225Y-74593932D01*
X191090068Y-74800775D01*
X191264460Y-74917300D01*
X191090068Y-75033825D01*
X190883225Y-75240668D01*
X190720710Y-75483889D01*
X190608768Y-75754142D01*
X190551700Y-76041040D01*
X190551700Y-76333560D01*
X190608768Y-76620458D01*
X190720710Y-76890711D01*
X190883225Y-77133932D01*
X191090068Y-77340775D01*
X191264460Y-77457300D01*
X191090068Y-77573825D01*
X190883225Y-77780668D01*
X190720710Y-78023889D01*
X190608768Y-78294142D01*
X190551700Y-78581040D01*
X190551700Y-78873560D01*
X190608768Y-79160458D01*
X190720710Y-79430711D01*
X190883225Y-79673932D01*
X191090068Y-79880775D01*
X191264460Y-79997300D01*
X191090068Y-80113825D01*
X190883225Y-80320668D01*
X190720710Y-80563889D01*
X190608768Y-80834142D01*
X190551700Y-81121040D01*
X190551700Y-81413560D01*
X190608768Y-81700458D01*
X190720710Y-81970711D01*
X190883225Y-82213932D01*
X191090068Y-82420775D01*
X191264460Y-82537300D01*
X191090068Y-82653825D01*
X190883225Y-82860668D01*
X190720710Y-83103889D01*
X190608768Y-83374142D01*
X190551700Y-83661040D01*
X190551700Y-83953560D01*
X190608768Y-84240458D01*
X190720710Y-84510711D01*
X190883225Y-84753932D01*
X191090068Y-84960775D01*
X191264460Y-85077300D01*
X191090068Y-85193825D01*
X190883225Y-85400668D01*
X190720710Y-85643889D01*
X190608768Y-85914142D01*
X190551700Y-86201040D01*
X190551700Y-86493560D01*
X190608768Y-86780458D01*
X190720710Y-87050711D01*
X190883225Y-87293932D01*
X191090068Y-87500775D01*
X191264460Y-87617300D01*
X191090068Y-87733825D01*
X190883225Y-87940668D01*
X190720710Y-88183889D01*
X190608768Y-88454142D01*
X190551700Y-88741040D01*
X190551700Y-89033560D01*
X190608768Y-89320458D01*
X190720710Y-89590711D01*
X190883225Y-89833932D01*
X191090068Y-90040775D01*
X191264460Y-90157300D01*
X191090068Y-90273825D01*
X190883225Y-90480668D01*
X190720710Y-90723889D01*
X190608768Y-90994142D01*
X190551700Y-91281040D01*
X190551700Y-91573560D01*
X190608768Y-91860458D01*
X190720710Y-92130711D01*
X190883225Y-92373932D01*
X191090068Y-92580775D01*
X191264460Y-92697300D01*
X191090068Y-92813825D01*
X190883225Y-93020668D01*
X190720710Y-93263889D01*
X190608768Y-93534142D01*
X190551700Y-93821040D01*
X190551700Y-94113560D01*
X190608768Y-94400458D01*
X190720710Y-94670711D01*
X190883225Y-94913932D01*
X191090068Y-95120775D01*
X191264460Y-95237300D01*
X191090068Y-95353825D01*
X190883225Y-95560668D01*
X190720710Y-95803889D01*
X190608768Y-96074142D01*
X190551700Y-96361040D01*
X190551700Y-96653560D01*
X190608768Y-96940458D01*
X190720710Y-97210711D01*
X190883225Y-97453932D01*
X191090068Y-97660775D01*
X191264460Y-97777300D01*
X191090068Y-97893825D01*
X190883225Y-98100668D01*
X190720710Y-98343889D01*
X190608768Y-98614142D01*
X190551700Y-98901040D01*
X190551700Y-99193560D01*
X190608768Y-99480458D01*
X190720710Y-99750711D01*
X190883225Y-99993932D01*
X191015080Y-100125787D01*
X190942520Y-100147798D01*
X190832206Y-100206763D01*
X190735515Y-100286115D01*
X190656163Y-100382806D01*
X190597198Y-100493120D01*
X190560888Y-100612818D01*
X190548628Y-100737300D01*
X127762000Y-100737300D01*
X127762000Y-68141640D01*
X159716100Y-68141640D01*
X159716100Y-68434160D01*
X159773168Y-68721058D01*
X159885110Y-68991311D01*
X160047625Y-69234532D01*
X160254468Y-69441375D01*
X160497689Y-69603890D01*
X160767942Y-69715832D01*
X161054840Y-69772900D01*
X161347360Y-69772900D01*
X161634258Y-69715832D01*
X161904511Y-69603890D01*
X161988306Y-69547900D01*
X162953894Y-69547900D01*
X163037689Y-69603890D01*
X163307942Y-69715832D01*
X163594840Y-69772900D01*
X163887360Y-69772900D01*
X164174258Y-69715832D01*
X164444511Y-69603890D01*
X164528306Y-69547900D01*
X165271100Y-69547900D01*
X165271101Y-70981483D01*
X165266214Y-71031100D01*
X165285715Y-71229094D01*
X165343468Y-71419479D01*
X165343469Y-71419480D01*
X165437254Y-71594940D01*
X165563468Y-71748733D01*
X165602001Y-71780356D01*
X170262200Y-76440555D01*
X170262201Y-84379543D01*
X166491001Y-88150744D01*
X166452468Y-88182367D01*
X166420845Y-88220900D01*
X166420844Y-88220901D01*
X166326254Y-88336160D01*
X166232468Y-88511621D01*
X166174715Y-88702006D01*
X166155214Y-88900000D01*
X166160101Y-88949617D01*
X166160100Y-90245007D01*
X166174715Y-90393393D01*
X166232468Y-90583779D01*
X166326253Y-90759240D01*
X166357301Y-90797072D01*
X166357300Y-92303219D01*
X166315833Y-92365279D01*
X166252889Y-92517240D01*
X166220800Y-92678560D01*
X166220800Y-92843040D01*
X166252889Y-93004360D01*
X166315833Y-93156321D01*
X166407213Y-93293081D01*
X166523519Y-93409387D01*
X166660279Y-93500767D01*
X166812240Y-93563711D01*
X166973560Y-93595800D01*
X167138040Y-93595800D01*
X167299360Y-93563711D01*
X167451321Y-93500767D01*
X167588081Y-93409387D01*
X167704387Y-93293081D01*
X167795767Y-93156321D01*
X167858711Y-93004360D01*
X167890800Y-92843040D01*
X167890800Y-92678560D01*
X167858711Y-92517240D01*
X167795767Y-92365279D01*
X167754300Y-92303219D01*
X167754300Y-91355300D01*
X168542828Y-91355300D01*
X168545900Y-92919550D01*
X168596281Y-92969931D01*
X168646073Y-93090141D01*
X168834736Y-93094183D01*
X168850619Y-93078300D01*
X169010059Y-93078300D01*
X169008684Y-93142469D01*
X169071515Y-93205300D01*
X169008684Y-93268131D01*
X169010059Y-93332300D01*
X168850619Y-93332300D01*
X168834736Y-93316417D01*
X168646073Y-93320459D01*
X168596596Y-93440354D01*
X168545900Y-93491050D01*
X168542828Y-95055300D01*
X168555088Y-95179782D01*
X168591398Y-95299480D01*
X168650363Y-95409794D01*
X168729715Y-95506485D01*
X168826406Y-95585837D01*
X168936720Y-95644802D01*
X169056418Y-95681112D01*
X169180900Y-95693372D01*
X170745150Y-95690300D01*
X170795531Y-95639919D01*
X170915741Y-95590127D01*
X170919783Y-95401464D01*
X170903900Y-95385581D01*
X170903900Y-95226141D01*
X170968069Y-95227516D01*
X171030900Y-95164685D01*
X171093731Y-95227516D01*
X171157900Y-95226141D01*
X171157900Y-95385581D01*
X171142017Y-95401464D01*
X171146059Y-95590127D01*
X171265954Y-95639604D01*
X171316650Y-95690300D01*
X172880900Y-95693372D01*
X173005382Y-95681112D01*
X173125080Y-95644802D01*
X173235394Y-95585837D01*
X173332085Y-95506485D01*
X173411437Y-95409794D01*
X173470402Y-95299480D01*
X173506712Y-95179782D01*
X173518972Y-95055300D01*
X173515900Y-93491050D01*
X173465519Y-93440669D01*
X173415727Y-93320459D01*
X173227064Y-93316417D01*
X173211181Y-93332300D01*
X173051741Y-93332300D01*
X173053116Y-93268131D01*
X172990285Y-93205300D01*
X173053116Y-93142469D01*
X173051741Y-93078300D01*
X173211181Y-93078300D01*
X173227064Y-93094183D01*
X173415727Y-93090141D01*
X173465204Y-92970246D01*
X173515900Y-92919550D01*
X173518972Y-91355300D01*
X173506712Y-91230818D01*
X173470402Y-91111120D01*
X173411437Y-91000806D01*
X173332085Y-90904115D01*
X173235394Y-90824763D01*
X173125080Y-90765798D01*
X173005382Y-90729488D01*
X172880900Y-90717228D01*
X171316650Y-90720300D01*
X171266269Y-90770681D01*
X171146059Y-90820473D01*
X171142017Y-91009136D01*
X171157900Y-91025019D01*
X171157900Y-91184459D01*
X171093731Y-91183084D01*
X171030900Y-91245915D01*
X170968069Y-91183084D01*
X170903900Y-91184459D01*
X170903900Y-91025019D01*
X170919783Y-91009136D01*
X170915741Y-90820473D01*
X170795846Y-90770996D01*
X170745150Y-90720300D01*
X169180900Y-90717228D01*
X169056418Y-90729488D01*
X168936720Y-90765798D01*
X168826406Y-90824763D01*
X168729715Y-90904115D01*
X168650363Y-91000806D01*
X168591398Y-91111120D01*
X168555088Y-91230818D01*
X168542828Y-91355300D01*
X167754300Y-91355300D01*
X167754300Y-91022538D01*
X167887733Y-90913033D01*
X168013947Y-90759240D01*
X168107732Y-90583780D01*
X168165485Y-90393394D01*
X168180100Y-90245008D01*
X168180100Y-89554360D01*
X169280400Y-89554360D01*
X169280400Y-89718840D01*
X169312489Y-89880160D01*
X169375433Y-90032121D01*
X169466813Y-90168881D01*
X169583119Y-90285187D01*
X169719879Y-90376567D01*
X169871840Y-90439511D01*
X170033160Y-90471600D01*
X170197640Y-90471600D01*
X170358960Y-90439511D01*
X170510921Y-90376567D01*
X170591988Y-90322400D01*
X171055919Y-90322400D01*
X171117979Y-90363867D01*
X171269940Y-90426811D01*
X171431260Y-90458900D01*
X171595740Y-90458900D01*
X171757060Y-90426811D01*
X171909021Y-90363867D01*
X172045781Y-90272487D01*
X172162087Y-90156181D01*
X172253467Y-90019421D01*
X172316411Y-89867460D01*
X172348500Y-89706140D01*
X172348500Y-89541660D01*
X172316411Y-89380340D01*
X172253467Y-89228379D01*
X172162087Y-89091619D01*
X172045781Y-88975313D01*
X171909021Y-88883933D01*
X171757060Y-88820989D01*
X171595740Y-88788900D01*
X171431260Y-88788900D01*
X171269940Y-88820989D01*
X171117979Y-88883933D01*
X171055919Y-88925400D01*
X170553974Y-88925400D01*
X170510921Y-88896633D01*
X170358960Y-88833689D01*
X170197640Y-88801600D01*
X170033160Y-88801600D01*
X169871840Y-88833689D01*
X169719879Y-88896633D01*
X169583119Y-88988013D01*
X169466813Y-89104319D01*
X169375433Y-89241079D01*
X169312489Y-89393040D01*
X169280400Y-89554360D01*
X168180100Y-89554360D01*
X168180100Y-89318355D01*
X171272200Y-86226255D01*
X173278844Y-88232899D01*
X175240601Y-90194657D01*
X175240600Y-95530144D01*
X173139845Y-97630900D01*
X170663792Y-97630900D01*
X170515406Y-97645515D01*
X170325020Y-97703268D01*
X170149560Y-97797053D01*
X169995767Y-97923267D01*
X169869553Y-98077060D01*
X169775768Y-98252520D01*
X169718015Y-98442906D01*
X169698514Y-98640900D01*
X169718015Y-98838894D01*
X169775768Y-99029280D01*
X169869553Y-99204740D01*
X169995767Y-99358533D01*
X170149560Y-99484747D01*
X170325020Y-99578532D01*
X170515406Y-99636285D01*
X170663792Y-99650900D01*
X173508592Y-99650900D01*
X173558200Y-99655786D01*
X173756194Y-99636285D01*
X173946580Y-99578532D01*
X174122040Y-99484747D01*
X174275833Y-99358533D01*
X174307461Y-99319994D01*
X176929700Y-96697756D01*
X176968233Y-96666133D01*
X177094447Y-96512340D01*
X177188232Y-96336880D01*
X177245985Y-96146494D01*
X177260600Y-95998108D01*
X177260600Y-95998107D01*
X177265486Y-95948500D01*
X177260600Y-95898892D01*
X177260600Y-90786300D01*
X178721008Y-90786300D01*
X178869394Y-90771685D01*
X179059780Y-90713932D01*
X179235240Y-90620147D01*
X179389033Y-90493933D01*
X179515247Y-90340140D01*
X179609032Y-90164680D01*
X179666785Y-89974294D01*
X179686286Y-89776300D01*
X179666785Y-89578306D01*
X179609032Y-89387920D01*
X179515247Y-89212460D01*
X179389033Y-89058667D01*
X179235240Y-88932453D01*
X179059780Y-88838668D01*
X178869394Y-88780915D01*
X178721008Y-88766300D01*
X176668956Y-88766300D01*
X174707199Y-86804544D01*
X172282200Y-84379545D01*
X172282200Y-76071804D01*
X172287086Y-76022199D01*
X172282200Y-75972592D01*
X172267585Y-75824206D01*
X172209832Y-75633820D01*
X172116047Y-75458360D01*
X171989833Y-75304567D01*
X171951294Y-75272939D01*
X167291100Y-70612745D01*
X167291100Y-69378007D01*
X167434575Y-69234532D01*
X167556295Y-69052366D01*
X167625922Y-69169255D01*
X167820831Y-69385488D01*
X168054180Y-69559541D01*
X168317001Y-69684725D01*
X168464210Y-69729376D01*
X168694100Y-69608055D01*
X168694100Y-68414900D01*
X168948100Y-68414900D01*
X168948100Y-69608055D01*
X169177990Y-69729376D01*
X169325199Y-69684725D01*
X169588020Y-69559541D01*
X169821369Y-69385488D01*
X170016278Y-69169255D01*
X170091100Y-69043645D01*
X170165922Y-69169255D01*
X170360831Y-69385488D01*
X170594180Y-69559541D01*
X170857001Y-69684725D01*
X171004210Y-69729376D01*
X171234100Y-69608055D01*
X171234100Y-68414900D01*
X171488100Y-68414900D01*
X171488100Y-69608055D01*
X171717990Y-69729376D01*
X171865199Y-69684725D01*
X172128020Y-69559541D01*
X172361369Y-69385488D01*
X172556278Y-69169255D01*
X172631100Y-69043645D01*
X172705922Y-69169255D01*
X172900831Y-69385488D01*
X173134180Y-69559541D01*
X173397001Y-69684725D01*
X173544210Y-69729376D01*
X173774100Y-69608055D01*
X173774100Y-68414900D01*
X171488100Y-68414900D01*
X171234100Y-68414900D01*
X168948100Y-68414900D01*
X168694100Y-68414900D01*
X168674100Y-68414900D01*
X168674100Y-68160900D01*
X168694100Y-68160900D01*
X168694100Y-66967745D01*
X168948100Y-66967745D01*
X168948100Y-68160900D01*
X171234100Y-68160900D01*
X171234100Y-66967745D01*
X171488100Y-66967745D01*
X171488100Y-68160900D01*
X173774100Y-68160900D01*
X173774100Y-66967745D01*
X174028100Y-66967745D01*
X174028100Y-68160900D01*
X174048100Y-68160900D01*
X174048100Y-68414900D01*
X174028100Y-68414900D01*
X174028100Y-69608055D01*
X174257990Y-69729376D01*
X174405199Y-69684725D01*
X174668020Y-69559541D01*
X174901369Y-69385488D01*
X175096278Y-69169255D01*
X175165905Y-69052366D01*
X175287625Y-69234532D01*
X175494468Y-69441375D01*
X175737689Y-69603890D01*
X176007942Y-69715832D01*
X176294840Y-69772900D01*
X176587360Y-69772900D01*
X176874258Y-69715832D01*
X177144511Y-69603890D01*
X177387732Y-69441375D01*
X177594575Y-69234532D01*
X177711100Y-69060140D01*
X177827625Y-69234532D01*
X178034468Y-69441375D01*
X178277689Y-69603890D01*
X178547942Y-69715832D01*
X178834840Y-69772900D01*
X179127360Y-69772900D01*
X179414258Y-69715832D01*
X179684511Y-69603890D01*
X179927732Y-69441375D01*
X180134575Y-69234532D01*
X180251100Y-69060140D01*
X180367625Y-69234532D01*
X180574468Y-69441375D01*
X180817689Y-69603890D01*
X181087942Y-69715832D01*
X181374840Y-69772900D01*
X181667360Y-69772900D01*
X181954258Y-69715832D01*
X182224511Y-69603890D01*
X182467732Y-69441375D01*
X182599587Y-69309520D01*
X182621598Y-69382080D01*
X182680563Y-69492394D01*
X182759915Y-69589085D01*
X182856606Y-69668437D01*
X182966920Y-69727402D01*
X183086618Y-69763712D01*
X183211100Y-69775972D01*
X184911100Y-69775972D01*
X185035582Y-69763712D01*
X185155280Y-69727402D01*
X185265594Y-69668437D01*
X185362285Y-69589085D01*
X185441637Y-69492394D01*
X185500602Y-69382080D01*
X185536912Y-69262382D01*
X185549172Y-69137900D01*
X185549172Y-67437900D01*
X185536912Y-67313418D01*
X185500602Y-67193720D01*
X185441637Y-67083406D01*
X185362285Y-66986715D01*
X185265594Y-66907363D01*
X185155280Y-66848398D01*
X185035582Y-66812088D01*
X184911100Y-66799828D01*
X183211100Y-66799828D01*
X183086618Y-66812088D01*
X182966920Y-66848398D01*
X182856606Y-66907363D01*
X182759915Y-66986715D01*
X182680563Y-67083406D01*
X182621598Y-67193720D01*
X182599587Y-67266280D01*
X182467732Y-67134425D01*
X182224511Y-66971910D01*
X181954258Y-66859968D01*
X181667360Y-66802900D01*
X181374840Y-66802900D01*
X181087942Y-66859968D01*
X180817689Y-66971910D01*
X180574468Y-67134425D01*
X180367625Y-67341268D01*
X180251100Y-67515660D01*
X180134575Y-67341268D01*
X179927732Y-67134425D01*
X179684511Y-66971910D01*
X179414258Y-66859968D01*
X179127360Y-66802900D01*
X178834840Y-66802900D01*
X178547942Y-66859968D01*
X178277689Y-66971910D01*
X178034468Y-67134425D01*
X177827625Y-67341268D01*
X177711100Y-67515660D01*
X177594575Y-67341268D01*
X177387732Y-67134425D01*
X177144511Y-66971910D01*
X176874258Y-66859968D01*
X176587360Y-66802900D01*
X176294840Y-66802900D01*
X176007942Y-66859968D01*
X175737689Y-66971910D01*
X175494468Y-67134425D01*
X175287625Y-67341268D01*
X175165905Y-67523434D01*
X175096278Y-67406545D01*
X174901369Y-67190312D01*
X174668020Y-67016259D01*
X174405199Y-66891075D01*
X174257990Y-66846424D01*
X174028100Y-66967745D01*
X173774100Y-66967745D01*
X173544210Y-66846424D01*
X173397001Y-66891075D01*
X173134180Y-67016259D01*
X172900831Y-67190312D01*
X172705922Y-67406545D01*
X172631100Y-67532155D01*
X172556278Y-67406545D01*
X172361369Y-67190312D01*
X172128020Y-67016259D01*
X171865199Y-66891075D01*
X171717990Y-66846424D01*
X171488100Y-66967745D01*
X171234100Y-66967745D01*
X171004210Y-66846424D01*
X170857001Y-66891075D01*
X170594180Y-67016259D01*
X170360831Y-67190312D01*
X170165922Y-67406545D01*
X170091100Y-67532155D01*
X170016278Y-67406545D01*
X169821369Y-67190312D01*
X169588020Y-67016259D01*
X169325199Y-66891075D01*
X169177990Y-66846424D01*
X168948100Y-66967745D01*
X168694100Y-66967745D01*
X168464210Y-66846424D01*
X168317001Y-66891075D01*
X168054180Y-67016259D01*
X167820831Y-67190312D01*
X167625922Y-67406545D01*
X167556295Y-67523434D01*
X167434575Y-67341268D01*
X167227732Y-67134425D01*
X166984511Y-66971910D01*
X166714258Y-66859968D01*
X166427360Y-66802900D01*
X166134840Y-66802900D01*
X165847942Y-66859968D01*
X165577689Y-66971910D01*
X165493894Y-67027900D01*
X164528306Y-67027900D01*
X164444511Y-66971910D01*
X164174258Y-66859968D01*
X163887360Y-66802900D01*
X163594840Y-66802900D01*
X163307942Y-66859968D01*
X163037689Y-66971910D01*
X162953894Y-67027900D01*
X161988306Y-67027900D01*
X161904511Y-66971910D01*
X161634258Y-66859968D01*
X161347360Y-66802900D01*
X161054840Y-66802900D01*
X160767942Y-66859968D01*
X160497689Y-66971910D01*
X160254468Y-67134425D01*
X160047625Y-67341268D01*
X159885110Y-67584489D01*
X159773168Y-67854742D01*
X159716100Y-68141640D01*
X127762000Y-68141640D01*
X127762000Y-65532000D01*
X193548000Y-65532000D01*
X193548000Y-116078000D01*
%TA.AperFunction,Conductor*%
D19*
G36*
X193548000Y-116078000D02*
G01*
X127762000Y-116078000D01*
X127762000Y-111227500D01*
X138758028Y-111227500D01*
X138758028Y-112927500D01*
X138770288Y-113051982D01*
X138806598Y-113171680D01*
X138865563Y-113281994D01*
X138944915Y-113378685D01*
X139041606Y-113458037D01*
X139151920Y-113517002D01*
X139271618Y-113553312D01*
X139396100Y-113565572D01*
X141096100Y-113565572D01*
X141220582Y-113553312D01*
X141340280Y-113517002D01*
X141450594Y-113458037D01*
X141547285Y-113378685D01*
X141626637Y-113281994D01*
X141685602Y-113171680D01*
X141707613Y-113099120D01*
X141839468Y-113230975D01*
X142082689Y-113393490D01*
X142352942Y-113505432D01*
X142639840Y-113562500D01*
X142932360Y-113562500D01*
X143219258Y-113505432D01*
X143489511Y-113393490D01*
X143732732Y-113230975D01*
X143939575Y-113024132D01*
X144056100Y-112849740D01*
X144172625Y-113024132D01*
X144379468Y-113230975D01*
X144622689Y-113393490D01*
X144892942Y-113505432D01*
X145179840Y-113562500D01*
X145472360Y-113562500D01*
X145759258Y-113505432D01*
X146029511Y-113393490D01*
X146272732Y-113230975D01*
X146479575Y-113024132D01*
X146596100Y-112849740D01*
X146712625Y-113024132D01*
X146919468Y-113230975D01*
X147162689Y-113393490D01*
X147432942Y-113505432D01*
X147719840Y-113562500D01*
X148012360Y-113562500D01*
X148299258Y-113505432D01*
X148569511Y-113393490D01*
X148812732Y-113230975D01*
X149019575Y-113024132D01*
X149136100Y-112849740D01*
X149252625Y-113024132D01*
X149459468Y-113230975D01*
X149702689Y-113393490D01*
X149972942Y-113505432D01*
X150259840Y-113562500D01*
X150552360Y-113562500D01*
X150839258Y-113505432D01*
X151109511Y-113393490D01*
X151352732Y-113230975D01*
X151559575Y-113024132D01*
X151676100Y-112849740D01*
X151792625Y-113024132D01*
X151999468Y-113230975D01*
X152242689Y-113393490D01*
X152512942Y-113505432D01*
X152799840Y-113562500D01*
X153092360Y-113562500D01*
X153379258Y-113505432D01*
X153649511Y-113393490D01*
X153892732Y-113230975D01*
X154099575Y-113024132D01*
X154216100Y-112849740D01*
X154332625Y-113024132D01*
X154539468Y-113230975D01*
X154782689Y-113393490D01*
X155052942Y-113505432D01*
X155339840Y-113562500D01*
X155632360Y-113562500D01*
X155919258Y-113505432D01*
X156189511Y-113393490D01*
X156432732Y-113230975D01*
X156639575Y-113024132D01*
X156756100Y-112849740D01*
X156872625Y-113024132D01*
X157079468Y-113230975D01*
X157322689Y-113393490D01*
X157592942Y-113505432D01*
X157879840Y-113562500D01*
X158172360Y-113562500D01*
X158459258Y-113505432D01*
X158729511Y-113393490D01*
X158972732Y-113230975D01*
X159179575Y-113024132D01*
X159296100Y-112849740D01*
X159412625Y-113024132D01*
X159619468Y-113230975D01*
X159862689Y-113393490D01*
X160132942Y-113505432D01*
X160419840Y-113562500D01*
X160712360Y-113562500D01*
X160999258Y-113505432D01*
X161269511Y-113393490D01*
X161512732Y-113230975D01*
X161719575Y-113024132D01*
X161836100Y-112849740D01*
X161952625Y-113024132D01*
X162159468Y-113230975D01*
X162402689Y-113393490D01*
X162672942Y-113505432D01*
X162959840Y-113562500D01*
X163252360Y-113562500D01*
X163539258Y-113505432D01*
X163809511Y-113393490D01*
X164052732Y-113230975D01*
X164259575Y-113024132D01*
X164376100Y-112849740D01*
X164492625Y-113024132D01*
X164699468Y-113230975D01*
X164942689Y-113393490D01*
X165212942Y-113505432D01*
X165499840Y-113562500D01*
X165792360Y-113562500D01*
X166079258Y-113505432D01*
X166349511Y-113393490D01*
X166592732Y-113230975D01*
X166799575Y-113024132D01*
X166916100Y-112849740D01*
X167032625Y-113024132D01*
X167239468Y-113230975D01*
X167482689Y-113393490D01*
X167752942Y-113505432D01*
X168039840Y-113562500D01*
X168332360Y-113562500D01*
X168619258Y-113505432D01*
X168889511Y-113393490D01*
X169132732Y-113230975D01*
X169339575Y-113024132D01*
X169456100Y-112849740D01*
X169572625Y-113024132D01*
X169779468Y-113230975D01*
X170022689Y-113393490D01*
X170292942Y-113505432D01*
X170579840Y-113562500D01*
X170872360Y-113562500D01*
X171159258Y-113505432D01*
X171429511Y-113393490D01*
X171672732Y-113230975D01*
X171879575Y-113024132D01*
X171996100Y-112849740D01*
X172112625Y-113024132D01*
X172319468Y-113230975D01*
X172562689Y-113393490D01*
X172832942Y-113505432D01*
X173119840Y-113562500D01*
X173412360Y-113562500D01*
X173699258Y-113505432D01*
X173969511Y-113393490D01*
X174212732Y-113230975D01*
X174419575Y-113024132D01*
X174582090Y-112780911D01*
X174694032Y-112510658D01*
X174751100Y-112223760D01*
X174751100Y-111931240D01*
X174694032Y-111644342D01*
X174582090Y-111374089D01*
X174419575Y-111130868D01*
X174212732Y-110924025D01*
X173969511Y-110761510D01*
X173699258Y-110649568D01*
X173412360Y-110592500D01*
X173119840Y-110592500D01*
X172832942Y-110649568D01*
X172562689Y-110761510D01*
X172319468Y-110924025D01*
X172112625Y-111130868D01*
X171996100Y-111305260D01*
X171879575Y-111130868D01*
X171672732Y-110924025D01*
X171429511Y-110761510D01*
X171159258Y-110649568D01*
X170872360Y-110592500D01*
X170579840Y-110592500D01*
X170292942Y-110649568D01*
X170022689Y-110761510D01*
X169779468Y-110924025D01*
X169572625Y-111130868D01*
X169456100Y-111305260D01*
X169339575Y-111130868D01*
X169132732Y-110924025D01*
X168889511Y-110761510D01*
X168619258Y-110649568D01*
X168332360Y-110592500D01*
X168039840Y-110592500D01*
X167752942Y-110649568D01*
X167482689Y-110761510D01*
X167239468Y-110924025D01*
X167032625Y-111130868D01*
X166916100Y-111305260D01*
X166799575Y-111130868D01*
X166592732Y-110924025D01*
X166349511Y-110761510D01*
X166079258Y-110649568D01*
X165792360Y-110592500D01*
X165499840Y-110592500D01*
X165212942Y-110649568D01*
X164942689Y-110761510D01*
X164699468Y-110924025D01*
X164492625Y-111130868D01*
X164376100Y-111305260D01*
X164259575Y-111130868D01*
X164052732Y-110924025D01*
X163809511Y-110761510D01*
X163539258Y-110649568D01*
X163252360Y-110592500D01*
X162959840Y-110592500D01*
X162672942Y-110649568D01*
X162402689Y-110761510D01*
X162159468Y-110924025D01*
X161952625Y-111130868D01*
X161836100Y-111305260D01*
X161719575Y-111130868D01*
X161512732Y-110924025D01*
X161269511Y-110761510D01*
X160999258Y-110649568D01*
X160712360Y-110592500D01*
X160419840Y-110592500D01*
X160132942Y-110649568D01*
X159862689Y-110761510D01*
X159619468Y-110924025D01*
X159412625Y-111130868D01*
X159296100Y-111305260D01*
X159179575Y-111130868D01*
X158972732Y-110924025D01*
X158729511Y-110761510D01*
X158459258Y-110649568D01*
X158172360Y-110592500D01*
X157879840Y-110592500D01*
X157592942Y-110649568D01*
X157322689Y-110761510D01*
X157079468Y-110924025D01*
X156872625Y-111130868D01*
X156756100Y-111305260D01*
X156639575Y-111130868D01*
X156432732Y-110924025D01*
X156189511Y-110761510D01*
X155919258Y-110649568D01*
X155632360Y-110592500D01*
X155339840Y-110592500D01*
X155052942Y-110649568D01*
X154782689Y-110761510D01*
X154539468Y-110924025D01*
X154332625Y-111130868D01*
X154216100Y-111305260D01*
X154099575Y-111130868D01*
X153892732Y-110924025D01*
X153649511Y-110761510D01*
X153379258Y-110649568D01*
X153092360Y-110592500D01*
X152799840Y-110592500D01*
X152512942Y-110649568D01*
X152242689Y-110761510D01*
X151999468Y-110924025D01*
X151792625Y-111130868D01*
X151676100Y-111305260D01*
X151559575Y-111130868D01*
X151352732Y-110924025D01*
X151109511Y-110761510D01*
X150839258Y-110649568D01*
X150552360Y-110592500D01*
X150259840Y-110592500D01*
X149972942Y-110649568D01*
X149702689Y-110761510D01*
X149459468Y-110924025D01*
X149252625Y-111130868D01*
X149136100Y-111305260D01*
X149019575Y-111130868D01*
X148812732Y-110924025D01*
X148569511Y-110761510D01*
X148299258Y-110649568D01*
X148012360Y-110592500D01*
X147719840Y-110592500D01*
X147432942Y-110649568D01*
X147162689Y-110761510D01*
X146919468Y-110924025D01*
X146712625Y-111130868D01*
X146596100Y-111305260D01*
X146479575Y-111130868D01*
X146272732Y-110924025D01*
X146029511Y-110761510D01*
X145759258Y-110649568D01*
X145472360Y-110592500D01*
X145179840Y-110592500D01*
X144892942Y-110649568D01*
X144622689Y-110761510D01*
X144379468Y-110924025D01*
X144172625Y-111130868D01*
X144056100Y-111305260D01*
X143939575Y-111130868D01*
X143732732Y-110924025D01*
X143489511Y-110761510D01*
X143219258Y-110649568D01*
X142932360Y-110592500D01*
X142639840Y-110592500D01*
X142352942Y-110649568D01*
X142082689Y-110761510D01*
X141839468Y-110924025D01*
X141707613Y-111055880D01*
X141685602Y-110983320D01*
X141626637Y-110873006D01*
X141547285Y-110776315D01*
X141450594Y-110696963D01*
X141340280Y-110637998D01*
X141220582Y-110601688D01*
X141096100Y-110589428D01*
X139396100Y-110589428D01*
X139271618Y-110601688D01*
X139151920Y-110637998D01*
X139041606Y-110696963D01*
X138944915Y-110776315D01*
X138865563Y-110873006D01*
X138806598Y-110983320D01*
X138770288Y-111103018D01*
X138758028Y-111227500D01*
X127762000Y-111227500D01*
X127762000Y-106465000D01*
X166609128Y-106465000D01*
X166609128Y-108165000D01*
X166621388Y-108289482D01*
X166657698Y-108409180D01*
X166716663Y-108519494D01*
X166796015Y-108616185D01*
X166892706Y-108695537D01*
X167003020Y-108754502D01*
X167122718Y-108790812D01*
X167247200Y-108803072D01*
X168947200Y-108803072D01*
X169071682Y-108790812D01*
X169191380Y-108754502D01*
X169301694Y-108695537D01*
X169398385Y-108616185D01*
X169477737Y-108519494D01*
X169536702Y-108409180D01*
X169558713Y-108336620D01*
X169690568Y-108468475D01*
X169933789Y-108630990D01*
X170204042Y-108742932D01*
X170490940Y-108800000D01*
X170783460Y-108800000D01*
X171070358Y-108742932D01*
X171340611Y-108630990D01*
X171583832Y-108468475D01*
X171790675Y-108261632D01*
X171907200Y-108087240D01*
X172023725Y-108261632D01*
X172230568Y-108468475D01*
X172473789Y-108630990D01*
X172744042Y-108742932D01*
X173030940Y-108800000D01*
X173323460Y-108800000D01*
X173610358Y-108742932D01*
X173880611Y-108630990D01*
X174123832Y-108468475D01*
X174330675Y-108261632D01*
X174447200Y-108087240D01*
X174563725Y-108261632D01*
X174770568Y-108468475D01*
X175013789Y-108630990D01*
X175284042Y-108742932D01*
X175570940Y-108800000D01*
X175863460Y-108800000D01*
X176150358Y-108742932D01*
X176420611Y-108630990D01*
X176663832Y-108468475D01*
X176870675Y-108261632D01*
X176987200Y-108087240D01*
X177103725Y-108261632D01*
X177310568Y-108468475D01*
X177553789Y-108630990D01*
X177824042Y-108742932D01*
X178110940Y-108800000D01*
X178403460Y-108800000D01*
X178690358Y-108742932D01*
X178960611Y-108630990D01*
X179203832Y-108468475D01*
X179410675Y-108261632D01*
X179527200Y-108087240D01*
X179643725Y-108261632D01*
X179850568Y-108468475D01*
X180093789Y-108630990D01*
X180364042Y-108742932D01*
X180650940Y-108800000D01*
X180943460Y-108800000D01*
X181230358Y-108742932D01*
X181500611Y-108630990D01*
X181743832Y-108468475D01*
X181950675Y-108261632D01*
X182067200Y-108087240D01*
X182183725Y-108261632D01*
X182390568Y-108468475D01*
X182633789Y-108630990D01*
X182904042Y-108742932D01*
X183190940Y-108800000D01*
X183483460Y-108800000D01*
X183770358Y-108742932D01*
X184040611Y-108630990D01*
X184283832Y-108468475D01*
X184490675Y-108261632D01*
X184607200Y-108087240D01*
X184723725Y-108261632D01*
X184930568Y-108468475D01*
X185173789Y-108630990D01*
X185444042Y-108742932D01*
X185730940Y-108800000D01*
X186023460Y-108800000D01*
X186310358Y-108742932D01*
X186580611Y-108630990D01*
X186823832Y-108468475D01*
X187030675Y-108261632D01*
X187147200Y-108087240D01*
X187263725Y-108261632D01*
X187470568Y-108468475D01*
X187713789Y-108630990D01*
X187984042Y-108742932D01*
X188270940Y-108800000D01*
X188563460Y-108800000D01*
X188850358Y-108742932D01*
X189120611Y-108630990D01*
X189363832Y-108468475D01*
X189570675Y-108261632D01*
X189687200Y-108087240D01*
X189803725Y-108261632D01*
X190010568Y-108468475D01*
X190253789Y-108630990D01*
X190524042Y-108742932D01*
X190810940Y-108800000D01*
X191103460Y-108800000D01*
X191390358Y-108742932D01*
X191660611Y-108630990D01*
X191903832Y-108468475D01*
X192110675Y-108261632D01*
X192273190Y-108018411D01*
X192385132Y-107748158D01*
X192442200Y-107461260D01*
X192442200Y-107168740D01*
X192385132Y-106881842D01*
X192273190Y-106611589D01*
X192110675Y-106368368D01*
X191903832Y-106161525D01*
X191660611Y-105999010D01*
X191390358Y-105887068D01*
X191103460Y-105830000D01*
X190810940Y-105830000D01*
X190524042Y-105887068D01*
X190253789Y-105999010D01*
X190010568Y-106161525D01*
X189803725Y-106368368D01*
X189687200Y-106542760D01*
X189570675Y-106368368D01*
X189363832Y-106161525D01*
X189120611Y-105999010D01*
X188850358Y-105887068D01*
X188563460Y-105830000D01*
X188270940Y-105830000D01*
X187984042Y-105887068D01*
X187713789Y-105999010D01*
X187470568Y-106161525D01*
X187263725Y-106368368D01*
X187147200Y-106542760D01*
X187030675Y-106368368D01*
X186823832Y-106161525D01*
X186580611Y-105999010D01*
X186310358Y-105887068D01*
X186023460Y-105830000D01*
X185730940Y-105830000D01*
X185444042Y-105887068D01*
X185173789Y-105999010D01*
X184930568Y-106161525D01*
X184723725Y-106368368D01*
X184607200Y-106542760D01*
X184490675Y-106368368D01*
X184283832Y-106161525D01*
X184040611Y-105999010D01*
X183770358Y-105887068D01*
X183483460Y-105830000D01*
X183190940Y-105830000D01*
X182904042Y-105887068D01*
X182633789Y-105999010D01*
X182390568Y-106161525D01*
X182183725Y-106368368D01*
X182067200Y-106542760D01*
X181950675Y-106368368D01*
X181743832Y-106161525D01*
X181500611Y-105999010D01*
X181230358Y-105887068D01*
X180943460Y-105830000D01*
X180650940Y-105830000D01*
X180364042Y-105887068D01*
X180093789Y-105999010D01*
X179850568Y-106161525D01*
X179643725Y-106368368D01*
X179527200Y-106542760D01*
X179410675Y-106368368D01*
X179203832Y-106161525D01*
X178960611Y-105999010D01*
X178690358Y-105887068D01*
X178403460Y-105830000D01*
X178110940Y-105830000D01*
X177824042Y-105887068D01*
X177553789Y-105999010D01*
X177310568Y-106161525D01*
X177103725Y-106368368D01*
X176987200Y-106542760D01*
X176870675Y-106368368D01*
X176663832Y-106161525D01*
X176420611Y-105999010D01*
X176150358Y-105887068D01*
X175863460Y-105830000D01*
X175570940Y-105830000D01*
X175284042Y-105887068D01*
X175013789Y-105999010D01*
X174770568Y-106161525D01*
X174563725Y-106368368D01*
X174447200Y-106542760D01*
X174330675Y-106368368D01*
X174123832Y-106161525D01*
X173880611Y-105999010D01*
X173610358Y-105887068D01*
X173323460Y-105830000D01*
X173030940Y-105830000D01*
X172744042Y-105887068D01*
X172473789Y-105999010D01*
X172230568Y-106161525D01*
X172023725Y-106368368D01*
X171907200Y-106542760D01*
X171790675Y-106368368D01*
X171583832Y-106161525D01*
X171340611Y-105999010D01*
X171070358Y-105887068D01*
X170783460Y-105830000D01*
X170490940Y-105830000D01*
X170204042Y-105887068D01*
X169933789Y-105999010D01*
X169690568Y-106161525D01*
X169558713Y-106293380D01*
X169536702Y-106220820D01*
X169477737Y-106110506D01*
X169398385Y-106013815D01*
X169301694Y-105934463D01*
X169191380Y-105875498D01*
X169071682Y-105839188D01*
X168947200Y-105826928D01*
X167247200Y-105826928D01*
X167122718Y-105839188D01*
X167003020Y-105875498D01*
X166892706Y-105934463D01*
X166796015Y-106013815D01*
X166716663Y-106110506D01*
X166657698Y-106220820D01*
X166621388Y-106340518D01*
X166609128Y-106465000D01*
X127762000Y-106465000D01*
X127762000Y-100737300D01*
X190548628Y-100737300D01*
X190548628Y-102437300D01*
X190560888Y-102561782D01*
X190597198Y-102681480D01*
X190656163Y-102791794D01*
X190735515Y-102888485D01*
X190832206Y-102967837D01*
X190942520Y-103026802D01*
X191062218Y-103063112D01*
X191186700Y-103075372D01*
X192886700Y-103075372D01*
X193011182Y-103063112D01*
X193130880Y-103026802D01*
X193241194Y-102967837D01*
X193337885Y-102888485D01*
X193417237Y-102791794D01*
X193476202Y-102681480D01*
X193512512Y-102561782D01*
X193524772Y-102437300D01*
X193524772Y-100737300D01*
X193512512Y-100612818D01*
X193476202Y-100493120D01*
X193417237Y-100382806D01*
X193337885Y-100286115D01*
X193241194Y-100206763D01*
X193130880Y-100147798D01*
X193058320Y-100125787D01*
X193190175Y-99993932D01*
X193352690Y-99750711D01*
X193464632Y-99480458D01*
X193521700Y-99193560D01*
X193521700Y-98901040D01*
X193464632Y-98614142D01*
X193352690Y-98343889D01*
X193190175Y-98100668D01*
X192983332Y-97893825D01*
X192808940Y-97777300D01*
X192983332Y-97660775D01*
X193190175Y-97453932D01*
X193352690Y-97210711D01*
X193464632Y-96940458D01*
X193521700Y-96653560D01*
X193521700Y-96361040D01*
X193464632Y-96074142D01*
X193352690Y-95803889D01*
X193190175Y-95560668D01*
X192983332Y-95353825D01*
X192808940Y-95237300D01*
X192983332Y-95120775D01*
X193190175Y-94913932D01*
X193352690Y-94670711D01*
X193464632Y-94400458D01*
X193521700Y-94113560D01*
X193521700Y-93821040D01*
X193464632Y-93534142D01*
X193352690Y-93263889D01*
X193190175Y-93020668D01*
X192983332Y-92813825D01*
X192808940Y-92697300D01*
X192983332Y-92580775D01*
X193190175Y-92373932D01*
X193352690Y-92130711D01*
X193464632Y-91860458D01*
X193521700Y-91573560D01*
X193521700Y-91281040D01*
X193464632Y-90994142D01*
X193352690Y-90723889D01*
X193190175Y-90480668D01*
X192983332Y-90273825D01*
X192808940Y-90157300D01*
X192983332Y-90040775D01*
X193190175Y-89833932D01*
X193352690Y-89590711D01*
X193464632Y-89320458D01*
X193521700Y-89033560D01*
X193521700Y-88741040D01*
X193464632Y-88454142D01*
X193352690Y-88183889D01*
X193190175Y-87940668D01*
X192983332Y-87733825D01*
X192808940Y-87617300D01*
X192983332Y-87500775D01*
X193190175Y-87293932D01*
X193352690Y-87050711D01*
X193464632Y-86780458D01*
X193521700Y-86493560D01*
X193521700Y-86201040D01*
X193464632Y-85914142D01*
X193352690Y-85643889D01*
X193190175Y-85400668D01*
X192983332Y-85193825D01*
X192808940Y-85077300D01*
X192983332Y-84960775D01*
X193190175Y-84753932D01*
X193352690Y-84510711D01*
X193464632Y-84240458D01*
X193521700Y-83953560D01*
X193521700Y-83661040D01*
X193464632Y-83374142D01*
X193352690Y-83103889D01*
X193190175Y-82860668D01*
X192983332Y-82653825D01*
X192808940Y-82537300D01*
X192983332Y-82420775D01*
X193190175Y-82213932D01*
X193352690Y-81970711D01*
X193464632Y-81700458D01*
X193521700Y-81413560D01*
X193521700Y-81121040D01*
X193464632Y-80834142D01*
X193352690Y-80563889D01*
X193190175Y-80320668D01*
X192983332Y-80113825D01*
X192808940Y-79997300D01*
X192983332Y-79880775D01*
X193190175Y-79673932D01*
X193352690Y-79430711D01*
X193464632Y-79160458D01*
X193521700Y-78873560D01*
X193521700Y-78581040D01*
X193464632Y-78294142D01*
X193352690Y-78023889D01*
X193190175Y-77780668D01*
X192983332Y-77573825D01*
X192808940Y-77457300D01*
X192983332Y-77340775D01*
X193190175Y-77133932D01*
X193352690Y-76890711D01*
X193464632Y-76620458D01*
X193521700Y-76333560D01*
X193521700Y-76041040D01*
X193464632Y-75754142D01*
X193352690Y-75483889D01*
X193190175Y-75240668D01*
X192983332Y-75033825D01*
X192808940Y-74917300D01*
X192983332Y-74800775D01*
X193190175Y-74593932D01*
X193352690Y-74350711D01*
X193464632Y-74080458D01*
X193521700Y-73793560D01*
X193521700Y-73501040D01*
X193464632Y-73214142D01*
X193352690Y-72943889D01*
X193190175Y-72700668D01*
X192983332Y-72493825D01*
X192808940Y-72377300D01*
X192983332Y-72260775D01*
X193190175Y-72053932D01*
X193352690Y-71810711D01*
X193464632Y-71540458D01*
X193521700Y-71253560D01*
X193521700Y-70961040D01*
X193464632Y-70674142D01*
X193352690Y-70403889D01*
X193190175Y-70160668D01*
X192983332Y-69953825D01*
X192808940Y-69837300D01*
X192983332Y-69720775D01*
X193190175Y-69513932D01*
X193352690Y-69270711D01*
X193464632Y-69000458D01*
X193521700Y-68713560D01*
X193521700Y-68421040D01*
X193464632Y-68134142D01*
X193352690Y-67863889D01*
X193190175Y-67620668D01*
X192983332Y-67413825D01*
X192740111Y-67251310D01*
X192469858Y-67139368D01*
X192182960Y-67082300D01*
X191890440Y-67082300D01*
X191603542Y-67139368D01*
X191333289Y-67251310D01*
X191090068Y-67413825D01*
X190883225Y-67620668D01*
X190720710Y-67863889D01*
X190608768Y-68134142D01*
X190551700Y-68421040D01*
X190551700Y-68713560D01*
X190608768Y-69000458D01*
X190720710Y-69270711D01*
X190883225Y-69513932D01*
X191090068Y-69720775D01*
X191264460Y-69837300D01*
X191090068Y-69953825D01*
X190883225Y-70160668D01*
X190720710Y-70403889D01*
X190608768Y-70674142D01*
X190551700Y-70961040D01*
X190551700Y-71253560D01*
X190608768Y-71540458D01*
X190720710Y-71810711D01*
X190883225Y-72053932D01*
X191090068Y-72260775D01*
X191264460Y-72377300D01*
X191090068Y-72493825D01*
X190883225Y-72700668D01*
X190720710Y-72943889D01*
X190608768Y-73214142D01*
X190551700Y-73501040D01*
X190551700Y-73793560D01*
X190608768Y-74080458D01*
X190720710Y-74350711D01*
X190883225Y-74593932D01*
X191090068Y-74800775D01*
X191264460Y-74917300D01*
X191090068Y-75033825D01*
X190883225Y-75240668D01*
X190720710Y-75483889D01*
X190608768Y-75754142D01*
X190551700Y-76041040D01*
X190551700Y-76333560D01*
X190608768Y-76620458D01*
X190720710Y-76890711D01*
X190883225Y-77133932D01*
X191090068Y-77340775D01*
X191264460Y-77457300D01*
X191090068Y-77573825D01*
X190883225Y-77780668D01*
X190720710Y-78023889D01*
X190608768Y-78294142D01*
X190551700Y-78581040D01*
X190551700Y-78873560D01*
X190608768Y-79160458D01*
X190720710Y-79430711D01*
X190883225Y-79673932D01*
X191090068Y-79880775D01*
X191264460Y-79997300D01*
X191090068Y-80113825D01*
X190883225Y-80320668D01*
X190720710Y-80563889D01*
X190608768Y-80834142D01*
X190551700Y-81121040D01*
X190551700Y-81413560D01*
X190608768Y-81700458D01*
X190720710Y-81970711D01*
X190883225Y-82213932D01*
X191090068Y-82420775D01*
X191264460Y-82537300D01*
X191090068Y-82653825D01*
X190883225Y-82860668D01*
X190720710Y-83103889D01*
X190608768Y-83374142D01*
X190551700Y-83661040D01*
X190551700Y-83953560D01*
X190608768Y-84240458D01*
X190720710Y-84510711D01*
X190883225Y-84753932D01*
X191090068Y-84960775D01*
X191264460Y-85077300D01*
X191090068Y-85193825D01*
X190883225Y-85400668D01*
X190720710Y-85643889D01*
X190608768Y-85914142D01*
X190551700Y-86201040D01*
X190551700Y-86493560D01*
X190608768Y-86780458D01*
X190720710Y-87050711D01*
X190883225Y-87293932D01*
X191090068Y-87500775D01*
X191264460Y-87617300D01*
X191090068Y-87733825D01*
X190883225Y-87940668D01*
X190720710Y-88183889D01*
X190608768Y-88454142D01*
X190551700Y-88741040D01*
X190551700Y-89033560D01*
X190608768Y-89320458D01*
X190720710Y-89590711D01*
X190883225Y-89833932D01*
X191090068Y-90040775D01*
X191264460Y-90157300D01*
X191090068Y-90273825D01*
X190883225Y-90480668D01*
X190720710Y-90723889D01*
X190608768Y-90994142D01*
X190551700Y-91281040D01*
X190551700Y-91573560D01*
X190608768Y-91860458D01*
X190720710Y-92130711D01*
X190883225Y-92373932D01*
X191090068Y-92580775D01*
X191264460Y-92697300D01*
X191090068Y-92813825D01*
X190883225Y-93020668D01*
X190720710Y-93263889D01*
X190608768Y-93534142D01*
X190551700Y-93821040D01*
X190551700Y-94113560D01*
X190608768Y-94400458D01*
X190720710Y-94670711D01*
X190883225Y-94913932D01*
X191090068Y-95120775D01*
X191264460Y-95237300D01*
X191090068Y-95353825D01*
X190883225Y-95560668D01*
X190720710Y-95803889D01*
X190608768Y-96074142D01*
X190551700Y-96361040D01*
X190551700Y-96653560D01*
X190608768Y-96940458D01*
X190720710Y-97210711D01*
X190883225Y-97453932D01*
X191090068Y-97660775D01*
X191264460Y-97777300D01*
X191090068Y-97893825D01*
X190883225Y-98100668D01*
X190720710Y-98343889D01*
X190608768Y-98614142D01*
X190551700Y-98901040D01*
X190551700Y-99193560D01*
X190608768Y-99480458D01*
X190720710Y-99750711D01*
X190883225Y-99993932D01*
X191015080Y-100125787D01*
X190942520Y-100147798D01*
X190832206Y-100206763D01*
X190735515Y-100286115D01*
X190656163Y-100382806D01*
X190597198Y-100493120D01*
X190560888Y-100612818D01*
X190548628Y-100737300D01*
X127762000Y-100737300D01*
X127762000Y-68141640D01*
X159716100Y-68141640D01*
X159716100Y-68434160D01*
X159773168Y-68721058D01*
X159885110Y-68991311D01*
X160047625Y-69234532D01*
X160254468Y-69441375D01*
X160497689Y-69603890D01*
X160767942Y-69715832D01*
X161054840Y-69772900D01*
X161347360Y-69772900D01*
X161634258Y-69715832D01*
X161904511Y-69603890D01*
X161988306Y-69547900D01*
X162953894Y-69547900D01*
X163037689Y-69603890D01*
X163307942Y-69715832D01*
X163594840Y-69772900D01*
X163887360Y-69772900D01*
X164174258Y-69715832D01*
X164444511Y-69603890D01*
X164528306Y-69547900D01*
X165271100Y-69547900D01*
X165271101Y-70981483D01*
X165266214Y-71031100D01*
X165285715Y-71229094D01*
X165343468Y-71419479D01*
X165343469Y-71419480D01*
X165437254Y-71594940D01*
X165563468Y-71748733D01*
X165602001Y-71780356D01*
X170262200Y-76440555D01*
X170262201Y-84379543D01*
X166491001Y-88150744D01*
X166452468Y-88182367D01*
X166420845Y-88220900D01*
X166420844Y-88220901D01*
X166326254Y-88336160D01*
X166232468Y-88511621D01*
X166174715Y-88702006D01*
X166155214Y-88900000D01*
X166160101Y-88949617D01*
X166160100Y-90245007D01*
X166174715Y-90393393D01*
X166232468Y-90583779D01*
X166326253Y-90759240D01*
X166357301Y-90797072D01*
X166357300Y-92303219D01*
X166315833Y-92365279D01*
X166252889Y-92517240D01*
X166220800Y-92678560D01*
X166220800Y-92843040D01*
X166252889Y-93004360D01*
X166315833Y-93156321D01*
X166407213Y-93293081D01*
X166523519Y-93409387D01*
X166660279Y-93500767D01*
X166812240Y-93563711D01*
X166973560Y-93595800D01*
X167138040Y-93595800D01*
X167299360Y-93563711D01*
X167451321Y-93500767D01*
X167588081Y-93409387D01*
X167704387Y-93293081D01*
X167795767Y-93156321D01*
X167858711Y-93004360D01*
X167890800Y-92843040D01*
X167890800Y-92678560D01*
X167858711Y-92517240D01*
X167795767Y-92365279D01*
X167754300Y-92303219D01*
X167754300Y-91355300D01*
X168542828Y-91355300D01*
X168545900Y-92919550D01*
X168596281Y-92969931D01*
X168646073Y-93090141D01*
X168834736Y-93094183D01*
X168850619Y-93078300D01*
X169010059Y-93078300D01*
X169008684Y-93142469D01*
X169071515Y-93205300D01*
X169008684Y-93268131D01*
X169010059Y-93332300D01*
X168850619Y-93332300D01*
X168834736Y-93316417D01*
X168646073Y-93320459D01*
X168596596Y-93440354D01*
X168545900Y-93491050D01*
X168542828Y-95055300D01*
X168555088Y-95179782D01*
X168591398Y-95299480D01*
X168650363Y-95409794D01*
X168729715Y-95506485D01*
X168826406Y-95585837D01*
X168936720Y-95644802D01*
X169056418Y-95681112D01*
X169180900Y-95693372D01*
X170745150Y-95690300D01*
X170795531Y-95639919D01*
X170915741Y-95590127D01*
X170919783Y-95401464D01*
X170903900Y-95385581D01*
X170903900Y-95226141D01*
X170968069Y-95227516D01*
X171030900Y-95164685D01*
X171093731Y-95227516D01*
X171157900Y-95226141D01*
X171157900Y-95385581D01*
X171142017Y-95401464D01*
X171146059Y-95590127D01*
X171265954Y-95639604D01*
X171316650Y-95690300D01*
X172880900Y-95693372D01*
X173005382Y-95681112D01*
X173125080Y-95644802D01*
X173235394Y-95585837D01*
X173332085Y-95506485D01*
X173411437Y-95409794D01*
X173470402Y-95299480D01*
X173506712Y-95179782D01*
X173518972Y-95055300D01*
X173515900Y-93491050D01*
X173465519Y-93440669D01*
X173415727Y-93320459D01*
X173227064Y-93316417D01*
X173211181Y-93332300D01*
X173051741Y-93332300D01*
X173053116Y-93268131D01*
X172990285Y-93205300D01*
X173053116Y-93142469D01*
X173051741Y-93078300D01*
X173211181Y-93078300D01*
X173227064Y-93094183D01*
X173415727Y-93090141D01*
X173465204Y-92970246D01*
X173515900Y-92919550D01*
X173518972Y-91355300D01*
X173506712Y-91230818D01*
X173470402Y-91111120D01*
X173411437Y-91000806D01*
X173332085Y-90904115D01*
X173235394Y-90824763D01*
X173125080Y-90765798D01*
X173005382Y-90729488D01*
X172880900Y-90717228D01*
X171316650Y-90720300D01*
X171266269Y-90770681D01*
X171146059Y-90820473D01*
X171142017Y-91009136D01*
X171157900Y-91025019D01*
X171157900Y-91184459D01*
X171093731Y-91183084D01*
X171030900Y-91245915D01*
X170968069Y-91183084D01*
X170903900Y-91184459D01*
X170903900Y-91025019D01*
X170919783Y-91009136D01*
X170915741Y-90820473D01*
X170795846Y-90770996D01*
X170745150Y-90720300D01*
X169180900Y-90717228D01*
X169056418Y-90729488D01*
X168936720Y-90765798D01*
X168826406Y-90824763D01*
X168729715Y-90904115D01*
X168650363Y-91000806D01*
X168591398Y-91111120D01*
X168555088Y-91230818D01*
X168542828Y-91355300D01*
X167754300Y-91355300D01*
X167754300Y-91022538D01*
X167887733Y-90913033D01*
X168013947Y-90759240D01*
X168107732Y-90583780D01*
X168165485Y-90393394D01*
X168180100Y-90245008D01*
X168180100Y-89554360D01*
X169280400Y-89554360D01*
X169280400Y-89718840D01*
X169312489Y-89880160D01*
X169375433Y-90032121D01*
X169466813Y-90168881D01*
X169583119Y-90285187D01*
X169719879Y-90376567D01*
X169871840Y-90439511D01*
X170033160Y-90471600D01*
X170197640Y-90471600D01*
X170358960Y-90439511D01*
X170510921Y-90376567D01*
X170591988Y-90322400D01*
X171055919Y-90322400D01*
X171117979Y-90363867D01*
X171269940Y-90426811D01*
X171431260Y-90458900D01*
X171595740Y-90458900D01*
X171757060Y-90426811D01*
X171909021Y-90363867D01*
X172045781Y-90272487D01*
X172162087Y-90156181D01*
X172253467Y-90019421D01*
X172316411Y-89867460D01*
X172348500Y-89706140D01*
X172348500Y-89541660D01*
X172316411Y-89380340D01*
X172253467Y-89228379D01*
X172162087Y-89091619D01*
X172045781Y-88975313D01*
X171909021Y-88883933D01*
X171757060Y-88820989D01*
X171595740Y-88788900D01*
X171431260Y-88788900D01*
X171269940Y-88820989D01*
X171117979Y-88883933D01*
X171055919Y-88925400D01*
X170553974Y-88925400D01*
X170510921Y-88896633D01*
X170358960Y-88833689D01*
X170197640Y-88801600D01*
X170033160Y-88801600D01*
X169871840Y-88833689D01*
X169719879Y-88896633D01*
X169583119Y-88988013D01*
X169466813Y-89104319D01*
X169375433Y-89241079D01*
X169312489Y-89393040D01*
X169280400Y-89554360D01*
X168180100Y-89554360D01*
X168180100Y-89318355D01*
X171272200Y-86226255D01*
X173278844Y-88232899D01*
X175240601Y-90194657D01*
X175240600Y-95530144D01*
X173139845Y-97630900D01*
X170663792Y-97630900D01*
X170515406Y-97645515D01*
X170325020Y-97703268D01*
X170149560Y-97797053D01*
X169995767Y-97923267D01*
X169869553Y-98077060D01*
X169775768Y-98252520D01*
X169718015Y-98442906D01*
X169698514Y-98640900D01*
X169718015Y-98838894D01*
X169775768Y-99029280D01*
X169869553Y-99204740D01*
X169995767Y-99358533D01*
X170149560Y-99484747D01*
X170325020Y-99578532D01*
X170515406Y-99636285D01*
X170663792Y-99650900D01*
X173508592Y-99650900D01*
X173558200Y-99655786D01*
X173756194Y-99636285D01*
X173946580Y-99578532D01*
X174122040Y-99484747D01*
X174275833Y-99358533D01*
X174307461Y-99319994D01*
X176929700Y-96697756D01*
X176968233Y-96666133D01*
X177094447Y-96512340D01*
X177188232Y-96336880D01*
X177245985Y-96146494D01*
X177260600Y-95998108D01*
X177260600Y-95998107D01*
X177265486Y-95948500D01*
X177260600Y-95898892D01*
X177260600Y-90786300D01*
X178721008Y-90786300D01*
X178869394Y-90771685D01*
X179059780Y-90713932D01*
X179235240Y-90620147D01*
X179389033Y-90493933D01*
X179515247Y-90340140D01*
X179609032Y-90164680D01*
X179666785Y-89974294D01*
X179686286Y-89776300D01*
X179666785Y-89578306D01*
X179609032Y-89387920D01*
X179515247Y-89212460D01*
X179389033Y-89058667D01*
X179235240Y-88932453D01*
X179059780Y-88838668D01*
X178869394Y-88780915D01*
X178721008Y-88766300D01*
X176668956Y-88766300D01*
X174707199Y-86804544D01*
X172282200Y-84379545D01*
X172282200Y-76071804D01*
X172287086Y-76022199D01*
X172282200Y-75972592D01*
X172267585Y-75824206D01*
X172209832Y-75633820D01*
X172116047Y-75458360D01*
X171989833Y-75304567D01*
X171951294Y-75272939D01*
X167291100Y-70612745D01*
X167291100Y-69378007D01*
X167434575Y-69234532D01*
X167556295Y-69052366D01*
X167625922Y-69169255D01*
X167820831Y-69385488D01*
X168054180Y-69559541D01*
X168317001Y-69684725D01*
X168464210Y-69729376D01*
X168694100Y-69608055D01*
X168694100Y-68414900D01*
X168948100Y-68414900D01*
X168948100Y-69608055D01*
X169177990Y-69729376D01*
X169325199Y-69684725D01*
X169588020Y-69559541D01*
X169821369Y-69385488D01*
X170016278Y-69169255D01*
X170091100Y-69043645D01*
X170165922Y-69169255D01*
X170360831Y-69385488D01*
X170594180Y-69559541D01*
X170857001Y-69684725D01*
X171004210Y-69729376D01*
X171234100Y-69608055D01*
X171234100Y-68414900D01*
X171488100Y-68414900D01*
X171488100Y-69608055D01*
X171717990Y-69729376D01*
X171865199Y-69684725D01*
X172128020Y-69559541D01*
X172361369Y-69385488D01*
X172556278Y-69169255D01*
X172631100Y-69043645D01*
X172705922Y-69169255D01*
X172900831Y-69385488D01*
X173134180Y-69559541D01*
X173397001Y-69684725D01*
X173544210Y-69729376D01*
X173774100Y-69608055D01*
X173774100Y-68414900D01*
X171488100Y-68414900D01*
X171234100Y-68414900D01*
X168948100Y-68414900D01*
X168694100Y-68414900D01*
X168674100Y-68414900D01*
X168674100Y-68160900D01*
X168694100Y-68160900D01*
X168694100Y-66967745D01*
X168948100Y-66967745D01*
X168948100Y-68160900D01*
X171234100Y-68160900D01*
X171234100Y-66967745D01*
X171488100Y-66967745D01*
X171488100Y-68160900D01*
X173774100Y-68160900D01*
X173774100Y-66967745D01*
X174028100Y-66967745D01*
X174028100Y-68160900D01*
X174048100Y-68160900D01*
X174048100Y-68414900D01*
X174028100Y-68414900D01*
X174028100Y-69608055D01*
X174257990Y-69729376D01*
X174405199Y-69684725D01*
X174668020Y-69559541D01*
X174901369Y-69385488D01*
X175096278Y-69169255D01*
X175165905Y-69052366D01*
X175287625Y-69234532D01*
X175494468Y-69441375D01*
X175737689Y-69603890D01*
X176007942Y-69715832D01*
X176294840Y-69772900D01*
X176587360Y-69772900D01*
X176874258Y-69715832D01*
X177144511Y-69603890D01*
X177387732Y-69441375D01*
X177594575Y-69234532D01*
X177711100Y-69060140D01*
X177827625Y-69234532D01*
X178034468Y-69441375D01*
X178277689Y-69603890D01*
X178547942Y-69715832D01*
X178834840Y-69772900D01*
X179127360Y-69772900D01*
X179414258Y-69715832D01*
X179684511Y-69603890D01*
X179927732Y-69441375D01*
X180134575Y-69234532D01*
X180251100Y-69060140D01*
X180367625Y-69234532D01*
X180574468Y-69441375D01*
X180817689Y-69603890D01*
X181087942Y-69715832D01*
X181374840Y-69772900D01*
X181667360Y-69772900D01*
X181954258Y-69715832D01*
X182224511Y-69603890D01*
X182467732Y-69441375D01*
X182599587Y-69309520D01*
X182621598Y-69382080D01*
X182680563Y-69492394D01*
X182759915Y-69589085D01*
X182856606Y-69668437D01*
X182966920Y-69727402D01*
X183086618Y-69763712D01*
X183211100Y-69775972D01*
X184911100Y-69775972D01*
X185035582Y-69763712D01*
X185155280Y-69727402D01*
X185265594Y-69668437D01*
X185362285Y-69589085D01*
X185441637Y-69492394D01*
X185500602Y-69382080D01*
X185536912Y-69262382D01*
X185549172Y-69137900D01*
X185549172Y-67437900D01*
X185536912Y-67313418D01*
X185500602Y-67193720D01*
X185441637Y-67083406D01*
X185362285Y-66986715D01*
X185265594Y-66907363D01*
X185155280Y-66848398D01*
X185035582Y-66812088D01*
X184911100Y-66799828D01*
X183211100Y-66799828D01*
X183086618Y-66812088D01*
X182966920Y-66848398D01*
X182856606Y-66907363D01*
X182759915Y-66986715D01*
X182680563Y-67083406D01*
X182621598Y-67193720D01*
X182599587Y-67266280D01*
X182467732Y-67134425D01*
X182224511Y-66971910D01*
X181954258Y-66859968D01*
X181667360Y-66802900D01*
X181374840Y-66802900D01*
X181087942Y-66859968D01*
X180817689Y-66971910D01*
X180574468Y-67134425D01*
X180367625Y-67341268D01*
X180251100Y-67515660D01*
X180134575Y-67341268D01*
X179927732Y-67134425D01*
X179684511Y-66971910D01*
X179414258Y-66859968D01*
X179127360Y-66802900D01*
X178834840Y-66802900D01*
X178547942Y-66859968D01*
X178277689Y-66971910D01*
X178034468Y-67134425D01*
X177827625Y-67341268D01*
X177711100Y-67515660D01*
X177594575Y-67341268D01*
X177387732Y-67134425D01*
X177144511Y-66971910D01*
X176874258Y-66859968D01*
X176587360Y-66802900D01*
X176294840Y-66802900D01*
X176007942Y-66859968D01*
X175737689Y-66971910D01*
X175494468Y-67134425D01*
X175287625Y-67341268D01*
X175165905Y-67523434D01*
X175096278Y-67406545D01*
X174901369Y-67190312D01*
X174668020Y-67016259D01*
X174405199Y-66891075D01*
X174257990Y-66846424D01*
X174028100Y-66967745D01*
X173774100Y-66967745D01*
X173544210Y-66846424D01*
X173397001Y-66891075D01*
X173134180Y-67016259D01*
X172900831Y-67190312D01*
X172705922Y-67406545D01*
X172631100Y-67532155D01*
X172556278Y-67406545D01*
X172361369Y-67190312D01*
X172128020Y-67016259D01*
X171865199Y-66891075D01*
X171717990Y-66846424D01*
X171488100Y-66967745D01*
X171234100Y-66967745D01*
X171004210Y-66846424D01*
X170857001Y-66891075D01*
X170594180Y-67016259D01*
X170360831Y-67190312D01*
X170165922Y-67406545D01*
X170091100Y-67532155D01*
X170016278Y-67406545D01*
X169821369Y-67190312D01*
X169588020Y-67016259D01*
X169325199Y-66891075D01*
X169177990Y-66846424D01*
X168948100Y-66967745D01*
X168694100Y-66967745D01*
X168464210Y-66846424D01*
X168317001Y-66891075D01*
X168054180Y-67016259D01*
X167820831Y-67190312D01*
X167625922Y-67406545D01*
X167556295Y-67523434D01*
X167434575Y-67341268D01*
X167227732Y-67134425D01*
X166984511Y-66971910D01*
X166714258Y-66859968D01*
X166427360Y-66802900D01*
X166134840Y-66802900D01*
X165847942Y-66859968D01*
X165577689Y-66971910D01*
X165493894Y-67027900D01*
X164528306Y-67027900D01*
X164444511Y-66971910D01*
X164174258Y-66859968D01*
X163887360Y-66802900D01*
X163594840Y-66802900D01*
X163307942Y-66859968D01*
X163037689Y-66971910D01*
X162953894Y-67027900D01*
X161988306Y-67027900D01*
X161904511Y-66971910D01*
X161634258Y-66859968D01*
X161347360Y-66802900D01*
X161054840Y-66802900D01*
X160767942Y-66859968D01*
X160497689Y-66971910D01*
X160254468Y-67134425D01*
X160047625Y-67341268D01*
X159885110Y-67584489D01*
X159773168Y-67854742D01*
X159716100Y-68141640D01*
X127762000Y-68141640D01*
X127762000Y-65532000D01*
X193548000Y-65532000D01*
X193548000Y-116078000D01*
G37*
%TD.AperFunction*%
D18*
X171093731Y-93094183D02*
X171143074Y-93093126D01*
X171142017Y-93142469D01*
X171204848Y-93205300D01*
X171142017Y-93268131D01*
X171143074Y-93317474D01*
X171093731Y-93316417D01*
X171030900Y-93379248D01*
X170968069Y-93316417D01*
X170918726Y-93317474D01*
X170919783Y-93268131D01*
X170856952Y-93205300D01*
X170919783Y-93142469D01*
X170918726Y-93093126D01*
X170968069Y-93094183D01*
X171030900Y-93031352D01*
X171093731Y-93094183D01*
%TA.AperFunction,Conductor*%
D19*
G36*
X171093731Y-93094183D02*
G01*
X171143074Y-93093126D01*
X171142017Y-93142469D01*
X171204848Y-93205300D01*
X171142017Y-93268131D01*
X171143074Y-93317474D01*
X171093731Y-93316417D01*
X171030900Y-93379248D01*
X170968069Y-93316417D01*
X170918726Y-93317474D01*
X170919783Y-93268131D01*
X170856952Y-93205300D01*
X170919783Y-93142469D01*
X170918726Y-93093126D01*
X170968069Y-93094183D01*
X171030900Y-93031352D01*
X171093731Y-93094183D01*
G37*
%TD.AperFunction*%
%TD*%
M02*
