G04 #@! TF.GenerationSoftware,KiCad,Pcbnew,(5.1.12)-1*
G04 #@! TF.CreationDate,2022-01-07T20:34:09-08:00*
G04 #@! TF.ProjectId,schematic,73636865-6d61-4746-9963-2e6b69636164,rev?*
G04 #@! TF.SameCoordinates,Original*
G04 #@! TF.FileFunction,Legend,Top*
G04 #@! TF.FilePolarity,Positive*
%FSLAX46Y46*%
G04 Gerber Fmt 4.6, Leading zero omitted, Abs format (unit mm)*
G04 Created by KiCad (PCBNEW (5.1.12)-1) date 2022-01-07 20:34:09*
%MOMM*%
%LPD*%
G01*
G04 APERTURE LIST*
%ADD10C,0.120000*%
%ADD11C,0.150000*%
G04 APERTURE END LIST*
D10*
G04 #@! TO.C,L2*
X133326000Y-115699000D02*
X135026000Y-115699000D01*
X135026000Y-115699000D02*
X135026000Y-122299000D01*
X135026000Y-122299000D02*
X133326000Y-122299000D01*
X130326000Y-122299000D02*
X128626000Y-122299000D01*
X128626000Y-122299000D02*
X128626000Y-115699000D01*
X128626000Y-115699000D02*
X130326000Y-115699000D01*
G04 #@! TO.C,C5*
X147031252Y-120750000D02*
X146508748Y-120750000D01*
X147031252Y-119280000D02*
X146508748Y-119280000D01*
G04 #@! TO.C,C6*
X135584748Y-124058000D02*
X137007252Y-124058000D01*
X135584748Y-125878000D02*
X137007252Y-125878000D01*
G04 #@! TO.C,R28*
X155094000Y-109891564D02*
X155094000Y-109437436D01*
X156564000Y-109891564D02*
X156564000Y-109437436D01*
G04 #@! TO.C,U4*
X147653500Y-108207500D02*
X146003500Y-108207500D01*
X146003500Y-108207500D02*
X146003500Y-118487500D01*
X146003500Y-118487500D02*
X151303500Y-118487500D01*
X151303500Y-118487500D02*
X151303500Y-108207500D01*
X151303500Y-108207500D02*
X149653500Y-108207500D01*
X149653500Y-108207500D02*
G75*
G02*
X147653500Y-108207500I-1000000J0D01*
G01*
G04 #@! TO.C,R27*
X156437000Y-113326936D02*
X156437000Y-113781064D01*
X154967000Y-113326936D02*
X154967000Y-113781064D01*
G04 #@! TO.C,R29*
X144997436Y-123979000D02*
X145451564Y-123979000D01*
X144997436Y-125449000D02*
X145451564Y-125449000D01*
G04 #@! TO.C,D3*
X142503500Y-114564500D02*
X139563500Y-114564500D01*
X139563500Y-114564500D02*
X139563500Y-120004500D01*
X139563500Y-120004500D02*
X142503500Y-120004500D01*
X142503500Y-120004500D02*
X142503500Y-114564500D01*
X141033500Y-113544500D02*
X141033500Y-114564500D01*
X141033500Y-121024500D02*
X141033500Y-120004500D01*
X142503500Y-115464500D02*
X139563500Y-115464500D01*
X142503500Y-115584500D02*
X139563500Y-115584500D01*
X142503500Y-115344500D02*
X139563500Y-115344500D01*
G04 #@! TO.C,R30*
X146388064Y-122782000D02*
X145933936Y-122782000D01*
X146388064Y-121312000D02*
X145933936Y-121312000D01*
G04 #@! TO.C,J11*
X136846000Y-127130500D02*
X136846000Y-129790500D01*
X144526000Y-127130500D02*
X136846000Y-127130500D01*
X144526000Y-129790500D02*
X136846000Y-129790500D01*
X144526000Y-127130500D02*
X144526000Y-129790500D01*
X145796000Y-127130500D02*
X147126000Y-127130500D01*
X147126000Y-127130500D02*
X147126000Y-128460500D01*
G04 #@! TO.C,C5*
X148618752Y-71791500D02*
X148096248Y-71791500D01*
X148618752Y-70321500D02*
X148096248Y-70321500D01*
G04 #@! TO.C,L2*
X134913500Y-66740500D02*
X136613500Y-66740500D01*
X136613500Y-66740500D02*
X136613500Y-73340500D01*
X136613500Y-73340500D02*
X134913500Y-73340500D01*
X131913500Y-73340500D02*
X130213500Y-73340500D01*
X130213500Y-73340500D02*
X130213500Y-66740500D01*
X130213500Y-66740500D02*
X131913500Y-66740500D01*
G04 #@! TO.C,J11*
X138433500Y-78172000D02*
X138433500Y-80832000D01*
X146113500Y-78172000D02*
X138433500Y-78172000D01*
X146113500Y-80832000D02*
X138433500Y-80832000D01*
X146113500Y-78172000D02*
X146113500Y-80832000D01*
X147383500Y-78172000D02*
X148713500Y-78172000D01*
X148713500Y-78172000D02*
X148713500Y-79502000D01*
G04 #@! TO.C,D3*
X144091000Y-65606000D02*
X141151000Y-65606000D01*
X141151000Y-65606000D02*
X141151000Y-71046000D01*
X141151000Y-71046000D02*
X144091000Y-71046000D01*
X144091000Y-71046000D02*
X144091000Y-65606000D01*
X142621000Y-64586000D02*
X142621000Y-65606000D01*
X142621000Y-72066000D02*
X142621000Y-71046000D01*
X144091000Y-66506000D02*
X141151000Y-66506000D01*
X144091000Y-66626000D02*
X141151000Y-66626000D01*
X144091000Y-66386000D02*
X141151000Y-66386000D01*
G04 #@! TO.C,C6*
X137172248Y-75099500D02*
X138594752Y-75099500D01*
X137172248Y-76919500D02*
X138594752Y-76919500D01*
G04 #@! TO.C,U4*
X149241000Y-59249000D02*
X147591000Y-59249000D01*
X147591000Y-59249000D02*
X147591000Y-69529000D01*
X147591000Y-69529000D02*
X152891000Y-69529000D01*
X152891000Y-69529000D02*
X152891000Y-59249000D01*
X152891000Y-59249000D02*
X151241000Y-59249000D01*
X151241000Y-59249000D02*
G75*
G02*
X149241000Y-59249000I-1000000J0D01*
G01*
G04 #@! TO.C,R27*
X158024500Y-64368436D02*
X158024500Y-64822564D01*
X156554500Y-64368436D02*
X156554500Y-64822564D01*
G04 #@! TO.C,R28*
X156681500Y-60933064D02*
X156681500Y-60478936D01*
X158151500Y-60933064D02*
X158151500Y-60478936D01*
G04 #@! TO.C,R30*
X147975564Y-73823500D02*
X147521436Y-73823500D01*
X147975564Y-72353500D02*
X147521436Y-72353500D01*
G04 #@! TO.C,R29*
X146584936Y-75020500D02*
X147039064Y-75020500D01*
X146584936Y-76490500D02*
X147039064Y-76490500D01*
G04 #@! TO.C,U4*
X116125500Y-97349000D02*
G75*
G02*
X114125500Y-97349000I-1000000J0D01*
G01*
X114125500Y-97349000D02*
X112475500Y-97349000D01*
X112475500Y-97349000D02*
X112475500Y-107629000D01*
X112475500Y-107629000D02*
X117775500Y-107629000D01*
X117775500Y-107629000D02*
X117775500Y-97349000D01*
X117775500Y-97349000D02*
X116125500Y-97349000D01*
G04 #@! TO.C,R30*
X112860064Y-111923500D02*
X112405936Y-111923500D01*
X112860064Y-110453500D02*
X112405936Y-110453500D01*
G04 #@! TO.C,R29*
X111469436Y-113120500D02*
X111923564Y-113120500D01*
X111469436Y-114590500D02*
X111923564Y-114590500D01*
G04 #@! TO.C,R28*
X121566000Y-99033064D02*
X121566000Y-98578936D01*
X123036000Y-99033064D02*
X123036000Y-98578936D01*
G04 #@! TO.C,R27*
X122909000Y-102468436D02*
X122909000Y-102922564D01*
X121439000Y-102468436D02*
X121439000Y-102922564D01*
G04 #@! TO.C,L2*
X99798000Y-104840500D02*
X101498000Y-104840500D01*
X101498000Y-104840500D02*
X101498000Y-111440500D01*
X101498000Y-111440500D02*
X99798000Y-111440500D01*
X96798000Y-111440500D02*
X95098000Y-111440500D01*
X95098000Y-111440500D02*
X95098000Y-104840500D01*
X95098000Y-104840500D02*
X96798000Y-104840500D01*
G04 #@! TO.C,J11*
X103318000Y-116272000D02*
X103318000Y-118932000D01*
X110998000Y-116272000D02*
X103318000Y-116272000D01*
X110998000Y-118932000D02*
X103318000Y-118932000D01*
X110998000Y-116272000D02*
X110998000Y-118932000D01*
X112268000Y-116272000D02*
X113598000Y-116272000D01*
X113598000Y-116272000D02*
X113598000Y-117602000D01*
G04 #@! TO.C,D3*
X108975500Y-103706000D02*
X106035500Y-103706000D01*
X106035500Y-103706000D02*
X106035500Y-109146000D01*
X106035500Y-109146000D02*
X108975500Y-109146000D01*
X108975500Y-109146000D02*
X108975500Y-103706000D01*
X107505500Y-102686000D02*
X107505500Y-103706000D01*
X107505500Y-110166000D02*
X107505500Y-109146000D01*
X108975500Y-104606000D02*
X106035500Y-104606000D01*
X108975500Y-104726000D02*
X106035500Y-104726000D01*
X108975500Y-104486000D02*
X106035500Y-104486000D01*
G04 #@! TO.C,C6*
X102056748Y-113199500D02*
X103479252Y-113199500D01*
X102056748Y-115019500D02*
X103479252Y-115019500D01*
G04 #@! TO.C,C5*
X113503252Y-109891500D02*
X112980748Y-109891500D01*
X113503252Y-108421500D02*
X112980748Y-108421500D01*
G04 #@! TO.C,R4*
X177001500Y-132432248D02*
X177001500Y-132954752D01*
X178471500Y-132432248D02*
X178471500Y-132954752D01*
G04 #@! TO.C,R3*
X173191500Y-129892248D02*
X173191500Y-130414752D01*
X174661500Y-129892248D02*
X174661500Y-130414752D01*
G04 #@! TO.C,J2*
X188046500Y-136191000D02*
X188046500Y-127291000D01*
X180646500Y-136191000D02*
X188046500Y-136191000D01*
X180646500Y-127291000D02*
X180646500Y-136191000D01*
X188046500Y-127291000D02*
X180646500Y-127291000D01*
G04 #@! TO.C,J3*
X171446500Y-136331000D02*
X170116500Y-136331000D01*
X171446500Y-135001000D02*
X171446500Y-136331000D01*
X171446500Y-133731000D02*
X168786500Y-133731000D01*
X168786500Y-133731000D02*
X168786500Y-126051000D01*
X171446500Y-133731000D02*
X171446500Y-126051000D01*
X171446500Y-126051000D02*
X168786500Y-126051000D01*
G04 #@! TO.C,U1*
X116611400Y-74338500D02*
X113161400Y-74338500D01*
X116611400Y-74338500D02*
X118561400Y-74338500D01*
X116611400Y-79458500D02*
X114661400Y-79458500D01*
X116611400Y-79458500D02*
X118561400Y-79458500D01*
G04 #@! TO.C,R6*
X112942864Y-82513500D02*
X112488736Y-82513500D01*
X112942864Y-83983500D02*
X112488736Y-83983500D01*
G04 #@! TO.C,R5*
X110964736Y-87996700D02*
X111418864Y-87996700D01*
X110964736Y-86526700D02*
X111418864Y-86526700D01*
G04 #@! TO.C,R1*
X123293200Y-77703436D02*
X123293200Y-78157564D01*
X124763200Y-77703436D02*
X124763200Y-78157564D01*
G04 #@! TO.C,R2*
X122562864Y-73318700D02*
X122108736Y-73318700D01*
X122562864Y-74788700D02*
X122108736Y-74788700D01*
G04 #@! TO.C,L1*
X94818600Y-78221300D02*
X96518600Y-78221300D01*
X94818600Y-84821300D02*
X94818600Y-78221300D01*
X96518600Y-84821300D02*
X94818600Y-84821300D01*
X101218600Y-84821300D02*
X99518600Y-84821300D01*
X101218600Y-78221300D02*
X101218600Y-84821300D01*
X99518600Y-78221300D02*
X101218600Y-78221300D01*
G04 #@! TO.C,J1*
X113013800Y-89792500D02*
X113013800Y-91122500D01*
X111683800Y-89792500D02*
X113013800Y-89792500D01*
X110413800Y-89792500D02*
X110413800Y-92452500D01*
X110413800Y-92452500D02*
X102733800Y-92452500D01*
X110413800Y-89792500D02*
X102733800Y-89792500D01*
X102733800Y-89792500D02*
X102733800Y-92452500D01*
G04 #@! TO.C,C2*
X101536048Y-88374900D02*
X102958552Y-88374900D01*
X101536048Y-86554900D02*
X102958552Y-86554900D01*
G04 #@! TO.C,D1*
X108023000Y-77701700D02*
X105083000Y-77701700D01*
X108023000Y-77941700D02*
X105083000Y-77941700D01*
X108023000Y-77821700D02*
X105083000Y-77821700D01*
X106553000Y-83381700D02*
X106553000Y-82361700D01*
X106553000Y-75901700D02*
X106553000Y-76921700D01*
X108023000Y-82361700D02*
X108023000Y-76921700D01*
X105083000Y-82361700D02*
X108023000Y-82361700D01*
X105083000Y-76921700D02*
X105083000Y-82361700D01*
X108023000Y-76921700D02*
X105083000Y-76921700D01*
G04 #@! TO.C,C1*
X109577200Y-78241348D02*
X109577200Y-78763852D01*
X111047200Y-78241348D02*
X111047200Y-78763852D01*
G04 #@! TO.C,R26*
X152652400Y-102690664D02*
X152652400Y-102236536D01*
X151182400Y-102690664D02*
X151182400Y-102236536D01*
G04 #@! TO.C,U3*
X148259800Y-93350400D02*
X144809800Y-93350400D01*
X148259800Y-93350400D02*
X150209800Y-93350400D01*
X148259800Y-98470400D02*
X146309800Y-98470400D01*
X148259800Y-98470400D02*
X150209800Y-98470400D01*
G04 #@! TO.C,U2*
X142722600Y-100660200D02*
X137896600Y-100660200D01*
X142722600Y-93294200D02*
X142722600Y-100660200D01*
X137896600Y-93294200D02*
X142722600Y-93294200D01*
X137896600Y-100660200D02*
X137896600Y-93294200D01*
G04 #@! TO.C,R25*
X146931136Y-102843000D02*
X147385264Y-102843000D01*
X146931136Y-101373000D02*
X147385264Y-101373000D01*
G04 #@! TO.C,J10*
X132705800Y-88941600D02*
X134035800Y-88941600D01*
X132705800Y-90271600D02*
X132705800Y-88941600D01*
X132705800Y-91541600D02*
X135365800Y-91541600D01*
X135365800Y-91541600D02*
X135365800Y-99221600D01*
X132705800Y-91541600D02*
X132705800Y-99221600D01*
X132705800Y-99221600D02*
X135365800Y-99221600D01*
G04 #@! TO.C,D2*
X150707800Y-88795200D02*
X150707800Y-85855200D01*
X150467800Y-88795200D02*
X150467800Y-85855200D01*
X150587800Y-88795200D02*
X150587800Y-85855200D01*
X145027800Y-87325200D02*
X146047800Y-87325200D01*
X152507800Y-87325200D02*
X151487800Y-87325200D01*
X146047800Y-88795200D02*
X151487800Y-88795200D01*
X146047800Y-85855200D02*
X146047800Y-88795200D01*
X151487800Y-85855200D02*
X146047800Y-85855200D01*
X151487800Y-88795200D02*
X151487800Y-85855200D01*
G04 #@! TO.C,C4*
X146394448Y-91971800D02*
X146916952Y-91971800D01*
X146394448Y-90501800D02*
X146916952Y-90501800D01*
G04 #@! TO.C,C3*
X153722400Y-94959448D02*
X153722400Y-95481952D01*
X155192400Y-94959448D02*
X155192400Y-95481952D01*
G04 #@! TO.C,R26*
X183195900Y-121867664D02*
X183195900Y-121413536D01*
X181725900Y-121867664D02*
X181725900Y-121413536D01*
G04 #@! TO.C,U3*
X178803300Y-112527400D02*
X175353300Y-112527400D01*
X178803300Y-112527400D02*
X180753300Y-112527400D01*
X178803300Y-117647400D02*
X176853300Y-117647400D01*
X178803300Y-117647400D02*
X180753300Y-117647400D01*
G04 #@! TO.C,U2*
X173266100Y-119837200D02*
X168440100Y-119837200D01*
X173266100Y-112471200D02*
X173266100Y-119837200D01*
X168440100Y-112471200D02*
X173266100Y-112471200D01*
X168440100Y-119837200D02*
X168440100Y-112471200D01*
G04 #@! TO.C,R25*
X177474636Y-122020000D02*
X177928764Y-122020000D01*
X177474636Y-120550000D02*
X177928764Y-120550000D01*
G04 #@! TO.C,J10*
X163249300Y-108118600D02*
X164579300Y-108118600D01*
X163249300Y-109448600D02*
X163249300Y-108118600D01*
X163249300Y-110718600D02*
X165909300Y-110718600D01*
X165909300Y-110718600D02*
X165909300Y-118398600D01*
X163249300Y-110718600D02*
X163249300Y-118398600D01*
X163249300Y-118398600D02*
X165909300Y-118398600D01*
G04 #@! TO.C,D2*
X181251300Y-107972200D02*
X181251300Y-105032200D01*
X181011300Y-107972200D02*
X181011300Y-105032200D01*
X181131300Y-107972200D02*
X181131300Y-105032200D01*
X175571300Y-106502200D02*
X176591300Y-106502200D01*
X183051300Y-106502200D02*
X182031300Y-106502200D01*
X176591300Y-107972200D02*
X182031300Y-107972200D01*
X176591300Y-105032200D02*
X176591300Y-107972200D01*
X182031300Y-105032200D02*
X176591300Y-105032200D01*
X182031300Y-107972200D02*
X182031300Y-105032200D01*
G04 #@! TO.C,C4*
X176937948Y-111148800D02*
X177460452Y-111148800D01*
X176937948Y-109678800D02*
X177460452Y-109678800D01*
G04 #@! TO.C,C3*
X184265900Y-114136448D02*
X184265900Y-114658952D01*
X185735900Y-114136448D02*
X185735900Y-114658952D01*
G04 #@! TO.C,R26*
X185100900Y-99769664D02*
X185100900Y-99315536D01*
X183630900Y-99769664D02*
X183630900Y-99315536D01*
G04 #@! TO.C,U3*
X180708300Y-90429400D02*
X177258300Y-90429400D01*
X180708300Y-90429400D02*
X182658300Y-90429400D01*
X180708300Y-95549400D02*
X178758300Y-95549400D01*
X180708300Y-95549400D02*
X182658300Y-95549400D01*
G04 #@! TO.C,U2*
X175171100Y-97739200D02*
X170345100Y-97739200D01*
X175171100Y-90373200D02*
X175171100Y-97739200D01*
X170345100Y-90373200D02*
X175171100Y-90373200D01*
X170345100Y-97739200D02*
X170345100Y-90373200D01*
G04 #@! TO.C,R25*
X179379636Y-99922000D02*
X179833764Y-99922000D01*
X179379636Y-98452000D02*
X179833764Y-98452000D01*
G04 #@! TO.C,J10*
X165154300Y-86020600D02*
X166484300Y-86020600D01*
X165154300Y-87350600D02*
X165154300Y-86020600D01*
X165154300Y-88620600D02*
X167814300Y-88620600D01*
X167814300Y-88620600D02*
X167814300Y-96300600D01*
X165154300Y-88620600D02*
X165154300Y-96300600D01*
X165154300Y-96300600D02*
X167814300Y-96300600D01*
G04 #@! TO.C,D2*
X183156300Y-85874200D02*
X183156300Y-82934200D01*
X182916300Y-85874200D02*
X182916300Y-82934200D01*
X183036300Y-85874200D02*
X183036300Y-82934200D01*
X177476300Y-84404200D02*
X178496300Y-84404200D01*
X184956300Y-84404200D02*
X183936300Y-84404200D01*
X178496300Y-85874200D02*
X183936300Y-85874200D01*
X178496300Y-82934200D02*
X178496300Y-85874200D01*
X183936300Y-82934200D02*
X178496300Y-82934200D01*
X183936300Y-85874200D02*
X183936300Y-82934200D01*
G04 #@! TO.C,C4*
X178842948Y-89050800D02*
X179365452Y-89050800D01*
X178842948Y-87580800D02*
X179365452Y-87580800D01*
G04 #@! TO.C,C3*
X186170900Y-92038448D02*
X186170900Y-92560952D01*
X187640900Y-92038448D02*
X187640900Y-92560952D01*
G04 #@! TO.C,R26*
X184783400Y-76401664D02*
X184783400Y-75947536D01*
X183313400Y-76401664D02*
X183313400Y-75947536D01*
G04 #@! TO.C,U3*
X180390800Y-67061400D02*
X176940800Y-67061400D01*
X180390800Y-67061400D02*
X182340800Y-67061400D01*
X180390800Y-72181400D02*
X178440800Y-72181400D01*
X180390800Y-72181400D02*
X182340800Y-72181400D01*
G04 #@! TO.C,U2*
X174853600Y-74371200D02*
X170027600Y-74371200D01*
X174853600Y-67005200D02*
X174853600Y-74371200D01*
X170027600Y-67005200D02*
X174853600Y-67005200D01*
X170027600Y-74371200D02*
X170027600Y-67005200D01*
G04 #@! TO.C,R25*
X179062136Y-76554000D02*
X179516264Y-76554000D01*
X179062136Y-75084000D02*
X179516264Y-75084000D01*
G04 #@! TO.C,J10*
X164836800Y-62652600D02*
X166166800Y-62652600D01*
X164836800Y-63982600D02*
X164836800Y-62652600D01*
X164836800Y-65252600D02*
X167496800Y-65252600D01*
X167496800Y-65252600D02*
X167496800Y-72932600D01*
X164836800Y-65252600D02*
X164836800Y-72932600D01*
X164836800Y-72932600D02*
X167496800Y-72932600D01*
G04 #@! TO.C,D2*
X182838800Y-62506200D02*
X182838800Y-59566200D01*
X182598800Y-62506200D02*
X182598800Y-59566200D01*
X182718800Y-62506200D02*
X182718800Y-59566200D01*
X177158800Y-61036200D02*
X178178800Y-61036200D01*
X184638800Y-61036200D02*
X183618800Y-61036200D01*
X178178800Y-62506200D02*
X183618800Y-62506200D01*
X178178800Y-59566200D02*
X178178800Y-62506200D01*
X183618800Y-59566200D02*
X178178800Y-59566200D01*
X183618800Y-62506200D02*
X183618800Y-59566200D01*
G04 #@! TO.C,C4*
X178525448Y-65682800D02*
X179047952Y-65682800D01*
X178525448Y-64212800D02*
X179047952Y-64212800D01*
G04 #@! TO.C,C3*
X185853400Y-68670448D02*
X185853400Y-69192952D01*
X187323400Y-68670448D02*
X187323400Y-69192952D01*
G04 #@! TO.C,TH6*
X127576336Y-141311300D02*
X128030464Y-141311300D01*
X127576336Y-139841300D02*
X128030464Y-139841300D01*
G04 #@! TO.C,TH5*
X100639636Y-142187600D02*
X101093764Y-142187600D01*
X100639636Y-140717600D02*
X101093764Y-140717600D01*
G04 #@! TO.C,TH4*
X141952736Y-149858400D02*
X142406864Y-149858400D01*
X141952736Y-148388400D02*
X142406864Y-148388400D01*
G04 #@! TO.C,TH3*
X154868636Y-149375800D02*
X155322764Y-149375800D01*
X154868636Y-147905800D02*
X155322764Y-147905800D01*
G04 #@! TO.C,TH2*
X167828736Y-149667900D02*
X168282864Y-149667900D01*
X167828736Y-148197900D02*
X168282864Y-148197900D01*
G04 #@! TO.C,TH1*
X114984036Y-142060600D02*
X115438164Y-142060600D01*
X114984036Y-140590600D02*
X115438164Y-140590600D01*
G04 #@! TO.C,R24*
X128233664Y-148883700D02*
X127779536Y-148883700D01*
X128233664Y-150353700D02*
X127779536Y-150353700D01*
G04 #@! TO.C,R23*
X102312964Y-148896400D02*
X101858836Y-148896400D01*
X102312964Y-150366400D02*
X101858836Y-150366400D01*
G04 #@! TO.C,R22*
X133196064Y-139790500D02*
X132741936Y-139790500D01*
X133196064Y-141260500D02*
X132741936Y-141260500D01*
G04 #@! TO.C,R21*
X133249936Y-150404500D02*
X133704064Y-150404500D01*
X133249936Y-148934500D02*
X133704064Y-148934500D01*
G04 #@! TO.C,R20*
X106427764Y-140666800D02*
X105973636Y-140666800D01*
X106427764Y-142136800D02*
X105973636Y-142136800D01*
G04 #@! TO.C,R19*
X106430836Y-150518800D02*
X106884964Y-150518800D01*
X106430836Y-149048800D02*
X106884964Y-149048800D01*
G04 #@! TO.C,R18*
X141949664Y-139600000D02*
X141495536Y-139600000D01*
X141949664Y-141070000D02*
X141495536Y-141070000D01*
G04 #@! TO.C,R17*
X155443164Y-139625400D02*
X154989036Y-139625400D01*
X155443164Y-141095400D02*
X154989036Y-141095400D01*
G04 #@! TO.C,R16*
X147639264Y-148032800D02*
X147185136Y-148032800D01*
X147639264Y-149502800D02*
X147185136Y-149502800D01*
G04 #@! TO.C,R15*
X146931136Y-141324000D02*
X147385264Y-141324000D01*
X146931136Y-139854000D02*
X147385264Y-139854000D01*
G04 #@! TO.C,R14*
X160421564Y-147905800D02*
X159967436Y-147905800D01*
X160421564Y-149375800D02*
X159967436Y-149375800D01*
G04 #@! TO.C,R13*
X159357836Y-141247800D02*
X159811964Y-141247800D01*
X159357836Y-139777800D02*
X159811964Y-139777800D01*
G04 #@! TO.C,R12*
X168486064Y-139866700D02*
X168031936Y-139866700D01*
X168486064Y-141336700D02*
X168031936Y-141336700D01*
G04 #@! TO.C,R11*
X116098564Y-148413800D02*
X115644436Y-148413800D01*
X116098564Y-149883800D02*
X115644436Y-149883800D01*
G04 #@! TO.C,R10*
X173515264Y-148045500D02*
X173061136Y-148045500D01*
X173515264Y-149515500D02*
X173061136Y-149515500D01*
G04 #@! TO.C,R9*
X172788336Y-141489100D02*
X173242464Y-141489100D01*
X172788336Y-140019100D02*
X173242464Y-140019100D01*
G04 #@! TO.C,R8*
X120804164Y-140336600D02*
X120350036Y-140336600D01*
X120804164Y-141806600D02*
X120350036Y-141806600D01*
G04 #@! TO.C,R7*
X120248436Y-150239400D02*
X120702564Y-150239400D01*
X120248436Y-148769400D02*
X120702564Y-148769400D01*
G04 #@! TO.C,R4*
X99858500Y-63338252D02*
X99858500Y-62815748D01*
X98388500Y-63338252D02*
X98388500Y-62815748D01*
G04 #@! TO.C,R3*
X103668500Y-65878252D02*
X103668500Y-65355748D01*
X102198500Y-65878252D02*
X102198500Y-65355748D01*
G04 #@! TO.C,J9*
X125695400Y-146681500D02*
X125695400Y-145351500D01*
X127025400Y-146681500D02*
X125695400Y-146681500D01*
X128295400Y-146681500D02*
X128295400Y-144021500D01*
X128295400Y-144021500D02*
X135975400Y-144021500D01*
X128295400Y-146681500D02*
X135975400Y-146681500D01*
X135975400Y-146681500D02*
X135975400Y-144021500D01*
G04 #@! TO.C,J8*
X98961900Y-146897400D02*
X98961900Y-145567400D01*
X100291900Y-146897400D02*
X98961900Y-146897400D01*
X101561900Y-146897400D02*
X101561900Y-144237400D01*
X101561900Y-144237400D02*
X109241900Y-144237400D01*
X101561900Y-146897400D02*
X109241900Y-146897400D01*
X109241900Y-146897400D02*
X109241900Y-144237400D01*
G04 #@! TO.C,J7*
X139157400Y-146033800D02*
X139157400Y-144703800D01*
X140487400Y-146033800D02*
X139157400Y-146033800D01*
X141757400Y-146033800D02*
X141757400Y-143373800D01*
X141757400Y-143373800D02*
X149437400Y-143373800D01*
X141757400Y-146033800D02*
X149437400Y-146033800D01*
X149437400Y-146033800D02*
X149437400Y-143373800D01*
G04 #@! TO.C,J6*
X152632100Y-146008400D02*
X152632100Y-144678400D01*
X153962100Y-146008400D02*
X152632100Y-146008400D01*
X155232100Y-146008400D02*
X155232100Y-143348400D01*
X155232100Y-143348400D02*
X162912100Y-143348400D01*
X155232100Y-146008400D02*
X162912100Y-146008400D01*
X162912100Y-146008400D02*
X162912100Y-143348400D01*
G04 #@! TO.C,J5*
X165624200Y-146097300D02*
X165624200Y-144767300D01*
X166954200Y-146097300D02*
X165624200Y-146097300D01*
X168224200Y-146097300D02*
X168224200Y-143437300D01*
X168224200Y-143437300D02*
X175904200Y-143437300D01*
X168224200Y-146097300D02*
X175904200Y-146097300D01*
X175904200Y-146097300D02*
X175904200Y-143437300D01*
G04 #@! TO.C,J4*
X112677900Y-146668800D02*
X112677900Y-145338800D01*
X114007900Y-146668800D02*
X112677900Y-146668800D01*
X115277900Y-146668800D02*
X115277900Y-144008800D01*
X115277900Y-144008800D02*
X122957900Y-144008800D01*
X115277900Y-146668800D02*
X122957900Y-146668800D01*
X122957900Y-146668800D02*
X122957900Y-144008800D01*
G04 #@! TO.C,J3*
X105413500Y-59439500D02*
X106743500Y-59439500D01*
X105413500Y-60769500D02*
X105413500Y-59439500D01*
X105413500Y-62039500D02*
X108073500Y-62039500D01*
X108073500Y-62039500D02*
X108073500Y-69719500D01*
X105413500Y-62039500D02*
X105413500Y-69719500D01*
X105413500Y-69719500D02*
X108073500Y-69719500D01*
G04 #@! TO.C,J2*
X88813500Y-59579500D02*
X88813500Y-68479500D01*
X96213500Y-59579500D02*
X88813500Y-59579500D01*
X96213500Y-68479500D02*
X96213500Y-59579500D01*
X88813500Y-68479500D02*
X96213500Y-68479500D01*
G04 #@! TO.C,L2*
D11*
X127828380Y-119165666D02*
X127828380Y-119641857D01*
X126828380Y-119641857D01*
X126923619Y-118879952D02*
X126876000Y-118832333D01*
X126828380Y-118737095D01*
X126828380Y-118499000D01*
X126876000Y-118403761D01*
X126923619Y-118356142D01*
X127018857Y-118308523D01*
X127114095Y-118308523D01*
X127256952Y-118356142D01*
X127828380Y-118927571D01*
X127828380Y-118308523D01*
G04 #@! TO.C,C5*
X146603333Y-122052142D02*
X146555714Y-122099761D01*
X146412857Y-122147380D01*
X146317619Y-122147380D01*
X146174761Y-122099761D01*
X146079523Y-122004523D01*
X146031904Y-121909285D01*
X145984285Y-121718809D01*
X145984285Y-121575952D01*
X146031904Y-121385476D01*
X146079523Y-121290238D01*
X146174761Y-121195000D01*
X146317619Y-121147380D01*
X146412857Y-121147380D01*
X146555714Y-121195000D01*
X146603333Y-121242619D01*
X147508095Y-121147380D02*
X147031904Y-121147380D01*
X146984285Y-121623571D01*
X147031904Y-121575952D01*
X147127142Y-121528333D01*
X147365238Y-121528333D01*
X147460476Y-121575952D01*
X147508095Y-121623571D01*
X147555714Y-121718809D01*
X147555714Y-121956904D01*
X147508095Y-122052142D01*
X147460476Y-122099761D01*
X147365238Y-122147380D01*
X147127142Y-122147380D01*
X147031904Y-122099761D01*
X146984285Y-122052142D01*
G04 #@! TO.C,C6*
X136129333Y-123475142D02*
X136081714Y-123522761D01*
X135938857Y-123570380D01*
X135843619Y-123570380D01*
X135700761Y-123522761D01*
X135605523Y-123427523D01*
X135557904Y-123332285D01*
X135510285Y-123141809D01*
X135510285Y-122998952D01*
X135557904Y-122808476D01*
X135605523Y-122713238D01*
X135700761Y-122618000D01*
X135843619Y-122570380D01*
X135938857Y-122570380D01*
X136081714Y-122618000D01*
X136129333Y-122665619D01*
X136986476Y-122570380D02*
X136796000Y-122570380D01*
X136700761Y-122618000D01*
X136653142Y-122665619D01*
X136557904Y-122808476D01*
X136510285Y-122998952D01*
X136510285Y-123379904D01*
X136557904Y-123475142D01*
X136605523Y-123522761D01*
X136700761Y-123570380D01*
X136891238Y-123570380D01*
X136986476Y-123522761D01*
X137034095Y-123475142D01*
X137081714Y-123379904D01*
X137081714Y-123141809D01*
X137034095Y-123046571D01*
X136986476Y-122998952D01*
X136891238Y-122951333D01*
X136700761Y-122951333D01*
X136605523Y-122998952D01*
X136557904Y-123046571D01*
X136510285Y-123141809D01*
G04 #@! TO.C,R28*
X154631380Y-110307357D02*
X154155190Y-110640690D01*
X154631380Y-110878785D02*
X153631380Y-110878785D01*
X153631380Y-110497833D01*
X153679000Y-110402595D01*
X153726619Y-110354976D01*
X153821857Y-110307357D01*
X153964714Y-110307357D01*
X154059952Y-110354976D01*
X154107571Y-110402595D01*
X154155190Y-110497833D01*
X154155190Y-110878785D01*
X153726619Y-109926404D02*
X153679000Y-109878785D01*
X153631380Y-109783547D01*
X153631380Y-109545452D01*
X153679000Y-109450214D01*
X153726619Y-109402595D01*
X153821857Y-109354976D01*
X153917095Y-109354976D01*
X154059952Y-109402595D01*
X154631380Y-109974023D01*
X154631380Y-109354976D01*
X154059952Y-108783547D02*
X154012333Y-108878785D01*
X153964714Y-108926404D01*
X153869476Y-108974023D01*
X153821857Y-108974023D01*
X153726619Y-108926404D01*
X153679000Y-108878785D01*
X153631380Y-108783547D01*
X153631380Y-108593071D01*
X153679000Y-108497833D01*
X153726619Y-108450214D01*
X153821857Y-108402595D01*
X153869476Y-108402595D01*
X153964714Y-108450214D01*
X154012333Y-108497833D01*
X154059952Y-108593071D01*
X154059952Y-108783547D01*
X154107571Y-108878785D01*
X154155190Y-108926404D01*
X154250428Y-108974023D01*
X154440904Y-108974023D01*
X154536142Y-108926404D01*
X154583761Y-108878785D01*
X154631380Y-108783547D01*
X154631380Y-108593071D01*
X154583761Y-108497833D01*
X154536142Y-108450214D01*
X154440904Y-108402595D01*
X154250428Y-108402595D01*
X154155190Y-108450214D01*
X154107571Y-108497833D01*
X154059952Y-108593071D01*
G04 #@! TO.C,U4*
X147891595Y-106659880D02*
X147891595Y-107469404D01*
X147939214Y-107564642D01*
X147986833Y-107612261D01*
X148082071Y-107659880D01*
X148272547Y-107659880D01*
X148367785Y-107612261D01*
X148415404Y-107564642D01*
X148463023Y-107469404D01*
X148463023Y-106659880D01*
X149367785Y-106993214D02*
X149367785Y-107659880D01*
X149129690Y-106612261D02*
X148891595Y-107326547D01*
X149510642Y-107326547D01*
G04 #@! TO.C,R27*
X157804380Y-114196857D02*
X157328190Y-114530190D01*
X157804380Y-114768285D02*
X156804380Y-114768285D01*
X156804380Y-114387333D01*
X156852000Y-114292095D01*
X156899619Y-114244476D01*
X156994857Y-114196857D01*
X157137714Y-114196857D01*
X157232952Y-114244476D01*
X157280571Y-114292095D01*
X157328190Y-114387333D01*
X157328190Y-114768285D01*
X156899619Y-113815904D02*
X156852000Y-113768285D01*
X156804380Y-113673047D01*
X156804380Y-113434952D01*
X156852000Y-113339714D01*
X156899619Y-113292095D01*
X156994857Y-113244476D01*
X157090095Y-113244476D01*
X157232952Y-113292095D01*
X157804380Y-113863523D01*
X157804380Y-113244476D01*
X156804380Y-112911142D02*
X156804380Y-112244476D01*
X157804380Y-112673047D01*
G04 #@! TO.C,R29*
X144581642Y-123516380D02*
X144248309Y-123040190D01*
X144010214Y-123516380D02*
X144010214Y-122516380D01*
X144391166Y-122516380D01*
X144486404Y-122564000D01*
X144534023Y-122611619D01*
X144581642Y-122706857D01*
X144581642Y-122849714D01*
X144534023Y-122944952D01*
X144486404Y-122992571D01*
X144391166Y-123040190D01*
X144010214Y-123040190D01*
X144962595Y-122611619D02*
X145010214Y-122564000D01*
X145105452Y-122516380D01*
X145343547Y-122516380D01*
X145438785Y-122564000D01*
X145486404Y-122611619D01*
X145534023Y-122706857D01*
X145534023Y-122802095D01*
X145486404Y-122944952D01*
X144914976Y-123516380D01*
X145534023Y-123516380D01*
X146010214Y-123516380D02*
X146200690Y-123516380D01*
X146295928Y-123468761D01*
X146343547Y-123421142D01*
X146438785Y-123278285D01*
X146486404Y-123087809D01*
X146486404Y-122706857D01*
X146438785Y-122611619D01*
X146391166Y-122564000D01*
X146295928Y-122516380D01*
X146105452Y-122516380D01*
X146010214Y-122564000D01*
X145962595Y-122611619D01*
X145914976Y-122706857D01*
X145914976Y-122944952D01*
X145962595Y-123040190D01*
X146010214Y-123087809D01*
X146105452Y-123135428D01*
X146295928Y-123135428D01*
X146391166Y-123087809D01*
X146438785Y-123040190D01*
X146486404Y-122944952D01*
G04 #@! TO.C,D3*
X143955880Y-118022595D02*
X142955880Y-118022595D01*
X142955880Y-117784500D01*
X143003500Y-117641642D01*
X143098738Y-117546404D01*
X143193976Y-117498785D01*
X143384452Y-117451166D01*
X143527309Y-117451166D01*
X143717785Y-117498785D01*
X143813023Y-117546404D01*
X143908261Y-117641642D01*
X143955880Y-117784500D01*
X143955880Y-118022595D01*
X142955880Y-117117833D02*
X142955880Y-116498785D01*
X143336833Y-116832119D01*
X143336833Y-116689261D01*
X143384452Y-116594023D01*
X143432071Y-116546404D01*
X143527309Y-116498785D01*
X143765404Y-116498785D01*
X143860642Y-116546404D01*
X143908261Y-116594023D01*
X143955880Y-116689261D01*
X143955880Y-116974976D01*
X143908261Y-117070214D01*
X143860642Y-117117833D01*
X143585880Y-112466404D02*
X142585880Y-112466404D01*
X143585880Y-111894976D02*
X143014452Y-112323547D01*
X142585880Y-111894976D02*
X143157309Y-112466404D01*
G04 #@! TO.C,R30*
X145518142Y-124149380D02*
X145184809Y-123673190D01*
X144946714Y-124149380D02*
X144946714Y-123149380D01*
X145327666Y-123149380D01*
X145422904Y-123197000D01*
X145470523Y-123244619D01*
X145518142Y-123339857D01*
X145518142Y-123482714D01*
X145470523Y-123577952D01*
X145422904Y-123625571D01*
X145327666Y-123673190D01*
X144946714Y-123673190D01*
X145851476Y-123149380D02*
X146470523Y-123149380D01*
X146137190Y-123530333D01*
X146280047Y-123530333D01*
X146375285Y-123577952D01*
X146422904Y-123625571D01*
X146470523Y-123720809D01*
X146470523Y-123958904D01*
X146422904Y-124054142D01*
X146375285Y-124101761D01*
X146280047Y-124149380D01*
X145994333Y-124149380D01*
X145899095Y-124101761D01*
X145851476Y-124054142D01*
X147089571Y-123149380D02*
X147184809Y-123149380D01*
X147280047Y-123197000D01*
X147327666Y-123244619D01*
X147375285Y-123339857D01*
X147422904Y-123530333D01*
X147422904Y-123768428D01*
X147375285Y-123958904D01*
X147327666Y-124054142D01*
X147280047Y-124101761D01*
X147184809Y-124149380D01*
X147089571Y-124149380D01*
X146994333Y-124101761D01*
X146946714Y-124054142D01*
X146899095Y-123958904D01*
X146851476Y-123768428D01*
X146851476Y-123530333D01*
X146899095Y-123339857D01*
X146946714Y-123244619D01*
X146994333Y-123197000D01*
X147089571Y-123149380D01*
G04 #@! TO.C,J11*
X147578380Y-129270023D02*
X148292666Y-129270023D01*
X148435523Y-129317642D01*
X148530761Y-129412880D01*
X148578380Y-129555738D01*
X148578380Y-129650976D01*
X148578380Y-128270023D02*
X148578380Y-128841452D01*
X148578380Y-128555738D02*
X147578380Y-128555738D01*
X147721238Y-128650976D01*
X147816476Y-128746214D01*
X147864095Y-128841452D01*
X148578380Y-127317642D02*
X148578380Y-127889071D01*
X148578380Y-127603357D02*
X147578380Y-127603357D01*
X147721238Y-127698595D01*
X147816476Y-127793833D01*
X147864095Y-127889071D01*
G04 #@! TO.C,C5*
X148190833Y-73093642D02*
X148143214Y-73141261D01*
X148000357Y-73188880D01*
X147905119Y-73188880D01*
X147762261Y-73141261D01*
X147667023Y-73046023D01*
X147619404Y-72950785D01*
X147571785Y-72760309D01*
X147571785Y-72617452D01*
X147619404Y-72426976D01*
X147667023Y-72331738D01*
X147762261Y-72236500D01*
X147905119Y-72188880D01*
X148000357Y-72188880D01*
X148143214Y-72236500D01*
X148190833Y-72284119D01*
X149095595Y-72188880D02*
X148619404Y-72188880D01*
X148571785Y-72665071D01*
X148619404Y-72617452D01*
X148714642Y-72569833D01*
X148952738Y-72569833D01*
X149047976Y-72617452D01*
X149095595Y-72665071D01*
X149143214Y-72760309D01*
X149143214Y-72998404D01*
X149095595Y-73093642D01*
X149047976Y-73141261D01*
X148952738Y-73188880D01*
X148714642Y-73188880D01*
X148619404Y-73141261D01*
X148571785Y-73093642D01*
G04 #@! TO.C,L2*
X129415880Y-70207166D02*
X129415880Y-70683357D01*
X128415880Y-70683357D01*
X128511119Y-69921452D02*
X128463500Y-69873833D01*
X128415880Y-69778595D01*
X128415880Y-69540500D01*
X128463500Y-69445261D01*
X128511119Y-69397642D01*
X128606357Y-69350023D01*
X128701595Y-69350023D01*
X128844452Y-69397642D01*
X129415880Y-69969071D01*
X129415880Y-69350023D01*
G04 #@! TO.C,J11*
X149165880Y-80311523D02*
X149880166Y-80311523D01*
X150023023Y-80359142D01*
X150118261Y-80454380D01*
X150165880Y-80597238D01*
X150165880Y-80692476D01*
X150165880Y-79311523D02*
X150165880Y-79882952D01*
X150165880Y-79597238D02*
X149165880Y-79597238D01*
X149308738Y-79692476D01*
X149403976Y-79787714D01*
X149451595Y-79882952D01*
X150165880Y-78359142D02*
X150165880Y-78930571D01*
X150165880Y-78644857D02*
X149165880Y-78644857D01*
X149308738Y-78740095D01*
X149403976Y-78835333D01*
X149451595Y-78930571D01*
G04 #@! TO.C,D3*
X145543380Y-69064095D02*
X144543380Y-69064095D01*
X144543380Y-68826000D01*
X144591000Y-68683142D01*
X144686238Y-68587904D01*
X144781476Y-68540285D01*
X144971952Y-68492666D01*
X145114809Y-68492666D01*
X145305285Y-68540285D01*
X145400523Y-68587904D01*
X145495761Y-68683142D01*
X145543380Y-68826000D01*
X145543380Y-69064095D01*
X144543380Y-68159333D02*
X144543380Y-67540285D01*
X144924333Y-67873619D01*
X144924333Y-67730761D01*
X144971952Y-67635523D01*
X145019571Y-67587904D01*
X145114809Y-67540285D01*
X145352904Y-67540285D01*
X145448142Y-67587904D01*
X145495761Y-67635523D01*
X145543380Y-67730761D01*
X145543380Y-68016476D01*
X145495761Y-68111714D01*
X145448142Y-68159333D01*
X145173380Y-63507904D02*
X144173380Y-63507904D01*
X145173380Y-62936476D02*
X144601952Y-63365047D01*
X144173380Y-62936476D02*
X144744809Y-63507904D01*
G04 #@! TO.C,C6*
X137716833Y-74516642D02*
X137669214Y-74564261D01*
X137526357Y-74611880D01*
X137431119Y-74611880D01*
X137288261Y-74564261D01*
X137193023Y-74469023D01*
X137145404Y-74373785D01*
X137097785Y-74183309D01*
X137097785Y-74040452D01*
X137145404Y-73849976D01*
X137193023Y-73754738D01*
X137288261Y-73659500D01*
X137431119Y-73611880D01*
X137526357Y-73611880D01*
X137669214Y-73659500D01*
X137716833Y-73707119D01*
X138573976Y-73611880D02*
X138383500Y-73611880D01*
X138288261Y-73659500D01*
X138240642Y-73707119D01*
X138145404Y-73849976D01*
X138097785Y-74040452D01*
X138097785Y-74421404D01*
X138145404Y-74516642D01*
X138193023Y-74564261D01*
X138288261Y-74611880D01*
X138478738Y-74611880D01*
X138573976Y-74564261D01*
X138621595Y-74516642D01*
X138669214Y-74421404D01*
X138669214Y-74183309D01*
X138621595Y-74088071D01*
X138573976Y-74040452D01*
X138478738Y-73992833D01*
X138288261Y-73992833D01*
X138193023Y-74040452D01*
X138145404Y-74088071D01*
X138097785Y-74183309D01*
G04 #@! TO.C,U4*
X149479095Y-57701380D02*
X149479095Y-58510904D01*
X149526714Y-58606142D01*
X149574333Y-58653761D01*
X149669571Y-58701380D01*
X149860047Y-58701380D01*
X149955285Y-58653761D01*
X150002904Y-58606142D01*
X150050523Y-58510904D01*
X150050523Y-57701380D01*
X150955285Y-58034714D02*
X150955285Y-58701380D01*
X150717190Y-57653761D02*
X150479095Y-58368047D01*
X151098142Y-58368047D01*
G04 #@! TO.C,R27*
X159391880Y-65238357D02*
X158915690Y-65571690D01*
X159391880Y-65809785D02*
X158391880Y-65809785D01*
X158391880Y-65428833D01*
X158439500Y-65333595D01*
X158487119Y-65285976D01*
X158582357Y-65238357D01*
X158725214Y-65238357D01*
X158820452Y-65285976D01*
X158868071Y-65333595D01*
X158915690Y-65428833D01*
X158915690Y-65809785D01*
X158487119Y-64857404D02*
X158439500Y-64809785D01*
X158391880Y-64714547D01*
X158391880Y-64476452D01*
X158439500Y-64381214D01*
X158487119Y-64333595D01*
X158582357Y-64285976D01*
X158677595Y-64285976D01*
X158820452Y-64333595D01*
X159391880Y-64905023D01*
X159391880Y-64285976D01*
X158391880Y-63952642D02*
X158391880Y-63285976D01*
X159391880Y-63714547D01*
G04 #@! TO.C,R28*
X156218880Y-61348857D02*
X155742690Y-61682190D01*
X156218880Y-61920285D02*
X155218880Y-61920285D01*
X155218880Y-61539333D01*
X155266500Y-61444095D01*
X155314119Y-61396476D01*
X155409357Y-61348857D01*
X155552214Y-61348857D01*
X155647452Y-61396476D01*
X155695071Y-61444095D01*
X155742690Y-61539333D01*
X155742690Y-61920285D01*
X155314119Y-60967904D02*
X155266500Y-60920285D01*
X155218880Y-60825047D01*
X155218880Y-60586952D01*
X155266500Y-60491714D01*
X155314119Y-60444095D01*
X155409357Y-60396476D01*
X155504595Y-60396476D01*
X155647452Y-60444095D01*
X156218880Y-61015523D01*
X156218880Y-60396476D01*
X155647452Y-59825047D02*
X155599833Y-59920285D01*
X155552214Y-59967904D01*
X155456976Y-60015523D01*
X155409357Y-60015523D01*
X155314119Y-59967904D01*
X155266500Y-59920285D01*
X155218880Y-59825047D01*
X155218880Y-59634571D01*
X155266500Y-59539333D01*
X155314119Y-59491714D01*
X155409357Y-59444095D01*
X155456976Y-59444095D01*
X155552214Y-59491714D01*
X155599833Y-59539333D01*
X155647452Y-59634571D01*
X155647452Y-59825047D01*
X155695071Y-59920285D01*
X155742690Y-59967904D01*
X155837928Y-60015523D01*
X156028404Y-60015523D01*
X156123642Y-59967904D01*
X156171261Y-59920285D01*
X156218880Y-59825047D01*
X156218880Y-59634571D01*
X156171261Y-59539333D01*
X156123642Y-59491714D01*
X156028404Y-59444095D01*
X155837928Y-59444095D01*
X155742690Y-59491714D01*
X155695071Y-59539333D01*
X155647452Y-59634571D01*
G04 #@! TO.C,R30*
X147105642Y-75190880D02*
X146772309Y-74714690D01*
X146534214Y-75190880D02*
X146534214Y-74190880D01*
X146915166Y-74190880D01*
X147010404Y-74238500D01*
X147058023Y-74286119D01*
X147105642Y-74381357D01*
X147105642Y-74524214D01*
X147058023Y-74619452D01*
X147010404Y-74667071D01*
X146915166Y-74714690D01*
X146534214Y-74714690D01*
X147438976Y-74190880D02*
X148058023Y-74190880D01*
X147724690Y-74571833D01*
X147867547Y-74571833D01*
X147962785Y-74619452D01*
X148010404Y-74667071D01*
X148058023Y-74762309D01*
X148058023Y-75000404D01*
X148010404Y-75095642D01*
X147962785Y-75143261D01*
X147867547Y-75190880D01*
X147581833Y-75190880D01*
X147486595Y-75143261D01*
X147438976Y-75095642D01*
X148677071Y-74190880D02*
X148772309Y-74190880D01*
X148867547Y-74238500D01*
X148915166Y-74286119D01*
X148962785Y-74381357D01*
X149010404Y-74571833D01*
X149010404Y-74809928D01*
X148962785Y-75000404D01*
X148915166Y-75095642D01*
X148867547Y-75143261D01*
X148772309Y-75190880D01*
X148677071Y-75190880D01*
X148581833Y-75143261D01*
X148534214Y-75095642D01*
X148486595Y-75000404D01*
X148438976Y-74809928D01*
X148438976Y-74571833D01*
X148486595Y-74381357D01*
X148534214Y-74286119D01*
X148581833Y-74238500D01*
X148677071Y-74190880D01*
G04 #@! TO.C,R29*
X146169142Y-74557880D02*
X145835809Y-74081690D01*
X145597714Y-74557880D02*
X145597714Y-73557880D01*
X145978666Y-73557880D01*
X146073904Y-73605500D01*
X146121523Y-73653119D01*
X146169142Y-73748357D01*
X146169142Y-73891214D01*
X146121523Y-73986452D01*
X146073904Y-74034071D01*
X145978666Y-74081690D01*
X145597714Y-74081690D01*
X146550095Y-73653119D02*
X146597714Y-73605500D01*
X146692952Y-73557880D01*
X146931047Y-73557880D01*
X147026285Y-73605500D01*
X147073904Y-73653119D01*
X147121523Y-73748357D01*
X147121523Y-73843595D01*
X147073904Y-73986452D01*
X146502476Y-74557880D01*
X147121523Y-74557880D01*
X147597714Y-74557880D02*
X147788190Y-74557880D01*
X147883428Y-74510261D01*
X147931047Y-74462642D01*
X148026285Y-74319785D01*
X148073904Y-74129309D01*
X148073904Y-73748357D01*
X148026285Y-73653119D01*
X147978666Y-73605500D01*
X147883428Y-73557880D01*
X147692952Y-73557880D01*
X147597714Y-73605500D01*
X147550095Y-73653119D01*
X147502476Y-73748357D01*
X147502476Y-73986452D01*
X147550095Y-74081690D01*
X147597714Y-74129309D01*
X147692952Y-74176928D01*
X147883428Y-74176928D01*
X147978666Y-74129309D01*
X148026285Y-74081690D01*
X148073904Y-73986452D01*
G04 #@! TO.C,U4*
X114363595Y-95801380D02*
X114363595Y-96610904D01*
X114411214Y-96706142D01*
X114458833Y-96753761D01*
X114554071Y-96801380D01*
X114744547Y-96801380D01*
X114839785Y-96753761D01*
X114887404Y-96706142D01*
X114935023Y-96610904D01*
X114935023Y-95801380D01*
X115839785Y-96134714D02*
X115839785Y-96801380D01*
X115601690Y-95753761D02*
X115363595Y-96468047D01*
X115982642Y-96468047D01*
G04 #@! TO.C,R30*
X111990142Y-113290880D02*
X111656809Y-112814690D01*
X111418714Y-113290880D02*
X111418714Y-112290880D01*
X111799666Y-112290880D01*
X111894904Y-112338500D01*
X111942523Y-112386119D01*
X111990142Y-112481357D01*
X111990142Y-112624214D01*
X111942523Y-112719452D01*
X111894904Y-112767071D01*
X111799666Y-112814690D01*
X111418714Y-112814690D01*
X112323476Y-112290880D02*
X112942523Y-112290880D01*
X112609190Y-112671833D01*
X112752047Y-112671833D01*
X112847285Y-112719452D01*
X112894904Y-112767071D01*
X112942523Y-112862309D01*
X112942523Y-113100404D01*
X112894904Y-113195642D01*
X112847285Y-113243261D01*
X112752047Y-113290880D01*
X112466333Y-113290880D01*
X112371095Y-113243261D01*
X112323476Y-113195642D01*
X113561571Y-112290880D02*
X113656809Y-112290880D01*
X113752047Y-112338500D01*
X113799666Y-112386119D01*
X113847285Y-112481357D01*
X113894904Y-112671833D01*
X113894904Y-112909928D01*
X113847285Y-113100404D01*
X113799666Y-113195642D01*
X113752047Y-113243261D01*
X113656809Y-113290880D01*
X113561571Y-113290880D01*
X113466333Y-113243261D01*
X113418714Y-113195642D01*
X113371095Y-113100404D01*
X113323476Y-112909928D01*
X113323476Y-112671833D01*
X113371095Y-112481357D01*
X113418714Y-112386119D01*
X113466333Y-112338500D01*
X113561571Y-112290880D01*
G04 #@! TO.C,R29*
X111053642Y-112657880D02*
X110720309Y-112181690D01*
X110482214Y-112657880D02*
X110482214Y-111657880D01*
X110863166Y-111657880D01*
X110958404Y-111705500D01*
X111006023Y-111753119D01*
X111053642Y-111848357D01*
X111053642Y-111991214D01*
X111006023Y-112086452D01*
X110958404Y-112134071D01*
X110863166Y-112181690D01*
X110482214Y-112181690D01*
X111434595Y-111753119D02*
X111482214Y-111705500D01*
X111577452Y-111657880D01*
X111815547Y-111657880D01*
X111910785Y-111705500D01*
X111958404Y-111753119D01*
X112006023Y-111848357D01*
X112006023Y-111943595D01*
X111958404Y-112086452D01*
X111386976Y-112657880D01*
X112006023Y-112657880D01*
X112482214Y-112657880D02*
X112672690Y-112657880D01*
X112767928Y-112610261D01*
X112815547Y-112562642D01*
X112910785Y-112419785D01*
X112958404Y-112229309D01*
X112958404Y-111848357D01*
X112910785Y-111753119D01*
X112863166Y-111705500D01*
X112767928Y-111657880D01*
X112577452Y-111657880D01*
X112482214Y-111705500D01*
X112434595Y-111753119D01*
X112386976Y-111848357D01*
X112386976Y-112086452D01*
X112434595Y-112181690D01*
X112482214Y-112229309D01*
X112577452Y-112276928D01*
X112767928Y-112276928D01*
X112863166Y-112229309D01*
X112910785Y-112181690D01*
X112958404Y-112086452D01*
G04 #@! TO.C,R28*
X121103380Y-99448857D02*
X120627190Y-99782190D01*
X121103380Y-100020285D02*
X120103380Y-100020285D01*
X120103380Y-99639333D01*
X120151000Y-99544095D01*
X120198619Y-99496476D01*
X120293857Y-99448857D01*
X120436714Y-99448857D01*
X120531952Y-99496476D01*
X120579571Y-99544095D01*
X120627190Y-99639333D01*
X120627190Y-100020285D01*
X120198619Y-99067904D02*
X120151000Y-99020285D01*
X120103380Y-98925047D01*
X120103380Y-98686952D01*
X120151000Y-98591714D01*
X120198619Y-98544095D01*
X120293857Y-98496476D01*
X120389095Y-98496476D01*
X120531952Y-98544095D01*
X121103380Y-99115523D01*
X121103380Y-98496476D01*
X120531952Y-97925047D02*
X120484333Y-98020285D01*
X120436714Y-98067904D01*
X120341476Y-98115523D01*
X120293857Y-98115523D01*
X120198619Y-98067904D01*
X120151000Y-98020285D01*
X120103380Y-97925047D01*
X120103380Y-97734571D01*
X120151000Y-97639333D01*
X120198619Y-97591714D01*
X120293857Y-97544095D01*
X120341476Y-97544095D01*
X120436714Y-97591714D01*
X120484333Y-97639333D01*
X120531952Y-97734571D01*
X120531952Y-97925047D01*
X120579571Y-98020285D01*
X120627190Y-98067904D01*
X120722428Y-98115523D01*
X120912904Y-98115523D01*
X121008142Y-98067904D01*
X121055761Y-98020285D01*
X121103380Y-97925047D01*
X121103380Y-97734571D01*
X121055761Y-97639333D01*
X121008142Y-97591714D01*
X120912904Y-97544095D01*
X120722428Y-97544095D01*
X120627190Y-97591714D01*
X120579571Y-97639333D01*
X120531952Y-97734571D01*
G04 #@! TO.C,R27*
X124276380Y-103338357D02*
X123800190Y-103671690D01*
X124276380Y-103909785D02*
X123276380Y-103909785D01*
X123276380Y-103528833D01*
X123324000Y-103433595D01*
X123371619Y-103385976D01*
X123466857Y-103338357D01*
X123609714Y-103338357D01*
X123704952Y-103385976D01*
X123752571Y-103433595D01*
X123800190Y-103528833D01*
X123800190Y-103909785D01*
X123371619Y-102957404D02*
X123324000Y-102909785D01*
X123276380Y-102814547D01*
X123276380Y-102576452D01*
X123324000Y-102481214D01*
X123371619Y-102433595D01*
X123466857Y-102385976D01*
X123562095Y-102385976D01*
X123704952Y-102433595D01*
X124276380Y-103005023D01*
X124276380Y-102385976D01*
X123276380Y-102052642D02*
X123276380Y-101385976D01*
X124276380Y-101814547D01*
G04 #@! TO.C,L2*
X94300380Y-108307166D02*
X94300380Y-108783357D01*
X93300380Y-108783357D01*
X93395619Y-108021452D02*
X93348000Y-107973833D01*
X93300380Y-107878595D01*
X93300380Y-107640500D01*
X93348000Y-107545261D01*
X93395619Y-107497642D01*
X93490857Y-107450023D01*
X93586095Y-107450023D01*
X93728952Y-107497642D01*
X94300380Y-108069071D01*
X94300380Y-107450023D01*
G04 #@! TO.C,J11*
X114050380Y-118411523D02*
X114764666Y-118411523D01*
X114907523Y-118459142D01*
X115002761Y-118554380D01*
X115050380Y-118697238D01*
X115050380Y-118792476D01*
X115050380Y-117411523D02*
X115050380Y-117982952D01*
X115050380Y-117697238D02*
X114050380Y-117697238D01*
X114193238Y-117792476D01*
X114288476Y-117887714D01*
X114336095Y-117982952D01*
X115050380Y-116459142D02*
X115050380Y-117030571D01*
X115050380Y-116744857D02*
X114050380Y-116744857D01*
X114193238Y-116840095D01*
X114288476Y-116935333D01*
X114336095Y-117030571D01*
G04 #@! TO.C,D3*
X110427880Y-107164095D02*
X109427880Y-107164095D01*
X109427880Y-106926000D01*
X109475500Y-106783142D01*
X109570738Y-106687904D01*
X109665976Y-106640285D01*
X109856452Y-106592666D01*
X109999309Y-106592666D01*
X110189785Y-106640285D01*
X110285023Y-106687904D01*
X110380261Y-106783142D01*
X110427880Y-106926000D01*
X110427880Y-107164095D01*
X109427880Y-106259333D02*
X109427880Y-105640285D01*
X109808833Y-105973619D01*
X109808833Y-105830761D01*
X109856452Y-105735523D01*
X109904071Y-105687904D01*
X109999309Y-105640285D01*
X110237404Y-105640285D01*
X110332642Y-105687904D01*
X110380261Y-105735523D01*
X110427880Y-105830761D01*
X110427880Y-106116476D01*
X110380261Y-106211714D01*
X110332642Y-106259333D01*
X110057880Y-101607904D02*
X109057880Y-101607904D01*
X110057880Y-101036476D02*
X109486452Y-101465047D01*
X109057880Y-101036476D02*
X109629309Y-101607904D01*
G04 #@! TO.C,C6*
X102601333Y-112616642D02*
X102553714Y-112664261D01*
X102410857Y-112711880D01*
X102315619Y-112711880D01*
X102172761Y-112664261D01*
X102077523Y-112569023D01*
X102029904Y-112473785D01*
X101982285Y-112283309D01*
X101982285Y-112140452D01*
X102029904Y-111949976D01*
X102077523Y-111854738D01*
X102172761Y-111759500D01*
X102315619Y-111711880D01*
X102410857Y-111711880D01*
X102553714Y-111759500D01*
X102601333Y-111807119D01*
X103458476Y-111711880D02*
X103268000Y-111711880D01*
X103172761Y-111759500D01*
X103125142Y-111807119D01*
X103029904Y-111949976D01*
X102982285Y-112140452D01*
X102982285Y-112521404D01*
X103029904Y-112616642D01*
X103077523Y-112664261D01*
X103172761Y-112711880D01*
X103363238Y-112711880D01*
X103458476Y-112664261D01*
X103506095Y-112616642D01*
X103553714Y-112521404D01*
X103553714Y-112283309D01*
X103506095Y-112188071D01*
X103458476Y-112140452D01*
X103363238Y-112092833D01*
X103172761Y-112092833D01*
X103077523Y-112140452D01*
X103029904Y-112188071D01*
X102982285Y-112283309D01*
G04 #@! TO.C,C5*
X113075333Y-111193642D02*
X113027714Y-111241261D01*
X112884857Y-111288880D01*
X112789619Y-111288880D01*
X112646761Y-111241261D01*
X112551523Y-111146023D01*
X112503904Y-111050785D01*
X112456285Y-110860309D01*
X112456285Y-110717452D01*
X112503904Y-110526976D01*
X112551523Y-110431738D01*
X112646761Y-110336500D01*
X112789619Y-110288880D01*
X112884857Y-110288880D01*
X113027714Y-110336500D01*
X113075333Y-110384119D01*
X113980095Y-110288880D02*
X113503904Y-110288880D01*
X113456285Y-110765071D01*
X113503904Y-110717452D01*
X113599142Y-110669833D01*
X113837238Y-110669833D01*
X113932476Y-110717452D01*
X113980095Y-110765071D01*
X114027714Y-110860309D01*
X114027714Y-111098404D01*
X113980095Y-111193642D01*
X113932476Y-111241261D01*
X113837238Y-111288880D01*
X113599142Y-111288880D01*
X113503904Y-111241261D01*
X113456285Y-111193642D01*
G04 #@! TO.C,R4*
X179868880Y-132860166D02*
X179392690Y-133193500D01*
X179868880Y-133431595D02*
X178868880Y-133431595D01*
X178868880Y-133050642D01*
X178916500Y-132955404D01*
X178964119Y-132907785D01*
X179059357Y-132860166D01*
X179202214Y-132860166D01*
X179297452Y-132907785D01*
X179345071Y-132955404D01*
X179392690Y-133050642D01*
X179392690Y-133431595D01*
X179202214Y-132003023D02*
X179868880Y-132003023D01*
X178821261Y-132241119D02*
X179535547Y-132479214D01*
X179535547Y-131860166D01*
G04 #@! TO.C,R3*
X176058880Y-130320166D02*
X175582690Y-130653500D01*
X176058880Y-130891595D02*
X175058880Y-130891595D01*
X175058880Y-130510642D01*
X175106500Y-130415404D01*
X175154119Y-130367785D01*
X175249357Y-130320166D01*
X175392214Y-130320166D01*
X175487452Y-130367785D01*
X175535071Y-130415404D01*
X175582690Y-130510642D01*
X175582690Y-130891595D01*
X175058880Y-129986833D02*
X175058880Y-129367785D01*
X175439833Y-129701119D01*
X175439833Y-129558261D01*
X175487452Y-129463023D01*
X175535071Y-129415404D01*
X175630309Y-129367785D01*
X175868404Y-129367785D01*
X175963642Y-129415404D01*
X176011261Y-129463023D01*
X176058880Y-129558261D01*
X176058880Y-129843976D01*
X176011261Y-129939214D01*
X175963642Y-129986833D01*
G04 #@! TO.C,J2*
X186840880Y-131067133D02*
X187555166Y-131067133D01*
X187698023Y-131114752D01*
X187793261Y-131209990D01*
X187840880Y-131352847D01*
X187840880Y-131448085D01*
X186936119Y-130638561D02*
X186888500Y-130590942D01*
X186840880Y-130495704D01*
X186840880Y-130257609D01*
X186888500Y-130162371D01*
X186936119Y-130114752D01*
X187031357Y-130067133D01*
X187126595Y-130067133D01*
X187269452Y-130114752D01*
X187840880Y-130686180D01*
X187840880Y-130067133D01*
G04 #@! TO.C,J3*
X169783166Y-136783380D02*
X169783166Y-137497666D01*
X169735547Y-137640523D01*
X169640309Y-137735761D01*
X169497452Y-137783380D01*
X169402214Y-137783380D01*
X170164119Y-136783380D02*
X170783166Y-136783380D01*
X170449833Y-137164333D01*
X170592690Y-137164333D01*
X170687928Y-137211952D01*
X170735547Y-137259571D01*
X170783166Y-137354809D01*
X170783166Y-137592904D01*
X170735547Y-137688142D01*
X170687928Y-137735761D01*
X170592690Y-137783380D01*
X170306976Y-137783380D01*
X170211738Y-137735761D01*
X170164119Y-137688142D01*
G04 #@! TO.C,U1*
X115849495Y-72950880D02*
X115849495Y-73760404D01*
X115897114Y-73855642D01*
X115944733Y-73903261D01*
X116039971Y-73950880D01*
X116230447Y-73950880D01*
X116325685Y-73903261D01*
X116373304Y-73855642D01*
X116420923Y-73760404D01*
X116420923Y-72950880D01*
X117420923Y-73950880D02*
X116849495Y-73950880D01*
X117135209Y-73950880D02*
X117135209Y-72950880D01*
X117039971Y-73093738D01*
X116944733Y-73188976D01*
X116849495Y-73236595D01*
G04 #@! TO.C,R6*
X112549133Y-85350880D02*
X112215800Y-84874690D01*
X111977704Y-85350880D02*
X111977704Y-84350880D01*
X112358657Y-84350880D01*
X112453895Y-84398500D01*
X112501514Y-84446119D01*
X112549133Y-84541357D01*
X112549133Y-84684214D01*
X112501514Y-84779452D01*
X112453895Y-84827071D01*
X112358657Y-84874690D01*
X111977704Y-84874690D01*
X113406276Y-84350880D02*
X113215800Y-84350880D01*
X113120561Y-84398500D01*
X113072942Y-84446119D01*
X112977704Y-84588976D01*
X112930085Y-84779452D01*
X112930085Y-85160404D01*
X112977704Y-85255642D01*
X113025323Y-85303261D01*
X113120561Y-85350880D01*
X113311038Y-85350880D01*
X113406276Y-85303261D01*
X113453895Y-85255642D01*
X113501514Y-85160404D01*
X113501514Y-84922309D01*
X113453895Y-84827071D01*
X113406276Y-84779452D01*
X113311038Y-84731833D01*
X113120561Y-84731833D01*
X113025323Y-84779452D01*
X112977704Y-84827071D01*
X112930085Y-84922309D01*
G04 #@! TO.C,R5*
X111025133Y-86064080D02*
X110691800Y-85587890D01*
X110453704Y-86064080D02*
X110453704Y-85064080D01*
X110834657Y-85064080D01*
X110929895Y-85111700D01*
X110977514Y-85159319D01*
X111025133Y-85254557D01*
X111025133Y-85397414D01*
X110977514Y-85492652D01*
X110929895Y-85540271D01*
X110834657Y-85587890D01*
X110453704Y-85587890D01*
X111929895Y-85064080D02*
X111453704Y-85064080D01*
X111406085Y-85540271D01*
X111453704Y-85492652D01*
X111548942Y-85445033D01*
X111787038Y-85445033D01*
X111882276Y-85492652D01*
X111929895Y-85540271D01*
X111977514Y-85635509D01*
X111977514Y-85873604D01*
X111929895Y-85968842D01*
X111882276Y-86016461D01*
X111787038Y-86064080D01*
X111548942Y-86064080D01*
X111453704Y-86016461D01*
X111406085Y-85968842D01*
G04 #@! TO.C,R1*
X126130580Y-78097166D02*
X125654390Y-78430500D01*
X126130580Y-78668595D02*
X125130580Y-78668595D01*
X125130580Y-78287642D01*
X125178200Y-78192404D01*
X125225819Y-78144785D01*
X125321057Y-78097166D01*
X125463914Y-78097166D01*
X125559152Y-78144785D01*
X125606771Y-78192404D01*
X125654390Y-78287642D01*
X125654390Y-78668595D01*
X126130580Y-77144785D02*
X126130580Y-77716214D01*
X126130580Y-77430500D02*
X125130580Y-77430500D01*
X125273438Y-77525738D01*
X125368676Y-77620976D01*
X125416295Y-77716214D01*
G04 #@! TO.C,R2*
X122169133Y-76156080D02*
X121835800Y-75679890D01*
X121597704Y-76156080D02*
X121597704Y-75156080D01*
X121978657Y-75156080D01*
X122073895Y-75203700D01*
X122121514Y-75251319D01*
X122169133Y-75346557D01*
X122169133Y-75489414D01*
X122121514Y-75584652D01*
X122073895Y-75632271D01*
X121978657Y-75679890D01*
X121597704Y-75679890D01*
X122550085Y-75251319D02*
X122597704Y-75203700D01*
X122692942Y-75156080D01*
X122931038Y-75156080D01*
X123026276Y-75203700D01*
X123073895Y-75251319D01*
X123121514Y-75346557D01*
X123121514Y-75441795D01*
X123073895Y-75584652D01*
X122502466Y-76156080D01*
X123121514Y-76156080D01*
G04 #@! TO.C,L1*
X94020980Y-81687966D02*
X94020980Y-82164157D01*
X93020980Y-82164157D01*
X94020980Y-80830823D02*
X94020980Y-81402252D01*
X94020980Y-81116538D02*
X93020980Y-81116538D01*
X93163838Y-81211776D01*
X93259076Y-81307014D01*
X93306695Y-81402252D01*
G04 #@! TO.C,J1*
X113466180Y-91455833D02*
X114180466Y-91455833D01*
X114323323Y-91503452D01*
X114418561Y-91598690D01*
X114466180Y-91741547D01*
X114466180Y-91836785D01*
X114466180Y-90455833D02*
X114466180Y-91027261D01*
X114466180Y-90741547D02*
X113466180Y-90741547D01*
X113609038Y-90836785D01*
X113704276Y-90932023D01*
X113751895Y-91027261D01*
G04 #@! TO.C,C2*
X102080633Y-85972042D02*
X102033014Y-86019661D01*
X101890157Y-86067280D01*
X101794919Y-86067280D01*
X101652061Y-86019661D01*
X101556823Y-85924423D01*
X101509204Y-85829185D01*
X101461585Y-85638709D01*
X101461585Y-85495852D01*
X101509204Y-85305376D01*
X101556823Y-85210138D01*
X101652061Y-85114900D01*
X101794919Y-85067280D01*
X101890157Y-85067280D01*
X102033014Y-85114900D01*
X102080633Y-85162519D01*
X102461585Y-85162519D02*
X102509204Y-85114900D01*
X102604442Y-85067280D01*
X102842538Y-85067280D01*
X102937776Y-85114900D01*
X102985395Y-85162519D01*
X103033014Y-85257757D01*
X103033014Y-85352995D01*
X102985395Y-85495852D01*
X102413966Y-86067280D01*
X103033014Y-86067280D01*
G04 #@! TO.C,D1*
X109475380Y-80379795D02*
X108475380Y-80379795D01*
X108475380Y-80141700D01*
X108523000Y-79998842D01*
X108618238Y-79903604D01*
X108713476Y-79855985D01*
X108903952Y-79808366D01*
X109046809Y-79808366D01*
X109237285Y-79855985D01*
X109332523Y-79903604D01*
X109427761Y-79998842D01*
X109475380Y-80141700D01*
X109475380Y-80379795D01*
X109475380Y-78855985D02*
X109475380Y-79427414D01*
X109475380Y-79141700D02*
X108475380Y-79141700D01*
X108618238Y-79236938D01*
X108713476Y-79332176D01*
X108761095Y-79427414D01*
X109105380Y-74823604D02*
X108105380Y-74823604D01*
X109105380Y-74252176D02*
X108533952Y-74680747D01*
X108105380Y-74252176D02*
X108676809Y-74823604D01*
G04 #@! TO.C,C1*
X112349342Y-78669266D02*
X112396961Y-78716885D01*
X112444580Y-78859742D01*
X112444580Y-78954980D01*
X112396961Y-79097838D01*
X112301723Y-79193076D01*
X112206485Y-79240695D01*
X112016009Y-79288314D01*
X111873152Y-79288314D01*
X111682676Y-79240695D01*
X111587438Y-79193076D01*
X111492200Y-79097838D01*
X111444580Y-78954980D01*
X111444580Y-78859742D01*
X111492200Y-78716885D01*
X111539819Y-78669266D01*
X112444580Y-77716885D02*
X112444580Y-78288314D01*
X112444580Y-78002600D02*
X111444580Y-78002600D01*
X111587438Y-78097838D01*
X111682676Y-78193076D01*
X111730295Y-78288314D01*
G04 #@! TO.C,R26*
X150719780Y-103106457D02*
X150243590Y-103439790D01*
X150719780Y-103677885D02*
X149719780Y-103677885D01*
X149719780Y-103296933D01*
X149767400Y-103201695D01*
X149815019Y-103154076D01*
X149910257Y-103106457D01*
X150053114Y-103106457D01*
X150148352Y-103154076D01*
X150195971Y-103201695D01*
X150243590Y-103296933D01*
X150243590Y-103677885D01*
X149815019Y-102725504D02*
X149767400Y-102677885D01*
X149719780Y-102582647D01*
X149719780Y-102344552D01*
X149767400Y-102249314D01*
X149815019Y-102201695D01*
X149910257Y-102154076D01*
X150005495Y-102154076D01*
X150148352Y-102201695D01*
X150719780Y-102773123D01*
X150719780Y-102154076D01*
X149719780Y-101296933D02*
X149719780Y-101487409D01*
X149767400Y-101582647D01*
X149815019Y-101630266D01*
X149957876Y-101725504D01*
X150148352Y-101773123D01*
X150529304Y-101773123D01*
X150624542Y-101725504D01*
X150672161Y-101677885D01*
X150719780Y-101582647D01*
X150719780Y-101392171D01*
X150672161Y-101296933D01*
X150624542Y-101249314D01*
X150529304Y-101201695D01*
X150291209Y-101201695D01*
X150195971Y-101249314D01*
X150148352Y-101296933D01*
X150100733Y-101392171D01*
X150100733Y-101582647D01*
X150148352Y-101677885D01*
X150195971Y-101725504D01*
X150291209Y-101773123D01*
G04 #@! TO.C,U3*
X147497895Y-91962780D02*
X147497895Y-92772304D01*
X147545514Y-92867542D01*
X147593133Y-92915161D01*
X147688371Y-92962780D01*
X147878847Y-92962780D01*
X147974085Y-92915161D01*
X148021704Y-92867542D01*
X148069323Y-92772304D01*
X148069323Y-91962780D01*
X148450276Y-91962780D02*
X149069323Y-91962780D01*
X148735990Y-92343733D01*
X148878847Y-92343733D01*
X148974085Y-92391352D01*
X149021704Y-92438971D01*
X149069323Y-92534209D01*
X149069323Y-92772304D01*
X149021704Y-92867542D01*
X148974085Y-92915161D01*
X148878847Y-92962780D01*
X148593133Y-92962780D01*
X148497895Y-92915161D01*
X148450276Y-92867542D01*
G04 #@! TO.C,U2*
X139547695Y-101890580D02*
X139547695Y-102700104D01*
X139595314Y-102795342D01*
X139642933Y-102842961D01*
X139738171Y-102890580D01*
X139928647Y-102890580D01*
X140023885Y-102842961D01*
X140071504Y-102795342D01*
X140119123Y-102700104D01*
X140119123Y-101890580D01*
X140547695Y-101985819D02*
X140595314Y-101938200D01*
X140690552Y-101890580D01*
X140928647Y-101890580D01*
X141023885Y-101938200D01*
X141071504Y-101985819D01*
X141119123Y-102081057D01*
X141119123Y-102176295D01*
X141071504Y-102319152D01*
X140500076Y-102890580D01*
X141119123Y-102890580D01*
G04 #@! TO.C,R25*
X146515342Y-100910380D02*
X146182009Y-100434190D01*
X145943914Y-100910380D02*
X145943914Y-99910380D01*
X146324866Y-99910380D01*
X146420104Y-99958000D01*
X146467723Y-100005619D01*
X146515342Y-100100857D01*
X146515342Y-100243714D01*
X146467723Y-100338952D01*
X146420104Y-100386571D01*
X146324866Y-100434190D01*
X145943914Y-100434190D01*
X146896295Y-100005619D02*
X146943914Y-99958000D01*
X147039152Y-99910380D01*
X147277247Y-99910380D01*
X147372485Y-99958000D01*
X147420104Y-100005619D01*
X147467723Y-100100857D01*
X147467723Y-100196095D01*
X147420104Y-100338952D01*
X146848676Y-100910380D01*
X147467723Y-100910380D01*
X148372485Y-99910380D02*
X147896295Y-99910380D01*
X147848676Y-100386571D01*
X147896295Y-100338952D01*
X147991533Y-100291333D01*
X148229628Y-100291333D01*
X148324866Y-100338952D01*
X148372485Y-100386571D01*
X148420104Y-100481809D01*
X148420104Y-100719904D01*
X148372485Y-100815142D01*
X148324866Y-100862761D01*
X148229628Y-100910380D01*
X147991533Y-100910380D01*
X147896295Y-100862761D01*
X147848676Y-100815142D01*
G04 #@! TO.C,J10*
X133226276Y-87393980D02*
X133226276Y-88108266D01*
X133178657Y-88251123D01*
X133083419Y-88346361D01*
X132940561Y-88393980D01*
X132845323Y-88393980D01*
X134226276Y-88393980D02*
X133654847Y-88393980D01*
X133940561Y-88393980D02*
X133940561Y-87393980D01*
X133845323Y-87536838D01*
X133750085Y-87632076D01*
X133654847Y-87679695D01*
X134845323Y-87393980D02*
X134940561Y-87393980D01*
X135035800Y-87441600D01*
X135083419Y-87489219D01*
X135131038Y-87584457D01*
X135178657Y-87774933D01*
X135178657Y-88013028D01*
X135131038Y-88203504D01*
X135083419Y-88298742D01*
X135035800Y-88346361D01*
X134940561Y-88393980D01*
X134845323Y-88393980D01*
X134750085Y-88346361D01*
X134702466Y-88298742D01*
X134654847Y-88203504D01*
X134607228Y-88013028D01*
X134607228Y-87774933D01*
X134654847Y-87584457D01*
X134702466Y-87489219D01*
X134750085Y-87441600D01*
X134845323Y-87393980D01*
G04 #@! TO.C,D2*
X148029704Y-90247580D02*
X148029704Y-89247580D01*
X148267800Y-89247580D01*
X148410657Y-89295200D01*
X148505895Y-89390438D01*
X148553514Y-89485676D01*
X148601133Y-89676152D01*
X148601133Y-89819009D01*
X148553514Y-90009485D01*
X148505895Y-90104723D01*
X148410657Y-90199961D01*
X148267800Y-90247580D01*
X148029704Y-90247580D01*
X148982085Y-89342819D02*
X149029704Y-89295200D01*
X149124942Y-89247580D01*
X149363038Y-89247580D01*
X149458276Y-89295200D01*
X149505895Y-89342819D01*
X149553514Y-89438057D01*
X149553514Y-89533295D01*
X149505895Y-89676152D01*
X148934466Y-90247580D01*
X149553514Y-90247580D01*
X153585895Y-89877580D02*
X153585895Y-88877580D01*
X154157323Y-89877580D02*
X153728752Y-89306152D01*
X154157323Y-88877580D02*
X153585895Y-89449009D01*
G04 #@! TO.C,C4*
X146489033Y-89913942D02*
X146441414Y-89961561D01*
X146298557Y-90009180D01*
X146203319Y-90009180D01*
X146060461Y-89961561D01*
X145965223Y-89866323D01*
X145917604Y-89771085D01*
X145869985Y-89580609D01*
X145869985Y-89437752D01*
X145917604Y-89247276D01*
X145965223Y-89152038D01*
X146060461Y-89056800D01*
X146203319Y-89009180D01*
X146298557Y-89009180D01*
X146441414Y-89056800D01*
X146489033Y-89104419D01*
X147346176Y-89342514D02*
X147346176Y-90009180D01*
X147108080Y-88961561D02*
X146869985Y-89675847D01*
X147489033Y-89675847D01*
G04 #@! TO.C,C3*
X156494542Y-95387366D02*
X156542161Y-95434985D01*
X156589780Y-95577842D01*
X156589780Y-95673080D01*
X156542161Y-95815938D01*
X156446923Y-95911176D01*
X156351685Y-95958795D01*
X156161209Y-96006414D01*
X156018352Y-96006414D01*
X155827876Y-95958795D01*
X155732638Y-95911176D01*
X155637400Y-95815938D01*
X155589780Y-95673080D01*
X155589780Y-95577842D01*
X155637400Y-95434985D01*
X155685019Y-95387366D01*
X155589780Y-95054033D02*
X155589780Y-94434985D01*
X155970733Y-94768319D01*
X155970733Y-94625461D01*
X156018352Y-94530223D01*
X156065971Y-94482604D01*
X156161209Y-94434985D01*
X156399304Y-94434985D01*
X156494542Y-94482604D01*
X156542161Y-94530223D01*
X156589780Y-94625461D01*
X156589780Y-94911176D01*
X156542161Y-95006414D01*
X156494542Y-95054033D01*
G04 #@! TO.C,R26*
X181263280Y-122283457D02*
X180787090Y-122616790D01*
X181263280Y-122854885D02*
X180263280Y-122854885D01*
X180263280Y-122473933D01*
X180310900Y-122378695D01*
X180358519Y-122331076D01*
X180453757Y-122283457D01*
X180596614Y-122283457D01*
X180691852Y-122331076D01*
X180739471Y-122378695D01*
X180787090Y-122473933D01*
X180787090Y-122854885D01*
X180358519Y-121902504D02*
X180310900Y-121854885D01*
X180263280Y-121759647D01*
X180263280Y-121521552D01*
X180310900Y-121426314D01*
X180358519Y-121378695D01*
X180453757Y-121331076D01*
X180548995Y-121331076D01*
X180691852Y-121378695D01*
X181263280Y-121950123D01*
X181263280Y-121331076D01*
X180263280Y-120473933D02*
X180263280Y-120664409D01*
X180310900Y-120759647D01*
X180358519Y-120807266D01*
X180501376Y-120902504D01*
X180691852Y-120950123D01*
X181072804Y-120950123D01*
X181168042Y-120902504D01*
X181215661Y-120854885D01*
X181263280Y-120759647D01*
X181263280Y-120569171D01*
X181215661Y-120473933D01*
X181168042Y-120426314D01*
X181072804Y-120378695D01*
X180834709Y-120378695D01*
X180739471Y-120426314D01*
X180691852Y-120473933D01*
X180644233Y-120569171D01*
X180644233Y-120759647D01*
X180691852Y-120854885D01*
X180739471Y-120902504D01*
X180834709Y-120950123D01*
G04 #@! TO.C,U3*
X178041395Y-111139780D02*
X178041395Y-111949304D01*
X178089014Y-112044542D01*
X178136633Y-112092161D01*
X178231871Y-112139780D01*
X178422347Y-112139780D01*
X178517585Y-112092161D01*
X178565204Y-112044542D01*
X178612823Y-111949304D01*
X178612823Y-111139780D01*
X178993776Y-111139780D02*
X179612823Y-111139780D01*
X179279490Y-111520733D01*
X179422347Y-111520733D01*
X179517585Y-111568352D01*
X179565204Y-111615971D01*
X179612823Y-111711209D01*
X179612823Y-111949304D01*
X179565204Y-112044542D01*
X179517585Y-112092161D01*
X179422347Y-112139780D01*
X179136633Y-112139780D01*
X179041395Y-112092161D01*
X178993776Y-112044542D01*
G04 #@! TO.C,U2*
X170091195Y-121067580D02*
X170091195Y-121877104D01*
X170138814Y-121972342D01*
X170186433Y-122019961D01*
X170281671Y-122067580D01*
X170472147Y-122067580D01*
X170567385Y-122019961D01*
X170615004Y-121972342D01*
X170662623Y-121877104D01*
X170662623Y-121067580D01*
X171091195Y-121162819D02*
X171138814Y-121115200D01*
X171234052Y-121067580D01*
X171472147Y-121067580D01*
X171567385Y-121115200D01*
X171615004Y-121162819D01*
X171662623Y-121258057D01*
X171662623Y-121353295D01*
X171615004Y-121496152D01*
X171043576Y-122067580D01*
X171662623Y-122067580D01*
G04 #@! TO.C,R25*
X177058842Y-120087380D02*
X176725509Y-119611190D01*
X176487414Y-120087380D02*
X176487414Y-119087380D01*
X176868366Y-119087380D01*
X176963604Y-119135000D01*
X177011223Y-119182619D01*
X177058842Y-119277857D01*
X177058842Y-119420714D01*
X177011223Y-119515952D01*
X176963604Y-119563571D01*
X176868366Y-119611190D01*
X176487414Y-119611190D01*
X177439795Y-119182619D02*
X177487414Y-119135000D01*
X177582652Y-119087380D01*
X177820747Y-119087380D01*
X177915985Y-119135000D01*
X177963604Y-119182619D01*
X178011223Y-119277857D01*
X178011223Y-119373095D01*
X177963604Y-119515952D01*
X177392176Y-120087380D01*
X178011223Y-120087380D01*
X178915985Y-119087380D02*
X178439795Y-119087380D01*
X178392176Y-119563571D01*
X178439795Y-119515952D01*
X178535033Y-119468333D01*
X178773128Y-119468333D01*
X178868366Y-119515952D01*
X178915985Y-119563571D01*
X178963604Y-119658809D01*
X178963604Y-119896904D01*
X178915985Y-119992142D01*
X178868366Y-120039761D01*
X178773128Y-120087380D01*
X178535033Y-120087380D01*
X178439795Y-120039761D01*
X178392176Y-119992142D01*
G04 #@! TO.C,J10*
X163769776Y-106570980D02*
X163769776Y-107285266D01*
X163722157Y-107428123D01*
X163626919Y-107523361D01*
X163484061Y-107570980D01*
X163388823Y-107570980D01*
X164769776Y-107570980D02*
X164198347Y-107570980D01*
X164484061Y-107570980D02*
X164484061Y-106570980D01*
X164388823Y-106713838D01*
X164293585Y-106809076D01*
X164198347Y-106856695D01*
X165388823Y-106570980D02*
X165484061Y-106570980D01*
X165579300Y-106618600D01*
X165626919Y-106666219D01*
X165674538Y-106761457D01*
X165722157Y-106951933D01*
X165722157Y-107190028D01*
X165674538Y-107380504D01*
X165626919Y-107475742D01*
X165579300Y-107523361D01*
X165484061Y-107570980D01*
X165388823Y-107570980D01*
X165293585Y-107523361D01*
X165245966Y-107475742D01*
X165198347Y-107380504D01*
X165150728Y-107190028D01*
X165150728Y-106951933D01*
X165198347Y-106761457D01*
X165245966Y-106666219D01*
X165293585Y-106618600D01*
X165388823Y-106570980D01*
G04 #@! TO.C,D2*
X178573204Y-109424580D02*
X178573204Y-108424580D01*
X178811300Y-108424580D01*
X178954157Y-108472200D01*
X179049395Y-108567438D01*
X179097014Y-108662676D01*
X179144633Y-108853152D01*
X179144633Y-108996009D01*
X179097014Y-109186485D01*
X179049395Y-109281723D01*
X178954157Y-109376961D01*
X178811300Y-109424580D01*
X178573204Y-109424580D01*
X179525585Y-108519819D02*
X179573204Y-108472200D01*
X179668442Y-108424580D01*
X179906538Y-108424580D01*
X180001776Y-108472200D01*
X180049395Y-108519819D01*
X180097014Y-108615057D01*
X180097014Y-108710295D01*
X180049395Y-108853152D01*
X179477966Y-109424580D01*
X180097014Y-109424580D01*
X184129395Y-109054580D02*
X184129395Y-108054580D01*
X184700823Y-109054580D02*
X184272252Y-108483152D01*
X184700823Y-108054580D02*
X184129395Y-108626009D01*
G04 #@! TO.C,C4*
X177032533Y-109090942D02*
X176984914Y-109138561D01*
X176842057Y-109186180D01*
X176746819Y-109186180D01*
X176603961Y-109138561D01*
X176508723Y-109043323D01*
X176461104Y-108948085D01*
X176413485Y-108757609D01*
X176413485Y-108614752D01*
X176461104Y-108424276D01*
X176508723Y-108329038D01*
X176603961Y-108233800D01*
X176746819Y-108186180D01*
X176842057Y-108186180D01*
X176984914Y-108233800D01*
X177032533Y-108281419D01*
X177889676Y-108519514D02*
X177889676Y-109186180D01*
X177651580Y-108138561D02*
X177413485Y-108852847D01*
X178032533Y-108852847D01*
G04 #@! TO.C,C3*
X187038042Y-114564366D02*
X187085661Y-114611985D01*
X187133280Y-114754842D01*
X187133280Y-114850080D01*
X187085661Y-114992938D01*
X186990423Y-115088176D01*
X186895185Y-115135795D01*
X186704709Y-115183414D01*
X186561852Y-115183414D01*
X186371376Y-115135795D01*
X186276138Y-115088176D01*
X186180900Y-114992938D01*
X186133280Y-114850080D01*
X186133280Y-114754842D01*
X186180900Y-114611985D01*
X186228519Y-114564366D01*
X186133280Y-114231033D02*
X186133280Y-113611985D01*
X186514233Y-113945319D01*
X186514233Y-113802461D01*
X186561852Y-113707223D01*
X186609471Y-113659604D01*
X186704709Y-113611985D01*
X186942804Y-113611985D01*
X187038042Y-113659604D01*
X187085661Y-113707223D01*
X187133280Y-113802461D01*
X187133280Y-114088176D01*
X187085661Y-114183414D01*
X187038042Y-114231033D01*
G04 #@! TO.C,R26*
X183168280Y-100185457D02*
X182692090Y-100518790D01*
X183168280Y-100756885D02*
X182168280Y-100756885D01*
X182168280Y-100375933D01*
X182215900Y-100280695D01*
X182263519Y-100233076D01*
X182358757Y-100185457D01*
X182501614Y-100185457D01*
X182596852Y-100233076D01*
X182644471Y-100280695D01*
X182692090Y-100375933D01*
X182692090Y-100756885D01*
X182263519Y-99804504D02*
X182215900Y-99756885D01*
X182168280Y-99661647D01*
X182168280Y-99423552D01*
X182215900Y-99328314D01*
X182263519Y-99280695D01*
X182358757Y-99233076D01*
X182453995Y-99233076D01*
X182596852Y-99280695D01*
X183168280Y-99852123D01*
X183168280Y-99233076D01*
X182168280Y-98375933D02*
X182168280Y-98566409D01*
X182215900Y-98661647D01*
X182263519Y-98709266D01*
X182406376Y-98804504D01*
X182596852Y-98852123D01*
X182977804Y-98852123D01*
X183073042Y-98804504D01*
X183120661Y-98756885D01*
X183168280Y-98661647D01*
X183168280Y-98471171D01*
X183120661Y-98375933D01*
X183073042Y-98328314D01*
X182977804Y-98280695D01*
X182739709Y-98280695D01*
X182644471Y-98328314D01*
X182596852Y-98375933D01*
X182549233Y-98471171D01*
X182549233Y-98661647D01*
X182596852Y-98756885D01*
X182644471Y-98804504D01*
X182739709Y-98852123D01*
G04 #@! TO.C,U3*
X179946395Y-89041780D02*
X179946395Y-89851304D01*
X179994014Y-89946542D01*
X180041633Y-89994161D01*
X180136871Y-90041780D01*
X180327347Y-90041780D01*
X180422585Y-89994161D01*
X180470204Y-89946542D01*
X180517823Y-89851304D01*
X180517823Y-89041780D01*
X180898776Y-89041780D02*
X181517823Y-89041780D01*
X181184490Y-89422733D01*
X181327347Y-89422733D01*
X181422585Y-89470352D01*
X181470204Y-89517971D01*
X181517823Y-89613209D01*
X181517823Y-89851304D01*
X181470204Y-89946542D01*
X181422585Y-89994161D01*
X181327347Y-90041780D01*
X181041633Y-90041780D01*
X180946395Y-89994161D01*
X180898776Y-89946542D01*
G04 #@! TO.C,U2*
X171996195Y-98969580D02*
X171996195Y-99779104D01*
X172043814Y-99874342D01*
X172091433Y-99921961D01*
X172186671Y-99969580D01*
X172377147Y-99969580D01*
X172472385Y-99921961D01*
X172520004Y-99874342D01*
X172567623Y-99779104D01*
X172567623Y-98969580D01*
X172996195Y-99064819D02*
X173043814Y-99017200D01*
X173139052Y-98969580D01*
X173377147Y-98969580D01*
X173472385Y-99017200D01*
X173520004Y-99064819D01*
X173567623Y-99160057D01*
X173567623Y-99255295D01*
X173520004Y-99398152D01*
X172948576Y-99969580D01*
X173567623Y-99969580D01*
G04 #@! TO.C,R25*
X178963842Y-97989380D02*
X178630509Y-97513190D01*
X178392414Y-97989380D02*
X178392414Y-96989380D01*
X178773366Y-96989380D01*
X178868604Y-97037000D01*
X178916223Y-97084619D01*
X178963842Y-97179857D01*
X178963842Y-97322714D01*
X178916223Y-97417952D01*
X178868604Y-97465571D01*
X178773366Y-97513190D01*
X178392414Y-97513190D01*
X179344795Y-97084619D02*
X179392414Y-97037000D01*
X179487652Y-96989380D01*
X179725747Y-96989380D01*
X179820985Y-97037000D01*
X179868604Y-97084619D01*
X179916223Y-97179857D01*
X179916223Y-97275095D01*
X179868604Y-97417952D01*
X179297176Y-97989380D01*
X179916223Y-97989380D01*
X180820985Y-96989380D02*
X180344795Y-96989380D01*
X180297176Y-97465571D01*
X180344795Y-97417952D01*
X180440033Y-97370333D01*
X180678128Y-97370333D01*
X180773366Y-97417952D01*
X180820985Y-97465571D01*
X180868604Y-97560809D01*
X180868604Y-97798904D01*
X180820985Y-97894142D01*
X180773366Y-97941761D01*
X180678128Y-97989380D01*
X180440033Y-97989380D01*
X180344795Y-97941761D01*
X180297176Y-97894142D01*
G04 #@! TO.C,J10*
X165674776Y-84472980D02*
X165674776Y-85187266D01*
X165627157Y-85330123D01*
X165531919Y-85425361D01*
X165389061Y-85472980D01*
X165293823Y-85472980D01*
X166674776Y-85472980D02*
X166103347Y-85472980D01*
X166389061Y-85472980D02*
X166389061Y-84472980D01*
X166293823Y-84615838D01*
X166198585Y-84711076D01*
X166103347Y-84758695D01*
X167293823Y-84472980D02*
X167389061Y-84472980D01*
X167484300Y-84520600D01*
X167531919Y-84568219D01*
X167579538Y-84663457D01*
X167627157Y-84853933D01*
X167627157Y-85092028D01*
X167579538Y-85282504D01*
X167531919Y-85377742D01*
X167484300Y-85425361D01*
X167389061Y-85472980D01*
X167293823Y-85472980D01*
X167198585Y-85425361D01*
X167150966Y-85377742D01*
X167103347Y-85282504D01*
X167055728Y-85092028D01*
X167055728Y-84853933D01*
X167103347Y-84663457D01*
X167150966Y-84568219D01*
X167198585Y-84520600D01*
X167293823Y-84472980D01*
G04 #@! TO.C,D2*
X180478204Y-87326580D02*
X180478204Y-86326580D01*
X180716300Y-86326580D01*
X180859157Y-86374200D01*
X180954395Y-86469438D01*
X181002014Y-86564676D01*
X181049633Y-86755152D01*
X181049633Y-86898009D01*
X181002014Y-87088485D01*
X180954395Y-87183723D01*
X180859157Y-87278961D01*
X180716300Y-87326580D01*
X180478204Y-87326580D01*
X181430585Y-86421819D02*
X181478204Y-86374200D01*
X181573442Y-86326580D01*
X181811538Y-86326580D01*
X181906776Y-86374200D01*
X181954395Y-86421819D01*
X182002014Y-86517057D01*
X182002014Y-86612295D01*
X181954395Y-86755152D01*
X181382966Y-87326580D01*
X182002014Y-87326580D01*
X186034395Y-86956580D02*
X186034395Y-85956580D01*
X186605823Y-86956580D02*
X186177252Y-86385152D01*
X186605823Y-85956580D02*
X186034395Y-86528009D01*
G04 #@! TO.C,C4*
X178937533Y-86992942D02*
X178889914Y-87040561D01*
X178747057Y-87088180D01*
X178651819Y-87088180D01*
X178508961Y-87040561D01*
X178413723Y-86945323D01*
X178366104Y-86850085D01*
X178318485Y-86659609D01*
X178318485Y-86516752D01*
X178366104Y-86326276D01*
X178413723Y-86231038D01*
X178508961Y-86135800D01*
X178651819Y-86088180D01*
X178747057Y-86088180D01*
X178889914Y-86135800D01*
X178937533Y-86183419D01*
X179794676Y-86421514D02*
X179794676Y-87088180D01*
X179556580Y-86040561D02*
X179318485Y-86754847D01*
X179937533Y-86754847D01*
G04 #@! TO.C,C3*
X188943042Y-92466366D02*
X188990661Y-92513985D01*
X189038280Y-92656842D01*
X189038280Y-92752080D01*
X188990661Y-92894938D01*
X188895423Y-92990176D01*
X188800185Y-93037795D01*
X188609709Y-93085414D01*
X188466852Y-93085414D01*
X188276376Y-93037795D01*
X188181138Y-92990176D01*
X188085900Y-92894938D01*
X188038280Y-92752080D01*
X188038280Y-92656842D01*
X188085900Y-92513985D01*
X188133519Y-92466366D01*
X188038280Y-92133033D02*
X188038280Y-91513985D01*
X188419233Y-91847319D01*
X188419233Y-91704461D01*
X188466852Y-91609223D01*
X188514471Y-91561604D01*
X188609709Y-91513985D01*
X188847804Y-91513985D01*
X188943042Y-91561604D01*
X188990661Y-91609223D01*
X189038280Y-91704461D01*
X189038280Y-91990176D01*
X188990661Y-92085414D01*
X188943042Y-92133033D01*
G04 #@! TO.C,R26*
X182850780Y-76817457D02*
X182374590Y-77150790D01*
X182850780Y-77388885D02*
X181850780Y-77388885D01*
X181850780Y-77007933D01*
X181898400Y-76912695D01*
X181946019Y-76865076D01*
X182041257Y-76817457D01*
X182184114Y-76817457D01*
X182279352Y-76865076D01*
X182326971Y-76912695D01*
X182374590Y-77007933D01*
X182374590Y-77388885D01*
X181946019Y-76436504D02*
X181898400Y-76388885D01*
X181850780Y-76293647D01*
X181850780Y-76055552D01*
X181898400Y-75960314D01*
X181946019Y-75912695D01*
X182041257Y-75865076D01*
X182136495Y-75865076D01*
X182279352Y-75912695D01*
X182850780Y-76484123D01*
X182850780Y-75865076D01*
X181850780Y-75007933D02*
X181850780Y-75198409D01*
X181898400Y-75293647D01*
X181946019Y-75341266D01*
X182088876Y-75436504D01*
X182279352Y-75484123D01*
X182660304Y-75484123D01*
X182755542Y-75436504D01*
X182803161Y-75388885D01*
X182850780Y-75293647D01*
X182850780Y-75103171D01*
X182803161Y-75007933D01*
X182755542Y-74960314D01*
X182660304Y-74912695D01*
X182422209Y-74912695D01*
X182326971Y-74960314D01*
X182279352Y-75007933D01*
X182231733Y-75103171D01*
X182231733Y-75293647D01*
X182279352Y-75388885D01*
X182326971Y-75436504D01*
X182422209Y-75484123D01*
G04 #@! TO.C,U3*
X179628895Y-65673780D02*
X179628895Y-66483304D01*
X179676514Y-66578542D01*
X179724133Y-66626161D01*
X179819371Y-66673780D01*
X180009847Y-66673780D01*
X180105085Y-66626161D01*
X180152704Y-66578542D01*
X180200323Y-66483304D01*
X180200323Y-65673780D01*
X180581276Y-65673780D02*
X181200323Y-65673780D01*
X180866990Y-66054733D01*
X181009847Y-66054733D01*
X181105085Y-66102352D01*
X181152704Y-66149971D01*
X181200323Y-66245209D01*
X181200323Y-66483304D01*
X181152704Y-66578542D01*
X181105085Y-66626161D01*
X181009847Y-66673780D01*
X180724133Y-66673780D01*
X180628895Y-66626161D01*
X180581276Y-66578542D01*
G04 #@! TO.C,U2*
X171678695Y-75601580D02*
X171678695Y-76411104D01*
X171726314Y-76506342D01*
X171773933Y-76553961D01*
X171869171Y-76601580D01*
X172059647Y-76601580D01*
X172154885Y-76553961D01*
X172202504Y-76506342D01*
X172250123Y-76411104D01*
X172250123Y-75601580D01*
X172678695Y-75696819D02*
X172726314Y-75649200D01*
X172821552Y-75601580D01*
X173059647Y-75601580D01*
X173154885Y-75649200D01*
X173202504Y-75696819D01*
X173250123Y-75792057D01*
X173250123Y-75887295D01*
X173202504Y-76030152D01*
X172631076Y-76601580D01*
X173250123Y-76601580D01*
G04 #@! TO.C,R25*
X178646342Y-74621380D02*
X178313009Y-74145190D01*
X178074914Y-74621380D02*
X178074914Y-73621380D01*
X178455866Y-73621380D01*
X178551104Y-73669000D01*
X178598723Y-73716619D01*
X178646342Y-73811857D01*
X178646342Y-73954714D01*
X178598723Y-74049952D01*
X178551104Y-74097571D01*
X178455866Y-74145190D01*
X178074914Y-74145190D01*
X179027295Y-73716619D02*
X179074914Y-73669000D01*
X179170152Y-73621380D01*
X179408247Y-73621380D01*
X179503485Y-73669000D01*
X179551104Y-73716619D01*
X179598723Y-73811857D01*
X179598723Y-73907095D01*
X179551104Y-74049952D01*
X178979676Y-74621380D01*
X179598723Y-74621380D01*
X180503485Y-73621380D02*
X180027295Y-73621380D01*
X179979676Y-74097571D01*
X180027295Y-74049952D01*
X180122533Y-74002333D01*
X180360628Y-74002333D01*
X180455866Y-74049952D01*
X180503485Y-74097571D01*
X180551104Y-74192809D01*
X180551104Y-74430904D01*
X180503485Y-74526142D01*
X180455866Y-74573761D01*
X180360628Y-74621380D01*
X180122533Y-74621380D01*
X180027295Y-74573761D01*
X179979676Y-74526142D01*
G04 #@! TO.C,J10*
X165357276Y-61104980D02*
X165357276Y-61819266D01*
X165309657Y-61962123D01*
X165214419Y-62057361D01*
X165071561Y-62104980D01*
X164976323Y-62104980D01*
X166357276Y-62104980D02*
X165785847Y-62104980D01*
X166071561Y-62104980D02*
X166071561Y-61104980D01*
X165976323Y-61247838D01*
X165881085Y-61343076D01*
X165785847Y-61390695D01*
X166976323Y-61104980D02*
X167071561Y-61104980D01*
X167166800Y-61152600D01*
X167214419Y-61200219D01*
X167262038Y-61295457D01*
X167309657Y-61485933D01*
X167309657Y-61724028D01*
X167262038Y-61914504D01*
X167214419Y-62009742D01*
X167166800Y-62057361D01*
X167071561Y-62104980D01*
X166976323Y-62104980D01*
X166881085Y-62057361D01*
X166833466Y-62009742D01*
X166785847Y-61914504D01*
X166738228Y-61724028D01*
X166738228Y-61485933D01*
X166785847Y-61295457D01*
X166833466Y-61200219D01*
X166881085Y-61152600D01*
X166976323Y-61104980D01*
G04 #@! TO.C,D2*
X180160704Y-63958580D02*
X180160704Y-62958580D01*
X180398800Y-62958580D01*
X180541657Y-63006200D01*
X180636895Y-63101438D01*
X180684514Y-63196676D01*
X180732133Y-63387152D01*
X180732133Y-63530009D01*
X180684514Y-63720485D01*
X180636895Y-63815723D01*
X180541657Y-63910961D01*
X180398800Y-63958580D01*
X180160704Y-63958580D01*
X181113085Y-63053819D02*
X181160704Y-63006200D01*
X181255942Y-62958580D01*
X181494038Y-62958580D01*
X181589276Y-63006200D01*
X181636895Y-63053819D01*
X181684514Y-63149057D01*
X181684514Y-63244295D01*
X181636895Y-63387152D01*
X181065466Y-63958580D01*
X181684514Y-63958580D01*
X185716895Y-63588580D02*
X185716895Y-62588580D01*
X186288323Y-63588580D02*
X185859752Y-63017152D01*
X186288323Y-62588580D02*
X185716895Y-63160009D01*
G04 #@! TO.C,C4*
X178620033Y-63624942D02*
X178572414Y-63672561D01*
X178429557Y-63720180D01*
X178334319Y-63720180D01*
X178191461Y-63672561D01*
X178096223Y-63577323D01*
X178048604Y-63482085D01*
X178000985Y-63291609D01*
X178000985Y-63148752D01*
X178048604Y-62958276D01*
X178096223Y-62863038D01*
X178191461Y-62767800D01*
X178334319Y-62720180D01*
X178429557Y-62720180D01*
X178572414Y-62767800D01*
X178620033Y-62815419D01*
X179477176Y-63053514D02*
X179477176Y-63720180D01*
X179239080Y-62672561D02*
X179000985Y-63386847D01*
X179620033Y-63386847D01*
G04 #@! TO.C,C3*
X188625542Y-69098366D02*
X188673161Y-69145985D01*
X188720780Y-69288842D01*
X188720780Y-69384080D01*
X188673161Y-69526938D01*
X188577923Y-69622176D01*
X188482685Y-69669795D01*
X188292209Y-69717414D01*
X188149352Y-69717414D01*
X187958876Y-69669795D01*
X187863638Y-69622176D01*
X187768400Y-69526938D01*
X187720780Y-69384080D01*
X187720780Y-69288842D01*
X187768400Y-69145985D01*
X187816019Y-69098366D01*
X187720780Y-68765033D02*
X187720780Y-68145985D01*
X188101733Y-68479319D01*
X188101733Y-68336461D01*
X188149352Y-68241223D01*
X188196971Y-68193604D01*
X188292209Y-68145985D01*
X188530304Y-68145985D01*
X188625542Y-68193604D01*
X188673161Y-68241223D01*
X188720780Y-68336461D01*
X188720780Y-68622176D01*
X188673161Y-68717414D01*
X188625542Y-68765033D01*
G04 #@! TO.C,TH6*
X126517685Y-138378680D02*
X127089114Y-138378680D01*
X126803400Y-139378680D02*
X126803400Y-138378680D01*
X127422447Y-139378680D02*
X127422447Y-138378680D01*
X127422447Y-138854871D02*
X127993876Y-138854871D01*
X127993876Y-139378680D02*
X127993876Y-138378680D01*
X128898638Y-138378680D02*
X128708161Y-138378680D01*
X128612923Y-138426300D01*
X128565304Y-138473919D01*
X128470066Y-138616776D01*
X128422447Y-138807252D01*
X128422447Y-139188204D01*
X128470066Y-139283442D01*
X128517685Y-139331061D01*
X128612923Y-139378680D01*
X128803400Y-139378680D01*
X128898638Y-139331061D01*
X128946257Y-139283442D01*
X128993876Y-139188204D01*
X128993876Y-138950109D01*
X128946257Y-138854871D01*
X128898638Y-138807252D01*
X128803400Y-138759633D01*
X128612923Y-138759633D01*
X128517685Y-138807252D01*
X128470066Y-138854871D01*
X128422447Y-138950109D01*
G04 #@! TO.C,TH5*
X99580985Y-139254980D02*
X100152414Y-139254980D01*
X99866700Y-140254980D02*
X99866700Y-139254980D01*
X100485747Y-140254980D02*
X100485747Y-139254980D01*
X100485747Y-139731171D02*
X101057176Y-139731171D01*
X101057176Y-140254980D02*
X101057176Y-139254980D01*
X102009557Y-139254980D02*
X101533366Y-139254980D01*
X101485747Y-139731171D01*
X101533366Y-139683552D01*
X101628604Y-139635933D01*
X101866700Y-139635933D01*
X101961938Y-139683552D01*
X102009557Y-139731171D01*
X102057176Y-139826409D01*
X102057176Y-140064504D01*
X102009557Y-140159742D01*
X101961938Y-140207361D01*
X101866700Y-140254980D01*
X101628604Y-140254980D01*
X101533366Y-140207361D01*
X101485747Y-140159742D01*
G04 #@! TO.C,TH4*
X140894085Y-146925780D02*
X141465514Y-146925780D01*
X141179800Y-147925780D02*
X141179800Y-146925780D01*
X141798847Y-147925780D02*
X141798847Y-146925780D01*
X141798847Y-147401971D02*
X142370276Y-147401971D01*
X142370276Y-147925780D02*
X142370276Y-146925780D01*
X143275038Y-147259114D02*
X143275038Y-147925780D01*
X143036942Y-146878161D02*
X142798847Y-147592447D01*
X143417895Y-147592447D01*
G04 #@! TO.C,TH3*
X153809985Y-146443180D02*
X154381414Y-146443180D01*
X154095700Y-147443180D02*
X154095700Y-146443180D01*
X154714747Y-147443180D02*
X154714747Y-146443180D01*
X154714747Y-146919371D02*
X155286176Y-146919371D01*
X155286176Y-147443180D02*
X155286176Y-146443180D01*
X155667128Y-146443180D02*
X156286176Y-146443180D01*
X155952842Y-146824133D01*
X156095700Y-146824133D01*
X156190938Y-146871752D01*
X156238557Y-146919371D01*
X156286176Y-147014609D01*
X156286176Y-147252704D01*
X156238557Y-147347942D01*
X156190938Y-147395561D01*
X156095700Y-147443180D01*
X155809985Y-147443180D01*
X155714747Y-147395561D01*
X155667128Y-147347942D01*
G04 #@! TO.C,TH2*
X166770085Y-146735280D02*
X167341514Y-146735280D01*
X167055800Y-147735280D02*
X167055800Y-146735280D01*
X167674847Y-147735280D02*
X167674847Y-146735280D01*
X167674847Y-147211471D02*
X168246276Y-147211471D01*
X168246276Y-147735280D02*
X168246276Y-146735280D01*
X168674847Y-146830519D02*
X168722466Y-146782900D01*
X168817704Y-146735280D01*
X169055800Y-146735280D01*
X169151038Y-146782900D01*
X169198657Y-146830519D01*
X169246276Y-146925757D01*
X169246276Y-147020995D01*
X169198657Y-147163852D01*
X168627228Y-147735280D01*
X169246276Y-147735280D01*
G04 #@! TO.C,TH1*
X113925385Y-139127980D02*
X114496814Y-139127980D01*
X114211100Y-140127980D02*
X114211100Y-139127980D01*
X114830147Y-140127980D02*
X114830147Y-139127980D01*
X114830147Y-139604171D02*
X115401576Y-139604171D01*
X115401576Y-140127980D02*
X115401576Y-139127980D01*
X116401576Y-140127980D02*
X115830147Y-140127980D01*
X116115861Y-140127980D02*
X116115861Y-139127980D01*
X116020623Y-139270838D01*
X115925385Y-139366076D01*
X115830147Y-139413695D01*
G04 #@! TO.C,R24*
X127363742Y-151721080D02*
X127030409Y-151244890D01*
X126792314Y-151721080D02*
X126792314Y-150721080D01*
X127173266Y-150721080D01*
X127268504Y-150768700D01*
X127316123Y-150816319D01*
X127363742Y-150911557D01*
X127363742Y-151054414D01*
X127316123Y-151149652D01*
X127268504Y-151197271D01*
X127173266Y-151244890D01*
X126792314Y-151244890D01*
X127744695Y-150816319D02*
X127792314Y-150768700D01*
X127887552Y-150721080D01*
X128125647Y-150721080D01*
X128220885Y-150768700D01*
X128268504Y-150816319D01*
X128316123Y-150911557D01*
X128316123Y-151006795D01*
X128268504Y-151149652D01*
X127697076Y-151721080D01*
X128316123Y-151721080D01*
X129173266Y-151054414D02*
X129173266Y-151721080D01*
X128935171Y-150673461D02*
X128697076Y-151387747D01*
X129316123Y-151387747D01*
G04 #@! TO.C,R23*
X101443042Y-151733780D02*
X101109709Y-151257590D01*
X100871614Y-151733780D02*
X100871614Y-150733780D01*
X101252566Y-150733780D01*
X101347804Y-150781400D01*
X101395423Y-150829019D01*
X101443042Y-150924257D01*
X101443042Y-151067114D01*
X101395423Y-151162352D01*
X101347804Y-151209971D01*
X101252566Y-151257590D01*
X100871614Y-151257590D01*
X101823995Y-150829019D02*
X101871614Y-150781400D01*
X101966852Y-150733780D01*
X102204947Y-150733780D01*
X102300185Y-150781400D01*
X102347804Y-150829019D01*
X102395423Y-150924257D01*
X102395423Y-151019495D01*
X102347804Y-151162352D01*
X101776376Y-151733780D01*
X102395423Y-151733780D01*
X102728757Y-150733780D02*
X103347804Y-150733780D01*
X103014471Y-151114733D01*
X103157328Y-151114733D01*
X103252566Y-151162352D01*
X103300185Y-151209971D01*
X103347804Y-151305209D01*
X103347804Y-151543304D01*
X103300185Y-151638542D01*
X103252566Y-151686161D01*
X103157328Y-151733780D01*
X102871614Y-151733780D01*
X102776376Y-151686161D01*
X102728757Y-151638542D01*
G04 #@! TO.C,R22*
X132326142Y-142627880D02*
X131992809Y-142151690D01*
X131754714Y-142627880D02*
X131754714Y-141627880D01*
X132135666Y-141627880D01*
X132230904Y-141675500D01*
X132278523Y-141723119D01*
X132326142Y-141818357D01*
X132326142Y-141961214D01*
X132278523Y-142056452D01*
X132230904Y-142104071D01*
X132135666Y-142151690D01*
X131754714Y-142151690D01*
X132707095Y-141723119D02*
X132754714Y-141675500D01*
X132849952Y-141627880D01*
X133088047Y-141627880D01*
X133183285Y-141675500D01*
X133230904Y-141723119D01*
X133278523Y-141818357D01*
X133278523Y-141913595D01*
X133230904Y-142056452D01*
X132659476Y-142627880D01*
X133278523Y-142627880D01*
X133659476Y-141723119D02*
X133707095Y-141675500D01*
X133802333Y-141627880D01*
X134040428Y-141627880D01*
X134135666Y-141675500D01*
X134183285Y-141723119D01*
X134230904Y-141818357D01*
X134230904Y-141913595D01*
X134183285Y-142056452D01*
X133611857Y-142627880D01*
X134230904Y-142627880D01*
G04 #@! TO.C,R21*
X132834142Y-148471880D02*
X132500809Y-147995690D01*
X132262714Y-148471880D02*
X132262714Y-147471880D01*
X132643666Y-147471880D01*
X132738904Y-147519500D01*
X132786523Y-147567119D01*
X132834142Y-147662357D01*
X132834142Y-147805214D01*
X132786523Y-147900452D01*
X132738904Y-147948071D01*
X132643666Y-147995690D01*
X132262714Y-147995690D01*
X133215095Y-147567119D02*
X133262714Y-147519500D01*
X133357952Y-147471880D01*
X133596047Y-147471880D01*
X133691285Y-147519500D01*
X133738904Y-147567119D01*
X133786523Y-147662357D01*
X133786523Y-147757595D01*
X133738904Y-147900452D01*
X133167476Y-148471880D01*
X133786523Y-148471880D01*
X134738904Y-148471880D02*
X134167476Y-148471880D01*
X134453190Y-148471880D02*
X134453190Y-147471880D01*
X134357952Y-147614738D01*
X134262714Y-147709976D01*
X134167476Y-147757595D01*
G04 #@! TO.C,R20*
X105557842Y-143504180D02*
X105224509Y-143027990D01*
X104986414Y-143504180D02*
X104986414Y-142504180D01*
X105367366Y-142504180D01*
X105462604Y-142551800D01*
X105510223Y-142599419D01*
X105557842Y-142694657D01*
X105557842Y-142837514D01*
X105510223Y-142932752D01*
X105462604Y-142980371D01*
X105367366Y-143027990D01*
X104986414Y-143027990D01*
X105938795Y-142599419D02*
X105986414Y-142551800D01*
X106081652Y-142504180D01*
X106319747Y-142504180D01*
X106414985Y-142551800D01*
X106462604Y-142599419D01*
X106510223Y-142694657D01*
X106510223Y-142789895D01*
X106462604Y-142932752D01*
X105891176Y-143504180D01*
X106510223Y-143504180D01*
X107129271Y-142504180D02*
X107224509Y-142504180D01*
X107319747Y-142551800D01*
X107367366Y-142599419D01*
X107414985Y-142694657D01*
X107462604Y-142885133D01*
X107462604Y-143123228D01*
X107414985Y-143313704D01*
X107367366Y-143408942D01*
X107319747Y-143456561D01*
X107224509Y-143504180D01*
X107129271Y-143504180D01*
X107034033Y-143456561D01*
X106986414Y-143408942D01*
X106938795Y-143313704D01*
X106891176Y-143123228D01*
X106891176Y-142885133D01*
X106938795Y-142694657D01*
X106986414Y-142599419D01*
X107034033Y-142551800D01*
X107129271Y-142504180D01*
G04 #@! TO.C,R19*
X106015042Y-148586180D02*
X105681709Y-148109990D01*
X105443614Y-148586180D02*
X105443614Y-147586180D01*
X105824566Y-147586180D01*
X105919804Y-147633800D01*
X105967423Y-147681419D01*
X106015042Y-147776657D01*
X106015042Y-147919514D01*
X105967423Y-148014752D01*
X105919804Y-148062371D01*
X105824566Y-148109990D01*
X105443614Y-148109990D01*
X106967423Y-148586180D02*
X106395995Y-148586180D01*
X106681709Y-148586180D02*
X106681709Y-147586180D01*
X106586471Y-147729038D01*
X106491233Y-147824276D01*
X106395995Y-147871895D01*
X107443614Y-148586180D02*
X107634090Y-148586180D01*
X107729328Y-148538561D01*
X107776947Y-148490942D01*
X107872185Y-148348085D01*
X107919804Y-148157609D01*
X107919804Y-147776657D01*
X107872185Y-147681419D01*
X107824566Y-147633800D01*
X107729328Y-147586180D01*
X107538852Y-147586180D01*
X107443614Y-147633800D01*
X107395995Y-147681419D01*
X107348376Y-147776657D01*
X107348376Y-148014752D01*
X107395995Y-148109990D01*
X107443614Y-148157609D01*
X107538852Y-148205228D01*
X107729328Y-148205228D01*
X107824566Y-148157609D01*
X107872185Y-148109990D01*
X107919804Y-148014752D01*
G04 #@! TO.C,R18*
X141079742Y-142437380D02*
X140746409Y-141961190D01*
X140508314Y-142437380D02*
X140508314Y-141437380D01*
X140889266Y-141437380D01*
X140984504Y-141485000D01*
X141032123Y-141532619D01*
X141079742Y-141627857D01*
X141079742Y-141770714D01*
X141032123Y-141865952D01*
X140984504Y-141913571D01*
X140889266Y-141961190D01*
X140508314Y-141961190D01*
X142032123Y-142437380D02*
X141460695Y-142437380D01*
X141746409Y-142437380D02*
X141746409Y-141437380D01*
X141651171Y-141580238D01*
X141555933Y-141675476D01*
X141460695Y-141723095D01*
X142603552Y-141865952D02*
X142508314Y-141818333D01*
X142460695Y-141770714D01*
X142413076Y-141675476D01*
X142413076Y-141627857D01*
X142460695Y-141532619D01*
X142508314Y-141485000D01*
X142603552Y-141437380D01*
X142794028Y-141437380D01*
X142889266Y-141485000D01*
X142936885Y-141532619D01*
X142984504Y-141627857D01*
X142984504Y-141675476D01*
X142936885Y-141770714D01*
X142889266Y-141818333D01*
X142794028Y-141865952D01*
X142603552Y-141865952D01*
X142508314Y-141913571D01*
X142460695Y-141961190D01*
X142413076Y-142056428D01*
X142413076Y-142246904D01*
X142460695Y-142342142D01*
X142508314Y-142389761D01*
X142603552Y-142437380D01*
X142794028Y-142437380D01*
X142889266Y-142389761D01*
X142936885Y-142342142D01*
X142984504Y-142246904D01*
X142984504Y-142056428D01*
X142936885Y-141961190D01*
X142889266Y-141913571D01*
X142794028Y-141865952D01*
G04 #@! TO.C,R17*
X154573242Y-142462780D02*
X154239909Y-141986590D01*
X154001814Y-142462780D02*
X154001814Y-141462780D01*
X154382766Y-141462780D01*
X154478004Y-141510400D01*
X154525623Y-141558019D01*
X154573242Y-141653257D01*
X154573242Y-141796114D01*
X154525623Y-141891352D01*
X154478004Y-141938971D01*
X154382766Y-141986590D01*
X154001814Y-141986590D01*
X155525623Y-142462780D02*
X154954195Y-142462780D01*
X155239909Y-142462780D02*
X155239909Y-141462780D01*
X155144671Y-141605638D01*
X155049433Y-141700876D01*
X154954195Y-141748495D01*
X155858957Y-141462780D02*
X156525623Y-141462780D01*
X156097052Y-142462780D01*
G04 #@! TO.C,R16*
X146769342Y-150870180D02*
X146436009Y-150393990D01*
X146197914Y-150870180D02*
X146197914Y-149870180D01*
X146578866Y-149870180D01*
X146674104Y-149917800D01*
X146721723Y-149965419D01*
X146769342Y-150060657D01*
X146769342Y-150203514D01*
X146721723Y-150298752D01*
X146674104Y-150346371D01*
X146578866Y-150393990D01*
X146197914Y-150393990D01*
X147721723Y-150870180D02*
X147150295Y-150870180D01*
X147436009Y-150870180D02*
X147436009Y-149870180D01*
X147340771Y-150013038D01*
X147245533Y-150108276D01*
X147150295Y-150155895D01*
X148578866Y-149870180D02*
X148388390Y-149870180D01*
X148293152Y-149917800D01*
X148245533Y-149965419D01*
X148150295Y-150108276D01*
X148102676Y-150298752D01*
X148102676Y-150679704D01*
X148150295Y-150774942D01*
X148197914Y-150822561D01*
X148293152Y-150870180D01*
X148483628Y-150870180D01*
X148578866Y-150822561D01*
X148626485Y-150774942D01*
X148674104Y-150679704D01*
X148674104Y-150441609D01*
X148626485Y-150346371D01*
X148578866Y-150298752D01*
X148483628Y-150251133D01*
X148293152Y-150251133D01*
X148197914Y-150298752D01*
X148150295Y-150346371D01*
X148102676Y-150441609D01*
G04 #@! TO.C,R15*
X146515342Y-139391380D02*
X146182009Y-138915190D01*
X145943914Y-139391380D02*
X145943914Y-138391380D01*
X146324866Y-138391380D01*
X146420104Y-138439000D01*
X146467723Y-138486619D01*
X146515342Y-138581857D01*
X146515342Y-138724714D01*
X146467723Y-138819952D01*
X146420104Y-138867571D01*
X146324866Y-138915190D01*
X145943914Y-138915190D01*
X147467723Y-139391380D02*
X146896295Y-139391380D01*
X147182009Y-139391380D02*
X147182009Y-138391380D01*
X147086771Y-138534238D01*
X146991533Y-138629476D01*
X146896295Y-138677095D01*
X148372485Y-138391380D02*
X147896295Y-138391380D01*
X147848676Y-138867571D01*
X147896295Y-138819952D01*
X147991533Y-138772333D01*
X148229628Y-138772333D01*
X148324866Y-138819952D01*
X148372485Y-138867571D01*
X148420104Y-138962809D01*
X148420104Y-139200904D01*
X148372485Y-139296142D01*
X148324866Y-139343761D01*
X148229628Y-139391380D01*
X147991533Y-139391380D01*
X147896295Y-139343761D01*
X147848676Y-139296142D01*
G04 #@! TO.C,R14*
X159551642Y-150743180D02*
X159218309Y-150266990D01*
X158980214Y-150743180D02*
X158980214Y-149743180D01*
X159361166Y-149743180D01*
X159456404Y-149790800D01*
X159504023Y-149838419D01*
X159551642Y-149933657D01*
X159551642Y-150076514D01*
X159504023Y-150171752D01*
X159456404Y-150219371D01*
X159361166Y-150266990D01*
X158980214Y-150266990D01*
X160504023Y-150743180D02*
X159932595Y-150743180D01*
X160218309Y-150743180D02*
X160218309Y-149743180D01*
X160123071Y-149886038D01*
X160027833Y-149981276D01*
X159932595Y-150028895D01*
X161361166Y-150076514D02*
X161361166Y-150743180D01*
X161123071Y-149695561D02*
X160884976Y-150409847D01*
X161504023Y-150409847D01*
G04 #@! TO.C,R13*
X158942042Y-139315180D02*
X158608709Y-138838990D01*
X158370614Y-139315180D02*
X158370614Y-138315180D01*
X158751566Y-138315180D01*
X158846804Y-138362800D01*
X158894423Y-138410419D01*
X158942042Y-138505657D01*
X158942042Y-138648514D01*
X158894423Y-138743752D01*
X158846804Y-138791371D01*
X158751566Y-138838990D01*
X158370614Y-138838990D01*
X159894423Y-139315180D02*
X159322995Y-139315180D01*
X159608709Y-139315180D02*
X159608709Y-138315180D01*
X159513471Y-138458038D01*
X159418233Y-138553276D01*
X159322995Y-138600895D01*
X160227757Y-138315180D02*
X160846804Y-138315180D01*
X160513471Y-138696133D01*
X160656328Y-138696133D01*
X160751566Y-138743752D01*
X160799185Y-138791371D01*
X160846804Y-138886609D01*
X160846804Y-139124704D01*
X160799185Y-139219942D01*
X160751566Y-139267561D01*
X160656328Y-139315180D01*
X160370614Y-139315180D01*
X160275376Y-139267561D01*
X160227757Y-139219942D01*
G04 #@! TO.C,R12*
X167616142Y-142704080D02*
X167282809Y-142227890D01*
X167044714Y-142704080D02*
X167044714Y-141704080D01*
X167425666Y-141704080D01*
X167520904Y-141751700D01*
X167568523Y-141799319D01*
X167616142Y-141894557D01*
X167616142Y-142037414D01*
X167568523Y-142132652D01*
X167520904Y-142180271D01*
X167425666Y-142227890D01*
X167044714Y-142227890D01*
X168568523Y-142704080D02*
X167997095Y-142704080D01*
X168282809Y-142704080D02*
X168282809Y-141704080D01*
X168187571Y-141846938D01*
X168092333Y-141942176D01*
X167997095Y-141989795D01*
X168949476Y-141799319D02*
X168997095Y-141751700D01*
X169092333Y-141704080D01*
X169330428Y-141704080D01*
X169425666Y-141751700D01*
X169473285Y-141799319D01*
X169520904Y-141894557D01*
X169520904Y-141989795D01*
X169473285Y-142132652D01*
X168901857Y-142704080D01*
X169520904Y-142704080D01*
G04 #@! TO.C,R11*
X115228642Y-151251180D02*
X114895309Y-150774990D01*
X114657214Y-151251180D02*
X114657214Y-150251180D01*
X115038166Y-150251180D01*
X115133404Y-150298800D01*
X115181023Y-150346419D01*
X115228642Y-150441657D01*
X115228642Y-150584514D01*
X115181023Y-150679752D01*
X115133404Y-150727371D01*
X115038166Y-150774990D01*
X114657214Y-150774990D01*
X116181023Y-151251180D02*
X115609595Y-151251180D01*
X115895309Y-151251180D02*
X115895309Y-150251180D01*
X115800071Y-150394038D01*
X115704833Y-150489276D01*
X115609595Y-150536895D01*
X117133404Y-151251180D02*
X116561976Y-151251180D01*
X116847690Y-151251180D02*
X116847690Y-150251180D01*
X116752452Y-150394038D01*
X116657214Y-150489276D01*
X116561976Y-150536895D01*
G04 #@! TO.C,R10*
X172645342Y-150882880D02*
X172312009Y-150406690D01*
X172073914Y-150882880D02*
X172073914Y-149882880D01*
X172454866Y-149882880D01*
X172550104Y-149930500D01*
X172597723Y-149978119D01*
X172645342Y-150073357D01*
X172645342Y-150216214D01*
X172597723Y-150311452D01*
X172550104Y-150359071D01*
X172454866Y-150406690D01*
X172073914Y-150406690D01*
X173597723Y-150882880D02*
X173026295Y-150882880D01*
X173312009Y-150882880D02*
X173312009Y-149882880D01*
X173216771Y-150025738D01*
X173121533Y-150120976D01*
X173026295Y-150168595D01*
X174216771Y-149882880D02*
X174312009Y-149882880D01*
X174407247Y-149930500D01*
X174454866Y-149978119D01*
X174502485Y-150073357D01*
X174550104Y-150263833D01*
X174550104Y-150501928D01*
X174502485Y-150692404D01*
X174454866Y-150787642D01*
X174407247Y-150835261D01*
X174312009Y-150882880D01*
X174216771Y-150882880D01*
X174121533Y-150835261D01*
X174073914Y-150787642D01*
X174026295Y-150692404D01*
X173978676Y-150501928D01*
X173978676Y-150263833D01*
X174026295Y-150073357D01*
X174073914Y-149978119D01*
X174121533Y-149930500D01*
X174216771Y-149882880D01*
G04 #@! TO.C,R9*
X172848733Y-139556480D02*
X172515400Y-139080290D01*
X172277304Y-139556480D02*
X172277304Y-138556480D01*
X172658257Y-138556480D01*
X172753495Y-138604100D01*
X172801114Y-138651719D01*
X172848733Y-138746957D01*
X172848733Y-138889814D01*
X172801114Y-138985052D01*
X172753495Y-139032671D01*
X172658257Y-139080290D01*
X172277304Y-139080290D01*
X173324923Y-139556480D02*
X173515400Y-139556480D01*
X173610638Y-139508861D01*
X173658257Y-139461242D01*
X173753495Y-139318385D01*
X173801114Y-139127909D01*
X173801114Y-138746957D01*
X173753495Y-138651719D01*
X173705876Y-138604100D01*
X173610638Y-138556480D01*
X173420161Y-138556480D01*
X173324923Y-138604100D01*
X173277304Y-138651719D01*
X173229685Y-138746957D01*
X173229685Y-138985052D01*
X173277304Y-139080290D01*
X173324923Y-139127909D01*
X173420161Y-139175528D01*
X173610638Y-139175528D01*
X173705876Y-139127909D01*
X173753495Y-139080290D01*
X173801114Y-138985052D01*
G04 #@! TO.C,R8*
X120410433Y-143173980D02*
X120077100Y-142697790D01*
X119839004Y-143173980D02*
X119839004Y-142173980D01*
X120219957Y-142173980D01*
X120315195Y-142221600D01*
X120362814Y-142269219D01*
X120410433Y-142364457D01*
X120410433Y-142507314D01*
X120362814Y-142602552D01*
X120315195Y-142650171D01*
X120219957Y-142697790D01*
X119839004Y-142697790D01*
X120981861Y-142602552D02*
X120886623Y-142554933D01*
X120839004Y-142507314D01*
X120791385Y-142412076D01*
X120791385Y-142364457D01*
X120839004Y-142269219D01*
X120886623Y-142221600D01*
X120981861Y-142173980D01*
X121172338Y-142173980D01*
X121267576Y-142221600D01*
X121315195Y-142269219D01*
X121362814Y-142364457D01*
X121362814Y-142412076D01*
X121315195Y-142507314D01*
X121267576Y-142554933D01*
X121172338Y-142602552D01*
X120981861Y-142602552D01*
X120886623Y-142650171D01*
X120839004Y-142697790D01*
X120791385Y-142793028D01*
X120791385Y-142983504D01*
X120839004Y-143078742D01*
X120886623Y-143126361D01*
X120981861Y-143173980D01*
X121172338Y-143173980D01*
X121267576Y-143126361D01*
X121315195Y-143078742D01*
X121362814Y-142983504D01*
X121362814Y-142793028D01*
X121315195Y-142697790D01*
X121267576Y-142650171D01*
X121172338Y-142602552D01*
G04 #@! TO.C,R7*
X120308833Y-148306780D02*
X119975500Y-147830590D01*
X119737404Y-148306780D02*
X119737404Y-147306780D01*
X120118357Y-147306780D01*
X120213595Y-147354400D01*
X120261214Y-147402019D01*
X120308833Y-147497257D01*
X120308833Y-147640114D01*
X120261214Y-147735352D01*
X120213595Y-147782971D01*
X120118357Y-147830590D01*
X119737404Y-147830590D01*
X120642166Y-147306780D02*
X121308833Y-147306780D01*
X120880261Y-148306780D01*
G04 #@! TO.C,R4*
X97895880Y-63243666D02*
X97419690Y-63577000D01*
X97895880Y-63815095D02*
X96895880Y-63815095D01*
X96895880Y-63434142D01*
X96943500Y-63338904D01*
X96991119Y-63291285D01*
X97086357Y-63243666D01*
X97229214Y-63243666D01*
X97324452Y-63291285D01*
X97372071Y-63338904D01*
X97419690Y-63434142D01*
X97419690Y-63815095D01*
X97229214Y-62386523D02*
X97895880Y-62386523D01*
X96848261Y-62624619D02*
X97562547Y-62862714D01*
X97562547Y-62243666D01*
G04 #@! TO.C,R3*
X101705880Y-65783666D02*
X101229690Y-66117000D01*
X101705880Y-66355095D02*
X100705880Y-66355095D01*
X100705880Y-65974142D01*
X100753500Y-65878904D01*
X100801119Y-65831285D01*
X100896357Y-65783666D01*
X101039214Y-65783666D01*
X101134452Y-65831285D01*
X101182071Y-65878904D01*
X101229690Y-65974142D01*
X101229690Y-66355095D01*
X100705880Y-65450333D02*
X100705880Y-64831285D01*
X101086833Y-65164619D01*
X101086833Y-65021761D01*
X101134452Y-64926523D01*
X101182071Y-64878904D01*
X101277309Y-64831285D01*
X101515404Y-64831285D01*
X101610642Y-64878904D01*
X101658261Y-64926523D01*
X101705880Y-65021761D01*
X101705880Y-65307476D01*
X101658261Y-65402714D01*
X101610642Y-65450333D01*
G04 #@! TO.C,J9*
X124147780Y-145684833D02*
X124862066Y-145684833D01*
X125004923Y-145732452D01*
X125100161Y-145827690D01*
X125147780Y-145970547D01*
X125147780Y-146065785D01*
X125147780Y-145161023D02*
X125147780Y-144970547D01*
X125100161Y-144875309D01*
X125052542Y-144827690D01*
X124909685Y-144732452D01*
X124719209Y-144684833D01*
X124338257Y-144684833D01*
X124243019Y-144732452D01*
X124195400Y-144780071D01*
X124147780Y-144875309D01*
X124147780Y-145065785D01*
X124195400Y-145161023D01*
X124243019Y-145208642D01*
X124338257Y-145256261D01*
X124576352Y-145256261D01*
X124671590Y-145208642D01*
X124719209Y-145161023D01*
X124766828Y-145065785D01*
X124766828Y-144875309D01*
X124719209Y-144780071D01*
X124671590Y-144732452D01*
X124576352Y-144684833D01*
G04 #@! TO.C,J8*
X97414280Y-145900733D02*
X98128566Y-145900733D01*
X98271423Y-145948352D01*
X98366661Y-146043590D01*
X98414280Y-146186447D01*
X98414280Y-146281685D01*
X97842852Y-145281685D02*
X97795233Y-145376923D01*
X97747614Y-145424542D01*
X97652376Y-145472161D01*
X97604757Y-145472161D01*
X97509519Y-145424542D01*
X97461900Y-145376923D01*
X97414280Y-145281685D01*
X97414280Y-145091209D01*
X97461900Y-144995971D01*
X97509519Y-144948352D01*
X97604757Y-144900733D01*
X97652376Y-144900733D01*
X97747614Y-144948352D01*
X97795233Y-144995971D01*
X97842852Y-145091209D01*
X97842852Y-145281685D01*
X97890471Y-145376923D01*
X97938090Y-145424542D01*
X98033328Y-145472161D01*
X98223804Y-145472161D01*
X98319042Y-145424542D01*
X98366661Y-145376923D01*
X98414280Y-145281685D01*
X98414280Y-145091209D01*
X98366661Y-144995971D01*
X98319042Y-144948352D01*
X98223804Y-144900733D01*
X98033328Y-144900733D01*
X97938090Y-144948352D01*
X97890471Y-144995971D01*
X97842852Y-145091209D01*
G04 #@! TO.C,J7*
X137609780Y-145037133D02*
X138324066Y-145037133D01*
X138466923Y-145084752D01*
X138562161Y-145179990D01*
X138609780Y-145322847D01*
X138609780Y-145418085D01*
X137609780Y-144656180D02*
X137609780Y-143989514D01*
X138609780Y-144418085D01*
G04 #@! TO.C,J6*
X151084480Y-145011733D02*
X151798766Y-145011733D01*
X151941623Y-145059352D01*
X152036861Y-145154590D01*
X152084480Y-145297447D01*
X152084480Y-145392685D01*
X151084480Y-144106971D02*
X151084480Y-144297447D01*
X151132100Y-144392685D01*
X151179719Y-144440304D01*
X151322576Y-144535542D01*
X151513052Y-144583161D01*
X151894004Y-144583161D01*
X151989242Y-144535542D01*
X152036861Y-144487923D01*
X152084480Y-144392685D01*
X152084480Y-144202209D01*
X152036861Y-144106971D01*
X151989242Y-144059352D01*
X151894004Y-144011733D01*
X151655909Y-144011733D01*
X151560671Y-144059352D01*
X151513052Y-144106971D01*
X151465433Y-144202209D01*
X151465433Y-144392685D01*
X151513052Y-144487923D01*
X151560671Y-144535542D01*
X151655909Y-144583161D01*
G04 #@! TO.C,J5*
X164076580Y-145100633D02*
X164790866Y-145100633D01*
X164933723Y-145148252D01*
X165028961Y-145243490D01*
X165076580Y-145386347D01*
X165076580Y-145481585D01*
X164076580Y-144148252D02*
X164076580Y-144624442D01*
X164552771Y-144672061D01*
X164505152Y-144624442D01*
X164457533Y-144529204D01*
X164457533Y-144291109D01*
X164505152Y-144195871D01*
X164552771Y-144148252D01*
X164648009Y-144100633D01*
X164886104Y-144100633D01*
X164981342Y-144148252D01*
X165028961Y-144195871D01*
X165076580Y-144291109D01*
X165076580Y-144529204D01*
X165028961Y-144624442D01*
X164981342Y-144672061D01*
G04 #@! TO.C,J4*
X111130280Y-145672133D02*
X111844566Y-145672133D01*
X111987423Y-145719752D01*
X112082661Y-145814990D01*
X112130280Y-145957847D01*
X112130280Y-146053085D01*
X111463614Y-144767371D02*
X112130280Y-144767371D01*
X111082661Y-145005466D02*
X111796947Y-145243561D01*
X111796947Y-144624514D01*
G04 #@! TO.C,J3*
X106410166Y-57891880D02*
X106410166Y-58606166D01*
X106362547Y-58749023D01*
X106267309Y-58844261D01*
X106124452Y-58891880D01*
X106029214Y-58891880D01*
X106791119Y-57891880D02*
X107410166Y-57891880D01*
X107076833Y-58272833D01*
X107219690Y-58272833D01*
X107314928Y-58320452D01*
X107362547Y-58368071D01*
X107410166Y-58463309D01*
X107410166Y-58701404D01*
X107362547Y-58796642D01*
X107314928Y-58844261D01*
X107219690Y-58891880D01*
X106933976Y-58891880D01*
X106838738Y-58844261D01*
X106791119Y-58796642D01*
G04 #@! TO.C,J2*
X88923880Y-65370033D02*
X89638166Y-65370033D01*
X89781023Y-65417652D01*
X89876261Y-65512890D01*
X89923880Y-65655747D01*
X89923880Y-65750985D01*
X89019119Y-64941461D02*
X88971500Y-64893842D01*
X88923880Y-64798604D01*
X88923880Y-64560509D01*
X88971500Y-64465271D01*
X89019119Y-64417652D01*
X89114357Y-64370033D01*
X89209595Y-64370033D01*
X89352452Y-64417652D01*
X89923880Y-64989080D01*
X89923880Y-64370033D01*
G04 #@! TD*
M02*
