G04 #@! TF.GenerationSoftware,KiCad,Pcbnew,(5.1.12)-1*
G04 #@! TF.CreationDate,2022-01-07T20:34:09-08:00*
G04 #@! TF.ProjectId,schematic,73636865-6d61-4746-9963-2e6b69636164,rev?*
G04 #@! TF.SameCoordinates,Original*
G04 #@! TF.FileFunction,Copper,L2,Bot*
G04 #@! TF.FilePolarity,Positive*
%FSLAX46Y46*%
G04 Gerber Fmt 4.6, Leading zero omitted, Abs format (unit mm)*
G04 Created by KiCad (PCBNEW (5.1.12)-1) date 2022-01-07 20:34:09*
%MOMM*%
%LPD*%
G01*
G04 APERTURE LIST*
G04 #@! TA.AperFunction,ComponentPad*
%ADD10O,1.600000X1.600000*%
G04 #@! TD*
G04 #@! TA.AperFunction,ComponentPad*
%ADD11R,1.600000X1.600000*%
G04 #@! TD*
G04 #@! TA.AperFunction,ComponentPad*
%ADD12O,2.200000X2.200000*%
G04 #@! TD*
G04 #@! TA.AperFunction,ComponentPad*
%ADD13R,2.200000X2.200000*%
G04 #@! TD*
G04 #@! TA.AperFunction,ComponentPad*
%ADD14O,1.700000X1.700000*%
G04 #@! TD*
G04 #@! TA.AperFunction,ComponentPad*
%ADD15R,1.700000X1.700000*%
G04 #@! TD*
G04 #@! TA.AperFunction,ComponentPad*
%ADD16O,1.700000X1.100000*%
G04 #@! TD*
G04 #@! TA.AperFunction,ViaPad*
%ADD17C,0.800000*%
G04 #@! TD*
G04 #@! TA.AperFunction,Conductor*
%ADD18C,0.500000*%
G04 #@! TD*
G04 #@! TA.AperFunction,Conductor*
%ADD19C,1.000000*%
G04 #@! TD*
G04 APERTURE END LIST*
D10*
G04 #@! TO.P,U4,8*
G04 #@! TO.N,N/C*
X152463500Y-109537500D03*
G04 #@! TO.P,U4,4*
X144843500Y-117157500D03*
G04 #@! TO.P,U4,7*
X152463500Y-112077500D03*
G04 #@! TO.P,U4,3*
X144843500Y-114617500D03*
G04 #@! TO.P,U4,6*
X152463500Y-114617500D03*
G04 #@! TO.P,U4,2*
X144843500Y-112077500D03*
G04 #@! TO.P,U4,5*
X152463500Y-117157500D03*
D11*
G04 #@! TO.P,U4,1*
X144843500Y-109537500D03*
G04 #@! TD*
D12*
G04 #@! TO.P,D3,2*
G04 #@! TO.N,N/C*
X141033500Y-122364500D03*
D13*
G04 #@! TO.P,D3,1*
X141033500Y-112204500D03*
G04 #@! TD*
D14*
G04 #@! TO.P,J11,4*
G04 #@! TO.N,N/C*
X138176000Y-128460500D03*
G04 #@! TO.P,J11,3*
X140716000Y-128460500D03*
G04 #@! TO.P,J11,2*
X143256000Y-128460500D03*
D15*
G04 #@! TO.P,J11,1*
X145796000Y-128460500D03*
G04 #@! TD*
G04 #@! TO.P,J11,1*
G04 #@! TO.N,N/C*
X147383500Y-79502000D03*
D14*
G04 #@! TO.P,J11,2*
X144843500Y-79502000D03*
G04 #@! TO.P,J11,3*
X142303500Y-79502000D03*
G04 #@! TO.P,J11,4*
X139763500Y-79502000D03*
G04 #@! TD*
D13*
G04 #@! TO.P,D3,1*
G04 #@! TO.N,N/C*
X142621000Y-63246000D03*
D12*
G04 #@! TO.P,D3,2*
X142621000Y-73406000D03*
G04 #@! TD*
D11*
G04 #@! TO.P,U4,1*
G04 #@! TO.N,N/C*
X146431000Y-60579000D03*
D10*
G04 #@! TO.P,U4,5*
X154051000Y-68199000D03*
G04 #@! TO.P,U4,2*
X146431000Y-63119000D03*
G04 #@! TO.P,U4,6*
X154051000Y-65659000D03*
G04 #@! TO.P,U4,3*
X146431000Y-65659000D03*
G04 #@! TO.P,U4,7*
X154051000Y-63119000D03*
G04 #@! TO.P,U4,4*
X146431000Y-68199000D03*
G04 #@! TO.P,U4,8*
X154051000Y-60579000D03*
G04 #@! TD*
G04 #@! TO.P,U4,8*
G04 #@! TO.N,Net-(R28-Pad2)*
X118935500Y-98679000D03*
G04 #@! TO.P,U4,4*
G04 #@! TO.N,Net-(C5-Pad2)*
X111315500Y-106299000D03*
G04 #@! TO.P,U4,7*
G04 #@! TO.N,Net-(R27-Pad1)*
X118935500Y-101219000D03*
G04 #@! TO.P,U4,3*
G04 #@! TO.N,Net-(C5-Pad1)*
X111315500Y-103759000D03*
G04 #@! TO.P,U4,6*
G04 #@! TO.N,Net-(J11-Pad1)*
X118935500Y-103759000D03*
G04 #@! TO.P,U4,2*
G04 #@! TO.N,Net-(D3-Pad1)*
X111315500Y-101219000D03*
G04 #@! TO.P,U4,5*
G04 #@! TO.N,Net-(R29-Pad2)*
X118935500Y-106299000D03*
D11*
G04 #@! TO.P,U4,1*
G04 #@! TO.N,Net-(R27-Pad1)*
X111315500Y-98679000D03*
G04 #@! TD*
D14*
G04 #@! TO.P,J11,4*
G04 #@! TO.N,Net-(J11-Pad4)*
X104648000Y-117602000D03*
G04 #@! TO.P,J11,3*
G04 #@! TO.N,Net-(C5-Pad2)*
X107188000Y-117602000D03*
G04 #@! TO.P,J11,2*
G04 #@! TO.N,Net-(C6-Pad1)*
X109728000Y-117602000D03*
D15*
G04 #@! TO.P,J11,1*
G04 #@! TO.N,Net-(J11-Pad1)*
X112268000Y-117602000D03*
G04 #@! TD*
D12*
G04 #@! TO.P,D3,2*
G04 #@! TO.N,Net-(C5-Pad2)*
X107505500Y-111506000D03*
D13*
G04 #@! TO.P,D3,1*
G04 #@! TO.N,Net-(D3-Pad1)*
X107505500Y-101346000D03*
G04 #@! TD*
D16*
G04 #@! TO.P,J2,S1*
G04 #@! TO.N,Net-(J2-PadA1)*
X181496500Y-127391000D03*
X185296500Y-127391000D03*
X181546500Y-136041000D03*
X185346500Y-136041000D03*
G04 #@! TD*
D15*
G04 #@! TO.P,J3,1*
G04 #@! TO.N,Net-(J2-PadA1)*
X170116500Y-135001000D03*
D14*
G04 #@! TO.P,J3,2*
G04 #@! TO.N,Net-(J2-PadA6)*
X170116500Y-132461000D03*
G04 #@! TO.P,J3,3*
G04 #@! TO.N,Net-(J2-PadA7)*
X170116500Y-129921000D03*
G04 #@! TO.P,J3,4*
G04 #@! TO.N,Net-(J2-PadA4)*
X170116500Y-127381000D03*
G04 #@! TD*
D15*
G04 #@! TO.P,J1,1*
G04 #@! TO.N,Net-(J1-Pad1)*
X111683800Y-91122500D03*
D14*
G04 #@! TO.P,J1,2*
G04 #@! TO.N,Net-(C2-Pad1)*
X109143800Y-91122500D03*
G04 #@! TO.P,J1,3*
G04 #@! TO.N,Net-(C1-Pad2)*
X106603800Y-91122500D03*
G04 #@! TO.P,J1,4*
G04 #@! TO.N,Net-(J1-Pad4)*
X104063800Y-91122500D03*
G04 #@! TD*
D13*
G04 #@! TO.P,D1,1*
G04 #@! TO.N,Net-(D1-Pad1)*
X106553000Y-74561700D03*
D12*
G04 #@! TO.P,D1,2*
G04 #@! TO.N,Net-(C1-Pad2)*
X106553000Y-84721700D03*
G04 #@! TD*
D15*
G04 #@! TO.P,J10,1*
G04 #@! TO.N,Net-(J10-Pad1)*
X134035800Y-90271600D03*
D14*
G04 #@! TO.P,J10,2*
G04 #@! TO.N,Net-(C4-Pad1)*
X134035800Y-92811600D03*
G04 #@! TO.P,J10,3*
G04 #@! TO.N,Net-(C3-Pad2)*
X134035800Y-95351600D03*
G04 #@! TO.P,J10,4*
G04 #@! TO.N,Net-(C4-Pad2)*
X134035800Y-97891600D03*
G04 #@! TD*
D13*
G04 #@! TO.P,D2,1*
G04 #@! TO.N,Net-(C3-Pad1)*
X153847800Y-87325200D03*
D12*
G04 #@! TO.P,D2,2*
G04 #@! TO.N,Net-(C4-Pad1)*
X143687800Y-87325200D03*
G04 #@! TD*
D15*
G04 #@! TO.P,J10,1*
G04 #@! TO.N,Net-(J10-Pad1)*
X164579300Y-109448600D03*
D14*
G04 #@! TO.P,J10,2*
G04 #@! TO.N,Net-(C4-Pad1)*
X164579300Y-111988600D03*
G04 #@! TO.P,J10,3*
G04 #@! TO.N,Net-(C3-Pad2)*
X164579300Y-114528600D03*
G04 #@! TO.P,J10,4*
G04 #@! TO.N,Net-(C4-Pad2)*
X164579300Y-117068600D03*
G04 #@! TD*
D13*
G04 #@! TO.P,D2,1*
G04 #@! TO.N,Net-(C3-Pad1)*
X184391300Y-106502200D03*
D12*
G04 #@! TO.P,D2,2*
G04 #@! TO.N,Net-(C4-Pad1)*
X174231300Y-106502200D03*
G04 #@! TD*
D15*
G04 #@! TO.P,J10,1*
G04 #@! TO.N,Net-(J10-Pad1)*
X166484300Y-87350600D03*
D14*
G04 #@! TO.P,J10,2*
G04 #@! TO.N,Net-(C4-Pad1)*
X166484300Y-89890600D03*
G04 #@! TO.P,J10,3*
G04 #@! TO.N,Net-(C3-Pad2)*
X166484300Y-92430600D03*
G04 #@! TO.P,J10,4*
G04 #@! TO.N,Net-(C4-Pad2)*
X166484300Y-94970600D03*
G04 #@! TD*
D13*
G04 #@! TO.P,D2,1*
G04 #@! TO.N,Net-(C3-Pad1)*
X186296300Y-84404200D03*
D12*
G04 #@! TO.P,D2,2*
G04 #@! TO.N,Net-(C4-Pad1)*
X176136300Y-84404200D03*
G04 #@! TD*
D15*
G04 #@! TO.P,J10,1*
G04 #@! TO.N,Net-(J10-Pad1)*
X166166800Y-63982600D03*
D14*
G04 #@! TO.P,J10,2*
G04 #@! TO.N,Net-(C4-Pad1)*
X166166800Y-66522600D03*
G04 #@! TO.P,J10,3*
G04 #@! TO.N,Net-(C3-Pad2)*
X166166800Y-69062600D03*
G04 #@! TO.P,J10,4*
G04 #@! TO.N,Net-(C4-Pad2)*
X166166800Y-71602600D03*
G04 #@! TD*
D13*
G04 #@! TO.P,D2,1*
G04 #@! TO.N,Net-(C3-Pad1)*
X185978800Y-61036200D03*
D12*
G04 #@! TO.P,D2,2*
G04 #@! TO.N,Net-(C4-Pad1)*
X175818800Y-61036200D03*
G04 #@! TD*
D14*
G04 #@! TO.P,J9,4*
G04 #@! TO.N,Net-(J9-Pad4)*
X134645400Y-145351500D03*
G04 #@! TO.P,J9,3*
G04 #@! TO.N,Net-(J9-Pad3)*
X132105400Y-145351500D03*
G04 #@! TO.P,J9,2*
G04 #@! TO.N,Net-(J9-Pad2)*
X129565400Y-145351500D03*
D15*
G04 #@! TO.P,J9,1*
G04 #@! TO.N,Net-(J9-Pad1)*
X127025400Y-145351500D03*
G04 #@! TD*
D14*
G04 #@! TO.P,J8,4*
G04 #@! TO.N,Net-(J8-Pad4)*
X107911900Y-145567400D03*
G04 #@! TO.P,J8,3*
G04 #@! TO.N,Net-(J8-Pad3)*
X105371900Y-145567400D03*
G04 #@! TO.P,J8,2*
G04 #@! TO.N,Net-(J8-Pad2)*
X102831900Y-145567400D03*
D15*
G04 #@! TO.P,J8,1*
G04 #@! TO.N,Net-(J8-Pad1)*
X100291900Y-145567400D03*
G04 #@! TD*
D14*
G04 #@! TO.P,J7,4*
G04 #@! TO.N,Net-(J7-Pad4)*
X148107400Y-144703800D03*
G04 #@! TO.P,J7,3*
G04 #@! TO.N,Net-(J7-Pad3)*
X145567400Y-144703800D03*
G04 #@! TO.P,J7,2*
G04 #@! TO.N,Net-(J7-Pad2)*
X143027400Y-144703800D03*
D15*
G04 #@! TO.P,J7,1*
G04 #@! TO.N,Net-(J7-Pad1)*
X140487400Y-144703800D03*
G04 #@! TD*
D14*
G04 #@! TO.P,J6,4*
G04 #@! TO.N,Net-(J6-Pad4)*
X161582100Y-144678400D03*
G04 #@! TO.P,J6,3*
G04 #@! TO.N,Net-(J6-Pad3)*
X159042100Y-144678400D03*
G04 #@! TO.P,J6,2*
G04 #@! TO.N,Net-(J6-Pad2)*
X156502100Y-144678400D03*
D15*
G04 #@! TO.P,J6,1*
G04 #@! TO.N,Net-(J6-Pad1)*
X153962100Y-144678400D03*
G04 #@! TD*
D14*
G04 #@! TO.P,J5,4*
G04 #@! TO.N,Net-(J5-Pad4)*
X174574200Y-144767300D03*
G04 #@! TO.P,J5,3*
G04 #@! TO.N,Net-(J5-Pad3)*
X172034200Y-144767300D03*
G04 #@! TO.P,J5,2*
G04 #@! TO.N,Net-(J5-Pad2)*
X169494200Y-144767300D03*
D15*
G04 #@! TO.P,J5,1*
G04 #@! TO.N,Net-(J5-Pad1)*
X166954200Y-144767300D03*
G04 #@! TD*
D14*
G04 #@! TO.P,J4,4*
G04 #@! TO.N,Net-(J4-Pad4)*
X121627900Y-145338800D03*
G04 #@! TO.P,J4,3*
G04 #@! TO.N,Net-(J4-Pad3)*
X119087900Y-145338800D03*
G04 #@! TO.P,J4,2*
G04 #@! TO.N,Net-(J4-Pad2)*
X116547900Y-145338800D03*
D15*
G04 #@! TO.P,J4,1*
G04 #@! TO.N,Net-(J4-Pad1)*
X114007900Y-145338800D03*
G04 #@! TD*
D14*
G04 #@! TO.P,J3,4*
G04 #@! TO.N,Net-(J2-PadA4)*
X106743500Y-68389500D03*
G04 #@! TO.P,J3,3*
G04 #@! TO.N,Net-(J2-PadA7)*
X106743500Y-65849500D03*
G04 #@! TO.P,J3,2*
G04 #@! TO.N,Net-(J2-PadA6)*
X106743500Y-63309500D03*
D15*
G04 #@! TO.P,J3,1*
G04 #@! TO.N,Net-(J2-PadA1)*
X106743500Y-60769500D03*
G04 #@! TD*
D16*
G04 #@! TO.P,J2,S1*
G04 #@! TO.N,Net-(J2-PadA1)*
X91513500Y-59729500D03*
X95313500Y-59729500D03*
X91563500Y-68379500D03*
X95363500Y-68379500D03*
G04 #@! TD*
D17*
G04 #@! TO.N,Net-(C3-Pad2)*
X186029600Y-71501000D03*
X173075600Y-74701400D03*
G04 #@! TO.N,Net-(C4-Pad2)*
X176022000Y-71755000D03*
G04 #@! TO.N,Net-(J10-Pad1)*
X175920400Y-68910200D03*
G04 #@! TO.N,Net-(C3-Pad2)*
X186347100Y-94869000D03*
X173393100Y-98069400D03*
G04 #@! TO.N,Net-(C4-Pad2)*
X176339500Y-95123000D03*
G04 #@! TO.N,Net-(J10-Pad1)*
X176237900Y-92278200D03*
G04 #@! TO.N,Net-(C3-Pad2)*
X184442100Y-116967000D03*
X171488100Y-120167400D03*
G04 #@! TO.N,Net-(C4-Pad2)*
X174434500Y-117221000D03*
G04 #@! TO.N,Net-(J10-Pad1)*
X174332900Y-114376200D03*
G04 #@! TO.N,Net-(C3-Pad2)*
X153898600Y-97790000D03*
X140944600Y-100990400D03*
G04 #@! TO.N,Net-(C4-Pad2)*
X143891000Y-98044000D03*
G04 #@! TO.N,Net-(J10-Pad1)*
X143789400Y-95199200D03*
G04 #@! TD*
D18*
G04 #@! TO.N,Net-(C3-Pad2)*
X186029600Y-71501000D02*
X184708800Y-70180200D01*
X174396400Y-70180200D02*
X173075600Y-71501000D01*
X184708800Y-70180200D02*
X174396400Y-70180200D01*
D19*
X170637200Y-69062600D02*
X166166800Y-69062600D01*
X173075600Y-71501000D02*
X170637200Y-69062600D01*
X173075600Y-74701400D02*
X173075600Y-71501000D01*
D18*
G04 #@! TO.N,Net-(C4-Pad2)*
X173990000Y-76073000D02*
X176022000Y-74041000D01*
X166166800Y-71602600D02*
X170637200Y-76073000D01*
X170637200Y-76073000D02*
X173990000Y-76073000D01*
X176022000Y-74041000D02*
X176022000Y-71755000D01*
G04 #@! TO.N,Net-(J10-Pad1)*
X175920400Y-68910200D02*
X174345600Y-68910200D01*
X174345600Y-68910200D02*
X169672000Y-64236600D01*
X166420800Y-64236600D02*
X166166800Y-63982600D01*
X169672000Y-64236600D02*
X166420800Y-64236600D01*
G04 #@! TO.N,Net-(C3-Pad2)*
X186347100Y-94869000D02*
X185026300Y-93548200D01*
X174713900Y-93548200D02*
X173393100Y-94869000D01*
X185026300Y-93548200D02*
X174713900Y-93548200D01*
D19*
X170954700Y-92430600D02*
X166484300Y-92430600D01*
X173393100Y-94869000D02*
X170954700Y-92430600D01*
X173393100Y-98069400D02*
X173393100Y-94869000D01*
D18*
G04 #@! TO.N,Net-(C4-Pad2)*
X174307500Y-99441000D02*
X176339500Y-97409000D01*
X166484300Y-94970600D02*
X170954700Y-99441000D01*
X170954700Y-99441000D02*
X174307500Y-99441000D01*
X176339500Y-97409000D02*
X176339500Y-95123000D01*
G04 #@! TO.N,Net-(J10-Pad1)*
X176237900Y-92278200D02*
X174663100Y-92278200D01*
X174663100Y-92278200D02*
X169989500Y-87604600D01*
X166738300Y-87604600D02*
X166484300Y-87350600D01*
X169989500Y-87604600D02*
X166738300Y-87604600D01*
G04 #@! TO.N,Net-(C3-Pad2)*
X184442100Y-116967000D02*
X183121300Y-115646200D01*
X172808900Y-115646200D02*
X171488100Y-116967000D01*
X183121300Y-115646200D02*
X172808900Y-115646200D01*
D19*
X169049700Y-114528600D02*
X164579300Y-114528600D01*
X171488100Y-116967000D02*
X169049700Y-114528600D01*
X171488100Y-120167400D02*
X171488100Y-116967000D01*
D18*
G04 #@! TO.N,Net-(C4-Pad2)*
X172402500Y-121539000D02*
X174434500Y-119507000D01*
X164579300Y-117068600D02*
X169049700Y-121539000D01*
X169049700Y-121539000D02*
X172402500Y-121539000D01*
X174434500Y-119507000D02*
X174434500Y-117221000D01*
G04 #@! TO.N,Net-(J10-Pad1)*
X174332900Y-114376200D02*
X172758100Y-114376200D01*
X172758100Y-114376200D02*
X168084500Y-109702600D01*
X164833300Y-109702600D02*
X164579300Y-109448600D01*
X168084500Y-109702600D02*
X164833300Y-109702600D01*
G04 #@! TO.N,Net-(C3-Pad2)*
X153898600Y-97790000D02*
X152577800Y-96469200D01*
X142265400Y-96469200D02*
X140944600Y-97790000D01*
X152577800Y-96469200D02*
X142265400Y-96469200D01*
D19*
X138506200Y-95351600D02*
X134035800Y-95351600D01*
X140944600Y-97790000D02*
X138506200Y-95351600D01*
X140944600Y-100990400D02*
X140944600Y-97790000D01*
D18*
G04 #@! TO.N,Net-(C4-Pad2)*
X141859000Y-102362000D02*
X143891000Y-100330000D01*
X134035800Y-97891600D02*
X138506200Y-102362000D01*
X138506200Y-102362000D02*
X141859000Y-102362000D01*
X143891000Y-100330000D02*
X143891000Y-98044000D01*
G04 #@! TO.N,Net-(J10-Pad1)*
X143789400Y-95199200D02*
X142214600Y-95199200D01*
X142214600Y-95199200D02*
X137541000Y-90525600D01*
X134289800Y-90525600D02*
X134035800Y-90271600D01*
X137541000Y-90525600D02*
X134289800Y-90525600D01*
G04 #@! TD*
M02*
