M48
; DRILL file {KiCad (5.1.12)-1} date 01/07/22 20:34:11
; FORMAT={-:-/ absolute / inch / decimal}
; #@! TF.CreationDate,2022-01-07T20:34:11-08:00
; #@! TF.GenerationSoftware,Kicad,Pcbnew,(5.1.12)-1
; #@! TF.FileFunction,Plated,1,2,PTH
FMAT,2
INCH
T1C0.0157
T2C0.0236
T3C0.0315
T4C0.0394
T5C0.0433
%
G90
G05
T1
X5.549Y-3.976
X5.661Y-3.748
X5.665Y-3.86
X6.059Y-3.85
X6.7515Y-4.731
X6.814Y-2.941
X6.8265Y-3.861
X6.8635Y-4.503
X6.8675Y-4.615
X6.926Y-2.713
X6.93Y-2.825
X6.9385Y-3.633
X6.9425Y-3.745
X7.2615Y-4.605
X7.324Y-2.815
X7.3365Y-3.735
T3
X4.3825Y-3.885
X4.3825Y-3.985
X4.3825Y-4.085
X4.3825Y-4.185
X4.6825Y-3.885
X4.6825Y-3.985
X4.6825Y-4.085
X4.6825Y-4.185
X5.7025Y-4.3125
X5.7025Y-4.4125
X5.7025Y-4.5125
X5.7025Y-4.6125
X5.765Y-2.385
X5.765Y-2.485
X5.765Y-2.585
X5.765Y-2.685
X6.0025Y-4.3125
X6.0025Y-4.4125
X6.0025Y-4.5125
X6.0025Y-4.6125
X6.065Y-2.385
X6.065Y-2.485
X6.065Y-2.585
X6.065Y-2.685
T4
X3.9485Y-5.731
X4.0485Y-5.731
X4.097Y-3.5875
X4.12Y-4.63
X4.1485Y-5.731
X4.197Y-3.5875
X4.2025Y-2.3925
X4.2025Y-2.4925
X4.2025Y-2.5925
X4.2025Y-2.6925
X4.22Y-4.63
X4.2485Y-5.731
X4.297Y-3.5875
X4.32Y-4.63
X4.397Y-3.5875
X4.42Y-4.63
X4.4885Y-5.722
X4.5885Y-5.722
X4.6885Y-5.722
X4.7885Y-5.722
X5.001Y-5.7225
X5.101Y-5.7225
X5.201Y-5.7225
X5.277Y-3.554
X5.277Y-3.654
X5.277Y-3.754
X5.277Y-3.854
X5.301Y-5.7225
X5.44Y-5.0575
X5.5025Y-3.13
X5.531Y-5.697
X5.54Y-5.0575
X5.6025Y-3.13
X5.631Y-5.697
X5.64Y-5.0575
X5.7025Y-3.13
X5.731Y-5.697
X5.74Y-5.0575
X5.8025Y-3.13
X5.831Y-5.697
X6.0615Y-5.696
X6.1615Y-5.696
X6.2615Y-5.696
X6.3615Y-5.696
X6.4795Y-4.309
X6.4795Y-4.409
X6.4795Y-4.509
X6.4795Y-4.609
X6.542Y-2.519
X6.542Y-2.619
X6.542Y-2.719
X6.542Y-2.819
X6.5545Y-3.439
X6.5545Y-3.539
X6.5545Y-3.639
X6.5545Y-3.739
X6.573Y-5.6995
X6.673Y-5.6995
X6.6975Y-5.015
X6.6975Y-5.115
X6.6975Y-5.215
X6.6975Y-5.315
X6.773Y-5.6995
X6.873Y-5.6995
T5
X4.195Y-2.9355
X4.195Y-3.3355
X4.2325Y-3.99
X4.2325Y-4.39
X5.5525Y-4.4175
X5.5525Y-4.8175
X5.615Y-2.49
X5.615Y-2.89
X5.657Y-3.438
X6.057Y-3.438
X6.8595Y-4.193
X6.922Y-2.403
X6.9345Y-3.323
X7.2595Y-4.193
X7.322Y-2.403
X7.3345Y-3.323
T2
G00X3.6147Y-2.3516
M15
G01X3.5911Y-2.3516
M16
G05
G00X3.6167Y-2.6921
M15
G01X3.5931Y-2.6921
M16
G05
G00X3.7643Y-2.3516
M15
G01X3.7407Y-2.3516
M16
G05
G00X3.7663Y-2.6921
M15
G01X3.7427Y-2.6921
M16
G05
G00X7.1337Y-5.0154
M15
G01X7.1573Y-5.0154
M16
G05
G00X7.1357Y-5.3559
M15
G01X7.1593Y-5.3559
M16
G05
G00X7.2833Y-5.0154
M15
G01X7.3069Y-5.0154
M16
G05
G00X7.2853Y-5.3559
M15
G01X7.3089Y-5.3559
M16
G05
T0
M30
