G04 #@! TF.GenerationSoftware,KiCad,Pcbnew,(5.1.12)-1*
G04 #@! TF.CreationDate,2022-01-07T20:34:09-08:00*
G04 #@! TF.ProjectId,schematic,73636865-6d61-4746-9963-2e6b69636164,rev?*
G04 #@! TF.SameCoordinates,Original*
G04 #@! TF.FileFunction,Soldermask,Top*
G04 #@! TF.FilePolarity,Negative*
%FSLAX46Y46*%
G04 Gerber Fmt 4.6, Leading zero omitted, Abs format (unit mm)*
G04 Created by KiCad (PCBNEW (5.1.12)-1) date 2022-01-07 20:34:09*
%MOMM*%
%LPD*%
G01*
G04 APERTURE LIST*
%ADD10R,2.400000X1.500000*%
%ADD11O,1.600000X1.600000*%
%ADD12R,1.600000X1.600000*%
%ADD13O,2.200000X2.200000*%
%ADD14R,2.200000X2.200000*%
%ADD15O,1.700000X1.700000*%
%ADD16R,1.700000X1.700000*%
%ADD17R,1.600000X0.800000*%
%ADD18R,1.600000X0.760000*%
%ADD19R,1.600000X0.700000*%
%ADD20O,1.700000X1.100000*%
%ADD21R,0.700000X1.250000*%
G04 APERTURE END LIST*
D10*
G04 #@! TO.C,L2*
X131826000Y-116249000D03*
X131826000Y-121749000D03*
G04 #@! TD*
G04 #@! TO.C,C5*
G36*
G01*
X146320000Y-119540000D02*
X146320000Y-120490000D01*
G75*
G02*
X146070000Y-120740000I-250000J0D01*
G01*
X145395000Y-120740000D01*
G75*
G02*
X145145000Y-120490000I0J250000D01*
G01*
X145145000Y-119540000D01*
G75*
G02*
X145395000Y-119290000I250000J0D01*
G01*
X146070000Y-119290000D01*
G75*
G02*
X146320000Y-119540000I0J-250000D01*
G01*
G37*
G36*
G01*
X148395000Y-119540000D02*
X148395000Y-120490000D01*
G75*
G02*
X148145000Y-120740000I-250000J0D01*
G01*
X147470000Y-120740000D01*
G75*
G02*
X147220000Y-120490000I0J250000D01*
G01*
X147220000Y-119540000D01*
G75*
G02*
X147470000Y-119290000I250000J0D01*
G01*
X148145000Y-119290000D01*
G75*
G02*
X148395000Y-119540000I0J-250000D01*
G01*
G37*
G04 #@! TD*
G04 #@! TO.C,C6*
G36*
G01*
X137196000Y-125618001D02*
X137196000Y-124317999D01*
G75*
G02*
X137445999Y-124068000I249999J0D01*
G01*
X138271001Y-124068000D01*
G75*
G02*
X138521000Y-124317999I0J-249999D01*
G01*
X138521000Y-125618001D01*
G75*
G02*
X138271001Y-125868000I-249999J0D01*
G01*
X137445999Y-125868000D01*
G75*
G02*
X137196000Y-125618001I0J249999D01*
G01*
G37*
G36*
G01*
X134071000Y-125618001D02*
X134071000Y-124317999D01*
G75*
G02*
X134320999Y-124068000I249999J0D01*
G01*
X135146001Y-124068000D01*
G75*
G02*
X135396000Y-124317999I0J-249999D01*
G01*
X135396000Y-125618001D01*
G75*
G02*
X135146001Y-125868000I-249999J0D01*
G01*
X134320999Y-125868000D01*
G75*
G02*
X134071000Y-125618001I0J249999D01*
G01*
G37*
G04 #@! TD*
G04 #@! TO.C,R28*
G36*
G01*
X156279001Y-109264500D02*
X155378999Y-109264500D01*
G75*
G02*
X155129000Y-109014501I0J249999D01*
G01*
X155129000Y-108314499D01*
G75*
G02*
X155378999Y-108064500I249999J0D01*
G01*
X156279001Y-108064500D01*
G75*
G02*
X156529000Y-108314499I0J-249999D01*
G01*
X156529000Y-109014501D01*
G75*
G02*
X156279001Y-109264500I-249999J0D01*
G01*
G37*
G36*
G01*
X156279001Y-111264500D02*
X155378999Y-111264500D01*
G75*
G02*
X155129000Y-111014501I0J249999D01*
G01*
X155129000Y-110314499D01*
G75*
G02*
X155378999Y-110064500I249999J0D01*
G01*
X156279001Y-110064500D01*
G75*
G02*
X156529000Y-110314499I0J-249999D01*
G01*
X156529000Y-111014501D01*
G75*
G02*
X156279001Y-111264500I-249999J0D01*
G01*
G37*
G04 #@! TD*
D11*
G04 #@! TO.C,U4*
X152463500Y-109537500D03*
X144843500Y-117157500D03*
X152463500Y-112077500D03*
X144843500Y-114617500D03*
X152463500Y-114617500D03*
X144843500Y-112077500D03*
X152463500Y-117157500D03*
D12*
X144843500Y-109537500D03*
G04 #@! TD*
G04 #@! TO.C,R27*
G36*
G01*
X155251999Y-113954000D02*
X156152001Y-113954000D01*
G75*
G02*
X156402000Y-114203999I0J-249999D01*
G01*
X156402000Y-114904001D01*
G75*
G02*
X156152001Y-115154000I-249999J0D01*
G01*
X155251999Y-115154000D01*
G75*
G02*
X155002000Y-114904001I0J249999D01*
G01*
X155002000Y-114203999D01*
G75*
G02*
X155251999Y-113954000I249999J0D01*
G01*
G37*
G36*
G01*
X155251999Y-111954000D02*
X156152001Y-111954000D01*
G75*
G02*
X156402000Y-112203999I0J-249999D01*
G01*
X156402000Y-112904001D01*
G75*
G02*
X156152001Y-113154000I-249999J0D01*
G01*
X155251999Y-113154000D01*
G75*
G02*
X155002000Y-112904001I0J249999D01*
G01*
X155002000Y-112203999D01*
G75*
G02*
X155251999Y-111954000I249999J0D01*
G01*
G37*
G04 #@! TD*
G04 #@! TO.C,R29*
G36*
G01*
X145624500Y-125164001D02*
X145624500Y-124263999D01*
G75*
G02*
X145874499Y-124014000I249999J0D01*
G01*
X146574501Y-124014000D01*
G75*
G02*
X146824500Y-124263999I0J-249999D01*
G01*
X146824500Y-125164001D01*
G75*
G02*
X146574501Y-125414000I-249999J0D01*
G01*
X145874499Y-125414000D01*
G75*
G02*
X145624500Y-125164001I0J249999D01*
G01*
G37*
G36*
G01*
X143624500Y-125164001D02*
X143624500Y-124263999D01*
G75*
G02*
X143874499Y-124014000I249999J0D01*
G01*
X144574501Y-124014000D01*
G75*
G02*
X144824500Y-124263999I0J-249999D01*
G01*
X144824500Y-125164001D01*
G75*
G02*
X144574501Y-125414000I-249999J0D01*
G01*
X143874499Y-125414000D01*
G75*
G02*
X143624500Y-125164001I0J249999D01*
G01*
G37*
G04 #@! TD*
D13*
G04 #@! TO.C,D3*
X141033500Y-122364500D03*
D14*
X141033500Y-112204500D03*
G04 #@! TD*
G04 #@! TO.C,R30*
G36*
G01*
X145761000Y-121596999D02*
X145761000Y-122497001D01*
G75*
G02*
X145511001Y-122747000I-249999J0D01*
G01*
X144810999Y-122747000D01*
G75*
G02*
X144561000Y-122497001I0J249999D01*
G01*
X144561000Y-121596999D01*
G75*
G02*
X144810999Y-121347000I249999J0D01*
G01*
X145511001Y-121347000D01*
G75*
G02*
X145761000Y-121596999I0J-249999D01*
G01*
G37*
G36*
G01*
X147761000Y-121596999D02*
X147761000Y-122497001D01*
G75*
G02*
X147511001Y-122747000I-249999J0D01*
G01*
X146810999Y-122747000D01*
G75*
G02*
X146561000Y-122497001I0J249999D01*
G01*
X146561000Y-121596999D01*
G75*
G02*
X146810999Y-121347000I249999J0D01*
G01*
X147511001Y-121347000D01*
G75*
G02*
X147761000Y-121596999I0J-249999D01*
G01*
G37*
G04 #@! TD*
D15*
G04 #@! TO.C,J11*
X138176000Y-128460500D03*
X140716000Y-128460500D03*
X143256000Y-128460500D03*
D16*
X145796000Y-128460500D03*
G04 #@! TD*
G04 #@! TO.C,C5*
G36*
G01*
X149982500Y-70581500D02*
X149982500Y-71531500D01*
G75*
G02*
X149732500Y-71781500I-250000J0D01*
G01*
X149057500Y-71781500D01*
G75*
G02*
X148807500Y-71531500I0J250000D01*
G01*
X148807500Y-70581500D01*
G75*
G02*
X149057500Y-70331500I250000J0D01*
G01*
X149732500Y-70331500D01*
G75*
G02*
X149982500Y-70581500I0J-250000D01*
G01*
G37*
G36*
G01*
X147907500Y-70581500D02*
X147907500Y-71531500D01*
G75*
G02*
X147657500Y-71781500I-250000J0D01*
G01*
X146982500Y-71781500D01*
G75*
G02*
X146732500Y-71531500I0J250000D01*
G01*
X146732500Y-70581500D01*
G75*
G02*
X146982500Y-70331500I250000J0D01*
G01*
X147657500Y-70331500D01*
G75*
G02*
X147907500Y-70581500I0J-250000D01*
G01*
G37*
G04 #@! TD*
D10*
G04 #@! TO.C,L2*
X133413500Y-72790500D03*
X133413500Y-67290500D03*
G04 #@! TD*
D16*
G04 #@! TO.C,J11*
X147383500Y-79502000D03*
D15*
X144843500Y-79502000D03*
X142303500Y-79502000D03*
X139763500Y-79502000D03*
G04 #@! TD*
D14*
G04 #@! TO.C,D3*
X142621000Y-63246000D03*
D13*
X142621000Y-73406000D03*
G04 #@! TD*
G04 #@! TO.C,C6*
G36*
G01*
X135658500Y-76659501D02*
X135658500Y-75359499D01*
G75*
G02*
X135908499Y-75109500I249999J0D01*
G01*
X136733501Y-75109500D01*
G75*
G02*
X136983500Y-75359499I0J-249999D01*
G01*
X136983500Y-76659501D01*
G75*
G02*
X136733501Y-76909500I-249999J0D01*
G01*
X135908499Y-76909500D01*
G75*
G02*
X135658500Y-76659501I0J249999D01*
G01*
G37*
G36*
G01*
X138783500Y-76659501D02*
X138783500Y-75359499D01*
G75*
G02*
X139033499Y-75109500I249999J0D01*
G01*
X139858501Y-75109500D01*
G75*
G02*
X140108500Y-75359499I0J-249999D01*
G01*
X140108500Y-76659501D01*
G75*
G02*
X139858501Y-76909500I-249999J0D01*
G01*
X139033499Y-76909500D01*
G75*
G02*
X138783500Y-76659501I0J249999D01*
G01*
G37*
G04 #@! TD*
D12*
G04 #@! TO.C,U4*
X146431000Y-60579000D03*
D11*
X154051000Y-68199000D03*
X146431000Y-63119000D03*
X154051000Y-65659000D03*
X146431000Y-65659000D03*
X154051000Y-63119000D03*
X146431000Y-68199000D03*
X154051000Y-60579000D03*
G04 #@! TD*
G04 #@! TO.C,R27*
G36*
G01*
X156839499Y-62995500D02*
X157739501Y-62995500D01*
G75*
G02*
X157989500Y-63245499I0J-249999D01*
G01*
X157989500Y-63945501D01*
G75*
G02*
X157739501Y-64195500I-249999J0D01*
G01*
X156839499Y-64195500D01*
G75*
G02*
X156589500Y-63945501I0J249999D01*
G01*
X156589500Y-63245499D01*
G75*
G02*
X156839499Y-62995500I249999J0D01*
G01*
G37*
G36*
G01*
X156839499Y-64995500D02*
X157739501Y-64995500D01*
G75*
G02*
X157989500Y-65245499I0J-249999D01*
G01*
X157989500Y-65945501D01*
G75*
G02*
X157739501Y-66195500I-249999J0D01*
G01*
X156839499Y-66195500D01*
G75*
G02*
X156589500Y-65945501I0J249999D01*
G01*
X156589500Y-65245499D01*
G75*
G02*
X156839499Y-64995500I249999J0D01*
G01*
G37*
G04 #@! TD*
G04 #@! TO.C,R28*
G36*
G01*
X157866501Y-62306000D02*
X156966499Y-62306000D01*
G75*
G02*
X156716500Y-62056001I0J249999D01*
G01*
X156716500Y-61355999D01*
G75*
G02*
X156966499Y-61106000I249999J0D01*
G01*
X157866501Y-61106000D01*
G75*
G02*
X158116500Y-61355999I0J-249999D01*
G01*
X158116500Y-62056001D01*
G75*
G02*
X157866501Y-62306000I-249999J0D01*
G01*
G37*
G36*
G01*
X157866501Y-60306000D02*
X156966499Y-60306000D01*
G75*
G02*
X156716500Y-60056001I0J249999D01*
G01*
X156716500Y-59355999D01*
G75*
G02*
X156966499Y-59106000I249999J0D01*
G01*
X157866501Y-59106000D01*
G75*
G02*
X158116500Y-59355999I0J-249999D01*
G01*
X158116500Y-60056001D01*
G75*
G02*
X157866501Y-60306000I-249999J0D01*
G01*
G37*
G04 #@! TD*
G04 #@! TO.C,R30*
G36*
G01*
X149348500Y-72638499D02*
X149348500Y-73538501D01*
G75*
G02*
X149098501Y-73788500I-249999J0D01*
G01*
X148398499Y-73788500D01*
G75*
G02*
X148148500Y-73538501I0J249999D01*
G01*
X148148500Y-72638499D01*
G75*
G02*
X148398499Y-72388500I249999J0D01*
G01*
X149098501Y-72388500D01*
G75*
G02*
X149348500Y-72638499I0J-249999D01*
G01*
G37*
G36*
G01*
X147348500Y-72638499D02*
X147348500Y-73538501D01*
G75*
G02*
X147098501Y-73788500I-249999J0D01*
G01*
X146398499Y-73788500D01*
G75*
G02*
X146148500Y-73538501I0J249999D01*
G01*
X146148500Y-72638499D01*
G75*
G02*
X146398499Y-72388500I249999J0D01*
G01*
X147098501Y-72388500D01*
G75*
G02*
X147348500Y-72638499I0J-249999D01*
G01*
G37*
G04 #@! TD*
G04 #@! TO.C,R29*
G36*
G01*
X145212000Y-76205501D02*
X145212000Y-75305499D01*
G75*
G02*
X145461999Y-75055500I249999J0D01*
G01*
X146162001Y-75055500D01*
G75*
G02*
X146412000Y-75305499I0J-249999D01*
G01*
X146412000Y-76205501D01*
G75*
G02*
X146162001Y-76455500I-249999J0D01*
G01*
X145461999Y-76455500D01*
G75*
G02*
X145212000Y-76205501I0J249999D01*
G01*
G37*
G36*
G01*
X147212000Y-76205501D02*
X147212000Y-75305499D01*
G75*
G02*
X147461999Y-75055500I249999J0D01*
G01*
X148162001Y-75055500D01*
G75*
G02*
X148412000Y-75305499I0J-249999D01*
G01*
X148412000Y-76205501D01*
G75*
G02*
X148162001Y-76455500I-249999J0D01*
G01*
X147461999Y-76455500D01*
G75*
G02*
X147212000Y-76205501I0J249999D01*
G01*
G37*
G04 #@! TD*
G04 #@! TO.C,U4*
X118935500Y-98679000D03*
X111315500Y-106299000D03*
X118935500Y-101219000D03*
X111315500Y-103759000D03*
X118935500Y-103759000D03*
X111315500Y-101219000D03*
X118935500Y-106299000D03*
D12*
X111315500Y-98679000D03*
G04 #@! TD*
G04 #@! TO.C,R30*
G36*
G01*
X112233000Y-110738499D02*
X112233000Y-111638501D01*
G75*
G02*
X111983001Y-111888500I-249999J0D01*
G01*
X111282999Y-111888500D01*
G75*
G02*
X111033000Y-111638501I0J249999D01*
G01*
X111033000Y-110738499D01*
G75*
G02*
X111282999Y-110488500I249999J0D01*
G01*
X111983001Y-110488500D01*
G75*
G02*
X112233000Y-110738499I0J-249999D01*
G01*
G37*
G36*
G01*
X114233000Y-110738499D02*
X114233000Y-111638501D01*
G75*
G02*
X113983001Y-111888500I-249999J0D01*
G01*
X113282999Y-111888500D01*
G75*
G02*
X113033000Y-111638501I0J249999D01*
G01*
X113033000Y-110738499D01*
G75*
G02*
X113282999Y-110488500I249999J0D01*
G01*
X113983001Y-110488500D01*
G75*
G02*
X114233000Y-110738499I0J-249999D01*
G01*
G37*
G04 #@! TD*
G04 #@! TO.C,R29*
G36*
G01*
X112096500Y-114305501D02*
X112096500Y-113405499D01*
G75*
G02*
X112346499Y-113155500I249999J0D01*
G01*
X113046501Y-113155500D01*
G75*
G02*
X113296500Y-113405499I0J-249999D01*
G01*
X113296500Y-114305501D01*
G75*
G02*
X113046501Y-114555500I-249999J0D01*
G01*
X112346499Y-114555500D01*
G75*
G02*
X112096500Y-114305501I0J249999D01*
G01*
G37*
G36*
G01*
X110096500Y-114305501D02*
X110096500Y-113405499D01*
G75*
G02*
X110346499Y-113155500I249999J0D01*
G01*
X111046501Y-113155500D01*
G75*
G02*
X111296500Y-113405499I0J-249999D01*
G01*
X111296500Y-114305501D01*
G75*
G02*
X111046501Y-114555500I-249999J0D01*
G01*
X110346499Y-114555500D01*
G75*
G02*
X110096500Y-114305501I0J249999D01*
G01*
G37*
G04 #@! TD*
G04 #@! TO.C,R28*
G36*
G01*
X122751001Y-98406000D02*
X121850999Y-98406000D01*
G75*
G02*
X121601000Y-98156001I0J249999D01*
G01*
X121601000Y-97455999D01*
G75*
G02*
X121850999Y-97206000I249999J0D01*
G01*
X122751001Y-97206000D01*
G75*
G02*
X123001000Y-97455999I0J-249999D01*
G01*
X123001000Y-98156001D01*
G75*
G02*
X122751001Y-98406000I-249999J0D01*
G01*
G37*
G36*
G01*
X122751001Y-100406000D02*
X121850999Y-100406000D01*
G75*
G02*
X121601000Y-100156001I0J249999D01*
G01*
X121601000Y-99455999D01*
G75*
G02*
X121850999Y-99206000I249999J0D01*
G01*
X122751001Y-99206000D01*
G75*
G02*
X123001000Y-99455999I0J-249999D01*
G01*
X123001000Y-100156001D01*
G75*
G02*
X122751001Y-100406000I-249999J0D01*
G01*
G37*
G04 #@! TD*
G04 #@! TO.C,R27*
G36*
G01*
X121723999Y-103095500D02*
X122624001Y-103095500D01*
G75*
G02*
X122874000Y-103345499I0J-249999D01*
G01*
X122874000Y-104045501D01*
G75*
G02*
X122624001Y-104295500I-249999J0D01*
G01*
X121723999Y-104295500D01*
G75*
G02*
X121474000Y-104045501I0J249999D01*
G01*
X121474000Y-103345499D01*
G75*
G02*
X121723999Y-103095500I249999J0D01*
G01*
G37*
G36*
G01*
X121723999Y-101095500D02*
X122624001Y-101095500D01*
G75*
G02*
X122874000Y-101345499I0J-249999D01*
G01*
X122874000Y-102045501D01*
G75*
G02*
X122624001Y-102295500I-249999J0D01*
G01*
X121723999Y-102295500D01*
G75*
G02*
X121474000Y-102045501I0J249999D01*
G01*
X121474000Y-101345499D01*
G75*
G02*
X121723999Y-101095500I249999J0D01*
G01*
G37*
G04 #@! TD*
D10*
G04 #@! TO.C,L2*
X98298000Y-105390500D03*
X98298000Y-110890500D03*
G04 #@! TD*
D15*
G04 #@! TO.C,J11*
X104648000Y-117602000D03*
X107188000Y-117602000D03*
X109728000Y-117602000D03*
D16*
X112268000Y-117602000D03*
G04 #@! TD*
D13*
G04 #@! TO.C,D3*
X107505500Y-111506000D03*
D14*
X107505500Y-101346000D03*
G04 #@! TD*
G04 #@! TO.C,C6*
G36*
G01*
X103668000Y-114759501D02*
X103668000Y-113459499D01*
G75*
G02*
X103917999Y-113209500I249999J0D01*
G01*
X104743001Y-113209500D01*
G75*
G02*
X104993000Y-113459499I0J-249999D01*
G01*
X104993000Y-114759501D01*
G75*
G02*
X104743001Y-115009500I-249999J0D01*
G01*
X103917999Y-115009500D01*
G75*
G02*
X103668000Y-114759501I0J249999D01*
G01*
G37*
G36*
G01*
X100543000Y-114759501D02*
X100543000Y-113459499D01*
G75*
G02*
X100792999Y-113209500I249999J0D01*
G01*
X101618001Y-113209500D01*
G75*
G02*
X101868000Y-113459499I0J-249999D01*
G01*
X101868000Y-114759501D01*
G75*
G02*
X101618001Y-115009500I-249999J0D01*
G01*
X100792999Y-115009500D01*
G75*
G02*
X100543000Y-114759501I0J249999D01*
G01*
G37*
G04 #@! TD*
G04 #@! TO.C,C5*
G36*
G01*
X112792000Y-108681500D02*
X112792000Y-109631500D01*
G75*
G02*
X112542000Y-109881500I-250000J0D01*
G01*
X111867000Y-109881500D01*
G75*
G02*
X111617000Y-109631500I0J250000D01*
G01*
X111617000Y-108681500D01*
G75*
G02*
X111867000Y-108431500I250000J0D01*
G01*
X112542000Y-108431500D01*
G75*
G02*
X112792000Y-108681500I0J-250000D01*
G01*
G37*
G36*
G01*
X114867000Y-108681500D02*
X114867000Y-109631500D01*
G75*
G02*
X114617000Y-109881500I-250000J0D01*
G01*
X113942000Y-109881500D01*
G75*
G02*
X113692000Y-109631500I0J250000D01*
G01*
X113692000Y-108681500D01*
G75*
G02*
X113942000Y-108431500I250000J0D01*
G01*
X114617000Y-108431500D01*
G75*
G02*
X114867000Y-108681500I0J-250000D01*
G01*
G37*
G04 #@! TD*
G04 #@! TO.C,R4*
G36*
G01*
X177261500Y-131068500D02*
X178211500Y-131068500D01*
G75*
G02*
X178461500Y-131318500I0J-250000D01*
G01*
X178461500Y-131993500D01*
G75*
G02*
X178211500Y-132243500I-250000J0D01*
G01*
X177261500Y-132243500D01*
G75*
G02*
X177011500Y-131993500I0J250000D01*
G01*
X177011500Y-131318500D01*
G75*
G02*
X177261500Y-131068500I250000J0D01*
G01*
G37*
G36*
G01*
X177261500Y-133143500D02*
X178211500Y-133143500D01*
G75*
G02*
X178461500Y-133393500I0J-250000D01*
G01*
X178461500Y-134068500D01*
G75*
G02*
X178211500Y-134318500I-250000J0D01*
G01*
X177261500Y-134318500D01*
G75*
G02*
X177011500Y-134068500I0J250000D01*
G01*
X177011500Y-133393500D01*
G75*
G02*
X177261500Y-133143500I250000J0D01*
G01*
G37*
G04 #@! TD*
G04 #@! TO.C,R3*
G36*
G01*
X173451500Y-128528500D02*
X174401500Y-128528500D01*
G75*
G02*
X174651500Y-128778500I0J-250000D01*
G01*
X174651500Y-129453500D01*
G75*
G02*
X174401500Y-129703500I-250000J0D01*
G01*
X173451500Y-129703500D01*
G75*
G02*
X173201500Y-129453500I0J250000D01*
G01*
X173201500Y-128778500D01*
G75*
G02*
X173451500Y-128528500I250000J0D01*
G01*
G37*
G36*
G01*
X173451500Y-130603500D02*
X174401500Y-130603500D01*
G75*
G02*
X174651500Y-130853500I0J-250000D01*
G01*
X174651500Y-131528500D01*
G75*
G02*
X174401500Y-131778500I-250000J0D01*
G01*
X173451500Y-131778500D01*
G75*
G02*
X173201500Y-131528500I0J250000D01*
G01*
X173201500Y-130853500D01*
G75*
G02*
X173451500Y-130603500I250000J0D01*
G01*
G37*
G04 #@! TD*
D17*
G04 #@! TO.C,J2*
X181546500Y-134441000D03*
D18*
X181546500Y-133211000D03*
D19*
X181546500Y-132191000D03*
X181546500Y-131191000D03*
D18*
X181546500Y-130171000D03*
D17*
X181546500Y-128941000D03*
D20*
X181496500Y-127391000D03*
X185296500Y-127391000D03*
X181546500Y-136041000D03*
X185346500Y-136041000D03*
G04 #@! TD*
D16*
G04 #@! TO.C,J3*
X170116500Y-135001000D03*
D15*
X170116500Y-132461000D03*
X170116500Y-129921000D03*
X170116500Y-127381000D03*
G04 #@! TD*
G04 #@! TO.C,U1*
G36*
G01*
X113161400Y-75143500D02*
X113161400Y-74843500D01*
G75*
G02*
X113311400Y-74693500I150000J0D01*
G01*
X114961400Y-74693500D01*
G75*
G02*
X115111400Y-74843500I0J-150000D01*
G01*
X115111400Y-75143500D01*
G75*
G02*
X114961400Y-75293500I-150000J0D01*
G01*
X113311400Y-75293500D01*
G75*
G02*
X113161400Y-75143500I0J150000D01*
G01*
G37*
G36*
G01*
X113161400Y-76413500D02*
X113161400Y-76113500D01*
G75*
G02*
X113311400Y-75963500I150000J0D01*
G01*
X114961400Y-75963500D01*
G75*
G02*
X115111400Y-76113500I0J-150000D01*
G01*
X115111400Y-76413500D01*
G75*
G02*
X114961400Y-76563500I-150000J0D01*
G01*
X113311400Y-76563500D01*
G75*
G02*
X113161400Y-76413500I0J150000D01*
G01*
G37*
G36*
G01*
X113161400Y-77683500D02*
X113161400Y-77383500D01*
G75*
G02*
X113311400Y-77233500I150000J0D01*
G01*
X114961400Y-77233500D01*
G75*
G02*
X115111400Y-77383500I0J-150000D01*
G01*
X115111400Y-77683500D01*
G75*
G02*
X114961400Y-77833500I-150000J0D01*
G01*
X113311400Y-77833500D01*
G75*
G02*
X113161400Y-77683500I0J150000D01*
G01*
G37*
G36*
G01*
X113161400Y-78953500D02*
X113161400Y-78653500D01*
G75*
G02*
X113311400Y-78503500I150000J0D01*
G01*
X114961400Y-78503500D01*
G75*
G02*
X115111400Y-78653500I0J-150000D01*
G01*
X115111400Y-78953500D01*
G75*
G02*
X114961400Y-79103500I-150000J0D01*
G01*
X113311400Y-79103500D01*
G75*
G02*
X113161400Y-78953500I0J150000D01*
G01*
G37*
G36*
G01*
X118111400Y-78953500D02*
X118111400Y-78653500D01*
G75*
G02*
X118261400Y-78503500I150000J0D01*
G01*
X119911400Y-78503500D01*
G75*
G02*
X120061400Y-78653500I0J-150000D01*
G01*
X120061400Y-78953500D01*
G75*
G02*
X119911400Y-79103500I-150000J0D01*
G01*
X118261400Y-79103500D01*
G75*
G02*
X118111400Y-78953500I0J150000D01*
G01*
G37*
G36*
G01*
X118111400Y-77683500D02*
X118111400Y-77383500D01*
G75*
G02*
X118261400Y-77233500I150000J0D01*
G01*
X119911400Y-77233500D01*
G75*
G02*
X120061400Y-77383500I0J-150000D01*
G01*
X120061400Y-77683500D01*
G75*
G02*
X119911400Y-77833500I-150000J0D01*
G01*
X118261400Y-77833500D01*
G75*
G02*
X118111400Y-77683500I0J150000D01*
G01*
G37*
G36*
G01*
X118111400Y-76413500D02*
X118111400Y-76113500D01*
G75*
G02*
X118261400Y-75963500I150000J0D01*
G01*
X119911400Y-75963500D01*
G75*
G02*
X120061400Y-76113500I0J-150000D01*
G01*
X120061400Y-76413500D01*
G75*
G02*
X119911400Y-76563500I-150000J0D01*
G01*
X118261400Y-76563500D01*
G75*
G02*
X118111400Y-76413500I0J150000D01*
G01*
G37*
G36*
G01*
X118111400Y-75143500D02*
X118111400Y-74843500D01*
G75*
G02*
X118261400Y-74693500I150000J0D01*
G01*
X119911400Y-74693500D01*
G75*
G02*
X120061400Y-74843500I0J-150000D01*
G01*
X120061400Y-75143500D01*
G75*
G02*
X119911400Y-75293500I-150000J0D01*
G01*
X118261400Y-75293500D01*
G75*
G02*
X118111400Y-75143500I0J150000D01*
G01*
G37*
G04 #@! TD*
G04 #@! TO.C,R6*
G36*
G01*
X114315800Y-82798499D02*
X114315800Y-83698501D01*
G75*
G02*
X114065801Y-83948500I-249999J0D01*
G01*
X113365799Y-83948500D01*
G75*
G02*
X113115800Y-83698501I0J249999D01*
G01*
X113115800Y-82798499D01*
G75*
G02*
X113365799Y-82548500I249999J0D01*
G01*
X114065801Y-82548500D01*
G75*
G02*
X114315800Y-82798499I0J-249999D01*
G01*
G37*
G36*
G01*
X112315800Y-82798499D02*
X112315800Y-83698501D01*
G75*
G02*
X112065801Y-83948500I-249999J0D01*
G01*
X111365799Y-83948500D01*
G75*
G02*
X111115800Y-83698501I0J249999D01*
G01*
X111115800Y-82798499D01*
G75*
G02*
X111365799Y-82548500I249999J0D01*
G01*
X112065801Y-82548500D01*
G75*
G02*
X112315800Y-82798499I0J-249999D01*
G01*
G37*
G04 #@! TD*
G04 #@! TO.C,R5*
G36*
G01*
X109591800Y-87711701D02*
X109591800Y-86811699D01*
G75*
G02*
X109841799Y-86561700I249999J0D01*
G01*
X110541801Y-86561700D01*
G75*
G02*
X110791800Y-86811699I0J-249999D01*
G01*
X110791800Y-87711701D01*
G75*
G02*
X110541801Y-87961700I-249999J0D01*
G01*
X109841799Y-87961700D01*
G75*
G02*
X109591800Y-87711701I0J249999D01*
G01*
G37*
G36*
G01*
X111591800Y-87711701D02*
X111591800Y-86811699D01*
G75*
G02*
X111841799Y-86561700I249999J0D01*
G01*
X112541801Y-86561700D01*
G75*
G02*
X112791800Y-86811699I0J-249999D01*
G01*
X112791800Y-87711701D01*
G75*
G02*
X112541801Y-87961700I-249999J0D01*
G01*
X111841799Y-87961700D01*
G75*
G02*
X111591800Y-87711701I0J249999D01*
G01*
G37*
G04 #@! TD*
G04 #@! TO.C,R1*
G36*
G01*
X123578199Y-76330500D02*
X124478201Y-76330500D01*
G75*
G02*
X124728200Y-76580499I0J-249999D01*
G01*
X124728200Y-77280501D01*
G75*
G02*
X124478201Y-77530500I-249999J0D01*
G01*
X123578199Y-77530500D01*
G75*
G02*
X123328200Y-77280501I0J249999D01*
G01*
X123328200Y-76580499D01*
G75*
G02*
X123578199Y-76330500I249999J0D01*
G01*
G37*
G36*
G01*
X123578199Y-78330500D02*
X124478201Y-78330500D01*
G75*
G02*
X124728200Y-78580499I0J-249999D01*
G01*
X124728200Y-79280501D01*
G75*
G02*
X124478201Y-79530500I-249999J0D01*
G01*
X123578199Y-79530500D01*
G75*
G02*
X123328200Y-79280501I0J249999D01*
G01*
X123328200Y-78580499D01*
G75*
G02*
X123578199Y-78330500I249999J0D01*
G01*
G37*
G04 #@! TD*
G04 #@! TO.C,R2*
G36*
G01*
X123935800Y-73603699D02*
X123935800Y-74503701D01*
G75*
G02*
X123685801Y-74753700I-249999J0D01*
G01*
X122985799Y-74753700D01*
G75*
G02*
X122735800Y-74503701I0J249999D01*
G01*
X122735800Y-73603699D01*
G75*
G02*
X122985799Y-73353700I249999J0D01*
G01*
X123685801Y-73353700D01*
G75*
G02*
X123935800Y-73603699I0J-249999D01*
G01*
G37*
G36*
G01*
X121935800Y-73603699D02*
X121935800Y-74503701D01*
G75*
G02*
X121685801Y-74753700I-249999J0D01*
G01*
X120985799Y-74753700D01*
G75*
G02*
X120735800Y-74503701I0J249999D01*
G01*
X120735800Y-73603699D01*
G75*
G02*
X120985799Y-73353700I249999J0D01*
G01*
X121685801Y-73353700D01*
G75*
G02*
X121935800Y-73603699I0J-249999D01*
G01*
G37*
G04 #@! TD*
D10*
G04 #@! TO.C,L1*
X98018600Y-84271300D03*
X98018600Y-78771300D03*
G04 #@! TD*
D16*
G04 #@! TO.C,J1*
X111683800Y-91122500D03*
D15*
X109143800Y-91122500D03*
X106603800Y-91122500D03*
X104063800Y-91122500D03*
G04 #@! TD*
G04 #@! TO.C,C2*
G36*
G01*
X100022300Y-88114902D02*
X100022300Y-86814898D01*
G75*
G02*
X100272298Y-86564900I249998J0D01*
G01*
X101097302Y-86564900D01*
G75*
G02*
X101347300Y-86814898I0J-249998D01*
G01*
X101347300Y-88114902D01*
G75*
G02*
X101097302Y-88364900I-249998J0D01*
G01*
X100272298Y-88364900D01*
G75*
G02*
X100022300Y-88114902I0J249998D01*
G01*
G37*
G36*
G01*
X103147300Y-88114902D02*
X103147300Y-86814898D01*
G75*
G02*
X103397298Y-86564900I249998J0D01*
G01*
X104222302Y-86564900D01*
G75*
G02*
X104472300Y-86814898I0J-249998D01*
G01*
X104472300Y-88114902D01*
G75*
G02*
X104222302Y-88364900I-249998J0D01*
G01*
X103397298Y-88364900D01*
G75*
G02*
X103147300Y-88114902I0J249998D01*
G01*
G37*
G04 #@! TD*
D14*
G04 #@! TO.C,D1*
X106553000Y-74561700D03*
D13*
X106553000Y-84721700D03*
G04 #@! TD*
G04 #@! TO.C,C1*
G36*
G01*
X109837200Y-76877600D02*
X110787200Y-76877600D01*
G75*
G02*
X111037200Y-77127600I0J-250000D01*
G01*
X111037200Y-77802600D01*
G75*
G02*
X110787200Y-78052600I-250000J0D01*
G01*
X109837200Y-78052600D01*
G75*
G02*
X109587200Y-77802600I0J250000D01*
G01*
X109587200Y-77127600D01*
G75*
G02*
X109837200Y-76877600I250000J0D01*
G01*
G37*
G36*
G01*
X109837200Y-78952600D02*
X110787200Y-78952600D01*
G75*
G02*
X111037200Y-79202600I0J-250000D01*
G01*
X111037200Y-79877600D01*
G75*
G02*
X110787200Y-80127600I-250000J0D01*
G01*
X109837200Y-80127600D01*
G75*
G02*
X109587200Y-79877600I0J250000D01*
G01*
X109587200Y-79202600D01*
G75*
G02*
X109837200Y-78952600I250000J0D01*
G01*
G37*
G04 #@! TD*
G04 #@! TO.C,R26*
G36*
G01*
X152367401Y-104063600D02*
X151467399Y-104063600D01*
G75*
G02*
X151217400Y-103813601I0J249999D01*
G01*
X151217400Y-103113599D01*
G75*
G02*
X151467399Y-102863600I249999J0D01*
G01*
X152367401Y-102863600D01*
G75*
G02*
X152617400Y-103113599I0J-249999D01*
G01*
X152617400Y-103813601D01*
G75*
G02*
X152367401Y-104063600I-249999J0D01*
G01*
G37*
G36*
G01*
X152367401Y-102063600D02*
X151467399Y-102063600D01*
G75*
G02*
X151217400Y-101813601I0J249999D01*
G01*
X151217400Y-101113599D01*
G75*
G02*
X151467399Y-100863600I249999J0D01*
G01*
X152367401Y-100863600D01*
G75*
G02*
X152617400Y-101113599I0J-249999D01*
G01*
X152617400Y-101813601D01*
G75*
G02*
X152367401Y-102063600I-249999J0D01*
G01*
G37*
G04 #@! TD*
G04 #@! TO.C,U3*
G36*
G01*
X144809800Y-94155400D02*
X144809800Y-93855400D01*
G75*
G02*
X144959800Y-93705400I150000J0D01*
G01*
X146609800Y-93705400D01*
G75*
G02*
X146759800Y-93855400I0J-150000D01*
G01*
X146759800Y-94155400D01*
G75*
G02*
X146609800Y-94305400I-150000J0D01*
G01*
X144959800Y-94305400D01*
G75*
G02*
X144809800Y-94155400I0J150000D01*
G01*
G37*
G36*
G01*
X144809800Y-95425400D02*
X144809800Y-95125400D01*
G75*
G02*
X144959800Y-94975400I150000J0D01*
G01*
X146609800Y-94975400D01*
G75*
G02*
X146759800Y-95125400I0J-150000D01*
G01*
X146759800Y-95425400D01*
G75*
G02*
X146609800Y-95575400I-150000J0D01*
G01*
X144959800Y-95575400D01*
G75*
G02*
X144809800Y-95425400I0J150000D01*
G01*
G37*
G36*
G01*
X144809800Y-96695400D02*
X144809800Y-96395400D01*
G75*
G02*
X144959800Y-96245400I150000J0D01*
G01*
X146609800Y-96245400D01*
G75*
G02*
X146759800Y-96395400I0J-150000D01*
G01*
X146759800Y-96695400D01*
G75*
G02*
X146609800Y-96845400I-150000J0D01*
G01*
X144959800Y-96845400D01*
G75*
G02*
X144809800Y-96695400I0J150000D01*
G01*
G37*
G36*
G01*
X144809800Y-97965400D02*
X144809800Y-97665400D01*
G75*
G02*
X144959800Y-97515400I150000J0D01*
G01*
X146609800Y-97515400D01*
G75*
G02*
X146759800Y-97665400I0J-150000D01*
G01*
X146759800Y-97965400D01*
G75*
G02*
X146609800Y-98115400I-150000J0D01*
G01*
X144959800Y-98115400D01*
G75*
G02*
X144809800Y-97965400I0J150000D01*
G01*
G37*
G36*
G01*
X149759800Y-97965400D02*
X149759800Y-97665400D01*
G75*
G02*
X149909800Y-97515400I150000J0D01*
G01*
X151559800Y-97515400D01*
G75*
G02*
X151709800Y-97665400I0J-150000D01*
G01*
X151709800Y-97965400D01*
G75*
G02*
X151559800Y-98115400I-150000J0D01*
G01*
X149909800Y-98115400D01*
G75*
G02*
X149759800Y-97965400I0J150000D01*
G01*
G37*
G36*
G01*
X149759800Y-96695400D02*
X149759800Y-96395400D01*
G75*
G02*
X149909800Y-96245400I150000J0D01*
G01*
X151559800Y-96245400D01*
G75*
G02*
X151709800Y-96395400I0J-150000D01*
G01*
X151709800Y-96695400D01*
G75*
G02*
X151559800Y-96845400I-150000J0D01*
G01*
X149909800Y-96845400D01*
G75*
G02*
X149759800Y-96695400I0J150000D01*
G01*
G37*
G36*
G01*
X149759800Y-95425400D02*
X149759800Y-95125400D01*
G75*
G02*
X149909800Y-94975400I150000J0D01*
G01*
X151559800Y-94975400D01*
G75*
G02*
X151709800Y-95125400I0J-150000D01*
G01*
X151709800Y-95425400D01*
G75*
G02*
X151559800Y-95575400I-150000J0D01*
G01*
X149909800Y-95575400D01*
G75*
G02*
X149759800Y-95425400I0J150000D01*
G01*
G37*
G36*
G01*
X149759800Y-94155400D02*
X149759800Y-93855400D01*
G75*
G02*
X149909800Y-93705400I150000J0D01*
G01*
X151559800Y-93705400D01*
G75*
G02*
X151709800Y-93855400I0J-150000D01*
G01*
X151709800Y-94155400D01*
G75*
G02*
X151559800Y-94305400I-150000J0D01*
G01*
X149909800Y-94305400D01*
G75*
G02*
X149759800Y-94155400I0J150000D01*
G01*
G37*
G04 #@! TD*
D21*
G04 #@! TO.C,U2*
X138404600Y-99898200D03*
X139674600Y-99898200D03*
X140944600Y-99898200D03*
X142214600Y-99898200D03*
X142214600Y-94056200D03*
X140944600Y-94056200D03*
X139674600Y-94056200D03*
X138404600Y-94056200D03*
G04 #@! TD*
G04 #@! TO.C,R25*
G36*
G01*
X145558200Y-102558001D02*
X145558200Y-101657999D01*
G75*
G02*
X145808199Y-101408000I249999J0D01*
G01*
X146508201Y-101408000D01*
G75*
G02*
X146758200Y-101657999I0J-249999D01*
G01*
X146758200Y-102558001D01*
G75*
G02*
X146508201Y-102808000I-249999J0D01*
G01*
X145808199Y-102808000D01*
G75*
G02*
X145558200Y-102558001I0J249999D01*
G01*
G37*
G36*
G01*
X147558200Y-102558001D02*
X147558200Y-101657999D01*
G75*
G02*
X147808199Y-101408000I249999J0D01*
G01*
X148508201Y-101408000D01*
G75*
G02*
X148758200Y-101657999I0J-249999D01*
G01*
X148758200Y-102558001D01*
G75*
G02*
X148508201Y-102808000I-249999J0D01*
G01*
X147808199Y-102808000D01*
G75*
G02*
X147558200Y-102558001I0J249999D01*
G01*
G37*
G04 #@! TD*
D16*
G04 #@! TO.C,J10*
X134035800Y-90271600D03*
D15*
X134035800Y-92811600D03*
X134035800Y-95351600D03*
X134035800Y-97891600D03*
G04 #@! TD*
D14*
G04 #@! TO.C,D2*
X153847800Y-87325200D03*
D13*
X143687800Y-87325200D03*
G04 #@! TD*
G04 #@! TO.C,C4*
G36*
G01*
X145030700Y-91711800D02*
X145030700Y-90761800D01*
G75*
G02*
X145280700Y-90511800I250000J0D01*
G01*
X145955700Y-90511800D01*
G75*
G02*
X146205700Y-90761800I0J-250000D01*
G01*
X146205700Y-91711800D01*
G75*
G02*
X145955700Y-91961800I-250000J0D01*
G01*
X145280700Y-91961800D01*
G75*
G02*
X145030700Y-91711800I0J250000D01*
G01*
G37*
G36*
G01*
X147105700Y-91711800D02*
X147105700Y-90761800D01*
G75*
G02*
X147355700Y-90511800I250000J0D01*
G01*
X148030700Y-90511800D01*
G75*
G02*
X148280700Y-90761800I0J-250000D01*
G01*
X148280700Y-91711800D01*
G75*
G02*
X148030700Y-91961800I-250000J0D01*
G01*
X147355700Y-91961800D01*
G75*
G02*
X147105700Y-91711800I0J250000D01*
G01*
G37*
G04 #@! TD*
G04 #@! TO.C,C3*
G36*
G01*
X153982400Y-93595700D02*
X154932400Y-93595700D01*
G75*
G02*
X155182400Y-93845700I0J-250000D01*
G01*
X155182400Y-94520700D01*
G75*
G02*
X154932400Y-94770700I-250000J0D01*
G01*
X153982400Y-94770700D01*
G75*
G02*
X153732400Y-94520700I0J250000D01*
G01*
X153732400Y-93845700D01*
G75*
G02*
X153982400Y-93595700I250000J0D01*
G01*
G37*
G36*
G01*
X153982400Y-95670700D02*
X154932400Y-95670700D01*
G75*
G02*
X155182400Y-95920700I0J-250000D01*
G01*
X155182400Y-96595700D01*
G75*
G02*
X154932400Y-96845700I-250000J0D01*
G01*
X153982400Y-96845700D01*
G75*
G02*
X153732400Y-96595700I0J250000D01*
G01*
X153732400Y-95920700D01*
G75*
G02*
X153982400Y-95670700I250000J0D01*
G01*
G37*
G04 #@! TD*
G04 #@! TO.C,R26*
G36*
G01*
X182910901Y-123240600D02*
X182010899Y-123240600D01*
G75*
G02*
X181760900Y-122990601I0J249999D01*
G01*
X181760900Y-122290599D01*
G75*
G02*
X182010899Y-122040600I249999J0D01*
G01*
X182910901Y-122040600D01*
G75*
G02*
X183160900Y-122290599I0J-249999D01*
G01*
X183160900Y-122990601D01*
G75*
G02*
X182910901Y-123240600I-249999J0D01*
G01*
G37*
G36*
G01*
X182910901Y-121240600D02*
X182010899Y-121240600D01*
G75*
G02*
X181760900Y-120990601I0J249999D01*
G01*
X181760900Y-120290599D01*
G75*
G02*
X182010899Y-120040600I249999J0D01*
G01*
X182910901Y-120040600D01*
G75*
G02*
X183160900Y-120290599I0J-249999D01*
G01*
X183160900Y-120990601D01*
G75*
G02*
X182910901Y-121240600I-249999J0D01*
G01*
G37*
G04 #@! TD*
G04 #@! TO.C,U3*
G36*
G01*
X175353300Y-113332400D02*
X175353300Y-113032400D01*
G75*
G02*
X175503300Y-112882400I150000J0D01*
G01*
X177153300Y-112882400D01*
G75*
G02*
X177303300Y-113032400I0J-150000D01*
G01*
X177303300Y-113332400D01*
G75*
G02*
X177153300Y-113482400I-150000J0D01*
G01*
X175503300Y-113482400D01*
G75*
G02*
X175353300Y-113332400I0J150000D01*
G01*
G37*
G36*
G01*
X175353300Y-114602400D02*
X175353300Y-114302400D01*
G75*
G02*
X175503300Y-114152400I150000J0D01*
G01*
X177153300Y-114152400D01*
G75*
G02*
X177303300Y-114302400I0J-150000D01*
G01*
X177303300Y-114602400D01*
G75*
G02*
X177153300Y-114752400I-150000J0D01*
G01*
X175503300Y-114752400D01*
G75*
G02*
X175353300Y-114602400I0J150000D01*
G01*
G37*
G36*
G01*
X175353300Y-115872400D02*
X175353300Y-115572400D01*
G75*
G02*
X175503300Y-115422400I150000J0D01*
G01*
X177153300Y-115422400D01*
G75*
G02*
X177303300Y-115572400I0J-150000D01*
G01*
X177303300Y-115872400D01*
G75*
G02*
X177153300Y-116022400I-150000J0D01*
G01*
X175503300Y-116022400D01*
G75*
G02*
X175353300Y-115872400I0J150000D01*
G01*
G37*
G36*
G01*
X175353300Y-117142400D02*
X175353300Y-116842400D01*
G75*
G02*
X175503300Y-116692400I150000J0D01*
G01*
X177153300Y-116692400D01*
G75*
G02*
X177303300Y-116842400I0J-150000D01*
G01*
X177303300Y-117142400D01*
G75*
G02*
X177153300Y-117292400I-150000J0D01*
G01*
X175503300Y-117292400D01*
G75*
G02*
X175353300Y-117142400I0J150000D01*
G01*
G37*
G36*
G01*
X180303300Y-117142400D02*
X180303300Y-116842400D01*
G75*
G02*
X180453300Y-116692400I150000J0D01*
G01*
X182103300Y-116692400D01*
G75*
G02*
X182253300Y-116842400I0J-150000D01*
G01*
X182253300Y-117142400D01*
G75*
G02*
X182103300Y-117292400I-150000J0D01*
G01*
X180453300Y-117292400D01*
G75*
G02*
X180303300Y-117142400I0J150000D01*
G01*
G37*
G36*
G01*
X180303300Y-115872400D02*
X180303300Y-115572400D01*
G75*
G02*
X180453300Y-115422400I150000J0D01*
G01*
X182103300Y-115422400D01*
G75*
G02*
X182253300Y-115572400I0J-150000D01*
G01*
X182253300Y-115872400D01*
G75*
G02*
X182103300Y-116022400I-150000J0D01*
G01*
X180453300Y-116022400D01*
G75*
G02*
X180303300Y-115872400I0J150000D01*
G01*
G37*
G36*
G01*
X180303300Y-114602400D02*
X180303300Y-114302400D01*
G75*
G02*
X180453300Y-114152400I150000J0D01*
G01*
X182103300Y-114152400D01*
G75*
G02*
X182253300Y-114302400I0J-150000D01*
G01*
X182253300Y-114602400D01*
G75*
G02*
X182103300Y-114752400I-150000J0D01*
G01*
X180453300Y-114752400D01*
G75*
G02*
X180303300Y-114602400I0J150000D01*
G01*
G37*
G36*
G01*
X180303300Y-113332400D02*
X180303300Y-113032400D01*
G75*
G02*
X180453300Y-112882400I150000J0D01*
G01*
X182103300Y-112882400D01*
G75*
G02*
X182253300Y-113032400I0J-150000D01*
G01*
X182253300Y-113332400D01*
G75*
G02*
X182103300Y-113482400I-150000J0D01*
G01*
X180453300Y-113482400D01*
G75*
G02*
X180303300Y-113332400I0J150000D01*
G01*
G37*
G04 #@! TD*
D21*
G04 #@! TO.C,U2*
X168948100Y-119075200D03*
X170218100Y-119075200D03*
X171488100Y-119075200D03*
X172758100Y-119075200D03*
X172758100Y-113233200D03*
X171488100Y-113233200D03*
X170218100Y-113233200D03*
X168948100Y-113233200D03*
G04 #@! TD*
G04 #@! TO.C,R25*
G36*
G01*
X176101700Y-121735001D02*
X176101700Y-120834999D01*
G75*
G02*
X176351699Y-120585000I249999J0D01*
G01*
X177051701Y-120585000D01*
G75*
G02*
X177301700Y-120834999I0J-249999D01*
G01*
X177301700Y-121735001D01*
G75*
G02*
X177051701Y-121985000I-249999J0D01*
G01*
X176351699Y-121985000D01*
G75*
G02*
X176101700Y-121735001I0J249999D01*
G01*
G37*
G36*
G01*
X178101700Y-121735001D02*
X178101700Y-120834999D01*
G75*
G02*
X178351699Y-120585000I249999J0D01*
G01*
X179051701Y-120585000D01*
G75*
G02*
X179301700Y-120834999I0J-249999D01*
G01*
X179301700Y-121735001D01*
G75*
G02*
X179051701Y-121985000I-249999J0D01*
G01*
X178351699Y-121985000D01*
G75*
G02*
X178101700Y-121735001I0J249999D01*
G01*
G37*
G04 #@! TD*
D16*
G04 #@! TO.C,J10*
X164579300Y-109448600D03*
D15*
X164579300Y-111988600D03*
X164579300Y-114528600D03*
X164579300Y-117068600D03*
G04 #@! TD*
D14*
G04 #@! TO.C,D2*
X184391300Y-106502200D03*
D13*
X174231300Y-106502200D03*
G04 #@! TD*
G04 #@! TO.C,C4*
G36*
G01*
X175574200Y-110888800D02*
X175574200Y-109938800D01*
G75*
G02*
X175824200Y-109688800I250000J0D01*
G01*
X176499200Y-109688800D01*
G75*
G02*
X176749200Y-109938800I0J-250000D01*
G01*
X176749200Y-110888800D01*
G75*
G02*
X176499200Y-111138800I-250000J0D01*
G01*
X175824200Y-111138800D01*
G75*
G02*
X175574200Y-110888800I0J250000D01*
G01*
G37*
G36*
G01*
X177649200Y-110888800D02*
X177649200Y-109938800D01*
G75*
G02*
X177899200Y-109688800I250000J0D01*
G01*
X178574200Y-109688800D01*
G75*
G02*
X178824200Y-109938800I0J-250000D01*
G01*
X178824200Y-110888800D01*
G75*
G02*
X178574200Y-111138800I-250000J0D01*
G01*
X177899200Y-111138800D01*
G75*
G02*
X177649200Y-110888800I0J250000D01*
G01*
G37*
G04 #@! TD*
G04 #@! TO.C,C3*
G36*
G01*
X184525900Y-112772700D02*
X185475900Y-112772700D01*
G75*
G02*
X185725900Y-113022700I0J-250000D01*
G01*
X185725900Y-113697700D01*
G75*
G02*
X185475900Y-113947700I-250000J0D01*
G01*
X184525900Y-113947700D01*
G75*
G02*
X184275900Y-113697700I0J250000D01*
G01*
X184275900Y-113022700D01*
G75*
G02*
X184525900Y-112772700I250000J0D01*
G01*
G37*
G36*
G01*
X184525900Y-114847700D02*
X185475900Y-114847700D01*
G75*
G02*
X185725900Y-115097700I0J-250000D01*
G01*
X185725900Y-115772700D01*
G75*
G02*
X185475900Y-116022700I-250000J0D01*
G01*
X184525900Y-116022700D01*
G75*
G02*
X184275900Y-115772700I0J250000D01*
G01*
X184275900Y-115097700D01*
G75*
G02*
X184525900Y-114847700I250000J0D01*
G01*
G37*
G04 #@! TD*
G04 #@! TO.C,R26*
G36*
G01*
X184815901Y-101142600D02*
X183915899Y-101142600D01*
G75*
G02*
X183665900Y-100892601I0J249999D01*
G01*
X183665900Y-100192599D01*
G75*
G02*
X183915899Y-99942600I249999J0D01*
G01*
X184815901Y-99942600D01*
G75*
G02*
X185065900Y-100192599I0J-249999D01*
G01*
X185065900Y-100892601D01*
G75*
G02*
X184815901Y-101142600I-249999J0D01*
G01*
G37*
G36*
G01*
X184815901Y-99142600D02*
X183915899Y-99142600D01*
G75*
G02*
X183665900Y-98892601I0J249999D01*
G01*
X183665900Y-98192599D01*
G75*
G02*
X183915899Y-97942600I249999J0D01*
G01*
X184815901Y-97942600D01*
G75*
G02*
X185065900Y-98192599I0J-249999D01*
G01*
X185065900Y-98892601D01*
G75*
G02*
X184815901Y-99142600I-249999J0D01*
G01*
G37*
G04 #@! TD*
G04 #@! TO.C,U3*
G36*
G01*
X177258300Y-91234400D02*
X177258300Y-90934400D01*
G75*
G02*
X177408300Y-90784400I150000J0D01*
G01*
X179058300Y-90784400D01*
G75*
G02*
X179208300Y-90934400I0J-150000D01*
G01*
X179208300Y-91234400D01*
G75*
G02*
X179058300Y-91384400I-150000J0D01*
G01*
X177408300Y-91384400D01*
G75*
G02*
X177258300Y-91234400I0J150000D01*
G01*
G37*
G36*
G01*
X177258300Y-92504400D02*
X177258300Y-92204400D01*
G75*
G02*
X177408300Y-92054400I150000J0D01*
G01*
X179058300Y-92054400D01*
G75*
G02*
X179208300Y-92204400I0J-150000D01*
G01*
X179208300Y-92504400D01*
G75*
G02*
X179058300Y-92654400I-150000J0D01*
G01*
X177408300Y-92654400D01*
G75*
G02*
X177258300Y-92504400I0J150000D01*
G01*
G37*
G36*
G01*
X177258300Y-93774400D02*
X177258300Y-93474400D01*
G75*
G02*
X177408300Y-93324400I150000J0D01*
G01*
X179058300Y-93324400D01*
G75*
G02*
X179208300Y-93474400I0J-150000D01*
G01*
X179208300Y-93774400D01*
G75*
G02*
X179058300Y-93924400I-150000J0D01*
G01*
X177408300Y-93924400D01*
G75*
G02*
X177258300Y-93774400I0J150000D01*
G01*
G37*
G36*
G01*
X177258300Y-95044400D02*
X177258300Y-94744400D01*
G75*
G02*
X177408300Y-94594400I150000J0D01*
G01*
X179058300Y-94594400D01*
G75*
G02*
X179208300Y-94744400I0J-150000D01*
G01*
X179208300Y-95044400D01*
G75*
G02*
X179058300Y-95194400I-150000J0D01*
G01*
X177408300Y-95194400D01*
G75*
G02*
X177258300Y-95044400I0J150000D01*
G01*
G37*
G36*
G01*
X182208300Y-95044400D02*
X182208300Y-94744400D01*
G75*
G02*
X182358300Y-94594400I150000J0D01*
G01*
X184008300Y-94594400D01*
G75*
G02*
X184158300Y-94744400I0J-150000D01*
G01*
X184158300Y-95044400D01*
G75*
G02*
X184008300Y-95194400I-150000J0D01*
G01*
X182358300Y-95194400D01*
G75*
G02*
X182208300Y-95044400I0J150000D01*
G01*
G37*
G36*
G01*
X182208300Y-93774400D02*
X182208300Y-93474400D01*
G75*
G02*
X182358300Y-93324400I150000J0D01*
G01*
X184008300Y-93324400D01*
G75*
G02*
X184158300Y-93474400I0J-150000D01*
G01*
X184158300Y-93774400D01*
G75*
G02*
X184008300Y-93924400I-150000J0D01*
G01*
X182358300Y-93924400D01*
G75*
G02*
X182208300Y-93774400I0J150000D01*
G01*
G37*
G36*
G01*
X182208300Y-92504400D02*
X182208300Y-92204400D01*
G75*
G02*
X182358300Y-92054400I150000J0D01*
G01*
X184008300Y-92054400D01*
G75*
G02*
X184158300Y-92204400I0J-150000D01*
G01*
X184158300Y-92504400D01*
G75*
G02*
X184008300Y-92654400I-150000J0D01*
G01*
X182358300Y-92654400D01*
G75*
G02*
X182208300Y-92504400I0J150000D01*
G01*
G37*
G36*
G01*
X182208300Y-91234400D02*
X182208300Y-90934400D01*
G75*
G02*
X182358300Y-90784400I150000J0D01*
G01*
X184008300Y-90784400D01*
G75*
G02*
X184158300Y-90934400I0J-150000D01*
G01*
X184158300Y-91234400D01*
G75*
G02*
X184008300Y-91384400I-150000J0D01*
G01*
X182358300Y-91384400D01*
G75*
G02*
X182208300Y-91234400I0J150000D01*
G01*
G37*
G04 #@! TD*
D21*
G04 #@! TO.C,U2*
X170853100Y-96977200D03*
X172123100Y-96977200D03*
X173393100Y-96977200D03*
X174663100Y-96977200D03*
X174663100Y-91135200D03*
X173393100Y-91135200D03*
X172123100Y-91135200D03*
X170853100Y-91135200D03*
G04 #@! TD*
G04 #@! TO.C,R25*
G36*
G01*
X178006700Y-99637001D02*
X178006700Y-98736999D01*
G75*
G02*
X178256699Y-98487000I249999J0D01*
G01*
X178956701Y-98487000D01*
G75*
G02*
X179206700Y-98736999I0J-249999D01*
G01*
X179206700Y-99637001D01*
G75*
G02*
X178956701Y-99887000I-249999J0D01*
G01*
X178256699Y-99887000D01*
G75*
G02*
X178006700Y-99637001I0J249999D01*
G01*
G37*
G36*
G01*
X180006700Y-99637001D02*
X180006700Y-98736999D01*
G75*
G02*
X180256699Y-98487000I249999J0D01*
G01*
X180956701Y-98487000D01*
G75*
G02*
X181206700Y-98736999I0J-249999D01*
G01*
X181206700Y-99637001D01*
G75*
G02*
X180956701Y-99887000I-249999J0D01*
G01*
X180256699Y-99887000D01*
G75*
G02*
X180006700Y-99637001I0J249999D01*
G01*
G37*
G04 #@! TD*
D16*
G04 #@! TO.C,J10*
X166484300Y-87350600D03*
D15*
X166484300Y-89890600D03*
X166484300Y-92430600D03*
X166484300Y-94970600D03*
G04 #@! TD*
D14*
G04 #@! TO.C,D2*
X186296300Y-84404200D03*
D13*
X176136300Y-84404200D03*
G04 #@! TD*
G04 #@! TO.C,C4*
G36*
G01*
X177479200Y-88790800D02*
X177479200Y-87840800D01*
G75*
G02*
X177729200Y-87590800I250000J0D01*
G01*
X178404200Y-87590800D01*
G75*
G02*
X178654200Y-87840800I0J-250000D01*
G01*
X178654200Y-88790800D01*
G75*
G02*
X178404200Y-89040800I-250000J0D01*
G01*
X177729200Y-89040800D01*
G75*
G02*
X177479200Y-88790800I0J250000D01*
G01*
G37*
G36*
G01*
X179554200Y-88790800D02*
X179554200Y-87840800D01*
G75*
G02*
X179804200Y-87590800I250000J0D01*
G01*
X180479200Y-87590800D01*
G75*
G02*
X180729200Y-87840800I0J-250000D01*
G01*
X180729200Y-88790800D01*
G75*
G02*
X180479200Y-89040800I-250000J0D01*
G01*
X179804200Y-89040800D01*
G75*
G02*
X179554200Y-88790800I0J250000D01*
G01*
G37*
G04 #@! TD*
G04 #@! TO.C,C3*
G36*
G01*
X186430900Y-90674700D02*
X187380900Y-90674700D01*
G75*
G02*
X187630900Y-90924700I0J-250000D01*
G01*
X187630900Y-91599700D01*
G75*
G02*
X187380900Y-91849700I-250000J0D01*
G01*
X186430900Y-91849700D01*
G75*
G02*
X186180900Y-91599700I0J250000D01*
G01*
X186180900Y-90924700D01*
G75*
G02*
X186430900Y-90674700I250000J0D01*
G01*
G37*
G36*
G01*
X186430900Y-92749700D02*
X187380900Y-92749700D01*
G75*
G02*
X187630900Y-92999700I0J-250000D01*
G01*
X187630900Y-93674700D01*
G75*
G02*
X187380900Y-93924700I-250000J0D01*
G01*
X186430900Y-93924700D01*
G75*
G02*
X186180900Y-93674700I0J250000D01*
G01*
X186180900Y-92999700D01*
G75*
G02*
X186430900Y-92749700I250000J0D01*
G01*
G37*
G04 #@! TD*
G04 #@! TO.C,R26*
G36*
G01*
X184498401Y-77774600D02*
X183598399Y-77774600D01*
G75*
G02*
X183348400Y-77524601I0J249999D01*
G01*
X183348400Y-76824599D01*
G75*
G02*
X183598399Y-76574600I249999J0D01*
G01*
X184498401Y-76574600D01*
G75*
G02*
X184748400Y-76824599I0J-249999D01*
G01*
X184748400Y-77524601D01*
G75*
G02*
X184498401Y-77774600I-249999J0D01*
G01*
G37*
G36*
G01*
X184498401Y-75774600D02*
X183598399Y-75774600D01*
G75*
G02*
X183348400Y-75524601I0J249999D01*
G01*
X183348400Y-74824599D01*
G75*
G02*
X183598399Y-74574600I249999J0D01*
G01*
X184498401Y-74574600D01*
G75*
G02*
X184748400Y-74824599I0J-249999D01*
G01*
X184748400Y-75524601D01*
G75*
G02*
X184498401Y-75774600I-249999J0D01*
G01*
G37*
G04 #@! TD*
G04 #@! TO.C,U3*
G36*
G01*
X176940800Y-67866400D02*
X176940800Y-67566400D01*
G75*
G02*
X177090800Y-67416400I150000J0D01*
G01*
X178740800Y-67416400D01*
G75*
G02*
X178890800Y-67566400I0J-150000D01*
G01*
X178890800Y-67866400D01*
G75*
G02*
X178740800Y-68016400I-150000J0D01*
G01*
X177090800Y-68016400D01*
G75*
G02*
X176940800Y-67866400I0J150000D01*
G01*
G37*
G36*
G01*
X176940800Y-69136400D02*
X176940800Y-68836400D01*
G75*
G02*
X177090800Y-68686400I150000J0D01*
G01*
X178740800Y-68686400D01*
G75*
G02*
X178890800Y-68836400I0J-150000D01*
G01*
X178890800Y-69136400D01*
G75*
G02*
X178740800Y-69286400I-150000J0D01*
G01*
X177090800Y-69286400D01*
G75*
G02*
X176940800Y-69136400I0J150000D01*
G01*
G37*
G36*
G01*
X176940800Y-70406400D02*
X176940800Y-70106400D01*
G75*
G02*
X177090800Y-69956400I150000J0D01*
G01*
X178740800Y-69956400D01*
G75*
G02*
X178890800Y-70106400I0J-150000D01*
G01*
X178890800Y-70406400D01*
G75*
G02*
X178740800Y-70556400I-150000J0D01*
G01*
X177090800Y-70556400D01*
G75*
G02*
X176940800Y-70406400I0J150000D01*
G01*
G37*
G36*
G01*
X176940800Y-71676400D02*
X176940800Y-71376400D01*
G75*
G02*
X177090800Y-71226400I150000J0D01*
G01*
X178740800Y-71226400D01*
G75*
G02*
X178890800Y-71376400I0J-150000D01*
G01*
X178890800Y-71676400D01*
G75*
G02*
X178740800Y-71826400I-150000J0D01*
G01*
X177090800Y-71826400D01*
G75*
G02*
X176940800Y-71676400I0J150000D01*
G01*
G37*
G36*
G01*
X181890800Y-71676400D02*
X181890800Y-71376400D01*
G75*
G02*
X182040800Y-71226400I150000J0D01*
G01*
X183690800Y-71226400D01*
G75*
G02*
X183840800Y-71376400I0J-150000D01*
G01*
X183840800Y-71676400D01*
G75*
G02*
X183690800Y-71826400I-150000J0D01*
G01*
X182040800Y-71826400D01*
G75*
G02*
X181890800Y-71676400I0J150000D01*
G01*
G37*
G36*
G01*
X181890800Y-70406400D02*
X181890800Y-70106400D01*
G75*
G02*
X182040800Y-69956400I150000J0D01*
G01*
X183690800Y-69956400D01*
G75*
G02*
X183840800Y-70106400I0J-150000D01*
G01*
X183840800Y-70406400D01*
G75*
G02*
X183690800Y-70556400I-150000J0D01*
G01*
X182040800Y-70556400D01*
G75*
G02*
X181890800Y-70406400I0J150000D01*
G01*
G37*
G36*
G01*
X181890800Y-69136400D02*
X181890800Y-68836400D01*
G75*
G02*
X182040800Y-68686400I150000J0D01*
G01*
X183690800Y-68686400D01*
G75*
G02*
X183840800Y-68836400I0J-150000D01*
G01*
X183840800Y-69136400D01*
G75*
G02*
X183690800Y-69286400I-150000J0D01*
G01*
X182040800Y-69286400D01*
G75*
G02*
X181890800Y-69136400I0J150000D01*
G01*
G37*
G36*
G01*
X181890800Y-67866400D02*
X181890800Y-67566400D01*
G75*
G02*
X182040800Y-67416400I150000J0D01*
G01*
X183690800Y-67416400D01*
G75*
G02*
X183840800Y-67566400I0J-150000D01*
G01*
X183840800Y-67866400D01*
G75*
G02*
X183690800Y-68016400I-150000J0D01*
G01*
X182040800Y-68016400D01*
G75*
G02*
X181890800Y-67866400I0J150000D01*
G01*
G37*
G04 #@! TD*
D21*
G04 #@! TO.C,U2*
X170535600Y-73609200D03*
X171805600Y-73609200D03*
X173075600Y-73609200D03*
X174345600Y-73609200D03*
X174345600Y-67767200D03*
X173075600Y-67767200D03*
X171805600Y-67767200D03*
X170535600Y-67767200D03*
G04 #@! TD*
G04 #@! TO.C,R25*
G36*
G01*
X177689200Y-76269001D02*
X177689200Y-75368999D01*
G75*
G02*
X177939199Y-75119000I249999J0D01*
G01*
X178639201Y-75119000D01*
G75*
G02*
X178889200Y-75368999I0J-249999D01*
G01*
X178889200Y-76269001D01*
G75*
G02*
X178639201Y-76519000I-249999J0D01*
G01*
X177939199Y-76519000D01*
G75*
G02*
X177689200Y-76269001I0J249999D01*
G01*
G37*
G36*
G01*
X179689200Y-76269001D02*
X179689200Y-75368999D01*
G75*
G02*
X179939199Y-75119000I249999J0D01*
G01*
X180639201Y-75119000D01*
G75*
G02*
X180889200Y-75368999I0J-249999D01*
G01*
X180889200Y-76269001D01*
G75*
G02*
X180639201Y-76519000I-249999J0D01*
G01*
X179939199Y-76519000D01*
G75*
G02*
X179689200Y-76269001I0J249999D01*
G01*
G37*
G04 #@! TD*
D16*
G04 #@! TO.C,J10*
X166166800Y-63982600D03*
D15*
X166166800Y-66522600D03*
X166166800Y-69062600D03*
X166166800Y-71602600D03*
G04 #@! TD*
D14*
G04 #@! TO.C,D2*
X185978800Y-61036200D03*
D13*
X175818800Y-61036200D03*
G04 #@! TD*
G04 #@! TO.C,C4*
G36*
G01*
X177161700Y-65422800D02*
X177161700Y-64472800D01*
G75*
G02*
X177411700Y-64222800I250000J0D01*
G01*
X178086700Y-64222800D01*
G75*
G02*
X178336700Y-64472800I0J-250000D01*
G01*
X178336700Y-65422800D01*
G75*
G02*
X178086700Y-65672800I-250000J0D01*
G01*
X177411700Y-65672800D01*
G75*
G02*
X177161700Y-65422800I0J250000D01*
G01*
G37*
G36*
G01*
X179236700Y-65422800D02*
X179236700Y-64472800D01*
G75*
G02*
X179486700Y-64222800I250000J0D01*
G01*
X180161700Y-64222800D01*
G75*
G02*
X180411700Y-64472800I0J-250000D01*
G01*
X180411700Y-65422800D01*
G75*
G02*
X180161700Y-65672800I-250000J0D01*
G01*
X179486700Y-65672800D01*
G75*
G02*
X179236700Y-65422800I0J250000D01*
G01*
G37*
G04 #@! TD*
G04 #@! TO.C,C3*
G36*
G01*
X186113400Y-67306700D02*
X187063400Y-67306700D01*
G75*
G02*
X187313400Y-67556700I0J-250000D01*
G01*
X187313400Y-68231700D01*
G75*
G02*
X187063400Y-68481700I-250000J0D01*
G01*
X186113400Y-68481700D01*
G75*
G02*
X185863400Y-68231700I0J250000D01*
G01*
X185863400Y-67556700D01*
G75*
G02*
X186113400Y-67306700I250000J0D01*
G01*
G37*
G36*
G01*
X186113400Y-69381700D02*
X187063400Y-69381700D01*
G75*
G02*
X187313400Y-69631700I0J-250000D01*
G01*
X187313400Y-70306700D01*
G75*
G02*
X187063400Y-70556700I-250000J0D01*
G01*
X186113400Y-70556700D01*
G75*
G02*
X185863400Y-70306700I0J250000D01*
G01*
X185863400Y-69631700D01*
G75*
G02*
X186113400Y-69381700I250000J0D01*
G01*
G37*
G04 #@! TD*
G04 #@! TO.C,TH6*
G36*
G01*
X128203400Y-141026301D02*
X128203400Y-140126299D01*
G75*
G02*
X128453399Y-139876300I249999J0D01*
G01*
X129153401Y-139876300D01*
G75*
G02*
X129403400Y-140126299I0J-249999D01*
G01*
X129403400Y-141026301D01*
G75*
G02*
X129153401Y-141276300I-249999J0D01*
G01*
X128453399Y-141276300D01*
G75*
G02*
X128203400Y-141026301I0J249999D01*
G01*
G37*
G36*
G01*
X126203400Y-141026301D02*
X126203400Y-140126299D01*
G75*
G02*
X126453399Y-139876300I249999J0D01*
G01*
X127153401Y-139876300D01*
G75*
G02*
X127403400Y-140126299I0J-249999D01*
G01*
X127403400Y-141026301D01*
G75*
G02*
X127153401Y-141276300I-249999J0D01*
G01*
X126453399Y-141276300D01*
G75*
G02*
X126203400Y-141026301I0J249999D01*
G01*
G37*
G04 #@! TD*
G04 #@! TO.C,TH5*
G36*
G01*
X101266700Y-141902601D02*
X101266700Y-141002599D01*
G75*
G02*
X101516699Y-140752600I249999J0D01*
G01*
X102216701Y-140752600D01*
G75*
G02*
X102466700Y-141002599I0J-249999D01*
G01*
X102466700Y-141902601D01*
G75*
G02*
X102216701Y-142152600I-249999J0D01*
G01*
X101516699Y-142152600D01*
G75*
G02*
X101266700Y-141902601I0J249999D01*
G01*
G37*
G36*
G01*
X99266700Y-141902601D02*
X99266700Y-141002599D01*
G75*
G02*
X99516699Y-140752600I249999J0D01*
G01*
X100216701Y-140752600D01*
G75*
G02*
X100466700Y-141002599I0J-249999D01*
G01*
X100466700Y-141902601D01*
G75*
G02*
X100216701Y-142152600I-249999J0D01*
G01*
X99516699Y-142152600D01*
G75*
G02*
X99266700Y-141902601I0J249999D01*
G01*
G37*
G04 #@! TD*
G04 #@! TO.C,TH4*
G36*
G01*
X142579800Y-149573401D02*
X142579800Y-148673399D01*
G75*
G02*
X142829799Y-148423400I249999J0D01*
G01*
X143529801Y-148423400D01*
G75*
G02*
X143779800Y-148673399I0J-249999D01*
G01*
X143779800Y-149573401D01*
G75*
G02*
X143529801Y-149823400I-249999J0D01*
G01*
X142829799Y-149823400D01*
G75*
G02*
X142579800Y-149573401I0J249999D01*
G01*
G37*
G36*
G01*
X140579800Y-149573401D02*
X140579800Y-148673399D01*
G75*
G02*
X140829799Y-148423400I249999J0D01*
G01*
X141529801Y-148423400D01*
G75*
G02*
X141779800Y-148673399I0J-249999D01*
G01*
X141779800Y-149573401D01*
G75*
G02*
X141529801Y-149823400I-249999J0D01*
G01*
X140829799Y-149823400D01*
G75*
G02*
X140579800Y-149573401I0J249999D01*
G01*
G37*
G04 #@! TD*
G04 #@! TO.C,TH3*
G36*
G01*
X155495700Y-149090801D02*
X155495700Y-148190799D01*
G75*
G02*
X155745699Y-147940800I249999J0D01*
G01*
X156445701Y-147940800D01*
G75*
G02*
X156695700Y-148190799I0J-249999D01*
G01*
X156695700Y-149090801D01*
G75*
G02*
X156445701Y-149340800I-249999J0D01*
G01*
X155745699Y-149340800D01*
G75*
G02*
X155495700Y-149090801I0J249999D01*
G01*
G37*
G36*
G01*
X153495700Y-149090801D02*
X153495700Y-148190799D01*
G75*
G02*
X153745699Y-147940800I249999J0D01*
G01*
X154445701Y-147940800D01*
G75*
G02*
X154695700Y-148190799I0J-249999D01*
G01*
X154695700Y-149090801D01*
G75*
G02*
X154445701Y-149340800I-249999J0D01*
G01*
X153745699Y-149340800D01*
G75*
G02*
X153495700Y-149090801I0J249999D01*
G01*
G37*
G04 #@! TD*
G04 #@! TO.C,TH2*
G36*
G01*
X168455800Y-149382901D02*
X168455800Y-148482899D01*
G75*
G02*
X168705799Y-148232900I249999J0D01*
G01*
X169405801Y-148232900D01*
G75*
G02*
X169655800Y-148482899I0J-249999D01*
G01*
X169655800Y-149382901D01*
G75*
G02*
X169405801Y-149632900I-249999J0D01*
G01*
X168705799Y-149632900D01*
G75*
G02*
X168455800Y-149382901I0J249999D01*
G01*
G37*
G36*
G01*
X166455800Y-149382901D02*
X166455800Y-148482899D01*
G75*
G02*
X166705799Y-148232900I249999J0D01*
G01*
X167405801Y-148232900D01*
G75*
G02*
X167655800Y-148482899I0J-249999D01*
G01*
X167655800Y-149382901D01*
G75*
G02*
X167405801Y-149632900I-249999J0D01*
G01*
X166705799Y-149632900D01*
G75*
G02*
X166455800Y-149382901I0J249999D01*
G01*
G37*
G04 #@! TD*
G04 #@! TO.C,TH1*
G36*
G01*
X115611100Y-141775601D02*
X115611100Y-140875599D01*
G75*
G02*
X115861099Y-140625600I249999J0D01*
G01*
X116561101Y-140625600D01*
G75*
G02*
X116811100Y-140875599I0J-249999D01*
G01*
X116811100Y-141775601D01*
G75*
G02*
X116561101Y-142025600I-249999J0D01*
G01*
X115861099Y-142025600D01*
G75*
G02*
X115611100Y-141775601I0J249999D01*
G01*
G37*
G36*
G01*
X113611100Y-141775601D02*
X113611100Y-140875599D01*
G75*
G02*
X113861099Y-140625600I249999J0D01*
G01*
X114561101Y-140625600D01*
G75*
G02*
X114811100Y-140875599I0J-249999D01*
G01*
X114811100Y-141775601D01*
G75*
G02*
X114561101Y-142025600I-249999J0D01*
G01*
X113861099Y-142025600D01*
G75*
G02*
X113611100Y-141775601I0J249999D01*
G01*
G37*
G04 #@! TD*
G04 #@! TO.C,R24*
G36*
G01*
X127606600Y-149168699D02*
X127606600Y-150068701D01*
G75*
G02*
X127356601Y-150318700I-249999J0D01*
G01*
X126656599Y-150318700D01*
G75*
G02*
X126406600Y-150068701I0J249999D01*
G01*
X126406600Y-149168699D01*
G75*
G02*
X126656599Y-148918700I249999J0D01*
G01*
X127356601Y-148918700D01*
G75*
G02*
X127606600Y-149168699I0J-249999D01*
G01*
G37*
G36*
G01*
X129606600Y-149168699D02*
X129606600Y-150068701D01*
G75*
G02*
X129356601Y-150318700I-249999J0D01*
G01*
X128656599Y-150318700D01*
G75*
G02*
X128406600Y-150068701I0J249999D01*
G01*
X128406600Y-149168699D01*
G75*
G02*
X128656599Y-148918700I249999J0D01*
G01*
X129356601Y-148918700D01*
G75*
G02*
X129606600Y-149168699I0J-249999D01*
G01*
G37*
G04 #@! TD*
G04 #@! TO.C,R23*
G36*
G01*
X101685900Y-149181399D02*
X101685900Y-150081401D01*
G75*
G02*
X101435901Y-150331400I-249999J0D01*
G01*
X100735899Y-150331400D01*
G75*
G02*
X100485900Y-150081401I0J249999D01*
G01*
X100485900Y-149181399D01*
G75*
G02*
X100735899Y-148931400I249999J0D01*
G01*
X101435901Y-148931400D01*
G75*
G02*
X101685900Y-149181399I0J-249999D01*
G01*
G37*
G36*
G01*
X103685900Y-149181399D02*
X103685900Y-150081401D01*
G75*
G02*
X103435901Y-150331400I-249999J0D01*
G01*
X102735899Y-150331400D01*
G75*
G02*
X102485900Y-150081401I0J249999D01*
G01*
X102485900Y-149181399D01*
G75*
G02*
X102735899Y-148931400I249999J0D01*
G01*
X103435901Y-148931400D01*
G75*
G02*
X103685900Y-149181399I0J-249999D01*
G01*
G37*
G04 #@! TD*
G04 #@! TO.C,R22*
G36*
G01*
X132569000Y-140075499D02*
X132569000Y-140975501D01*
G75*
G02*
X132319001Y-141225500I-249999J0D01*
G01*
X131618999Y-141225500D01*
G75*
G02*
X131369000Y-140975501I0J249999D01*
G01*
X131369000Y-140075499D01*
G75*
G02*
X131618999Y-139825500I249999J0D01*
G01*
X132319001Y-139825500D01*
G75*
G02*
X132569000Y-140075499I0J-249999D01*
G01*
G37*
G36*
G01*
X134569000Y-140075499D02*
X134569000Y-140975501D01*
G75*
G02*
X134319001Y-141225500I-249999J0D01*
G01*
X133618999Y-141225500D01*
G75*
G02*
X133369000Y-140975501I0J249999D01*
G01*
X133369000Y-140075499D01*
G75*
G02*
X133618999Y-139825500I249999J0D01*
G01*
X134319001Y-139825500D01*
G75*
G02*
X134569000Y-140075499I0J-249999D01*
G01*
G37*
G04 #@! TD*
G04 #@! TO.C,R21*
G36*
G01*
X133877000Y-150119501D02*
X133877000Y-149219499D01*
G75*
G02*
X134126999Y-148969500I249999J0D01*
G01*
X134827001Y-148969500D01*
G75*
G02*
X135077000Y-149219499I0J-249999D01*
G01*
X135077000Y-150119501D01*
G75*
G02*
X134827001Y-150369500I-249999J0D01*
G01*
X134126999Y-150369500D01*
G75*
G02*
X133877000Y-150119501I0J249999D01*
G01*
G37*
G36*
G01*
X131877000Y-150119501D02*
X131877000Y-149219499D01*
G75*
G02*
X132126999Y-148969500I249999J0D01*
G01*
X132827001Y-148969500D01*
G75*
G02*
X133077000Y-149219499I0J-249999D01*
G01*
X133077000Y-150119501D01*
G75*
G02*
X132827001Y-150369500I-249999J0D01*
G01*
X132126999Y-150369500D01*
G75*
G02*
X131877000Y-150119501I0J249999D01*
G01*
G37*
G04 #@! TD*
G04 #@! TO.C,R20*
G36*
G01*
X105800700Y-140951799D02*
X105800700Y-141851801D01*
G75*
G02*
X105550701Y-142101800I-249999J0D01*
G01*
X104850699Y-142101800D01*
G75*
G02*
X104600700Y-141851801I0J249999D01*
G01*
X104600700Y-140951799D01*
G75*
G02*
X104850699Y-140701800I249999J0D01*
G01*
X105550701Y-140701800D01*
G75*
G02*
X105800700Y-140951799I0J-249999D01*
G01*
G37*
G36*
G01*
X107800700Y-140951799D02*
X107800700Y-141851801D01*
G75*
G02*
X107550701Y-142101800I-249999J0D01*
G01*
X106850699Y-142101800D01*
G75*
G02*
X106600700Y-141851801I0J249999D01*
G01*
X106600700Y-140951799D01*
G75*
G02*
X106850699Y-140701800I249999J0D01*
G01*
X107550701Y-140701800D01*
G75*
G02*
X107800700Y-140951799I0J-249999D01*
G01*
G37*
G04 #@! TD*
G04 #@! TO.C,R19*
G36*
G01*
X107057900Y-150233801D02*
X107057900Y-149333799D01*
G75*
G02*
X107307899Y-149083800I249999J0D01*
G01*
X108007901Y-149083800D01*
G75*
G02*
X108257900Y-149333799I0J-249999D01*
G01*
X108257900Y-150233801D01*
G75*
G02*
X108007901Y-150483800I-249999J0D01*
G01*
X107307899Y-150483800D01*
G75*
G02*
X107057900Y-150233801I0J249999D01*
G01*
G37*
G36*
G01*
X105057900Y-150233801D02*
X105057900Y-149333799D01*
G75*
G02*
X105307899Y-149083800I249999J0D01*
G01*
X106007901Y-149083800D01*
G75*
G02*
X106257900Y-149333799I0J-249999D01*
G01*
X106257900Y-150233801D01*
G75*
G02*
X106007901Y-150483800I-249999J0D01*
G01*
X105307899Y-150483800D01*
G75*
G02*
X105057900Y-150233801I0J249999D01*
G01*
G37*
G04 #@! TD*
G04 #@! TO.C,R18*
G36*
G01*
X141322600Y-139884999D02*
X141322600Y-140785001D01*
G75*
G02*
X141072601Y-141035000I-249999J0D01*
G01*
X140372599Y-141035000D01*
G75*
G02*
X140122600Y-140785001I0J249999D01*
G01*
X140122600Y-139884999D01*
G75*
G02*
X140372599Y-139635000I249999J0D01*
G01*
X141072601Y-139635000D01*
G75*
G02*
X141322600Y-139884999I0J-249999D01*
G01*
G37*
G36*
G01*
X143322600Y-139884999D02*
X143322600Y-140785001D01*
G75*
G02*
X143072601Y-141035000I-249999J0D01*
G01*
X142372599Y-141035000D01*
G75*
G02*
X142122600Y-140785001I0J249999D01*
G01*
X142122600Y-139884999D01*
G75*
G02*
X142372599Y-139635000I249999J0D01*
G01*
X143072601Y-139635000D01*
G75*
G02*
X143322600Y-139884999I0J-249999D01*
G01*
G37*
G04 #@! TD*
G04 #@! TO.C,R17*
G36*
G01*
X154816100Y-139910399D02*
X154816100Y-140810401D01*
G75*
G02*
X154566101Y-141060400I-249999J0D01*
G01*
X153866099Y-141060400D01*
G75*
G02*
X153616100Y-140810401I0J249999D01*
G01*
X153616100Y-139910399D01*
G75*
G02*
X153866099Y-139660400I249999J0D01*
G01*
X154566101Y-139660400D01*
G75*
G02*
X154816100Y-139910399I0J-249999D01*
G01*
G37*
G36*
G01*
X156816100Y-139910399D02*
X156816100Y-140810401D01*
G75*
G02*
X156566101Y-141060400I-249999J0D01*
G01*
X155866099Y-141060400D01*
G75*
G02*
X155616100Y-140810401I0J249999D01*
G01*
X155616100Y-139910399D01*
G75*
G02*
X155866099Y-139660400I249999J0D01*
G01*
X156566101Y-139660400D01*
G75*
G02*
X156816100Y-139910399I0J-249999D01*
G01*
G37*
G04 #@! TD*
G04 #@! TO.C,R16*
G36*
G01*
X147012200Y-148317799D02*
X147012200Y-149217801D01*
G75*
G02*
X146762201Y-149467800I-249999J0D01*
G01*
X146062199Y-149467800D01*
G75*
G02*
X145812200Y-149217801I0J249999D01*
G01*
X145812200Y-148317799D01*
G75*
G02*
X146062199Y-148067800I249999J0D01*
G01*
X146762201Y-148067800D01*
G75*
G02*
X147012200Y-148317799I0J-249999D01*
G01*
G37*
G36*
G01*
X149012200Y-148317799D02*
X149012200Y-149217801D01*
G75*
G02*
X148762201Y-149467800I-249999J0D01*
G01*
X148062199Y-149467800D01*
G75*
G02*
X147812200Y-149217801I0J249999D01*
G01*
X147812200Y-148317799D01*
G75*
G02*
X148062199Y-148067800I249999J0D01*
G01*
X148762201Y-148067800D01*
G75*
G02*
X149012200Y-148317799I0J-249999D01*
G01*
G37*
G04 #@! TD*
G04 #@! TO.C,R15*
G36*
G01*
X147558200Y-141039001D02*
X147558200Y-140138999D01*
G75*
G02*
X147808199Y-139889000I249999J0D01*
G01*
X148508201Y-139889000D01*
G75*
G02*
X148758200Y-140138999I0J-249999D01*
G01*
X148758200Y-141039001D01*
G75*
G02*
X148508201Y-141289000I-249999J0D01*
G01*
X147808199Y-141289000D01*
G75*
G02*
X147558200Y-141039001I0J249999D01*
G01*
G37*
G36*
G01*
X145558200Y-141039001D02*
X145558200Y-140138999D01*
G75*
G02*
X145808199Y-139889000I249999J0D01*
G01*
X146508201Y-139889000D01*
G75*
G02*
X146758200Y-140138999I0J-249999D01*
G01*
X146758200Y-141039001D01*
G75*
G02*
X146508201Y-141289000I-249999J0D01*
G01*
X145808199Y-141289000D01*
G75*
G02*
X145558200Y-141039001I0J249999D01*
G01*
G37*
G04 #@! TD*
G04 #@! TO.C,R14*
G36*
G01*
X159794500Y-148190799D02*
X159794500Y-149090801D01*
G75*
G02*
X159544501Y-149340800I-249999J0D01*
G01*
X158844499Y-149340800D01*
G75*
G02*
X158594500Y-149090801I0J249999D01*
G01*
X158594500Y-148190799D01*
G75*
G02*
X158844499Y-147940800I249999J0D01*
G01*
X159544501Y-147940800D01*
G75*
G02*
X159794500Y-148190799I0J-249999D01*
G01*
G37*
G36*
G01*
X161794500Y-148190799D02*
X161794500Y-149090801D01*
G75*
G02*
X161544501Y-149340800I-249999J0D01*
G01*
X160844499Y-149340800D01*
G75*
G02*
X160594500Y-149090801I0J249999D01*
G01*
X160594500Y-148190799D01*
G75*
G02*
X160844499Y-147940800I249999J0D01*
G01*
X161544501Y-147940800D01*
G75*
G02*
X161794500Y-148190799I0J-249999D01*
G01*
G37*
G04 #@! TD*
G04 #@! TO.C,R13*
G36*
G01*
X159984900Y-140962801D02*
X159984900Y-140062799D01*
G75*
G02*
X160234899Y-139812800I249999J0D01*
G01*
X160934901Y-139812800D01*
G75*
G02*
X161184900Y-140062799I0J-249999D01*
G01*
X161184900Y-140962801D01*
G75*
G02*
X160934901Y-141212800I-249999J0D01*
G01*
X160234899Y-141212800D01*
G75*
G02*
X159984900Y-140962801I0J249999D01*
G01*
G37*
G36*
G01*
X157984900Y-140962801D02*
X157984900Y-140062799D01*
G75*
G02*
X158234899Y-139812800I249999J0D01*
G01*
X158934901Y-139812800D01*
G75*
G02*
X159184900Y-140062799I0J-249999D01*
G01*
X159184900Y-140962801D01*
G75*
G02*
X158934901Y-141212800I-249999J0D01*
G01*
X158234899Y-141212800D01*
G75*
G02*
X157984900Y-140962801I0J249999D01*
G01*
G37*
G04 #@! TD*
G04 #@! TO.C,R12*
G36*
G01*
X167859000Y-140151699D02*
X167859000Y-141051701D01*
G75*
G02*
X167609001Y-141301700I-249999J0D01*
G01*
X166908999Y-141301700D01*
G75*
G02*
X166659000Y-141051701I0J249999D01*
G01*
X166659000Y-140151699D01*
G75*
G02*
X166908999Y-139901700I249999J0D01*
G01*
X167609001Y-139901700D01*
G75*
G02*
X167859000Y-140151699I0J-249999D01*
G01*
G37*
G36*
G01*
X169859000Y-140151699D02*
X169859000Y-141051701D01*
G75*
G02*
X169609001Y-141301700I-249999J0D01*
G01*
X168908999Y-141301700D01*
G75*
G02*
X168659000Y-141051701I0J249999D01*
G01*
X168659000Y-140151699D01*
G75*
G02*
X168908999Y-139901700I249999J0D01*
G01*
X169609001Y-139901700D01*
G75*
G02*
X169859000Y-140151699I0J-249999D01*
G01*
G37*
G04 #@! TD*
G04 #@! TO.C,R11*
G36*
G01*
X115471500Y-148698799D02*
X115471500Y-149598801D01*
G75*
G02*
X115221501Y-149848800I-249999J0D01*
G01*
X114521499Y-149848800D01*
G75*
G02*
X114271500Y-149598801I0J249999D01*
G01*
X114271500Y-148698799D01*
G75*
G02*
X114521499Y-148448800I249999J0D01*
G01*
X115221501Y-148448800D01*
G75*
G02*
X115471500Y-148698799I0J-249999D01*
G01*
G37*
G36*
G01*
X117471500Y-148698799D02*
X117471500Y-149598801D01*
G75*
G02*
X117221501Y-149848800I-249999J0D01*
G01*
X116521499Y-149848800D01*
G75*
G02*
X116271500Y-149598801I0J249999D01*
G01*
X116271500Y-148698799D01*
G75*
G02*
X116521499Y-148448800I249999J0D01*
G01*
X117221501Y-148448800D01*
G75*
G02*
X117471500Y-148698799I0J-249999D01*
G01*
G37*
G04 #@! TD*
G04 #@! TO.C,R10*
G36*
G01*
X172888200Y-148330499D02*
X172888200Y-149230501D01*
G75*
G02*
X172638201Y-149480500I-249999J0D01*
G01*
X171938199Y-149480500D01*
G75*
G02*
X171688200Y-149230501I0J249999D01*
G01*
X171688200Y-148330499D01*
G75*
G02*
X171938199Y-148080500I249999J0D01*
G01*
X172638201Y-148080500D01*
G75*
G02*
X172888200Y-148330499I0J-249999D01*
G01*
G37*
G36*
G01*
X174888200Y-148330499D02*
X174888200Y-149230501D01*
G75*
G02*
X174638201Y-149480500I-249999J0D01*
G01*
X173938199Y-149480500D01*
G75*
G02*
X173688200Y-149230501I0J249999D01*
G01*
X173688200Y-148330499D01*
G75*
G02*
X173938199Y-148080500I249999J0D01*
G01*
X174638201Y-148080500D01*
G75*
G02*
X174888200Y-148330499I0J-249999D01*
G01*
G37*
G04 #@! TD*
G04 #@! TO.C,R9*
G36*
G01*
X173415400Y-141204101D02*
X173415400Y-140304099D01*
G75*
G02*
X173665399Y-140054100I249999J0D01*
G01*
X174365401Y-140054100D01*
G75*
G02*
X174615400Y-140304099I0J-249999D01*
G01*
X174615400Y-141204101D01*
G75*
G02*
X174365401Y-141454100I-249999J0D01*
G01*
X173665399Y-141454100D01*
G75*
G02*
X173415400Y-141204101I0J249999D01*
G01*
G37*
G36*
G01*
X171415400Y-141204101D02*
X171415400Y-140304099D01*
G75*
G02*
X171665399Y-140054100I249999J0D01*
G01*
X172365401Y-140054100D01*
G75*
G02*
X172615400Y-140304099I0J-249999D01*
G01*
X172615400Y-141204101D01*
G75*
G02*
X172365401Y-141454100I-249999J0D01*
G01*
X171665399Y-141454100D01*
G75*
G02*
X171415400Y-141204101I0J249999D01*
G01*
G37*
G04 #@! TD*
G04 #@! TO.C,R8*
G36*
G01*
X120177100Y-140621599D02*
X120177100Y-141521601D01*
G75*
G02*
X119927101Y-141771600I-249999J0D01*
G01*
X119227099Y-141771600D01*
G75*
G02*
X118977100Y-141521601I0J249999D01*
G01*
X118977100Y-140621599D01*
G75*
G02*
X119227099Y-140371600I249999J0D01*
G01*
X119927101Y-140371600D01*
G75*
G02*
X120177100Y-140621599I0J-249999D01*
G01*
G37*
G36*
G01*
X122177100Y-140621599D02*
X122177100Y-141521601D01*
G75*
G02*
X121927101Y-141771600I-249999J0D01*
G01*
X121227099Y-141771600D01*
G75*
G02*
X120977100Y-141521601I0J249999D01*
G01*
X120977100Y-140621599D01*
G75*
G02*
X121227099Y-140371600I249999J0D01*
G01*
X121927101Y-140371600D01*
G75*
G02*
X122177100Y-140621599I0J-249999D01*
G01*
G37*
G04 #@! TD*
G04 #@! TO.C,R7*
G36*
G01*
X120875500Y-149954401D02*
X120875500Y-149054399D01*
G75*
G02*
X121125499Y-148804400I249999J0D01*
G01*
X121825501Y-148804400D01*
G75*
G02*
X122075500Y-149054399I0J-249999D01*
G01*
X122075500Y-149954401D01*
G75*
G02*
X121825501Y-150204400I-249999J0D01*
G01*
X121125499Y-150204400D01*
G75*
G02*
X120875500Y-149954401I0J249999D01*
G01*
G37*
G36*
G01*
X118875500Y-149954401D02*
X118875500Y-149054399D01*
G75*
G02*
X119125499Y-148804400I249999J0D01*
G01*
X119825501Y-148804400D01*
G75*
G02*
X120075500Y-149054399I0J-249999D01*
G01*
X120075500Y-149954401D01*
G75*
G02*
X119825501Y-150204400I-249999J0D01*
G01*
X119125499Y-150204400D01*
G75*
G02*
X118875500Y-149954401I0J249999D01*
G01*
G37*
G04 #@! TD*
G04 #@! TO.C,R4*
G36*
G01*
X99598500Y-62627000D02*
X98648500Y-62627000D01*
G75*
G02*
X98398500Y-62377000I0J250000D01*
G01*
X98398500Y-61702000D01*
G75*
G02*
X98648500Y-61452000I250000J0D01*
G01*
X99598500Y-61452000D01*
G75*
G02*
X99848500Y-61702000I0J-250000D01*
G01*
X99848500Y-62377000D01*
G75*
G02*
X99598500Y-62627000I-250000J0D01*
G01*
G37*
G36*
G01*
X99598500Y-64702000D02*
X98648500Y-64702000D01*
G75*
G02*
X98398500Y-64452000I0J250000D01*
G01*
X98398500Y-63777000D01*
G75*
G02*
X98648500Y-63527000I250000J0D01*
G01*
X99598500Y-63527000D01*
G75*
G02*
X99848500Y-63777000I0J-250000D01*
G01*
X99848500Y-64452000D01*
G75*
G02*
X99598500Y-64702000I-250000J0D01*
G01*
G37*
G04 #@! TD*
G04 #@! TO.C,R3*
G36*
G01*
X103408500Y-65167000D02*
X102458500Y-65167000D01*
G75*
G02*
X102208500Y-64917000I0J250000D01*
G01*
X102208500Y-64242000D01*
G75*
G02*
X102458500Y-63992000I250000J0D01*
G01*
X103408500Y-63992000D01*
G75*
G02*
X103658500Y-64242000I0J-250000D01*
G01*
X103658500Y-64917000D01*
G75*
G02*
X103408500Y-65167000I-250000J0D01*
G01*
G37*
G36*
G01*
X103408500Y-67242000D02*
X102458500Y-67242000D01*
G75*
G02*
X102208500Y-66992000I0J250000D01*
G01*
X102208500Y-66317000D01*
G75*
G02*
X102458500Y-66067000I250000J0D01*
G01*
X103408500Y-66067000D01*
G75*
G02*
X103658500Y-66317000I0J-250000D01*
G01*
X103658500Y-66992000D01*
G75*
G02*
X103408500Y-67242000I-250000J0D01*
G01*
G37*
G04 #@! TD*
D15*
G04 #@! TO.C,J9*
X134645400Y-145351500D03*
X132105400Y-145351500D03*
X129565400Y-145351500D03*
D16*
X127025400Y-145351500D03*
G04 #@! TD*
D15*
G04 #@! TO.C,J8*
X107911900Y-145567400D03*
X105371900Y-145567400D03*
X102831900Y-145567400D03*
D16*
X100291900Y-145567400D03*
G04 #@! TD*
D15*
G04 #@! TO.C,J7*
X148107400Y-144703800D03*
X145567400Y-144703800D03*
X143027400Y-144703800D03*
D16*
X140487400Y-144703800D03*
G04 #@! TD*
D15*
G04 #@! TO.C,J6*
X161582100Y-144678400D03*
X159042100Y-144678400D03*
X156502100Y-144678400D03*
D16*
X153962100Y-144678400D03*
G04 #@! TD*
D15*
G04 #@! TO.C,J5*
X174574200Y-144767300D03*
X172034200Y-144767300D03*
X169494200Y-144767300D03*
D16*
X166954200Y-144767300D03*
G04 #@! TD*
D15*
G04 #@! TO.C,J4*
X121627900Y-145338800D03*
X119087900Y-145338800D03*
X116547900Y-145338800D03*
D16*
X114007900Y-145338800D03*
G04 #@! TD*
D15*
G04 #@! TO.C,J3*
X106743500Y-68389500D03*
X106743500Y-65849500D03*
X106743500Y-63309500D03*
D16*
X106743500Y-60769500D03*
G04 #@! TD*
D20*
G04 #@! TO.C,J2*
X91513500Y-59729500D03*
X95313500Y-59729500D03*
X91563500Y-68379500D03*
X95363500Y-68379500D03*
D17*
X95313500Y-66829500D03*
D18*
X95313500Y-65599500D03*
D19*
X95313500Y-64579500D03*
X95313500Y-63579500D03*
D18*
X95313500Y-62559500D03*
D17*
X95313500Y-61329500D03*
G04 #@! TD*
M02*
