M48
; DRILL file {KiCad (5.1.10)-1} date 03/06/22 22:53:45
; FORMAT={-:-/ absolute / inch / decimal}
; #@! TF.CreationDate,2022-03-06T22:53:45-08:00
; #@! TF.GenerationSoftware,Kicad,Pcbnew,(5.1.10)-1
; #@! TF.FileFunction,Plated,1,2,PTH
FMAT,2
INCH
T1C0.0157
T2C0.0394
T3C0.1969
%
G90
G05
T1
X5.782Y-4.048
X5.88Y-3.932
X5.98Y-3.984
T2
X4.6Y-3.832
X4.6Y-3.932
X4.6Y-4.032
X4.6Y-4.132
X4.6Y-4.232
X4.6Y-4.332
X4.6Y-4.432
X5.562Y-5.642
X5.562Y-5.742
X5.562Y-5.842
T3
X3.495Y-4.276
X3.499Y-3.412
X3.499Y-3.84
X3.501Y-5.592
X3.503Y-5.144
X3.505Y-6.018
X3.507Y-4.712
X3.81Y-4.276
X3.814Y-3.412
X3.814Y-3.84
X3.816Y-5.592
X3.818Y-5.144
X3.82Y-6.018
X3.822Y-4.712
X5.936Y-6.048
X5.942Y-5.126
X5.942Y-5.582
X6.251Y-6.048
X6.257Y-5.126
X6.257Y-5.582
T0
M30
