%TF.GenerationSoftware,KiCad,Pcbnew,(5.1.10)-1*%
%TF.CreationDate,2022-03-06T22:53:43-08:00*%
%TF.ProjectId,bb2,6262322e-6b69-4636-9164-5f7063625858,rev?*%
%TF.SameCoordinates,Original*%
%TF.FileFunction,Soldermask,Top*%
%TF.FilePolarity,Negative*%
%FSLAX46Y46*%
G04 Gerber Fmt 4.6, Leading zero omitted, Abs format (unit mm)*
G04 Created by KiCad (PCBNEW (5.1.10)-1) date 2022-03-06 22:53:43*
%MOMM*%
%LPD*%
G01*
G04 APERTURE LIST*
%ADD10C,0.100000*%
%ADD11R,8.000000X10.000000*%
%ADD12O,1.700000X1.700000*%
%ADD13R,1.700000X1.700000*%
%ADD14R,0.700000X1.250000*%
%ADD15R,1.300000X1.700000*%
%ADD16R,1.000000X1.600000*%
%ADD17R,0.650000X0.350000*%
%ADD18R,3.100000X7.700000*%
G04 APERTURE END LIST*
D10*
%TO.C,U2*%
G36*
X150114000Y-102387400D02*
G01*
X148336000Y-102387400D01*
X148336000Y-98196400D01*
X150114000Y-98196400D01*
X150114000Y-102387400D01*
G37*
X150114000Y-102387400D02*
X148336000Y-102387400D01*
X148336000Y-98196400D01*
X150114000Y-98196400D01*
X150114000Y-102387400D01*
G36*
X152654000Y-102387400D02*
G01*
X150876000Y-102387400D01*
X150876000Y-98196400D01*
X152654000Y-98196400D01*
X152654000Y-102387400D01*
G37*
X152654000Y-102387400D02*
X150876000Y-102387400D01*
X150876000Y-98196400D01*
X152654000Y-98196400D01*
X152654000Y-102387400D01*
%TD*%
%TO.C,R2*%
G36*
G01*
X132987201Y-146275600D02*
X132087199Y-146275600D01*
G75*
G02*
X131837200Y-146025601I0J249999D01*
G01*
X131837200Y-145325599D01*
G75*
G02*
X132087199Y-145075600I249999J0D01*
G01*
X132987201Y-145075600D01*
G75*
G02*
X133237200Y-145325599I0J-249999D01*
G01*
X133237200Y-146025601D01*
G75*
G02*
X132987201Y-146275600I-249999J0D01*
G01*
G37*
G36*
G01*
X132987201Y-148275600D02*
X132087199Y-148275600D01*
G75*
G02*
X131837200Y-148025601I0J249999D01*
G01*
X131837200Y-147325599D01*
G75*
G02*
X132087199Y-147075600I249999J0D01*
G01*
X132987201Y-147075600D01*
G75*
G02*
X133237200Y-147325599I0J-249999D01*
G01*
X133237200Y-148025601D01*
G75*
G02*
X132987201Y-148275600I-249999J0D01*
G01*
G37*
%TD*%
D11*
%TO.C,J12*%
X89028000Y-152857200D03*
X97028000Y-152857200D03*
%TD*%
%TO.C,J11*%
X96926400Y-142036800D03*
X88926400Y-142036800D03*
%TD*%
%TO.C,J10*%
X88977200Y-130657600D03*
X96977200Y-130657600D03*
%TD*%
%TO.C,J9*%
X89078800Y-119684800D03*
X97078800Y-119684800D03*
%TD*%
%TO.C,J8*%
X88774000Y-108610400D03*
X96774000Y-108610400D03*
%TD*%
%TO.C,J7*%
X88875600Y-97536000D03*
X96875600Y-97536000D03*
%TD*%
%TO.C,J6*%
X88875600Y-86664800D03*
X96875600Y-86664800D03*
%TD*%
%TO.C,J5*%
X158926800Y-130200400D03*
X150926800Y-130200400D03*
%TD*%
%TO.C,J4*%
X158926800Y-141782800D03*
X150926800Y-141782800D03*
%TD*%
%TO.C,J3*%
X158774400Y-153619200D03*
X150774400Y-153619200D03*
%TD*%
D12*
%TO.C,J2*%
X116840000Y-112572800D03*
X116840000Y-110032800D03*
X116840000Y-107492800D03*
X116840000Y-104952800D03*
X116840000Y-102412800D03*
X116840000Y-99872800D03*
D13*
X116840000Y-97332800D03*
%TD*%
%TO.C,U3*%
G36*
G01*
X140701100Y-107296600D02*
X140426100Y-107296600D01*
G75*
G02*
X140288600Y-107159100I0J137500D01*
G01*
X140288600Y-105984100D01*
G75*
G02*
X140426100Y-105846600I137500J0D01*
G01*
X140701100Y-105846600D01*
G75*
G02*
X140838600Y-105984100I0J-137500D01*
G01*
X140838600Y-107159100D01*
G75*
G02*
X140701100Y-107296600I-137500J0D01*
G01*
G37*
G36*
G01*
X143241100Y-107296600D02*
X142966100Y-107296600D01*
G75*
G02*
X142828600Y-107159100I0J137500D01*
G01*
X142828600Y-105984100D01*
G75*
G02*
X142966100Y-105846600I137500J0D01*
G01*
X143241100Y-105846600D01*
G75*
G02*
X143378600Y-105984100I0J-137500D01*
G01*
X143378600Y-107159100D01*
G75*
G02*
X143241100Y-107296600I-137500J0D01*
G01*
G37*
G36*
G01*
X143241100Y-112796600D02*
X142966100Y-112796600D01*
G75*
G02*
X142828600Y-112659100I0J137500D01*
G01*
X142828600Y-111484100D01*
G75*
G02*
X142966100Y-111346600I137500J0D01*
G01*
X143241100Y-111346600D01*
G75*
G02*
X143378600Y-111484100I0J-137500D01*
G01*
X143378600Y-112659100D01*
G75*
G02*
X143241100Y-112796600I-137500J0D01*
G01*
G37*
G36*
G01*
X140701100Y-112796600D02*
X140426100Y-112796600D01*
G75*
G02*
X140288600Y-112659100I0J137500D01*
G01*
X140288600Y-111484100D01*
G75*
G02*
X140426100Y-111346600I137500J0D01*
G01*
X140701100Y-111346600D01*
G75*
G02*
X140838600Y-111484100I0J-137500D01*
G01*
X140838600Y-112659100D01*
G75*
G02*
X140701100Y-112796600I-137500J0D01*
G01*
G37*
%TD*%
%TO.C,R4*%
G36*
G01*
X130851200Y-111309999D02*
X130851200Y-112210001D01*
G75*
G02*
X130601201Y-112460000I-249999J0D01*
G01*
X129901199Y-112460000D01*
G75*
G02*
X129651200Y-112210001I0J249999D01*
G01*
X129651200Y-111309999D01*
G75*
G02*
X129901199Y-111060000I249999J0D01*
G01*
X130601201Y-111060000D01*
G75*
G02*
X130851200Y-111309999I0J-249999D01*
G01*
G37*
G36*
G01*
X132851200Y-111309999D02*
X132851200Y-112210001D01*
G75*
G02*
X132601201Y-112460000I-249999J0D01*
G01*
X131901199Y-112460000D01*
G75*
G02*
X131651200Y-112210001I0J249999D01*
G01*
X131651200Y-111309999D01*
G75*
G02*
X131901199Y-111060000I249999J0D01*
G01*
X132601201Y-111060000D01*
G75*
G02*
X132851200Y-111309999I0J-249999D01*
G01*
G37*
%TD*%
D14*
%TO.C,U2*%
X148590000Y-97561400D03*
X149860000Y-97561400D03*
X151130000Y-97561400D03*
X152400000Y-97561400D03*
X152400000Y-103403400D03*
X151130000Y-103403400D03*
X149860000Y-103403400D03*
X148590000Y-103403400D03*
%TD*%
D15*
%TO.C,D2*%
X133705600Y-99923600D03*
X137205600Y-99923600D03*
%TD*%
%TO.C,D1*%
X122326400Y-99822000D03*
X125826400Y-99822000D03*
%TD*%
%TO.C,C7*%
G36*
G01*
X140342600Y-101512700D02*
X141292600Y-101512700D01*
G75*
G02*
X141542600Y-101762700I0J-250000D01*
G01*
X141542600Y-102437700D01*
G75*
G02*
X141292600Y-102687700I-250000J0D01*
G01*
X140342600Y-102687700D01*
G75*
G02*
X140092600Y-102437700I0J250000D01*
G01*
X140092600Y-101762700D01*
G75*
G02*
X140342600Y-101512700I250000J0D01*
G01*
G37*
G36*
G01*
X140342600Y-99437700D02*
X141292600Y-99437700D01*
G75*
G02*
X141542600Y-99687700I0J-250000D01*
G01*
X141542600Y-100362700D01*
G75*
G02*
X141292600Y-100612700I-250000J0D01*
G01*
X140342600Y-100612700D01*
G75*
G02*
X140092600Y-100362700I0J250000D01*
G01*
X140092600Y-99687700D01*
G75*
G02*
X140342600Y-99437700I250000J0D01*
G01*
G37*
%TD*%
%TO.C,C6*%
G36*
G01*
X129471400Y-101418900D02*
X130421400Y-101418900D01*
G75*
G02*
X130671400Y-101668900I0J-250000D01*
G01*
X130671400Y-102343900D01*
G75*
G02*
X130421400Y-102593900I-250000J0D01*
G01*
X129471400Y-102593900D01*
G75*
G02*
X129221400Y-102343900I0J250000D01*
G01*
X129221400Y-101668900D01*
G75*
G02*
X129471400Y-101418900I250000J0D01*
G01*
G37*
G36*
G01*
X129471400Y-99343900D02*
X130421400Y-99343900D01*
G75*
G02*
X130671400Y-99593900I0J-250000D01*
G01*
X130671400Y-100268900D01*
G75*
G02*
X130421400Y-100518900I-250000J0D01*
G01*
X129471400Y-100518900D01*
G75*
G02*
X129221400Y-100268900I0J250000D01*
G01*
X129221400Y-99593900D01*
G75*
G02*
X129471400Y-99343900I250000J0D01*
G01*
G37*
%TD*%
D16*
%TO.C,U1*%
X133858000Y-141884400D03*
D17*
X132808000Y-142534400D03*
X132808000Y-141884400D03*
X132808000Y-141234400D03*
X134908000Y-141234400D03*
X134908000Y-141884400D03*
X134908000Y-142534400D03*
%TD*%
%TO.C,R3*%
G36*
G01*
X129918000Y-143186999D02*
X129918000Y-144087001D01*
G75*
G02*
X129668001Y-144337000I-249999J0D01*
G01*
X128967999Y-144337000D01*
G75*
G02*
X128718000Y-144087001I0J249999D01*
G01*
X128718000Y-143186999D01*
G75*
G02*
X128967999Y-142937000I249999J0D01*
G01*
X129668001Y-142937000D01*
G75*
G02*
X129918000Y-143186999I0J-249999D01*
G01*
G37*
G36*
G01*
X131918000Y-143186999D02*
X131918000Y-144087001D01*
G75*
G02*
X131668001Y-144337000I-249999J0D01*
G01*
X130967999Y-144337000D01*
G75*
G02*
X130718000Y-144087001I0J249999D01*
G01*
X130718000Y-143186999D01*
G75*
G02*
X130967999Y-142937000I249999J0D01*
G01*
X131668001Y-142937000D01*
G75*
G02*
X131918000Y-143186999I0J-249999D01*
G01*
G37*
%TD*%
%TO.C,R1*%
G36*
G01*
X137116399Y-140573200D02*
X138016401Y-140573200D01*
G75*
G02*
X138266400Y-140823199I0J-249999D01*
G01*
X138266400Y-141523201D01*
G75*
G02*
X138016401Y-141773200I-249999J0D01*
G01*
X137116399Y-141773200D01*
G75*
G02*
X136866400Y-141523201I0J249999D01*
G01*
X136866400Y-140823199D01*
G75*
G02*
X137116399Y-140573200I249999J0D01*
G01*
G37*
G36*
G01*
X137116399Y-138573200D02*
X138016401Y-138573200D01*
G75*
G02*
X138266400Y-138823199I0J-249999D01*
G01*
X138266400Y-139523201D01*
G75*
G02*
X138016401Y-139773200I-249999J0D01*
G01*
X137116399Y-139773200D01*
G75*
G02*
X136866400Y-139523201I0J249999D01*
G01*
X136866400Y-138823199D01*
G75*
G02*
X137116399Y-138573200I249999J0D01*
G01*
G37*
%TD*%
D18*
%TO.C,L1*%
X119846000Y-136956800D03*
X126746000Y-136956800D03*
%TD*%
D12*
%TO.C,J1*%
X141274800Y-148386800D03*
X141274800Y-145846800D03*
D13*
X141274800Y-143306800D03*
%TD*%
%TO.C,C5*%
G36*
G01*
X118788200Y-144410100D02*
X117838200Y-144410100D01*
G75*
G02*
X117588200Y-144160100I0J250000D01*
G01*
X117588200Y-143485100D01*
G75*
G02*
X117838200Y-143235100I250000J0D01*
G01*
X118788200Y-143235100D01*
G75*
G02*
X119038200Y-143485100I0J-250000D01*
G01*
X119038200Y-144160100D01*
G75*
G02*
X118788200Y-144410100I-250000J0D01*
G01*
G37*
G36*
G01*
X118788200Y-146485100D02*
X117838200Y-146485100D01*
G75*
G02*
X117588200Y-146235100I0J250000D01*
G01*
X117588200Y-145560100D01*
G75*
G02*
X117838200Y-145310100I250000J0D01*
G01*
X118788200Y-145310100D01*
G75*
G02*
X119038200Y-145560100I0J-250000D01*
G01*
X119038200Y-146235100D01*
G75*
G02*
X118788200Y-146485100I-250000J0D01*
G01*
G37*
%TD*%
%TO.C,C4*%
G36*
G01*
X122953800Y-144511700D02*
X122003800Y-144511700D01*
G75*
G02*
X121753800Y-144261700I0J250000D01*
G01*
X121753800Y-143586700D01*
G75*
G02*
X122003800Y-143336700I250000J0D01*
G01*
X122953800Y-143336700D01*
G75*
G02*
X123203800Y-143586700I0J-250000D01*
G01*
X123203800Y-144261700D01*
G75*
G02*
X122953800Y-144511700I-250000J0D01*
G01*
G37*
G36*
G01*
X122953800Y-146586700D02*
X122003800Y-146586700D01*
G75*
G02*
X121753800Y-146336700I0J250000D01*
G01*
X121753800Y-145661700D01*
G75*
G02*
X122003800Y-145411700I250000J0D01*
G01*
X122953800Y-145411700D01*
G75*
G02*
X123203800Y-145661700I0J-250000D01*
G01*
X123203800Y-146336700D01*
G75*
G02*
X122953800Y-146586700I-250000J0D01*
G01*
G37*
%TD*%
%TO.C,C3*%
G36*
G01*
X121953000Y-149518700D02*
X122903000Y-149518700D01*
G75*
G02*
X123153000Y-149768700I0J-250000D01*
G01*
X123153000Y-150443700D01*
G75*
G02*
X122903000Y-150693700I-250000J0D01*
G01*
X121953000Y-150693700D01*
G75*
G02*
X121703000Y-150443700I0J250000D01*
G01*
X121703000Y-149768700D01*
G75*
G02*
X121953000Y-149518700I250000J0D01*
G01*
G37*
G36*
G01*
X121953000Y-147443700D02*
X122903000Y-147443700D01*
G75*
G02*
X123153000Y-147693700I0J-250000D01*
G01*
X123153000Y-148368700D01*
G75*
G02*
X122903000Y-148618700I-250000J0D01*
G01*
X121953000Y-148618700D01*
G75*
G02*
X121703000Y-148368700I0J250000D01*
G01*
X121703000Y-147693700D01*
G75*
G02*
X121953000Y-147443700I250000J0D01*
G01*
G37*
%TD*%
%TO.C,C2*%
G36*
G01*
X116349599Y-150341300D02*
X118549601Y-150341300D01*
G75*
G02*
X118799600Y-150591299I0J-249999D01*
G01*
X118799600Y-151416301D01*
G75*
G02*
X118549601Y-151666300I-249999J0D01*
G01*
X116349599Y-151666300D01*
G75*
G02*
X116099600Y-151416301I0J249999D01*
G01*
X116099600Y-150591299D01*
G75*
G02*
X116349599Y-150341300I249999J0D01*
G01*
G37*
G36*
G01*
X116349599Y-147216300D02*
X118549601Y-147216300D01*
G75*
G02*
X118799600Y-147466299I0J-249999D01*
G01*
X118799600Y-148291301D01*
G75*
G02*
X118549601Y-148541300I-249999J0D01*
G01*
X116349599Y-148541300D01*
G75*
G02*
X116099600Y-148291301I0J249999D01*
G01*
X116099600Y-147466299D01*
G75*
G02*
X116349599Y-147216300I249999J0D01*
G01*
G37*
%TD*%
%TO.C,C1*%
G36*
G01*
X127576600Y-146188100D02*
X126626600Y-146188100D01*
G75*
G02*
X126376600Y-145938100I0J250000D01*
G01*
X126376600Y-145263100D01*
G75*
G02*
X126626600Y-145013100I250000J0D01*
G01*
X127576600Y-145013100D01*
G75*
G02*
X127826600Y-145263100I0J-250000D01*
G01*
X127826600Y-145938100D01*
G75*
G02*
X127576600Y-146188100I-250000J0D01*
G01*
G37*
G36*
G01*
X127576600Y-148263100D02*
X126626600Y-148263100D01*
G75*
G02*
X126376600Y-148013100I0J250000D01*
G01*
X126376600Y-147338100D01*
G75*
G02*
X126626600Y-147088100I250000J0D01*
G01*
X127576600Y-147088100D01*
G75*
G02*
X127826600Y-147338100I0J-250000D01*
G01*
X127826600Y-148013100D01*
G75*
G02*
X127576600Y-148263100I-250000J0D01*
G01*
G37*
%TD*%
M02*
