%TF.GenerationSoftware,KiCad,Pcbnew,(6.0.2)*%
%TF.CreationDate,2022-03-20T03:32:58-07:00*%
%TF.ProjectId,ChargerPOC,43686172-6765-4725-904f-432e6b696361,rev?*%
%TF.SameCoordinates,Original*%
%TF.FileFunction,Copper,L1,Top*%
%TF.FilePolarity,Positive*%
%FSLAX46Y46*%
G04 Gerber Fmt 4.6, Leading zero omitted, Abs format (unit mm)*
G04 Created by KiCad (PCBNEW (6.0.2)) date 2022-03-20 03:32:58*
%MOMM*%
%LPD*%
G01*
G04 APERTURE LIST*
G04 Aperture macros list*
%AMRoundRect*
0 Rectangle with rounded corners*
0 $1 Rounding radius*
0 $2 $3 $4 $5 $6 $7 $8 $9 X,Y pos of 4 corners*
0 Add a 4 corners polygon primitive as box body*
4,1,4,$2,$3,$4,$5,$6,$7,$8,$9,$2,$3,0*
0 Add four circle primitives for the rounded corners*
1,1,$1+$1,$2,$3*
1,1,$1+$1,$4,$5*
1,1,$1+$1,$6,$7*
1,1,$1+$1,$8,$9*
0 Add four rect primitives between the rounded corners*
20,1,$1+$1,$2,$3,$4,$5,0*
20,1,$1+$1,$4,$5,$6,$7,0*
20,1,$1+$1,$6,$7,$8,$9,0*
20,1,$1+$1,$8,$9,$2,$3,0*%
G04 Aperture macros list end*
%TA.AperFunction,ComponentPad*%
%ADD10R,10.000000X8.000000*%
%TD*%
%TA.AperFunction,ComponentPad*%
%ADD11R,1.700000X1.700000*%
%TD*%
%TA.AperFunction,ComponentPad*%
%ADD12O,1.700000X1.700000*%
%TD*%
%TA.AperFunction,ComponentPad*%
%ADD13R,8.000000X10.000000*%
%TD*%
%TA.AperFunction,SMDPad,CuDef*%
%ADD14RoundRect,0.150000X0.825000X0.150000X-0.825000X0.150000X-0.825000X-0.150000X0.825000X-0.150000X0*%
%TD*%
%TA.AperFunction,SMDPad,CuDef*%
%ADD15RoundRect,0.250000X-0.450000X0.350000X-0.450000X-0.350000X0.450000X-0.350000X0.450000X0.350000X0*%
%TD*%
%TA.AperFunction,SMDPad,CuDef*%
%ADD16RoundRect,0.250000X-0.350000X-0.450000X0.350000X-0.450000X0.350000X0.450000X-0.350000X0.450000X0*%
%TD*%
%TA.AperFunction,SMDPad,CuDef*%
%ADD17RoundRect,0.249999X-1.425001X0.450001X-1.425001X-0.450001X1.425001X-0.450001X1.425001X0.450001X0*%
%TD*%
%TA.AperFunction,SMDPad,CuDef*%
%ADD18R,1.100000X4.600000*%
%TD*%
%TA.AperFunction,SMDPad,CuDef*%
%ADD19R,10.800000X9.400000*%
%TD*%
%TA.AperFunction,SMDPad,CuDef*%
%ADD20R,0.400000X1.500000*%
%TD*%
%TA.AperFunction,SMDPad,CuDef*%
%ADD21R,2.900000X5.400000*%
%TD*%
%TA.AperFunction,SMDPad,CuDef*%
%ADD22RoundRect,0.250000X-1.100000X0.412500X-1.100000X-0.412500X1.100000X-0.412500X1.100000X0.412500X0*%
%TD*%
%TA.AperFunction,SMDPad,CuDef*%
%ADD23RoundRect,0.250000X-0.475000X0.337500X-0.475000X-0.337500X0.475000X-0.337500X0.475000X0.337500X0*%
%TD*%
%TA.AperFunction,SMDPad,CuDef*%
%ADD24R,4.500000X3.300000*%
%TD*%
%TA.AperFunction,SMDPad,CuDef*%
%ADD25RoundRect,0.250000X0.625000X-0.400000X0.625000X0.400000X-0.625000X0.400000X-0.625000X-0.400000X0*%
%TD*%
%TA.AperFunction,ViaPad*%
%ADD26C,0.800000*%
%TD*%
%TA.AperFunction,Conductor*%
%ADD27C,0.500000*%
%TD*%
%TA.AperFunction,Conductor*%
%ADD28C,1.750000*%
%TD*%
%TA.AperFunction,Conductor*%
%ADD29C,1.500000*%
%TD*%
%TA.AperFunction,Conductor*%
%ADD30C,1.000000*%
%TD*%
%TA.AperFunction,Conductor*%
%ADD31C,1.250000*%
%TD*%
%TA.AperFunction,Conductor*%
%ADD32C,3.000000*%
%TD*%
%TA.AperFunction,Conductor*%
%ADD33C,5.000000*%
%TD*%
G04 APERTURE END LIST*
D10*
%TO.P,J5,1,Pin_1*%
%TO.N,Net-(BT1-Pad1)*%
X33248600Y-74422000D03*
X33248600Y-82422000D03*
%TD*%
%TO.P,J4,1,Pin_1*%
%TO.N,+BATT*%
X51943000Y-80334000D03*
X51943000Y-88334000D03*
%TD*%
D11*
%TO.P,J3,1,Pin_1*%
%TO.N,GND*%
X56438800Y-116763800D03*
D12*
%TO.P,J3,2,Pin_2*%
%TO.N,Net-(J3-Pad2)*%
X56438800Y-114223800D03*
%TO.P,J3,3,Pin_3*%
%TO.N,Net-(J3-Pad3)*%
X56438800Y-111683800D03*
%TO.P,J3,4,Pin_4*%
%TO.N,Net-(J3-Pad4)*%
X56438800Y-109143800D03*
%TD*%
D11*
%TO.P,J2,1,Pin_1*%
%TO.N,GND*%
X43408600Y-114925000D03*
D12*
%TO.P,J2,2,Pin_2*%
%TO.N,Net-(J2-Pad2)*%
X43408600Y-112385000D03*
%TO.P,J2,3,Pin_3*%
%TO.N,Net-(J2-Pad3)*%
X43408600Y-109845000D03*
%TO.P,J2,4,Pin_4*%
%TO.N,Net-(J2-Pad4)*%
X43408600Y-107305000D03*
%TD*%
D10*
%TO.P,J1,1,Pin_1*%
%TO.N,VBUS*%
X93903800Y-82219800D03*
X93903800Y-90219800D03*
%TD*%
D13*
%TO.P,J6,1,Pin_1*%
%TO.N,GND*%
X84251800Y-114198400D03*
X76251800Y-114198400D03*
%TD*%
D14*
%TO.P,U10,1*%
%TO.N,Net-(R18-Pad2)*%
X60564800Y-73752200D03*
%TO.P,U10,2,-*%
%TO.N,Net-(R15-Pad1)*%
X60564800Y-72482200D03*
%TO.P,U10,3,+*%
%TO.N,Net-(R16-Pad1)*%
X60564800Y-71212200D03*
%TO.P,U10,4,V+*%
%TO.N,VBUS*%
X60564800Y-69942200D03*
%TO.P,U10,5,+*%
%TO.N,Net-(R11-Pad2)*%
X60564800Y-68672200D03*
%TO.P,U10,6,-*%
%TO.N,Net-(R10-Pad1)*%
X60564800Y-67402200D03*
%TO.P,U10,7*%
%TO.N,Net-(U10-Pad7)*%
X60564800Y-66132200D03*
%TO.P,U10,8*%
%TO.N,N/C*%
X55614800Y-66132200D03*
%TO.P,U10,9*%
X55614800Y-67402200D03*
%TO.P,U10,10*%
X55614800Y-68672200D03*
%TO.P,U10,11,V-*%
%TO.N,GND*%
X55614800Y-69942200D03*
%TO.P,U10,12*%
%TO.N,N/C*%
X55614800Y-71212200D03*
%TO.P,U10,13*%
X55614800Y-72482200D03*
%TO.P,U10,14*%
X55614800Y-73752200D03*
%TD*%
D15*
%TO.P,R17,1*%
%TO.N,Net-(R15-Pad1)*%
X63144400Y-76673200D03*
%TO.P,R17,2*%
%TO.N,GND*%
X63144400Y-78673200D03*
%TD*%
D16*
%TO.P,R15,1*%
%TO.N,Net-(R15-Pad1)*%
X64592200Y-74082400D03*
%TO.P,R15,2*%
%TO.N,Net-(R14-Pad1)*%
X66592200Y-74082400D03*
%TD*%
%TO.P,R6,1*%
%TO.N,Net-(R6-Pad1)*%
X35998400Y-123698000D03*
%TO.P,R6,2*%
%TO.N,Net-(J2-Pad2)*%
X37998400Y-123698000D03*
%TD*%
%TO.P,R5,1*%
%TO.N,Net-(R5-Pad1)*%
X37033200Y-109702600D03*
%TO.P,R5,2*%
%TO.N,Net-(J2-Pad3)*%
X39033200Y-109702600D03*
%TD*%
%TO.P,R4,1*%
%TO.N,Net-(R4-Pad1)*%
X37439600Y-96012000D03*
%TO.P,R4,2*%
%TO.N,Net-(J2-Pad4)*%
X39439600Y-96012000D03*
%TD*%
D11*
%TO.P,BT3,1,+*%
%TO.N,Net-(BT2-Pad2)*%
X26517600Y-125013800D03*
D12*
%TO.P,BT3,2,-*%
%TO.N,GND*%
X26517600Y-127553800D03*
%TD*%
D11*
%TO.P,BT2,1,+*%
%TO.N,Net-(BT1-Pad2)*%
X26009600Y-106995200D03*
D12*
%TO.P,BT2,2,-*%
%TO.N,Net-(BT2-Pad2)*%
X26009600Y-109535200D03*
%TD*%
D11*
%TO.P,BT1,1,+*%
%TO.N,Net-(BT1-Pad1)*%
X25450800Y-91846400D03*
D12*
%TO.P,BT1,2,-*%
%TO.N,Net-(BT1-Pad2)*%
X25450800Y-94386400D03*
%TD*%
D17*
%TO.P,R2,1*%
%TO.N,Net-(BT1-Pad2)*%
X31978600Y-104063800D03*
%TO.P,R2,2*%
%TO.N,Net-(R2-Pad2)*%
X31978600Y-110163800D03*
%TD*%
D18*
%TO.P,U11,1,GND*%
%TO.N,Net-(R14-Pad1)*%
X77226000Y-76497400D03*
%TO.P,U11,2,EN*%
%TO.N,Net-(U10-Pad7)*%
X78926000Y-76497400D03*
%TO.P,U11,3,SW*%
%TO.N,Net-(D3-Pad2)*%
X80626000Y-76497400D03*
D19*
X80626000Y-67347400D03*
D18*
%TO.P,U11,4,VIN*%
%TO.N,VBUS*%
X82326000Y-76497400D03*
%TO.P,U11,5,FB*%
%TO.N,Net-(R18-Pad2)*%
X84026000Y-76497400D03*
%TD*%
D20*
%TO.P,U3,1,D*%
%TO.N,Net-(R3-Pad2)*%
X32283400Y-126415800D03*
%TO.P,U3,2,D*%
X31633400Y-126415800D03*
%TO.P,U3,3,G*%
%TO.N,Net-(U3-Pad3)*%
X30983400Y-126415800D03*
%TO.P,U3,4,S*%
%TO.N,GND*%
X30983400Y-129075800D03*
%TO.P,U3,5,D*%
%TO.N,Net-(R3-Pad2)*%
X31633400Y-129075800D03*
%TO.P,U3,6,D*%
X32283400Y-129075800D03*
%TD*%
D21*
%TO.P,L1,1,1*%
%TO.N,VBUS*%
X85976000Y-90754200D03*
%TO.P,L1,2,2*%
%TO.N,Net-(D3-Pad2)*%
X76076000Y-90754200D03*
%TD*%
D22*
%TO.P,C3,1*%
%TO.N,+BATT*%
X59080400Y-96672400D03*
%TO.P,C3,2*%
%TO.N,GND*%
X59080400Y-99797400D03*
%TD*%
D20*
%TO.P,U2,1,D*%
%TO.N,Net-(R2-Pad2)*%
X32882600Y-112547400D03*
%TO.P,U2,2,D*%
X32232600Y-112547400D03*
%TO.P,U2,3,G*%
%TO.N,Net-(U2-Pad3)*%
X31582600Y-112547400D03*
%TO.P,U2,4,S*%
%TO.N,Net-(BT2-Pad2)*%
X31582600Y-115207400D03*
%TO.P,U2,5,D*%
%TO.N,Net-(R2-Pad2)*%
X32232600Y-115207400D03*
%TO.P,U2,6,D*%
X32882600Y-115207400D03*
%TD*%
D23*
%TO.P,C4,1*%
%TO.N,+BATT*%
X64592200Y-97358200D03*
%TO.P,C4,2*%
%TO.N,GND*%
X64592200Y-99433200D03*
%TD*%
%TO.P,C5,1*%
%TO.N,+BATT*%
X69824600Y-97459800D03*
%TO.P,C5,2*%
%TO.N,GND*%
X69824600Y-99534800D03*
%TD*%
D20*
%TO.P,U1,1,D*%
%TO.N,Net-(R1-Pad2)*%
X33390600Y-98847600D03*
%TO.P,U1,2,D*%
X32740600Y-98847600D03*
%TO.P,U1,3,G*%
%TO.N,Net-(U1-Pad3)*%
X32090600Y-98847600D03*
%TO.P,U1,4,S*%
%TO.N,Net-(BT1-Pad2)*%
X32090600Y-101507600D03*
%TO.P,U1,5,D*%
%TO.N,Net-(R1-Pad2)*%
X32740600Y-101507600D03*
%TO.P,U1,6,D*%
X33390600Y-101507600D03*
%TD*%
D17*
%TO.P,R3,1*%
%TO.N,Net-(BT2-Pad2)*%
X31648400Y-117602000D03*
%TO.P,R3,2*%
%TO.N,Net-(R3-Pad2)*%
X31648400Y-123702000D03*
%TD*%
%TO.P,R1,1*%
%TO.N,Net-(BT1-Pad1)*%
X32791400Y-90144600D03*
%TO.P,R1,2*%
%TO.N,Net-(R1-Pad2)*%
X32791400Y-96244600D03*
%TD*%
D24*
%TO.P,D3,1,K*%
%TO.N,+BATT*%
X60700200Y-90093800D03*
%TO.P,D3,2,A*%
%TO.N,Net-(D3-Pad2)*%
X69500200Y-90093800D03*
%TD*%
D25*
%TO.P,R14,1*%
%TO.N,Net-(R14-Pad1)*%
X73025000Y-78131600D03*
%TO.P,R14,2*%
%TO.N,GND*%
X73025000Y-75031600D03*
%TD*%
D26*
%TO.N,Net-(U1-Pad3)*%
X31902400Y-98755200D03*
%TO.N,GND*%
X74930000Y-124460000D03*
X95250000Y-105410000D03*
X95250000Y-105410000D03*
X63500000Y-124460000D03*
X64770000Y-113030000D03*
X88900000Y-101600000D03*
X78740000Y-102870000D03*
X41910000Y-73660000D03*
X40640000Y-64770000D03*
X49530000Y-68580000D03*
X49530000Y-71120000D03*
%TO.N,Net-(U3-Pad3)*%
X30734000Y-126365000D03*
%TO.N,Net-(U2-Pad3)*%
X31369000Y-112420400D03*
%TO.N,Net-(BT2-Pad2)*%
X31648400Y-117602000D03*
%TO.N,Net-(BT1-Pad2)*%
X31978600Y-104063800D03*
%TO.N,Net-(BT1-Pad1)*%
X32791400Y-90144600D03*
%TO.N,Net-(R4-Pad1)*%
X37490400Y-96088200D03*
%TO.N,Net-(R5-Pad1)*%
X36957000Y-109829600D03*
%TO.N,Net-(R6-Pad1)*%
X35941000Y-123825000D03*
%TO.N,Net-(R10-Pad1)*%
X60564800Y-67402200D03*
%TO.N,Net-(R11-Pad2)*%
X60532919Y-68773562D03*
%TO.N,VBUS*%
X60564800Y-69942200D03*
%TO.N,Net-(R14-Pad1)*%
X73025000Y-78131600D03*
X66624200Y-74015600D03*
%TO.N,VBUS*%
X82326000Y-76497400D03*
X63423800Y-71323200D03*
%TO.N,Net-(R16-Pad1)*%
X60375800Y-71424800D03*
%TO.N,Net-(R18-Pad2)*%
X60333000Y-73448800D03*
X83921600Y-76479400D03*
%TD*%
D27*
%TO.N,Net-(BT2-Pad2)*%
X31582600Y-117536200D02*
X31582600Y-115207400D01*
X31648400Y-117602000D02*
X31582600Y-117536200D01*
D28*
X26009600Y-111963200D02*
X31648400Y-117602000D01*
X26009600Y-109535200D02*
X26009600Y-111963200D01*
D29*
%TO.N,Net-(BT1-Pad2)*%
X25450800Y-99110800D02*
X26670000Y-100330000D01*
X25450800Y-94386400D02*
X25450800Y-99110800D01*
D30*
X31750000Y-101600000D02*
X30480000Y-100330000D01*
X30480000Y-100330000D02*
X26670000Y-100330000D01*
X31978600Y-104063800D02*
X31750000Y-103835200D01*
X31750000Y-103835200D02*
X31750000Y-101600000D01*
D27*
%TO.N,Net-(J2-Pad4)*%
X39439600Y-103336000D02*
X39439600Y-96012000D01*
X43408600Y-107305000D02*
X39439600Y-103336000D01*
%TO.N,Net-(J2-Pad3)*%
X39175600Y-109845000D02*
X39033200Y-109702600D01*
X43408600Y-109845000D02*
X39175600Y-109845000D01*
%TO.N,Net-(J2-Pad2)*%
X37998400Y-116103400D02*
X41716800Y-112385000D01*
X37998400Y-123698000D02*
X37998400Y-116103400D01*
X41716800Y-112385000D02*
X43408600Y-112385000D01*
D31*
%TO.N,Net-(R1-Pad2)*%
X33390600Y-96843800D02*
X32791400Y-96244600D01*
X33390600Y-98847600D02*
X33390600Y-96843800D01*
X33390600Y-101507600D02*
X33390600Y-98847600D01*
%TO.N,Net-(R2-Pad2)*%
X32882600Y-112547400D02*
X32882600Y-115207400D01*
X32882600Y-111067800D02*
X31978600Y-110163800D01*
X32882600Y-112547400D02*
X32882600Y-111067800D01*
%TO.N,Net-(R3-Pad2)*%
X32283400Y-124337000D02*
X31648400Y-123702000D01*
X32283400Y-126415800D02*
X32283400Y-124337000D01*
D27*
X31633400Y-129075800D02*
X32283400Y-129075800D01*
X32283400Y-126415800D02*
X31633400Y-126415800D01*
X32283400Y-129075800D02*
X32283400Y-126415800D01*
X31633400Y-129075800D02*
X31633400Y-126415800D01*
D32*
%TO.N,+BATT*%
X60700200Y-95052600D02*
X59080400Y-96672400D01*
X60700200Y-90093800D02*
X60700200Y-95052600D01*
D28*
X59766200Y-97358200D02*
X59080400Y-96672400D01*
X64592200Y-97358200D02*
X59766200Y-97358200D01*
X64693800Y-97459800D02*
X64592200Y-97358200D01*
X69824600Y-97459800D02*
X64693800Y-97459800D01*
D32*
X53702800Y-90093800D02*
X51943000Y-88334000D01*
X60700200Y-90093800D02*
X53702800Y-90093800D01*
%TO.N,Net-(D3-Pad2)*%
X70160600Y-90754200D02*
X69500200Y-90093800D01*
X76076000Y-90754200D02*
X70160600Y-90754200D01*
D27*
%TO.N,Net-(R14-Pad1)*%
X66592200Y-74047600D02*
X66624200Y-74015600D01*
X66592200Y-74082400D02*
X66592200Y-74047600D01*
%TO.N,VBUS*%
X62042800Y-69942200D02*
X63423800Y-71323200D01*
X60564800Y-69942200D02*
X62042800Y-69942200D01*
%TO.N,Net-(R15-Pad1)*%
X63144400Y-74218800D02*
X63936500Y-73426700D01*
X63144400Y-76673200D02*
X63144400Y-74218800D01*
X63936500Y-73426700D02*
X64592200Y-74082400D01*
X62992000Y-72482200D02*
X63936500Y-73426700D01*
X60564800Y-72482200D02*
X62992000Y-72482200D01*
%TO.N,Net-(R18-Pad2)*%
X83939600Y-76497400D02*
X83921600Y-76479400D01*
X84026000Y-76497400D02*
X83939600Y-76497400D01*
%TO.N,Net-(U10-Pad7)*%
X72872600Y-81178400D02*
X70256400Y-78562200D01*
X77044022Y-81178400D02*
X72872600Y-81178400D01*
X70256400Y-78562200D02*
X70256400Y-68503800D01*
X70256400Y-68503800D02*
X67884800Y-66132200D01*
X78926000Y-79296422D02*
X77044022Y-81178400D01*
X78926000Y-76497400D02*
X78926000Y-79296422D01*
X67884800Y-66132200D02*
X60564800Y-66132200D01*
D31*
%TO.N,Net-(R14-Pad1)*%
X75618400Y-78105000D02*
X77226000Y-76497400D01*
X72821800Y-78105000D02*
X75618400Y-78105000D01*
%TO.N,Net-(D3-Pad2)*%
X80626000Y-76497400D02*
X80626000Y-67347400D01*
D33*
%TO.N,VBUS*%
X93369400Y-90754200D02*
X93903800Y-90219800D01*
X85976000Y-90754200D02*
X93369400Y-90754200D01*
D31*
X85976000Y-85163200D02*
X82326000Y-81513200D01*
X85976000Y-90754200D02*
X85976000Y-85163200D01*
X82326000Y-81513200D02*
X82326000Y-76497400D01*
%TO.N,Net-(D3-Pad2)*%
X80626000Y-86204200D02*
X80626000Y-76497400D01*
X76076000Y-90754200D02*
X80626000Y-86204200D01*
%TD*%
%TA.AperFunction,Conductor*%
%TO.N,GND*%
G36*
X99764121Y-60218002D02*
G01*
X99810614Y-60271658D01*
X99822000Y-60324000D01*
X99822000Y-130176000D01*
X99801998Y-130244121D01*
X99748342Y-130290614D01*
X99696000Y-130302000D01*
X33013909Y-130302000D01*
X32945788Y-130281998D01*
X32899295Y-130228342D01*
X32889191Y-130158068D01*
X32913082Y-130100436D01*
X32928629Y-130079691D01*
X32934015Y-130072505D01*
X32985145Y-129936116D01*
X32991900Y-129873934D01*
X32991900Y-129381775D01*
X32998999Y-129342326D01*
X32999169Y-129341992D01*
X33014508Y-129279305D01*
X33016291Y-129272788D01*
X33034995Y-129211033D01*
X33035583Y-129201554D01*
X33038951Y-129179417D01*
X33039874Y-129175646D01*
X33039876Y-129175634D01*
X33041208Y-129170190D01*
X33041900Y-129159036D01*
X33041900Y-129103635D01*
X33042142Y-129095833D01*
X33045947Y-129034502D01*
X33043720Y-129021540D01*
X33041900Y-129000204D01*
X33041900Y-127313220D01*
X33061902Y-127245099D01*
X33076882Y-127226089D01*
X33172845Y-127125845D01*
X33176990Y-127121515D01*
X33294316Y-126939809D01*
X33375166Y-126739196D01*
X33376314Y-126733315D01*
X33376316Y-126733310D01*
X33415754Y-126531359D01*
X33415754Y-126531356D01*
X33416622Y-126526913D01*
X33416900Y-126521229D01*
X33416900Y-124901653D01*
X33436902Y-124833532D01*
X33476598Y-124794508D01*
X33541524Y-124754331D01*
X33541523Y-124754331D01*
X33547749Y-124750479D01*
X33672706Y-124625303D01*
X33765515Y-124474739D01*
X33821197Y-124306862D01*
X33831900Y-124202401D01*
X33831900Y-124198400D01*
X34889900Y-124198400D01*
X34890237Y-124201646D01*
X34890237Y-124201650D01*
X34890653Y-124205653D01*
X34900874Y-124304166D01*
X34956850Y-124471946D01*
X35049922Y-124622348D01*
X35175097Y-124747305D01*
X35181327Y-124751145D01*
X35181328Y-124751146D01*
X35318490Y-124835694D01*
X35325662Y-124840115D01*
X35405405Y-124866564D01*
X35487011Y-124893632D01*
X35487013Y-124893632D01*
X35493539Y-124895797D01*
X35500375Y-124896497D01*
X35500378Y-124896498D01*
X35543431Y-124900909D01*
X35598000Y-124906500D01*
X36398800Y-124906500D01*
X36402046Y-124906163D01*
X36402050Y-124906163D01*
X36497708Y-124896238D01*
X36497712Y-124896237D01*
X36504566Y-124895526D01*
X36511102Y-124893345D01*
X36511104Y-124893345D01*
X36658663Y-124844115D01*
X36672346Y-124839550D01*
X36822748Y-124746478D01*
X36909184Y-124659891D01*
X36971466Y-124625812D01*
X37042286Y-124630815D01*
X37087376Y-124659736D01*
X37175097Y-124747305D01*
X37181327Y-124751145D01*
X37181328Y-124751146D01*
X37318490Y-124835694D01*
X37325662Y-124840115D01*
X37405405Y-124866564D01*
X37487011Y-124893632D01*
X37487013Y-124893632D01*
X37493539Y-124895797D01*
X37500375Y-124896497D01*
X37500378Y-124896498D01*
X37543431Y-124900909D01*
X37598000Y-124906500D01*
X38398800Y-124906500D01*
X38402046Y-124906163D01*
X38402050Y-124906163D01*
X38497708Y-124896238D01*
X38497712Y-124896237D01*
X38504566Y-124895526D01*
X38511102Y-124893345D01*
X38511104Y-124893345D01*
X38658663Y-124844115D01*
X38672346Y-124839550D01*
X38822748Y-124746478D01*
X38947705Y-124621303D01*
X39033469Y-124482169D01*
X39036675Y-124476968D01*
X39036676Y-124476966D01*
X39040515Y-124470738D01*
X39096197Y-124302861D01*
X39106900Y-124198400D01*
X39106900Y-123197600D01*
X39097186Y-123103977D01*
X39096638Y-123098692D01*
X39096637Y-123098688D01*
X39095926Y-123091834D01*
X39039950Y-122924054D01*
X38946878Y-122773652D01*
X38821703Y-122648695D01*
X38815472Y-122644854D01*
X38809727Y-122640317D01*
X38810777Y-122638987D01*
X38769292Y-122592893D01*
X38756900Y-122538403D01*
X38756900Y-119243069D01*
X71743801Y-119243069D01*
X71744171Y-119249890D01*
X71749695Y-119300752D01*
X71753321Y-119316004D01*
X71798476Y-119436454D01*
X71807014Y-119452049D01*
X71883515Y-119554124D01*
X71896076Y-119566685D01*
X71998151Y-119643186D01*
X72013746Y-119651724D01*
X72134194Y-119696878D01*
X72149449Y-119700505D01*
X72200314Y-119706031D01*
X72207128Y-119706400D01*
X75979685Y-119706400D01*
X75994924Y-119701925D01*
X75996129Y-119700535D01*
X75997800Y-119692852D01*
X75997800Y-119688284D01*
X76505800Y-119688284D01*
X76510275Y-119703523D01*
X76511665Y-119704728D01*
X76519348Y-119706399D01*
X80203693Y-119706399D01*
X80203729Y-119706400D01*
X83979685Y-119706400D01*
X83994924Y-119701925D01*
X83996129Y-119700535D01*
X83997800Y-119692852D01*
X83997800Y-119688284D01*
X84505800Y-119688284D01*
X84510275Y-119703523D01*
X84511665Y-119704728D01*
X84519348Y-119706399D01*
X88296469Y-119706399D01*
X88303290Y-119706029D01*
X88354152Y-119700505D01*
X88369404Y-119696879D01*
X88489854Y-119651724D01*
X88505449Y-119643186D01*
X88607524Y-119566685D01*
X88620085Y-119554124D01*
X88696586Y-119452049D01*
X88705124Y-119436454D01*
X88750278Y-119316006D01*
X88753905Y-119300751D01*
X88759431Y-119249886D01*
X88759800Y-119243072D01*
X88759800Y-114470515D01*
X88755325Y-114455276D01*
X88753935Y-114454071D01*
X88746252Y-114452400D01*
X84523915Y-114452400D01*
X84508676Y-114456875D01*
X84507471Y-114458265D01*
X84505800Y-114465948D01*
X84505800Y-119688284D01*
X83997800Y-119688284D01*
X83997800Y-114470515D01*
X83993325Y-114455276D01*
X83991935Y-114454071D01*
X83984252Y-114452400D01*
X76523915Y-114452400D01*
X76508676Y-114456875D01*
X76507471Y-114458265D01*
X76505800Y-114465948D01*
X76505800Y-119688284D01*
X75997800Y-119688284D01*
X75997800Y-114470515D01*
X75993325Y-114455276D01*
X75991935Y-114454071D01*
X75984252Y-114452400D01*
X71761916Y-114452400D01*
X71746677Y-114456875D01*
X71745472Y-114458265D01*
X71743801Y-114465948D01*
X71743801Y-119243069D01*
X38756900Y-119243069D01*
X38756900Y-117658469D01*
X55080801Y-117658469D01*
X55081171Y-117665290D01*
X55086695Y-117716152D01*
X55090321Y-117731404D01*
X55135476Y-117851854D01*
X55144014Y-117867449D01*
X55220515Y-117969524D01*
X55233076Y-117982085D01*
X55335151Y-118058586D01*
X55350746Y-118067124D01*
X55471194Y-118112278D01*
X55486449Y-118115905D01*
X55537314Y-118121431D01*
X55544128Y-118121800D01*
X56166685Y-118121800D01*
X56181924Y-118117325D01*
X56183129Y-118115935D01*
X56184800Y-118108252D01*
X56184800Y-118103684D01*
X56692800Y-118103684D01*
X56697275Y-118118923D01*
X56698665Y-118120128D01*
X56706348Y-118121799D01*
X57333469Y-118121799D01*
X57340290Y-118121429D01*
X57391152Y-118115905D01*
X57406404Y-118112279D01*
X57526854Y-118067124D01*
X57542449Y-118058586D01*
X57644524Y-117982085D01*
X57657085Y-117969524D01*
X57733586Y-117867449D01*
X57742124Y-117851854D01*
X57787278Y-117731406D01*
X57790905Y-117716151D01*
X57796431Y-117665286D01*
X57796800Y-117658472D01*
X57796800Y-117035915D01*
X57792325Y-117020676D01*
X57790935Y-117019471D01*
X57783252Y-117017800D01*
X56710915Y-117017800D01*
X56695676Y-117022275D01*
X56694471Y-117023665D01*
X56692800Y-117031348D01*
X56692800Y-118103684D01*
X56184800Y-118103684D01*
X56184800Y-117035915D01*
X56180325Y-117020676D01*
X56178935Y-117019471D01*
X56171252Y-117017800D01*
X55098916Y-117017800D01*
X55083677Y-117022275D01*
X55082472Y-117023665D01*
X55080801Y-117031348D01*
X55080801Y-117658469D01*
X38756900Y-117658469D01*
X38756900Y-116469771D01*
X38776902Y-116401650D01*
X38793805Y-116380676D01*
X39354812Y-115819669D01*
X42050601Y-115819669D01*
X42050971Y-115826490D01*
X42056495Y-115877352D01*
X42060121Y-115892604D01*
X42105276Y-116013054D01*
X42113814Y-116028649D01*
X42190315Y-116130724D01*
X42202876Y-116143285D01*
X42304951Y-116219786D01*
X42320546Y-116228324D01*
X42440994Y-116273478D01*
X42456249Y-116277105D01*
X42507114Y-116282631D01*
X42513928Y-116283000D01*
X43136485Y-116283000D01*
X43151724Y-116278525D01*
X43152929Y-116277135D01*
X43154600Y-116269452D01*
X43154600Y-116264884D01*
X43662600Y-116264884D01*
X43667075Y-116280123D01*
X43668465Y-116281328D01*
X43676148Y-116282999D01*
X44303269Y-116282999D01*
X44310090Y-116282629D01*
X44360952Y-116277105D01*
X44376204Y-116273479D01*
X44496654Y-116228324D01*
X44512249Y-116219786D01*
X44614324Y-116143285D01*
X44626885Y-116130724D01*
X44703386Y-116028649D01*
X44711924Y-116013054D01*
X44757078Y-115892606D01*
X44760705Y-115877351D01*
X44766231Y-115826486D01*
X44766600Y-115819672D01*
X44766600Y-115197115D01*
X44762125Y-115181876D01*
X44760735Y-115180671D01*
X44753052Y-115179000D01*
X43680715Y-115179000D01*
X43665476Y-115183475D01*
X43664271Y-115184865D01*
X43662600Y-115192548D01*
X43662600Y-116264884D01*
X43154600Y-116264884D01*
X43154600Y-115197115D01*
X43150125Y-115181876D01*
X43148735Y-115180671D01*
X43141052Y-115179000D01*
X42068716Y-115179000D01*
X42053477Y-115183475D01*
X42052272Y-115184865D01*
X42050601Y-115192548D01*
X42050601Y-115819669D01*
X39354812Y-115819669D01*
X41994076Y-113180405D01*
X42056388Y-113146379D01*
X42083171Y-113143500D01*
X42211091Y-113143500D01*
X42279212Y-113163502D01*
X42308002Y-113190595D01*
X42308587Y-113190088D01*
X42454850Y-113358938D01*
X42458825Y-113362238D01*
X42458831Y-113362244D01*
X42464025Y-113366556D01*
X42503659Y-113425460D01*
X42505155Y-113496441D01*
X42468039Y-113556962D01*
X42427768Y-113581480D01*
X42320546Y-113621676D01*
X42304951Y-113630214D01*
X42202876Y-113706715D01*
X42190315Y-113719276D01*
X42113814Y-113821351D01*
X42105276Y-113836946D01*
X42060122Y-113957394D01*
X42056495Y-113972649D01*
X42050969Y-114023514D01*
X42050600Y-114030328D01*
X42050600Y-114652885D01*
X42055075Y-114668124D01*
X42056465Y-114669329D01*
X42064148Y-114671000D01*
X44748484Y-114671000D01*
X44763723Y-114666525D01*
X44764928Y-114665135D01*
X44766599Y-114657452D01*
X44766599Y-114190495D01*
X55076051Y-114190495D01*
X55076348Y-114195648D01*
X55076348Y-114195651D01*
X55081811Y-114290390D01*
X55088910Y-114413515D01*
X55090047Y-114418561D01*
X55090048Y-114418567D01*
X55109919Y-114506739D01*
X55138022Y-114631439D01*
X55222066Y-114838416D01*
X55338787Y-115028888D01*
X55485050Y-115197738D01*
X55489025Y-115201038D01*
X55489031Y-115201044D01*
X55494225Y-115205356D01*
X55533859Y-115264260D01*
X55535355Y-115335241D01*
X55498239Y-115395762D01*
X55457968Y-115420280D01*
X55350746Y-115460476D01*
X55335151Y-115469014D01*
X55233076Y-115545515D01*
X55220515Y-115558076D01*
X55144014Y-115660151D01*
X55135476Y-115675746D01*
X55090322Y-115796194D01*
X55086695Y-115811449D01*
X55081169Y-115862314D01*
X55080800Y-115869128D01*
X55080800Y-116491685D01*
X55085275Y-116506924D01*
X55086665Y-116508129D01*
X55094348Y-116509800D01*
X57778684Y-116509800D01*
X57793923Y-116505325D01*
X57795128Y-116503935D01*
X57796799Y-116496252D01*
X57796799Y-115869131D01*
X57796429Y-115862310D01*
X57790905Y-115811448D01*
X57787279Y-115796196D01*
X57742124Y-115675746D01*
X57733586Y-115660151D01*
X57657085Y-115558076D01*
X57644524Y-115545515D01*
X57542449Y-115469014D01*
X57526854Y-115460476D01*
X57416613Y-115419148D01*
X57359849Y-115376506D01*
X57335149Y-115309945D01*
X57350357Y-115240596D01*
X57371904Y-115211915D01*
X57473230Y-115110944D01*
X57473240Y-115110932D01*
X57476896Y-115107289D01*
X57536394Y-115024489D01*
X57604235Y-114930077D01*
X57607253Y-114925877D01*
X57706230Y-114725611D01*
X57771170Y-114511869D01*
X57800329Y-114290390D01*
X57801956Y-114223800D01*
X57783652Y-114001161D01*
X57764844Y-113926285D01*
X71743800Y-113926285D01*
X71748275Y-113941524D01*
X71749665Y-113942729D01*
X71757348Y-113944400D01*
X75979685Y-113944400D01*
X75994924Y-113939925D01*
X75996129Y-113938535D01*
X75997800Y-113930852D01*
X75997800Y-113926285D01*
X76505800Y-113926285D01*
X76510275Y-113941524D01*
X76511665Y-113942729D01*
X76519348Y-113944400D01*
X83979685Y-113944400D01*
X83994924Y-113939925D01*
X83996129Y-113938535D01*
X83997800Y-113930852D01*
X83997800Y-113926285D01*
X84505800Y-113926285D01*
X84510275Y-113941524D01*
X84511665Y-113942729D01*
X84519348Y-113944400D01*
X88741684Y-113944400D01*
X88756923Y-113939925D01*
X88758128Y-113938535D01*
X88759799Y-113930852D01*
X88759799Y-109153731D01*
X88759429Y-109146910D01*
X88753905Y-109096048D01*
X88750279Y-109080796D01*
X88705124Y-108960346D01*
X88696586Y-108944751D01*
X88620085Y-108842676D01*
X88607524Y-108830115D01*
X88505449Y-108753614D01*
X88489854Y-108745076D01*
X88369406Y-108699922D01*
X88354151Y-108696295D01*
X88303286Y-108690769D01*
X88296472Y-108690400D01*
X84523915Y-108690400D01*
X84508676Y-108694875D01*
X84507471Y-108696265D01*
X84505800Y-108703948D01*
X84505800Y-113926285D01*
X83997800Y-113926285D01*
X83997800Y-108708516D01*
X83993325Y-108693277D01*
X83991935Y-108692072D01*
X83984252Y-108690401D01*
X80299907Y-108690401D01*
X80299871Y-108690400D01*
X76523915Y-108690400D01*
X76508676Y-108694875D01*
X76507471Y-108696265D01*
X76505800Y-108703948D01*
X76505800Y-113926285D01*
X75997800Y-113926285D01*
X75997800Y-108708516D01*
X75993325Y-108693277D01*
X75991935Y-108692072D01*
X75984252Y-108690401D01*
X72207131Y-108690401D01*
X72200310Y-108690771D01*
X72149448Y-108696295D01*
X72134196Y-108699921D01*
X72013746Y-108745076D01*
X71998151Y-108753614D01*
X71896076Y-108830115D01*
X71883515Y-108842676D01*
X71807014Y-108944751D01*
X71798476Y-108960346D01*
X71753322Y-109080794D01*
X71749695Y-109096049D01*
X71744169Y-109146914D01*
X71743800Y-109153728D01*
X71743800Y-113926285D01*
X57764844Y-113926285D01*
X57729231Y-113784502D01*
X57640154Y-113579640D01*
X57586330Y-113496441D01*
X57521622Y-113396417D01*
X57521620Y-113396414D01*
X57518814Y-113392077D01*
X57368470Y-113226851D01*
X57364419Y-113223652D01*
X57364415Y-113223648D01*
X57197214Y-113091600D01*
X57197210Y-113091598D01*
X57193159Y-113088398D01*
X57151853Y-113065596D01*
X57101884Y-113015164D01*
X57087112Y-112945721D01*
X57112228Y-112879316D01*
X57139580Y-112852709D01*
X57183403Y-112821450D01*
X57318660Y-112724973D01*
X57476896Y-112567289D01*
X57496895Y-112539458D01*
X57604235Y-112390077D01*
X57607253Y-112385877D01*
X57684059Y-112230472D01*
X57703936Y-112190253D01*
X57703937Y-112190251D01*
X57706230Y-112185611D01*
X57749522Y-112043121D01*
X57769665Y-111976823D01*
X57769665Y-111976821D01*
X57771170Y-111971869D01*
X57800329Y-111750390D01*
X57800411Y-111747040D01*
X57801874Y-111687165D01*
X57801874Y-111687161D01*
X57801956Y-111683800D01*
X57783652Y-111461161D01*
X57729231Y-111244502D01*
X57640154Y-111039640D01*
X57550074Y-110900397D01*
X57521622Y-110856417D01*
X57521620Y-110856414D01*
X57518814Y-110852077D01*
X57368470Y-110686851D01*
X57364419Y-110683652D01*
X57364415Y-110683648D01*
X57197214Y-110551600D01*
X57197210Y-110551598D01*
X57193159Y-110548398D01*
X57151853Y-110525596D01*
X57101884Y-110475164D01*
X57087112Y-110405721D01*
X57112228Y-110339316D01*
X57139580Y-110312709D01*
X57183403Y-110281450D01*
X57318660Y-110184973D01*
X57476896Y-110027289D01*
X57536394Y-109944489D01*
X57604235Y-109850077D01*
X57607253Y-109845877D01*
X57706230Y-109645611D01*
X57771170Y-109431869D01*
X57800329Y-109210390D01*
X57801353Y-109168474D01*
X57801874Y-109147165D01*
X57801874Y-109147161D01*
X57801956Y-109143800D01*
X57783652Y-108921161D01*
X57729231Y-108704502D01*
X57640154Y-108499640D01*
X57540468Y-108345549D01*
X57521622Y-108316417D01*
X57521620Y-108316414D01*
X57518814Y-108312077D01*
X57368470Y-108146851D01*
X57364419Y-108143652D01*
X57364415Y-108143648D01*
X57197214Y-108011600D01*
X57197210Y-108011598D01*
X57193159Y-108008398D01*
X57182363Y-108002438D01*
X57097363Y-107955516D01*
X56997589Y-107900438D01*
X56992720Y-107898714D01*
X56992716Y-107898712D01*
X56791887Y-107827595D01*
X56791883Y-107827594D01*
X56787012Y-107825869D01*
X56781919Y-107824962D01*
X56781916Y-107824961D01*
X56572173Y-107787600D01*
X56572167Y-107787599D01*
X56567084Y-107786694D01*
X56493252Y-107785792D01*
X56348881Y-107784028D01*
X56348879Y-107784028D01*
X56343711Y-107783965D01*
X56122891Y-107817755D01*
X55910556Y-107887157D01*
X55712407Y-107990307D01*
X55708274Y-107993410D01*
X55708271Y-107993412D01*
X55567520Y-108099091D01*
X55533765Y-108124435D01*
X55379429Y-108285938D01*
X55376515Y-108290210D01*
X55376514Y-108290211D01*
X55364204Y-108308257D01*
X55253543Y-108470480D01*
X55212834Y-108558181D01*
X55164968Y-108661300D01*
X55159488Y-108673105D01*
X55099789Y-108888370D01*
X55076051Y-109110495D01*
X55076348Y-109115648D01*
X55076348Y-109115651D01*
X55081811Y-109210390D01*
X55088910Y-109333515D01*
X55090047Y-109338561D01*
X55090048Y-109338567D01*
X55106309Y-109410720D01*
X55138022Y-109551439D01*
X55222066Y-109758416D01*
X55338787Y-109948888D01*
X55485050Y-110117738D01*
X55656926Y-110260432D01*
X55727395Y-110301611D01*
X55730245Y-110303276D01*
X55778969Y-110354914D01*
X55792040Y-110424697D01*
X55765309Y-110490469D01*
X55724855Y-110523827D01*
X55712407Y-110530307D01*
X55708274Y-110533410D01*
X55708271Y-110533412D01*
X55583693Y-110626948D01*
X55533765Y-110664435D01*
X55379429Y-110825938D01*
X55376515Y-110830210D01*
X55376514Y-110830211D01*
X55328336Y-110900838D01*
X55253543Y-111010480D01*
X55228081Y-111065334D01*
X55176543Y-111176364D01*
X55159488Y-111213105D01*
X55099789Y-111428370D01*
X55076051Y-111650495D01*
X55076348Y-111655648D01*
X55076348Y-111655651D01*
X55087935Y-111856598D01*
X55088910Y-111873515D01*
X55090047Y-111878561D01*
X55090048Y-111878567D01*
X55104108Y-111940954D01*
X55138022Y-112091439D01*
X55222066Y-112298416D01*
X55224765Y-112302820D01*
X55310451Y-112442647D01*
X55338787Y-112488888D01*
X55485050Y-112657738D01*
X55656926Y-112800432D01*
X55705496Y-112828814D01*
X55730245Y-112843276D01*
X55778969Y-112894914D01*
X55792040Y-112964697D01*
X55765309Y-113030469D01*
X55724855Y-113063827D01*
X55712407Y-113070307D01*
X55708274Y-113073410D01*
X55708271Y-113073412D01*
X55552873Y-113190088D01*
X55533765Y-113204435D01*
X55530193Y-113208173D01*
X55398928Y-113345534D01*
X55379429Y-113365938D01*
X55253543Y-113550480D01*
X55237803Y-113584390D01*
X55161851Y-113748015D01*
X55159488Y-113753105D01*
X55099789Y-113968370D01*
X55076051Y-114190495D01*
X44766599Y-114190495D01*
X44766599Y-114030331D01*
X44766229Y-114023510D01*
X44760705Y-113972648D01*
X44757079Y-113957396D01*
X44711924Y-113836946D01*
X44703386Y-113821351D01*
X44626885Y-113719276D01*
X44614324Y-113706715D01*
X44512249Y-113630214D01*
X44496654Y-113621676D01*
X44386413Y-113580348D01*
X44329649Y-113537706D01*
X44304949Y-113471145D01*
X44320157Y-113401796D01*
X44341704Y-113373115D01*
X44443030Y-113272144D01*
X44443040Y-113272132D01*
X44446696Y-113268489D01*
X44507550Y-113183802D01*
X44574035Y-113091277D01*
X44577053Y-113087077D01*
X44612595Y-113015164D01*
X44673736Y-112891453D01*
X44673737Y-112891451D01*
X44676030Y-112886811D01*
X44719657Y-112743217D01*
X44739465Y-112678023D01*
X44739465Y-112678021D01*
X44740970Y-112673069D01*
X44770129Y-112451590D01*
X44770919Y-112419245D01*
X44771674Y-112388365D01*
X44771674Y-112388361D01*
X44771756Y-112385000D01*
X44753452Y-112162361D01*
X44699031Y-111945702D01*
X44609954Y-111740840D01*
X44551507Y-111650495D01*
X44491422Y-111557617D01*
X44491420Y-111557614D01*
X44488614Y-111553277D01*
X44338270Y-111388051D01*
X44334219Y-111384852D01*
X44334215Y-111384848D01*
X44167014Y-111252800D01*
X44167010Y-111252798D01*
X44162959Y-111249598D01*
X44121653Y-111226796D01*
X44071684Y-111176364D01*
X44056912Y-111106921D01*
X44082028Y-111040516D01*
X44109380Y-111013909D01*
X44153203Y-110982650D01*
X44288460Y-110886173D01*
X44322676Y-110852077D01*
X44398504Y-110776513D01*
X44446696Y-110728489D01*
X44577053Y-110547077D01*
X44608833Y-110482776D01*
X44673736Y-110351453D01*
X44673737Y-110351451D01*
X44676030Y-110346811D01*
X44720716Y-110199734D01*
X44739465Y-110138023D01*
X44739465Y-110138021D01*
X44740970Y-110133069D01*
X44770129Y-109911590D01*
X44771756Y-109845000D01*
X44753452Y-109622361D01*
X44699031Y-109405702D01*
X44609954Y-109200840D01*
X44551507Y-109110495D01*
X44491422Y-109017617D01*
X44491420Y-109017614D01*
X44488614Y-109013277D01*
X44338270Y-108848051D01*
X44334219Y-108844852D01*
X44334215Y-108844848D01*
X44167014Y-108712800D01*
X44167010Y-108712798D01*
X44162959Y-108709598D01*
X44121653Y-108686796D01*
X44071684Y-108636364D01*
X44056912Y-108566921D01*
X44082028Y-108500516D01*
X44109380Y-108473909D01*
X44158243Y-108439055D01*
X44288460Y-108346173D01*
X44322676Y-108312077D01*
X44443035Y-108192137D01*
X44446696Y-108188489D01*
X44506194Y-108105689D01*
X44574035Y-108011277D01*
X44577053Y-108007077D01*
X44676030Y-107806811D01*
X44740970Y-107593069D01*
X44770129Y-107371590D01*
X44771756Y-107305000D01*
X44753452Y-107082361D01*
X44699031Y-106865702D01*
X44609954Y-106660840D01*
X44488614Y-106473277D01*
X44338270Y-106308051D01*
X44334219Y-106304852D01*
X44334215Y-106304848D01*
X44167014Y-106172800D01*
X44167010Y-106172798D01*
X44162959Y-106169598D01*
X43967389Y-106061638D01*
X43962520Y-106059914D01*
X43962516Y-106059912D01*
X43761687Y-105988795D01*
X43761683Y-105988794D01*
X43756812Y-105987069D01*
X43751719Y-105986162D01*
X43751716Y-105986161D01*
X43541973Y-105948800D01*
X43541967Y-105948799D01*
X43536884Y-105947894D01*
X43463052Y-105946992D01*
X43318681Y-105945228D01*
X43318679Y-105945228D01*
X43313511Y-105945165D01*
X43209985Y-105961007D01*
X43139624Y-105951540D01*
X43101832Y-105925552D01*
X40235005Y-103058724D01*
X40200979Y-102996412D01*
X40198100Y-102969629D01*
X40198100Y-100256995D01*
X57222401Y-100256995D01*
X57222738Y-100263514D01*
X57232657Y-100359106D01*
X57235549Y-100372500D01*
X57286988Y-100526684D01*
X57293161Y-100539862D01*
X57378463Y-100677707D01*
X57387499Y-100689108D01*
X57502229Y-100803639D01*
X57513640Y-100812651D01*
X57651643Y-100897716D01*
X57664824Y-100903863D01*
X57819110Y-100955038D01*
X57832486Y-100957905D01*
X57926838Y-100967572D01*
X57933254Y-100967900D01*
X58808285Y-100967900D01*
X58823524Y-100963425D01*
X58824729Y-100962035D01*
X58826400Y-100954352D01*
X58826400Y-100949784D01*
X59334400Y-100949784D01*
X59338875Y-100965023D01*
X59340265Y-100966228D01*
X59347948Y-100967899D01*
X60227495Y-100967899D01*
X60234014Y-100967562D01*
X60329606Y-100957643D01*
X60343000Y-100954751D01*
X60497184Y-100903312D01*
X60510362Y-100897139D01*
X60648207Y-100811837D01*
X60659608Y-100802801D01*
X60774139Y-100688071D01*
X60783151Y-100676660D01*
X60868216Y-100538657D01*
X60874363Y-100525476D01*
X60925538Y-100371190D01*
X60928405Y-100357814D01*
X60938072Y-100263462D01*
X60938400Y-100257046D01*
X60938400Y-100069515D01*
X60933925Y-100054276D01*
X60932535Y-100053071D01*
X60924852Y-100051400D01*
X59352515Y-100051400D01*
X59337276Y-100055875D01*
X59336071Y-100057265D01*
X59334400Y-100064948D01*
X59334400Y-100949784D01*
X58826400Y-100949784D01*
X58826400Y-100069515D01*
X58821925Y-100054276D01*
X58820535Y-100053071D01*
X58812852Y-100051400D01*
X57240516Y-100051400D01*
X57225277Y-100055875D01*
X57224072Y-100057265D01*
X57222401Y-100064948D01*
X57222401Y-100256995D01*
X40198100Y-100256995D01*
X40198100Y-99817795D01*
X63359201Y-99817795D01*
X63359538Y-99824314D01*
X63369457Y-99919906D01*
X63372349Y-99933300D01*
X63423788Y-100087484D01*
X63429961Y-100100662D01*
X63515263Y-100238507D01*
X63524299Y-100249908D01*
X63639029Y-100364439D01*
X63650440Y-100373451D01*
X63788443Y-100458516D01*
X63801624Y-100464663D01*
X63955910Y-100515838D01*
X63969286Y-100518705D01*
X64063638Y-100528372D01*
X64070054Y-100528700D01*
X64320085Y-100528700D01*
X64335324Y-100524225D01*
X64336529Y-100522835D01*
X64338200Y-100515152D01*
X64338200Y-100510584D01*
X64846200Y-100510584D01*
X64850675Y-100525823D01*
X64852065Y-100527028D01*
X64859748Y-100528699D01*
X65114295Y-100528699D01*
X65120814Y-100528362D01*
X65216406Y-100518443D01*
X65229800Y-100515551D01*
X65383984Y-100464112D01*
X65397162Y-100457939D01*
X65535007Y-100372637D01*
X65546408Y-100363601D01*
X65660939Y-100248871D01*
X65669951Y-100237460D01*
X65755016Y-100099457D01*
X65761163Y-100086276D01*
X65812338Y-99931990D01*
X65815038Y-99919395D01*
X68591601Y-99919395D01*
X68591938Y-99925914D01*
X68601857Y-100021506D01*
X68604749Y-100034900D01*
X68656188Y-100189084D01*
X68662361Y-100202262D01*
X68747663Y-100340107D01*
X68756699Y-100351508D01*
X68871429Y-100466039D01*
X68882840Y-100475051D01*
X69020843Y-100560116D01*
X69034024Y-100566263D01*
X69188310Y-100617438D01*
X69201686Y-100620305D01*
X69296038Y-100629972D01*
X69302454Y-100630300D01*
X69552485Y-100630300D01*
X69567724Y-100625825D01*
X69568929Y-100624435D01*
X69570600Y-100616752D01*
X69570600Y-100612184D01*
X70078600Y-100612184D01*
X70083075Y-100627423D01*
X70084465Y-100628628D01*
X70092148Y-100630299D01*
X70346695Y-100630299D01*
X70353214Y-100629962D01*
X70448806Y-100620043D01*
X70462200Y-100617151D01*
X70616384Y-100565712D01*
X70629562Y-100559539D01*
X70767407Y-100474237D01*
X70778808Y-100465201D01*
X70893339Y-100350471D01*
X70902351Y-100339060D01*
X70987416Y-100201057D01*
X70993563Y-100187876D01*
X71044738Y-100033590D01*
X71047605Y-100020214D01*
X71057272Y-99925862D01*
X71057600Y-99919446D01*
X71057600Y-99806915D01*
X71053125Y-99791676D01*
X71051735Y-99790471D01*
X71044052Y-99788800D01*
X70096715Y-99788800D01*
X70081476Y-99793275D01*
X70080271Y-99794665D01*
X70078600Y-99802348D01*
X70078600Y-100612184D01*
X69570600Y-100612184D01*
X69570600Y-99806915D01*
X69566125Y-99791676D01*
X69564735Y-99790471D01*
X69557052Y-99788800D01*
X68609716Y-99788800D01*
X68594477Y-99793275D01*
X68593272Y-99794665D01*
X68591601Y-99802348D01*
X68591601Y-99919395D01*
X65815038Y-99919395D01*
X65815205Y-99918614D01*
X65824872Y-99824262D01*
X65825200Y-99817846D01*
X65825200Y-99705315D01*
X65820725Y-99690076D01*
X65819335Y-99688871D01*
X65811652Y-99687200D01*
X64864315Y-99687200D01*
X64849076Y-99691675D01*
X64847871Y-99693065D01*
X64846200Y-99700748D01*
X64846200Y-100510584D01*
X64338200Y-100510584D01*
X64338200Y-99705315D01*
X64333725Y-99690076D01*
X64332335Y-99688871D01*
X64324652Y-99687200D01*
X63377316Y-99687200D01*
X63362077Y-99691675D01*
X63360872Y-99693065D01*
X63359201Y-99700748D01*
X63359201Y-99817795D01*
X40198100Y-99817795D01*
X40198100Y-97171428D01*
X40218102Y-97103307D01*
X40252488Y-97069505D01*
X40251988Y-97068875D01*
X40257720Y-97064332D01*
X40263948Y-97060478D01*
X40388905Y-96935303D01*
X40436979Y-96857313D01*
X40477875Y-96790968D01*
X40477876Y-96790966D01*
X40481715Y-96784738D01*
X40529158Y-96641700D01*
X40535232Y-96623389D01*
X40535232Y-96623387D01*
X40537397Y-96616861D01*
X40548100Y-96512400D01*
X40548100Y-95511600D01*
X40545665Y-95488132D01*
X40537838Y-95412692D01*
X40537837Y-95412688D01*
X40537126Y-95405834D01*
X40518702Y-95350609D01*
X40483468Y-95245002D01*
X40481150Y-95238054D01*
X40388078Y-95087652D01*
X40262903Y-94962695D01*
X40196949Y-94922040D01*
X40118568Y-94873725D01*
X40118566Y-94873724D01*
X40112338Y-94869885D01*
X39951854Y-94816655D01*
X39950989Y-94816368D01*
X39950987Y-94816368D01*
X39944461Y-94814203D01*
X39937625Y-94813503D01*
X39937622Y-94813502D01*
X39894569Y-94809091D01*
X39840000Y-94803500D01*
X39039200Y-94803500D01*
X39035954Y-94803837D01*
X39035950Y-94803837D01*
X38940292Y-94813762D01*
X38940288Y-94813763D01*
X38933434Y-94814474D01*
X38926898Y-94816655D01*
X38926896Y-94816655D01*
X38794794Y-94860728D01*
X38765654Y-94870450D01*
X38615252Y-94963522D01*
X38529666Y-95049258D01*
X38528816Y-95050109D01*
X38466534Y-95084188D01*
X38395714Y-95079185D01*
X38350625Y-95050264D01*
X38268083Y-94967866D01*
X38262903Y-94962695D01*
X38196949Y-94922040D01*
X38118568Y-94873725D01*
X38118566Y-94873724D01*
X38112338Y-94869885D01*
X37951854Y-94816655D01*
X37950989Y-94816368D01*
X37950987Y-94816368D01*
X37944461Y-94814203D01*
X37937625Y-94813503D01*
X37937622Y-94813502D01*
X37894569Y-94809091D01*
X37840000Y-94803500D01*
X37039200Y-94803500D01*
X37035954Y-94803837D01*
X37035950Y-94803837D01*
X36940292Y-94813762D01*
X36940288Y-94813763D01*
X36933434Y-94814474D01*
X36926898Y-94816655D01*
X36926896Y-94816655D01*
X36794794Y-94860728D01*
X36765654Y-94870450D01*
X36615252Y-94963522D01*
X36490295Y-95088697D01*
X36486455Y-95094927D01*
X36486454Y-95094928D01*
X36404378Y-95228080D01*
X36397485Y-95239262D01*
X36341803Y-95407139D01*
X36331100Y-95511600D01*
X36331100Y-96512400D01*
X36342074Y-96618166D01*
X36344255Y-96624702D01*
X36344255Y-96624704D01*
X36351447Y-96646261D01*
X36398050Y-96785946D01*
X36491122Y-96936348D01*
X36616297Y-97061305D01*
X36622527Y-97065145D01*
X36622528Y-97065146D01*
X36759690Y-97149694D01*
X36766862Y-97154115D01*
X36819569Y-97171597D01*
X36928211Y-97207632D01*
X36928213Y-97207632D01*
X36934739Y-97209797D01*
X36941575Y-97210497D01*
X36941578Y-97210498D01*
X36984631Y-97214909D01*
X37039200Y-97220500D01*
X37840000Y-97220500D01*
X37843246Y-97220163D01*
X37843250Y-97220163D01*
X37938908Y-97210238D01*
X37938912Y-97210237D01*
X37945766Y-97209526D01*
X37952302Y-97207345D01*
X37952304Y-97207345D01*
X38089198Y-97161673D01*
X38113546Y-97153550D01*
X38263948Y-97060478D01*
X38350384Y-96973891D01*
X38412666Y-96939812D01*
X38483486Y-96944815D01*
X38528576Y-96973736D01*
X38616297Y-97061305D01*
X38622528Y-97065146D01*
X38628273Y-97069683D01*
X38627223Y-97071013D01*
X38668708Y-97117107D01*
X38681100Y-97171597D01*
X38681100Y-103268930D01*
X38679667Y-103287880D01*
X38676401Y-103309349D01*
X38676994Y-103316641D01*
X38676994Y-103316644D01*
X38680685Y-103362018D01*
X38681100Y-103372233D01*
X38681100Y-103380293D01*
X38681525Y-103383937D01*
X38684389Y-103408507D01*
X38684822Y-103412882D01*
X38689125Y-103465777D01*
X38690740Y-103485637D01*
X38692996Y-103492601D01*
X38694187Y-103498560D01*
X38695571Y-103504415D01*
X38696418Y-103511681D01*
X38721335Y-103580327D01*
X38722752Y-103584455D01*
X38745249Y-103653899D01*
X38749045Y-103660154D01*
X38751551Y-103665628D01*
X38754270Y-103671058D01*
X38756767Y-103677937D01*
X38760780Y-103684057D01*
X38760780Y-103684058D01*
X38796786Y-103738976D01*
X38799123Y-103742680D01*
X38837005Y-103805107D01*
X38840721Y-103809315D01*
X38840722Y-103809316D01*
X38844403Y-103813484D01*
X38844376Y-103813508D01*
X38847029Y-103816500D01*
X38849732Y-103819733D01*
X38853744Y-103825852D01*
X38859056Y-103830884D01*
X38909983Y-103879128D01*
X38912425Y-103881506D01*
X42028049Y-106997130D01*
X42062075Y-107059442D01*
X42064241Y-107099613D01*
X42045851Y-107271695D01*
X42046148Y-107276848D01*
X42046148Y-107276851D01*
X42051611Y-107371590D01*
X42058710Y-107494715D01*
X42059847Y-107499761D01*
X42059848Y-107499767D01*
X42079719Y-107587939D01*
X42107822Y-107712639D01*
X42169273Y-107863976D01*
X42179807Y-107889917D01*
X42191866Y-107919616D01*
X42308587Y-108110088D01*
X42454850Y-108278938D01*
X42626726Y-108421632D01*
X42656542Y-108439055D01*
X42700045Y-108464476D01*
X42748769Y-108516114D01*
X42761840Y-108585897D01*
X42735109Y-108651669D01*
X42694655Y-108685027D01*
X42682207Y-108691507D01*
X42678074Y-108694610D01*
X42678071Y-108694612D01*
X42507700Y-108822530D01*
X42503565Y-108825635D01*
X42499993Y-108829373D01*
X42369848Y-108965562D01*
X42349229Y-108987138D01*
X42318963Y-109031507D01*
X42264055Y-109076507D01*
X42214877Y-109086500D01*
X40218202Y-109086500D01*
X40150081Y-109066498D01*
X40103588Y-109012842D01*
X40098679Y-109000377D01*
X40077067Y-108935598D01*
X40077066Y-108935596D01*
X40074750Y-108928654D01*
X40049822Y-108888370D01*
X39985532Y-108784480D01*
X39981678Y-108778252D01*
X39856503Y-108653295D01*
X39829036Y-108636364D01*
X39712168Y-108564325D01*
X39712166Y-108564324D01*
X39705938Y-108560485D01*
X39545454Y-108507255D01*
X39544589Y-108506968D01*
X39544587Y-108506968D01*
X39538061Y-108504803D01*
X39531225Y-108504103D01*
X39531222Y-108504102D01*
X39487670Y-108499640D01*
X39433600Y-108494100D01*
X38632800Y-108494100D01*
X38629554Y-108494437D01*
X38629550Y-108494437D01*
X38533892Y-108504362D01*
X38533888Y-108504363D01*
X38527034Y-108505074D01*
X38520498Y-108507255D01*
X38520496Y-108507255D01*
X38493943Y-108516114D01*
X38359254Y-108561050D01*
X38208852Y-108654122D01*
X38203679Y-108659304D01*
X38197834Y-108665159D01*
X38153551Y-108709520D01*
X38122416Y-108740709D01*
X38060134Y-108774788D01*
X37989314Y-108769785D01*
X37944225Y-108740864D01*
X37861683Y-108658466D01*
X37856503Y-108653295D01*
X37829036Y-108636364D01*
X37712168Y-108564325D01*
X37712166Y-108564324D01*
X37705938Y-108560485D01*
X37545454Y-108507255D01*
X37544589Y-108506968D01*
X37544587Y-108506968D01*
X37538061Y-108504803D01*
X37531225Y-108504103D01*
X37531222Y-108504102D01*
X37487670Y-108499640D01*
X37433600Y-108494100D01*
X36632800Y-108494100D01*
X36629554Y-108494437D01*
X36629550Y-108494437D01*
X36533892Y-108504362D01*
X36533888Y-108504363D01*
X36527034Y-108505074D01*
X36520498Y-108507255D01*
X36520496Y-108507255D01*
X36493943Y-108516114D01*
X36359254Y-108561050D01*
X36208852Y-108654122D01*
X36203679Y-108659304D01*
X36197834Y-108665159D01*
X36083895Y-108779297D01*
X36080055Y-108785527D01*
X36080054Y-108785528D01*
X36013495Y-108893507D01*
X35991085Y-108929862D01*
X35988781Y-108936809D01*
X35941564Y-109079165D01*
X35935403Y-109097739D01*
X35934703Y-109104575D01*
X35934702Y-109104578D01*
X35931027Y-109140446D01*
X35924700Y-109202200D01*
X35924700Y-110203000D01*
X35925037Y-110206246D01*
X35925037Y-110206250D01*
X35930930Y-110263042D01*
X35935674Y-110308766D01*
X35937855Y-110315302D01*
X35937855Y-110315304D01*
X35951070Y-110354914D01*
X35991650Y-110476546D01*
X36084722Y-110626948D01*
X36209897Y-110751905D01*
X36216127Y-110755745D01*
X36216128Y-110755746D01*
X36353290Y-110840294D01*
X36360462Y-110844715D01*
X36371141Y-110848257D01*
X36521811Y-110898232D01*
X36521813Y-110898232D01*
X36528339Y-110900397D01*
X36535175Y-110901097D01*
X36535178Y-110901098D01*
X36578231Y-110905509D01*
X36632800Y-110911100D01*
X37433600Y-110911100D01*
X37436846Y-110910763D01*
X37436850Y-110910763D01*
X37532508Y-110900838D01*
X37532512Y-110900837D01*
X37539366Y-110900126D01*
X37545902Y-110897945D01*
X37545904Y-110897945D01*
X37694836Y-110848257D01*
X37707146Y-110844150D01*
X37857548Y-110751078D01*
X37943984Y-110664491D01*
X38006266Y-110630412D01*
X38077086Y-110635415D01*
X38122175Y-110664336D01*
X38197631Y-110739660D01*
X38209897Y-110751905D01*
X38216127Y-110755745D01*
X38216128Y-110755746D01*
X38353290Y-110840294D01*
X38360462Y-110844715D01*
X38371141Y-110848257D01*
X38521811Y-110898232D01*
X38521813Y-110898232D01*
X38528339Y-110900397D01*
X38535175Y-110901097D01*
X38535178Y-110901098D01*
X38578231Y-110905509D01*
X38632800Y-110911100D01*
X39433600Y-110911100D01*
X39436846Y-110910763D01*
X39436850Y-110910763D01*
X39532508Y-110900838D01*
X39532512Y-110900837D01*
X39539366Y-110900126D01*
X39545902Y-110897945D01*
X39545904Y-110897945D01*
X39694836Y-110848257D01*
X39707146Y-110844150D01*
X39857548Y-110751078D01*
X39967952Y-110640482D01*
X40030233Y-110606403D01*
X40057124Y-110603500D01*
X42211091Y-110603500D01*
X42279212Y-110623502D01*
X42308002Y-110650595D01*
X42308587Y-110650088D01*
X42454850Y-110818938D01*
X42626726Y-110961632D01*
X42697195Y-111002811D01*
X42700045Y-111004476D01*
X42748769Y-111056114D01*
X42761840Y-111125897D01*
X42735109Y-111191669D01*
X42694655Y-111225027D01*
X42682207Y-111231507D01*
X42678074Y-111234610D01*
X42678071Y-111234612D01*
X42508943Y-111361597D01*
X42503565Y-111365635D01*
X42349229Y-111527138D01*
X42318963Y-111571507D01*
X42264055Y-111616507D01*
X42214877Y-111626500D01*
X41783870Y-111626500D01*
X41764920Y-111625067D01*
X41750685Y-111622901D01*
X41750681Y-111622901D01*
X41743451Y-111621801D01*
X41736159Y-111622394D01*
X41736156Y-111622394D01*
X41690782Y-111626085D01*
X41680567Y-111626500D01*
X41672507Y-111626500D01*
X41668873Y-111626924D01*
X41668867Y-111626924D01*
X41655842Y-111628443D01*
X41644280Y-111629791D01*
X41639932Y-111630221D01*
X41567164Y-111636140D01*
X41560203Y-111638395D01*
X41554263Y-111639582D01*
X41548388Y-111640971D01*
X41541119Y-111641818D01*
X41472470Y-111666736D01*
X41468342Y-111668153D01*
X41405864Y-111688393D01*
X41405862Y-111688394D01*
X41398901Y-111690649D01*
X41392646Y-111694445D01*
X41387172Y-111696951D01*
X41381742Y-111699670D01*
X41374863Y-111702167D01*
X41368743Y-111706180D01*
X41368742Y-111706180D01*
X41313824Y-111742186D01*
X41310120Y-111744523D01*
X41247693Y-111782405D01*
X41239316Y-111789803D01*
X41239292Y-111789776D01*
X41236300Y-111792429D01*
X41233067Y-111795132D01*
X41226948Y-111799144D01*
X41221916Y-111804456D01*
X41173672Y-111855383D01*
X41171294Y-111857825D01*
X37509489Y-115519630D01*
X37495077Y-115532016D01*
X37483482Y-115540549D01*
X37483477Y-115540554D01*
X37477582Y-115544892D01*
X37472843Y-115550470D01*
X37472840Y-115550473D01*
X37443365Y-115585168D01*
X37436435Y-115592684D01*
X37430740Y-115598379D01*
X37428460Y-115601261D01*
X37413119Y-115620651D01*
X37410328Y-115624055D01*
X37367809Y-115674103D01*
X37363067Y-115679685D01*
X37359739Y-115686201D01*
X37356372Y-115691250D01*
X37353205Y-115696379D01*
X37348666Y-115702116D01*
X37317745Y-115768275D01*
X37315842Y-115772169D01*
X37282631Y-115837208D01*
X37280892Y-115844316D01*
X37278793Y-115849959D01*
X37276876Y-115855722D01*
X37273778Y-115862350D01*
X37272288Y-115869512D01*
X37272288Y-115869513D01*
X37258914Y-115933812D01*
X37257944Y-115938096D01*
X37240592Y-116009010D01*
X37239900Y-116020164D01*
X37239864Y-116020162D01*
X37239625Y-116024155D01*
X37239251Y-116028347D01*
X37237760Y-116035515D01*
X37237958Y-116042832D01*
X37239854Y-116112921D01*
X37239900Y-116116328D01*
X37239900Y-122538572D01*
X37219898Y-122606693D01*
X37185512Y-122640495D01*
X37186012Y-122641125D01*
X37180280Y-122645668D01*
X37174052Y-122649522D01*
X37168879Y-122654704D01*
X37087616Y-122736109D01*
X37025334Y-122770188D01*
X36954514Y-122765185D01*
X36909425Y-122736264D01*
X36826883Y-122653866D01*
X36821703Y-122648695D01*
X36808400Y-122640495D01*
X36677368Y-122559725D01*
X36677366Y-122559724D01*
X36671138Y-122555885D01*
X36591395Y-122529436D01*
X36509789Y-122502368D01*
X36509787Y-122502368D01*
X36503261Y-122500203D01*
X36496425Y-122499503D01*
X36496422Y-122499502D01*
X36453369Y-122495091D01*
X36398800Y-122489500D01*
X35598000Y-122489500D01*
X35594754Y-122489837D01*
X35594750Y-122489837D01*
X35499092Y-122499762D01*
X35499088Y-122499763D01*
X35492234Y-122500474D01*
X35485698Y-122502655D01*
X35485696Y-122502655D01*
X35473698Y-122506658D01*
X35324454Y-122556450D01*
X35174052Y-122649522D01*
X35049095Y-122774697D01*
X34956285Y-122925262D01*
X34900603Y-123093139D01*
X34899903Y-123099975D01*
X34899902Y-123099978D01*
X34895491Y-123143031D01*
X34889900Y-123197600D01*
X34889900Y-124198400D01*
X33831900Y-124198400D01*
X33831899Y-123201600D01*
X33820926Y-123095833D01*
X33809320Y-123061047D01*
X33767267Y-122934998D01*
X33767266Y-122934996D01*
X33764950Y-122928054D01*
X33671879Y-122777651D01*
X33546703Y-122652694D01*
X33396139Y-122559885D01*
X33235664Y-122506658D01*
X33234790Y-122506368D01*
X33234788Y-122506368D01*
X33228262Y-122504203D01*
X33221426Y-122503503D01*
X33221423Y-122503502D01*
X33178370Y-122499091D01*
X33123801Y-122493500D01*
X31659778Y-122493500D01*
X30173000Y-122493501D01*
X30067233Y-122504474D01*
X30060686Y-122506658D01*
X30060687Y-122506658D01*
X29906398Y-122558133D01*
X29906396Y-122558134D01*
X29899454Y-122560450D01*
X29749051Y-122653521D01*
X29624094Y-122778697D01*
X29531285Y-122929261D01*
X29528981Y-122936208D01*
X29479095Y-123086611D01*
X29475603Y-123097138D01*
X29464900Y-123201599D01*
X29464901Y-124202400D01*
X29475874Y-124308167D01*
X29478058Y-124314713D01*
X29529130Y-124467792D01*
X29531850Y-124475946D01*
X29624921Y-124626349D01*
X29630103Y-124631522D01*
X29658522Y-124659891D01*
X29750097Y-124751306D01*
X29756327Y-124755146D01*
X29894172Y-124840115D01*
X29900661Y-124844115D01*
X29980404Y-124870564D01*
X30062010Y-124897632D01*
X30062012Y-124897632D01*
X30068538Y-124899797D01*
X30075374Y-124900497D01*
X30075377Y-124900498D01*
X30118430Y-124904909D01*
X30172999Y-124910500D01*
X30680575Y-124910500D01*
X30748696Y-124930502D01*
X30795189Y-124984158D01*
X30805293Y-125054432D01*
X30775799Y-125119012D01*
X30716073Y-125157396D01*
X30694182Y-125161763D01*
X30680940Y-125163201D01*
X30680936Y-125163202D01*
X30673084Y-125164055D01*
X30536695Y-125215185D01*
X30420139Y-125302539D01*
X30332785Y-125419095D01*
X30329633Y-125427504D01*
X30329632Y-125427505D01*
X30287116Y-125540916D01*
X30243195Y-125598623D01*
X30122747Y-125686134D01*
X29994960Y-125828056D01*
X29899473Y-125993444D01*
X29840458Y-126175072D01*
X29820496Y-126365000D01*
X29821186Y-126371565D01*
X29837514Y-126526913D01*
X29840458Y-126554928D01*
X29899473Y-126736556D01*
X29994960Y-126901944D01*
X30122747Y-127043866D01*
X30170531Y-127078583D01*
X30223225Y-127116868D01*
X30266579Y-127173091D01*
X30274900Y-127211623D01*
X30274900Y-127213934D01*
X30281655Y-127276116D01*
X30332785Y-127412505D01*
X30420139Y-127529061D01*
X30536695Y-127616415D01*
X30545104Y-127619567D01*
X30545105Y-127619568D01*
X30567824Y-127628085D01*
X30624589Y-127670726D01*
X30649289Y-127737288D01*
X30634082Y-127806637D01*
X30583796Y-127856755D01*
X30567824Y-127864049D01*
X30545348Y-127872475D01*
X30529751Y-127881014D01*
X30427676Y-127957515D01*
X30415115Y-127970076D01*
X30338614Y-128072151D01*
X30330076Y-128087746D01*
X30284922Y-128208194D01*
X30281295Y-128223449D01*
X30275769Y-128274314D01*
X30275400Y-128281128D01*
X30275400Y-128857685D01*
X30279875Y-128872924D01*
X30281265Y-128874129D01*
X30288948Y-128875800D01*
X30748900Y-128875800D01*
X30817021Y-128895802D01*
X30863514Y-128949458D01*
X30874900Y-129001800D01*
X30874900Y-129047965D01*
X30874658Y-129055766D01*
X30870853Y-129117098D01*
X30872806Y-129128463D01*
X30872473Y-129131331D01*
X30872489Y-129131622D01*
X30872439Y-129131625D01*
X30864630Y-129198985D01*
X30819623Y-129253893D01*
X30748626Y-129275800D01*
X30293516Y-129275800D01*
X30278277Y-129280275D01*
X30277072Y-129281665D01*
X30275401Y-129289348D01*
X30275401Y-129870469D01*
X30275771Y-129877290D01*
X30281295Y-129928152D01*
X30284921Y-129943404D01*
X30330076Y-130063854D01*
X30338614Y-130079448D01*
X30354343Y-130100436D01*
X30379190Y-130166943D01*
X30364136Y-130236325D01*
X30313962Y-130286555D01*
X30253516Y-130302000D01*
X23494000Y-130302000D01*
X23425879Y-130281998D01*
X23379386Y-130228342D01*
X23368000Y-130176000D01*
X23368000Y-127821766D01*
X25185857Y-127821766D01*
X25216165Y-127956246D01*
X25219245Y-127966075D01*
X25299370Y-128163403D01*
X25304013Y-128172594D01*
X25415294Y-128354188D01*
X25421377Y-128362499D01*
X25560813Y-128523467D01*
X25568180Y-128530683D01*
X25732034Y-128666716D01*
X25740481Y-128672631D01*
X25924356Y-128780079D01*
X25933642Y-128784529D01*
X26132601Y-128860503D01*
X26142499Y-128863379D01*
X26245850Y-128884406D01*
X26259899Y-128883210D01*
X26263600Y-128872865D01*
X26263600Y-128872317D01*
X26771600Y-128872317D01*
X26775664Y-128886159D01*
X26789078Y-128888193D01*
X26795784Y-128887334D01*
X26805862Y-128885192D01*
X27009855Y-128823991D01*
X27019442Y-128820233D01*
X27210695Y-128726539D01*
X27219545Y-128721264D01*
X27392928Y-128597592D01*
X27400800Y-128590939D01*
X27551652Y-128440612D01*
X27558330Y-128432765D01*
X27682603Y-128259820D01*
X27687913Y-128250983D01*
X27782270Y-128060067D01*
X27786069Y-128050472D01*
X27847977Y-127846710D01*
X27850155Y-127836637D01*
X27851586Y-127825762D01*
X27849375Y-127811578D01*
X27836217Y-127807800D01*
X26789715Y-127807800D01*
X26774476Y-127812275D01*
X26773271Y-127813665D01*
X26771600Y-127821348D01*
X26771600Y-128872317D01*
X26263600Y-128872317D01*
X26263600Y-127825915D01*
X26259125Y-127810676D01*
X26257735Y-127809471D01*
X26250052Y-127807800D01*
X25200825Y-127807800D01*
X25187294Y-127811773D01*
X25185857Y-127821766D01*
X23368000Y-127821766D01*
X23368000Y-125911934D01*
X25159100Y-125911934D01*
X25165855Y-125974116D01*
X25216985Y-126110505D01*
X25304339Y-126227061D01*
X25420895Y-126314415D01*
X25429304Y-126317567D01*
X25429305Y-126317568D01*
X25538560Y-126358526D01*
X25595325Y-126401167D01*
X25620025Y-126467729D01*
X25604818Y-126537078D01*
X25585425Y-126563559D01*
X25462190Y-126692517D01*
X25455704Y-126700527D01*
X25335698Y-126876449D01*
X25330600Y-126885423D01*
X25240938Y-127078583D01*
X25237375Y-127088270D01*
X25181989Y-127287983D01*
X25183512Y-127296407D01*
X25195892Y-127299800D01*
X27835944Y-127299800D01*
X27849475Y-127295827D01*
X27850780Y-127286747D01*
X27808814Y-127119675D01*
X27805494Y-127109924D01*
X27720572Y-126914614D01*
X27715705Y-126905539D01*
X27600026Y-126726726D01*
X27593736Y-126718557D01*
X27449893Y-126560477D01*
X27418841Y-126496631D01*
X27427235Y-126426133D01*
X27472412Y-126371364D01*
X27498856Y-126357695D01*
X27605897Y-126317567D01*
X27614305Y-126314415D01*
X27730861Y-126227061D01*
X27818215Y-126110505D01*
X27869345Y-125974116D01*
X27876100Y-125911934D01*
X27876100Y-124115666D01*
X27869345Y-124053484D01*
X27818215Y-123917095D01*
X27730861Y-123800539D01*
X27614305Y-123713185D01*
X27477916Y-123662055D01*
X27415734Y-123655300D01*
X25619466Y-123655300D01*
X25557284Y-123662055D01*
X25420895Y-123713185D01*
X25304339Y-123800539D01*
X25216985Y-123917095D01*
X25165855Y-124053484D01*
X25159100Y-124115666D01*
X25159100Y-125911934D01*
X23368000Y-125911934D01*
X23368000Y-111982587D01*
X24621233Y-111982587D01*
X24621759Y-111987900D01*
X24631754Y-112088933D01*
X24631915Y-112090684D01*
X24640949Y-112197148D01*
X24642290Y-112202315D01*
X24643023Y-112206602D01*
X24643823Y-112210922D01*
X24644349Y-112216235D01*
X24645761Y-112221379D01*
X24645762Y-112221384D01*
X24672638Y-112319290D01*
X24673092Y-112320990D01*
X24699933Y-112424406D01*
X24702123Y-112429267D01*
X24703541Y-112433295D01*
X24705085Y-112437493D01*
X24706500Y-112442647D01*
X24708760Y-112447482D01*
X24708762Y-112447488D01*
X24751746Y-112539458D01*
X24752480Y-112541056D01*
X24765941Y-112570937D01*
X24796366Y-112638478D01*
X24799348Y-112642908D01*
X24801509Y-112646790D01*
X24803655Y-112650523D01*
X24805912Y-112655351D01*
X24808951Y-112659731D01*
X24808954Y-112659737D01*
X24866866Y-112743217D01*
X24867858Y-112744669D01*
X24924507Y-112828814D01*
X24924511Y-112828818D01*
X24927488Y-112833241D01*
X24931167Y-112837098D01*
X24934401Y-112841120D01*
X24934772Y-112841612D01*
X24934785Y-112841602D01*
X24937376Y-112844856D01*
X24939740Y-112848264D01*
X24942532Y-112851332D01*
X24942534Y-112851335D01*
X24955307Y-112865373D01*
X24955321Y-112865387D01*
X24956314Y-112866479D01*
X25017807Y-112927972D01*
X25019882Y-112930095D01*
X25089551Y-113003127D01*
X25093836Y-113006315D01*
X25093837Y-113006316D01*
X25095502Y-113007555D01*
X25109384Y-113019549D01*
X29427995Y-117338160D01*
X29462021Y-117400472D01*
X29464900Y-117427255D01*
X29464901Y-118102400D01*
X29475874Y-118208167D01*
X29478058Y-118214713D01*
X29529130Y-118367792D01*
X29531850Y-118375946D01*
X29624921Y-118526349D01*
X29750097Y-118651306D01*
X29900661Y-118744115D01*
X29980404Y-118770564D01*
X30062010Y-118797632D01*
X30062012Y-118797632D01*
X30068538Y-118799797D01*
X30075374Y-118800497D01*
X30075377Y-118800498D01*
X30118430Y-118804909D01*
X30172999Y-118810500D01*
X30939826Y-118810500D01*
X31003679Y-118827878D01*
X31048447Y-118854196D01*
X31268007Y-118937379D01*
X31273241Y-118938401D01*
X31273244Y-118938402D01*
X31356144Y-118954591D01*
X31498443Y-118982380D01*
X31503774Y-118982506D01*
X31503777Y-118982506D01*
X31631529Y-118985517D01*
X31733166Y-118987912D01*
X31897841Y-118963742D01*
X31960187Y-118954591D01*
X31960189Y-118954591D01*
X31965466Y-118953816D01*
X32188699Y-118881067D01*
X32193420Y-118878583D01*
X32193425Y-118878581D01*
X32295281Y-118824991D01*
X32353949Y-118810499D01*
X33123800Y-118810499D01*
X33229567Y-118799526D01*
X33388747Y-118746419D01*
X33390402Y-118745867D01*
X33390404Y-118745866D01*
X33397346Y-118743550D01*
X33547749Y-118650479D01*
X33672706Y-118525303D01*
X33765515Y-118374739D01*
X33821197Y-118206862D01*
X33831900Y-118102401D01*
X33831899Y-117101600D01*
X33820926Y-116995833D01*
X33764950Y-116828054D01*
X33671879Y-116677651D01*
X33546703Y-116552694D01*
X33540475Y-116548855D01*
X33540470Y-116548851D01*
X33475348Y-116508710D01*
X33427854Y-116455938D01*
X33416430Y-116385867D01*
X33444199Y-116321907D01*
X33445861Y-116320661D01*
X33474363Y-116282631D01*
X33527833Y-116211287D01*
X33527835Y-116211284D01*
X33533215Y-116204105D01*
X33554627Y-116146988D01*
X33599710Y-116088446D01*
X33626621Y-116069357D01*
X33776190Y-115913115D01*
X33816969Y-115849959D01*
X33890264Y-115736446D01*
X33890265Y-115736443D01*
X33893516Y-115731409D01*
X33974366Y-115530796D01*
X33975514Y-115524915D01*
X33975516Y-115524910D01*
X34014954Y-115322959D01*
X34014954Y-115322956D01*
X34015822Y-115318513D01*
X34016100Y-115312829D01*
X34016100Y-111174167D01*
X34017033Y-111163106D01*
X34016753Y-111163085D01*
X34017192Y-111157112D01*
X34018198Y-111151193D01*
X34017136Y-111102529D01*
X34035846Y-111033664D01*
X34091875Y-110942769D01*
X34091876Y-110942767D01*
X34095715Y-110936539D01*
X34125590Y-110846468D01*
X34149232Y-110775190D01*
X34149232Y-110775188D01*
X34151397Y-110768662D01*
X34152721Y-110755746D01*
X34161693Y-110668173D01*
X34162100Y-110664201D01*
X34162099Y-109663400D01*
X34151126Y-109557633D01*
X34110820Y-109436823D01*
X34097467Y-109396798D01*
X34097466Y-109396796D01*
X34095150Y-109389854D01*
X34002079Y-109239451D01*
X33876903Y-109114494D01*
X33799039Y-109066498D01*
X33732569Y-109025525D01*
X33732567Y-109025524D01*
X33726339Y-109021685D01*
X33635041Y-108991403D01*
X33564990Y-108968168D01*
X33564988Y-108968168D01*
X33558462Y-108966003D01*
X33551626Y-108965303D01*
X33551623Y-108965302D01*
X33508570Y-108960891D01*
X33454001Y-108955300D01*
X31989978Y-108955300D01*
X30503200Y-108955301D01*
X30397433Y-108966274D01*
X30390886Y-108968458D01*
X30390887Y-108968458D01*
X30236598Y-109019933D01*
X30236596Y-109019934D01*
X30229654Y-109022250D01*
X30079251Y-109115321D01*
X29954294Y-109240497D01*
X29861485Y-109391061D01*
X29805803Y-109558938D01*
X29795100Y-109663399D01*
X29795101Y-110664200D01*
X29806074Y-110769967D01*
X29808258Y-110776513D01*
X29859330Y-110929592D01*
X29862050Y-110937746D01*
X29955121Y-111088149D01*
X30080297Y-111213106D01*
X30230861Y-111305915D01*
X30310604Y-111332364D01*
X30392210Y-111359432D01*
X30392212Y-111359432D01*
X30398738Y-111361597D01*
X30405574Y-111362297D01*
X30405577Y-111362298D01*
X30448630Y-111366709D01*
X30503199Y-111372300D01*
X30818473Y-111372300D01*
X30886594Y-111392302D01*
X30933087Y-111445958D01*
X30943191Y-111516232D01*
X30931731Y-111550600D01*
X30931985Y-111550695D01*
X30928834Y-111559100D01*
X30912174Y-111603540D01*
X30868253Y-111661246D01*
X30757747Y-111741534D01*
X30753326Y-111746444D01*
X30753325Y-111746445D01*
X30720947Y-111782405D01*
X30629960Y-111883456D01*
X30534473Y-112048844D01*
X30475458Y-112230472D01*
X30455496Y-112420400D01*
X30475458Y-112610328D01*
X30534473Y-112791956D01*
X30537776Y-112797678D01*
X30537777Y-112797679D01*
X30568756Y-112851335D01*
X30629960Y-112957344D01*
X30634378Y-112962251D01*
X30634379Y-112962252D01*
X30753325Y-113094355D01*
X30757747Y-113099266D01*
X30805279Y-113133800D01*
X30822161Y-113146066D01*
X30865515Y-113202289D01*
X30874100Y-113248002D01*
X30874100Y-113345534D01*
X30880855Y-113407716D01*
X30931985Y-113544105D01*
X31019339Y-113660661D01*
X31135895Y-113748015D01*
X31144303Y-113751167D01*
X31166312Y-113759418D01*
X31223076Y-113802060D01*
X31247776Y-113868622D01*
X31232568Y-113937970D01*
X31182282Y-113988088D01*
X31166312Y-113995382D01*
X31135895Y-114006785D01*
X31019339Y-114094139D01*
X30931985Y-114210695D01*
X30880855Y-114347084D01*
X30874100Y-114409266D01*
X30874100Y-114566946D01*
X30854098Y-114635067D01*
X30800442Y-114681560D01*
X30730168Y-114691664D01*
X30665588Y-114662170D01*
X30659005Y-114656041D01*
X27430005Y-111427041D01*
X27395979Y-111364729D01*
X27393100Y-111337946D01*
X27393100Y-109476250D01*
X27378251Y-109301252D01*
X27376913Y-109296097D01*
X27376912Y-109296091D01*
X27329779Y-109114494D01*
X27319267Y-109073994D01*
X27315891Y-109066498D01*
X27225024Y-108864783D01*
X27225023Y-108864780D01*
X27222834Y-108859922D01*
X27091712Y-108665159D01*
X27081184Y-108654122D01*
X27002191Y-108571317D01*
X26967680Y-108535140D01*
X26935133Y-108472043D01*
X26941864Y-108401366D01*
X26985738Y-108345549D01*
X27014621Y-108330186D01*
X27097895Y-108298968D01*
X27097896Y-108298967D01*
X27106305Y-108295815D01*
X27222861Y-108208461D01*
X27310215Y-108091905D01*
X27361345Y-107955516D01*
X27368100Y-107893334D01*
X27368100Y-106097066D01*
X27361345Y-106034884D01*
X27310215Y-105898495D01*
X27222861Y-105781939D01*
X27106305Y-105694585D01*
X26969916Y-105643455D01*
X26907734Y-105636700D01*
X25111466Y-105636700D01*
X25049284Y-105643455D01*
X24912895Y-105694585D01*
X24796339Y-105781939D01*
X24708985Y-105898495D01*
X24657855Y-106034884D01*
X24651100Y-106097066D01*
X24651100Y-107893334D01*
X24657855Y-107955516D01*
X24708985Y-108091905D01*
X24796339Y-108208461D01*
X24912895Y-108295815D01*
X24921304Y-108298967D01*
X24921305Y-108298968D01*
X25003688Y-108329852D01*
X25060453Y-108372493D01*
X25085153Y-108439055D01*
X25069946Y-108508404D01*
X25042041Y-108542998D01*
X25014168Y-108567185D01*
X25010780Y-108571317D01*
X24868683Y-108744616D01*
X24868679Y-108744622D01*
X24865299Y-108748744D01*
X24862660Y-108753380D01*
X24862658Y-108753383D01*
X24788655Y-108883388D01*
X24749149Y-108952790D01*
X24669039Y-109173489D01*
X24668090Y-109178738D01*
X24668089Y-109178741D01*
X24657859Y-109235316D01*
X24627260Y-109404530D01*
X24627065Y-109408669D01*
X24627064Y-109408676D01*
X24626170Y-109427640D01*
X24626100Y-109429129D01*
X24626100Y-111909400D01*
X24625785Y-111918299D01*
X24621233Y-111982587D01*
X23368000Y-111982587D01*
X23368000Y-94353095D01*
X24088051Y-94353095D01*
X24088348Y-94358248D01*
X24088348Y-94358251D01*
X24093811Y-94452990D01*
X24100910Y-94576115D01*
X24102047Y-94581161D01*
X24102048Y-94581167D01*
X24102475Y-94583061D01*
X24150022Y-94794039D01*
X24176284Y-94858716D01*
X24183043Y-94875361D01*
X24192300Y-94922765D01*
X24192300Y-99019404D01*
X24191222Y-99035851D01*
X24188321Y-99057886D01*
X24191273Y-99120471D01*
X24192160Y-99139288D01*
X24192300Y-99145224D01*
X24192300Y-99167799D01*
X24194619Y-99193788D01*
X24194978Y-99199048D01*
X24198904Y-99282288D01*
X24200154Y-99287747D01*
X24200155Y-99287752D01*
X24202908Y-99299770D01*
X24205589Y-99316699D01*
X24207183Y-99334562D01*
X24208665Y-99339978D01*
X24208665Y-99339980D01*
X24229170Y-99414933D01*
X24230456Y-99420051D01*
X24247358Y-99493846D01*
X24249058Y-99501270D01*
X24251260Y-99506432D01*
X24256094Y-99517767D01*
X24261727Y-99533942D01*
X24263528Y-99540524D01*
X24266463Y-99551251D01*
X24268879Y-99556316D01*
X24302339Y-99626467D01*
X24304510Y-99631276D01*
X24334996Y-99702749D01*
X24337197Y-99707909D01*
X24347051Y-99722910D01*
X24355454Y-99737825D01*
X24363178Y-99754018D01*
X24409007Y-99817795D01*
X24411799Y-99821681D01*
X24414789Y-99826032D01*
X24457996Y-99891810D01*
X24458002Y-99891818D01*
X24460535Y-99895674D01*
X24479057Y-99916462D01*
X24487290Y-99926739D01*
X24494271Y-99936454D01*
X24498298Y-99940356D01*
X24571054Y-100010862D01*
X24572464Y-100012251D01*
X25820410Y-101260198D01*
X25822567Y-101262002D01*
X25822573Y-101262007D01*
X25914057Y-101338500D01*
X25948853Y-101367594D01*
X26143993Y-101478898D01*
X26238435Y-101512342D01*
X26350469Y-101552016D01*
X26350472Y-101552017D01*
X26355759Y-101553889D01*
X26577457Y-101590194D01*
X26583070Y-101590106D01*
X26583073Y-101590106D01*
X26701876Y-101588239D01*
X26802081Y-101586665D01*
X26807586Y-101585585D01*
X27017021Y-101544496D01*
X27017025Y-101544495D01*
X27022529Y-101543415D01*
X27027755Y-101541377D01*
X27027760Y-101541376D01*
X27183205Y-101480770D01*
X27231835Y-101461810D01*
X27402760Y-101357067D01*
X27468595Y-101338500D01*
X30010074Y-101338500D01*
X30078195Y-101358502D01*
X30099169Y-101375404D01*
X30704595Y-101980829D01*
X30738620Y-102043142D01*
X30741500Y-102069925D01*
X30741500Y-102729301D01*
X30721498Y-102797422D01*
X30667842Y-102843915D01*
X30615500Y-102855301D01*
X30503200Y-102855301D01*
X30397433Y-102866274D01*
X30390886Y-102868458D01*
X30390887Y-102868458D01*
X30236598Y-102919933D01*
X30236596Y-102919934D01*
X30229654Y-102922250D01*
X30079251Y-103015321D01*
X29954294Y-103140497D01*
X29861485Y-103291061D01*
X29805803Y-103458938D01*
X29795100Y-103563399D01*
X29795101Y-104564200D01*
X29806074Y-104669967D01*
X29808258Y-104676513D01*
X29859330Y-104829592D01*
X29862050Y-104837746D01*
X29955121Y-104988149D01*
X30080297Y-105113106D01*
X30230861Y-105205915D01*
X30310604Y-105232364D01*
X30392210Y-105259432D01*
X30392212Y-105259432D01*
X30398738Y-105261597D01*
X30405574Y-105262297D01*
X30405577Y-105262298D01*
X30448630Y-105266709D01*
X30503199Y-105272300D01*
X31967222Y-105272300D01*
X33454000Y-105272299D01*
X33559767Y-105261326D01*
X33718947Y-105208219D01*
X33720602Y-105207667D01*
X33720604Y-105207666D01*
X33727546Y-105205350D01*
X33877949Y-105112279D01*
X34002906Y-104987103D01*
X34095715Y-104836539D01*
X34151397Y-104668662D01*
X34162100Y-104564201D01*
X34162099Y-103563400D01*
X34151126Y-103457633D01*
X34099241Y-103302115D01*
X34097467Y-103296798D01*
X34097466Y-103296796D01*
X34095150Y-103289854D01*
X34002079Y-103139451D01*
X33876903Y-103014494D01*
X33870676Y-103010656D01*
X33870674Y-103010654D01*
X33830136Y-102985667D01*
X33771901Y-102949770D01*
X33724409Y-102896999D01*
X33712985Y-102826928D01*
X33741259Y-102761804D01*
X33793788Y-102724529D01*
X33828897Y-102711367D01*
X33837305Y-102708215D01*
X33953861Y-102620861D01*
X33971619Y-102597167D01*
X34035833Y-102511487D01*
X34035835Y-102511484D01*
X34041215Y-102504305D01*
X34062627Y-102447188D01*
X34107710Y-102388646D01*
X34134621Y-102369557D01*
X34284190Y-102213315D01*
X34376776Y-102069925D01*
X34398264Y-102036646D01*
X34398265Y-102036643D01*
X34401516Y-102031609D01*
X34482366Y-101830996D01*
X34483514Y-101825115D01*
X34483516Y-101825110D01*
X34522954Y-101623159D01*
X34522954Y-101623156D01*
X34523822Y-101618713D01*
X34524100Y-101613029D01*
X34524100Y-97466406D01*
X34544102Y-97398285D01*
X34583797Y-97359262D01*
X34690749Y-97293079D01*
X34815706Y-97167903D01*
X34884330Y-97056575D01*
X34904675Y-97023569D01*
X34904676Y-97023567D01*
X34908515Y-97017339D01*
X34964197Y-96849462D01*
X34974900Y-96745001D01*
X34974899Y-95744200D01*
X34963926Y-95638433D01*
X34952320Y-95603647D01*
X34910267Y-95477598D01*
X34910266Y-95477596D01*
X34907950Y-95470654D01*
X34814879Y-95320251D01*
X34689703Y-95195294D01*
X34539139Y-95102485D01*
X34459396Y-95076036D01*
X34377790Y-95048968D01*
X34377788Y-95048968D01*
X34371262Y-95046803D01*
X34364426Y-95046103D01*
X34364423Y-95046102D01*
X34321370Y-95041691D01*
X34266801Y-95036100D01*
X32802778Y-95036100D01*
X31316000Y-95036101D01*
X31210233Y-95047074D01*
X31175447Y-95058680D01*
X31049398Y-95100733D01*
X31049396Y-95100734D01*
X31042454Y-95103050D01*
X30892051Y-95196121D01*
X30886878Y-95201303D01*
X30855205Y-95233032D01*
X30767094Y-95321297D01*
X30674285Y-95471861D01*
X30664564Y-95501169D01*
X30623774Y-95624149D01*
X30618603Y-95639738D01*
X30607900Y-95744199D01*
X30607901Y-96745000D01*
X30618874Y-96850767D01*
X30621058Y-96857313D01*
X30672130Y-97010392D01*
X30674850Y-97018546D01*
X30767921Y-97168949D01*
X30893097Y-97293906D01*
X31043661Y-97386715D01*
X31078544Y-97398285D01*
X31205010Y-97440232D01*
X31205012Y-97440232D01*
X31211538Y-97442397D01*
X31218374Y-97443097D01*
X31218377Y-97443098D01*
X31261430Y-97447509D01*
X31315999Y-97453100D01*
X31524377Y-97453100D01*
X31592498Y-97473102D01*
X31638991Y-97526758D01*
X31649095Y-97597032D01*
X31619601Y-97661612D01*
X31599942Y-97679926D01*
X31527339Y-97734339D01*
X31439985Y-97850895D01*
X31436833Y-97859303D01*
X31392840Y-97976654D01*
X31348919Y-98034360D01*
X31291147Y-98076334D01*
X31286726Y-98081244D01*
X31286725Y-98081245D01*
X31183615Y-98195761D01*
X31163360Y-98218256D01*
X31067873Y-98383644D01*
X31008858Y-98565272D01*
X31008168Y-98571833D01*
X31008168Y-98571835D01*
X30994828Y-98698761D01*
X30988896Y-98755200D01*
X30989586Y-98761765D01*
X31007732Y-98934410D01*
X31008858Y-98945128D01*
X31067873Y-99126756D01*
X31071176Y-99132478D01*
X31071177Y-99132479D01*
X31081382Y-99150155D01*
X31153425Y-99274935D01*
X31159526Y-99285503D01*
X31176264Y-99354498D01*
X31153044Y-99421590D01*
X31097237Y-99465477D01*
X31026562Y-99472226D01*
X30990868Y-99459548D01*
X30961870Y-99444000D01*
X30960755Y-99443394D01*
X30884619Y-99401538D01*
X30884611Y-99401535D01*
X30879213Y-99398567D01*
X30874131Y-99396955D01*
X30869437Y-99394438D01*
X30780469Y-99367238D01*
X30779441Y-99366918D01*
X30690694Y-99338765D01*
X30685398Y-99338171D01*
X30680302Y-99336613D01*
X30587743Y-99327210D01*
X30586607Y-99327089D01*
X30552992Y-99323319D01*
X30540270Y-99321892D01*
X30540266Y-99321892D01*
X30536773Y-99321500D01*
X30533246Y-99321500D01*
X30532261Y-99321445D01*
X30526581Y-99320998D01*
X30497175Y-99318011D01*
X30489663Y-99317248D01*
X30489661Y-99317248D01*
X30483538Y-99316626D01*
X30441259Y-99320623D01*
X30437891Y-99320941D01*
X30426033Y-99321500D01*
X27493478Y-99321500D01*
X27425357Y-99301498D01*
X27404383Y-99284595D01*
X26746205Y-98626417D01*
X26712179Y-98564105D01*
X26709300Y-98537322D01*
X26709300Y-94933650D01*
X26717803Y-94889074D01*
X26718230Y-94888211D01*
X26783170Y-94674469D01*
X26812329Y-94452990D01*
X26813956Y-94386400D01*
X26795652Y-94163761D01*
X26741231Y-93947102D01*
X26652154Y-93742240D01*
X26530814Y-93554677D01*
X26527332Y-93550850D01*
X26383598Y-93392888D01*
X26352546Y-93329042D01*
X26360941Y-93258543D01*
X26406117Y-93203775D01*
X26432561Y-93190106D01*
X26539097Y-93150167D01*
X26547505Y-93147015D01*
X26664061Y-93059661D01*
X26751415Y-92943105D01*
X26802545Y-92806716D01*
X26809300Y-92744534D01*
X26809300Y-92382134D01*
X46434500Y-92382134D01*
X46441255Y-92444316D01*
X46492385Y-92580705D01*
X46579739Y-92697261D01*
X46696295Y-92784615D01*
X46832684Y-92835745D01*
X46894866Y-92842500D01*
X56991134Y-92842500D01*
X57053316Y-92835745D01*
X57189705Y-92784615D01*
X57306261Y-92697261D01*
X57393615Y-92580705D01*
X57444745Y-92444316D01*
X57451500Y-92382134D01*
X57451500Y-92228300D01*
X57471502Y-92160179D01*
X57525158Y-92113686D01*
X57577500Y-92102300D01*
X58038611Y-92102300D01*
X58106732Y-92122302D01*
X58114175Y-92127474D01*
X58203495Y-92194415D01*
X58339884Y-92245545D01*
X58402066Y-92252300D01*
X58565700Y-92252300D01*
X58633821Y-92272302D01*
X58680314Y-92325958D01*
X58691700Y-92378300D01*
X58691700Y-94168462D01*
X58671698Y-94236583D01*
X58654795Y-94257557D01*
X57610575Y-95301777D01*
X57472423Y-95460703D01*
X57319436Y-95696282D01*
X57200724Y-95950860D01*
X57199440Y-95955060D01*
X57199438Y-95955065D01*
X57178724Y-96022820D01*
X57118599Y-96219483D01*
X57074656Y-96496920D01*
X57069754Y-96777774D01*
X57070289Y-96782130D01*
X57070289Y-96782133D01*
X57100082Y-97024769D01*
X57103987Y-97056575D01*
X57147910Y-97220500D01*
X57166194Y-97288734D01*
X57176688Y-97327900D01*
X57286443Y-97586467D01*
X57288706Y-97590234D01*
X57288710Y-97590241D01*
X57342599Y-97679926D01*
X57431115Y-97827242D01*
X57433881Y-97830658D01*
X57433884Y-97830662D01*
X57552107Y-97976654D01*
X57607889Y-98045538D01*
X57611108Y-98048540D01*
X57611112Y-98048544D01*
X57646180Y-98081245D01*
X57813323Y-98237109D01*
X57816925Y-98239631D01*
X58042653Y-98397688D01*
X58086981Y-98453145D01*
X58094290Y-98523765D01*
X58062259Y-98587125D01*
X58001058Y-98623110D01*
X57970382Y-98626901D01*
X57933305Y-98626901D01*
X57926786Y-98627238D01*
X57831194Y-98637157D01*
X57817800Y-98640049D01*
X57663616Y-98691488D01*
X57650438Y-98697661D01*
X57512593Y-98782963D01*
X57501192Y-98791999D01*
X57386661Y-98906729D01*
X57377649Y-98918140D01*
X57292584Y-99056143D01*
X57286437Y-99069324D01*
X57235262Y-99223610D01*
X57232395Y-99236986D01*
X57222728Y-99331338D01*
X57222400Y-99337755D01*
X57222400Y-99525285D01*
X57226875Y-99540524D01*
X57228265Y-99541729D01*
X57235948Y-99543400D01*
X60920284Y-99543400D01*
X60935523Y-99538925D01*
X60936728Y-99537535D01*
X60938399Y-99529852D01*
X60938399Y-99337805D01*
X60938062Y-99331286D01*
X60928143Y-99235694D01*
X60925251Y-99222300D01*
X60873812Y-99068116D01*
X60867640Y-99054942D01*
X60792801Y-98934004D01*
X60773963Y-98865552D01*
X60795124Y-98797782D01*
X60849565Y-98752211D01*
X60899945Y-98741700D01*
X63261439Y-98741700D01*
X63329560Y-98761702D01*
X63376053Y-98815358D01*
X63386157Y-98885632D01*
X63381032Y-98907368D01*
X63372062Y-98934410D01*
X63369195Y-98947786D01*
X63359528Y-99042138D01*
X63359200Y-99048555D01*
X63359200Y-99161085D01*
X63363675Y-99176324D01*
X63365065Y-99177529D01*
X63372748Y-99179200D01*
X65807084Y-99179200D01*
X65822323Y-99174725D01*
X65823528Y-99173335D01*
X65825199Y-99165652D01*
X65825199Y-99048605D01*
X65824862Y-99042086D01*
X65818659Y-98982303D01*
X65831524Y-98912482D01*
X65880095Y-98860700D01*
X65943986Y-98843300D01*
X68493839Y-98843300D01*
X68561960Y-98863302D01*
X68608453Y-98916958D01*
X68618557Y-98987232D01*
X68613432Y-99008968D01*
X68604462Y-99036010D01*
X68601595Y-99049386D01*
X68591928Y-99143738D01*
X68591600Y-99150155D01*
X68591600Y-99262685D01*
X68596075Y-99277924D01*
X68597465Y-99279129D01*
X68605148Y-99280800D01*
X71039484Y-99280800D01*
X71054723Y-99276325D01*
X71055928Y-99274935D01*
X71057599Y-99267252D01*
X71057599Y-99150205D01*
X71057262Y-99143686D01*
X71047343Y-99048094D01*
X71044451Y-99034700D01*
X70993012Y-98880516D01*
X70986839Y-98867338D01*
X70901537Y-98729493D01*
X70892501Y-98718092D01*
X70796949Y-98622706D01*
X70762870Y-98560423D01*
X70767873Y-98489603D01*
X70798996Y-98442363D01*
X70860665Y-98383534D01*
X70860670Y-98383529D01*
X70864527Y-98379849D01*
X71004678Y-98191479D01*
X71084562Y-98034360D01*
X71108669Y-97986944D01*
X71108669Y-97986943D01*
X71111087Y-97982188D01*
X71180711Y-97757960D01*
X71202941Y-97590241D01*
X71210861Y-97530490D01*
X71210861Y-97530487D01*
X71211561Y-97525207D01*
X71202752Y-97290584D01*
X71163026Y-97101250D01*
X71155635Y-97066026D01*
X71155634Y-97066023D01*
X71154538Y-97060799D01*
X71068298Y-96842423D01*
X70946496Y-96641700D01*
X70792615Y-96464368D01*
X70782538Y-96456106D01*
X70615184Y-96318883D01*
X70615178Y-96318879D01*
X70611056Y-96315499D01*
X70606420Y-96312860D01*
X70606417Y-96312858D01*
X70411653Y-96201992D01*
X70407010Y-96199349D01*
X70186311Y-96119239D01*
X70181062Y-96118290D01*
X70181059Y-96118289D01*
X70099985Y-96103629D01*
X69955270Y-96077460D01*
X69951131Y-96077265D01*
X69951124Y-96077264D01*
X69932160Y-96076370D01*
X69932151Y-96076370D01*
X69930671Y-96076300D01*
X65137679Y-96076300D01*
X65094689Y-96068739D01*
X65074089Y-96061261D01*
X65072612Y-96060714D01*
X64972592Y-96022820D01*
X64967347Y-96021796D01*
X64963128Y-96020594D01*
X64958934Y-96019462D01*
X64953911Y-96017639D01*
X64921903Y-96011851D01*
X64848764Y-95998625D01*
X64847035Y-95998300D01*
X64747392Y-95978841D01*
X64747388Y-95978841D01*
X64742157Y-95977819D01*
X64736823Y-95977693D01*
X64731700Y-95977137D01*
X64731085Y-95977038D01*
X64731082Y-95977067D01*
X64726952Y-95976598D01*
X64722870Y-95975860D01*
X64718731Y-95975665D01*
X64718724Y-95975664D01*
X64699760Y-95974770D01*
X64699751Y-95974770D01*
X64698271Y-95974700D01*
X64611276Y-95974700D01*
X64608308Y-95974665D01*
X64605362Y-95974596D01*
X64507433Y-95972288D01*
X64501266Y-95973193D01*
X64500101Y-95973364D01*
X64481804Y-95974700D01*
X62684134Y-95974700D01*
X62616013Y-95954698D01*
X62569520Y-95901042D01*
X62559416Y-95830768D01*
X62569939Y-95795450D01*
X62578019Y-95778122D01*
X62579876Y-95774140D01*
X62581158Y-95769946D01*
X62581165Y-95769928D01*
X62582773Y-95764667D01*
X62588160Y-95750257D01*
X62592182Y-95741225D01*
X62603925Y-95700275D01*
X62625753Y-95624149D01*
X62626377Y-95622041D01*
X62660714Y-95509729D01*
X62660715Y-95509723D01*
X62662001Y-95505518D01*
X62663550Y-95495740D01*
X62666877Y-95480734D01*
X62668394Y-95475443D01*
X62668396Y-95475433D01*
X62669607Y-95471210D01*
X62686563Y-95350565D01*
X62686870Y-95348508D01*
X62705944Y-95228080D01*
X62706117Y-95218170D01*
X62707324Y-95202835D01*
X62707540Y-95201303D01*
X62708700Y-95193048D01*
X62708700Y-95071288D01*
X62708719Y-95069089D01*
X62710471Y-94968704D01*
X62710846Y-94947226D01*
X62709639Y-94937396D01*
X62708700Y-94922040D01*
X62708700Y-92378300D01*
X62728702Y-92310179D01*
X62782358Y-92263686D01*
X62834700Y-92252300D01*
X62998334Y-92252300D01*
X63060516Y-92245545D01*
X63196905Y-92194415D01*
X63313461Y-92107061D01*
X63400815Y-91990505D01*
X63451945Y-91854116D01*
X63458700Y-91791934D01*
X63458700Y-88395666D01*
X63451945Y-88333484D01*
X63400815Y-88197095D01*
X63313461Y-88080539D01*
X63196905Y-87993185D01*
X63060516Y-87942055D01*
X62998334Y-87935300D01*
X58402066Y-87935300D01*
X58339884Y-87942055D01*
X58203495Y-87993185D01*
X58190841Y-88002669D01*
X58114176Y-88060126D01*
X58047670Y-88084974D01*
X58038611Y-88085300D01*
X57577500Y-88085300D01*
X57509379Y-88065298D01*
X57462886Y-88011642D01*
X57451500Y-87959300D01*
X57451500Y-79070295D01*
X61936401Y-79070295D01*
X61936738Y-79076814D01*
X61946657Y-79172406D01*
X61949549Y-79185800D01*
X62000988Y-79339984D01*
X62007161Y-79353162D01*
X62092463Y-79491007D01*
X62101499Y-79502408D01*
X62216229Y-79616939D01*
X62227640Y-79625951D01*
X62365643Y-79711016D01*
X62378824Y-79717163D01*
X62533110Y-79768338D01*
X62546486Y-79771205D01*
X62640838Y-79780872D01*
X62647254Y-79781200D01*
X62872285Y-79781200D01*
X62887524Y-79776725D01*
X62888729Y-79775335D01*
X62890400Y-79767652D01*
X62890400Y-79763084D01*
X63398400Y-79763084D01*
X63402875Y-79778323D01*
X63404265Y-79779528D01*
X63411948Y-79781199D01*
X63641495Y-79781199D01*
X63648014Y-79780862D01*
X63743606Y-79770943D01*
X63757000Y-79768051D01*
X63911184Y-79716612D01*
X63924362Y-79710439D01*
X64062207Y-79625137D01*
X64073608Y-79616101D01*
X64188139Y-79501371D01*
X64197151Y-79489960D01*
X64282216Y-79351957D01*
X64288363Y-79338776D01*
X64339538Y-79184490D01*
X64342405Y-79171114D01*
X64352072Y-79076762D01*
X64352400Y-79070346D01*
X64352400Y-78945315D01*
X64347925Y-78930076D01*
X64346535Y-78928871D01*
X64338852Y-78927200D01*
X63416515Y-78927200D01*
X63401276Y-78931675D01*
X63400071Y-78933065D01*
X63398400Y-78940748D01*
X63398400Y-79763084D01*
X62890400Y-79763084D01*
X62890400Y-78945315D01*
X62885925Y-78930076D01*
X62884535Y-78928871D01*
X62876852Y-78927200D01*
X61954516Y-78927200D01*
X61939277Y-78931675D01*
X61938072Y-78933065D01*
X61936401Y-78940748D01*
X61936401Y-79070295D01*
X57451500Y-79070295D01*
X57451500Y-76285866D01*
X57444745Y-76223684D01*
X57393615Y-76087295D01*
X57306261Y-75970739D01*
X57189705Y-75883385D01*
X57053316Y-75832255D01*
X56991134Y-75825500D01*
X46894866Y-75825500D01*
X46832684Y-75832255D01*
X46696295Y-75883385D01*
X46579739Y-75970739D01*
X46492385Y-76087295D01*
X46441255Y-76223684D01*
X46434500Y-76285866D01*
X46434500Y-92382134D01*
X26809300Y-92382134D01*
X26809300Y-90948266D01*
X26802545Y-90886084D01*
X26751415Y-90749695D01*
X26664061Y-90633139D01*
X26547505Y-90545785D01*
X26411116Y-90494655D01*
X26348934Y-90487900D01*
X24552666Y-90487900D01*
X24490484Y-90494655D01*
X24354095Y-90545785D01*
X24237539Y-90633139D01*
X24150185Y-90749695D01*
X24099055Y-90886084D01*
X24092300Y-90948266D01*
X24092300Y-92744534D01*
X24099055Y-92806716D01*
X24150185Y-92943105D01*
X24237539Y-93059661D01*
X24354095Y-93147015D01*
X24362504Y-93150167D01*
X24362505Y-93150168D01*
X24471251Y-93190935D01*
X24528016Y-93233576D01*
X24552716Y-93300138D01*
X24537509Y-93369487D01*
X24518116Y-93395968D01*
X24419736Y-93498917D01*
X24391429Y-93528538D01*
X24265543Y-93713080D01*
X24171488Y-93915705D01*
X24111789Y-94130970D01*
X24088051Y-94353095D01*
X23368000Y-94353095D01*
X23368000Y-89644199D01*
X30607900Y-89644199D01*
X30607901Y-90645000D01*
X30618874Y-90750767D01*
X30621058Y-90757313D01*
X30672130Y-90910392D01*
X30674850Y-90918546D01*
X30767921Y-91068949D01*
X30893097Y-91193906D01*
X31043661Y-91286715D01*
X31123404Y-91313164D01*
X31205010Y-91340232D01*
X31205012Y-91340232D01*
X31211538Y-91342397D01*
X31218374Y-91343097D01*
X31218377Y-91343098D01*
X31261430Y-91347509D01*
X31315999Y-91353100D01*
X32780022Y-91353100D01*
X34266800Y-91353099D01*
X34372567Y-91342126D01*
X34531747Y-91289019D01*
X34533402Y-91288467D01*
X34533404Y-91288466D01*
X34540346Y-91286150D01*
X34690749Y-91193079D01*
X34815706Y-91067903D01*
X34908515Y-90917339D01*
X34964197Y-90749462D01*
X34964910Y-90742509D01*
X34969309Y-90699570D01*
X34974900Y-90645001D01*
X34974899Y-89644200D01*
X34963926Y-89538433D01*
X34952320Y-89503647D01*
X34910267Y-89377598D01*
X34910266Y-89377596D01*
X34907950Y-89370654D01*
X34814879Y-89220251D01*
X34689703Y-89095294D01*
X34539139Y-89002485D01*
X34378664Y-88949258D01*
X34377790Y-88948968D01*
X34377788Y-88948968D01*
X34371262Y-88946803D01*
X34364426Y-88946103D01*
X34364423Y-88946102D01*
X34321370Y-88941691D01*
X34266801Y-88936100D01*
X32802778Y-88936100D01*
X31316000Y-88936101D01*
X31210233Y-88947074D01*
X31203686Y-88949258D01*
X31203687Y-88949258D01*
X31049398Y-89000733D01*
X31049396Y-89000734D01*
X31042454Y-89003050D01*
X30892051Y-89096121D01*
X30767094Y-89221297D01*
X30674285Y-89371861D01*
X30618603Y-89539738D01*
X30607900Y-89644199D01*
X23368000Y-89644199D01*
X23368000Y-86470134D01*
X27740100Y-86470134D01*
X27746855Y-86532316D01*
X27797985Y-86668705D01*
X27885339Y-86785261D01*
X28001895Y-86872615D01*
X28138284Y-86923745D01*
X28200466Y-86930500D01*
X38296734Y-86930500D01*
X38358916Y-86923745D01*
X38495305Y-86872615D01*
X38611861Y-86785261D01*
X38699215Y-86668705D01*
X38750345Y-86532316D01*
X38757100Y-86470134D01*
X38757100Y-73968702D01*
X54131300Y-73968702D01*
X54134238Y-74006031D01*
X54143729Y-74038699D01*
X54177061Y-74153429D01*
X54180655Y-74165801D01*
X54184692Y-74172627D01*
X54261309Y-74302180D01*
X54261311Y-74302183D01*
X54265347Y-74309007D01*
X54382993Y-74426653D01*
X54389817Y-74430689D01*
X54389820Y-74430691D01*
X54479430Y-74483686D01*
X54526199Y-74511345D01*
X54533810Y-74513556D01*
X54533812Y-74513557D01*
X54586031Y-74528728D01*
X54685969Y-74557762D01*
X54692374Y-74558266D01*
X54692379Y-74558267D01*
X54720842Y-74560507D01*
X54720850Y-74560507D01*
X54723298Y-74560700D01*
X56506302Y-74560700D01*
X56508750Y-74560507D01*
X56508758Y-74560507D01*
X56537221Y-74558267D01*
X56537226Y-74558266D01*
X56543631Y-74557762D01*
X56643569Y-74528728D01*
X56695788Y-74513557D01*
X56695790Y-74513556D01*
X56703401Y-74511345D01*
X56750170Y-74483686D01*
X56839780Y-74430691D01*
X56839783Y-74430689D01*
X56846607Y-74426653D01*
X56964253Y-74309007D01*
X56968289Y-74302183D01*
X56968291Y-74302180D01*
X57044908Y-74172627D01*
X57048945Y-74165801D01*
X57052540Y-74153429D01*
X57085871Y-74038699D01*
X57095362Y-74006031D01*
X57098300Y-73968702D01*
X59081300Y-73968702D01*
X59084238Y-74006031D01*
X59093729Y-74038699D01*
X59127061Y-74153429D01*
X59130655Y-74165801D01*
X59134692Y-74172627D01*
X59211309Y-74302180D01*
X59211311Y-74302183D01*
X59215347Y-74309007D01*
X59332993Y-74426653D01*
X59339817Y-74430689D01*
X59339820Y-74430691D01*
X59429430Y-74483686D01*
X59476199Y-74511345D01*
X59483810Y-74513556D01*
X59483812Y-74513557D01*
X59536031Y-74528728D01*
X59635969Y-74557762D01*
X59642374Y-74558266D01*
X59642379Y-74558267D01*
X59670842Y-74560507D01*
X59670850Y-74560507D01*
X59673298Y-74560700D01*
X61456302Y-74560700D01*
X61458750Y-74560507D01*
X61458758Y-74560507D01*
X61487221Y-74558267D01*
X61487226Y-74558266D01*
X61493631Y-74557762D01*
X61593569Y-74528728D01*
X61645788Y-74513557D01*
X61645790Y-74513556D01*
X61653401Y-74511345D01*
X61700170Y-74483686D01*
X61789780Y-74430691D01*
X61789783Y-74430689D01*
X61796607Y-74426653D01*
X61914253Y-74309007D01*
X61918289Y-74302183D01*
X61918291Y-74302180D01*
X61994908Y-74172627D01*
X61998945Y-74165801D01*
X62002540Y-74153429D01*
X62035871Y-74038699D01*
X62045362Y-74006031D01*
X62048300Y-73968702D01*
X62048300Y-73535698D01*
X62045362Y-73498369D01*
X62043568Y-73492193D01*
X62043567Y-73492189D01*
X62017322Y-73401852D01*
X62017525Y-73330856D01*
X62056079Y-73271240D01*
X62120744Y-73241932D01*
X62138319Y-73240700D01*
X62625629Y-73240700D01*
X62693750Y-73260702D01*
X62714724Y-73277605D01*
X62774724Y-73337605D01*
X62808750Y-73399917D01*
X62803685Y-73470732D01*
X62774724Y-73515795D01*
X62655489Y-73635030D01*
X62641077Y-73647416D01*
X62629482Y-73655949D01*
X62629477Y-73655954D01*
X62623582Y-73660292D01*
X62618843Y-73665870D01*
X62618840Y-73665873D01*
X62589365Y-73700568D01*
X62582435Y-73708084D01*
X62576740Y-73713779D01*
X62574460Y-73716661D01*
X62559119Y-73736051D01*
X62556328Y-73739455D01*
X62513809Y-73789503D01*
X62509067Y-73795085D01*
X62505739Y-73801601D01*
X62502372Y-73806650D01*
X62499205Y-73811779D01*
X62494666Y-73817516D01*
X62463745Y-73883675D01*
X62461842Y-73887569D01*
X62428631Y-73952608D01*
X62426892Y-73959716D01*
X62424793Y-73965359D01*
X62422876Y-73971122D01*
X62419778Y-73977750D01*
X62418288Y-73984912D01*
X62418288Y-73984913D01*
X62404914Y-74049212D01*
X62403944Y-74053496D01*
X62386592Y-74124410D01*
X62385900Y-74135564D01*
X62385864Y-74135562D01*
X62385625Y-74139555D01*
X62385251Y-74143747D01*
X62383760Y-74150915D01*
X62383958Y-74158232D01*
X62385854Y-74228321D01*
X62385900Y-74231728D01*
X62385900Y-75551889D01*
X62365898Y-75620010D01*
X62326204Y-75659033D01*
X62220052Y-75724722D01*
X62095095Y-75849897D01*
X62091255Y-75856127D01*
X62091254Y-75856128D01*
X62020607Y-75970739D01*
X62002285Y-76000462D01*
X61946603Y-76168339D01*
X61945903Y-76175175D01*
X61945902Y-76175178D01*
X61941690Y-76216285D01*
X61935900Y-76272800D01*
X61935900Y-77073600D01*
X61936237Y-77076846D01*
X61936237Y-77076850D01*
X61942614Y-77138304D01*
X61946874Y-77179366D01*
X61949055Y-77185902D01*
X61949055Y-77185904D01*
X61975286Y-77264528D01*
X62002850Y-77347146D01*
X62095922Y-77497548D01*
X62101104Y-77502721D01*
X62182863Y-77584338D01*
X62216942Y-77646621D01*
X62211939Y-77717441D01*
X62183018Y-77762529D01*
X62100661Y-77845029D01*
X62091649Y-77856440D01*
X62006584Y-77994443D01*
X62000437Y-78007624D01*
X61949262Y-78161910D01*
X61946395Y-78175286D01*
X61936728Y-78269638D01*
X61936400Y-78276055D01*
X61936400Y-78401085D01*
X61940875Y-78416324D01*
X61942265Y-78417529D01*
X61949948Y-78419200D01*
X64334284Y-78419200D01*
X64349523Y-78414725D01*
X64350728Y-78413335D01*
X64352399Y-78405652D01*
X64352399Y-78276105D01*
X64352062Y-78269586D01*
X64342143Y-78173994D01*
X64339251Y-78160600D01*
X64287812Y-78006416D01*
X64281639Y-77993238D01*
X64196337Y-77855393D01*
X64187301Y-77843992D01*
X64105938Y-77762770D01*
X64071859Y-77700487D01*
X64076862Y-77629667D01*
X64105783Y-77584580D01*
X64188530Y-77501688D01*
X64188534Y-77501683D01*
X64193705Y-77496503D01*
X64286515Y-77345938D01*
X64342197Y-77178061D01*
X64346271Y-77138304D01*
X64352572Y-77076798D01*
X64352900Y-77073600D01*
X64352900Y-76272800D01*
X64347036Y-76216285D01*
X64342638Y-76173892D01*
X64342637Y-76173888D01*
X64341926Y-76167034D01*
X64326040Y-76119416D01*
X64288268Y-76006202D01*
X64285950Y-75999254D01*
X64192878Y-75848852D01*
X64067703Y-75723895D01*
X63962783Y-75659221D01*
X63915291Y-75606450D01*
X63902900Y-75551962D01*
X63902900Y-75393564D01*
X63922902Y-75325443D01*
X63976558Y-75278950D01*
X64046832Y-75268846D01*
X64068565Y-75273970D01*
X64087339Y-75280197D01*
X64094175Y-75280897D01*
X64094178Y-75280898D01*
X64137231Y-75285309D01*
X64191800Y-75290900D01*
X64992600Y-75290900D01*
X64995846Y-75290563D01*
X64995850Y-75290563D01*
X65091508Y-75280638D01*
X65091512Y-75280637D01*
X65098366Y-75279926D01*
X65104902Y-75277745D01*
X65104904Y-75277745D01*
X65237006Y-75233672D01*
X65266146Y-75223950D01*
X65416548Y-75130878D01*
X65502984Y-75044291D01*
X65565266Y-75010212D01*
X65636086Y-75015215D01*
X65681176Y-75044136D01*
X65768897Y-75131705D01*
X65775127Y-75135545D01*
X65775128Y-75135546D01*
X65912290Y-75220094D01*
X65919462Y-75224515D01*
X65999205Y-75250964D01*
X66080811Y-75278032D01*
X66080813Y-75278032D01*
X66087339Y-75280197D01*
X66094175Y-75280897D01*
X66094178Y-75280898D01*
X66137231Y-75285309D01*
X66191800Y-75290900D01*
X66992600Y-75290900D01*
X66995846Y-75290563D01*
X66995850Y-75290563D01*
X67091508Y-75280638D01*
X67091512Y-75280637D01*
X67098366Y-75279926D01*
X67104902Y-75277745D01*
X67104904Y-75277745D01*
X67237006Y-75233672D01*
X67266146Y-75223950D01*
X67416548Y-75130878D01*
X67541505Y-75005703D01*
X67634315Y-74855138D01*
X67689997Y-74687261D01*
X67700700Y-74582800D01*
X67700700Y-73582000D01*
X67691382Y-73492192D01*
X67690438Y-73483092D01*
X67690437Y-73483088D01*
X67689726Y-73476234D01*
X67633750Y-73308454D01*
X67540678Y-73158052D01*
X67415503Y-73033095D01*
X67409272Y-73029254D01*
X67271168Y-72944125D01*
X67271166Y-72944124D01*
X67264938Y-72940285D01*
X67151402Y-72902627D01*
X67103589Y-72886768D01*
X67103587Y-72886768D01*
X67097061Y-72884603D01*
X67090225Y-72883903D01*
X67090222Y-72883902D01*
X67047169Y-72879491D01*
X66992600Y-72873900D01*
X66191800Y-72873900D01*
X66188554Y-72874237D01*
X66188550Y-72874237D01*
X66092892Y-72884162D01*
X66092888Y-72884163D01*
X66086034Y-72884874D01*
X66079498Y-72887055D01*
X66079496Y-72887055D01*
X65947394Y-72931128D01*
X65918254Y-72940850D01*
X65767852Y-73033922D01*
X65762679Y-73039104D01*
X65681416Y-73120509D01*
X65619134Y-73154588D01*
X65548314Y-73149585D01*
X65503225Y-73120664D01*
X65420683Y-73038266D01*
X65415503Y-73033095D01*
X65409272Y-73029254D01*
X65271168Y-72944125D01*
X65271166Y-72944124D01*
X65264938Y-72940285D01*
X65151402Y-72902627D01*
X65103589Y-72886768D01*
X65103587Y-72886768D01*
X65097061Y-72884603D01*
X65090225Y-72883903D01*
X65090222Y-72883902D01*
X65047169Y-72879491D01*
X64992600Y-72873900D01*
X64508611Y-72873900D01*
X64436099Y-72850944D01*
X64435964Y-72850849D01*
X64419381Y-72836900D01*
X63878441Y-72295960D01*
X63844415Y-72233648D01*
X63849480Y-72162833D01*
X63893475Y-72104929D01*
X63933000Y-72076212D01*
X64035053Y-72002066D01*
X64162840Y-71860144D01*
X64258327Y-71694756D01*
X64317342Y-71513128D01*
X64321643Y-71472211D01*
X64336614Y-71329765D01*
X64337304Y-71323200D01*
X64317342Y-71133272D01*
X64258327Y-70951644D01*
X64162840Y-70786256D01*
X64051160Y-70662222D01*
X64039475Y-70649245D01*
X64039474Y-70649244D01*
X64035053Y-70644334D01*
X63880552Y-70532082D01*
X63874524Y-70529398D01*
X63874522Y-70529397D01*
X63712119Y-70457091D01*
X63712118Y-70457091D01*
X63706088Y-70454406D01*
X63699633Y-70453034D01*
X63699624Y-70453031D01*
X63643028Y-70441001D01*
X63580131Y-70406850D01*
X62626570Y-69453289D01*
X62614184Y-69438877D01*
X62605651Y-69427282D01*
X62605646Y-69427277D01*
X62601308Y-69421382D01*
X62595730Y-69416643D01*
X62595727Y-69416640D01*
X62561032Y-69387165D01*
X62553516Y-69380235D01*
X62547821Y-69374540D01*
X62536627Y-69365684D01*
X62525549Y-69356919D01*
X62522145Y-69354128D01*
X62472097Y-69311609D01*
X62472095Y-69311608D01*
X62466515Y-69306867D01*
X62459999Y-69303539D01*
X62454950Y-69300172D01*
X62449821Y-69297005D01*
X62444084Y-69292466D01*
X62377925Y-69261545D01*
X62374025Y-69259639D01*
X62308992Y-69226431D01*
X62301884Y-69224692D01*
X62296241Y-69222593D01*
X62290478Y-69220676D01*
X62283850Y-69217578D01*
X62212383Y-69202713D01*
X62208099Y-69201743D01*
X62137190Y-69184392D01*
X62131588Y-69184044D01*
X62131585Y-69184044D01*
X62130372Y-69183969D01*
X62129852Y-69183781D01*
X62126042Y-69183201D01*
X62126157Y-69182442D01*
X62063620Y-69159790D01*
X62020537Y-69103360D01*
X62014801Y-69032595D01*
X62017173Y-69023058D01*
X62043568Y-68932208D01*
X62043569Y-68932203D01*
X62045362Y-68926031D01*
X62048300Y-68888702D01*
X62048300Y-68455698D01*
X62046380Y-68431297D01*
X62045867Y-68424779D01*
X62045866Y-68424774D01*
X62045362Y-68418369D01*
X61998945Y-68258599D01*
X61914253Y-68115393D01*
X61911571Y-68112711D01*
X61886298Y-68048339D01*
X61900200Y-67978716D01*
X61910372Y-67962888D01*
X61914253Y-67959007D01*
X61998945Y-67815801D01*
X62045362Y-67656031D01*
X62048300Y-67618702D01*
X62048300Y-67185698D01*
X62045362Y-67148369D01*
X62043568Y-67142193D01*
X62043567Y-67142189D01*
X62017322Y-67051852D01*
X62017525Y-66980856D01*
X62056079Y-66921240D01*
X62120744Y-66891932D01*
X62138319Y-66890700D01*
X67518429Y-66890700D01*
X67586550Y-66910702D01*
X67607524Y-66927605D01*
X69460995Y-68781076D01*
X69495021Y-68843388D01*
X69497900Y-68870171D01*
X69497900Y-78495130D01*
X69496467Y-78514080D01*
X69493201Y-78535549D01*
X69493794Y-78542841D01*
X69493794Y-78542844D01*
X69497485Y-78588218D01*
X69497900Y-78598433D01*
X69497900Y-78606493D01*
X69498325Y-78610137D01*
X69501189Y-78634707D01*
X69501622Y-78639082D01*
X69505361Y-78685043D01*
X69507540Y-78711837D01*
X69509796Y-78718801D01*
X69510987Y-78724760D01*
X69512371Y-78730615D01*
X69513218Y-78737881D01*
X69538135Y-78806527D01*
X69539552Y-78810655D01*
X69562049Y-78880099D01*
X69565845Y-78886354D01*
X69568351Y-78891828D01*
X69571070Y-78897258D01*
X69573567Y-78904137D01*
X69577580Y-78910257D01*
X69577580Y-78910258D01*
X69613586Y-78965176D01*
X69615923Y-78968880D01*
X69653805Y-79031307D01*
X69657521Y-79035515D01*
X69657522Y-79035516D01*
X69661203Y-79039684D01*
X69661176Y-79039708D01*
X69663829Y-79042700D01*
X69666532Y-79045933D01*
X69670544Y-79052052D01*
X69696628Y-79076762D01*
X69726783Y-79105328D01*
X69729225Y-79107706D01*
X72288830Y-81667311D01*
X72301216Y-81681723D01*
X72309749Y-81693318D01*
X72309754Y-81693323D01*
X72314092Y-81699218D01*
X72319670Y-81703957D01*
X72319673Y-81703960D01*
X72354368Y-81733435D01*
X72361884Y-81740365D01*
X72367580Y-81746061D01*
X72370441Y-81748324D01*
X72370446Y-81748329D01*
X72389866Y-81763693D01*
X72393267Y-81766482D01*
X72448885Y-81813733D01*
X72455405Y-81817062D01*
X72460452Y-81820428D01*
X72465576Y-81823593D01*
X72471317Y-81828135D01*
X72477948Y-81831234D01*
X72477951Y-81831236D01*
X72525323Y-81853376D01*
X72533549Y-81857220D01*
X72537430Y-81859034D01*
X72541376Y-81860962D01*
X72606408Y-81894169D01*
X72613514Y-81895908D01*
X72619164Y-81898009D01*
X72624921Y-81899924D01*
X72631550Y-81903022D01*
X72703035Y-81917891D01*
X72707301Y-81918857D01*
X72778210Y-81936208D01*
X72783812Y-81936556D01*
X72783815Y-81936556D01*
X72789364Y-81936900D01*
X72789362Y-81936935D01*
X72793334Y-81937175D01*
X72797555Y-81937552D01*
X72804715Y-81939041D01*
X72882142Y-81936946D01*
X72885550Y-81936900D01*
X76976952Y-81936900D01*
X76995902Y-81938333D01*
X77010137Y-81940499D01*
X77010141Y-81940499D01*
X77017371Y-81941599D01*
X77024663Y-81941006D01*
X77024666Y-81941006D01*
X77070040Y-81937315D01*
X77080255Y-81936900D01*
X77088315Y-81936900D01*
X77105702Y-81934873D01*
X77116529Y-81933611D01*
X77120904Y-81933178D01*
X77186361Y-81927854D01*
X77186364Y-81927853D01*
X77193659Y-81927260D01*
X77200623Y-81925004D01*
X77206582Y-81923813D01*
X77212437Y-81922429D01*
X77219703Y-81921582D01*
X77288349Y-81896665D01*
X77292477Y-81895248D01*
X77354958Y-81875007D01*
X77354960Y-81875006D01*
X77361921Y-81872751D01*
X77368176Y-81868955D01*
X77373650Y-81866449D01*
X77379080Y-81863730D01*
X77385959Y-81861233D01*
X77431712Y-81831236D01*
X77446998Y-81821214D01*
X77450702Y-81818877D01*
X77513129Y-81780995D01*
X77521506Y-81773597D01*
X77521530Y-81773624D01*
X77524522Y-81770971D01*
X77527755Y-81768268D01*
X77533874Y-81764256D01*
X77587150Y-81708017D01*
X77589528Y-81705575D01*
X79277405Y-80017698D01*
X79339717Y-79983672D01*
X79410532Y-79988737D01*
X79467368Y-80031284D01*
X79492179Y-80097804D01*
X79492500Y-80106793D01*
X79492500Y-85682499D01*
X79472498Y-85750620D01*
X79455595Y-85771594D01*
X77713657Y-87513532D01*
X77651345Y-87547558D01*
X77610955Y-87549700D01*
X77574134Y-87545700D01*
X74577866Y-87545700D01*
X74515684Y-87552455D01*
X74379295Y-87603585D01*
X74262739Y-87690939D01*
X74175385Y-87807495D01*
X74124255Y-87943884D01*
X74117500Y-88006066D01*
X74117500Y-88619700D01*
X74097498Y-88687821D01*
X74043842Y-88734314D01*
X73991500Y-88745700D01*
X72384700Y-88745700D01*
X72316579Y-88725698D01*
X72270086Y-88672042D01*
X72258700Y-88619700D01*
X72258700Y-88395666D01*
X72251945Y-88333484D01*
X72200815Y-88197095D01*
X72113461Y-88080539D01*
X71996905Y-87993185D01*
X71860516Y-87942055D01*
X71798334Y-87935300D01*
X67202066Y-87935300D01*
X67139884Y-87942055D01*
X67003495Y-87993185D01*
X66886939Y-88080539D01*
X66799585Y-88197095D01*
X66748455Y-88333484D01*
X66741700Y-88395666D01*
X66741700Y-91791934D01*
X66748455Y-91854116D01*
X66799585Y-91990505D01*
X66886939Y-92107061D01*
X67003495Y-92194415D01*
X67139884Y-92245545D01*
X67202066Y-92252300D01*
X68775393Y-92252300D01*
X68843514Y-92272302D01*
X68858056Y-92283206D01*
X68889086Y-92310179D01*
X68948903Y-92362177D01*
X68952589Y-92364571D01*
X68952596Y-92364576D01*
X68957203Y-92367568D01*
X68969561Y-92376712D01*
X68973774Y-92380247D01*
X68973781Y-92380252D01*
X68977150Y-92383079D01*
X69062578Y-92436460D01*
X69080438Y-92447620D01*
X69082293Y-92448801D01*
X69184482Y-92515164D01*
X69188476Y-92517027D01*
X69188477Y-92517027D01*
X69193457Y-92519350D01*
X69206963Y-92526682D01*
X69211314Y-92529400D01*
X69215364Y-92531931D01*
X69219376Y-92533717D01*
X69219383Y-92533721D01*
X69326644Y-92581476D01*
X69328645Y-92582388D01*
X69435076Y-92632018D01*
X69435079Y-92632019D01*
X69439061Y-92633876D01*
X69443269Y-92635163D01*
X69443270Y-92635163D01*
X69448532Y-92636772D01*
X69462933Y-92642156D01*
X69471975Y-92646182D01*
X69589095Y-92679766D01*
X69591159Y-92680377D01*
X69707683Y-92716002D01*
X69717473Y-92717553D01*
X69732472Y-92720878D01*
X69741990Y-92723607D01*
X69782356Y-92729280D01*
X69862571Y-92740554D01*
X69864745Y-92740879D01*
X69954623Y-92755114D01*
X69985120Y-92759944D01*
X69989518Y-92760021D01*
X69989522Y-92760021D01*
X69995030Y-92760117D01*
X70010360Y-92761324D01*
X70020152Y-92762700D01*
X70141912Y-92762700D01*
X70144110Y-92762719D01*
X70265974Y-92764846D01*
X70270330Y-92764311D01*
X70270333Y-92764311D01*
X70273388Y-92763936D01*
X70275806Y-92763639D01*
X70291159Y-92762700D01*
X73991500Y-92762700D01*
X74059621Y-92782702D01*
X74106114Y-92836358D01*
X74117500Y-92888700D01*
X74117500Y-93502334D01*
X74124255Y-93564516D01*
X74175385Y-93700905D01*
X74262739Y-93817461D01*
X74379295Y-93904815D01*
X74515684Y-93955945D01*
X74577866Y-93962700D01*
X77574134Y-93962700D01*
X77636316Y-93955945D01*
X77772705Y-93904815D01*
X77889261Y-93817461D01*
X77976615Y-93700905D01*
X78027745Y-93564516D01*
X78034500Y-93502334D01*
X78034500Y-91216824D01*
X78038243Y-91186342D01*
X78057753Y-91108093D01*
X78057754Y-91108088D01*
X78058817Y-91103824D01*
X78062483Y-91068949D01*
X78087719Y-90828836D01*
X78087719Y-90828833D01*
X78088178Y-90824467D01*
X78085605Y-90750767D01*
X78078529Y-90548141D01*
X78078528Y-90548136D01*
X78078375Y-90543742D01*
X78061448Y-90447745D01*
X78069317Y-90377188D01*
X78096439Y-90336772D01*
X81352291Y-87080920D01*
X81360776Y-87073756D01*
X81360592Y-87073543D01*
X81365128Y-87069628D01*
X81370021Y-87066157D01*
X81435605Y-86997647D01*
X81437528Y-86995683D01*
X81465718Y-86967493D01*
X81470607Y-86961573D01*
X81476739Y-86954679D01*
X81515437Y-86914254D01*
X81515440Y-86914250D01*
X81519590Y-86909915D01*
X81538259Y-86881002D01*
X81546955Y-86869119D01*
X81565057Y-86847198D01*
X81568876Y-86842574D01*
X81598588Y-86788191D01*
X81603297Y-86780276D01*
X81636916Y-86728209D01*
X81649787Y-86696272D01*
X81656073Y-86682976D01*
X81672579Y-86652764D01*
X81691468Y-86593754D01*
X81694604Y-86585067D01*
X81715526Y-86533154D01*
X81717766Y-86527596D01*
X81724363Y-86493815D01*
X81728025Y-86479553D01*
X81736689Y-86452488D01*
X81736691Y-86452478D01*
X81738519Y-86446768D01*
X81739235Y-86440812D01*
X81739236Y-86440805D01*
X81745911Y-86385245D01*
X81747347Y-86376125D01*
X81758353Y-86319762D01*
X81759222Y-86315313D01*
X81759500Y-86309629D01*
X81759500Y-86279655D01*
X81760399Y-86264627D01*
X81763602Y-86237967D01*
X81763602Y-86237963D01*
X81764316Y-86232020D01*
X81759815Y-86168445D01*
X81759500Y-86159547D01*
X81759500Y-82853901D01*
X81779502Y-82785780D01*
X81833158Y-82739287D01*
X81903432Y-82729183D01*
X81968012Y-82758677D01*
X81974595Y-82764806D01*
X84805595Y-85595806D01*
X84839621Y-85658118D01*
X84842500Y-85684901D01*
X84842500Y-87419700D01*
X84822498Y-87487821D01*
X84768842Y-87534314D01*
X84716500Y-87545700D01*
X84477866Y-87545700D01*
X84415684Y-87552455D01*
X84279295Y-87603585D01*
X84162739Y-87690939D01*
X84075385Y-87807495D01*
X84024255Y-87943884D01*
X84017500Y-88006066D01*
X84017500Y-88412168D01*
X83997498Y-88480289D01*
X83977271Y-88504468D01*
X83800904Y-88668358D01*
X83575578Y-88932181D01*
X83573561Y-88935183D01*
X83573560Y-88935184D01*
X83572944Y-88936101D01*
X83382069Y-89220153D01*
X83222940Y-89528459D01*
X83100302Y-89853011D01*
X83015780Y-90189508D01*
X83015307Y-90193101D01*
X82975607Y-90494655D01*
X82970494Y-90533489D01*
X82968816Y-90640319D01*
X82965923Y-90824467D01*
X82965044Y-90880396D01*
X82965405Y-90884010D01*
X82965405Y-90884016D01*
X82968731Y-90917339D01*
X82999503Y-91225631D01*
X83073414Y-91564617D01*
X83185797Y-91892861D01*
X83335163Y-92206012D01*
X83519532Y-92499921D01*
X83521804Y-92502757D01*
X83521809Y-92502764D01*
X83671878Y-92690081D01*
X83736459Y-92770691D01*
X83750530Y-92784615D01*
X83980128Y-93011822D01*
X84014479Y-93073956D01*
X84017500Y-93101383D01*
X84017500Y-93502334D01*
X84024255Y-93564516D01*
X84075385Y-93700905D01*
X84162739Y-93817461D01*
X84279295Y-93904815D01*
X84415684Y-93955945D01*
X84477866Y-93962700D01*
X87474134Y-93962700D01*
X87536316Y-93955945D01*
X87672705Y-93904815D01*
X87789261Y-93817461D01*
X87794642Y-93810281D01*
X87800992Y-93803931D01*
X87802627Y-93805566D01*
X87849359Y-93770621D01*
X87893329Y-93762700D01*
X88269300Y-93762700D01*
X88337421Y-93782702D01*
X88383914Y-93836358D01*
X88395300Y-93888700D01*
X88395300Y-94267934D01*
X88402055Y-94330116D01*
X88453185Y-94466505D01*
X88540539Y-94583061D01*
X88657095Y-94670415D01*
X88793484Y-94721545D01*
X88855666Y-94728300D01*
X98951934Y-94728300D01*
X99014116Y-94721545D01*
X99150505Y-94670415D01*
X99267061Y-94583061D01*
X99354415Y-94466505D01*
X99405545Y-94330116D01*
X99412300Y-94267934D01*
X99412300Y-78171666D01*
X99405545Y-78109484D01*
X99354415Y-77973095D01*
X99267061Y-77856539D01*
X99150505Y-77769185D01*
X99014116Y-77718055D01*
X98951934Y-77711300D01*
X88855666Y-77711300D01*
X88793484Y-77718055D01*
X88657095Y-77769185D01*
X88540539Y-77856539D01*
X88453185Y-77973095D01*
X88402055Y-78109484D01*
X88395300Y-78171666D01*
X88395300Y-87619700D01*
X88375298Y-87687821D01*
X88321642Y-87734314D01*
X88269300Y-87745700D01*
X87893329Y-87745700D01*
X87825208Y-87725698D01*
X87801668Y-87703793D01*
X87800992Y-87704469D01*
X87794642Y-87698119D01*
X87789261Y-87690939D01*
X87672705Y-87603585D01*
X87536316Y-87552455D01*
X87474134Y-87545700D01*
X87235500Y-87545700D01*
X87167379Y-87525698D01*
X87120886Y-87472042D01*
X87109500Y-87419700D01*
X87109500Y-85269568D01*
X87110433Y-85258507D01*
X87110153Y-85258486D01*
X87110592Y-85252513D01*
X87111598Y-85246594D01*
X87109530Y-85151811D01*
X87109500Y-85149063D01*
X87109500Y-85109159D01*
X87108770Y-85101511D01*
X87108231Y-85092299D01*
X87107011Y-85036352D01*
X87107011Y-85036350D01*
X87106880Y-85030353D01*
X87099633Y-84996691D01*
X87097382Y-84982146D01*
X87094683Y-84953862D01*
X87094113Y-84947885D01*
X87076671Y-84888432D01*
X87074400Y-84879487D01*
X87062620Y-84824771D01*
X87062617Y-84824760D01*
X87061356Y-84818905D01*
X87047880Y-84787234D01*
X87042916Y-84773371D01*
X87033226Y-84740340D01*
X87004853Y-84685250D01*
X87000932Y-84676897D01*
X86979020Y-84625402D01*
X86976671Y-84619881D01*
X86957446Y-84591325D01*
X86949950Y-84578650D01*
X86936938Y-84553386D01*
X86934191Y-84548052D01*
X86895919Y-84499330D01*
X86890485Y-84491865D01*
X86855878Y-84440460D01*
X86852055Y-84436244D01*
X86830862Y-84415051D01*
X86820871Y-84403789D01*
X86804288Y-84382678D01*
X86800583Y-84377961D01*
X86752435Y-84336180D01*
X86745922Y-84330111D01*
X83496405Y-81080594D01*
X83462379Y-81018282D01*
X83459500Y-80991499D01*
X83459500Y-79431900D01*
X83479502Y-79363779D01*
X83533158Y-79317286D01*
X83585500Y-79305900D01*
X84624134Y-79305900D01*
X84686316Y-79299145D01*
X84822705Y-79248015D01*
X84939261Y-79160661D01*
X85026615Y-79044105D01*
X85077745Y-78907716D01*
X85084500Y-78845534D01*
X85084500Y-74149266D01*
X85077745Y-74087084D01*
X85026615Y-73950695D01*
X84939261Y-73834139D01*
X84822705Y-73746785D01*
X84686316Y-73695655D01*
X84624134Y-73688900D01*
X83427866Y-73688900D01*
X83365684Y-73695655D01*
X83352579Y-73700568D01*
X83237699Y-73743634D01*
X83237696Y-73743636D01*
X83229295Y-73746785D01*
X83228976Y-73745934D01*
X83167151Y-73759455D01*
X83122834Y-73746442D01*
X83122705Y-73746785D01*
X83118019Y-73745028D01*
X83118015Y-73745027D01*
X83114304Y-73743636D01*
X83114301Y-73743634D01*
X82999421Y-73700568D01*
X82986316Y-73695655D01*
X82924134Y-73688900D01*
X81885500Y-73688900D01*
X81817379Y-73668898D01*
X81770886Y-73615242D01*
X81759500Y-73562900D01*
X81759500Y-72681900D01*
X81779502Y-72613779D01*
X81833158Y-72567286D01*
X81885500Y-72555900D01*
X86074134Y-72555900D01*
X86136316Y-72549145D01*
X86272705Y-72498015D01*
X86389261Y-72410661D01*
X86476615Y-72294105D01*
X86527745Y-72157716D01*
X86534500Y-72095534D01*
X86534500Y-62599266D01*
X86527745Y-62537084D01*
X86476615Y-62400695D01*
X86389261Y-62284139D01*
X86272705Y-62196785D01*
X86136316Y-62145655D01*
X86074134Y-62138900D01*
X75177866Y-62138900D01*
X75115684Y-62145655D01*
X74979295Y-62196785D01*
X74862739Y-62284139D01*
X74775385Y-62400695D01*
X74724255Y-62537084D01*
X74717500Y-62599266D01*
X74717500Y-72095534D01*
X74724255Y-72157716D01*
X74775385Y-72294105D01*
X74862739Y-72410661D01*
X74979295Y-72498015D01*
X75115684Y-72549145D01*
X75177866Y-72555900D01*
X79366500Y-72555900D01*
X79434621Y-72575902D01*
X79481114Y-72629558D01*
X79492500Y-72681900D01*
X79492500Y-73562900D01*
X79472498Y-73631021D01*
X79418842Y-73677514D01*
X79366500Y-73688900D01*
X78327866Y-73688900D01*
X78265684Y-73695655D01*
X78252579Y-73700568D01*
X78137699Y-73743634D01*
X78137696Y-73743636D01*
X78129295Y-73746785D01*
X78128976Y-73745934D01*
X78067151Y-73759455D01*
X78022834Y-73746442D01*
X78022705Y-73746785D01*
X78018019Y-73745028D01*
X78018015Y-73745027D01*
X78014304Y-73743636D01*
X78014301Y-73743634D01*
X77899421Y-73700568D01*
X77886316Y-73695655D01*
X77824134Y-73688900D01*
X76627866Y-73688900D01*
X76565684Y-73695655D01*
X76429295Y-73746785D01*
X76312739Y-73834139D01*
X76225385Y-73950695D01*
X76174255Y-74087084D01*
X76167500Y-74149266D01*
X76167500Y-75900699D01*
X76147498Y-75968820D01*
X76130595Y-75989794D01*
X75185794Y-76934595D01*
X75123482Y-76968621D01*
X75096699Y-76971500D01*
X72767759Y-76971500D01*
X72757667Y-76972463D01*
X72756963Y-76972530D01*
X72744996Y-76973100D01*
X72349600Y-76973100D01*
X72346354Y-76973437D01*
X72346350Y-76973437D01*
X72250692Y-76983362D01*
X72250688Y-76983363D01*
X72243834Y-76984074D01*
X72237298Y-76986255D01*
X72237296Y-76986255D01*
X72105194Y-77030328D01*
X72076054Y-77040050D01*
X71925652Y-77133122D01*
X71800695Y-77258297D01*
X71707885Y-77408862D01*
X71705581Y-77415809D01*
X71676754Y-77502721D01*
X71652203Y-77576739D01*
X71651503Y-77583575D01*
X71651502Y-77583578D01*
X71647599Y-77621678D01*
X71641500Y-77681200D01*
X71641500Y-78570429D01*
X71621498Y-78638550D01*
X71567842Y-78685043D01*
X71497568Y-78695147D01*
X71432988Y-78665653D01*
X71426405Y-78659524D01*
X71051805Y-78284924D01*
X71017779Y-78222612D01*
X71014900Y-78195829D01*
X71014900Y-75478695D01*
X71642001Y-75478695D01*
X71642338Y-75485214D01*
X71652257Y-75580806D01*
X71655149Y-75594200D01*
X71706588Y-75748384D01*
X71712761Y-75761562D01*
X71798063Y-75899407D01*
X71807099Y-75910808D01*
X71921829Y-76025339D01*
X71933240Y-76034351D01*
X72071243Y-76119416D01*
X72084424Y-76125563D01*
X72238710Y-76176738D01*
X72252086Y-76179605D01*
X72346438Y-76189272D01*
X72352854Y-76189600D01*
X72752885Y-76189600D01*
X72768124Y-76185125D01*
X72769329Y-76183735D01*
X72771000Y-76176052D01*
X72771000Y-76171484D01*
X73279000Y-76171484D01*
X73283475Y-76186723D01*
X73284865Y-76187928D01*
X73292548Y-76189599D01*
X73697095Y-76189599D01*
X73703614Y-76189262D01*
X73799206Y-76179343D01*
X73812600Y-76176451D01*
X73966784Y-76125012D01*
X73979962Y-76118839D01*
X74117807Y-76033537D01*
X74129208Y-76024501D01*
X74243739Y-75909771D01*
X74252751Y-75898360D01*
X74337816Y-75760357D01*
X74343963Y-75747176D01*
X74395138Y-75592890D01*
X74398005Y-75579514D01*
X74407672Y-75485162D01*
X74408000Y-75478746D01*
X74408000Y-75303715D01*
X74403525Y-75288476D01*
X74402135Y-75287271D01*
X74394452Y-75285600D01*
X73297115Y-75285600D01*
X73281876Y-75290075D01*
X73280671Y-75291465D01*
X73279000Y-75299148D01*
X73279000Y-76171484D01*
X72771000Y-76171484D01*
X72771000Y-75303715D01*
X72766525Y-75288476D01*
X72765135Y-75287271D01*
X72757452Y-75285600D01*
X71660116Y-75285600D01*
X71644877Y-75290075D01*
X71643672Y-75291465D01*
X71642001Y-75299148D01*
X71642001Y-75478695D01*
X71014900Y-75478695D01*
X71014900Y-74759485D01*
X71642000Y-74759485D01*
X71646475Y-74774724D01*
X71647865Y-74775929D01*
X71655548Y-74777600D01*
X72752885Y-74777600D01*
X72768124Y-74773125D01*
X72769329Y-74771735D01*
X72771000Y-74764052D01*
X72771000Y-74759485D01*
X73279000Y-74759485D01*
X73283475Y-74774724D01*
X73284865Y-74775929D01*
X73292548Y-74777600D01*
X74389884Y-74777600D01*
X74405123Y-74773125D01*
X74406328Y-74771735D01*
X74407999Y-74764052D01*
X74407999Y-74584505D01*
X74407662Y-74577986D01*
X74397743Y-74482394D01*
X74394851Y-74469000D01*
X74343412Y-74314816D01*
X74337239Y-74301638D01*
X74251937Y-74163793D01*
X74242901Y-74152392D01*
X74128171Y-74037861D01*
X74116760Y-74028849D01*
X73978757Y-73943784D01*
X73965576Y-73937637D01*
X73811290Y-73886462D01*
X73797914Y-73883595D01*
X73703562Y-73873928D01*
X73697145Y-73873600D01*
X73297115Y-73873600D01*
X73281876Y-73878075D01*
X73280671Y-73879465D01*
X73279000Y-73887148D01*
X73279000Y-74759485D01*
X72771000Y-74759485D01*
X72771000Y-73891716D01*
X72766525Y-73876477D01*
X72765135Y-73875272D01*
X72757452Y-73873601D01*
X72352905Y-73873601D01*
X72346386Y-73873938D01*
X72250794Y-73883857D01*
X72237400Y-73886749D01*
X72083216Y-73938188D01*
X72070038Y-73944361D01*
X71932193Y-74029663D01*
X71920792Y-74038699D01*
X71806261Y-74153429D01*
X71797249Y-74164840D01*
X71712184Y-74302843D01*
X71706037Y-74316024D01*
X71654862Y-74470310D01*
X71651995Y-74483686D01*
X71642328Y-74578038D01*
X71642000Y-74584455D01*
X71642000Y-74759485D01*
X71014900Y-74759485D01*
X71014900Y-68570870D01*
X71016333Y-68551920D01*
X71018499Y-68537685D01*
X71018499Y-68537681D01*
X71019599Y-68530451D01*
X71015315Y-68477782D01*
X71014900Y-68467567D01*
X71014900Y-68459507D01*
X71011609Y-68431280D01*
X71011178Y-68426921D01*
X71011004Y-68424779D01*
X71005260Y-68354164D01*
X71003005Y-68347203D01*
X71001818Y-68341263D01*
X71000429Y-68335388D01*
X70999582Y-68328119D01*
X70974664Y-68259470D01*
X70973247Y-68255342D01*
X70953007Y-68192864D01*
X70953006Y-68192862D01*
X70950751Y-68185901D01*
X70946955Y-68179646D01*
X70944449Y-68174172D01*
X70941730Y-68168742D01*
X70939233Y-68161863D01*
X70899214Y-68100824D01*
X70896867Y-68097105D01*
X70896005Y-68095684D01*
X70858995Y-68034693D01*
X70851597Y-68026316D01*
X70851624Y-68026292D01*
X70848971Y-68023300D01*
X70846268Y-68020067D01*
X70842256Y-68013948D01*
X70786017Y-67960672D01*
X70783575Y-67958294D01*
X68468570Y-65643289D01*
X68456184Y-65628877D01*
X68447651Y-65617282D01*
X68447646Y-65617277D01*
X68443308Y-65611382D01*
X68437730Y-65606643D01*
X68437727Y-65606640D01*
X68403032Y-65577165D01*
X68395516Y-65570235D01*
X68389821Y-65564540D01*
X68383680Y-65559682D01*
X68367549Y-65546919D01*
X68364145Y-65544128D01*
X68314097Y-65501609D01*
X68314095Y-65501608D01*
X68308515Y-65496867D01*
X68301999Y-65493539D01*
X68296950Y-65490172D01*
X68291821Y-65487005D01*
X68286084Y-65482466D01*
X68219925Y-65451545D01*
X68216025Y-65449639D01*
X68150992Y-65416431D01*
X68143884Y-65414692D01*
X68138241Y-65412593D01*
X68132478Y-65410676D01*
X68125850Y-65407578D01*
X68054383Y-65392713D01*
X68050099Y-65391743D01*
X67979190Y-65374392D01*
X67973588Y-65374044D01*
X67973585Y-65374044D01*
X67968036Y-65373700D01*
X67968038Y-65373664D01*
X67964045Y-65373425D01*
X67959853Y-65373051D01*
X67952685Y-65371560D01*
X67897422Y-65373055D01*
X67875279Y-65373654D01*
X67871872Y-65373700D01*
X61673554Y-65373700D01*
X61638402Y-65368697D01*
X61499811Y-65328433D01*
X61499807Y-65328432D01*
X61493631Y-65326638D01*
X61487226Y-65326134D01*
X61487221Y-65326133D01*
X61458758Y-65323893D01*
X61458750Y-65323893D01*
X61456302Y-65323700D01*
X59673298Y-65323700D01*
X59670850Y-65323893D01*
X59670842Y-65323893D01*
X59642379Y-65326133D01*
X59642374Y-65326134D01*
X59635969Y-65326638D01*
X59536031Y-65355672D01*
X59483812Y-65370843D01*
X59483810Y-65370844D01*
X59476199Y-65373055D01*
X59469372Y-65377092D01*
X59469373Y-65377092D01*
X59339820Y-65453709D01*
X59339817Y-65453711D01*
X59332993Y-65457747D01*
X59215347Y-65575393D01*
X59211311Y-65582217D01*
X59211309Y-65582220D01*
X59175193Y-65643289D01*
X59130655Y-65718599D01*
X59084238Y-65878369D01*
X59081300Y-65915698D01*
X59081300Y-66348702D01*
X59084238Y-66386031D01*
X59130655Y-66545801D01*
X59215347Y-66689007D01*
X59218029Y-66691689D01*
X59243302Y-66756061D01*
X59229400Y-66825684D01*
X59219228Y-66841512D01*
X59215347Y-66845393D01*
X59130655Y-66988599D01*
X59084238Y-67148369D01*
X59081300Y-67185698D01*
X59081300Y-67618702D01*
X59084238Y-67656031D01*
X59130655Y-67815801D01*
X59215347Y-67959007D01*
X59218029Y-67961689D01*
X59243302Y-68026061D01*
X59229400Y-68095684D01*
X59219228Y-68111512D01*
X59215347Y-68115393D01*
X59130655Y-68258599D01*
X59084238Y-68418369D01*
X59083734Y-68424774D01*
X59083733Y-68424779D01*
X59083220Y-68431297D01*
X59081300Y-68455698D01*
X59081300Y-68888702D01*
X59084238Y-68926031D01*
X59130655Y-69085801D01*
X59215347Y-69229007D01*
X59218029Y-69231689D01*
X59243302Y-69296061D01*
X59229400Y-69365684D01*
X59219228Y-69381512D01*
X59215347Y-69385393D01*
X59130655Y-69528599D01*
X59128444Y-69536210D01*
X59128443Y-69536212D01*
X59113272Y-69588431D01*
X59084238Y-69688369D01*
X59081300Y-69725698D01*
X59081300Y-70158702D01*
X59081493Y-70161150D01*
X59081493Y-70161158D01*
X59083268Y-70183703D01*
X59084238Y-70196031D01*
X59086033Y-70202208D01*
X59128386Y-70347990D01*
X59130655Y-70355801D01*
X59215347Y-70499007D01*
X59218029Y-70501689D01*
X59243302Y-70566061D01*
X59229400Y-70635684D01*
X59219228Y-70651512D01*
X59215347Y-70655393D01*
X59130655Y-70798599D01*
X59084238Y-70958369D01*
X59081300Y-70995698D01*
X59081300Y-71428702D01*
X59084238Y-71466031D01*
X59130655Y-71625801D01*
X59215347Y-71769007D01*
X59218029Y-71771689D01*
X59243302Y-71836061D01*
X59229400Y-71905684D01*
X59219228Y-71921512D01*
X59215347Y-71925393D01*
X59130655Y-72068599D01*
X59128444Y-72076210D01*
X59128443Y-72076212D01*
X59113272Y-72128431D01*
X59084238Y-72228369D01*
X59081300Y-72265698D01*
X59081300Y-72698702D01*
X59084238Y-72736031D01*
X59086033Y-72742208D01*
X59128031Y-72886768D01*
X59130655Y-72895801D01*
X59215347Y-73039007D01*
X59218029Y-73041689D01*
X59243302Y-73106061D01*
X59229400Y-73175684D01*
X59219228Y-73191512D01*
X59215347Y-73195393D01*
X59130655Y-73338599D01*
X59084238Y-73498369D01*
X59081300Y-73535698D01*
X59081300Y-73968702D01*
X57098300Y-73968702D01*
X57098300Y-73535698D01*
X57095362Y-73498369D01*
X57048945Y-73338599D01*
X56964253Y-73195393D01*
X56961571Y-73192711D01*
X56936298Y-73128339D01*
X56950200Y-73058716D01*
X56960372Y-73042888D01*
X56964253Y-73039007D01*
X57048945Y-72895801D01*
X57051570Y-72886768D01*
X57093567Y-72742208D01*
X57095362Y-72736031D01*
X57098300Y-72698702D01*
X57098300Y-72265698D01*
X57095362Y-72228369D01*
X57066328Y-72128431D01*
X57051157Y-72076212D01*
X57051156Y-72076210D01*
X57048945Y-72068599D01*
X56964253Y-71925393D01*
X56961571Y-71922711D01*
X56936298Y-71858339D01*
X56950200Y-71788716D01*
X56960372Y-71772888D01*
X56964253Y-71769007D01*
X57048945Y-71625801D01*
X57095362Y-71466031D01*
X57098300Y-71428702D01*
X57098300Y-70995698D01*
X57095362Y-70958369D01*
X57048945Y-70798599D01*
X56964253Y-70655393D01*
X56961313Y-70652453D01*
X56935980Y-70587934D01*
X56949879Y-70518311D01*
X56961926Y-70499564D01*
X56967890Y-70491876D01*
X57044448Y-70362421D01*
X57050693Y-70347990D01*
X57089739Y-70213595D01*
X57089699Y-70199494D01*
X57082430Y-70196200D01*
X54152922Y-70196200D01*
X54139391Y-70200173D01*
X54138256Y-70208071D01*
X54178907Y-70347990D01*
X54185152Y-70362421D01*
X54261711Y-70491877D01*
X54267671Y-70499560D01*
X54293620Y-70565644D01*
X54279722Y-70635267D01*
X54269379Y-70651361D01*
X54265347Y-70655393D01*
X54180655Y-70798599D01*
X54134238Y-70958369D01*
X54131300Y-70995698D01*
X54131300Y-71428702D01*
X54134238Y-71466031D01*
X54180655Y-71625801D01*
X54265347Y-71769007D01*
X54268029Y-71771689D01*
X54293302Y-71836061D01*
X54279400Y-71905684D01*
X54269228Y-71921512D01*
X54265347Y-71925393D01*
X54180655Y-72068599D01*
X54178444Y-72076210D01*
X54178443Y-72076212D01*
X54163272Y-72128431D01*
X54134238Y-72228369D01*
X54131300Y-72265698D01*
X54131300Y-72698702D01*
X54134238Y-72736031D01*
X54136033Y-72742208D01*
X54178031Y-72886768D01*
X54180655Y-72895801D01*
X54265347Y-73039007D01*
X54268029Y-73041689D01*
X54293302Y-73106061D01*
X54279400Y-73175684D01*
X54269228Y-73191512D01*
X54265347Y-73195393D01*
X54180655Y-73338599D01*
X54134238Y-73498369D01*
X54131300Y-73535698D01*
X54131300Y-73968702D01*
X38757100Y-73968702D01*
X38757100Y-70373866D01*
X38750345Y-70311684D01*
X38699215Y-70175295D01*
X38611861Y-70058739D01*
X38495305Y-69971385D01*
X38358916Y-69920255D01*
X38296734Y-69913500D01*
X28200466Y-69913500D01*
X28138284Y-69920255D01*
X28001895Y-69971385D01*
X27885339Y-70058739D01*
X27797985Y-70175295D01*
X27746855Y-70311684D01*
X27740100Y-70373866D01*
X27740100Y-86470134D01*
X23368000Y-86470134D01*
X23368000Y-68888702D01*
X54131300Y-68888702D01*
X54134238Y-68926031D01*
X54180655Y-69085801D01*
X54184692Y-69092627D01*
X54238712Y-69183969D01*
X54265347Y-69229007D01*
X54268287Y-69231947D01*
X54293620Y-69296466D01*
X54279721Y-69366089D01*
X54267674Y-69384836D01*
X54261710Y-69392524D01*
X54185152Y-69521979D01*
X54178907Y-69536410D01*
X54139861Y-69670805D01*
X54139901Y-69684906D01*
X54147170Y-69688200D01*
X57076678Y-69688200D01*
X57090209Y-69684227D01*
X57091344Y-69676329D01*
X57050693Y-69536410D01*
X57044448Y-69521979D01*
X56967889Y-69392523D01*
X56961929Y-69384840D01*
X56935980Y-69318756D01*
X56949878Y-69249133D01*
X56960221Y-69233039D01*
X56964253Y-69229007D01*
X57048945Y-69085801D01*
X57095362Y-68926031D01*
X57098300Y-68888702D01*
X57098300Y-68455698D01*
X57096380Y-68431297D01*
X57095867Y-68424779D01*
X57095866Y-68424774D01*
X57095362Y-68418369D01*
X57048945Y-68258599D01*
X56964253Y-68115393D01*
X56961571Y-68112711D01*
X56936298Y-68048339D01*
X56950200Y-67978716D01*
X56960372Y-67962888D01*
X56964253Y-67959007D01*
X57048945Y-67815801D01*
X57095362Y-67656031D01*
X57098300Y-67618702D01*
X57098300Y-67185698D01*
X57095362Y-67148369D01*
X57048945Y-66988599D01*
X56964253Y-66845393D01*
X56961571Y-66842711D01*
X56936298Y-66778339D01*
X56950200Y-66708716D01*
X56960372Y-66692888D01*
X56964253Y-66689007D01*
X57048945Y-66545801D01*
X57095362Y-66386031D01*
X57098300Y-66348702D01*
X57098300Y-65915698D01*
X57095362Y-65878369D01*
X57048945Y-65718599D01*
X57004407Y-65643289D01*
X56968291Y-65582220D01*
X56968289Y-65582217D01*
X56964253Y-65575393D01*
X56846607Y-65457747D01*
X56839783Y-65453711D01*
X56839780Y-65453709D01*
X56710227Y-65377092D01*
X56710228Y-65377092D01*
X56703401Y-65373055D01*
X56695790Y-65370844D01*
X56695788Y-65370843D01*
X56643569Y-65355672D01*
X56543631Y-65326638D01*
X56537226Y-65326134D01*
X56537221Y-65326133D01*
X56508758Y-65323893D01*
X56508750Y-65323893D01*
X56506302Y-65323700D01*
X54723298Y-65323700D01*
X54720850Y-65323893D01*
X54720842Y-65323893D01*
X54692379Y-65326133D01*
X54692374Y-65326134D01*
X54685969Y-65326638D01*
X54586031Y-65355672D01*
X54533812Y-65370843D01*
X54533810Y-65370844D01*
X54526199Y-65373055D01*
X54519372Y-65377092D01*
X54519373Y-65377092D01*
X54389820Y-65453709D01*
X54389817Y-65453711D01*
X54382993Y-65457747D01*
X54265347Y-65575393D01*
X54261311Y-65582217D01*
X54261309Y-65582220D01*
X54225193Y-65643289D01*
X54180655Y-65718599D01*
X54134238Y-65878369D01*
X54131300Y-65915698D01*
X54131300Y-66348702D01*
X54134238Y-66386031D01*
X54180655Y-66545801D01*
X54265347Y-66689007D01*
X54268029Y-66691689D01*
X54293302Y-66756061D01*
X54279400Y-66825684D01*
X54269228Y-66841512D01*
X54265347Y-66845393D01*
X54180655Y-66988599D01*
X54134238Y-67148369D01*
X54131300Y-67185698D01*
X54131300Y-67618702D01*
X54134238Y-67656031D01*
X54180655Y-67815801D01*
X54265347Y-67959007D01*
X54268029Y-67961689D01*
X54293302Y-68026061D01*
X54279400Y-68095684D01*
X54269228Y-68111512D01*
X54265347Y-68115393D01*
X54180655Y-68258599D01*
X54134238Y-68418369D01*
X54133734Y-68424774D01*
X54133733Y-68424779D01*
X54133220Y-68431297D01*
X54131300Y-68455698D01*
X54131300Y-68888702D01*
X23368000Y-68888702D01*
X23368000Y-60324000D01*
X23388002Y-60255879D01*
X23441658Y-60209386D01*
X23494000Y-60198000D01*
X99696000Y-60198000D01*
X99764121Y-60218002D01*
G37*
%TD.AperFunction*%
%TD*%
M02*
