%TF.GenerationSoftware,KiCad,Pcbnew,(6.0.2)*%
%TF.CreationDate,2022-03-20T03:32:58-07:00*%
%TF.ProjectId,ChargerPOC,43686172-6765-4725-904f-432e6b696361,rev?*%
%TF.SameCoordinates,Original*%
%TF.FileFunction,Legend,Bot*%
%TF.FilePolarity,Positive*%
%FSLAX46Y46*%
G04 Gerber Fmt 4.6, Leading zero omitted, Abs format (unit mm)*
G04 Created by KiCad (PCBNEW (6.0.2)) date 2022-03-20 03:32:58*
%MOMM*%
%LPD*%
G01*
G04 APERTURE LIST*
%ADD10C,0.150000*%
%ADD11C,0.120000*%
G04 APERTURE END LIST*
D10*
%TO.C,U9*%
X55489180Y-67868895D02*
X56298704Y-67868895D01*
X56393942Y-67916514D01*
X56441561Y-67964133D01*
X56489180Y-68059371D01*
X56489180Y-68249847D01*
X56441561Y-68345085D01*
X56393942Y-68392704D01*
X56298704Y-68440323D01*
X55489180Y-68440323D01*
X56489180Y-68964133D02*
X56489180Y-69154609D01*
X56441561Y-69249847D01*
X56393942Y-69297466D01*
X56251085Y-69392704D01*
X56060609Y-69440323D01*
X55679657Y-69440323D01*
X55584419Y-69392704D01*
X55536800Y-69345085D01*
X55489180Y-69249847D01*
X55489180Y-69059371D01*
X55536800Y-68964133D01*
X55584419Y-68916514D01*
X55679657Y-68868895D01*
X55917752Y-68868895D01*
X56012990Y-68916514D01*
X56060609Y-68964133D01*
X56108228Y-69059371D01*
X56108228Y-69249847D01*
X56060609Y-69345085D01*
X56012990Y-69392704D01*
X55917752Y-69440323D01*
%TO.C,U4*%
X35356704Y-93886780D02*
X35356704Y-94696304D01*
X35309085Y-94791542D01*
X35261466Y-94839161D01*
X35166228Y-94886780D01*
X34975752Y-94886780D01*
X34880514Y-94839161D01*
X34832895Y-94791542D01*
X34785276Y-94696304D01*
X34785276Y-93886780D01*
X33880514Y-94220114D02*
X33880514Y-94886780D01*
X34118609Y-93839161D02*
X34356704Y-94553447D01*
X33737657Y-94553447D01*
%TO.C,R23*%
X42591980Y-126703342D02*
X42115790Y-126370009D01*
X42591980Y-126131914D02*
X41591980Y-126131914D01*
X41591980Y-126512866D01*
X41639600Y-126608104D01*
X41687219Y-126655723D01*
X41782457Y-126703342D01*
X41925314Y-126703342D01*
X42020552Y-126655723D01*
X42068171Y-126608104D01*
X42115790Y-126512866D01*
X42115790Y-126131914D01*
X41687219Y-127084295D02*
X41639600Y-127131914D01*
X41591980Y-127227152D01*
X41591980Y-127465247D01*
X41639600Y-127560485D01*
X41687219Y-127608104D01*
X41782457Y-127655723D01*
X41877695Y-127655723D01*
X42020552Y-127608104D01*
X42591980Y-127036676D01*
X42591980Y-127655723D01*
X41591980Y-127989057D02*
X41591980Y-128608104D01*
X41972933Y-128274771D01*
X41972933Y-128417628D01*
X42020552Y-128512866D01*
X42068171Y-128560485D01*
X42163409Y-128608104D01*
X42401504Y-128608104D01*
X42496742Y-128560485D01*
X42544361Y-128512866D01*
X42591980Y-128417628D01*
X42591980Y-128131914D01*
X42544361Y-128036676D01*
X42496742Y-127989057D01*
%TO.C,R22*%
X42464980Y-122486942D02*
X41988790Y-122153609D01*
X42464980Y-121915514D02*
X41464980Y-121915514D01*
X41464980Y-122296466D01*
X41512600Y-122391704D01*
X41560219Y-122439323D01*
X41655457Y-122486942D01*
X41798314Y-122486942D01*
X41893552Y-122439323D01*
X41941171Y-122391704D01*
X41988790Y-122296466D01*
X41988790Y-121915514D01*
X41560219Y-122867895D02*
X41512600Y-122915514D01*
X41464980Y-123010752D01*
X41464980Y-123248847D01*
X41512600Y-123344085D01*
X41560219Y-123391704D01*
X41655457Y-123439323D01*
X41750695Y-123439323D01*
X41893552Y-123391704D01*
X42464980Y-122820276D01*
X42464980Y-123439323D01*
X41560219Y-123820276D02*
X41512600Y-123867895D01*
X41464980Y-123963133D01*
X41464980Y-124201228D01*
X41512600Y-124296466D01*
X41560219Y-124344085D01*
X41655457Y-124391704D01*
X41750695Y-124391704D01*
X41893552Y-124344085D01*
X42464980Y-123772657D01*
X42464980Y-124391704D01*
%TO.C,R21*%
X48510180Y-113469942D02*
X48033990Y-113136609D01*
X48510180Y-112898514D02*
X47510180Y-112898514D01*
X47510180Y-113279466D01*
X47557800Y-113374704D01*
X47605419Y-113422323D01*
X47700657Y-113469942D01*
X47843514Y-113469942D01*
X47938752Y-113422323D01*
X47986371Y-113374704D01*
X48033990Y-113279466D01*
X48033990Y-112898514D01*
X47605419Y-113850895D02*
X47557800Y-113898514D01*
X47510180Y-113993752D01*
X47510180Y-114231847D01*
X47557800Y-114327085D01*
X47605419Y-114374704D01*
X47700657Y-114422323D01*
X47795895Y-114422323D01*
X47938752Y-114374704D01*
X48510180Y-113803276D01*
X48510180Y-114422323D01*
X48510180Y-115374704D02*
X48510180Y-114803276D01*
X48510180Y-115088990D02*
X47510180Y-115088990D01*
X47653038Y-114993752D01*
X47748276Y-114898514D01*
X47795895Y-114803276D01*
%TO.C,R20*%
X48560980Y-109348542D02*
X48084790Y-109015209D01*
X48560980Y-108777114D02*
X47560980Y-108777114D01*
X47560980Y-109158066D01*
X47608600Y-109253304D01*
X47656219Y-109300923D01*
X47751457Y-109348542D01*
X47894314Y-109348542D01*
X47989552Y-109300923D01*
X48037171Y-109253304D01*
X48084790Y-109158066D01*
X48084790Y-108777114D01*
X47656219Y-109729495D02*
X47608600Y-109777114D01*
X47560980Y-109872352D01*
X47560980Y-110110447D01*
X47608600Y-110205685D01*
X47656219Y-110253304D01*
X47751457Y-110300923D01*
X47846695Y-110300923D01*
X47989552Y-110253304D01*
X48560980Y-109681876D01*
X48560980Y-110300923D01*
X47560980Y-110919971D02*
X47560980Y-111015209D01*
X47608600Y-111110447D01*
X47656219Y-111158066D01*
X47751457Y-111205685D01*
X47941933Y-111253304D01*
X48180028Y-111253304D01*
X48370504Y-111205685D01*
X48465742Y-111158066D01*
X48513361Y-111110447D01*
X48560980Y-111015209D01*
X48560980Y-110919971D01*
X48513361Y-110824733D01*
X48465742Y-110777114D01*
X48370504Y-110729495D01*
X48180028Y-110681876D01*
X47941933Y-110681876D01*
X47751457Y-110729495D01*
X47656219Y-110777114D01*
X47608600Y-110824733D01*
X47560980Y-110919971D01*
%TO.C,R19*%
X43277780Y-99144342D02*
X42801590Y-98811009D01*
X43277780Y-98572914D02*
X42277780Y-98572914D01*
X42277780Y-98953866D01*
X42325400Y-99049104D01*
X42373019Y-99096723D01*
X42468257Y-99144342D01*
X42611114Y-99144342D01*
X42706352Y-99096723D01*
X42753971Y-99049104D01*
X42801590Y-98953866D01*
X42801590Y-98572914D01*
X43277780Y-100096723D02*
X43277780Y-99525295D01*
X43277780Y-99811009D02*
X42277780Y-99811009D01*
X42420638Y-99715771D01*
X42515876Y-99620533D01*
X42563495Y-99525295D01*
X43277780Y-100572914D02*
X43277780Y-100763390D01*
X43230161Y-100858628D01*
X43182542Y-100906247D01*
X43039685Y-101001485D01*
X42849209Y-101049104D01*
X42468257Y-101049104D01*
X42373019Y-101001485D01*
X42325400Y-100953866D01*
X42277780Y-100858628D01*
X42277780Y-100668152D01*
X42325400Y-100572914D01*
X42373019Y-100525295D01*
X42468257Y-100477676D01*
X42706352Y-100477676D01*
X42801590Y-100525295D01*
X42849209Y-100572914D01*
X42896828Y-100668152D01*
X42896828Y-100858628D01*
X42849209Y-100953866D01*
X42801590Y-101001485D01*
X42706352Y-101049104D01*
%TO.C,R18*%
X59127380Y-71797942D02*
X58651190Y-71464609D01*
X59127380Y-71226514D02*
X58127380Y-71226514D01*
X58127380Y-71607466D01*
X58175000Y-71702704D01*
X58222619Y-71750323D01*
X58317857Y-71797942D01*
X58460714Y-71797942D01*
X58555952Y-71750323D01*
X58603571Y-71702704D01*
X58651190Y-71607466D01*
X58651190Y-71226514D01*
X59127380Y-72750323D02*
X59127380Y-72178895D01*
X59127380Y-72464609D02*
X58127380Y-72464609D01*
X58270238Y-72369371D01*
X58365476Y-72274133D01*
X58413095Y-72178895D01*
X58555952Y-73321752D02*
X58508333Y-73226514D01*
X58460714Y-73178895D01*
X58365476Y-73131276D01*
X58317857Y-73131276D01*
X58222619Y-73178895D01*
X58175000Y-73226514D01*
X58127380Y-73321752D01*
X58127380Y-73512228D01*
X58175000Y-73607466D01*
X58222619Y-73655085D01*
X58317857Y-73702704D01*
X58365476Y-73702704D01*
X58460714Y-73655085D01*
X58508333Y-73607466D01*
X58555952Y-73512228D01*
X58555952Y-73321752D01*
X58603571Y-73226514D01*
X58651190Y-73178895D01*
X58746428Y-73131276D01*
X58936904Y-73131276D01*
X59032142Y-73178895D01*
X59079761Y-73226514D01*
X59127380Y-73321752D01*
X59127380Y-73512228D01*
X59079761Y-73607466D01*
X59032142Y-73655085D01*
X58936904Y-73702704D01*
X58746428Y-73702704D01*
X58651190Y-73655085D01*
X58603571Y-73607466D01*
X58555952Y-73512228D01*
%TO.C,R16*%
X66463657Y-71545980D02*
X66796990Y-71069790D01*
X67035085Y-71545980D02*
X67035085Y-70545980D01*
X66654133Y-70545980D01*
X66558895Y-70593600D01*
X66511276Y-70641219D01*
X66463657Y-70736457D01*
X66463657Y-70879314D01*
X66511276Y-70974552D01*
X66558895Y-71022171D01*
X66654133Y-71069790D01*
X67035085Y-71069790D01*
X65511276Y-71545980D02*
X66082704Y-71545980D01*
X65796990Y-71545980D02*
X65796990Y-70545980D01*
X65892228Y-70688838D01*
X65987466Y-70784076D01*
X66082704Y-70831695D01*
X64654133Y-70545980D02*
X64844609Y-70545980D01*
X64939847Y-70593600D01*
X64987466Y-70641219D01*
X65082704Y-70784076D01*
X65130323Y-70974552D01*
X65130323Y-71355504D01*
X65082704Y-71450742D01*
X65035085Y-71498361D01*
X64939847Y-71545980D01*
X64749371Y-71545980D01*
X64654133Y-71498361D01*
X64606514Y-71450742D01*
X64558895Y-71355504D01*
X64558895Y-71117409D01*
X64606514Y-71022171D01*
X64654133Y-70974552D01*
X64749371Y-70926933D01*
X64939847Y-70926933D01*
X65035085Y-70974552D01*
X65082704Y-71022171D01*
X65130323Y-71117409D01*
%TO.C,R11*%
X53306457Y-75635380D02*
X53639790Y-75159190D01*
X53877885Y-75635380D02*
X53877885Y-74635380D01*
X53496933Y-74635380D01*
X53401695Y-74683000D01*
X53354076Y-74730619D01*
X53306457Y-74825857D01*
X53306457Y-74968714D01*
X53354076Y-75063952D01*
X53401695Y-75111571D01*
X53496933Y-75159190D01*
X53877885Y-75159190D01*
X52354076Y-75635380D02*
X52925504Y-75635380D01*
X52639790Y-75635380D02*
X52639790Y-74635380D01*
X52735028Y-74778238D01*
X52830266Y-74873476D01*
X52925504Y-74921095D01*
X51401695Y-75635380D02*
X51973123Y-75635380D01*
X51687409Y-75635380D02*
X51687409Y-74635380D01*
X51782647Y-74778238D01*
X51877885Y-74873476D01*
X51973123Y-74921095D01*
%TO.C,R10*%
X62780657Y-69615580D02*
X63113990Y-69139390D01*
X63352085Y-69615580D02*
X63352085Y-68615580D01*
X62971133Y-68615580D01*
X62875895Y-68663200D01*
X62828276Y-68710819D01*
X62780657Y-68806057D01*
X62780657Y-68948914D01*
X62828276Y-69044152D01*
X62875895Y-69091771D01*
X62971133Y-69139390D01*
X63352085Y-69139390D01*
X61828276Y-69615580D02*
X62399704Y-69615580D01*
X62113990Y-69615580D02*
X62113990Y-68615580D01*
X62209228Y-68758438D01*
X62304466Y-68853676D01*
X62399704Y-68901295D01*
X61209228Y-68615580D02*
X61113990Y-68615580D01*
X61018752Y-68663200D01*
X60971133Y-68710819D01*
X60923514Y-68806057D01*
X60875895Y-68996533D01*
X60875895Y-69234628D01*
X60923514Y-69425104D01*
X60971133Y-69520342D01*
X61018752Y-69567961D01*
X61113990Y-69615580D01*
X61209228Y-69615580D01*
X61304466Y-69567961D01*
X61352085Y-69520342D01*
X61399704Y-69425104D01*
X61447323Y-69234628D01*
X61447323Y-68996533D01*
X61399704Y-68806057D01*
X61352085Y-68710819D01*
X61304466Y-68663200D01*
X61209228Y-68615580D01*
%TO.C,R9*%
X58551866Y-69615580D02*
X58885200Y-69139390D01*
X59123295Y-69615580D02*
X59123295Y-68615580D01*
X58742342Y-68615580D01*
X58647104Y-68663200D01*
X58599485Y-68710819D01*
X58551866Y-68806057D01*
X58551866Y-68948914D01*
X58599485Y-69044152D01*
X58647104Y-69091771D01*
X58742342Y-69139390D01*
X59123295Y-69139390D01*
X58075676Y-69615580D02*
X57885200Y-69615580D01*
X57789961Y-69567961D01*
X57742342Y-69520342D01*
X57647104Y-69377485D01*
X57599485Y-69187009D01*
X57599485Y-68806057D01*
X57647104Y-68710819D01*
X57694723Y-68663200D01*
X57789961Y-68615580D01*
X57980438Y-68615580D01*
X58075676Y-68663200D01*
X58123295Y-68710819D01*
X58170914Y-68806057D01*
X58170914Y-69044152D01*
X58123295Y-69139390D01*
X58075676Y-69187009D01*
X57980438Y-69234628D01*
X57789961Y-69234628D01*
X57694723Y-69187009D01*
X57647104Y-69139390D01*
X57599485Y-69044152D01*
%TO.C,R8*%
X43150780Y-95531133D02*
X42674590Y-95197800D01*
X43150780Y-94959704D02*
X42150780Y-94959704D01*
X42150780Y-95340657D01*
X42198400Y-95435895D01*
X42246019Y-95483514D01*
X42341257Y-95531133D01*
X42484114Y-95531133D01*
X42579352Y-95483514D01*
X42626971Y-95435895D01*
X42674590Y-95340657D01*
X42674590Y-94959704D01*
X42579352Y-96102561D02*
X42531733Y-96007323D01*
X42484114Y-95959704D01*
X42388876Y-95912085D01*
X42341257Y-95912085D01*
X42246019Y-95959704D01*
X42198400Y-96007323D01*
X42150780Y-96102561D01*
X42150780Y-96293038D01*
X42198400Y-96388276D01*
X42246019Y-96435895D01*
X42341257Y-96483514D01*
X42388876Y-96483514D01*
X42484114Y-96435895D01*
X42531733Y-96388276D01*
X42579352Y-96293038D01*
X42579352Y-96102561D01*
X42626971Y-96007323D01*
X42674590Y-95959704D01*
X42769828Y-95912085D01*
X42960304Y-95912085D01*
X43055542Y-95959704D01*
X43103161Y-96007323D01*
X43150780Y-96102561D01*
X43150780Y-96293038D01*
X43103161Y-96388276D01*
X43055542Y-96435895D01*
X42960304Y-96483514D01*
X42769828Y-96483514D01*
X42674590Y-96435895D01*
X42626971Y-96388276D01*
X42579352Y-96293038D01*
%TO.C,R7*%
X43150780Y-91390933D02*
X42674590Y-91057600D01*
X43150780Y-90819504D02*
X42150780Y-90819504D01*
X42150780Y-91200457D01*
X42198400Y-91295695D01*
X42246019Y-91343314D01*
X42341257Y-91390933D01*
X42484114Y-91390933D01*
X42579352Y-91343314D01*
X42626971Y-91295695D01*
X42674590Y-91200457D01*
X42674590Y-90819504D01*
X42150780Y-91724266D02*
X42150780Y-92390933D01*
X43150780Y-91962361D01*
%TO.C,U6*%
X33959704Y-121521980D02*
X33959704Y-122331504D01*
X33912085Y-122426742D01*
X33864466Y-122474361D01*
X33769228Y-122521980D01*
X33578752Y-122521980D01*
X33483514Y-122474361D01*
X33435895Y-122426742D01*
X33388276Y-122331504D01*
X33388276Y-121521980D01*
X32483514Y-121521980D02*
X32673990Y-121521980D01*
X32769228Y-121569600D01*
X32816847Y-121617219D01*
X32912085Y-121760076D01*
X32959704Y-121950552D01*
X32959704Y-122331504D01*
X32912085Y-122426742D01*
X32864466Y-122474361D01*
X32769228Y-122521980D01*
X32578752Y-122521980D01*
X32483514Y-122474361D01*
X32435895Y-122426742D01*
X32388276Y-122331504D01*
X32388276Y-122093409D01*
X32435895Y-121998171D01*
X32483514Y-121950552D01*
X32578752Y-121902933D01*
X32769228Y-121902933D01*
X32864466Y-121950552D01*
X32912085Y-121998171D01*
X32959704Y-122093409D01*
%TO.C,U5*%
X34797904Y-107526580D02*
X34797904Y-108336104D01*
X34750285Y-108431342D01*
X34702666Y-108478961D01*
X34607428Y-108526580D01*
X34416952Y-108526580D01*
X34321714Y-108478961D01*
X34274095Y-108431342D01*
X34226476Y-108336104D01*
X34226476Y-107526580D01*
X33274095Y-107526580D02*
X33750285Y-107526580D01*
X33797904Y-108002771D01*
X33750285Y-107955152D01*
X33655047Y-107907533D01*
X33416952Y-107907533D01*
X33321714Y-107955152D01*
X33274095Y-108002771D01*
X33226476Y-108098009D01*
X33226476Y-108336104D01*
X33274095Y-108431342D01*
X33321714Y-108478961D01*
X33416952Y-108526580D01*
X33655047Y-108526580D01*
X33750285Y-108478961D01*
X33797904Y-108431342D01*
D11*
%TO.C,U9*%
X54746800Y-67730800D02*
X54746800Y-70180800D01*
X51526800Y-69530800D02*
X51526800Y-67730800D01*
%TO.C,U4*%
X34594800Y-99594400D02*
X36604800Y-99594400D01*
X34594800Y-95274400D02*
X36604800Y-95274400D01*
X32584800Y-95274400D02*
X32584800Y-95629400D01*
X36604800Y-95274400D02*
X36604800Y-95629400D01*
X34594800Y-95274400D02*
X32584800Y-95274400D01*
X32584800Y-99594400D02*
X32584800Y-99239400D01*
X36604800Y-99594400D02*
X36604800Y-99239400D01*
X36604800Y-95629400D02*
X38069800Y-95629400D01*
X34594800Y-99594400D02*
X32584800Y-99594400D01*
%TO.C,R23*%
X43054600Y-127119136D02*
X43054600Y-127573264D01*
X44524600Y-127119136D02*
X44524600Y-127573264D01*
%TO.C,R22*%
X42927600Y-122902736D02*
X42927600Y-123356864D01*
X44397600Y-122902736D02*
X44397600Y-123356864D01*
%TO.C,R21*%
X48972800Y-113885736D02*
X48972800Y-114339864D01*
X50442800Y-113885736D02*
X50442800Y-114339864D01*
%TO.C,R20*%
X49023600Y-109764336D02*
X49023600Y-110218464D01*
X50493600Y-109764336D02*
X50493600Y-110218464D01*
%TO.C,R19*%
X43740400Y-99560136D02*
X43740400Y-100014264D01*
X45210400Y-99560136D02*
X45210400Y-100014264D01*
%TO.C,R18*%
X59590000Y-72213736D02*
X59590000Y-72667864D01*
X61060000Y-72213736D02*
X61060000Y-72667864D01*
%TO.C,R16*%
X65593736Y-70178600D02*
X66047864Y-70178600D01*
X65593736Y-68708600D02*
X66047864Y-68708600D01*
%TO.C,R11*%
X52436536Y-74268000D02*
X52890664Y-74268000D01*
X52436536Y-72798000D02*
X52890664Y-72798000D01*
%TO.C,R10*%
X61910736Y-68248200D02*
X62364864Y-68248200D01*
X61910736Y-66778200D02*
X62364864Y-66778200D01*
%TO.C,R9*%
X58158136Y-68248200D02*
X58612264Y-68248200D01*
X58158136Y-66778200D02*
X58612264Y-66778200D01*
%TO.C,R8*%
X43613400Y-95470736D02*
X43613400Y-95924864D01*
X45083400Y-95470736D02*
X45083400Y-95924864D01*
%TO.C,R7*%
X43613400Y-91330536D02*
X43613400Y-91784664D01*
X45083400Y-91330536D02*
X45083400Y-91784664D01*
%TO.C,U6*%
X33197800Y-127229600D02*
X31187800Y-127229600D01*
X31187800Y-127229600D02*
X31187800Y-126874600D01*
X33197800Y-122909600D02*
X35207800Y-122909600D01*
X35207800Y-122909600D02*
X35207800Y-123264600D01*
X31187800Y-122909600D02*
X31187800Y-123264600D01*
X33197800Y-122909600D02*
X31187800Y-122909600D01*
X35207800Y-127229600D02*
X35207800Y-126874600D01*
X33197800Y-127229600D02*
X35207800Y-127229600D01*
X35207800Y-123264600D02*
X36672800Y-123264600D01*
%TO.C,U5*%
X36046000Y-108914200D02*
X36046000Y-109269200D01*
X34036000Y-113234200D02*
X36046000Y-113234200D01*
X36046000Y-113234200D02*
X36046000Y-112879200D01*
X32026000Y-113234200D02*
X32026000Y-112879200D01*
X36046000Y-109269200D02*
X37511000Y-109269200D01*
X34036000Y-108914200D02*
X32026000Y-108914200D01*
X34036000Y-108914200D02*
X36046000Y-108914200D01*
X34036000Y-113234200D02*
X32026000Y-113234200D01*
X32026000Y-108914200D02*
X32026000Y-109269200D01*
%TD*%
M02*
