M48
; DRILL file {KiCad (6.0.2)} date Sun Mar 20 03:32:59 2022
; FORMAT={-:-/ absolute / inch / decimal}
; #@! TF.CreationDate,2022-03-20T03:32:59-07:00
; #@! TF.GenerationSoftware,Kicad,Pcbnew,(6.0.2)
; #@! TF.FileFunction,Plated,1,2,PTH
FMAT,2
INCH
; #@! TA.AperFunction,Plated,PTH,ViaDrill
T1C0.0157
; #@! TA.AperFunction,Plated,PTH,ComponentDrill
T2C0.0394
; #@! TA.AperFunction,Plated,PTH,ComponentDrill
T3C0.1969
%
G90
G05
T1
X1.21Y-4.975
X1.235Y-4.426
X1.246Y-4.63
X1.256Y-3.888
X1.259Y-4.097
X1.291Y-3.549
X1.415Y-4.875
X1.455Y-4.324
X1.476Y-3.783
X1.6Y-2.55
X1.65Y-2.9
X1.95Y-2.7
X1.95Y-2.8
X2.3753Y-2.8917
X2.377Y-2.812
X2.3832Y-2.7076
X2.3844Y-2.6536
X2.3844Y-2.7536
X2.497Y-2.808
X2.5Y-4.9
X2.55Y-4.45
X2.623Y-2.914
X2.875Y-3.076
X2.95Y-4.9
X3.1Y-4.05
X3.2412Y-3.0117
X3.304Y-3.011
X3.5Y-4.0
X3.75Y-4.15
X3.75Y-4.15
T2
X1.002Y-3.616
X1.002Y-3.716
X1.024Y-4.2124
X1.024Y-4.3124
X1.044Y-4.9218
X1.044Y-5.0218
X1.709Y-4.2246
X1.709Y-4.3246
X1.709Y-4.4246
X1.709Y-4.5246
X2.222Y-4.297
X2.222Y-4.397
X2.222Y-4.497
X2.222Y-4.597
T3
X1.309Y-2.93
X1.309Y-3.245
X2.045Y-3.1628
X2.045Y-3.4777
X3.002Y-4.496
X3.317Y-4.496
X3.697Y-3.237
X3.697Y-3.552
T0
M30
