%TF.GenerationSoftware,KiCad,Pcbnew,(6.0.2)*%
%TF.CreationDate,2022-03-20T03:32:58-07:00*%
%TF.ProjectId,ChargerPOC,43686172-6765-4725-904f-432e6b696361,rev?*%
%TF.SameCoordinates,Original*%
%TF.FileFunction,Paste,Top*%
%TF.FilePolarity,Positive*%
%FSLAX46Y46*%
G04 Gerber Fmt 4.6, Leading zero omitted, Abs format (unit mm)*
G04 Created by KiCad (PCBNEW (6.0.2)) date 2022-03-20 03:32:58*
%MOMM*%
%LPD*%
G01*
G04 APERTURE LIST*
G04 Aperture macros list*
%AMRoundRect*
0 Rectangle with rounded corners*
0 $1 Rounding radius*
0 $2 $3 $4 $5 $6 $7 $8 $9 X,Y pos of 4 corners*
0 Add a 4 corners polygon primitive as box body*
4,1,4,$2,$3,$4,$5,$6,$7,$8,$9,$2,$3,0*
0 Add four circle primitives for the rounded corners*
1,1,$1+$1,$2,$3*
1,1,$1+$1,$4,$5*
1,1,$1+$1,$6,$7*
1,1,$1+$1,$8,$9*
0 Add four rect primitives between the rounded corners*
20,1,$1+$1,$2,$3,$4,$5,0*
20,1,$1+$1,$4,$5,$6,$7,0*
20,1,$1+$1,$6,$7,$8,$9,0*
20,1,$1+$1,$8,$9,$2,$3,0*%
G04 Aperture macros list end*
%ADD10RoundRect,0.150000X0.825000X0.150000X-0.825000X0.150000X-0.825000X-0.150000X0.825000X-0.150000X0*%
%ADD11RoundRect,0.250000X-0.450000X0.350000X-0.450000X-0.350000X0.450000X-0.350000X0.450000X0.350000X0*%
%ADD12RoundRect,0.250000X-0.350000X-0.450000X0.350000X-0.450000X0.350000X0.450000X-0.350000X0.450000X0*%
%ADD13RoundRect,0.249999X-1.425001X0.450001X-1.425001X-0.450001X1.425001X-0.450001X1.425001X0.450001X0*%
%ADD14R,5.250000X4.550000*%
%ADD15R,1.100000X4.600000*%
%ADD16R,0.400000X1.500000*%
%ADD17R,2.900000X5.400000*%
%ADD18RoundRect,0.250000X-1.100000X0.412500X-1.100000X-0.412500X1.100000X-0.412500X1.100000X0.412500X0*%
%ADD19RoundRect,0.250000X-0.475000X0.337500X-0.475000X-0.337500X0.475000X-0.337500X0.475000X0.337500X0*%
%ADD20R,4.500000X3.300000*%
%ADD21RoundRect,0.250000X0.625000X-0.400000X0.625000X0.400000X-0.625000X0.400000X-0.625000X-0.400000X0*%
G04 APERTURE END LIST*
D10*
%TO.C,U10*%
X60564800Y-73752200D03*
X60564800Y-72482200D03*
X60564800Y-71212200D03*
X60564800Y-69942200D03*
X60564800Y-68672200D03*
X60564800Y-67402200D03*
X60564800Y-66132200D03*
X55614800Y-66132200D03*
X55614800Y-67402200D03*
X55614800Y-68672200D03*
X55614800Y-69942200D03*
X55614800Y-71212200D03*
X55614800Y-72482200D03*
X55614800Y-73752200D03*
%TD*%
D11*
%TO.C,R17*%
X63144400Y-76673200D03*
X63144400Y-78673200D03*
%TD*%
D12*
%TO.C,R15*%
X64592200Y-74082400D03*
X66592200Y-74082400D03*
%TD*%
%TO.C,R6*%
X35998400Y-123698000D03*
X37998400Y-123698000D03*
%TD*%
%TO.C,R5*%
X37033200Y-109702600D03*
X39033200Y-109702600D03*
%TD*%
%TO.C,R4*%
X37439600Y-96012000D03*
X39439600Y-96012000D03*
%TD*%
D13*
%TO.C,R2*%
X31978600Y-104063800D03*
X31978600Y-110163800D03*
%TD*%
D14*
%TO.C,U11*%
X77851000Y-64922400D03*
X77851000Y-69772400D03*
X83401000Y-64922400D03*
X83401000Y-69772400D03*
D15*
X77226000Y-76497400D03*
X78926000Y-76497400D03*
X80626000Y-76497400D03*
X82326000Y-76497400D03*
X84026000Y-76497400D03*
%TD*%
D16*
%TO.C,U3*%
X32283400Y-126415800D03*
X31633400Y-126415800D03*
X30983400Y-126415800D03*
X30983400Y-129075800D03*
X31633400Y-129075800D03*
X32283400Y-129075800D03*
%TD*%
D17*
%TO.C,L1*%
X85976000Y-90754200D03*
X76076000Y-90754200D03*
%TD*%
D18*
%TO.C,C3*%
X59080400Y-96672400D03*
X59080400Y-99797400D03*
%TD*%
D16*
%TO.C,U2*%
X32882600Y-112547400D03*
X32232600Y-112547400D03*
X31582600Y-112547400D03*
X31582600Y-115207400D03*
X32232600Y-115207400D03*
X32882600Y-115207400D03*
%TD*%
D19*
%TO.C,C4*%
X64592200Y-97358200D03*
X64592200Y-99433200D03*
%TD*%
%TO.C,C5*%
X69824600Y-97459800D03*
X69824600Y-99534800D03*
%TD*%
D16*
%TO.C,U1*%
X33390600Y-98847600D03*
X32740600Y-98847600D03*
X32090600Y-98847600D03*
X32090600Y-101507600D03*
X32740600Y-101507600D03*
X33390600Y-101507600D03*
%TD*%
D13*
%TO.C,R3*%
X31648400Y-117602000D03*
X31648400Y-123702000D03*
%TD*%
%TO.C,R1*%
X32791400Y-90144600D03*
X32791400Y-96244600D03*
%TD*%
D20*
%TO.C,D3*%
X60700200Y-90093800D03*
X69500200Y-90093800D03*
%TD*%
D21*
%TO.C,R14*%
X73025000Y-78131600D03*
X73025000Y-75031600D03*
%TD*%
M02*
