M48
; DRILL file {KiCad (6.0.2)} date Mon Apr 25 03:39:28 2022
; FORMAT={-:-/ absolute / inch / decimal}
; #@! TF.CreationDate,2022-04-25T03:39:28-07:00
; #@! TF.GenerationSoftware,Kicad,Pcbnew,(6.0.2)
; #@! TF.FileFunction,Plated,1,2,PTH
FMAT,2
INCH
; #@! TA.AperFunction,Plated,PTH,ViaDrill
T1C0.0079
; #@! TA.AperFunction,Plated,PTH,ViaDrill
T2C0.0157
; #@! TA.AperFunction,Plated,PTH,ViaDrill
T3C0.0236
; #@! TA.AperFunction,Plated,PTH,ComponentDrill
T4C0.0236
; #@! TA.AperFunction,Plated,PTH,ComponentDrill
T5C0.0315
; #@! TA.AperFunction,Plated,PTH,ComponentDrill
T6C0.0394
; #@! TA.AperFunction,Plated,PTH,ComponentDrill
T7C0.1969
%
G90
G05
T1
X4.0646Y-3.7917
X4.0666Y-3.8377
X4.811Y-2.657
X4.8205Y-2.9827
X4.868Y-2.362
X5.2715Y-3.5069
X5.2727Y-3.4263
T2
X4.1077Y-3.2383
X4.1127Y-3.315
X4.171Y-4.181
X4.171Y-4.224
X4.172Y-2.823
X4.1727Y-2.8537
X4.174Y-4.136
X4.175Y-4.092
X4.1757Y-3.1707
X4.1767Y-2.5347
X4.1767Y-3.1437
X4.177Y-2.505
X4.1777Y-2.5986
X4.1797Y-2.9166
X4.1967Y-3.275
X4.1967Y-3.362
X4.1987Y-3.519
X4.414Y-3.8291
X4.414Y-3.876
X4.469Y-3.828
X4.471Y-3.869
X4.546Y-3.127
X4.654Y-3.521
X5.424Y-3.452
X5.429Y-3.358
X5.512Y-3.452
X5.523Y-3.36
T3
X4.3604Y-4.326
X4.48Y-4.141
X4.4809Y-4.1941
X4.6194Y-4.345
X5.259Y-4.041
X5.3066Y-3.6547
X5.315Y-3.771
X5.334Y-3.5512
X5.399Y-3.957
X5.401Y-4.084
X5.402Y-3.515
X5.433Y-3.821
X5.45Y-2.544
X5.457Y-3.673
X5.482Y-3.52
X5.5Y-3.623
X5.515Y-3.813
X5.5287Y-2.544
X5.5596Y-3.94
X5.5921Y-3.594
X5.596Y-3.759
X5.64Y-3.595
X5.6403Y-3.758
X5.695Y-2.847
X5.701Y-3.772
X5.746Y-4.001
X5.76Y-2.986
X5.761Y-2.938
X5.768Y-3.694
X5.7823Y-3.4466
X5.79Y-3.755
X5.799Y-3.059
X5.8159Y-3.6949
X5.821Y-3.425
X5.827Y-2.774
X5.832Y-3.588
X5.8584Y-3.6813
X5.903Y-3.668
X5.918Y-2.7426
X5.977Y-2.87
X6.0025Y-2.8185
X6.036Y-2.59
X6.048Y-2.513
X6.05Y-2.341
X6.13Y-3.006
X6.141Y-2.872
X6.178Y-2.512
X6.186Y-2.348
X6.21Y-2.928
X6.257Y-2.873
X6.281Y-2.506
X6.281Y-2.6134
X6.294Y-2.347
X6.3901Y-2.6134
X6.454Y-2.557
X6.589Y-2.411
T5
X4.3524Y-2.6575
X4.3524Y-2.7575
X4.3584Y-2.9815
X4.3584Y-3.0815
X4.3624Y-2.3565
X4.3624Y-2.4565
X4.6524Y-2.6575
X4.6524Y-2.7575
X4.6584Y-2.9815
X4.6584Y-3.0815
X4.6624Y-2.3565
X4.6624Y-2.4565
T6
X3.9387Y-2.3407
X3.9387Y-2.4407
X3.9447Y-2.6277
X3.9447Y-2.7277
X3.9537Y-2.9217
X3.9537Y-3.0217
X4.3977Y-2.1957
X4.4977Y-2.1957
X5.591Y-4.0552
X5.591Y-4.1552
X5.597Y-4.348
X5.697Y-4.348
X5.701Y-3.3072
X5.701Y-3.4072
X5.871Y-4.251
X5.871Y-4.351
X6.178Y-2.6192
X6.178Y-2.7192
T7
X4.059Y-4.823
X4.059Y-5.138
X5.582Y-1.979
X5.897Y-1.979
X6.7263Y-4.781
X6.8483Y-2.502
X6.9063Y-4.073
X7.0412Y-4.781
X7.1632Y-2.502
X7.2212Y-4.073
T4
G00X3.9288Y-3.6437
M15
G01X3.9052Y-3.6437
M16
G05
G00X3.9308Y-3.9843
M15
G01X3.9072Y-3.9843
M16
G05
G00X4.0784Y-3.6437
M15
G01X4.0548Y-3.6437
M16
G05
G00X4.0804Y-3.9843
M15
G01X4.0568Y-3.9843
M16
G05
T0
M30
