M48
; DRILL file {KiCad (5.1.10)-1} date 02/15/22 22:18:43
; FORMAT={-:-/ absolute / inch / decimal}
; #@! TF.CreationDate,2022-02-15T22:18:43-08:00
; #@! TF.GenerationSoftware,Kicad,Pcbnew,(5.1.10)-1
; #@! TF.FileFunction,Plated,1,2,PTH
FMAT,2
INCH
T1C0.0079
T2C0.0157
T3C0.0236
T4C0.0256
%
G90
G05
T1
X5.38Y-2.9325
X5.405Y-2.485
X5.405Y-3.41
X5.405Y-3.485
X5.405Y-3.56
X5.41Y-4.115
X5.4625Y-2.9315
X5.4675Y-3.05
X5.505Y-3.41
X5.505Y-3.485
X5.505Y-3.56
X5.515Y-3.15
X5.515Y-3.23
X5.5375Y-2.9775
X5.5463Y-4.19
X5.5475Y-3.0925
X5.5476Y-3.0718
X5.5484Y-3.1157
X5.5507Y-3.0512
X5.582Y-3.1685
X5.605Y-2.715
X5.61Y-2.845
X5.615Y-3.009
X5.615Y-3.051
X5.615Y-3.093
X5.615Y-3.135
X5.6229Y-4.1011
X5.6275Y-3.202
X5.635Y-2.485
X5.657Y-3.009
X5.657Y-3.051
X5.657Y-3.093
X5.657Y-3.135
X5.685Y-2.705
X5.686Y-3.2025
X5.699Y-3.009
X5.699Y-3.051
X5.699Y-3.093
X5.699Y-3.135
X5.741Y-3.009
X5.741Y-3.051
X5.741Y-3.093
X5.741Y-3.135
X5.7478Y-3.2166
X5.7685Y-3.2158
X5.77Y-2.72
X5.7893Y-3.216
X5.81Y-3.1187
X5.84Y-3.235
X5.8576Y-2.86
X5.858Y-2.803
X5.9063Y-4.55
X5.936Y-2.8895
X5.972Y-3.038
X5.98Y-2.46
X5.985Y-4.46
X5.99Y-3.1335
X6.005Y-2.46
X6.0398Y-2.7623
X6.056Y-2.86
X6.07Y-3.25
X6.093Y-2.632
X6.12Y-2.71
X6.14Y-3.25
X6.275Y-3.0225
X6.42Y-2.626
X6.422Y-2.516
X6.426Y-2.5725
X6.428Y-2.899
X6.43Y-5.045
X6.433Y-3.0505
X6.474Y-3.314
X6.493Y-2.909
X6.5094Y-4.9706
X6.53Y-3.51
X6.562Y-3.288
X6.576Y-3.192
X6.582Y-2.56
X6.582Y-2.695
X6.605Y-3.31
X6.612Y-3.228
X6.6274Y-3.0
X6.63Y-3.51
X6.648Y-3.198
X6.68Y-3.31
X6.789Y-2.947
X6.79Y-2.9985
X6.79Y-3.05
X6.802Y-2.659
X6.842Y-2.563
T2
X5.3895Y-3.0505
X6.541Y-2.809
X6.655Y-2.7179
T4
X5.405Y-2.675
X5.405Y-2.725
X5.405Y-3.335
X5.41Y-2.53
X5.41Y-2.58
X5.455Y-3.335
X5.505Y-3.335
X6.795Y-2.75
X6.795Y-2.8
T3
G00X5.9304Y-2.5742
M15
G01X5.9304Y-2.5506
M16
G05
G00X5.9304Y-2.7238
M15
G01X5.9304Y-2.7002
M16
G05
G00X6.2709Y-2.5722
M15
G01X6.2709Y-2.5486
M16
G05
G00X6.2709Y-2.7218
M15
G01X6.2709Y-2.6982
M16
G05
T0
M30
