%TF.GenerationSoftware,KiCad,Pcbnew,(6.0.2)*%
%TF.CreationDate,2022-04-25T03:39:25-07:00*%
%TF.ProjectId,schematic,73636865-6d61-4746-9963-2e6b69636164,rev?*%
%TF.SameCoordinates,Original*%
%TF.FileFunction,Legend,Top*%
%TF.FilePolarity,Positive*%
%FSLAX46Y46*%
G04 Gerber Fmt 4.6, Leading zero omitted, Abs format (unit mm)*
G04 Created by KiCad (PCBNEW (6.0.2)) date 2022-04-25 03:39:25*
%MOMM*%
%LPD*%
G01*
G04 APERTURE LIST*
%ADD10C,0.300000*%
%ADD11C,0.150000*%
%ADD12C,0.120000*%
G04 APERTURE END LIST*
D10*
X175492828Y-57089561D02*
X175492828Y-55089561D01*
X176254733Y-55089561D01*
X176445209Y-55184800D01*
X176540447Y-55280038D01*
X176635685Y-55470514D01*
X176635685Y-55756228D01*
X176540447Y-55946704D01*
X176445209Y-56041942D01*
X176254733Y-56137180D01*
X175492828Y-56137180D01*
X177302352Y-55089561D02*
X177778542Y-57089561D01*
X178159495Y-55660990D01*
X178540447Y-57089561D01*
X179016638Y-55089561D01*
X180921400Y-57089561D02*
X180254733Y-56137180D01*
X179778542Y-57089561D02*
X179778542Y-55089561D01*
X180540447Y-55089561D01*
X180730923Y-55184800D01*
X180826161Y-55280038D01*
X180921400Y-55470514D01*
X180921400Y-55756228D01*
X180826161Y-55946704D01*
X180730923Y-56041942D01*
X180540447Y-56137180D01*
X179778542Y-56137180D01*
X181302352Y-57280038D02*
X182826161Y-57280038D01*
X183302352Y-55089561D02*
X183302352Y-56708609D01*
X183397590Y-56899085D01*
X183492828Y-56994323D01*
X183683304Y-57089561D01*
X184064257Y-57089561D01*
X184254733Y-56994323D01*
X184349971Y-56899085D01*
X184445209Y-56708609D01*
X184445209Y-55089561D01*
X185397590Y-57089561D02*
X185397590Y-55089561D01*
X186540447Y-57089561D01*
X186540447Y-55089561D01*
X188635685Y-57089561D02*
X187969019Y-56137180D01*
X187492828Y-57089561D02*
X187492828Y-55089561D01*
X188254733Y-55089561D01*
X188445209Y-55184800D01*
X188540447Y-55280038D01*
X188635685Y-55470514D01*
X188635685Y-55756228D01*
X188540447Y-55946704D01*
X188445209Y-56041942D01*
X188254733Y-56137180D01*
X187492828Y-56137180D01*
X189492828Y-56041942D02*
X190159495Y-56041942D01*
X190445209Y-57089561D02*
X189492828Y-57089561D01*
X189492828Y-55089561D01*
X190445209Y-55089561D01*
X192349971Y-55184800D02*
X192159495Y-55089561D01*
X191873780Y-55089561D01*
X191588066Y-55184800D01*
X191397590Y-55375276D01*
X191302352Y-55565752D01*
X191207114Y-55946704D01*
X191207114Y-56232419D01*
X191302352Y-56613371D01*
X191397590Y-56803847D01*
X191588066Y-56994323D01*
X191873780Y-57089561D01*
X192064257Y-57089561D01*
X192349971Y-56994323D01*
X192445209Y-56899085D01*
X192445209Y-56232419D01*
X192064257Y-56232419D01*
X102968561Y-116848066D02*
X104968561Y-116181400D01*
X102968561Y-115514733D01*
X103920942Y-114181400D02*
X104016180Y-113895685D01*
X104111419Y-113800447D01*
X104301895Y-113705209D01*
X104587609Y-113705209D01*
X104778085Y-113800447D01*
X104873323Y-113895685D01*
X104968561Y-114086161D01*
X104968561Y-114848066D01*
X102968561Y-114848066D01*
X102968561Y-114181400D01*
X103063800Y-113990923D01*
X103159038Y-113895685D01*
X103349514Y-113800447D01*
X103539990Y-113800447D01*
X103730466Y-113895685D01*
X103825704Y-113990923D01*
X103920942Y-114181400D01*
X103920942Y-114848066D01*
X102968561Y-112848066D02*
X104587609Y-112848066D01*
X104778085Y-112752828D01*
X104873323Y-112657590D01*
X104968561Y-112467114D01*
X104968561Y-112086161D01*
X104873323Y-111895685D01*
X104778085Y-111800447D01*
X104587609Y-111705209D01*
X102968561Y-111705209D01*
X104873323Y-110848066D02*
X104968561Y-110562352D01*
X104968561Y-110086161D01*
X104873323Y-109895685D01*
X104778085Y-109800447D01*
X104587609Y-109705209D01*
X104397133Y-109705209D01*
X104206657Y-109800447D01*
X104111419Y-109895685D01*
X104016180Y-110086161D01*
X103920942Y-110467114D01*
X103825704Y-110657590D01*
X103730466Y-110752828D01*
X103539990Y-110848066D01*
X103349514Y-110848066D01*
X103159038Y-110752828D01*
X103063800Y-110657590D01*
X102968561Y-110467114D01*
X102968561Y-109990923D01*
X103063800Y-109705209D01*
X186322009Y-102130361D02*
X187560104Y-102130361D01*
X186893438Y-102892266D01*
X187179152Y-102892266D01*
X187369628Y-102987504D01*
X187464866Y-103082742D01*
X187560104Y-103273219D01*
X187560104Y-103749409D01*
X187464866Y-103939885D01*
X187369628Y-104035123D01*
X187179152Y-104130361D01*
X186607723Y-104130361D01*
X186417247Y-104035123D01*
X186322009Y-103939885D01*
X188131533Y-102130361D02*
X188798200Y-104130361D01*
X189464866Y-102130361D01*
X189941057Y-102130361D02*
X191179152Y-102130361D01*
X190512485Y-102892266D01*
X190798200Y-102892266D01*
X190988676Y-102987504D01*
X191083914Y-103082742D01*
X191179152Y-103273219D01*
X191179152Y-103749409D01*
X191083914Y-103939885D01*
X190988676Y-104035123D01*
X190798200Y-104130361D01*
X190226771Y-104130361D01*
X190036295Y-104035123D01*
X189941057Y-103939885D01*
X188112447Y-74495161D02*
X187160066Y-74495161D01*
X187064828Y-75447542D01*
X187160066Y-75352304D01*
X187350542Y-75257066D01*
X187826733Y-75257066D01*
X188017209Y-75352304D01*
X188112447Y-75447542D01*
X188207685Y-75638019D01*
X188207685Y-76114209D01*
X188112447Y-76304685D01*
X188017209Y-76399923D01*
X187826733Y-76495161D01*
X187350542Y-76495161D01*
X187160066Y-76399923D01*
X187064828Y-76304685D01*
X188779114Y-74495161D02*
X189445780Y-76495161D01*
X190112447Y-74495161D01*
X183978895Y-124043961D02*
X183978895Y-122043961D01*
X184455085Y-122043961D01*
X184740800Y-122139200D01*
X184931276Y-122329676D01*
X185026514Y-122520152D01*
X185121752Y-122901104D01*
X185121752Y-123186819D01*
X185026514Y-123567771D01*
X184931276Y-123758247D01*
X184740800Y-123948723D01*
X184455085Y-124043961D01*
X183978895Y-124043961D01*
X185978895Y-124043961D02*
X185978895Y-122043961D01*
X188074133Y-124043961D02*
X187407466Y-123091580D01*
X186931276Y-124043961D02*
X186931276Y-122043961D01*
X187693180Y-122043961D01*
X187883657Y-122139200D01*
X187978895Y-122234438D01*
X188074133Y-122424914D01*
X188074133Y-122710628D01*
X187978895Y-122901104D01*
X187883657Y-122996342D01*
X187693180Y-123091580D01*
X186931276Y-123091580D01*
X188645561Y-122043961D02*
X189788419Y-122043961D01*
X189216990Y-124043961D02*
X189216990Y-122043961D01*
D11*
%TO.C,J11*%
X148313876Y-105097780D02*
X148313876Y-105812066D01*
X148266257Y-105954923D01*
X148171019Y-106050161D01*
X148028161Y-106097780D01*
X147932923Y-106097780D01*
X149313876Y-106097780D02*
X148742447Y-106097780D01*
X149028161Y-106097780D02*
X149028161Y-105097780D01*
X148932923Y-105240638D01*
X148837685Y-105335876D01*
X148742447Y-105383495D01*
X150266257Y-106097780D02*
X149694828Y-106097780D01*
X149980542Y-106097780D02*
X149980542Y-105097780D01*
X149885304Y-105240638D01*
X149790066Y-105335876D01*
X149694828Y-105383495D01*
%TO.C,J10*%
X139830276Y-107402380D02*
X139830276Y-108116666D01*
X139782657Y-108259523D01*
X139687419Y-108354761D01*
X139544561Y-108402380D01*
X139449323Y-108402380D01*
X140830276Y-108402380D02*
X140258847Y-108402380D01*
X140544561Y-108402380D02*
X140544561Y-107402380D01*
X140449323Y-107545238D01*
X140354085Y-107640476D01*
X140258847Y-107688095D01*
X141449323Y-107402380D02*
X141544561Y-107402380D01*
X141639800Y-107450000D01*
X141687419Y-107497619D01*
X141735038Y-107592857D01*
X141782657Y-107783333D01*
X141782657Y-108021428D01*
X141735038Y-108211904D01*
X141687419Y-108307142D01*
X141639800Y-108354761D01*
X141544561Y-108402380D01*
X141449323Y-108402380D01*
X141354085Y-108354761D01*
X141306466Y-108307142D01*
X141258847Y-108211904D01*
X141211228Y-108021428D01*
X141211228Y-107783333D01*
X141258847Y-107592857D01*
X141306466Y-107497619D01*
X141354085Y-107450000D01*
X141449323Y-107402380D01*
%TO.C,J9*%
X144472066Y-88325180D02*
X144472066Y-89039466D01*
X144424447Y-89182323D01*
X144329209Y-89277561D01*
X144186352Y-89325180D01*
X144091114Y-89325180D01*
X144995876Y-89325180D02*
X145186352Y-89325180D01*
X145281590Y-89277561D01*
X145329209Y-89229942D01*
X145424447Y-89087085D01*
X145472066Y-88896609D01*
X145472066Y-88515657D01*
X145424447Y-88420419D01*
X145376828Y-88372800D01*
X145281590Y-88325180D01*
X145091114Y-88325180D01*
X144995876Y-88372800D01*
X144948257Y-88420419D01*
X144900638Y-88515657D01*
X144900638Y-88753752D01*
X144948257Y-88848990D01*
X144995876Y-88896609D01*
X145091114Y-88944228D01*
X145281590Y-88944228D01*
X145376828Y-88896609D01*
X145424447Y-88848990D01*
X145472066Y-88753752D01*
%TO.C,J4*%
X144192666Y-112558580D02*
X144192666Y-113272866D01*
X144145047Y-113415723D01*
X144049809Y-113510961D01*
X143906952Y-113558580D01*
X143811714Y-113558580D01*
X145097428Y-112891914D02*
X145097428Y-113558580D01*
X144859333Y-112510961D02*
X144621238Y-113225247D01*
X145240285Y-113225247D01*
%TO.C,AE1*%
X129219866Y-127635466D02*
X129219866Y-127159276D01*
X129505580Y-127730704D02*
X128505580Y-127397371D01*
X129505580Y-127064038D01*
X128981771Y-126730704D02*
X128981771Y-126397371D01*
X129505580Y-126254514D02*
X129505580Y-126730704D01*
X128505580Y-126730704D01*
X128505580Y-126254514D01*
X129505580Y-125302133D02*
X129505580Y-125873561D01*
X129505580Y-125587847D02*
X128505580Y-125587847D01*
X128648438Y-125683085D01*
X128743676Y-125778323D01*
X128791295Y-125873561D01*
%TO.C,C1*%
X128074033Y-121663942D02*
X128026414Y-121711561D01*
X127883557Y-121759180D01*
X127788319Y-121759180D01*
X127645461Y-121711561D01*
X127550223Y-121616323D01*
X127502604Y-121521085D01*
X127454985Y-121330609D01*
X127454985Y-121187752D01*
X127502604Y-120997276D01*
X127550223Y-120902038D01*
X127645461Y-120806800D01*
X127788319Y-120759180D01*
X127883557Y-120759180D01*
X128026414Y-120806800D01*
X128074033Y-120854419D01*
X129026414Y-121759180D02*
X128454985Y-121759180D01*
X128740700Y-121759180D02*
X128740700Y-120759180D01*
X128645461Y-120902038D01*
X128550223Y-120997276D01*
X128454985Y-121044895D01*
%TO.C,C2*%
X128048633Y-115847342D02*
X128001014Y-115894961D01*
X127858157Y-115942580D01*
X127762919Y-115942580D01*
X127620061Y-115894961D01*
X127524823Y-115799723D01*
X127477204Y-115704485D01*
X127429585Y-115514009D01*
X127429585Y-115371152D01*
X127477204Y-115180676D01*
X127524823Y-115085438D01*
X127620061Y-114990200D01*
X127762919Y-114942580D01*
X127858157Y-114942580D01*
X128001014Y-114990200D01*
X128048633Y-115037819D01*
X128429585Y-115037819D02*
X128477204Y-114990200D01*
X128572442Y-114942580D01*
X128810538Y-114942580D01*
X128905776Y-114990200D01*
X128953395Y-115037819D01*
X129001014Y-115133057D01*
X129001014Y-115228295D01*
X128953395Y-115371152D01*
X128381966Y-115942580D01*
X129001014Y-115942580D01*
%TO.C,L1*%
X126005580Y-120241466D02*
X126005580Y-120717657D01*
X125005580Y-120717657D01*
X126005580Y-119384323D02*
X126005580Y-119955752D01*
X126005580Y-119670038D02*
X125005580Y-119670038D01*
X125148438Y-119765276D01*
X125243676Y-119860514D01*
X125291295Y-119955752D01*
%TO.C,U21*%
X147121380Y-105505095D02*
X147930904Y-105505095D01*
X148026142Y-105457476D01*
X148073761Y-105409857D01*
X148121380Y-105314619D01*
X148121380Y-105124142D01*
X148073761Y-105028904D01*
X148026142Y-104981285D01*
X147930904Y-104933666D01*
X147121380Y-104933666D01*
X147216619Y-104505095D02*
X147169000Y-104457476D01*
X147121380Y-104362238D01*
X147121380Y-104124142D01*
X147169000Y-104028904D01*
X147216619Y-103981285D01*
X147311857Y-103933666D01*
X147407095Y-103933666D01*
X147549952Y-103981285D01*
X148121380Y-104552714D01*
X148121380Y-103933666D01*
X148121380Y-102981285D02*
X148121380Y-103552714D01*
X148121380Y-103267000D02*
X147121380Y-103267000D01*
X147264238Y-103362238D01*
X147359476Y-103457476D01*
X147407095Y-103552714D01*
%TO.C,U20*%
X136034780Y-105860695D02*
X136844304Y-105860695D01*
X136939542Y-105813076D01*
X136987161Y-105765457D01*
X137034780Y-105670219D01*
X137034780Y-105479742D01*
X136987161Y-105384504D01*
X136939542Y-105336885D01*
X136844304Y-105289266D01*
X136034780Y-105289266D01*
X136130019Y-104860695D02*
X136082400Y-104813076D01*
X136034780Y-104717838D01*
X136034780Y-104479742D01*
X136082400Y-104384504D01*
X136130019Y-104336885D01*
X136225257Y-104289266D01*
X136320495Y-104289266D01*
X136463352Y-104336885D01*
X137034780Y-104908314D01*
X137034780Y-104289266D01*
X136034780Y-103670219D02*
X136034780Y-103574980D01*
X136082400Y-103479742D01*
X136130019Y-103432123D01*
X136225257Y-103384504D01*
X136415733Y-103336885D01*
X136653828Y-103336885D01*
X136844304Y-103384504D01*
X136939542Y-103432123D01*
X136987161Y-103479742D01*
X137034780Y-103574980D01*
X137034780Y-103670219D01*
X136987161Y-103765457D01*
X136939542Y-103813076D01*
X136844304Y-103860695D01*
X136653828Y-103908314D01*
X136415733Y-103908314D01*
X136225257Y-103860695D01*
X136130019Y-103813076D01*
X136082400Y-103765457D01*
X136034780Y-103670219D01*
%TO.C,R10*%
X132453142Y-93391980D02*
X132119809Y-92915790D01*
X131881714Y-93391980D02*
X131881714Y-92391980D01*
X132262666Y-92391980D01*
X132357904Y-92439600D01*
X132405523Y-92487219D01*
X132453142Y-92582457D01*
X132453142Y-92725314D01*
X132405523Y-92820552D01*
X132357904Y-92868171D01*
X132262666Y-92915790D01*
X131881714Y-92915790D01*
X133405523Y-93391980D02*
X132834095Y-93391980D01*
X133119809Y-93391980D02*
X133119809Y-92391980D01*
X133024571Y-92534838D01*
X132929333Y-92630076D01*
X132834095Y-92677695D01*
X134024571Y-92391980D02*
X134119809Y-92391980D01*
X134215047Y-92439600D01*
X134262666Y-92487219D01*
X134310285Y-92582457D01*
X134357904Y-92772933D01*
X134357904Y-93011028D01*
X134310285Y-93201504D01*
X134262666Y-93296742D01*
X134215047Y-93344361D01*
X134119809Y-93391980D01*
X134024571Y-93391980D01*
X133929333Y-93344361D01*
X133881714Y-93296742D01*
X133834095Y-93201504D01*
X133786476Y-93011028D01*
X133786476Y-92772933D01*
X133834095Y-92582457D01*
X133881714Y-92487219D01*
X133929333Y-92439600D01*
X134024571Y-92391980D01*
%TO.C,C16*%
X131669642Y-98912742D02*
X131622023Y-98960361D01*
X131479166Y-99007980D01*
X131383928Y-99007980D01*
X131241071Y-98960361D01*
X131145833Y-98865123D01*
X131098214Y-98769885D01*
X131050595Y-98579409D01*
X131050595Y-98436552D01*
X131098214Y-98246076D01*
X131145833Y-98150838D01*
X131241071Y-98055600D01*
X131383928Y-98007980D01*
X131479166Y-98007980D01*
X131622023Y-98055600D01*
X131669642Y-98103219D01*
X132622023Y-99007980D02*
X132050595Y-99007980D01*
X132336309Y-99007980D02*
X132336309Y-98007980D01*
X132241071Y-98150838D01*
X132145833Y-98246076D01*
X132050595Y-98293695D01*
X133479166Y-98007980D02*
X133288690Y-98007980D01*
X133193452Y-98055600D01*
X133145833Y-98103219D01*
X133050595Y-98246076D01*
X133002976Y-98436552D01*
X133002976Y-98817504D01*
X133050595Y-98912742D01*
X133098214Y-98960361D01*
X133193452Y-99007980D01*
X133383928Y-99007980D01*
X133479166Y-98960361D01*
X133526785Y-98912742D01*
X133574404Y-98817504D01*
X133574404Y-98579409D01*
X133526785Y-98484171D01*
X133479166Y-98436552D01*
X133383928Y-98388933D01*
X133193452Y-98388933D01*
X133098214Y-98436552D01*
X133050595Y-98484171D01*
X133002976Y-98579409D01*
%TO.C,U3*%
X164294780Y-64566704D02*
X165104304Y-64566704D01*
X165199542Y-64519085D01*
X165247161Y-64471466D01*
X165294780Y-64376228D01*
X165294780Y-64185752D01*
X165247161Y-64090514D01*
X165199542Y-64042895D01*
X165104304Y-63995276D01*
X164294780Y-63995276D01*
X164294780Y-63614323D02*
X164294780Y-62995276D01*
X164675733Y-63328609D01*
X164675733Y-63185752D01*
X164723352Y-63090514D01*
X164770971Y-63042895D01*
X164866209Y-62995276D01*
X165104304Y-62995276D01*
X165199542Y-63042895D01*
X165247161Y-63090514D01*
X165294780Y-63185752D01*
X165294780Y-63471466D01*
X165247161Y-63566704D01*
X165199542Y-63614323D01*
%TO.C,R2*%
X139263333Y-63419980D02*
X138930000Y-62943790D01*
X138691904Y-63419980D02*
X138691904Y-62419980D01*
X139072857Y-62419980D01*
X139168095Y-62467600D01*
X139215714Y-62515219D01*
X139263333Y-62610457D01*
X139263333Y-62753314D01*
X139215714Y-62848552D01*
X139168095Y-62896171D01*
X139072857Y-62943790D01*
X138691904Y-62943790D01*
X139644285Y-62515219D02*
X139691904Y-62467600D01*
X139787142Y-62419980D01*
X140025238Y-62419980D01*
X140120476Y-62467600D01*
X140168095Y-62515219D01*
X140215714Y-62610457D01*
X140215714Y-62705695D01*
X140168095Y-62848552D01*
X139596666Y-63419980D01*
X140215714Y-63419980D01*
%TO.C,U16*%
X155109504Y-99489980D02*
X155109504Y-100299504D01*
X155157123Y-100394742D01*
X155204742Y-100442361D01*
X155299980Y-100489980D01*
X155490457Y-100489980D01*
X155585695Y-100442361D01*
X155633314Y-100394742D01*
X155680933Y-100299504D01*
X155680933Y-99489980D01*
X156680933Y-100489980D02*
X156109504Y-100489980D01*
X156395219Y-100489980D02*
X156395219Y-99489980D01*
X156299980Y-99632838D01*
X156204742Y-99728076D01*
X156109504Y-99775695D01*
X157538076Y-99489980D02*
X157347600Y-99489980D01*
X157252361Y-99537600D01*
X157204742Y-99585219D01*
X157109504Y-99728076D01*
X157061885Y-99918552D01*
X157061885Y-100299504D01*
X157109504Y-100394742D01*
X157157123Y-100442361D01*
X157252361Y-100489980D01*
X157442838Y-100489980D01*
X157538076Y-100442361D01*
X157585695Y-100394742D01*
X157633314Y-100299504D01*
X157633314Y-100061409D01*
X157585695Y-99966171D01*
X157538076Y-99918552D01*
X157442838Y-99870933D01*
X157252361Y-99870933D01*
X157157123Y-99918552D01*
X157109504Y-99966171D01*
X157061885Y-100061409D01*
%TO.C,U19*%
X130343780Y-64158695D02*
X131153304Y-64158695D01*
X131248542Y-64111076D01*
X131296161Y-64063457D01*
X131343780Y-63968219D01*
X131343780Y-63777742D01*
X131296161Y-63682504D01*
X131248542Y-63634885D01*
X131153304Y-63587266D01*
X130343780Y-63587266D01*
X131343780Y-62587266D02*
X131343780Y-63158695D01*
X131343780Y-62872980D02*
X130343780Y-62872980D01*
X130486638Y-62968219D01*
X130581876Y-63063457D01*
X130629495Y-63158695D01*
X131343780Y-62111076D02*
X131343780Y-61920600D01*
X131296161Y-61825361D01*
X131248542Y-61777742D01*
X131105685Y-61682504D01*
X130915209Y-61634885D01*
X130534257Y-61634885D01*
X130439019Y-61682504D01*
X130391400Y-61730123D01*
X130343780Y-61825361D01*
X130343780Y-62015838D01*
X130391400Y-62111076D01*
X130439019Y-62158695D01*
X130534257Y-62206314D01*
X130772352Y-62206314D01*
X130867590Y-62158695D01*
X130915209Y-62111076D01*
X130962828Y-62015838D01*
X130962828Y-61825361D01*
X130915209Y-61730123D01*
X130867590Y-61682504D01*
X130772352Y-61634885D01*
%TO.C,C13*%
X160276742Y-97152942D02*
X160229123Y-97200561D01*
X160086266Y-97248180D01*
X159991028Y-97248180D01*
X159848171Y-97200561D01*
X159752933Y-97105323D01*
X159705314Y-97010085D01*
X159657695Y-96819609D01*
X159657695Y-96676752D01*
X159705314Y-96486276D01*
X159752933Y-96391038D01*
X159848171Y-96295800D01*
X159991028Y-96248180D01*
X160086266Y-96248180D01*
X160229123Y-96295800D01*
X160276742Y-96343419D01*
X161229123Y-97248180D02*
X160657695Y-97248180D01*
X160943409Y-97248180D02*
X160943409Y-96248180D01*
X160848171Y-96391038D01*
X160752933Y-96486276D01*
X160657695Y-96533895D01*
X161562457Y-96248180D02*
X162181504Y-96248180D01*
X161848171Y-96629133D01*
X161991028Y-96629133D01*
X162086266Y-96676752D01*
X162133885Y-96724371D01*
X162181504Y-96819609D01*
X162181504Y-97057704D01*
X162133885Y-97152942D01*
X162086266Y-97200561D01*
X161991028Y-97248180D01*
X161705314Y-97248180D01*
X161610076Y-97200561D01*
X161562457Y-97152942D01*
%TO.C,C12*%
X139019342Y-68837957D02*
X139066961Y-68885576D01*
X139114580Y-69028433D01*
X139114580Y-69123671D01*
X139066961Y-69266528D01*
X138971723Y-69361766D01*
X138876485Y-69409385D01*
X138686009Y-69457004D01*
X138543152Y-69457004D01*
X138352676Y-69409385D01*
X138257438Y-69361766D01*
X138162200Y-69266528D01*
X138114580Y-69123671D01*
X138114580Y-69028433D01*
X138162200Y-68885576D01*
X138209819Y-68837957D01*
X139114580Y-67885576D02*
X139114580Y-68457004D01*
X139114580Y-68171290D02*
X138114580Y-68171290D01*
X138257438Y-68266528D01*
X138352676Y-68361766D01*
X138400295Y-68457004D01*
X138209819Y-67504623D02*
X138162200Y-67457004D01*
X138114580Y-67361766D01*
X138114580Y-67123671D01*
X138162200Y-67028433D01*
X138209819Y-66980814D01*
X138305057Y-66933195D01*
X138400295Y-66933195D01*
X138543152Y-66980814D01*
X139114580Y-67552242D01*
X139114580Y-66933195D01*
%TO.C,R39*%
X115159780Y-115374657D02*
X114683590Y-115707990D01*
X115159780Y-115946085D02*
X114159780Y-115946085D01*
X114159780Y-115565133D01*
X114207400Y-115469895D01*
X114255019Y-115422276D01*
X114350257Y-115374657D01*
X114493114Y-115374657D01*
X114588352Y-115422276D01*
X114635971Y-115469895D01*
X114683590Y-115565133D01*
X114683590Y-115946085D01*
X114159780Y-115041323D02*
X114159780Y-114422276D01*
X114540733Y-114755609D01*
X114540733Y-114612752D01*
X114588352Y-114517514D01*
X114635971Y-114469895D01*
X114731209Y-114422276D01*
X114969304Y-114422276D01*
X115064542Y-114469895D01*
X115112161Y-114517514D01*
X115159780Y-114612752D01*
X115159780Y-114898466D01*
X115112161Y-114993704D01*
X115064542Y-115041323D01*
X115159780Y-113946085D02*
X115159780Y-113755609D01*
X115112161Y-113660371D01*
X115064542Y-113612752D01*
X114921685Y-113517514D01*
X114731209Y-113469895D01*
X114350257Y-113469895D01*
X114255019Y-113517514D01*
X114207400Y-113565133D01*
X114159780Y-113660371D01*
X114159780Y-113850847D01*
X114207400Y-113946085D01*
X114255019Y-113993704D01*
X114350257Y-114041323D01*
X114588352Y-114041323D01*
X114683590Y-113993704D01*
X114731209Y-113946085D01*
X114778828Y-113850847D01*
X114778828Y-113660371D01*
X114731209Y-113565133D01*
X114683590Y-113517514D01*
X114588352Y-113469895D01*
%TO.C,R26*%
X120307580Y-85155857D02*
X119831390Y-85489190D01*
X120307580Y-85727285D02*
X119307580Y-85727285D01*
X119307580Y-85346333D01*
X119355200Y-85251095D01*
X119402819Y-85203476D01*
X119498057Y-85155857D01*
X119640914Y-85155857D01*
X119736152Y-85203476D01*
X119783771Y-85251095D01*
X119831390Y-85346333D01*
X119831390Y-85727285D01*
X119402819Y-84774904D02*
X119355200Y-84727285D01*
X119307580Y-84632047D01*
X119307580Y-84393952D01*
X119355200Y-84298714D01*
X119402819Y-84251095D01*
X119498057Y-84203476D01*
X119593295Y-84203476D01*
X119736152Y-84251095D01*
X120307580Y-84822523D01*
X120307580Y-84203476D01*
X119307580Y-83346333D02*
X119307580Y-83536809D01*
X119355200Y-83632047D01*
X119402819Y-83679666D01*
X119545676Y-83774904D01*
X119736152Y-83822523D01*
X120117104Y-83822523D01*
X120212342Y-83774904D01*
X120259961Y-83727285D01*
X120307580Y-83632047D01*
X120307580Y-83441571D01*
X120259961Y-83346333D01*
X120212342Y-83298714D01*
X120117104Y-83251095D01*
X119879009Y-83251095D01*
X119783771Y-83298714D01*
X119736152Y-83346333D01*
X119688533Y-83441571D01*
X119688533Y-83632047D01*
X119736152Y-83727285D01*
X119783771Y-83774904D01*
X119879009Y-83822523D01*
%TO.C,L2*%
X155317333Y-107640380D02*
X154841142Y-107640380D01*
X154841142Y-106640380D01*
X155603047Y-106735619D02*
X155650666Y-106688000D01*
X155745904Y-106640380D01*
X155984000Y-106640380D01*
X156079238Y-106688000D01*
X156126857Y-106735619D01*
X156174476Y-106830857D01*
X156174476Y-106926095D01*
X156126857Y-107068952D01*
X155555428Y-107640380D01*
X156174476Y-107640380D01*
%TO.C,U15*%
X97064580Y-90773095D02*
X97874104Y-90773095D01*
X97969342Y-90725476D01*
X98016961Y-90677857D01*
X98064580Y-90582619D01*
X98064580Y-90392142D01*
X98016961Y-90296904D01*
X97969342Y-90249285D01*
X97874104Y-90201666D01*
X97064580Y-90201666D01*
X98064580Y-89201666D02*
X98064580Y-89773095D01*
X98064580Y-89487380D02*
X97064580Y-89487380D01*
X97207438Y-89582619D01*
X97302676Y-89677857D01*
X97350295Y-89773095D01*
X97064580Y-88296904D02*
X97064580Y-88773095D01*
X97540771Y-88820714D01*
X97493152Y-88773095D01*
X97445533Y-88677857D01*
X97445533Y-88439761D01*
X97493152Y-88344523D01*
X97540771Y-88296904D01*
X97636009Y-88249285D01*
X97874104Y-88249285D01*
X97969342Y-88296904D01*
X98016961Y-88344523D01*
X98064580Y-88439761D01*
X98064580Y-88677857D01*
X98016961Y-88773095D01*
X97969342Y-88820714D01*
%TO.C,R3*%
X142047933Y-102178380D02*
X141714600Y-101702190D01*
X141476504Y-102178380D02*
X141476504Y-101178380D01*
X141857457Y-101178380D01*
X141952695Y-101226000D01*
X142000314Y-101273619D01*
X142047933Y-101368857D01*
X142047933Y-101511714D01*
X142000314Y-101606952D01*
X141952695Y-101654571D01*
X141857457Y-101702190D01*
X141476504Y-101702190D01*
X142381266Y-101178380D02*
X143000314Y-101178380D01*
X142666980Y-101559333D01*
X142809838Y-101559333D01*
X142905076Y-101606952D01*
X142952695Y-101654571D01*
X143000314Y-101749809D01*
X143000314Y-101987904D01*
X142952695Y-102083142D01*
X142905076Y-102130761D01*
X142809838Y-102178380D01*
X142524123Y-102178380D01*
X142428885Y-102130761D01*
X142381266Y-102083142D01*
%TO.C,C3*%
X135934342Y-88203766D02*
X135981961Y-88251385D01*
X136029580Y-88394242D01*
X136029580Y-88489480D01*
X135981961Y-88632338D01*
X135886723Y-88727576D01*
X135791485Y-88775195D01*
X135601009Y-88822814D01*
X135458152Y-88822814D01*
X135267676Y-88775195D01*
X135172438Y-88727576D01*
X135077200Y-88632338D01*
X135029580Y-88489480D01*
X135029580Y-88394242D01*
X135077200Y-88251385D01*
X135124819Y-88203766D01*
X135029580Y-87870433D02*
X135029580Y-87251385D01*
X135410533Y-87584719D01*
X135410533Y-87441861D01*
X135458152Y-87346623D01*
X135505771Y-87299004D01*
X135601009Y-87251385D01*
X135839104Y-87251385D01*
X135934342Y-87299004D01*
X135981961Y-87346623D01*
X136029580Y-87441861D01*
X136029580Y-87727576D01*
X135981961Y-87822814D01*
X135934342Y-87870433D01*
%TO.C,R25*%
X124117580Y-89060857D02*
X123641390Y-89394190D01*
X124117580Y-89632285D02*
X123117580Y-89632285D01*
X123117580Y-89251333D01*
X123165200Y-89156095D01*
X123212819Y-89108476D01*
X123308057Y-89060857D01*
X123450914Y-89060857D01*
X123546152Y-89108476D01*
X123593771Y-89156095D01*
X123641390Y-89251333D01*
X123641390Y-89632285D01*
X123212819Y-88679904D02*
X123165200Y-88632285D01*
X123117580Y-88537047D01*
X123117580Y-88298952D01*
X123165200Y-88203714D01*
X123212819Y-88156095D01*
X123308057Y-88108476D01*
X123403295Y-88108476D01*
X123546152Y-88156095D01*
X124117580Y-88727523D01*
X124117580Y-88108476D01*
X123117580Y-87203714D02*
X123117580Y-87679904D01*
X123593771Y-87727523D01*
X123546152Y-87679904D01*
X123498533Y-87584666D01*
X123498533Y-87346571D01*
X123546152Y-87251333D01*
X123593771Y-87203714D01*
X123689009Y-87156095D01*
X123927104Y-87156095D01*
X124022342Y-87203714D01*
X124069961Y-87251333D01*
X124117580Y-87346571D01*
X124117580Y-87584666D01*
X124069961Y-87679904D01*
X124022342Y-87727523D01*
%TO.C,J3*%
X168322666Y-66965580D02*
X168322666Y-67679866D01*
X168275047Y-67822723D01*
X168179809Y-67917961D01*
X168036952Y-67965580D01*
X167941714Y-67965580D01*
X168703619Y-66965580D02*
X169322666Y-66965580D01*
X168989333Y-67346533D01*
X169132190Y-67346533D01*
X169227428Y-67394152D01*
X169275047Y-67441771D01*
X169322666Y-67537009D01*
X169322666Y-67775104D01*
X169275047Y-67870342D01*
X169227428Y-67917961D01*
X169132190Y-67965580D01*
X168846476Y-67965580D01*
X168751238Y-67917961D01*
X168703619Y-67870342D01*
%TO.C,SW1*%
X117358561Y-56990133D02*
X117406180Y-56847276D01*
X117406180Y-56609180D01*
X117358561Y-56513942D01*
X117310942Y-56466323D01*
X117215704Y-56418704D01*
X117120466Y-56418704D01*
X117025228Y-56466323D01*
X116977609Y-56513942D01*
X116929990Y-56609180D01*
X116882371Y-56799657D01*
X116834752Y-56894895D01*
X116787133Y-56942514D01*
X116691895Y-56990133D01*
X116596657Y-56990133D01*
X116501419Y-56942514D01*
X116453800Y-56894895D01*
X116406180Y-56799657D01*
X116406180Y-56561561D01*
X116453800Y-56418704D01*
X116406180Y-56085371D02*
X117406180Y-55847276D01*
X116691895Y-55656800D01*
X117406180Y-55466323D01*
X116406180Y-55228228D01*
X117406180Y-54323466D02*
X117406180Y-54894895D01*
X117406180Y-54609180D02*
X116406180Y-54609180D01*
X116549038Y-54704419D01*
X116644276Y-54799657D01*
X116691895Y-54894895D01*
%TO.C,R17*%
X120822942Y-58661380D02*
X120489609Y-58185190D01*
X120251514Y-58661380D02*
X120251514Y-57661380D01*
X120632466Y-57661380D01*
X120727704Y-57709000D01*
X120775323Y-57756619D01*
X120822942Y-57851857D01*
X120822942Y-57994714D01*
X120775323Y-58089952D01*
X120727704Y-58137571D01*
X120632466Y-58185190D01*
X120251514Y-58185190D01*
X121775323Y-58661380D02*
X121203895Y-58661380D01*
X121489609Y-58661380D02*
X121489609Y-57661380D01*
X121394371Y-57804238D01*
X121299133Y-57899476D01*
X121203895Y-57947095D01*
X122108657Y-57661380D02*
X122775323Y-57661380D01*
X122346752Y-58661380D01*
%TO.C,BT2*%
X99410885Y-64340971D02*
X99553742Y-64388590D01*
X99601361Y-64436209D01*
X99648980Y-64531447D01*
X99648980Y-64674304D01*
X99601361Y-64769542D01*
X99553742Y-64817161D01*
X99458504Y-64864780D01*
X99077552Y-64864780D01*
X99077552Y-63864780D01*
X99410885Y-63864780D01*
X99506123Y-63912400D01*
X99553742Y-63960019D01*
X99601361Y-64055257D01*
X99601361Y-64150495D01*
X99553742Y-64245733D01*
X99506123Y-64293352D01*
X99410885Y-64340971D01*
X99077552Y-64340971D01*
X99934695Y-63864780D02*
X100506123Y-63864780D01*
X100220409Y-64864780D02*
X100220409Y-63864780D01*
X100791838Y-63960019D02*
X100839457Y-63912400D01*
X100934695Y-63864780D01*
X101172790Y-63864780D01*
X101268028Y-63912400D01*
X101315647Y-63960019D01*
X101363266Y-64055257D01*
X101363266Y-64150495D01*
X101315647Y-64293352D01*
X100744219Y-64864780D01*
X101363266Y-64864780D01*
%TO.C,J6*%
X169802066Y-106970580D02*
X169802066Y-107684866D01*
X169754447Y-107827723D01*
X169659209Y-107922961D01*
X169516352Y-107970580D01*
X169421114Y-107970580D01*
X170706828Y-106970580D02*
X170516352Y-106970580D01*
X170421114Y-107018200D01*
X170373495Y-107065819D01*
X170278257Y-107208676D01*
X170230638Y-107399152D01*
X170230638Y-107780104D01*
X170278257Y-107875342D01*
X170325876Y-107922961D01*
X170421114Y-107970580D01*
X170611590Y-107970580D01*
X170706828Y-107922961D01*
X170754447Y-107875342D01*
X170802066Y-107780104D01*
X170802066Y-107542009D01*
X170754447Y-107446771D01*
X170706828Y-107399152D01*
X170611590Y-107351533D01*
X170421114Y-107351533D01*
X170325876Y-107399152D01*
X170278257Y-107446771D01*
X170230638Y-107542009D01*
%TO.C,R20*%
X146067542Y-118764580D02*
X145734209Y-118288390D01*
X145496114Y-118764580D02*
X145496114Y-117764580D01*
X145877066Y-117764580D01*
X145972304Y-117812200D01*
X146019923Y-117859819D01*
X146067542Y-117955057D01*
X146067542Y-118097914D01*
X146019923Y-118193152D01*
X145972304Y-118240771D01*
X145877066Y-118288390D01*
X145496114Y-118288390D01*
X146448495Y-117859819D02*
X146496114Y-117812200D01*
X146591352Y-117764580D01*
X146829447Y-117764580D01*
X146924685Y-117812200D01*
X146972304Y-117859819D01*
X147019923Y-117955057D01*
X147019923Y-118050295D01*
X146972304Y-118193152D01*
X146400876Y-118764580D01*
X147019923Y-118764580D01*
X147638971Y-117764580D02*
X147734209Y-117764580D01*
X147829447Y-117812200D01*
X147877066Y-117859819D01*
X147924685Y-117955057D01*
X147972304Y-118145533D01*
X147972304Y-118383628D01*
X147924685Y-118574104D01*
X147877066Y-118669342D01*
X147829447Y-118716961D01*
X147734209Y-118764580D01*
X147638971Y-118764580D01*
X147543733Y-118716961D01*
X147496114Y-118669342D01*
X147448495Y-118574104D01*
X147400876Y-118383628D01*
X147400876Y-118145533D01*
X147448495Y-117955057D01*
X147496114Y-117859819D01*
X147543733Y-117812200D01*
X147638971Y-117764580D01*
%TO.C,J2*%
X104670266Y-94118180D02*
X104670266Y-94832466D01*
X104622647Y-94975323D01*
X104527409Y-95070561D01*
X104384552Y-95118180D01*
X104289314Y-95118180D01*
X105098838Y-94213419D02*
X105146457Y-94165800D01*
X105241695Y-94118180D01*
X105479790Y-94118180D01*
X105575028Y-94165800D01*
X105622647Y-94213419D01*
X105670266Y-94308657D01*
X105670266Y-94403895D01*
X105622647Y-94546752D01*
X105051219Y-95118180D01*
X105670266Y-95118180D01*
%TO.C,R18*%
X120568942Y-66281380D02*
X120235609Y-65805190D01*
X119997514Y-66281380D02*
X119997514Y-65281380D01*
X120378466Y-65281380D01*
X120473704Y-65329000D01*
X120521323Y-65376619D01*
X120568942Y-65471857D01*
X120568942Y-65614714D01*
X120521323Y-65709952D01*
X120473704Y-65757571D01*
X120378466Y-65805190D01*
X119997514Y-65805190D01*
X121521323Y-66281380D02*
X120949895Y-66281380D01*
X121235609Y-66281380D02*
X121235609Y-65281380D01*
X121140371Y-65424238D01*
X121045133Y-65519476D01*
X120949895Y-65567095D01*
X122092752Y-65709952D02*
X121997514Y-65662333D01*
X121949895Y-65614714D01*
X121902276Y-65519476D01*
X121902276Y-65471857D01*
X121949895Y-65376619D01*
X121997514Y-65329000D01*
X122092752Y-65281380D01*
X122283228Y-65281380D01*
X122378466Y-65329000D01*
X122426085Y-65376619D01*
X122473704Y-65471857D01*
X122473704Y-65519476D01*
X122426085Y-65614714D01*
X122378466Y-65662333D01*
X122283228Y-65709952D01*
X122092752Y-65709952D01*
X121997514Y-65757571D01*
X121949895Y-65805190D01*
X121902276Y-65900428D01*
X121902276Y-66090904D01*
X121949895Y-66186142D01*
X121997514Y-66233761D01*
X122092752Y-66281380D01*
X122283228Y-66281380D01*
X122378466Y-66233761D01*
X122426085Y-66186142D01*
X122473704Y-66090904D01*
X122473704Y-65900428D01*
X122426085Y-65805190D01*
X122378466Y-65757571D01*
X122283228Y-65709952D01*
%TO.C,R40*%
X115689142Y-112465380D02*
X115355809Y-111989190D01*
X115117714Y-112465380D02*
X115117714Y-111465380D01*
X115498666Y-111465380D01*
X115593904Y-111513000D01*
X115641523Y-111560619D01*
X115689142Y-111655857D01*
X115689142Y-111798714D01*
X115641523Y-111893952D01*
X115593904Y-111941571D01*
X115498666Y-111989190D01*
X115117714Y-111989190D01*
X116546285Y-111798714D02*
X116546285Y-112465380D01*
X116308190Y-111417761D02*
X116070095Y-112132047D01*
X116689142Y-112132047D01*
X117260571Y-111465380D02*
X117355809Y-111465380D01*
X117451047Y-111513000D01*
X117498666Y-111560619D01*
X117546285Y-111655857D01*
X117593904Y-111846333D01*
X117593904Y-112084428D01*
X117546285Y-112274904D01*
X117498666Y-112370142D01*
X117451047Y-112417761D01*
X117355809Y-112465380D01*
X117260571Y-112465380D01*
X117165333Y-112417761D01*
X117117714Y-112370142D01*
X117070095Y-112274904D01*
X117022476Y-112084428D01*
X117022476Y-111846333D01*
X117070095Y-111655857D01*
X117117714Y-111560619D01*
X117165333Y-111513000D01*
X117260571Y-111465380D01*
%TO.C,Y1*%
X138448009Y-83426790D02*
X138448009Y-83902980D01*
X138114676Y-82902980D02*
X138448009Y-83426790D01*
X138781342Y-82902980D01*
X139638485Y-83902980D02*
X139067057Y-83902980D01*
X139352771Y-83902980D02*
X139352771Y-82902980D01*
X139257533Y-83045838D01*
X139162295Y-83141076D01*
X139067057Y-83188695D01*
%TO.C,BT3*%
X99639485Y-71808571D02*
X99782342Y-71856190D01*
X99829961Y-71903809D01*
X99877580Y-71999047D01*
X99877580Y-72141904D01*
X99829961Y-72237142D01*
X99782342Y-72284761D01*
X99687104Y-72332380D01*
X99306152Y-72332380D01*
X99306152Y-71332380D01*
X99639485Y-71332380D01*
X99734723Y-71380000D01*
X99782342Y-71427619D01*
X99829961Y-71522857D01*
X99829961Y-71618095D01*
X99782342Y-71713333D01*
X99734723Y-71760952D01*
X99639485Y-71808571D01*
X99306152Y-71808571D01*
X100163295Y-71332380D02*
X100734723Y-71332380D01*
X100449009Y-72332380D02*
X100449009Y-71332380D01*
X100972819Y-71332380D02*
X101591866Y-71332380D01*
X101258533Y-71713333D01*
X101401390Y-71713333D01*
X101496628Y-71760952D01*
X101544247Y-71808571D01*
X101591866Y-71903809D01*
X101591866Y-72141904D01*
X101544247Y-72237142D01*
X101496628Y-72284761D01*
X101401390Y-72332380D01*
X101115676Y-72332380D01*
X101020438Y-72284761D01*
X100972819Y-72237142D01*
%TO.C,R19*%
X120797542Y-74561780D02*
X120464209Y-74085590D01*
X120226114Y-74561780D02*
X120226114Y-73561780D01*
X120607066Y-73561780D01*
X120702304Y-73609400D01*
X120749923Y-73657019D01*
X120797542Y-73752257D01*
X120797542Y-73895114D01*
X120749923Y-73990352D01*
X120702304Y-74037971D01*
X120607066Y-74085590D01*
X120226114Y-74085590D01*
X121749923Y-74561780D02*
X121178495Y-74561780D01*
X121464209Y-74561780D02*
X121464209Y-73561780D01*
X121368971Y-73704638D01*
X121273733Y-73799876D01*
X121178495Y-73847495D01*
X122226114Y-74561780D02*
X122416590Y-74561780D01*
X122511828Y-74514161D01*
X122559447Y-74466542D01*
X122654685Y-74323685D01*
X122702304Y-74133209D01*
X122702304Y-73752257D01*
X122654685Y-73657019D01*
X122607066Y-73609400D01*
X122511828Y-73561780D01*
X122321352Y-73561780D01*
X122226114Y-73609400D01*
X122178495Y-73657019D01*
X122130876Y-73752257D01*
X122130876Y-73990352D01*
X122178495Y-74085590D01*
X122226114Y-74133209D01*
X122321352Y-74180828D01*
X122511828Y-74180828D01*
X122607066Y-74133209D01*
X122654685Y-74085590D01*
X122702304Y-73990352D01*
%TO.C,U17*%
X118141904Y-94143580D02*
X118141904Y-94953104D01*
X118189523Y-95048342D01*
X118237142Y-95095961D01*
X118332380Y-95143580D01*
X118522857Y-95143580D01*
X118618095Y-95095961D01*
X118665714Y-95048342D01*
X118713333Y-94953104D01*
X118713333Y-94143580D01*
X119713333Y-95143580D02*
X119141904Y-95143580D01*
X119427619Y-95143580D02*
X119427619Y-94143580D01*
X119332380Y-94286438D01*
X119237142Y-94381676D01*
X119141904Y-94429295D01*
X120046666Y-94143580D02*
X120713333Y-94143580D01*
X120284761Y-95143580D01*
%TO.C,U1*%
X137834295Y-89084980D02*
X137834295Y-89894504D01*
X137881914Y-89989742D01*
X137929533Y-90037361D01*
X138024771Y-90084980D01*
X138215247Y-90084980D01*
X138310485Y-90037361D01*
X138358104Y-89989742D01*
X138405723Y-89894504D01*
X138405723Y-89084980D01*
X139405723Y-90084980D02*
X138834295Y-90084980D01*
X139120009Y-90084980D02*
X139120009Y-89084980D01*
X139024771Y-89227838D01*
X138929533Y-89323076D01*
X138834295Y-89370695D01*
%TO.C,TH1*%
X140827285Y-117637580D02*
X141398714Y-117637580D01*
X141113000Y-118637580D02*
X141113000Y-117637580D01*
X141732047Y-118637580D02*
X141732047Y-117637580D01*
X141732047Y-118113771D02*
X142303476Y-118113771D01*
X142303476Y-118637580D02*
X142303476Y-117637580D01*
X143303476Y-118637580D02*
X142732047Y-118637580D01*
X143017761Y-118637580D02*
X143017761Y-117637580D01*
X142922523Y-117780438D01*
X142827285Y-117875676D01*
X142732047Y-117923295D01*
%TO.C,J7*%
X106614980Y-136146133D02*
X107329266Y-136146133D01*
X107472123Y-136193752D01*
X107567361Y-136288990D01*
X107614980Y-136431847D01*
X107614980Y-136527085D01*
X106614980Y-135765180D02*
X106614980Y-135098514D01*
X107614980Y-135527085D01*
%TO.C,R4*%
X99387780Y-81667066D02*
X98911590Y-82000400D01*
X99387780Y-82238495D02*
X98387780Y-82238495D01*
X98387780Y-81857542D01*
X98435400Y-81762304D01*
X98483019Y-81714685D01*
X98578257Y-81667066D01*
X98721114Y-81667066D01*
X98816352Y-81714685D01*
X98863971Y-81762304D01*
X98911590Y-81857542D01*
X98911590Y-82238495D01*
X98721114Y-80809923D02*
X99387780Y-80809923D01*
X98340161Y-81048019D02*
X99054447Y-81286114D01*
X99054447Y-80667066D01*
%TO.C,R21*%
X146423142Y-127959380D02*
X146089809Y-127483190D01*
X145851714Y-127959380D02*
X145851714Y-126959380D01*
X146232666Y-126959380D01*
X146327904Y-127007000D01*
X146375523Y-127054619D01*
X146423142Y-127149857D01*
X146423142Y-127292714D01*
X146375523Y-127387952D01*
X146327904Y-127435571D01*
X146232666Y-127483190D01*
X145851714Y-127483190D01*
X146804095Y-127054619D02*
X146851714Y-127007000D01*
X146946952Y-126959380D01*
X147185047Y-126959380D01*
X147280285Y-127007000D01*
X147327904Y-127054619D01*
X147375523Y-127149857D01*
X147375523Y-127245095D01*
X147327904Y-127387952D01*
X146756476Y-127959380D01*
X147375523Y-127959380D01*
X148327904Y-127959380D02*
X147756476Y-127959380D01*
X148042190Y-127959380D02*
X148042190Y-126959380D01*
X147946952Y-127102238D01*
X147851714Y-127197476D01*
X147756476Y-127245095D01*
%TO.C,U8*%
X147294695Y-72631580D02*
X147294695Y-73441104D01*
X147342314Y-73536342D01*
X147389933Y-73583961D01*
X147485171Y-73631580D01*
X147675647Y-73631580D01*
X147770885Y-73583961D01*
X147818504Y-73536342D01*
X147866123Y-73441104D01*
X147866123Y-72631580D01*
X148485171Y-73060152D02*
X148389933Y-73012533D01*
X148342314Y-72964914D01*
X148294695Y-72869676D01*
X148294695Y-72822057D01*
X148342314Y-72726819D01*
X148389933Y-72679200D01*
X148485171Y-72631580D01*
X148675647Y-72631580D01*
X148770885Y-72679200D01*
X148818504Y-72726819D01*
X148866123Y-72822057D01*
X148866123Y-72869676D01*
X148818504Y-72964914D01*
X148770885Y-73012533D01*
X148675647Y-73060152D01*
X148485171Y-73060152D01*
X148389933Y-73107771D01*
X148342314Y-73155390D01*
X148294695Y-73250628D01*
X148294695Y-73441104D01*
X148342314Y-73536342D01*
X148389933Y-73583961D01*
X148485171Y-73631580D01*
X148675647Y-73631580D01*
X148770885Y-73583961D01*
X148818504Y-73536342D01*
X148866123Y-73441104D01*
X148866123Y-73250628D01*
X148818504Y-73155390D01*
X148770885Y-73107771D01*
X148675647Y-73060152D01*
%TO.C,TH2*%
X140725685Y-126933980D02*
X141297114Y-126933980D01*
X141011400Y-127933980D02*
X141011400Y-126933980D01*
X141630447Y-127933980D02*
X141630447Y-126933980D01*
X141630447Y-127410171D02*
X142201876Y-127410171D01*
X142201876Y-127933980D02*
X142201876Y-126933980D01*
X142630447Y-127029219D02*
X142678066Y-126981600D01*
X142773304Y-126933980D01*
X143011400Y-126933980D01*
X143106638Y-126981600D01*
X143154257Y-127029219D01*
X143201876Y-127124457D01*
X143201876Y-127219695D01*
X143154257Y-127362552D01*
X142582828Y-127933980D01*
X143201876Y-127933980D01*
%TO.C,J5*%
X135938666Y-53630580D02*
X135938666Y-54344866D01*
X135891047Y-54487723D01*
X135795809Y-54582961D01*
X135652952Y-54630580D01*
X135557714Y-54630580D01*
X136891047Y-53630580D02*
X136414857Y-53630580D01*
X136367238Y-54106771D01*
X136414857Y-54059152D01*
X136510095Y-54011533D01*
X136748190Y-54011533D01*
X136843428Y-54059152D01*
X136891047Y-54106771D01*
X136938666Y-54202009D01*
X136938666Y-54440104D01*
X136891047Y-54535342D01*
X136843428Y-54582961D01*
X136748190Y-54630580D01*
X136510095Y-54630580D01*
X136414857Y-54582961D01*
X136367238Y-54535342D01*
%TO.C,J8*%
X165096866Y-124928380D02*
X165096866Y-125642666D01*
X165049247Y-125785523D01*
X164954009Y-125880761D01*
X164811152Y-125928380D01*
X164715914Y-125928380D01*
X165715914Y-125356952D02*
X165620676Y-125309333D01*
X165573057Y-125261714D01*
X165525438Y-125166476D01*
X165525438Y-125118857D01*
X165573057Y-125023619D01*
X165620676Y-124976000D01*
X165715914Y-124928380D01*
X165906390Y-124928380D01*
X166001628Y-124976000D01*
X166049247Y-125023619D01*
X166096866Y-125118857D01*
X166096866Y-125166476D01*
X166049247Y-125261714D01*
X166001628Y-125309333D01*
X165906390Y-125356952D01*
X165715914Y-125356952D01*
X165620676Y-125404571D01*
X165573057Y-125452190D01*
X165525438Y-125547428D01*
X165525438Y-125737904D01*
X165573057Y-125833142D01*
X165620676Y-125880761D01*
X165715914Y-125928380D01*
X165906390Y-125928380D01*
X166001628Y-125880761D01*
X166049247Y-125833142D01*
X166096866Y-125737904D01*
X166096866Y-125547428D01*
X166049247Y-125452190D01*
X166001628Y-125404571D01*
X165906390Y-125356952D01*
%TO.C,R27*%
X120307580Y-89060857D02*
X119831390Y-89394190D01*
X120307580Y-89632285D02*
X119307580Y-89632285D01*
X119307580Y-89251333D01*
X119355200Y-89156095D01*
X119402819Y-89108476D01*
X119498057Y-89060857D01*
X119640914Y-89060857D01*
X119736152Y-89108476D01*
X119783771Y-89156095D01*
X119831390Y-89251333D01*
X119831390Y-89632285D01*
X119402819Y-88679904D02*
X119355200Y-88632285D01*
X119307580Y-88537047D01*
X119307580Y-88298952D01*
X119355200Y-88203714D01*
X119402819Y-88156095D01*
X119498057Y-88108476D01*
X119593295Y-88108476D01*
X119736152Y-88156095D01*
X120307580Y-88727523D01*
X120307580Y-88108476D01*
X119307580Y-87775142D02*
X119307580Y-87108476D01*
X120307580Y-87537047D01*
%TO.C,U5*%
X108451695Y-80990180D02*
X108451695Y-81799704D01*
X108499314Y-81894942D01*
X108546933Y-81942561D01*
X108642171Y-81990180D01*
X108832647Y-81990180D01*
X108927885Y-81942561D01*
X108975504Y-81894942D01*
X109023123Y-81799704D01*
X109023123Y-80990180D01*
X109975504Y-80990180D02*
X109499314Y-80990180D01*
X109451695Y-81466371D01*
X109499314Y-81418752D01*
X109594552Y-81371133D01*
X109832647Y-81371133D01*
X109927885Y-81418752D01*
X109975504Y-81466371D01*
X110023123Y-81561609D01*
X110023123Y-81799704D01*
X109975504Y-81894942D01*
X109927885Y-81942561D01*
X109832647Y-81990180D01*
X109594552Y-81990180D01*
X109499314Y-81942561D01*
X109451695Y-81894942D01*
%TO.C,TH3*%
X141021085Y-141081780D02*
X141592514Y-141081780D01*
X141306800Y-142081780D02*
X141306800Y-141081780D01*
X141925847Y-142081780D02*
X141925847Y-141081780D01*
X141925847Y-141557971D02*
X142497276Y-141557971D01*
X142497276Y-142081780D02*
X142497276Y-141081780D01*
X142878228Y-141081780D02*
X143497276Y-141081780D01*
X143163942Y-141462733D01*
X143306800Y-141462733D01*
X143402038Y-141510352D01*
X143449657Y-141557971D01*
X143497276Y-141653209D01*
X143497276Y-141891304D01*
X143449657Y-141986542D01*
X143402038Y-142034161D01*
X143306800Y-142081780D01*
X143021085Y-142081780D01*
X142925847Y-142034161D01*
X142878228Y-141986542D01*
%TO.C,R16*%
X109237980Y-77773857D02*
X108761790Y-78107190D01*
X109237980Y-78345285D02*
X108237980Y-78345285D01*
X108237980Y-77964333D01*
X108285600Y-77869095D01*
X108333219Y-77821476D01*
X108428457Y-77773857D01*
X108571314Y-77773857D01*
X108666552Y-77821476D01*
X108714171Y-77869095D01*
X108761790Y-77964333D01*
X108761790Y-78345285D01*
X109237980Y-76821476D02*
X109237980Y-77392904D01*
X109237980Y-77107190D02*
X108237980Y-77107190D01*
X108380838Y-77202428D01*
X108476076Y-77297666D01*
X108523695Y-77392904D01*
X108237980Y-75964333D02*
X108237980Y-76154809D01*
X108285600Y-76250047D01*
X108333219Y-76297666D01*
X108476076Y-76392904D01*
X108666552Y-76440523D01*
X109047504Y-76440523D01*
X109142742Y-76392904D01*
X109190361Y-76345285D01*
X109237980Y-76250047D01*
X109237980Y-76059571D01*
X109190361Y-75964333D01*
X109142742Y-75916714D01*
X109047504Y-75869095D01*
X108809409Y-75869095D01*
X108714171Y-75916714D01*
X108666552Y-75964333D01*
X108618933Y-76059571D01*
X108618933Y-76250047D01*
X108666552Y-76345285D01*
X108714171Y-76392904D01*
X108809409Y-76440523D01*
%TO.C,U4*%
X148274580Y-72999504D02*
X149084104Y-72999504D01*
X149179342Y-72951885D01*
X149226961Y-72904266D01*
X149274580Y-72809028D01*
X149274580Y-72618552D01*
X149226961Y-72523314D01*
X149179342Y-72475695D01*
X149084104Y-72428076D01*
X148274580Y-72428076D01*
X148607914Y-71523314D02*
X149274580Y-71523314D01*
X148226961Y-71761409D02*
X148941247Y-71999504D01*
X148941247Y-71380457D01*
%TO.C,C8*%
X140416342Y-100395066D02*
X140463961Y-100442685D01*
X140511580Y-100585542D01*
X140511580Y-100680780D01*
X140463961Y-100823638D01*
X140368723Y-100918876D01*
X140273485Y-100966495D01*
X140083009Y-101014114D01*
X139940152Y-101014114D01*
X139749676Y-100966495D01*
X139654438Y-100918876D01*
X139559200Y-100823638D01*
X139511580Y-100680780D01*
X139511580Y-100585542D01*
X139559200Y-100442685D01*
X139606819Y-100395066D01*
X139940152Y-99823638D02*
X139892533Y-99918876D01*
X139844914Y-99966495D01*
X139749676Y-100014114D01*
X139702057Y-100014114D01*
X139606819Y-99966495D01*
X139559200Y-99918876D01*
X139511580Y-99823638D01*
X139511580Y-99633161D01*
X139559200Y-99537923D01*
X139606819Y-99490304D01*
X139702057Y-99442685D01*
X139749676Y-99442685D01*
X139844914Y-99490304D01*
X139892533Y-99537923D01*
X139940152Y-99633161D01*
X139940152Y-99823638D01*
X139987771Y-99918876D01*
X140035390Y-99966495D01*
X140130628Y-100014114D01*
X140321104Y-100014114D01*
X140416342Y-99966495D01*
X140463961Y-99918876D01*
X140511580Y-99823638D01*
X140511580Y-99633161D01*
X140463961Y-99537923D01*
X140416342Y-99490304D01*
X140321104Y-99442685D01*
X140130628Y-99442685D01*
X140035390Y-99490304D01*
X139987771Y-99537923D01*
X139940152Y-99633161D01*
%TO.C,C14*%
X160962542Y-100556542D02*
X160914923Y-100604161D01*
X160772066Y-100651780D01*
X160676828Y-100651780D01*
X160533971Y-100604161D01*
X160438733Y-100508923D01*
X160391114Y-100413685D01*
X160343495Y-100223209D01*
X160343495Y-100080352D01*
X160391114Y-99889876D01*
X160438733Y-99794638D01*
X160533971Y-99699400D01*
X160676828Y-99651780D01*
X160772066Y-99651780D01*
X160914923Y-99699400D01*
X160962542Y-99747019D01*
X161914923Y-100651780D02*
X161343495Y-100651780D01*
X161629209Y-100651780D02*
X161629209Y-99651780D01*
X161533971Y-99794638D01*
X161438733Y-99889876D01*
X161343495Y-99937495D01*
X162772066Y-99985114D02*
X162772066Y-100651780D01*
X162533971Y-99604161D02*
X162295876Y-100318447D01*
X162914923Y-100318447D01*
%TO.C,C4*%
X130542342Y-88203766D02*
X130589961Y-88251385D01*
X130637580Y-88394242D01*
X130637580Y-88489480D01*
X130589961Y-88632338D01*
X130494723Y-88727576D01*
X130399485Y-88775195D01*
X130209009Y-88822814D01*
X130066152Y-88822814D01*
X129875676Y-88775195D01*
X129780438Y-88727576D01*
X129685200Y-88632338D01*
X129637580Y-88489480D01*
X129637580Y-88394242D01*
X129685200Y-88251385D01*
X129732819Y-88203766D01*
X129970914Y-87346623D02*
X130637580Y-87346623D01*
X129589961Y-87584719D02*
X130304247Y-87822814D01*
X130304247Y-87203766D01*
%TO.C,R24*%
X146102342Y-142081780D02*
X145769009Y-141605590D01*
X145530914Y-142081780D02*
X145530914Y-141081780D01*
X145911866Y-141081780D01*
X146007104Y-141129400D01*
X146054723Y-141177019D01*
X146102342Y-141272257D01*
X146102342Y-141415114D01*
X146054723Y-141510352D01*
X146007104Y-141557971D01*
X145911866Y-141605590D01*
X145530914Y-141605590D01*
X146483295Y-141177019D02*
X146530914Y-141129400D01*
X146626152Y-141081780D01*
X146864247Y-141081780D01*
X146959485Y-141129400D01*
X147007104Y-141177019D01*
X147054723Y-141272257D01*
X147054723Y-141367495D01*
X147007104Y-141510352D01*
X146435676Y-142081780D01*
X147054723Y-142081780D01*
X147911866Y-141415114D02*
X147911866Y-142081780D01*
X147673771Y-141034161D02*
X147435676Y-141748447D01*
X148054723Y-141748447D01*
%TO.C,R22*%
X120404142Y-80387180D02*
X120070809Y-79910990D01*
X119832714Y-80387180D02*
X119832714Y-79387180D01*
X120213666Y-79387180D01*
X120308904Y-79434800D01*
X120356523Y-79482419D01*
X120404142Y-79577657D01*
X120404142Y-79720514D01*
X120356523Y-79815752D01*
X120308904Y-79863371D01*
X120213666Y-79910990D01*
X119832714Y-79910990D01*
X120785095Y-79482419D02*
X120832714Y-79434800D01*
X120927952Y-79387180D01*
X121166047Y-79387180D01*
X121261285Y-79434800D01*
X121308904Y-79482419D01*
X121356523Y-79577657D01*
X121356523Y-79672895D01*
X121308904Y-79815752D01*
X120737476Y-80387180D01*
X121356523Y-80387180D01*
X121737476Y-79482419D02*
X121785095Y-79434800D01*
X121880333Y-79387180D01*
X122118428Y-79387180D01*
X122213666Y-79434800D01*
X122261285Y-79482419D01*
X122308904Y-79577657D01*
X122308904Y-79672895D01*
X122261285Y-79815752D01*
X121689857Y-80387180D01*
X122308904Y-80387180D01*
%TO.C,J1*%
X156587866Y-70849980D02*
X156587866Y-71564266D01*
X156540247Y-71707123D01*
X156445009Y-71802361D01*
X156302152Y-71849980D01*
X156206914Y-71849980D01*
X157587866Y-71849980D02*
X157016438Y-71849980D01*
X157302152Y-71849980D02*
X157302152Y-70849980D01*
X157206914Y-70992838D01*
X157111676Y-71088076D01*
X157016438Y-71135695D01*
%TO.C,BT1*%
X99258485Y-57051171D02*
X99401342Y-57098790D01*
X99448961Y-57146409D01*
X99496580Y-57241647D01*
X99496580Y-57384504D01*
X99448961Y-57479742D01*
X99401342Y-57527361D01*
X99306104Y-57574980D01*
X98925152Y-57574980D01*
X98925152Y-56574980D01*
X99258485Y-56574980D01*
X99353723Y-56622600D01*
X99401342Y-56670219D01*
X99448961Y-56765457D01*
X99448961Y-56860695D01*
X99401342Y-56955933D01*
X99353723Y-57003552D01*
X99258485Y-57051171D01*
X98925152Y-57051171D01*
X99782295Y-56574980D02*
X100353723Y-56574980D01*
X100068009Y-57574980D02*
X100068009Y-56574980D01*
X101210866Y-57574980D02*
X100639438Y-57574980D01*
X100925152Y-57574980D02*
X100925152Y-56574980D01*
X100829914Y-56717838D01*
X100734676Y-56813076D01*
X100639438Y-56860695D01*
%TO.C,R23*%
X124117580Y-85155857D02*
X123641390Y-85489190D01*
X124117580Y-85727285D02*
X123117580Y-85727285D01*
X123117580Y-85346333D01*
X123165200Y-85251095D01*
X123212819Y-85203476D01*
X123308057Y-85155857D01*
X123450914Y-85155857D01*
X123546152Y-85203476D01*
X123593771Y-85251095D01*
X123641390Y-85346333D01*
X123641390Y-85727285D01*
X123212819Y-84774904D02*
X123165200Y-84727285D01*
X123117580Y-84632047D01*
X123117580Y-84393952D01*
X123165200Y-84298714D01*
X123212819Y-84251095D01*
X123308057Y-84203476D01*
X123403295Y-84203476D01*
X123546152Y-84251095D01*
X124117580Y-84822523D01*
X124117580Y-84203476D01*
X123117580Y-83870142D02*
X123117580Y-83251095D01*
X123498533Y-83584428D01*
X123498533Y-83441571D01*
X123546152Y-83346333D01*
X123593771Y-83298714D01*
X123689009Y-83251095D01*
X123927104Y-83251095D01*
X124022342Y-83298714D01*
X124069961Y-83346333D01*
X124117580Y-83441571D01*
X124117580Y-83727285D01*
X124069961Y-83822523D01*
X124022342Y-83870142D01*
%TO.C,R33*%
X105016780Y-87933857D02*
X104540590Y-88267190D01*
X105016780Y-88505285D02*
X104016780Y-88505285D01*
X104016780Y-88124333D01*
X104064400Y-88029095D01*
X104112019Y-87981476D01*
X104207257Y-87933857D01*
X104350114Y-87933857D01*
X104445352Y-87981476D01*
X104492971Y-88029095D01*
X104540590Y-88124333D01*
X104540590Y-88505285D01*
X104016780Y-87600523D02*
X104016780Y-86981476D01*
X104397733Y-87314809D01*
X104397733Y-87171952D01*
X104445352Y-87076714D01*
X104492971Y-87029095D01*
X104588209Y-86981476D01*
X104826304Y-86981476D01*
X104921542Y-87029095D01*
X104969161Y-87076714D01*
X105016780Y-87171952D01*
X105016780Y-87457666D01*
X104969161Y-87552904D01*
X104921542Y-87600523D01*
X104016780Y-86648142D02*
X104016780Y-86029095D01*
X104397733Y-86362428D01*
X104397733Y-86219571D01*
X104445352Y-86124333D01*
X104492971Y-86076714D01*
X104588209Y-86029095D01*
X104826304Y-86029095D01*
X104921542Y-86076714D01*
X104969161Y-86124333D01*
X105016780Y-86219571D01*
X105016780Y-86505285D01*
X104969161Y-86600523D01*
X104921542Y-86648142D01*
%TO.C,R29*%
X116497580Y-89060857D02*
X116021390Y-89394190D01*
X116497580Y-89632285D02*
X115497580Y-89632285D01*
X115497580Y-89251333D01*
X115545200Y-89156095D01*
X115592819Y-89108476D01*
X115688057Y-89060857D01*
X115830914Y-89060857D01*
X115926152Y-89108476D01*
X115973771Y-89156095D01*
X116021390Y-89251333D01*
X116021390Y-89632285D01*
X115592819Y-88679904D02*
X115545200Y-88632285D01*
X115497580Y-88537047D01*
X115497580Y-88298952D01*
X115545200Y-88203714D01*
X115592819Y-88156095D01*
X115688057Y-88108476D01*
X115783295Y-88108476D01*
X115926152Y-88156095D01*
X116497580Y-88727523D01*
X116497580Y-88108476D01*
X116497580Y-87632285D02*
X116497580Y-87441809D01*
X116449961Y-87346571D01*
X116402342Y-87298952D01*
X116259485Y-87203714D01*
X116069009Y-87156095D01*
X115688057Y-87156095D01*
X115592819Y-87203714D01*
X115545200Y-87251333D01*
X115497580Y-87346571D01*
X115497580Y-87537047D01*
X115545200Y-87632285D01*
X115592819Y-87679904D01*
X115688057Y-87727523D01*
X115926152Y-87727523D01*
X116021390Y-87679904D01*
X116069009Y-87632285D01*
X116116628Y-87537047D01*
X116116628Y-87346571D01*
X116069009Y-87251333D01*
X116021390Y-87203714D01*
X115926152Y-87156095D01*
%TO.C,R15*%
X109187180Y-69696657D02*
X108710990Y-70029990D01*
X109187180Y-70268085D02*
X108187180Y-70268085D01*
X108187180Y-69887133D01*
X108234800Y-69791895D01*
X108282419Y-69744276D01*
X108377657Y-69696657D01*
X108520514Y-69696657D01*
X108615752Y-69744276D01*
X108663371Y-69791895D01*
X108710990Y-69887133D01*
X108710990Y-70268085D01*
X109187180Y-68744276D02*
X109187180Y-69315704D01*
X109187180Y-69029990D02*
X108187180Y-69029990D01*
X108330038Y-69125228D01*
X108425276Y-69220466D01*
X108472895Y-69315704D01*
X108187180Y-67839514D02*
X108187180Y-68315704D01*
X108663371Y-68363323D01*
X108615752Y-68315704D01*
X108568133Y-68220466D01*
X108568133Y-67982371D01*
X108615752Y-67887133D01*
X108663371Y-67839514D01*
X108758609Y-67791895D01*
X108996704Y-67791895D01*
X109091942Y-67839514D01*
X109139561Y-67887133D01*
X109187180Y-67982371D01*
X109187180Y-68220466D01*
X109139561Y-68315704D01*
X109091942Y-68363323D01*
%TO.C,R28*%
X116497580Y-85155857D02*
X116021390Y-85489190D01*
X116497580Y-85727285D02*
X115497580Y-85727285D01*
X115497580Y-85346333D01*
X115545200Y-85251095D01*
X115592819Y-85203476D01*
X115688057Y-85155857D01*
X115830914Y-85155857D01*
X115926152Y-85203476D01*
X115973771Y-85251095D01*
X116021390Y-85346333D01*
X116021390Y-85727285D01*
X115592819Y-84774904D02*
X115545200Y-84727285D01*
X115497580Y-84632047D01*
X115497580Y-84393952D01*
X115545200Y-84298714D01*
X115592819Y-84251095D01*
X115688057Y-84203476D01*
X115783295Y-84203476D01*
X115926152Y-84251095D01*
X116497580Y-84822523D01*
X116497580Y-84203476D01*
X115926152Y-83632047D02*
X115878533Y-83727285D01*
X115830914Y-83774904D01*
X115735676Y-83822523D01*
X115688057Y-83822523D01*
X115592819Y-83774904D01*
X115545200Y-83727285D01*
X115497580Y-83632047D01*
X115497580Y-83441571D01*
X115545200Y-83346333D01*
X115592819Y-83298714D01*
X115688057Y-83251095D01*
X115735676Y-83251095D01*
X115830914Y-83298714D01*
X115878533Y-83346333D01*
X115926152Y-83441571D01*
X115926152Y-83632047D01*
X115973771Y-83727285D01*
X116021390Y-83774904D01*
X116116628Y-83822523D01*
X116307104Y-83822523D01*
X116402342Y-83774904D01*
X116449961Y-83727285D01*
X116497580Y-83632047D01*
X116497580Y-83441571D01*
X116449961Y-83346333D01*
X116402342Y-83298714D01*
X116307104Y-83251095D01*
X116116628Y-83251095D01*
X116021390Y-83298714D01*
X115973771Y-83346333D01*
X115926152Y-83441571D01*
%TO.C,R12*%
X105725942Y-56679180D02*
X105392609Y-56202990D01*
X105154514Y-56679180D02*
X105154514Y-55679180D01*
X105535466Y-55679180D01*
X105630704Y-55726800D01*
X105678323Y-55774419D01*
X105725942Y-55869657D01*
X105725942Y-56012514D01*
X105678323Y-56107752D01*
X105630704Y-56155371D01*
X105535466Y-56202990D01*
X105154514Y-56202990D01*
X106678323Y-56679180D02*
X106106895Y-56679180D01*
X106392609Y-56679180D02*
X106392609Y-55679180D01*
X106297371Y-55822038D01*
X106202133Y-55917276D01*
X106106895Y-55964895D01*
X107059276Y-55774419D02*
X107106895Y-55726800D01*
X107202133Y-55679180D01*
X107440228Y-55679180D01*
X107535466Y-55726800D01*
X107583085Y-55774419D01*
X107630704Y-55869657D01*
X107630704Y-55964895D01*
X107583085Y-56107752D01*
X107011657Y-56679180D01*
X107630704Y-56679180D01*
%TO.C,R5*%
X103139180Y-83419066D02*
X102662990Y-83752400D01*
X103139180Y-83990495D02*
X102139180Y-83990495D01*
X102139180Y-83609542D01*
X102186800Y-83514304D01*
X102234419Y-83466685D01*
X102329657Y-83419066D01*
X102472514Y-83419066D01*
X102567752Y-83466685D01*
X102615371Y-83514304D01*
X102662990Y-83609542D01*
X102662990Y-83990495D01*
X102139180Y-82514304D02*
X102139180Y-82990495D01*
X102615371Y-83038114D01*
X102567752Y-82990495D01*
X102520133Y-82895257D01*
X102520133Y-82657161D01*
X102567752Y-82561923D01*
X102615371Y-82514304D01*
X102710609Y-82466685D01*
X102948704Y-82466685D01*
X103043942Y-82514304D01*
X103091561Y-82561923D01*
X103139180Y-82657161D01*
X103139180Y-82895257D01*
X103091561Y-82990495D01*
X103043942Y-83038114D01*
%TO.C,C11*%
X153863542Y-98813857D02*
X153911161Y-98861476D01*
X153958780Y-99004333D01*
X153958780Y-99099571D01*
X153911161Y-99242428D01*
X153815923Y-99337666D01*
X153720685Y-99385285D01*
X153530209Y-99432904D01*
X153387352Y-99432904D01*
X153196876Y-99385285D01*
X153101638Y-99337666D01*
X153006400Y-99242428D01*
X152958780Y-99099571D01*
X152958780Y-99004333D01*
X153006400Y-98861476D01*
X153054019Y-98813857D01*
X153958780Y-97861476D02*
X153958780Y-98432904D01*
X153958780Y-98147190D02*
X152958780Y-98147190D01*
X153101638Y-98242428D01*
X153196876Y-98337666D01*
X153244495Y-98432904D01*
X153958780Y-96909095D02*
X153958780Y-97480523D01*
X153958780Y-97194809D02*
X152958780Y-97194809D01*
X153101638Y-97290047D01*
X153196876Y-97385285D01*
X153244495Y-97480523D01*
%TO.C,C9*%
X135590342Y-68082366D02*
X135637961Y-68129985D01*
X135685580Y-68272842D01*
X135685580Y-68368080D01*
X135637961Y-68510938D01*
X135542723Y-68606176D01*
X135447485Y-68653795D01*
X135257009Y-68701414D01*
X135114152Y-68701414D01*
X134923676Y-68653795D01*
X134828438Y-68606176D01*
X134733200Y-68510938D01*
X134685580Y-68368080D01*
X134685580Y-68272842D01*
X134733200Y-68129985D01*
X134780819Y-68082366D01*
X135685580Y-67606176D02*
X135685580Y-67415700D01*
X135637961Y-67320461D01*
X135590342Y-67272842D01*
X135447485Y-67177604D01*
X135257009Y-67129985D01*
X134876057Y-67129985D01*
X134780819Y-67177604D01*
X134733200Y-67225223D01*
X134685580Y-67320461D01*
X134685580Y-67510938D01*
X134733200Y-67606176D01*
X134780819Y-67653795D01*
X134876057Y-67701414D01*
X135114152Y-67701414D01*
X135209390Y-67653795D01*
X135257009Y-67606176D01*
X135304628Y-67510938D01*
X135304628Y-67320461D01*
X135257009Y-67225223D01*
X135209390Y-67177604D01*
X135114152Y-67129985D01*
D12*
%TO.C,J11*%
X150453400Y-109245400D02*
X150453400Y-111845400D01*
X147793400Y-106645400D02*
X149123400Y-106645400D01*
X147793400Y-109245400D02*
X150453400Y-109245400D01*
X147793400Y-109245400D02*
X147793400Y-111845400D01*
X147793400Y-111845400D02*
X150453400Y-111845400D01*
X147793400Y-107975400D02*
X147793400Y-106645400D01*
%TO.C,J10*%
X140681400Y-104272000D02*
X140681400Y-101672000D01*
X143341400Y-106872000D02*
X142011400Y-106872000D01*
X143341400Y-104272000D02*
X140681400Y-104272000D01*
X143341400Y-104272000D02*
X143341400Y-101672000D01*
X143341400Y-101672000D02*
X140681400Y-101672000D01*
X143341400Y-105542000D02*
X143341400Y-106872000D01*
%TO.C,J9*%
X143475400Y-85272800D02*
X143475400Y-82672800D01*
X146135400Y-87872800D02*
X144805400Y-87872800D01*
X146135400Y-85272800D02*
X143475400Y-85272800D01*
X146135400Y-85272800D02*
X146135400Y-82672800D01*
X146135400Y-82672800D02*
X143475400Y-82672800D01*
X146135400Y-86542800D02*
X146135400Y-87872800D01*
%TO.C,J4*%
X143433800Y-109109200D02*
X146033800Y-109109200D01*
X140833800Y-111769200D02*
X140833800Y-110439200D01*
X143433800Y-111769200D02*
X143433800Y-109109200D01*
X143433800Y-111769200D02*
X146033800Y-111769200D01*
X146033800Y-111769200D02*
X146033800Y-109109200D01*
X142163800Y-111769200D02*
X140833800Y-111769200D01*
%TO.C,AE1*%
X128363200Y-124158800D02*
X126043200Y-124158800D01*
X126043200Y-124158800D02*
X126043200Y-128068800D01*
X128363200Y-128068800D02*
X128363200Y-124158800D01*
%TO.C,C1*%
X127979448Y-122251800D02*
X128501952Y-122251800D01*
X127979448Y-123721800D02*
X128501952Y-123721800D01*
%TO.C,C2*%
X127954048Y-117905200D02*
X128476552Y-117905200D01*
X127954048Y-116435200D02*
X128476552Y-116435200D01*
%TO.C,L1*%
X127913200Y-120336052D02*
X127913200Y-119813548D01*
X126493200Y-120336052D02*
X126493200Y-119813548D01*
%TO.C,U21*%
X146829000Y-104967000D02*
X146829000Y-103067000D01*
X144509000Y-103567000D02*
X144509000Y-104967000D01*
%TO.C,U20*%
X137422400Y-103922600D02*
X137422400Y-105822600D01*
X139742400Y-105322600D02*
X139742400Y-103922600D01*
%TO.C,R10*%
X132868936Y-93854600D02*
X133323064Y-93854600D01*
X132868936Y-95324600D02*
X133323064Y-95324600D01*
%TO.C,C16*%
X132573752Y-97610600D02*
X132051248Y-97610600D01*
X132573752Y-96140600D02*
X132051248Y-96140600D01*
%TO.C,U3*%
X158882400Y-63804800D02*
X158882400Y-65754800D01*
X164002400Y-63804800D02*
X164002400Y-65754800D01*
X164002400Y-63804800D02*
X164002400Y-60354800D01*
X158882400Y-63804800D02*
X158882400Y-61854800D01*
%TO.C,R2*%
X139202936Y-65352600D02*
X139657064Y-65352600D01*
X139202936Y-63882600D02*
X139657064Y-63882600D01*
%TO.C,U16*%
X156347600Y-99197600D02*
X158147600Y-99197600D01*
X156347600Y-96077600D02*
X157147600Y-96077600D01*
X156347600Y-96077600D02*
X155547600Y-96077600D01*
X156347600Y-99197600D02*
X155547600Y-99197600D01*
%TO.C,U19*%
X136751400Y-61560600D02*
X136751400Y-64280600D01*
X136751400Y-64280600D02*
X136521400Y-64280600D01*
X132261400Y-65420600D02*
X132261400Y-64280600D01*
X135441400Y-61560600D02*
X136751400Y-61560600D01*
X132031400Y-64280600D02*
X132261400Y-64280600D01*
X132031400Y-64280600D02*
X132031400Y-61560600D01*
X132031400Y-61560600D02*
X133341400Y-61560600D01*
%TO.C,C13*%
X160658348Y-99210800D02*
X161180852Y-99210800D01*
X160658348Y-97740800D02*
X161180852Y-97740800D01*
%TO.C,C12*%
X136247200Y-67933848D02*
X136247200Y-68456352D01*
X137717200Y-67933848D02*
X137717200Y-68456352D01*
%TO.C,R39*%
X117092400Y-114958864D02*
X117092400Y-114504736D01*
X115622400Y-114958864D02*
X115622400Y-114504736D01*
%TO.C,R26*%
X118940200Y-84285936D02*
X118940200Y-84740064D01*
X117470200Y-84285936D02*
X117470200Y-84740064D01*
%TO.C,L2*%
X152110200Y-106232800D02*
X159010200Y-106232800D01*
X152110200Y-101132800D02*
X159010200Y-101132800D01*
%TO.C,U15*%
X101660600Y-90231800D02*
X101660600Y-87781800D01*
X98440600Y-88431800D02*
X98440600Y-90231800D01*
%TO.C,R3*%
X142441664Y-99341000D02*
X141987536Y-99341000D01*
X142441664Y-100811000D02*
X141987536Y-100811000D01*
%TO.C,C3*%
X134632200Y-87775848D02*
X134632200Y-88298352D01*
X133162200Y-87775848D02*
X133162200Y-88298352D01*
%TO.C,R25*%
X122750200Y-88190936D02*
X122750200Y-88645064D01*
X121280200Y-88190936D02*
X121280200Y-88645064D01*
%TO.C,SW1*%
X112972800Y-54439600D02*
X110372800Y-54439600D01*
X110372800Y-54439600D02*
X110372800Y-57099600D01*
X112972800Y-57099600D02*
X110372800Y-57099600D01*
X112972800Y-54439600D02*
X112972800Y-57099600D01*
X114242800Y-54439600D02*
X115572800Y-54439600D01*
X115572800Y-54439600D02*
X115572800Y-55769600D01*
%TO.C,R17*%
X121238736Y-60594000D02*
X121692864Y-60594000D01*
X121238736Y-59124000D02*
X121692864Y-59124000D01*
%TO.C,BT2*%
X98866600Y-68012400D02*
X98866600Y-70612400D01*
X98866600Y-66742400D02*
X98866600Y-65412400D01*
X98866600Y-65412400D02*
X100196600Y-65412400D01*
X98866600Y-68012400D02*
X101526600Y-68012400D01*
X101526600Y-68012400D02*
X101526600Y-70612400D01*
X98866600Y-70612400D02*
X101526600Y-70612400D01*
%TO.C,R20*%
X146937464Y-117397200D02*
X146483336Y-117397200D01*
X146937464Y-115927200D02*
X146483336Y-115927200D01*
%TO.C,J2*%
X96791800Y-101300600D02*
X104191800Y-101300600D01*
X104191800Y-101300600D02*
X104191800Y-92400600D01*
X96791800Y-92400600D02*
X96791800Y-101300600D01*
X104191800Y-92400600D02*
X96791800Y-92400600D01*
%TO.C,R18*%
X120984736Y-68214000D02*
X121438864Y-68214000D01*
X120984736Y-66744000D02*
X121438864Y-66744000D01*
%TO.C,R40*%
X116559064Y-109628000D02*
X116104936Y-109628000D01*
X116559064Y-111098000D02*
X116104936Y-111098000D01*
%TO.C,Y1*%
X136224200Y-84250600D02*
X136224200Y-88650600D01*
X136224200Y-88650600D02*
X141624200Y-88650600D01*
%TO.C,BT3*%
X99095200Y-78080000D02*
X101755200Y-78080000D01*
X99095200Y-75480000D02*
X99095200Y-78080000D01*
X99095200Y-72880000D02*
X100425200Y-72880000D01*
X99095200Y-75480000D02*
X101755200Y-75480000D01*
X99095200Y-74210000D02*
X99095200Y-72880000D01*
X101755200Y-75480000D02*
X101755200Y-78080000D01*
%TO.C,R19*%
X121213336Y-76494400D02*
X121667464Y-76494400D01*
X121213336Y-75024400D02*
X121667464Y-75024400D01*
%TO.C,U17*%
X116365600Y-103584800D02*
X116365600Y-104684800D01*
X106915600Y-103584800D02*
X107865600Y-103584800D01*
X117315600Y-102084800D02*
X117315600Y-103584800D01*
X117315600Y-103584800D02*
X116365600Y-103584800D01*
X106915600Y-102084800D02*
X106915600Y-103584800D01*
X107865600Y-103584800D02*
X107865600Y-108709800D01*
%TO.C,U1*%
X136661200Y-95915600D02*
X135986200Y-95915600D01*
X140531200Y-90695600D02*
X141206200Y-90695600D01*
X140531200Y-95915600D02*
X141206200Y-95915600D01*
%TO.C,TH1*%
X142340064Y-117270200D02*
X141885936Y-117270200D01*
X142340064Y-115800200D02*
X141885936Y-115800200D01*
%TO.C,R4*%
X99845400Y-82227464D02*
X99845400Y-80773336D01*
X101665400Y-82227464D02*
X101665400Y-80773336D01*
%TO.C,R21*%
X147293064Y-126592000D02*
X146838936Y-126592000D01*
X147293064Y-125122000D02*
X146838936Y-125122000D01*
%TO.C,U8*%
X148706600Y-75779200D02*
X147406600Y-75779200D01*
X147156600Y-73979200D02*
X148706600Y-73979200D01*
%TO.C,TH2*%
X142238464Y-126566600D02*
X141784336Y-126566600D01*
X142238464Y-125096600D02*
X141784336Y-125096600D01*
%TO.C,R27*%
X117470200Y-88190936D02*
X117470200Y-88645064D01*
X118940200Y-88190936D02*
X118940200Y-88645064D01*
%TO.C,U5*%
X109213600Y-91252800D02*
X107263600Y-91252800D01*
X109213600Y-82382800D02*
X105763600Y-82382800D01*
X109213600Y-91252800D02*
X111163600Y-91252800D01*
X109213600Y-82382800D02*
X111163600Y-82382800D01*
%TO.C,TH3*%
X142533864Y-139244400D02*
X142079736Y-139244400D01*
X142533864Y-140714400D02*
X142079736Y-140714400D01*
%TO.C,R16*%
X104455600Y-74953936D02*
X104455600Y-79308064D01*
X107875600Y-74953936D02*
X107875600Y-79308064D01*
%TO.C,U4*%
X154782200Y-72237600D02*
X154782200Y-70287600D01*
X149662200Y-72237600D02*
X149662200Y-70287600D01*
X154782200Y-72237600D02*
X154782200Y-74187600D01*
X149662200Y-72237600D02*
X149662200Y-75687600D01*
%TO.C,C8*%
X139114200Y-99967148D02*
X139114200Y-100489652D01*
X137644200Y-99967148D02*
X137644200Y-100489652D01*
%TO.C,C14*%
X161344148Y-101144400D02*
X161866652Y-101144400D01*
X161344148Y-102614400D02*
X161866652Y-102614400D01*
%TO.C,C4*%
X132600200Y-88298352D02*
X132600200Y-87775848D01*
X131130200Y-88298352D02*
X131130200Y-87775848D01*
%TO.C,R24*%
X146972264Y-140714400D02*
X146518136Y-140714400D01*
X146972264Y-139244400D02*
X146518136Y-139244400D01*
%TO.C,R22*%
X120819936Y-82319800D02*
X121274064Y-82319800D01*
X120819936Y-80849800D02*
X121274064Y-80849800D01*
%TO.C,J1*%
X158251200Y-65197600D02*
X155591200Y-65197600D01*
X158251200Y-70397600D02*
X156921200Y-70397600D01*
X155591200Y-67797600D02*
X155591200Y-65197600D01*
X158251200Y-67797600D02*
X158251200Y-65197600D01*
X158251200Y-69067600D02*
X158251200Y-70397600D01*
X158251200Y-67797600D02*
X155591200Y-67797600D01*
%TO.C,BT1*%
X98714200Y-58122600D02*
X100044200Y-58122600D01*
X98714200Y-59452600D02*
X98714200Y-58122600D01*
X98714200Y-60722600D02*
X98714200Y-63322600D01*
X98714200Y-63322600D02*
X101374200Y-63322600D01*
X98714200Y-60722600D02*
X101374200Y-60722600D01*
X101374200Y-60722600D02*
X101374200Y-63322600D01*
%TO.C,R23*%
X122750200Y-84285936D02*
X122750200Y-84740064D01*
X121280200Y-84285936D02*
X121280200Y-84740064D01*
%TO.C,R33*%
X103649400Y-87063936D02*
X103649400Y-87518064D01*
X102179400Y-87063936D02*
X102179400Y-87518064D01*
%TO.C,R29*%
X115130200Y-88190936D02*
X115130200Y-88645064D01*
X113660200Y-88190936D02*
X113660200Y-88645064D01*
%TO.C,R15*%
X104404800Y-66876736D02*
X104404800Y-71230864D01*
X107824800Y-66876736D02*
X107824800Y-71230864D01*
%TO.C,R28*%
X115130200Y-84285936D02*
X115130200Y-84740064D01*
X113660200Y-84285936D02*
X113660200Y-84740064D01*
%TO.C,R12*%
X107799400Y-58774136D02*
X107799400Y-63128264D01*
X104379400Y-58774136D02*
X104379400Y-63128264D01*
%TO.C,R5*%
X105071800Y-83479464D02*
X105071800Y-83025336D01*
X103601800Y-83479464D02*
X103601800Y-83025336D01*
%TO.C,C11*%
X152561400Y-97909748D02*
X152561400Y-98432252D01*
X151091400Y-97909748D02*
X151091400Y-98432252D01*
%TO.C,C9*%
X132818200Y-67654448D02*
X132818200Y-68176952D01*
X134288200Y-67654448D02*
X134288200Y-68176952D01*
%TD*%
M02*
