M48
; DRILL file {KiCad (6.0.2)} date Mon Apr 11 02:55:33 2022
; FORMAT={-:-/ absolute / inch / decimal}
; #@! TF.CreationDate,2022-04-11T02:55:33-07:00
; #@! TF.GenerationSoftware,Kicad,Pcbnew,(6.0.2)
; #@! TF.FileFunction,Plated,1,2,PTH
FMAT,2
INCH
; #@! TA.AperFunction,Plated,PTH,ViaDrill
T1C0.0079
; #@! TA.AperFunction,Plated,PTH,ViaDrill
T2C0.0157
; #@! TA.AperFunction,Plated,PTH,ComponentDrill
T3C0.0236
; #@! TA.AperFunction,Plated,PTH,ComponentDrill
T4C0.0315
; #@! TA.AperFunction,Plated,PTH,ComponentDrill
T5C0.0394
; #@! TA.AperFunction,Plated,PTH,ComponentDrill
T6C0.1969
%
G90
G05
T1
X4.0766Y-3.4727
X4.0786Y-3.5187
X4.09Y-5.222
X4.232Y-4.572
X4.555Y-4.557
X4.752Y-3.017
X4.804Y-2.759
X4.808Y-5.191
X4.817Y-3.424
X4.823Y-2.338
X4.8325Y-2.6637
X4.849Y-2.811
X4.851Y-3.539
X4.854Y-3.696
X4.88Y-2.043
X4.901Y-3.382
X4.907Y-3.436
X4.911Y-3.056
X4.918Y-3.179
X4.98Y-3.129
X4.993Y-3.323
X4.997Y-3.38
X5.004Y-3.048
X5.068Y-3.24
X5.079Y-2.628
X5.08Y-3.302
X5.176Y-2.543
X5.228Y-2.6376
X5.231Y-2.503
X5.2835Y-3.1879
X5.2847Y-3.1073
X5.288Y-2.505
X5.289Y-3.465
X5.3319Y-2.5776
X5.332Y-3.319
X5.342Y-2.504
X5.36Y-3.257
X5.38Y-2.884
X5.391Y-2.138
X5.426Y-3.4
X5.428Y-3.313
X5.429Y-3.208
X5.469Y-3.359
X5.478Y-3.209
X5.51Y-3.308
X5.511Y-3.405
X5.602Y-3.283
X5.638Y-3.321
X5.638Y-3.355
X5.638Y-3.388
X5.695Y-3.457
X5.722Y-2.538
X5.731Y-2.753
X5.741Y-3.392
X5.742Y-3.458
X5.776Y-3.354
X5.7855Y-3.2024
X5.789Y-3.169
X5.799Y-2.039
X5.799Y-2.315
X5.8Y-2.161
X5.809Y-2.5416
X5.813Y-2.46
X5.818Y-2.752
X5.8321Y-4.519
X5.8364Y-3.94
X5.841Y-5.213
X5.854Y-2.5577
X5.93Y-2.4236
X5.98Y-2.6264
X5.994Y-2.52
X6.077Y-2.215
X6.084Y-2.049
X6.185Y-2.147
X6.228Y-2.015
X6.239Y-4.631
X6.245Y-4.385
X6.252Y-4.971
X6.293Y-2.0916
X6.293Y-2.2944
X6.393Y-2.0916
X6.393Y-2.2944
X6.415Y-2.353
X6.577Y-2.133
T2
X4.1197Y-2.9193
X4.1247Y-2.996
X4.183Y-3.862
X4.183Y-3.905
X4.184Y-2.504
X4.1847Y-2.5347
X4.186Y-3.817
X4.187Y-3.773
X4.1877Y-2.8517
X4.1887Y-2.2157
X4.1887Y-2.8247
X4.189Y-2.186
X4.1897Y-2.2796
X4.1917Y-2.5976
X4.2087Y-2.956
X4.2087Y-3.043
X4.2107Y-3.2
X4.3724Y-4.007
X4.426Y-3.5101
X4.426Y-3.557
X4.481Y-3.509
X4.483Y-3.55
X4.49Y-3.823
X4.4929Y-3.8901
X4.494Y-3.859
X4.558Y-2.808
X4.666Y-3.202
X4.9735Y-1.9665
X4.979Y-2.908
X5.282Y-2.059
X5.3581Y-2.2152
X5.375Y-2.731
X5.38Y-2.654
X5.3919Y-2.0628
X5.392Y-2.101
X5.436Y-3.133
X5.441Y-3.039
X5.461Y-3.5142
X5.478Y-2.691
X5.482Y-2.738
X5.5Y-2.648
X5.524Y-3.133
X5.535Y-3.041
X5.5537Y-2.2252
X5.733Y-2.663
X6.5561Y-2.2601
T4
X4.3644Y-2.3385
X4.3644Y-2.4385
X4.3704Y-2.6625
X4.3704Y-2.7625
X4.3744Y-2.0375
X4.3744Y-2.1375
X4.6644Y-2.3385
X4.6644Y-2.4385
X4.6704Y-2.6625
X4.6704Y-2.7625
X4.6744Y-2.0375
X4.6744Y-2.1375
T5
X3.9507Y-2.0217
X3.9507Y-2.1217
X3.9567Y-2.3087
X3.9567Y-2.4087
X3.9657Y-2.6027
X3.9657Y-2.7027
X4.4097Y-1.8767
X4.5097Y-1.8767
X5.7085Y-2.8929
X5.7085Y-2.9929
X5.7085Y-3.0929
X6.19Y-2.3002
X6.19Y-2.4002
T6
X6.7383Y-4.462
X6.764Y-3.729
X6.789Y-3.182
X6.854Y-2.668
X6.8603Y-2.183
X7.0532Y-4.462
X7.079Y-3.729
X7.104Y-3.182
X7.169Y-2.668
X7.1752Y-2.183
T3
G00X3.9408Y-3.3247
M15
G01X3.9172Y-3.3247
M16
G05
G00X3.9428Y-3.6653
M15
G01X3.9192Y-3.6653
M16
G05
G00X4.0904Y-3.3247
M15
G01X4.0668Y-3.3247
M16
G05
G00X4.0924Y-3.6653
M15
G01X4.0688Y-3.6653
M16
G05
T0
M30
