%TF.GenerationSoftware,KiCad,Pcbnew,(6.0.2)*%
%TF.CreationDate,2022-04-11T02:55:30-07:00*%
%TF.ProjectId,schematic,73636865-6d61-4746-9963-2e6b69636164,rev?*%
%TF.SameCoordinates,Original*%
%TF.FileFunction,Soldermask,Bot*%
%TF.FilePolarity,Negative*%
%FSLAX46Y46*%
G04 Gerber Fmt 4.6, Leading zero omitted, Abs format (unit mm)*
G04 Created by KiCad (PCBNEW (6.0.2)) date 2022-04-11 02:55:30*
%MOMM*%
%LPD*%
G01*
G04 APERTURE LIST*
G04 Aperture macros list*
%AMRoundRect*
0 Rectangle with rounded corners*
0 $1 Rounding radius*
0 $2 $3 $4 $5 $6 $7 $8 $9 X,Y pos of 4 corners*
0 Add a 4 corners polygon primitive as box body*
4,1,4,$2,$3,$4,$5,$6,$7,$8,$9,$2,$3,0*
0 Add four circle primitives for the rounded corners*
1,1,$1+$1,$2,$3*
1,1,$1+$1,$4,$5*
1,1,$1+$1,$6,$7*
1,1,$1+$1,$8,$9*
0 Add four rect primitives between the rounded corners*
20,1,$1+$1,$2,$3,$4,$5,0*
20,1,$1+$1,$4,$5,$6,$7,0*
20,1,$1+$1,$6,$7,$8,$9,0*
20,1,$1+$1,$8,$9,$2,$3,0*%
G04 Aperture macros list end*
%ADD10R,8.000000X10.000000*%
%ADD11R,1.700000X1.700000*%
%ADD12O,1.700000X1.700000*%
%ADD13O,1.700000X1.100000*%
%ADD14R,1.400000X2.100000*%
%ADD15RoundRect,0.250000X0.450000X-0.350000X0.450000X0.350000X-0.450000X0.350000X-0.450000X-0.350000X0*%
%ADD16R,3.500000X1.800000*%
%ADD17R,1.300000X1.700000*%
%ADD18R,1.600000X1.600000*%
%ADD19O,1.600000X1.600000*%
%ADD20RoundRect,0.062500X0.325000X0.062500X-0.325000X0.062500X-0.325000X-0.062500X0.325000X-0.062500X0*%
%ADD21R,0.900000X1.650000*%
%ADD22RoundRect,0.250000X0.350000X0.450000X-0.350000X0.450000X-0.350000X-0.450000X0.350000X-0.450000X0*%
%ADD23RoundRect,0.250000X-0.337500X-0.475000X0.337500X-0.475000X0.337500X0.475000X-0.337500X0.475000X0*%
%ADD24RoundRect,0.062500X-0.325000X-0.062500X0.325000X-0.062500X0.325000X0.062500X-0.325000X0.062500X0*%
%ADD25RoundRect,0.250000X0.337500X0.475000X-0.337500X0.475000X-0.337500X-0.475000X0.337500X-0.475000X0*%
%ADD26RoundRect,0.250000X0.475000X-0.337500X0.475000X0.337500X-0.475000X0.337500X-0.475000X-0.337500X0*%
%ADD27R,0.300000X0.450000*%
%ADD28R,1.500000X0.400000*%
%ADD29RoundRect,0.250000X-0.350000X-0.450000X0.350000X-0.450000X0.350000X0.450000X-0.350000X0.450000X0*%
%ADD30RoundRect,0.250000X-1.100000X0.412500X-1.100000X-0.412500X1.100000X-0.412500X1.100000X0.412500X0*%
%ADD31RoundRect,0.250000X-0.450000X0.350000X-0.450000X-0.350000X0.450000X-0.350000X0.450000X0.350000X0*%
%ADD32RoundRect,0.250000X-0.475000X0.337500X-0.475000X-0.337500X0.475000X-0.337500X0.475000X0.337500X0*%
%ADD33R,0.450000X0.300000*%
%ADD34R,3.600000X2.700000*%
G04 APERTURE END LIST*
D10*
%TO.C,J3*%
X174251200Y-55448200D03*
X182251200Y-55448200D03*
%TD*%
D11*
%TO.C,SW1*%
X114547600Y-47667000D03*
D12*
X112007600Y-47667000D03*
%TD*%
D11*
%TO.C,BT2*%
X100501400Y-58639800D03*
D12*
X100501400Y-61179800D03*
%TD*%
D10*
%TO.C,J6*%
X171806600Y-94716600D03*
X179806600Y-94716600D03*
%TD*%
D13*
%TO.C,J2*%
X99796600Y-84448000D03*
X103646600Y-93098000D03*
X99846600Y-93098000D03*
X103596600Y-84448000D03*
%TD*%
D11*
%TO.C,BT3*%
X100730000Y-66107400D03*
D12*
X100730000Y-68647400D03*
%TD*%
D10*
%TO.C,J7*%
X180440600Y-80822800D03*
X172440600Y-80822800D03*
%TD*%
%TO.C,J5*%
X182091600Y-67767200D03*
X174091600Y-67767200D03*
%TD*%
%TO.C,J8*%
X171152400Y-113334800D03*
X179152400Y-113334800D03*
%TD*%
D11*
%TO.C,J1*%
X157226000Y-60965000D03*
D12*
X157226000Y-58425000D03*
%TD*%
D11*
%TO.C,BT1*%
X100349000Y-51350000D03*
D12*
X100349000Y-53890000D03*
%TD*%
D11*
%TO.C,J4*%
X144997000Y-78559000D03*
D12*
X144997000Y-76019000D03*
X144997000Y-73479000D03*
%TD*%
D14*
%TO.C,D5*%
X136746000Y-49408000D03*
X132346000Y-49408000D03*
%TD*%
D15*
%TO.C,R34*%
X106876800Y-77235400D03*
X106876800Y-75235400D03*
%TD*%
D16*
%TO.C,D4*%
X106059600Y-101777800D03*
X111059600Y-101777800D03*
%TD*%
D17*
%TO.C,D3*%
X136290000Y-66995000D03*
X132790000Y-66995000D03*
%TD*%
D18*
%TO.C,U14*%
X118627000Y-67626400D03*
D19*
X118627000Y-70166400D03*
X111007000Y-70166400D03*
X111007000Y-67626400D03*
%TD*%
D20*
%TO.C,U6*%
X163039300Y-55035000D03*
X163039300Y-55535000D03*
X163039300Y-56035000D03*
X163039300Y-56535000D03*
X161064300Y-56535000D03*
X161064300Y-56035000D03*
X161064300Y-55535000D03*
X161064300Y-55035000D03*
D21*
X162051800Y-55785000D03*
%TD*%
D22*
%TO.C,R9*%
X103463600Y-87807800D03*
X101463600Y-87807800D03*
%TD*%
D23*
%TO.C,C17*%
X140048000Y-66807000D03*
X142123000Y-66807000D03*
%TD*%
%TO.C,C6*%
X138096000Y-79534000D03*
X140171000Y-79534000D03*
%TD*%
D24*
%TO.C,U18*%
X148691500Y-64966000D03*
X148691500Y-64466000D03*
X148691500Y-63966000D03*
X148691500Y-63466000D03*
X150666500Y-63466000D03*
X150666500Y-63966000D03*
X150666500Y-64466000D03*
X150666500Y-64966000D03*
D21*
X149679000Y-64216000D03*
%TD*%
D25*
%TO.C,C5*%
X136361000Y-83512000D03*
X134286000Y-83512000D03*
%TD*%
D26*
%TO.C,C15*%
X104368600Y-98852900D03*
X104368600Y-96777900D03*
%TD*%
D25*
%TO.C,C10*%
X141986000Y-83362800D03*
X139911000Y-83362800D03*
%TD*%
D26*
%TO.C,C19*%
X139540000Y-55377000D03*
X139540000Y-53302000D03*
%TD*%
D27*
%TO.C,U2*%
X165219000Y-53913000D03*
X164719000Y-53913000D03*
X164219000Y-53913000D03*
X164219000Y-52513000D03*
X165219000Y-52513000D03*
%TD*%
D28*
%TO.C,U10*%
X107606400Y-63745200D03*
X107606400Y-64395200D03*
X107606400Y-65045200D03*
X104946400Y-65045200D03*
X104946400Y-64395200D03*
X104946400Y-63745200D03*
%TD*%
%TO.C,U11*%
X107689600Y-71771600D03*
X107689600Y-72421600D03*
X107689600Y-73071600D03*
X105029600Y-73071600D03*
X105029600Y-72421600D03*
X105029600Y-71771600D03*
%TD*%
D23*
%TO.C,C11*%
X134565500Y-52075000D03*
X136640500Y-52075000D03*
%TD*%
D29*
%TO.C,R8*%
X103546400Y-89916000D03*
X105546400Y-89916000D03*
%TD*%
D22*
%TO.C,R7*%
X104692400Y-76175200D03*
X102692400Y-76175200D03*
%TD*%
D23*
%TO.C,C9*%
X137080000Y-64709000D03*
X139155000Y-64709000D03*
%TD*%
D30*
%TO.C,C12*%
X136365000Y-57409000D03*
X136365000Y-60534000D03*
%TD*%
D31*
%TO.C,R1*%
X134202000Y-78940000D03*
X134202000Y-80940000D03*
%TD*%
D28*
%TO.C,U9*%
X107673400Y-55602200D03*
X107673400Y-56252200D03*
X107673400Y-56902200D03*
X105013400Y-56902200D03*
X105013400Y-56252200D03*
X105013400Y-55602200D03*
%TD*%
D25*
%TO.C,C7*%
X140425000Y-77121000D03*
X138350000Y-77121000D03*
%TD*%
D26*
%TO.C,C22*%
X142969000Y-55504000D03*
X142969000Y-53429000D03*
%TD*%
D30*
%TO.C,C13*%
X141064000Y-57409000D03*
X141064000Y-60534000D03*
%TD*%
D29*
%TO.C,R30*%
X104648200Y-82423600D03*
X106648200Y-82423600D03*
%TD*%
D32*
%TO.C,C16*%
X139286000Y-69728000D03*
X139286000Y-71803000D03*
%TD*%
D18*
%TO.C,U12*%
X118728600Y-51751400D03*
D19*
X118728600Y-54291400D03*
X111108600Y-54291400D03*
X111108600Y-51751400D03*
%TD*%
D33*
%TO.C,U7*%
X146148600Y-65557400D03*
X146148600Y-65057400D03*
X146148600Y-64557400D03*
X147548600Y-64557400D03*
X147548600Y-65557400D03*
%TD*%
D18*
%TO.C,U13*%
X118474600Y-59396800D03*
D19*
X118474600Y-61936800D03*
X110854600Y-61936800D03*
X110854600Y-59396800D03*
%TD*%
D25*
%TO.C,C21*%
X102967700Y-102006400D03*
X100892700Y-102006400D03*
%TD*%
D34*
%TO.C,L3*%
X113182400Y-98104600D03*
X113182400Y-89804600D03*
%TD*%
D29*
%TO.C,R6*%
X106908800Y-79274000D03*
X108908800Y-79274000D03*
%TD*%
%TO.C,R31*%
X108502400Y-82423600D03*
X110502400Y-82423600D03*
%TD*%
M02*
