%TF.GenerationSoftware,KiCad,Pcbnew,(5.1.10)-1*%
%TF.CreationDate,2022-02-15T22:18:45-08:00*%
%TF.ProjectId,schematic,73636865-6d61-4746-9963-2e6b69636164,rev?*%
%TF.SameCoordinates,Original*%
%TF.FileFunction,Paste,Top*%
%TF.FilePolarity,Positive*%
%FSLAX46Y46*%
G04 Gerber Fmt 4.6, Leading zero omitted, Abs format (unit mm)*
G04 Created by KiCad (PCBNEW (5.1.10)-1) date 2022-02-15 22:18:45*
%MOMM*%
%LPD*%
G01*
G04 APERTURE LIST*
%ADD10R,2.500000X2.300000*%
%ADD11R,0.650000X1.560000*%
%ADD12R,0.800000X1.600000*%
%ADD13R,0.760000X1.600000*%
%ADD14R,0.700000X1.600000*%
%ADD15R,1.800000X2.100000*%
%ADD16C,0.100000*%
%ADD17R,2.400000X1.500000*%
G04 APERTURE END LIST*
%TO.C,R7*%
G36*
G01*
X147885999Y-81569000D02*
X148786001Y-81569000D01*
G75*
G02*
X149036000Y-81818999I0J-249999D01*
G01*
X149036000Y-82519001D01*
G75*
G02*
X148786001Y-82769000I-249999J0D01*
G01*
X147885999Y-82769000D01*
G75*
G02*
X147636000Y-82519001I0J249999D01*
G01*
X147636000Y-81818999D01*
G75*
G02*
X147885999Y-81569000I249999J0D01*
G01*
G37*
G36*
G01*
X147885999Y-79569000D02*
X148786001Y-79569000D01*
G75*
G02*
X149036000Y-79818999I0J-249999D01*
G01*
X149036000Y-80519001D01*
G75*
G02*
X148786001Y-80769000I-249999J0D01*
G01*
X147885999Y-80769000D01*
G75*
G02*
X147636000Y-80519001I0J249999D01*
G01*
X147636000Y-79818999D01*
G75*
G02*
X147885999Y-79569000I249999J0D01*
G01*
G37*
%TD*%
%TO.C,R6*%
G36*
G01*
X150691001Y-80737000D02*
X149790999Y-80737000D01*
G75*
G02*
X149541000Y-80487001I0J249999D01*
G01*
X149541000Y-79786999D01*
G75*
G02*
X149790999Y-79537000I249999J0D01*
G01*
X150691001Y-79537000D01*
G75*
G02*
X150941000Y-79786999I0J-249999D01*
G01*
X150941000Y-80487001D01*
G75*
G02*
X150691001Y-80737000I-249999J0D01*
G01*
G37*
G36*
G01*
X150691001Y-82737000D02*
X149790999Y-82737000D01*
G75*
G02*
X149541000Y-82487001I0J249999D01*
G01*
X149541000Y-81786999D01*
G75*
G02*
X149790999Y-81537000I249999J0D01*
G01*
X150691001Y-81537000D01*
G75*
G02*
X150941000Y-81786999I0J-249999D01*
G01*
X150941000Y-82487001D01*
G75*
G02*
X150691001Y-82737000I-249999J0D01*
G01*
G37*
%TD*%
%TO.C,C16*%
G36*
G01*
X160450500Y-78824001D02*
X160450500Y-76623999D01*
G75*
G02*
X160700499Y-76374000I249999J0D01*
G01*
X161525501Y-76374000D01*
G75*
G02*
X161775500Y-76623999I0J-249999D01*
G01*
X161775500Y-78824001D01*
G75*
G02*
X161525501Y-79074000I-249999J0D01*
G01*
X160700499Y-79074000D01*
G75*
G02*
X160450500Y-78824001I0J249999D01*
G01*
G37*
G36*
G01*
X157325500Y-78824001D02*
X157325500Y-76623999D01*
G75*
G02*
X157575499Y-76374000I249999J0D01*
G01*
X158400501Y-76374000D01*
G75*
G02*
X158650500Y-76623999I0J-249999D01*
G01*
X158650500Y-78824001D01*
G75*
G02*
X158400501Y-79074000I-249999J0D01*
G01*
X157575499Y-79074000D01*
G75*
G02*
X157325500Y-78824001I0J249999D01*
G01*
G37*
%TD*%
D10*
%TO.C,D3*%
X168130000Y-70612000D03*
X163830000Y-70612000D03*
%TD*%
D11*
%TO.C,U7*%
X142433000Y-69008000D03*
X144333000Y-69008000D03*
X144333000Y-71708000D03*
X143383000Y-71708000D03*
X142433000Y-71708000D03*
%TD*%
D12*
%TO.C,J2*%
X152182000Y-68834000D03*
D13*
X153412000Y-68834000D03*
D14*
X154432000Y-68834000D03*
X155432000Y-68834000D03*
D13*
X156452000Y-68834000D03*
D12*
X157682000Y-68834000D03*
%TD*%
%TO.C,TH3*%
G36*
G01*
X163954000Y-127819999D02*
X163954000Y-128720001D01*
G75*
G02*
X163704001Y-128970000I-249999J0D01*
G01*
X163003999Y-128970000D01*
G75*
G02*
X162754000Y-128720001I0J249999D01*
G01*
X162754000Y-127819999D01*
G75*
G02*
X163003999Y-127570000I249999J0D01*
G01*
X163704001Y-127570000D01*
G75*
G02*
X163954000Y-127819999I0J-249999D01*
G01*
G37*
G36*
G01*
X165954000Y-127819999D02*
X165954000Y-128720001D01*
G75*
G02*
X165704001Y-128970000I-249999J0D01*
G01*
X165003999Y-128970000D01*
G75*
G02*
X164754000Y-128720001I0J249999D01*
G01*
X164754000Y-127819999D01*
G75*
G02*
X165003999Y-127570000I249999J0D01*
G01*
X165704001Y-127570000D01*
G75*
G02*
X165954000Y-127819999I0J-249999D01*
G01*
G37*
%TD*%
%TO.C,TH2*%
G36*
G01*
X150619000Y-115119999D02*
X150619000Y-116020001D01*
G75*
G02*
X150369001Y-116270000I-249999J0D01*
G01*
X149668999Y-116270000D01*
G75*
G02*
X149419000Y-116020001I0J249999D01*
G01*
X149419000Y-115119999D01*
G75*
G02*
X149668999Y-114870000I249999J0D01*
G01*
X150369001Y-114870000D01*
G75*
G02*
X150619000Y-115119999I0J-249999D01*
G01*
G37*
G36*
G01*
X152619000Y-115119999D02*
X152619000Y-116020001D01*
G75*
G02*
X152369001Y-116270000I-249999J0D01*
G01*
X151668999Y-116270000D01*
G75*
G02*
X151419000Y-116020001I0J249999D01*
G01*
X151419000Y-115119999D01*
G75*
G02*
X151668999Y-114870000I249999J0D01*
G01*
X152369001Y-114870000D01*
G75*
G02*
X152619000Y-115119999I0J-249999D01*
G01*
G37*
%TD*%
%TO.C,TH1*%
G36*
G01*
X141475000Y-105975999D02*
X141475000Y-106876001D01*
G75*
G02*
X141225001Y-107126000I-249999J0D01*
G01*
X140524999Y-107126000D01*
G75*
G02*
X140275000Y-106876001I0J249999D01*
G01*
X140275000Y-105975999D01*
G75*
G02*
X140524999Y-105726000I249999J0D01*
G01*
X141225001Y-105726000D01*
G75*
G02*
X141475000Y-105975999I0J-249999D01*
G01*
G37*
G36*
G01*
X143475000Y-105975999D02*
X143475000Y-106876001D01*
G75*
G02*
X143225001Y-107126000I-249999J0D01*
G01*
X142524999Y-107126000D01*
G75*
G02*
X142275000Y-106876001I0J249999D01*
G01*
X142275000Y-105975999D01*
G75*
G02*
X142524999Y-105726000I249999J0D01*
G01*
X143225001Y-105726000D01*
G75*
G02*
X143475000Y-105975999I0J-249999D01*
G01*
G37*
%TD*%
%TO.C,R24*%
G36*
G01*
X164700500Y-126662601D02*
X164700500Y-125762599D01*
G75*
G02*
X164950499Y-125512600I249999J0D01*
G01*
X165650501Y-125512600D01*
G75*
G02*
X165900500Y-125762599I0J-249999D01*
G01*
X165900500Y-126662601D01*
G75*
G02*
X165650501Y-126912600I-249999J0D01*
G01*
X164950499Y-126912600D01*
G75*
G02*
X164700500Y-126662601I0J249999D01*
G01*
G37*
G36*
G01*
X162700500Y-126662601D02*
X162700500Y-125762599D01*
G75*
G02*
X162950499Y-125512600I249999J0D01*
G01*
X163650501Y-125512600D01*
G75*
G02*
X163900500Y-125762599I0J-249999D01*
G01*
X163900500Y-126662601D01*
G75*
G02*
X163650501Y-126912600I-249999J0D01*
G01*
X162950499Y-126912600D01*
G75*
G02*
X162700500Y-126662601I0J249999D01*
G01*
G37*
%TD*%
%TO.C,R21*%
G36*
G01*
X151419000Y-113734001D02*
X151419000Y-112833999D01*
G75*
G02*
X151668999Y-112584000I249999J0D01*
G01*
X152369001Y-112584000D01*
G75*
G02*
X152619000Y-112833999I0J-249999D01*
G01*
X152619000Y-113734001D01*
G75*
G02*
X152369001Y-113984000I-249999J0D01*
G01*
X151668999Y-113984000D01*
G75*
G02*
X151419000Y-113734001I0J249999D01*
G01*
G37*
G36*
G01*
X149419000Y-113734001D02*
X149419000Y-112833999D01*
G75*
G02*
X149668999Y-112584000I249999J0D01*
G01*
X150369001Y-112584000D01*
G75*
G02*
X150619000Y-112833999I0J-249999D01*
G01*
X150619000Y-113734001D01*
G75*
G02*
X150369001Y-113984000I-249999J0D01*
G01*
X149668999Y-113984000D01*
G75*
G02*
X149419000Y-113734001I0J249999D01*
G01*
G37*
%TD*%
%TO.C,R20*%
G36*
G01*
X142246500Y-104593601D02*
X142246500Y-103693599D01*
G75*
G02*
X142496499Y-103443600I249999J0D01*
G01*
X143196501Y-103443600D01*
G75*
G02*
X143446500Y-103693599I0J-249999D01*
G01*
X143446500Y-104593601D01*
G75*
G02*
X143196501Y-104843600I-249999J0D01*
G01*
X142496499Y-104843600D01*
G75*
G02*
X142246500Y-104593601I0J249999D01*
G01*
G37*
G36*
G01*
X140246500Y-104593601D02*
X140246500Y-103693599D01*
G75*
G02*
X140496499Y-103443600I249999J0D01*
G01*
X141196501Y-103443600D01*
G75*
G02*
X141446500Y-103693599I0J-249999D01*
G01*
X141446500Y-104593601D01*
G75*
G02*
X141196501Y-104843600I-249999J0D01*
G01*
X140496499Y-104843600D01*
G75*
G02*
X140246500Y-104593601I0J249999D01*
G01*
G37*
%TD*%
D15*
%TO.C,Y1*%
X136652000Y-77470000D03*
X136652000Y-74570000D03*
X138852000Y-74570000D03*
X138852000Y-77470000D03*
%TD*%
%TO.C,U5*%
G36*
G01*
X167362000Y-73810000D02*
X167362000Y-73510000D01*
G75*
G02*
X167512000Y-73360000I150000J0D01*
G01*
X169162000Y-73360000D01*
G75*
G02*
X169312000Y-73510000I0J-150000D01*
G01*
X169312000Y-73810000D01*
G75*
G02*
X169162000Y-73960000I-150000J0D01*
G01*
X167512000Y-73960000D01*
G75*
G02*
X167362000Y-73810000I0J150000D01*
G01*
G37*
G36*
G01*
X167362000Y-75080000D02*
X167362000Y-74780000D01*
G75*
G02*
X167512000Y-74630000I150000J0D01*
G01*
X169162000Y-74630000D01*
G75*
G02*
X169312000Y-74780000I0J-150000D01*
G01*
X169312000Y-75080000D01*
G75*
G02*
X169162000Y-75230000I-150000J0D01*
G01*
X167512000Y-75230000D01*
G75*
G02*
X167362000Y-75080000I0J150000D01*
G01*
G37*
G36*
G01*
X167362000Y-76350000D02*
X167362000Y-76050000D01*
G75*
G02*
X167512000Y-75900000I150000J0D01*
G01*
X169162000Y-75900000D01*
G75*
G02*
X169312000Y-76050000I0J-150000D01*
G01*
X169312000Y-76350000D01*
G75*
G02*
X169162000Y-76500000I-150000J0D01*
G01*
X167512000Y-76500000D01*
G75*
G02*
X167362000Y-76350000I0J150000D01*
G01*
G37*
G36*
G01*
X167362000Y-77620000D02*
X167362000Y-77320000D01*
G75*
G02*
X167512000Y-77170000I150000J0D01*
G01*
X169162000Y-77170000D01*
G75*
G02*
X169312000Y-77320000I0J-150000D01*
G01*
X169312000Y-77620000D01*
G75*
G02*
X169162000Y-77770000I-150000J0D01*
G01*
X167512000Y-77770000D01*
G75*
G02*
X167362000Y-77620000I0J150000D01*
G01*
G37*
G36*
G01*
X162412000Y-77620000D02*
X162412000Y-77320000D01*
G75*
G02*
X162562000Y-77170000I150000J0D01*
G01*
X164212000Y-77170000D01*
G75*
G02*
X164362000Y-77320000I0J-150000D01*
G01*
X164362000Y-77620000D01*
G75*
G02*
X164212000Y-77770000I-150000J0D01*
G01*
X162562000Y-77770000D01*
G75*
G02*
X162412000Y-77620000I0J150000D01*
G01*
G37*
G36*
G01*
X162412000Y-76350000D02*
X162412000Y-76050000D01*
G75*
G02*
X162562000Y-75900000I150000J0D01*
G01*
X164212000Y-75900000D01*
G75*
G02*
X164362000Y-76050000I0J-150000D01*
G01*
X164362000Y-76350000D01*
G75*
G02*
X164212000Y-76500000I-150000J0D01*
G01*
X162562000Y-76500000D01*
G75*
G02*
X162412000Y-76350000I0J150000D01*
G01*
G37*
G36*
G01*
X162412000Y-75080000D02*
X162412000Y-74780000D01*
G75*
G02*
X162562000Y-74630000I150000J0D01*
G01*
X164212000Y-74630000D01*
G75*
G02*
X164362000Y-74780000I0J-150000D01*
G01*
X164362000Y-75080000D01*
G75*
G02*
X164212000Y-75230000I-150000J0D01*
G01*
X162562000Y-75230000D01*
G75*
G02*
X162412000Y-75080000I0J150000D01*
G01*
G37*
G36*
G01*
X162412000Y-73810000D02*
X162412000Y-73510000D01*
G75*
G02*
X162562000Y-73360000I150000J0D01*
G01*
X164212000Y-73360000D01*
G75*
G02*
X164362000Y-73510000I0J-150000D01*
G01*
X164362000Y-73810000D01*
G75*
G02*
X164212000Y-73960000I-150000J0D01*
G01*
X162562000Y-73960000D01*
G75*
G02*
X162412000Y-73810000I0J150000D01*
G01*
G37*
%TD*%
%TO.C,U2*%
G36*
G01*
X168172000Y-67414000D02*
X168172000Y-67714000D01*
G75*
G02*
X168022000Y-67864000I-150000J0D01*
G01*
X166372000Y-67864000D01*
G75*
G02*
X166222000Y-67714000I0J150000D01*
G01*
X166222000Y-67414000D01*
G75*
G02*
X166372000Y-67264000I150000J0D01*
G01*
X168022000Y-67264000D01*
G75*
G02*
X168172000Y-67414000I0J-150000D01*
G01*
G37*
G36*
G01*
X168172000Y-66144000D02*
X168172000Y-66444000D01*
G75*
G02*
X168022000Y-66594000I-150000J0D01*
G01*
X166372000Y-66594000D01*
G75*
G02*
X166222000Y-66444000I0J150000D01*
G01*
X166222000Y-66144000D01*
G75*
G02*
X166372000Y-65994000I150000J0D01*
G01*
X168022000Y-65994000D01*
G75*
G02*
X168172000Y-66144000I0J-150000D01*
G01*
G37*
G36*
G01*
X168172000Y-64874000D02*
X168172000Y-65174000D01*
G75*
G02*
X168022000Y-65324000I-150000J0D01*
G01*
X166372000Y-65324000D01*
G75*
G02*
X166222000Y-65174000I0J150000D01*
G01*
X166222000Y-64874000D01*
G75*
G02*
X166372000Y-64724000I150000J0D01*
G01*
X168022000Y-64724000D01*
G75*
G02*
X168172000Y-64874000I0J-150000D01*
G01*
G37*
G36*
G01*
X168172000Y-63604000D02*
X168172000Y-63904000D01*
G75*
G02*
X168022000Y-64054000I-150000J0D01*
G01*
X166372000Y-64054000D01*
G75*
G02*
X166222000Y-63904000I0J150000D01*
G01*
X166222000Y-63604000D01*
G75*
G02*
X166372000Y-63454000I150000J0D01*
G01*
X168022000Y-63454000D01*
G75*
G02*
X168172000Y-63604000I0J-150000D01*
G01*
G37*
G36*
G01*
X173122000Y-63604000D02*
X173122000Y-63904000D01*
G75*
G02*
X172972000Y-64054000I-150000J0D01*
G01*
X171322000Y-64054000D01*
G75*
G02*
X171172000Y-63904000I0J150000D01*
G01*
X171172000Y-63604000D01*
G75*
G02*
X171322000Y-63454000I150000J0D01*
G01*
X172972000Y-63454000D01*
G75*
G02*
X173122000Y-63604000I0J-150000D01*
G01*
G37*
G36*
G01*
X173122000Y-64874000D02*
X173122000Y-65174000D01*
G75*
G02*
X172972000Y-65324000I-150000J0D01*
G01*
X171322000Y-65324000D01*
G75*
G02*
X171172000Y-65174000I0J150000D01*
G01*
X171172000Y-64874000D01*
G75*
G02*
X171322000Y-64724000I150000J0D01*
G01*
X172972000Y-64724000D01*
G75*
G02*
X173122000Y-64874000I0J-150000D01*
G01*
G37*
G36*
G01*
X173122000Y-66144000D02*
X173122000Y-66444000D01*
G75*
G02*
X172972000Y-66594000I-150000J0D01*
G01*
X171322000Y-66594000D01*
G75*
G02*
X171172000Y-66444000I0J150000D01*
G01*
X171172000Y-66144000D01*
G75*
G02*
X171322000Y-65994000I150000J0D01*
G01*
X172972000Y-65994000D01*
G75*
G02*
X173122000Y-66144000I0J-150000D01*
G01*
G37*
G36*
G01*
X173122000Y-67414000D02*
X173122000Y-67714000D01*
G75*
G02*
X172972000Y-67864000I-150000J0D01*
G01*
X171322000Y-67864000D01*
G75*
G02*
X171172000Y-67714000I0J150000D01*
G01*
X171172000Y-67414000D01*
G75*
G02*
X171322000Y-67264000I150000J0D01*
G01*
X172972000Y-67264000D01*
G75*
G02*
X173122000Y-67414000I0J-150000D01*
G01*
G37*
%TD*%
D16*
%TO.C,U1*%
G36*
X144812662Y-76682419D02*
G01*
X144819564Y-76659668D01*
X144830771Y-76638701D01*
X144845853Y-76620323D01*
X144946323Y-76519853D01*
X144964701Y-76504771D01*
X144985668Y-76493564D01*
X145008419Y-76486662D01*
X145032079Y-76484332D01*
X145543921Y-76484332D01*
X145567581Y-76486662D01*
X145590332Y-76493564D01*
X145611299Y-76504771D01*
X145629677Y-76519853D01*
X145730147Y-76620323D01*
X145745229Y-76638701D01*
X145756436Y-76659668D01*
X145763338Y-76682419D01*
X145765668Y-76706079D01*
X145765668Y-77217921D01*
X145763338Y-77241581D01*
X145756436Y-77264332D01*
X145745229Y-77285299D01*
X145730147Y-77303677D01*
X145629677Y-77404147D01*
X145611299Y-77419229D01*
X145590332Y-77430436D01*
X145567581Y-77437338D01*
X145543921Y-77439668D01*
X145032079Y-77439668D01*
X145008419Y-77437338D01*
X144985668Y-77430436D01*
X144964701Y-77419229D01*
X144946323Y-77404147D01*
X144845853Y-77303677D01*
X144830771Y-77285299D01*
X144819564Y-77264332D01*
X144812662Y-77241581D01*
X144810332Y-77217921D01*
X144810332Y-76706079D01*
X144812662Y-76682419D01*
G37*
G36*
X143745995Y-76682419D02*
G01*
X143752897Y-76659668D01*
X143764104Y-76638701D01*
X143779186Y-76620323D01*
X143879656Y-76519853D01*
X143898034Y-76504771D01*
X143919001Y-76493564D01*
X143941752Y-76486662D01*
X143965412Y-76484332D01*
X144477254Y-76484332D01*
X144500914Y-76486662D01*
X144523665Y-76493564D01*
X144544632Y-76504771D01*
X144563010Y-76519853D01*
X144663480Y-76620323D01*
X144678562Y-76638701D01*
X144689769Y-76659668D01*
X144696671Y-76682419D01*
X144699001Y-76706079D01*
X144699001Y-77217921D01*
X144696671Y-77241581D01*
X144689769Y-77264332D01*
X144678562Y-77285299D01*
X144663480Y-77303677D01*
X144563010Y-77404147D01*
X144544632Y-77419229D01*
X144523665Y-77430436D01*
X144500914Y-77437338D01*
X144477254Y-77439668D01*
X143965412Y-77439668D01*
X143941752Y-77437338D01*
X143919001Y-77430436D01*
X143898034Y-77419229D01*
X143879656Y-77404147D01*
X143779186Y-77303677D01*
X143764104Y-77285299D01*
X143752897Y-77264332D01*
X143745995Y-77241581D01*
X143743665Y-77217921D01*
X143743665Y-76706079D01*
X143745995Y-76682419D01*
G37*
G36*
X142679328Y-76682419D02*
G01*
X142686230Y-76659668D01*
X142697437Y-76638701D01*
X142712519Y-76620323D01*
X142812989Y-76519853D01*
X142831367Y-76504771D01*
X142852334Y-76493564D01*
X142875085Y-76486662D01*
X142898745Y-76484332D01*
X143410587Y-76484332D01*
X143434247Y-76486662D01*
X143456998Y-76493564D01*
X143477965Y-76504771D01*
X143496343Y-76519853D01*
X143596813Y-76620323D01*
X143611895Y-76638701D01*
X143623102Y-76659668D01*
X143630004Y-76682419D01*
X143632334Y-76706079D01*
X143632334Y-77217921D01*
X143630004Y-77241581D01*
X143623102Y-77264332D01*
X143611895Y-77285299D01*
X143596813Y-77303677D01*
X143496343Y-77404147D01*
X143477965Y-77419229D01*
X143456998Y-77430436D01*
X143434247Y-77437338D01*
X143410587Y-77439668D01*
X142898745Y-77439668D01*
X142875085Y-77437338D01*
X142852334Y-77430436D01*
X142831367Y-77419229D01*
X142812989Y-77404147D01*
X142712519Y-77303677D01*
X142697437Y-77285299D01*
X142686230Y-77264332D01*
X142679328Y-77241581D01*
X142676998Y-77217921D01*
X142676998Y-76706079D01*
X142679328Y-76682419D01*
G37*
G36*
X144812662Y-77749086D02*
G01*
X144819564Y-77726335D01*
X144830771Y-77705368D01*
X144845853Y-77686990D01*
X144946323Y-77586520D01*
X144964701Y-77571438D01*
X144985668Y-77560231D01*
X145008419Y-77553329D01*
X145032079Y-77550999D01*
X145543921Y-77550999D01*
X145567581Y-77553329D01*
X145590332Y-77560231D01*
X145611299Y-77571438D01*
X145629677Y-77586520D01*
X145730147Y-77686990D01*
X145745229Y-77705368D01*
X145756436Y-77726335D01*
X145763338Y-77749086D01*
X145765668Y-77772746D01*
X145765668Y-78284588D01*
X145763338Y-78308248D01*
X145756436Y-78330999D01*
X145745229Y-78351966D01*
X145730147Y-78370344D01*
X145629677Y-78470814D01*
X145611299Y-78485896D01*
X145590332Y-78497103D01*
X145567581Y-78504005D01*
X145543921Y-78506335D01*
X145032079Y-78506335D01*
X145008419Y-78504005D01*
X144985668Y-78497103D01*
X144964701Y-78485896D01*
X144946323Y-78470814D01*
X144845853Y-78370344D01*
X144830771Y-78351966D01*
X144819564Y-78330999D01*
X144812662Y-78308248D01*
X144810332Y-78284588D01*
X144810332Y-77772746D01*
X144812662Y-77749086D01*
G37*
G36*
X143745995Y-77749086D02*
G01*
X143752897Y-77726335D01*
X143764104Y-77705368D01*
X143779186Y-77686990D01*
X143879656Y-77586520D01*
X143898034Y-77571438D01*
X143919001Y-77560231D01*
X143941752Y-77553329D01*
X143965412Y-77550999D01*
X144477254Y-77550999D01*
X144500914Y-77553329D01*
X144523665Y-77560231D01*
X144544632Y-77571438D01*
X144563010Y-77586520D01*
X144663480Y-77686990D01*
X144678562Y-77705368D01*
X144689769Y-77726335D01*
X144696671Y-77749086D01*
X144699001Y-77772746D01*
X144699001Y-78284588D01*
X144696671Y-78308248D01*
X144689769Y-78330999D01*
X144678562Y-78351966D01*
X144663480Y-78370344D01*
X144563010Y-78470814D01*
X144544632Y-78485896D01*
X144523665Y-78497103D01*
X144500914Y-78504005D01*
X144477254Y-78506335D01*
X143965412Y-78506335D01*
X143941752Y-78504005D01*
X143919001Y-78497103D01*
X143898034Y-78485896D01*
X143879656Y-78470814D01*
X143779186Y-78370344D01*
X143764104Y-78351966D01*
X143752897Y-78330999D01*
X143745995Y-78308248D01*
X143743665Y-78284588D01*
X143743665Y-77772746D01*
X143745995Y-77749086D01*
G37*
G36*
X142679328Y-77749086D02*
G01*
X142686230Y-77726335D01*
X142697437Y-77705368D01*
X142712519Y-77686990D01*
X142812989Y-77586520D01*
X142831367Y-77571438D01*
X142852334Y-77560231D01*
X142875085Y-77553329D01*
X142898745Y-77550999D01*
X143410587Y-77550999D01*
X143434247Y-77553329D01*
X143456998Y-77560231D01*
X143477965Y-77571438D01*
X143496343Y-77586520D01*
X143596813Y-77686990D01*
X143611895Y-77705368D01*
X143623102Y-77726335D01*
X143630004Y-77749086D01*
X143632334Y-77772746D01*
X143632334Y-78284588D01*
X143630004Y-78308248D01*
X143623102Y-78330999D01*
X143611895Y-78351966D01*
X143596813Y-78370344D01*
X143496343Y-78470814D01*
X143477965Y-78485896D01*
X143456998Y-78497103D01*
X143434247Y-78504005D01*
X143410587Y-78506335D01*
X142898745Y-78506335D01*
X142875085Y-78504005D01*
X142852334Y-78497103D01*
X142831367Y-78485896D01*
X142812989Y-78470814D01*
X142712519Y-78370344D01*
X142697437Y-78351966D01*
X142686230Y-78330999D01*
X142679328Y-78308248D01*
X142676998Y-78284588D01*
X142676998Y-77772746D01*
X142679328Y-77749086D01*
G37*
G36*
X144812662Y-78815753D02*
G01*
X144819564Y-78793002D01*
X144830771Y-78772035D01*
X144845853Y-78753657D01*
X144946323Y-78653187D01*
X144964701Y-78638105D01*
X144985668Y-78626898D01*
X145008419Y-78619996D01*
X145032079Y-78617666D01*
X145543921Y-78617666D01*
X145567581Y-78619996D01*
X145590332Y-78626898D01*
X145611299Y-78638105D01*
X145629677Y-78653187D01*
X145730147Y-78753657D01*
X145745229Y-78772035D01*
X145756436Y-78793002D01*
X145763338Y-78815753D01*
X145765668Y-78839413D01*
X145765668Y-79351255D01*
X145763338Y-79374915D01*
X145756436Y-79397666D01*
X145745229Y-79418633D01*
X145730147Y-79437011D01*
X145629677Y-79537481D01*
X145611299Y-79552563D01*
X145590332Y-79563770D01*
X145567581Y-79570672D01*
X145543921Y-79573002D01*
X145032079Y-79573002D01*
X145008419Y-79570672D01*
X144985668Y-79563770D01*
X144964701Y-79552563D01*
X144946323Y-79537481D01*
X144845853Y-79437011D01*
X144830771Y-79418633D01*
X144819564Y-79397666D01*
X144812662Y-79374915D01*
X144810332Y-79351255D01*
X144810332Y-78839413D01*
X144812662Y-78815753D01*
G37*
G36*
X143745995Y-78815753D02*
G01*
X143752897Y-78793002D01*
X143764104Y-78772035D01*
X143779186Y-78753657D01*
X143879656Y-78653187D01*
X143898034Y-78638105D01*
X143919001Y-78626898D01*
X143941752Y-78619996D01*
X143965412Y-78617666D01*
X144477254Y-78617666D01*
X144500914Y-78619996D01*
X144523665Y-78626898D01*
X144544632Y-78638105D01*
X144563010Y-78653187D01*
X144663480Y-78753657D01*
X144678562Y-78772035D01*
X144689769Y-78793002D01*
X144696671Y-78815753D01*
X144699001Y-78839413D01*
X144699001Y-79351255D01*
X144696671Y-79374915D01*
X144689769Y-79397666D01*
X144678562Y-79418633D01*
X144663480Y-79437011D01*
X144563010Y-79537481D01*
X144544632Y-79552563D01*
X144523665Y-79563770D01*
X144500914Y-79570672D01*
X144477254Y-79573002D01*
X143965412Y-79573002D01*
X143941752Y-79570672D01*
X143919001Y-79563770D01*
X143898034Y-79552563D01*
X143879656Y-79537481D01*
X143779186Y-79437011D01*
X143764104Y-79418633D01*
X143752897Y-79397666D01*
X143745995Y-79374915D01*
X143743665Y-79351255D01*
X143743665Y-78839413D01*
X143745995Y-78815753D01*
G37*
G36*
X142679328Y-78815753D02*
G01*
X142686230Y-78793002D01*
X142697437Y-78772035D01*
X142712519Y-78753657D01*
X142812989Y-78653187D01*
X142831367Y-78638105D01*
X142852334Y-78626898D01*
X142875085Y-78619996D01*
X142898745Y-78617666D01*
X143410587Y-78617666D01*
X143434247Y-78619996D01*
X143456998Y-78626898D01*
X143477965Y-78638105D01*
X143496343Y-78653187D01*
X143596813Y-78753657D01*
X143611895Y-78772035D01*
X143623102Y-78793002D01*
X143630004Y-78815753D01*
X143632334Y-78839413D01*
X143632334Y-79351255D01*
X143630004Y-79374915D01*
X143623102Y-79397666D01*
X143611895Y-79418633D01*
X143596813Y-79437011D01*
X143496343Y-79537481D01*
X143477965Y-79552563D01*
X143456998Y-79563770D01*
X143434247Y-79570672D01*
X143410587Y-79573002D01*
X142898745Y-79573002D01*
X142875085Y-79570672D01*
X142852334Y-79563770D01*
X142831367Y-79552563D01*
X142812989Y-79537481D01*
X142712519Y-79437011D01*
X142697437Y-79418633D01*
X142686230Y-79397666D01*
X142679328Y-79374915D01*
X142676998Y-79351255D01*
X142676998Y-78839413D01*
X142679328Y-78815753D01*
G37*
G36*
G01*
X142121333Y-79703667D02*
X141421333Y-79703667D01*
G75*
G02*
X141371333Y-79653667I0J50000D01*
G01*
X141371333Y-79553667D01*
G75*
G02*
X141421333Y-79503667I50000J0D01*
G01*
X142121333Y-79503667D01*
G75*
G02*
X142171333Y-79553667I0J-50000D01*
G01*
X142171333Y-79653667D01*
G75*
G02*
X142121333Y-79703667I-50000J0D01*
G01*
G37*
G36*
G01*
X142121333Y-79353667D02*
X141421333Y-79353667D01*
G75*
G02*
X141371333Y-79303667I0J50000D01*
G01*
X141371333Y-79203667D01*
G75*
G02*
X141421333Y-79153667I50000J0D01*
G01*
X142121333Y-79153667D01*
G75*
G02*
X142171333Y-79203667I0J-50000D01*
G01*
X142171333Y-79303667D01*
G75*
G02*
X142121333Y-79353667I-50000J0D01*
G01*
G37*
G36*
G01*
X142121333Y-79003667D02*
X141421333Y-79003667D01*
G75*
G02*
X141371333Y-78953667I0J50000D01*
G01*
X141371333Y-78853667D01*
G75*
G02*
X141421333Y-78803667I50000J0D01*
G01*
X142121333Y-78803667D01*
G75*
G02*
X142171333Y-78853667I0J-50000D01*
G01*
X142171333Y-78953667D01*
G75*
G02*
X142121333Y-79003667I-50000J0D01*
G01*
G37*
G36*
G01*
X142121333Y-78653667D02*
X141421333Y-78653667D01*
G75*
G02*
X141371333Y-78603667I0J50000D01*
G01*
X141371333Y-78503667D01*
G75*
G02*
X141421333Y-78453667I50000J0D01*
G01*
X142121333Y-78453667D01*
G75*
G02*
X142171333Y-78503667I0J-50000D01*
G01*
X142171333Y-78603667D01*
G75*
G02*
X142121333Y-78653667I-50000J0D01*
G01*
G37*
G36*
G01*
X142121333Y-78303667D02*
X141421333Y-78303667D01*
G75*
G02*
X141371333Y-78253667I0J50000D01*
G01*
X141371333Y-78153667D01*
G75*
G02*
X141421333Y-78103667I50000J0D01*
G01*
X142121333Y-78103667D01*
G75*
G02*
X142171333Y-78153667I0J-50000D01*
G01*
X142171333Y-78253667D01*
G75*
G02*
X142121333Y-78303667I-50000J0D01*
G01*
G37*
G36*
G01*
X142121333Y-77953667D02*
X141421333Y-77953667D01*
G75*
G02*
X141371333Y-77903667I0J50000D01*
G01*
X141371333Y-77803667D01*
G75*
G02*
X141421333Y-77753667I50000J0D01*
G01*
X142121333Y-77753667D01*
G75*
G02*
X142171333Y-77803667I0J-50000D01*
G01*
X142171333Y-77903667D01*
G75*
G02*
X142121333Y-77953667I-50000J0D01*
G01*
G37*
G36*
G01*
X142121333Y-77603667D02*
X141421333Y-77603667D01*
G75*
G02*
X141371333Y-77553667I0J50000D01*
G01*
X141371333Y-77453667D01*
G75*
G02*
X141421333Y-77403667I50000J0D01*
G01*
X142121333Y-77403667D01*
G75*
G02*
X142171333Y-77453667I0J-50000D01*
G01*
X142171333Y-77553667D01*
G75*
G02*
X142121333Y-77603667I-50000J0D01*
G01*
G37*
G36*
G01*
X142121333Y-77253667D02*
X141421333Y-77253667D01*
G75*
G02*
X141371333Y-77203667I0J50000D01*
G01*
X141371333Y-77103667D01*
G75*
G02*
X141421333Y-77053667I50000J0D01*
G01*
X142121333Y-77053667D01*
G75*
G02*
X142171333Y-77103667I0J-50000D01*
G01*
X142171333Y-77203667D01*
G75*
G02*
X142121333Y-77253667I-50000J0D01*
G01*
G37*
G36*
G01*
X142121333Y-76903667D02*
X141421333Y-76903667D01*
G75*
G02*
X141371333Y-76853667I0J50000D01*
G01*
X141371333Y-76753667D01*
G75*
G02*
X141421333Y-76703667I50000J0D01*
G01*
X142121333Y-76703667D01*
G75*
G02*
X142171333Y-76753667I0J-50000D01*
G01*
X142171333Y-76853667D01*
G75*
G02*
X142121333Y-76903667I-50000J0D01*
G01*
G37*
G36*
G01*
X142121333Y-76553667D02*
X141421333Y-76553667D01*
G75*
G02*
X141371333Y-76503667I0J50000D01*
G01*
X141371333Y-76403667D01*
G75*
G02*
X141421333Y-76353667I50000J0D01*
G01*
X142121333Y-76353667D01*
G75*
G02*
X142171333Y-76403667I0J-50000D01*
G01*
X142171333Y-76503667D01*
G75*
G02*
X142121333Y-76553667I-50000J0D01*
G01*
G37*
G36*
G01*
X141996333Y-75978667D02*
X141896333Y-75978667D01*
G75*
G02*
X141846333Y-75928667I0J50000D01*
G01*
X141846333Y-75228667D01*
G75*
G02*
X141896333Y-75178667I50000J0D01*
G01*
X141996333Y-75178667D01*
G75*
G02*
X142046333Y-75228667I0J-50000D01*
G01*
X142046333Y-75928667D01*
G75*
G02*
X141996333Y-75978667I-50000J0D01*
G01*
G37*
G36*
G01*
X142346333Y-75978667D02*
X142246333Y-75978667D01*
G75*
G02*
X142196333Y-75928667I0J50000D01*
G01*
X142196333Y-75228667D01*
G75*
G02*
X142246333Y-75178667I50000J0D01*
G01*
X142346333Y-75178667D01*
G75*
G02*
X142396333Y-75228667I0J-50000D01*
G01*
X142396333Y-75928667D01*
G75*
G02*
X142346333Y-75978667I-50000J0D01*
G01*
G37*
G36*
G01*
X142696333Y-75978667D02*
X142596333Y-75978667D01*
G75*
G02*
X142546333Y-75928667I0J50000D01*
G01*
X142546333Y-75228667D01*
G75*
G02*
X142596333Y-75178667I50000J0D01*
G01*
X142696333Y-75178667D01*
G75*
G02*
X142746333Y-75228667I0J-50000D01*
G01*
X142746333Y-75928667D01*
G75*
G02*
X142696333Y-75978667I-50000J0D01*
G01*
G37*
G36*
G01*
X143046333Y-75978667D02*
X142946333Y-75978667D01*
G75*
G02*
X142896333Y-75928667I0J50000D01*
G01*
X142896333Y-75228667D01*
G75*
G02*
X142946333Y-75178667I50000J0D01*
G01*
X143046333Y-75178667D01*
G75*
G02*
X143096333Y-75228667I0J-50000D01*
G01*
X143096333Y-75928667D01*
G75*
G02*
X143046333Y-75978667I-50000J0D01*
G01*
G37*
G36*
G01*
X143396333Y-75978667D02*
X143296333Y-75978667D01*
G75*
G02*
X143246333Y-75928667I0J50000D01*
G01*
X143246333Y-75228667D01*
G75*
G02*
X143296333Y-75178667I50000J0D01*
G01*
X143396333Y-75178667D01*
G75*
G02*
X143446333Y-75228667I0J-50000D01*
G01*
X143446333Y-75928667D01*
G75*
G02*
X143396333Y-75978667I-50000J0D01*
G01*
G37*
G36*
G01*
X143746333Y-75978667D02*
X143646333Y-75978667D01*
G75*
G02*
X143596333Y-75928667I0J50000D01*
G01*
X143596333Y-75228667D01*
G75*
G02*
X143646333Y-75178667I50000J0D01*
G01*
X143746333Y-75178667D01*
G75*
G02*
X143796333Y-75228667I0J-50000D01*
G01*
X143796333Y-75928667D01*
G75*
G02*
X143746333Y-75978667I-50000J0D01*
G01*
G37*
G36*
G01*
X144096333Y-75978667D02*
X143996333Y-75978667D01*
G75*
G02*
X143946333Y-75928667I0J50000D01*
G01*
X143946333Y-75228667D01*
G75*
G02*
X143996333Y-75178667I50000J0D01*
G01*
X144096333Y-75178667D01*
G75*
G02*
X144146333Y-75228667I0J-50000D01*
G01*
X144146333Y-75928667D01*
G75*
G02*
X144096333Y-75978667I-50000J0D01*
G01*
G37*
G36*
G01*
X144446333Y-75978667D02*
X144346333Y-75978667D01*
G75*
G02*
X144296333Y-75928667I0J50000D01*
G01*
X144296333Y-75228667D01*
G75*
G02*
X144346333Y-75178667I50000J0D01*
G01*
X144446333Y-75178667D01*
G75*
G02*
X144496333Y-75228667I0J-50000D01*
G01*
X144496333Y-75928667D01*
G75*
G02*
X144446333Y-75978667I-50000J0D01*
G01*
G37*
G36*
G01*
X144796333Y-75978667D02*
X144696333Y-75978667D01*
G75*
G02*
X144646333Y-75928667I0J50000D01*
G01*
X144646333Y-75228667D01*
G75*
G02*
X144696333Y-75178667I50000J0D01*
G01*
X144796333Y-75178667D01*
G75*
G02*
X144846333Y-75228667I0J-50000D01*
G01*
X144846333Y-75928667D01*
G75*
G02*
X144796333Y-75978667I-50000J0D01*
G01*
G37*
G36*
G01*
X145146333Y-75978667D02*
X145046333Y-75978667D01*
G75*
G02*
X144996333Y-75928667I0J50000D01*
G01*
X144996333Y-75228667D01*
G75*
G02*
X145046333Y-75178667I50000J0D01*
G01*
X145146333Y-75178667D01*
G75*
G02*
X145196333Y-75228667I0J-50000D01*
G01*
X145196333Y-75928667D01*
G75*
G02*
X145146333Y-75978667I-50000J0D01*
G01*
G37*
G36*
G01*
X145496333Y-75978667D02*
X145396333Y-75978667D01*
G75*
G02*
X145346333Y-75928667I0J50000D01*
G01*
X145346333Y-75228667D01*
G75*
G02*
X145396333Y-75178667I50000J0D01*
G01*
X145496333Y-75178667D01*
G75*
G02*
X145546333Y-75228667I0J-50000D01*
G01*
X145546333Y-75928667D01*
G75*
G02*
X145496333Y-75978667I-50000J0D01*
G01*
G37*
G36*
G01*
X145846333Y-75978667D02*
X145746333Y-75978667D01*
G75*
G02*
X145696333Y-75928667I0J50000D01*
G01*
X145696333Y-75228667D01*
G75*
G02*
X145746333Y-75178667I50000J0D01*
G01*
X145846333Y-75178667D01*
G75*
G02*
X145896333Y-75228667I0J-50000D01*
G01*
X145896333Y-75928667D01*
G75*
G02*
X145846333Y-75978667I-50000J0D01*
G01*
G37*
G36*
G01*
X146196333Y-75978667D02*
X146096333Y-75978667D01*
G75*
G02*
X146046333Y-75928667I0J50000D01*
G01*
X146046333Y-75228667D01*
G75*
G02*
X146096333Y-75178667I50000J0D01*
G01*
X146196333Y-75178667D01*
G75*
G02*
X146246333Y-75228667I0J-50000D01*
G01*
X146246333Y-75928667D01*
G75*
G02*
X146196333Y-75978667I-50000J0D01*
G01*
G37*
G36*
G01*
X146546333Y-75978667D02*
X146446333Y-75978667D01*
G75*
G02*
X146396333Y-75928667I0J50000D01*
G01*
X146396333Y-75228667D01*
G75*
G02*
X146446333Y-75178667I50000J0D01*
G01*
X146546333Y-75178667D01*
G75*
G02*
X146596333Y-75228667I0J-50000D01*
G01*
X146596333Y-75928667D01*
G75*
G02*
X146546333Y-75978667I-50000J0D01*
G01*
G37*
G36*
G01*
X147021333Y-76553667D02*
X146321333Y-76553667D01*
G75*
G02*
X146271333Y-76503667I0J50000D01*
G01*
X146271333Y-76403667D01*
G75*
G02*
X146321333Y-76353667I50000J0D01*
G01*
X147021333Y-76353667D01*
G75*
G02*
X147071333Y-76403667I0J-50000D01*
G01*
X147071333Y-76503667D01*
G75*
G02*
X147021333Y-76553667I-50000J0D01*
G01*
G37*
G36*
G01*
X147021333Y-76903667D02*
X146321333Y-76903667D01*
G75*
G02*
X146271333Y-76853667I0J50000D01*
G01*
X146271333Y-76753667D01*
G75*
G02*
X146321333Y-76703667I50000J0D01*
G01*
X147021333Y-76703667D01*
G75*
G02*
X147071333Y-76753667I0J-50000D01*
G01*
X147071333Y-76853667D01*
G75*
G02*
X147021333Y-76903667I-50000J0D01*
G01*
G37*
G36*
G01*
X147021333Y-77253667D02*
X146321333Y-77253667D01*
G75*
G02*
X146271333Y-77203667I0J50000D01*
G01*
X146271333Y-77103667D01*
G75*
G02*
X146321333Y-77053667I50000J0D01*
G01*
X147021333Y-77053667D01*
G75*
G02*
X147071333Y-77103667I0J-50000D01*
G01*
X147071333Y-77203667D01*
G75*
G02*
X147021333Y-77253667I-50000J0D01*
G01*
G37*
G36*
G01*
X147021333Y-77603667D02*
X146321333Y-77603667D01*
G75*
G02*
X146271333Y-77553667I0J50000D01*
G01*
X146271333Y-77453667D01*
G75*
G02*
X146321333Y-77403667I50000J0D01*
G01*
X147021333Y-77403667D01*
G75*
G02*
X147071333Y-77453667I0J-50000D01*
G01*
X147071333Y-77553667D01*
G75*
G02*
X147021333Y-77603667I-50000J0D01*
G01*
G37*
G36*
G01*
X147021333Y-77953667D02*
X146321333Y-77953667D01*
G75*
G02*
X146271333Y-77903667I0J50000D01*
G01*
X146271333Y-77803667D01*
G75*
G02*
X146321333Y-77753667I50000J0D01*
G01*
X147021333Y-77753667D01*
G75*
G02*
X147071333Y-77803667I0J-50000D01*
G01*
X147071333Y-77903667D01*
G75*
G02*
X147021333Y-77953667I-50000J0D01*
G01*
G37*
G36*
G01*
X147021333Y-78303667D02*
X146321333Y-78303667D01*
G75*
G02*
X146271333Y-78253667I0J50000D01*
G01*
X146271333Y-78153667D01*
G75*
G02*
X146321333Y-78103667I50000J0D01*
G01*
X147021333Y-78103667D01*
G75*
G02*
X147071333Y-78153667I0J-50000D01*
G01*
X147071333Y-78253667D01*
G75*
G02*
X147021333Y-78303667I-50000J0D01*
G01*
G37*
G36*
G01*
X147021333Y-78653667D02*
X146321333Y-78653667D01*
G75*
G02*
X146271333Y-78603667I0J50000D01*
G01*
X146271333Y-78503667D01*
G75*
G02*
X146321333Y-78453667I50000J0D01*
G01*
X147021333Y-78453667D01*
G75*
G02*
X147071333Y-78503667I0J-50000D01*
G01*
X147071333Y-78603667D01*
G75*
G02*
X147021333Y-78653667I-50000J0D01*
G01*
G37*
G36*
G01*
X147021333Y-79003667D02*
X146321333Y-79003667D01*
G75*
G02*
X146271333Y-78953667I0J50000D01*
G01*
X146271333Y-78853667D01*
G75*
G02*
X146321333Y-78803667I50000J0D01*
G01*
X147021333Y-78803667D01*
G75*
G02*
X147071333Y-78853667I0J-50000D01*
G01*
X147071333Y-78953667D01*
G75*
G02*
X147021333Y-79003667I-50000J0D01*
G01*
G37*
G36*
G01*
X147021333Y-79353667D02*
X146321333Y-79353667D01*
G75*
G02*
X146271333Y-79303667I0J50000D01*
G01*
X146271333Y-79203667D01*
G75*
G02*
X146321333Y-79153667I50000J0D01*
G01*
X147021333Y-79153667D01*
G75*
G02*
X147071333Y-79203667I0J-50000D01*
G01*
X147071333Y-79303667D01*
G75*
G02*
X147021333Y-79353667I-50000J0D01*
G01*
G37*
G36*
G01*
X147021333Y-79703667D02*
X146321333Y-79703667D01*
G75*
G02*
X146271333Y-79653667I0J50000D01*
G01*
X146271333Y-79553667D01*
G75*
G02*
X146321333Y-79503667I50000J0D01*
G01*
X147021333Y-79503667D01*
G75*
G02*
X147071333Y-79553667I0J-50000D01*
G01*
X147071333Y-79653667D01*
G75*
G02*
X147021333Y-79703667I-50000J0D01*
G01*
G37*
G36*
G01*
X146546333Y-80878667D02*
X146446333Y-80878667D01*
G75*
G02*
X146396333Y-80828667I0J50000D01*
G01*
X146396333Y-80128667D01*
G75*
G02*
X146446333Y-80078667I50000J0D01*
G01*
X146546333Y-80078667D01*
G75*
G02*
X146596333Y-80128667I0J-50000D01*
G01*
X146596333Y-80828667D01*
G75*
G02*
X146546333Y-80878667I-50000J0D01*
G01*
G37*
G36*
G01*
X146196333Y-80878667D02*
X146096333Y-80878667D01*
G75*
G02*
X146046333Y-80828667I0J50000D01*
G01*
X146046333Y-80128667D01*
G75*
G02*
X146096333Y-80078667I50000J0D01*
G01*
X146196333Y-80078667D01*
G75*
G02*
X146246333Y-80128667I0J-50000D01*
G01*
X146246333Y-80828667D01*
G75*
G02*
X146196333Y-80878667I-50000J0D01*
G01*
G37*
G36*
G01*
X145846333Y-80878667D02*
X145746333Y-80878667D01*
G75*
G02*
X145696333Y-80828667I0J50000D01*
G01*
X145696333Y-80128667D01*
G75*
G02*
X145746333Y-80078667I50000J0D01*
G01*
X145846333Y-80078667D01*
G75*
G02*
X145896333Y-80128667I0J-50000D01*
G01*
X145896333Y-80828667D01*
G75*
G02*
X145846333Y-80878667I-50000J0D01*
G01*
G37*
G36*
G01*
X145496333Y-80878667D02*
X145396333Y-80878667D01*
G75*
G02*
X145346333Y-80828667I0J50000D01*
G01*
X145346333Y-80128667D01*
G75*
G02*
X145396333Y-80078667I50000J0D01*
G01*
X145496333Y-80078667D01*
G75*
G02*
X145546333Y-80128667I0J-50000D01*
G01*
X145546333Y-80828667D01*
G75*
G02*
X145496333Y-80878667I-50000J0D01*
G01*
G37*
G36*
G01*
X145146333Y-80878667D02*
X145046333Y-80878667D01*
G75*
G02*
X144996333Y-80828667I0J50000D01*
G01*
X144996333Y-80128667D01*
G75*
G02*
X145046333Y-80078667I50000J0D01*
G01*
X145146333Y-80078667D01*
G75*
G02*
X145196333Y-80128667I0J-50000D01*
G01*
X145196333Y-80828667D01*
G75*
G02*
X145146333Y-80878667I-50000J0D01*
G01*
G37*
G36*
G01*
X144796333Y-80878667D02*
X144696333Y-80878667D01*
G75*
G02*
X144646333Y-80828667I0J50000D01*
G01*
X144646333Y-80128667D01*
G75*
G02*
X144696333Y-80078667I50000J0D01*
G01*
X144796333Y-80078667D01*
G75*
G02*
X144846333Y-80128667I0J-50000D01*
G01*
X144846333Y-80828667D01*
G75*
G02*
X144796333Y-80878667I-50000J0D01*
G01*
G37*
G36*
G01*
X144446333Y-80878667D02*
X144346333Y-80878667D01*
G75*
G02*
X144296333Y-80828667I0J50000D01*
G01*
X144296333Y-80128667D01*
G75*
G02*
X144346333Y-80078667I50000J0D01*
G01*
X144446333Y-80078667D01*
G75*
G02*
X144496333Y-80128667I0J-50000D01*
G01*
X144496333Y-80828667D01*
G75*
G02*
X144446333Y-80878667I-50000J0D01*
G01*
G37*
G36*
G01*
X144096333Y-80878667D02*
X143996333Y-80878667D01*
G75*
G02*
X143946333Y-80828667I0J50000D01*
G01*
X143946333Y-80128667D01*
G75*
G02*
X143996333Y-80078667I50000J0D01*
G01*
X144096333Y-80078667D01*
G75*
G02*
X144146333Y-80128667I0J-50000D01*
G01*
X144146333Y-80828667D01*
G75*
G02*
X144096333Y-80878667I-50000J0D01*
G01*
G37*
G36*
G01*
X143746333Y-80878667D02*
X143646333Y-80878667D01*
G75*
G02*
X143596333Y-80828667I0J50000D01*
G01*
X143596333Y-80128667D01*
G75*
G02*
X143646333Y-80078667I50000J0D01*
G01*
X143746333Y-80078667D01*
G75*
G02*
X143796333Y-80128667I0J-50000D01*
G01*
X143796333Y-80828667D01*
G75*
G02*
X143746333Y-80878667I-50000J0D01*
G01*
G37*
G36*
G01*
X143396333Y-80878667D02*
X143296333Y-80878667D01*
G75*
G02*
X143246333Y-80828667I0J50000D01*
G01*
X143246333Y-80128667D01*
G75*
G02*
X143296333Y-80078667I50000J0D01*
G01*
X143396333Y-80078667D01*
G75*
G02*
X143446333Y-80128667I0J-50000D01*
G01*
X143446333Y-80828667D01*
G75*
G02*
X143396333Y-80878667I-50000J0D01*
G01*
G37*
G36*
G01*
X143046333Y-80878667D02*
X142946333Y-80878667D01*
G75*
G02*
X142896333Y-80828667I0J50000D01*
G01*
X142896333Y-80128667D01*
G75*
G02*
X142946333Y-80078667I50000J0D01*
G01*
X143046333Y-80078667D01*
G75*
G02*
X143096333Y-80128667I0J-50000D01*
G01*
X143096333Y-80828667D01*
G75*
G02*
X143046333Y-80878667I-50000J0D01*
G01*
G37*
G36*
G01*
X142696333Y-80878667D02*
X142596333Y-80878667D01*
G75*
G02*
X142546333Y-80828667I0J50000D01*
G01*
X142546333Y-80128667D01*
G75*
G02*
X142596333Y-80078667I50000J0D01*
G01*
X142696333Y-80078667D01*
G75*
G02*
X142746333Y-80128667I0J-50000D01*
G01*
X142746333Y-80828667D01*
G75*
G02*
X142696333Y-80878667I-50000J0D01*
G01*
G37*
G36*
G01*
X142346333Y-80878667D02*
X142246333Y-80878667D01*
G75*
G02*
X142196333Y-80828667I0J50000D01*
G01*
X142196333Y-80128667D01*
G75*
G02*
X142246333Y-80078667I50000J0D01*
G01*
X142346333Y-80078667D01*
G75*
G02*
X142396333Y-80128667I0J-50000D01*
G01*
X142396333Y-80828667D01*
G75*
G02*
X142346333Y-80878667I-50000J0D01*
G01*
G37*
G36*
G01*
X141996333Y-80878667D02*
X141896333Y-80878667D01*
G75*
G02*
X141846333Y-80828667I0J50000D01*
G01*
X141846333Y-80128667D01*
G75*
G02*
X141896333Y-80078667I50000J0D01*
G01*
X141996333Y-80078667D01*
G75*
G02*
X142046333Y-80128667I0J-50000D01*
G01*
X142046333Y-80828667D01*
G75*
G02*
X141996333Y-80878667I-50000J0D01*
G01*
G37*
%TD*%
%TO.C,R11*%
G36*
G01*
X149294001Y-71625000D02*
X148393999Y-71625000D01*
G75*
G02*
X148144000Y-71375001I0J249999D01*
G01*
X148144000Y-70674999D01*
G75*
G02*
X148393999Y-70425000I249999J0D01*
G01*
X149294001Y-70425000D01*
G75*
G02*
X149544000Y-70674999I0J-249999D01*
G01*
X149544000Y-71375001D01*
G75*
G02*
X149294001Y-71625000I-249999J0D01*
G01*
G37*
G36*
G01*
X149294001Y-73625000D02*
X148393999Y-73625000D01*
G75*
G02*
X148144000Y-73375001I0J249999D01*
G01*
X148144000Y-72674999D01*
G75*
G02*
X148393999Y-72425000I249999J0D01*
G01*
X149294001Y-72425000D01*
G75*
G02*
X149544000Y-72674999I0J-249999D01*
G01*
X149544000Y-73375001D01*
G75*
G02*
X149294001Y-73625000I-249999J0D01*
G01*
G37*
%TD*%
%TO.C,R5*%
G36*
G01*
X171050000Y-77019999D02*
X171050000Y-77920001D01*
G75*
G02*
X170800001Y-78170000I-249999J0D01*
G01*
X170099999Y-78170000D01*
G75*
G02*
X169850000Y-77920001I0J249999D01*
G01*
X169850000Y-77019999D01*
G75*
G02*
X170099999Y-76770000I249999J0D01*
G01*
X170800001Y-76770000D01*
G75*
G02*
X171050000Y-77019999I0J-249999D01*
G01*
G37*
G36*
G01*
X173050000Y-77019999D02*
X173050000Y-77920001D01*
G75*
G02*
X172800001Y-78170000I-249999J0D01*
G01*
X172099999Y-78170000D01*
G75*
G02*
X171850000Y-77920001I0J249999D01*
G01*
X171850000Y-77019999D01*
G75*
G02*
X172099999Y-76770000I249999J0D01*
G01*
X172800001Y-76770000D01*
G75*
G02*
X173050000Y-77019999I0J-249999D01*
G01*
G37*
%TD*%
%TO.C,R4*%
G36*
G01*
X171034000Y-73844999D02*
X171034000Y-74745001D01*
G75*
G02*
X170784001Y-74995000I-249999J0D01*
G01*
X170083999Y-74995000D01*
G75*
G02*
X169834000Y-74745001I0J249999D01*
G01*
X169834000Y-73844999D01*
G75*
G02*
X170083999Y-73595000I249999J0D01*
G01*
X170784001Y-73595000D01*
G75*
G02*
X171034000Y-73844999I0J-249999D01*
G01*
G37*
G36*
G01*
X173034000Y-73844999D02*
X173034000Y-74745001D01*
G75*
G02*
X172784001Y-74995000I-249999J0D01*
G01*
X172083999Y-74995000D01*
G75*
G02*
X171834000Y-74745001I0J249999D01*
G01*
X171834000Y-73844999D01*
G75*
G02*
X172083999Y-73595000I249999J0D01*
G01*
X172784001Y-73595000D01*
G75*
G02*
X173034000Y-73844999I0J-249999D01*
G01*
G37*
%TD*%
%TO.C,R3*%
G36*
G01*
X164468000Y-64077001D02*
X164468000Y-63176999D01*
G75*
G02*
X164717999Y-62927000I249999J0D01*
G01*
X165418001Y-62927000D01*
G75*
G02*
X165668000Y-63176999I0J-249999D01*
G01*
X165668000Y-64077001D01*
G75*
G02*
X165418001Y-64327000I-249999J0D01*
G01*
X164717999Y-64327000D01*
G75*
G02*
X164468000Y-64077001I0J249999D01*
G01*
G37*
G36*
G01*
X162468000Y-64077001D02*
X162468000Y-63176999D01*
G75*
G02*
X162717999Y-62927000I249999J0D01*
G01*
X163418001Y-62927000D01*
G75*
G02*
X163668000Y-63176999I0J-249999D01*
G01*
X163668000Y-64077001D01*
G75*
G02*
X163418001Y-64327000I-249999J0D01*
G01*
X162717999Y-64327000D01*
G75*
G02*
X162468000Y-64077001I0J249999D01*
G01*
G37*
%TD*%
%TO.C,R2*%
G36*
G01*
X164500000Y-67252001D02*
X164500000Y-66351999D01*
G75*
G02*
X164749999Y-66102000I249999J0D01*
G01*
X165450001Y-66102000D01*
G75*
G02*
X165700000Y-66351999I0J-249999D01*
G01*
X165700000Y-67252001D01*
G75*
G02*
X165450001Y-67502000I-249999J0D01*
G01*
X164749999Y-67502000D01*
G75*
G02*
X164500000Y-67252001I0J249999D01*
G01*
G37*
G36*
G01*
X162500000Y-67252001D02*
X162500000Y-66351999D01*
G75*
G02*
X162749999Y-66102000I249999J0D01*
G01*
X163450001Y-66102000D01*
G75*
G02*
X163700000Y-66351999I0J-249999D01*
G01*
X163700000Y-67252001D01*
G75*
G02*
X163450001Y-67502000I-249999J0D01*
G01*
X162749999Y-67502000D01*
G75*
G02*
X162500000Y-67252001I0J249999D01*
G01*
G37*
%TD*%
%TO.C,R1*%
G36*
G01*
X139630999Y-81315000D02*
X140531001Y-81315000D01*
G75*
G02*
X140781000Y-81564999I0J-249999D01*
G01*
X140781000Y-82265001D01*
G75*
G02*
X140531001Y-82515000I-249999J0D01*
G01*
X139630999Y-82515000D01*
G75*
G02*
X139381000Y-82265001I0J249999D01*
G01*
X139381000Y-81564999D01*
G75*
G02*
X139630999Y-81315000I249999J0D01*
G01*
G37*
G36*
G01*
X139630999Y-79315000D02*
X140531001Y-79315000D01*
G75*
G02*
X140781000Y-79564999I0J-249999D01*
G01*
X140781000Y-80265001D01*
G75*
G02*
X140531001Y-80515000I-249999J0D01*
G01*
X139630999Y-80515000D01*
G75*
G02*
X139381000Y-80265001I0J249999D01*
G01*
X139381000Y-79564999D01*
G75*
G02*
X139630999Y-79315000I249999J0D01*
G01*
G37*
%TD*%
D17*
%TO.C,L2*%
X153543000Y-72688000D03*
X153543000Y-78188000D03*
%TD*%
%TO.C,L1*%
G36*
G01*
X150876001Y-89914604D02*
X150239604Y-90551001D01*
G75*
G02*
X149886052Y-90551001I-176776J176776D01*
G01*
X149426431Y-90091380D01*
G75*
G02*
X149426431Y-89737828I176776J176776D01*
G01*
X150062828Y-89101431D01*
G75*
G02*
X150416380Y-89101431I176776J-176776D01*
G01*
X150876001Y-89561052D01*
G75*
G02*
X150876001Y-89914604I-176776J-176776D01*
G01*
G37*
G36*
G01*
X152325569Y-91364172D02*
X151689172Y-92000569D01*
G75*
G02*
X151335620Y-92000569I-176776J176776D01*
G01*
X150875999Y-91540948D01*
G75*
G02*
X150875999Y-91187396I176776J176776D01*
G01*
X151512396Y-90550999D01*
G75*
G02*
X151865948Y-90550999I176776J-176776D01*
G01*
X152325569Y-91010620D01*
G75*
G02*
X152325569Y-91364172I-176776J-176776D01*
G01*
G37*
%TD*%
%TO.C,C19*%
G36*
G01*
X159962000Y-72738000D02*
X159962000Y-71788000D01*
G75*
G02*
X160212000Y-71538000I250000J0D01*
G01*
X160887000Y-71538000D01*
G75*
G02*
X161137000Y-71788000I0J-250000D01*
G01*
X161137000Y-72738000D01*
G75*
G02*
X160887000Y-72988000I-250000J0D01*
G01*
X160212000Y-72988000D01*
G75*
G02*
X159962000Y-72738000I0J250000D01*
G01*
G37*
G36*
G01*
X157887000Y-72738000D02*
X157887000Y-71788000D01*
G75*
G02*
X158137000Y-71538000I250000J0D01*
G01*
X158812000Y-71538000D01*
G75*
G02*
X159062000Y-71788000I0J-250000D01*
G01*
X159062000Y-72738000D01*
G75*
G02*
X158812000Y-72988000I-250000J0D01*
G01*
X158137000Y-72988000D01*
G75*
G02*
X157887000Y-72738000I0J250000D01*
G01*
G37*
%TD*%
%TO.C,C18*%
G36*
G01*
X159991300Y-80891400D02*
X159991300Y-79941400D01*
G75*
G02*
X160241300Y-79691400I250000J0D01*
G01*
X160916300Y-79691400D01*
G75*
G02*
X161166300Y-79941400I0J-250000D01*
G01*
X161166300Y-80891400D01*
G75*
G02*
X160916300Y-81141400I-250000J0D01*
G01*
X160241300Y-81141400D01*
G75*
G02*
X159991300Y-80891400I0J250000D01*
G01*
G37*
G36*
G01*
X157916300Y-80891400D02*
X157916300Y-79941400D01*
G75*
G02*
X158166300Y-79691400I250000J0D01*
G01*
X158841300Y-79691400D01*
G75*
G02*
X159091300Y-79941400I0J-250000D01*
G01*
X159091300Y-80891400D01*
G75*
G02*
X158841300Y-81141400I-250000J0D01*
G01*
X158166300Y-81141400D01*
G75*
G02*
X157916300Y-80891400I0J250000D01*
G01*
G37*
%TD*%
%TO.C,C17*%
G36*
G01*
X159856500Y-75557400D02*
X159856500Y-74607400D01*
G75*
G02*
X160106500Y-74357400I250000J0D01*
G01*
X160781500Y-74357400D01*
G75*
G02*
X161031500Y-74607400I0J-250000D01*
G01*
X161031500Y-75557400D01*
G75*
G02*
X160781500Y-75807400I-250000J0D01*
G01*
X160106500Y-75807400D01*
G75*
G02*
X159856500Y-75557400I0J250000D01*
G01*
G37*
G36*
G01*
X157781500Y-75557400D02*
X157781500Y-74607400D01*
G75*
G02*
X158031500Y-74357400I250000J0D01*
G01*
X158706500Y-74357400D01*
G75*
G02*
X158956500Y-74607400I0J-250000D01*
G01*
X158956500Y-75557400D01*
G75*
G02*
X158706500Y-75807400I-250000J0D01*
G01*
X158031500Y-75807400D01*
G75*
G02*
X157781500Y-75557400I0J250000D01*
G01*
G37*
%TD*%
%TO.C,C8*%
G36*
G01*
X148811000Y-76871500D02*
X147861000Y-76871500D01*
G75*
G02*
X147611000Y-76621500I0J250000D01*
G01*
X147611000Y-75946500D01*
G75*
G02*
X147861000Y-75696500I250000J0D01*
G01*
X148811000Y-75696500D01*
G75*
G02*
X149061000Y-75946500I0J-250000D01*
G01*
X149061000Y-76621500D01*
G75*
G02*
X148811000Y-76871500I-250000J0D01*
G01*
G37*
G36*
G01*
X148811000Y-78946500D02*
X147861000Y-78946500D01*
G75*
G02*
X147611000Y-78696500I0J250000D01*
G01*
X147611000Y-78021500D01*
G75*
G02*
X147861000Y-77771500I250000J0D01*
G01*
X148811000Y-77771500D01*
G75*
G02*
X149061000Y-78021500I0J-250000D01*
G01*
X149061000Y-78696500D01*
G75*
G02*
X148811000Y-78946500I-250000J0D01*
G01*
G37*
%TD*%
%TO.C,C2*%
G36*
G01*
X147427927Y-89263322D02*
X148099678Y-89935073D01*
G75*
G02*
X148099678Y-90288627I-176777J-176777D01*
G01*
X147622381Y-90765924D01*
G75*
G02*
X147268827Y-90765924I-176777J176777D01*
G01*
X146597076Y-90094173D01*
G75*
G02*
X146597076Y-89740619I176777J176777D01*
G01*
X147074373Y-89263322D01*
G75*
G02*
X147427927Y-89263322I176777J-176777D01*
G01*
G37*
G36*
G01*
X148895173Y-87796076D02*
X149566924Y-88467827D01*
G75*
G02*
X149566924Y-88821381I-176777J-176777D01*
G01*
X149089627Y-89298678D01*
G75*
G02*
X148736073Y-89298678I-176777J176777D01*
G01*
X148064322Y-88626927D01*
G75*
G02*
X148064322Y-88273373I176777J176777D01*
G01*
X148541619Y-87796076D01*
G75*
G02*
X148895173Y-87796076I176777J-176777D01*
G01*
G37*
%TD*%
%TO.C,C1*%
G36*
G01*
X154197073Y-91965678D02*
X153525322Y-91293927D01*
G75*
G02*
X153525322Y-90940373I176777J176777D01*
G01*
X154002619Y-90463076D01*
G75*
G02*
X154356173Y-90463076I176777J-176777D01*
G01*
X155027924Y-91134827D01*
G75*
G02*
X155027924Y-91488381I-176777J-176777D01*
G01*
X154550627Y-91965678D01*
G75*
G02*
X154197073Y-91965678I-176777J176777D01*
G01*
G37*
G36*
G01*
X152729827Y-93432924D02*
X152058076Y-92761173D01*
G75*
G02*
X152058076Y-92407619I176777J176777D01*
G01*
X152535373Y-91930322D01*
G75*
G02*
X152888927Y-91930322I176777J-176777D01*
G01*
X153560678Y-92602073D01*
G75*
G02*
X153560678Y-92955627I-176777J-176777D01*
G01*
X153083381Y-93432924D01*
G75*
G02*
X152729827Y-93432924I-176777J176777D01*
G01*
G37*
%TD*%
%TO.C,AE1*%
G36*
G01*
X154061399Y-96610200D02*
X155361401Y-96610200D01*
G75*
G02*
X155611400Y-96860199I0J-249999D01*
G01*
X155611400Y-97560201D01*
G75*
G02*
X155361401Y-97810200I-249999J0D01*
G01*
X154061399Y-97810200D01*
G75*
G02*
X153811400Y-97560201I0J249999D01*
G01*
X153811400Y-96860199D01*
G75*
G02*
X154061399Y-96610200I249999J0D01*
G01*
G37*
G36*
G01*
X154061399Y-93710200D02*
X155361401Y-93710200D01*
G75*
G02*
X155611400Y-93960199I0J-249999D01*
G01*
X155611400Y-94660201D01*
G75*
G02*
X155361401Y-94910200I-249999J0D01*
G01*
X154061399Y-94910200D01*
G75*
G02*
X153811400Y-94660201I0J249999D01*
G01*
X153811400Y-93960199D01*
G75*
G02*
X154061399Y-93710200I249999J0D01*
G01*
G37*
%TD*%
M02*
