%TF.GenerationSoftware,KiCad,Pcbnew,(5.1.10)-1*%
%TF.CreationDate,2022-02-15T22:18:45-08:00*%
%TF.ProjectId,schematic,73636865-6d61-4746-9963-2e6b69636164,rev?*%
%TF.SameCoordinates,Original*%
%TF.FileFunction,Legend,Top*%
%TF.FilePolarity,Positive*%
%FSLAX46Y46*%
G04 Gerber Fmt 4.6, Leading zero omitted, Abs format (unit mm)*
G04 Created by KiCad (PCBNEW (5.1.10)-1) date 2022-02-15 22:18:45*
%MOMM*%
%LPD*%
G01*
G04 APERTURE LIST*
%ADD10C,0.250000*%
%ADD11C,0.500000*%
%ADD12C,0.120000*%
%ADD13C,0.150000*%
G04 APERTURE END LIST*
D10*
X166446723Y-130313180D02*
X166446723Y-131027466D01*
X166399104Y-131170323D01*
X166303866Y-131265561D01*
X166161009Y-131313180D01*
X166065771Y-131313180D01*
X167065771Y-131313180D02*
X166970533Y-131265561D01*
X166922914Y-131217942D01*
X166875295Y-131122704D01*
X166875295Y-130836990D01*
X166922914Y-130741752D01*
X166970533Y-130694133D01*
X167065771Y-130646514D01*
X167208628Y-130646514D01*
X167303866Y-130694133D01*
X167351485Y-130741752D01*
X167399104Y-130836990D01*
X167399104Y-131122704D01*
X167351485Y-131217942D01*
X167303866Y-131265561D01*
X167208628Y-131313180D01*
X167065771Y-131313180D01*
X168208628Y-131265561D02*
X168113390Y-131313180D01*
X167922914Y-131313180D01*
X167827676Y-131265561D01*
X167780057Y-131170323D01*
X167780057Y-130789371D01*
X167827676Y-130694133D01*
X167922914Y-130646514D01*
X168113390Y-130646514D01*
X168208628Y-130694133D01*
X168256247Y-130789371D01*
X168256247Y-130884609D01*
X167780057Y-130979847D01*
X168637200Y-131265561D02*
X168732438Y-131313180D01*
X168922914Y-131313180D01*
X169018152Y-131265561D01*
X169065771Y-131170323D01*
X169065771Y-131122704D01*
X169018152Y-131027466D01*
X168922914Y-130979847D01*
X168780057Y-130979847D01*
X168684819Y-130932228D01*
X168637200Y-130836990D01*
X168637200Y-130789371D01*
X168684819Y-130694133D01*
X168780057Y-130646514D01*
X168922914Y-130646514D01*
X169018152Y-130694133D01*
X169494342Y-130646514D02*
X169494342Y-131646514D01*
X169494342Y-130694133D02*
X169589580Y-130646514D01*
X169780057Y-130646514D01*
X169875295Y-130694133D01*
X169922914Y-130741752D01*
X169970533Y-130836990D01*
X169970533Y-131122704D01*
X169922914Y-131217942D01*
X169875295Y-131265561D01*
X169780057Y-131313180D01*
X169589580Y-131313180D01*
X169494342Y-131265561D01*
X170399104Y-131313180D02*
X170399104Y-130313180D01*
X170827676Y-131313180D02*
X170827676Y-130789371D01*
X170780057Y-130694133D01*
X170684819Y-130646514D01*
X170541961Y-130646514D01*
X170446723Y-130694133D01*
X170399104Y-130741752D01*
X171732438Y-131313180D02*
X171732438Y-130789371D01*
X171684819Y-130694133D01*
X171589580Y-130646514D01*
X171399104Y-130646514D01*
X171303866Y-130694133D01*
X171732438Y-131265561D02*
X171637200Y-131313180D01*
X171399104Y-131313180D01*
X171303866Y-131265561D01*
X171256247Y-131170323D01*
X171256247Y-131075085D01*
X171303866Y-130979847D01*
X171399104Y-130932228D01*
X171637200Y-130932228D01*
X171732438Y-130884609D01*
X172208628Y-130646514D02*
X172208628Y-131313180D01*
X172208628Y-130741752D02*
X172256247Y-130694133D01*
X172351485Y-130646514D01*
X172494342Y-130646514D01*
X172589580Y-130694133D01*
X172637200Y-130789371D01*
X172637200Y-131313180D01*
X174351485Y-131313180D02*
X173875295Y-131313180D01*
X173875295Y-130313180D01*
X175113390Y-130646514D02*
X175113390Y-131313180D01*
X174684819Y-130646514D02*
X174684819Y-131170323D01*
X174732438Y-131265561D01*
X174827676Y-131313180D01*
X174970533Y-131313180D01*
X175065771Y-131265561D01*
X175113390Y-131217942D01*
D11*
X138273428Y-120039000D02*
X137987714Y-119896142D01*
X137559142Y-119896142D01*
X137130571Y-120039000D01*
X136844857Y-120324714D01*
X136702000Y-120610428D01*
X136559142Y-121181857D01*
X136559142Y-121610428D01*
X136702000Y-122181857D01*
X136844857Y-122467571D01*
X137130571Y-122753285D01*
X137559142Y-122896142D01*
X137844857Y-122896142D01*
X138273428Y-122753285D01*
X138416285Y-122610428D01*
X138416285Y-121610428D01*
X137844857Y-121610428D01*
X139702000Y-119896142D02*
X139702000Y-122324714D01*
X139844857Y-122610428D01*
X139987714Y-122753285D01*
X140273428Y-122896142D01*
X140844857Y-122896142D01*
X141130571Y-122753285D01*
X141273428Y-122610428D01*
X141416285Y-122324714D01*
X141416285Y-119896142D01*
X142702000Y-122039000D02*
X144130571Y-122039000D01*
X142416285Y-122896142D02*
X143416285Y-119896142D01*
X144416285Y-122896142D01*
X145416285Y-122896142D02*
X145416285Y-119896142D01*
X147130571Y-122896142D01*
X147130571Y-119896142D01*
X148130571Y-119896142D02*
X149844857Y-119896142D01*
X148987714Y-122896142D02*
X148987714Y-119896142D01*
X150702000Y-122039000D02*
X152130571Y-122039000D01*
X150416285Y-122896142D02*
X151416285Y-119896142D01*
X152416285Y-122896142D01*
X153416285Y-122896142D02*
X153416285Y-119896142D01*
X155130571Y-122896142D01*
X155130571Y-119896142D01*
X156416285Y-122039000D02*
X157844857Y-122039000D01*
X156130571Y-122896142D02*
X157130571Y-119896142D01*
X158130571Y-122896142D01*
X159130571Y-122896142D02*
X159130571Y-119896142D01*
X160130571Y-122039000D01*
X161130571Y-119896142D01*
X161130571Y-122896142D01*
X163130571Y-119896142D02*
X163702000Y-119896142D01*
X163987714Y-120039000D01*
X164273428Y-120324714D01*
X164416285Y-120896142D01*
X164416285Y-121896142D01*
X164273428Y-122467571D01*
X163987714Y-122753285D01*
X163702000Y-122896142D01*
X163130571Y-122896142D01*
X162844857Y-122753285D01*
X162559142Y-122467571D01*
X162416285Y-121896142D01*
X162416285Y-120896142D01*
X162559142Y-120324714D01*
X162844857Y-120039000D01*
X163130571Y-119896142D01*
X168987714Y-121324714D02*
X169416285Y-121467571D01*
X169559142Y-121610428D01*
X169702000Y-121896142D01*
X169702000Y-122324714D01*
X169559142Y-122610428D01*
X169416285Y-122753285D01*
X169130571Y-122896142D01*
X167987714Y-122896142D01*
X167987714Y-119896142D01*
X168987714Y-119896142D01*
X169273428Y-120039000D01*
X169416285Y-120181857D01*
X169559142Y-120467571D01*
X169559142Y-120753285D01*
X169416285Y-121039000D01*
X169273428Y-121181857D01*
X168987714Y-121324714D01*
X167987714Y-121324714D01*
X170844857Y-122039000D02*
X172273428Y-122039000D01*
X170559142Y-122896142D02*
X171559142Y-119896142D01*
X172559142Y-122896142D01*
X174130571Y-121467571D02*
X174130571Y-122896142D01*
X173130571Y-119896142D02*
X174130571Y-121467571D01*
X175130571Y-119896142D01*
D12*
%TO.C,SW1*%
X138397000Y-67250000D02*
X137594530Y-67250000D01*
X136979470Y-67250000D02*
X136177000Y-67250000D01*
X138397000Y-68455000D02*
X138397000Y-67250000D01*
X136177000Y-68455000D02*
X136177000Y-67250000D01*
X138397000Y-68455000D02*
X137850471Y-68455000D01*
X136723529Y-68455000D02*
X136177000Y-68455000D01*
X138397000Y-69215000D02*
X138397000Y-69975000D01*
X138397000Y-69975000D02*
X137287000Y-69975000D01*
%TO.C,J3*%
X173703000Y-69155000D02*
X172900530Y-69155000D01*
X172285470Y-69155000D02*
X171483000Y-69155000D01*
X173703000Y-70360000D02*
X173703000Y-69155000D01*
X171483000Y-70360000D02*
X171483000Y-69155000D01*
X173703000Y-70360000D02*
X173156471Y-70360000D01*
X172029529Y-70360000D02*
X171483000Y-70360000D01*
X173703000Y-71120000D02*
X173703000Y-71880000D01*
X173703000Y-71880000D02*
X172593000Y-71880000D01*
%TO.C,Je*%
X136304000Y-66227000D02*
X137106470Y-66227000D01*
X137721530Y-66227000D02*
X138524000Y-66227000D01*
X136304000Y-65022000D02*
X136304000Y-66227000D01*
X138524000Y-65022000D02*
X138524000Y-66227000D01*
X136304000Y-65022000D02*
X136850529Y-65022000D01*
X137977471Y-65022000D02*
X138524000Y-65022000D01*
X136304000Y-64262000D02*
X136304000Y-63502000D01*
X136304000Y-63502000D02*
X137414000Y-63502000D01*
%TO.C,J4*%
X140522000Y-85819000D02*
X140522000Y-85016530D01*
X140522000Y-84401470D02*
X140522000Y-83599000D01*
X138047000Y-85819000D02*
X140522000Y-85819000D01*
X138047000Y-83599000D02*
X140522000Y-83599000D01*
X138047000Y-85819000D02*
X138047000Y-85272471D01*
X138047000Y-84145529D02*
X138047000Y-83599000D01*
X137287000Y-85819000D02*
X136527000Y-85819000D01*
X136527000Y-85819000D02*
X136527000Y-84709000D01*
%TO.C,R7*%
X149071000Y-80941936D02*
X149071000Y-81396064D01*
X147601000Y-80941936D02*
X147601000Y-81396064D01*
%TO.C,R6*%
X149506000Y-81364064D02*
X149506000Y-80909936D01*
X150976000Y-81364064D02*
X150976000Y-80909936D01*
%TO.C,C16*%
X158839248Y-76364000D02*
X160261752Y-76364000D01*
X158839248Y-79084000D02*
X160261752Y-79084000D01*
%TO.C,D3*%
X162430000Y-68462000D02*
X162430000Y-72762000D01*
X162430000Y-72762000D02*
X168130000Y-72762000D01*
X162430000Y-68462000D02*
X168130000Y-68462000D01*
%TO.C,U7*%
X144993000Y-71258000D02*
X144993000Y-69458000D01*
X141773000Y-69458000D02*
X141773000Y-71908000D01*
%TO.C,J2*%
X150532000Y-62334000D02*
X150532000Y-69734000D01*
X150532000Y-69734000D02*
X159432000Y-69734000D01*
X159432000Y-69734000D02*
X159432000Y-62334000D01*
X159432000Y-62334000D02*
X150532000Y-62334000D01*
%TO.C,TH3*%
X164581064Y-129005000D02*
X164126936Y-129005000D01*
X164581064Y-127535000D02*
X164126936Y-127535000D01*
%TO.C,TH2*%
X151246064Y-116305000D02*
X150791936Y-116305000D01*
X151246064Y-114835000D02*
X150791936Y-114835000D01*
%TO.C,TH1*%
X142102064Y-107161000D02*
X141647936Y-107161000D01*
X142102064Y-105691000D02*
X141647936Y-105691000D01*
%TO.C,R24*%
X164073436Y-125477600D02*
X164527564Y-125477600D01*
X164073436Y-126947600D02*
X164527564Y-126947600D01*
%TO.C,R21*%
X150791936Y-112549000D02*
X151246064Y-112549000D01*
X150791936Y-114019000D02*
X151246064Y-114019000D01*
%TO.C,R20*%
X141619436Y-103408600D02*
X142073564Y-103408600D01*
X141619436Y-104878600D02*
X142073564Y-104878600D01*
%TO.C,Y1*%
X135552000Y-78720000D02*
X139952000Y-78720000D01*
X139952000Y-78720000D02*
X139952000Y-73320000D01*
%TO.C,U5*%
X165862000Y-78125000D02*
X167812000Y-78125000D01*
X165862000Y-78125000D02*
X163912000Y-78125000D01*
X165862000Y-73005000D02*
X167812000Y-73005000D01*
X165862000Y-73005000D02*
X162412000Y-73005000D01*
%TO.C,U2*%
X169672000Y-63099000D02*
X167722000Y-63099000D01*
X169672000Y-63099000D02*
X171622000Y-63099000D01*
X169672000Y-68219000D02*
X167722000Y-68219000D01*
X169672000Y-68219000D02*
X173122000Y-68219000D01*
%TO.C,U1*%
X141611333Y-76093667D02*
X141611333Y-75418667D01*
X146831333Y-79963667D02*
X146831333Y-80638667D01*
X146831333Y-76093667D02*
X146831333Y-75418667D01*
%TO.C,R11*%
X148109000Y-72252064D02*
X148109000Y-71797936D01*
X149579000Y-72252064D02*
X149579000Y-71797936D01*
%TO.C,R5*%
X171677064Y-78205000D02*
X171222936Y-78205000D01*
X171677064Y-76735000D02*
X171222936Y-76735000D01*
%TO.C,R4*%
X171661064Y-75030000D02*
X171206936Y-75030000D01*
X171661064Y-73560000D02*
X171206936Y-73560000D01*
%TO.C,R3*%
X163840936Y-62892000D02*
X164295064Y-62892000D01*
X163840936Y-64362000D02*
X164295064Y-64362000D01*
%TO.C,R2*%
X163872936Y-66067000D02*
X164327064Y-66067000D01*
X163872936Y-67537000D02*
X164327064Y-67537000D01*
%TO.C,R1*%
X140816000Y-80687936D02*
X140816000Y-81142064D01*
X139346000Y-80687936D02*
X139346000Y-81142064D01*
%TO.C,L2*%
X155043000Y-72138000D02*
X156743000Y-72138000D01*
X156743000Y-72138000D02*
X156743000Y-78738000D01*
X156743000Y-78738000D02*
X155043000Y-78738000D01*
X152043000Y-78738000D02*
X150343000Y-78738000D01*
X150343000Y-78738000D02*
X150343000Y-72138000D01*
X150343000Y-72138000D02*
X152043000Y-72138000D01*
%TO.C,L1*%
X150558687Y-91237779D02*
X150189221Y-90868313D01*
X151562779Y-90233687D02*
X151193313Y-89864221D01*
%TO.C,C19*%
X159250748Y-71528000D02*
X159773252Y-71528000D01*
X159250748Y-72998000D02*
X159773252Y-72998000D01*
%TO.C,C18*%
X159280048Y-79681400D02*
X159802552Y-79681400D01*
X159280048Y-81151400D02*
X159802552Y-81151400D01*
%TO.C,C17*%
X159145248Y-74347400D02*
X159667752Y-74347400D01*
X159145248Y-75817400D02*
X159667752Y-75817400D01*
%TO.C,C8*%
X147601000Y-77582752D02*
X147601000Y-77060248D01*
X149071000Y-77582752D02*
X149071000Y-77060248D01*
%TO.C,C2*%
X148786457Y-89615990D02*
X148416990Y-89985457D01*
X147747010Y-88576543D02*
X147377543Y-88946010D01*
%TO.C,C1*%
X152838543Y-91613010D02*
X153208010Y-91243543D01*
X153877990Y-92652457D02*
X154247457Y-92282990D01*
%TO.C,AE1*%
X155871400Y-97360200D02*
X155871400Y-93450200D01*
X155871400Y-93450200D02*
X153551400Y-93450200D01*
X153551400Y-93450200D02*
X153551400Y-97360200D01*
%TO.C,SW1*%
D13*
X137223666Y-66571761D02*
X137366523Y-66619380D01*
X137604619Y-66619380D01*
X137699857Y-66571761D01*
X137747476Y-66524142D01*
X137795095Y-66428904D01*
X137795095Y-66333666D01*
X137747476Y-66238428D01*
X137699857Y-66190809D01*
X137604619Y-66143190D01*
X137414142Y-66095571D01*
X137318904Y-66047952D01*
X137271285Y-66000333D01*
X137223666Y-65905095D01*
X137223666Y-65809857D01*
X137271285Y-65714619D01*
X137318904Y-65667000D01*
X137414142Y-65619380D01*
X137652238Y-65619380D01*
X137795095Y-65667000D01*
X138128428Y-65619380D02*
X138366523Y-66619380D01*
X138557000Y-65905095D01*
X138747476Y-66619380D01*
X138985571Y-65619380D01*
X139890333Y-66619380D02*
X139318904Y-66619380D01*
X139604619Y-66619380D02*
X139604619Y-65619380D01*
X139509380Y-65762238D01*
X139414142Y-65857476D01*
X139318904Y-65905095D01*
X138961904Y-69413380D02*
X138961904Y-68413380D01*
X139342857Y-68413380D01*
X139438095Y-68461000D01*
X139485714Y-68508619D01*
X139533333Y-68603857D01*
X139533333Y-68746714D01*
X139485714Y-68841952D01*
X139438095Y-68889571D01*
X139342857Y-68937190D01*
X138961904Y-68937190D01*
X139914285Y-69365761D02*
X140057142Y-69413380D01*
X140295238Y-69413380D01*
X140390476Y-69365761D01*
X140438095Y-69318142D01*
X140485714Y-69222904D01*
X140485714Y-69127666D01*
X140438095Y-69032428D01*
X140390476Y-68984809D01*
X140295238Y-68937190D01*
X140104761Y-68889571D01*
X140009523Y-68841952D01*
X139961904Y-68794333D01*
X139914285Y-68699095D01*
X139914285Y-68603857D01*
X139961904Y-68508619D01*
X140009523Y-68461000D01*
X140104761Y-68413380D01*
X140342857Y-68413380D01*
X140485714Y-68461000D01*
%TO.C,J3*%
X172259666Y-72477380D02*
X172259666Y-73191666D01*
X172212047Y-73334523D01*
X172116809Y-73429761D01*
X171973952Y-73477380D01*
X171878714Y-73477380D01*
X172640619Y-72477380D02*
X173259666Y-72477380D01*
X172926333Y-72858333D01*
X173069190Y-72858333D01*
X173164428Y-72905952D01*
X173212047Y-72953571D01*
X173259666Y-73048809D01*
X173259666Y-73286904D01*
X173212047Y-73382142D01*
X173164428Y-73429761D01*
X173069190Y-73477380D01*
X172783476Y-73477380D01*
X172688238Y-73429761D01*
X172640619Y-73382142D01*
X171354904Y-68607380D02*
X171354904Y-67607380D01*
X171735857Y-67607380D01*
X171831095Y-67655000D01*
X171878714Y-67702619D01*
X171926333Y-67797857D01*
X171926333Y-67940714D01*
X171878714Y-68035952D01*
X171831095Y-68083571D01*
X171735857Y-68131190D01*
X171354904Y-68131190D01*
X172735857Y-68559761D02*
X172640619Y-68607380D01*
X172450142Y-68607380D01*
X172354904Y-68559761D01*
X172307285Y-68464523D01*
X172307285Y-68083571D01*
X172354904Y-67988333D01*
X172450142Y-67940714D01*
X172640619Y-67940714D01*
X172735857Y-67988333D01*
X172783476Y-68083571D01*
X172783476Y-68178809D01*
X172307285Y-68274047D01*
X173354904Y-68607380D02*
X173259666Y-68559761D01*
X173212047Y-68464523D01*
X173212047Y-67607380D01*
X173593000Y-67940714D02*
X173973952Y-67940714D01*
X173735857Y-67607380D02*
X173735857Y-68464523D01*
X173783476Y-68559761D01*
X173878714Y-68607380D01*
X173973952Y-68607380D01*
%TO.C,Je*%
X136239285Y-61555380D02*
X136239285Y-62269666D01*
X136191666Y-62412523D01*
X136096428Y-62507761D01*
X135953571Y-62555380D01*
X135858333Y-62555380D01*
X137096428Y-62507761D02*
X137001190Y-62555380D01*
X136810714Y-62555380D01*
X136715476Y-62507761D01*
X136667857Y-62412523D01*
X136667857Y-62031571D01*
X136715476Y-61936333D01*
X136810714Y-61888714D01*
X137001190Y-61888714D01*
X137096428Y-61936333D01*
X137144047Y-62031571D01*
X137144047Y-62126809D01*
X136667857Y-62222047D01*
X139596952Y-65079571D02*
X139739809Y-65127190D01*
X139787428Y-65174809D01*
X139835047Y-65270047D01*
X139835047Y-65412904D01*
X139787428Y-65508142D01*
X139739809Y-65555761D01*
X139644571Y-65603380D01*
X139263619Y-65603380D01*
X139263619Y-64603380D01*
X139596952Y-64603380D01*
X139692190Y-64651000D01*
X139739809Y-64698619D01*
X139787428Y-64793857D01*
X139787428Y-64889095D01*
X139739809Y-64984333D01*
X139692190Y-65031952D01*
X139596952Y-65079571D01*
X139263619Y-65079571D01*
X140216000Y-65317666D02*
X140692190Y-65317666D01*
X140120761Y-65603380D02*
X140454095Y-64603380D01*
X140787428Y-65603380D01*
X140977904Y-64603380D02*
X141549333Y-64603380D01*
X141263619Y-65603380D02*
X141263619Y-64603380D01*
X141739809Y-64603380D02*
X142311238Y-64603380D01*
X142025523Y-65603380D02*
X142025523Y-64603380D01*
%TO.C,J4*%
X135044380Y-85042333D02*
X135758666Y-85042333D01*
X135901523Y-85089952D01*
X135996761Y-85185190D01*
X136044380Y-85328047D01*
X136044380Y-85423285D01*
X135377714Y-84137571D02*
X136044380Y-84137571D01*
X134996761Y-84375666D02*
X135711047Y-84613761D01*
X135711047Y-83994714D01*
%TO.C,R7*%
X146264333Y-83002380D02*
X145931000Y-82526190D01*
X145692904Y-83002380D02*
X145692904Y-82002380D01*
X146073857Y-82002380D01*
X146169095Y-82050000D01*
X146216714Y-82097619D01*
X146264333Y-82192857D01*
X146264333Y-82335714D01*
X146216714Y-82430952D01*
X146169095Y-82478571D01*
X146073857Y-82526190D01*
X145692904Y-82526190D01*
X146597666Y-82002380D02*
X147264333Y-82002380D01*
X146835761Y-83002380D01*
%TO.C,R6*%
X151852333Y-82113380D02*
X151519000Y-81637190D01*
X151280904Y-82113380D02*
X151280904Y-81113380D01*
X151661857Y-81113380D01*
X151757095Y-81161000D01*
X151804714Y-81208619D01*
X151852333Y-81303857D01*
X151852333Y-81446714D01*
X151804714Y-81541952D01*
X151757095Y-81589571D01*
X151661857Y-81637190D01*
X151280904Y-81637190D01*
X152709476Y-81113380D02*
X152519000Y-81113380D01*
X152423761Y-81161000D01*
X152376142Y-81208619D01*
X152280904Y-81351476D01*
X152233285Y-81541952D01*
X152233285Y-81922904D01*
X152280904Y-82018142D01*
X152328523Y-82065761D01*
X152423761Y-82113380D01*
X152614238Y-82113380D01*
X152709476Y-82065761D01*
X152757095Y-82018142D01*
X152804714Y-81922904D01*
X152804714Y-81684809D01*
X152757095Y-81589571D01*
X152709476Y-81541952D01*
X152614238Y-81494333D01*
X152423761Y-81494333D01*
X152328523Y-81541952D01*
X152280904Y-81589571D01*
X152233285Y-81684809D01*
%TO.C,C16*%
X162933142Y-79224142D02*
X162885523Y-79271761D01*
X162742666Y-79319380D01*
X162647428Y-79319380D01*
X162504571Y-79271761D01*
X162409333Y-79176523D01*
X162361714Y-79081285D01*
X162314095Y-78890809D01*
X162314095Y-78747952D01*
X162361714Y-78557476D01*
X162409333Y-78462238D01*
X162504571Y-78367000D01*
X162647428Y-78319380D01*
X162742666Y-78319380D01*
X162885523Y-78367000D01*
X162933142Y-78414619D01*
X163885523Y-79319380D02*
X163314095Y-79319380D01*
X163599809Y-79319380D02*
X163599809Y-78319380D01*
X163504571Y-78462238D01*
X163409333Y-78557476D01*
X163314095Y-78605095D01*
X164742666Y-78319380D02*
X164552190Y-78319380D01*
X164456952Y-78367000D01*
X164409333Y-78414619D01*
X164314095Y-78557476D01*
X164266476Y-78747952D01*
X164266476Y-79128904D01*
X164314095Y-79224142D01*
X164361714Y-79271761D01*
X164456952Y-79319380D01*
X164647428Y-79319380D01*
X164742666Y-79271761D01*
X164790285Y-79224142D01*
X164837904Y-79128904D01*
X164837904Y-78890809D01*
X164790285Y-78795571D01*
X164742666Y-78747952D01*
X164647428Y-78700333D01*
X164456952Y-78700333D01*
X164361714Y-78747952D01*
X164314095Y-78795571D01*
X164266476Y-78890809D01*
%TO.C,D3*%
X169822904Y-71064380D02*
X169822904Y-70064380D01*
X170061000Y-70064380D01*
X170203857Y-70112000D01*
X170299095Y-70207238D01*
X170346714Y-70302476D01*
X170394333Y-70492952D01*
X170394333Y-70635809D01*
X170346714Y-70826285D01*
X170299095Y-70921523D01*
X170203857Y-71016761D01*
X170061000Y-71064380D01*
X169822904Y-71064380D01*
X170727666Y-70064380D02*
X171346714Y-70064380D01*
X171013380Y-70445333D01*
X171156238Y-70445333D01*
X171251476Y-70492952D01*
X171299095Y-70540571D01*
X171346714Y-70635809D01*
X171346714Y-70873904D01*
X171299095Y-70969142D01*
X171251476Y-71016761D01*
X171156238Y-71064380D01*
X170870523Y-71064380D01*
X170775285Y-71016761D01*
X170727666Y-70969142D01*
%TO.C,U7*%
X145502380Y-69214904D02*
X146311904Y-69214904D01*
X146407142Y-69167285D01*
X146454761Y-69119666D01*
X146502380Y-69024428D01*
X146502380Y-68833952D01*
X146454761Y-68738714D01*
X146407142Y-68691095D01*
X146311904Y-68643476D01*
X145502380Y-68643476D01*
X145502380Y-68262523D02*
X145502380Y-67595857D01*
X146502380Y-68024428D01*
%TO.C,J2*%
X154352666Y-62444380D02*
X154352666Y-63158666D01*
X154305047Y-63301523D01*
X154209809Y-63396761D01*
X154066952Y-63444380D01*
X153971714Y-63444380D01*
X154781238Y-62539619D02*
X154828857Y-62492000D01*
X154924095Y-62444380D01*
X155162190Y-62444380D01*
X155257428Y-62492000D01*
X155305047Y-62539619D01*
X155352666Y-62634857D01*
X155352666Y-62730095D01*
X155305047Y-62872952D01*
X154733619Y-63444380D01*
X155352666Y-63444380D01*
%TO.C,TH3*%
X163068285Y-129372380D02*
X163639714Y-129372380D01*
X163354000Y-130372380D02*
X163354000Y-129372380D01*
X163973047Y-130372380D02*
X163973047Y-129372380D01*
X163973047Y-129848571D02*
X164544476Y-129848571D01*
X164544476Y-130372380D02*
X164544476Y-129372380D01*
X164925428Y-129372380D02*
X165544476Y-129372380D01*
X165211142Y-129753333D01*
X165354000Y-129753333D01*
X165449238Y-129800952D01*
X165496857Y-129848571D01*
X165544476Y-129943809D01*
X165544476Y-130181904D01*
X165496857Y-130277142D01*
X165449238Y-130324761D01*
X165354000Y-130372380D01*
X165068285Y-130372380D01*
X164973047Y-130324761D01*
X164925428Y-130277142D01*
%TO.C,TH2*%
X149733285Y-116672380D02*
X150304714Y-116672380D01*
X150019000Y-117672380D02*
X150019000Y-116672380D01*
X150638047Y-117672380D02*
X150638047Y-116672380D01*
X150638047Y-117148571D02*
X151209476Y-117148571D01*
X151209476Y-117672380D02*
X151209476Y-116672380D01*
X151638047Y-116767619D02*
X151685666Y-116720000D01*
X151780904Y-116672380D01*
X152019000Y-116672380D01*
X152114238Y-116720000D01*
X152161857Y-116767619D01*
X152209476Y-116862857D01*
X152209476Y-116958095D01*
X152161857Y-117100952D01*
X151590428Y-117672380D01*
X152209476Y-117672380D01*
%TO.C,TH1*%
X140589285Y-107528380D02*
X141160714Y-107528380D01*
X140875000Y-108528380D02*
X140875000Y-107528380D01*
X141494047Y-108528380D02*
X141494047Y-107528380D01*
X141494047Y-108004571D02*
X142065476Y-108004571D01*
X142065476Y-108528380D02*
X142065476Y-107528380D01*
X143065476Y-108528380D02*
X142494047Y-108528380D01*
X142779761Y-108528380D02*
X142779761Y-107528380D01*
X142684523Y-107671238D01*
X142589285Y-107766476D01*
X142494047Y-107814095D01*
%TO.C,R24*%
X163657642Y-125014980D02*
X163324309Y-124538790D01*
X163086214Y-125014980D02*
X163086214Y-124014980D01*
X163467166Y-124014980D01*
X163562404Y-124062600D01*
X163610023Y-124110219D01*
X163657642Y-124205457D01*
X163657642Y-124348314D01*
X163610023Y-124443552D01*
X163562404Y-124491171D01*
X163467166Y-124538790D01*
X163086214Y-124538790D01*
X164038595Y-124110219D02*
X164086214Y-124062600D01*
X164181452Y-124014980D01*
X164419547Y-124014980D01*
X164514785Y-124062600D01*
X164562404Y-124110219D01*
X164610023Y-124205457D01*
X164610023Y-124300695D01*
X164562404Y-124443552D01*
X163990976Y-125014980D01*
X164610023Y-125014980D01*
X165467166Y-124348314D02*
X165467166Y-125014980D01*
X165229071Y-123967361D02*
X164990976Y-124681647D01*
X165610023Y-124681647D01*
%TO.C,R21*%
X150376142Y-112086380D02*
X150042809Y-111610190D01*
X149804714Y-112086380D02*
X149804714Y-111086380D01*
X150185666Y-111086380D01*
X150280904Y-111134000D01*
X150328523Y-111181619D01*
X150376142Y-111276857D01*
X150376142Y-111419714D01*
X150328523Y-111514952D01*
X150280904Y-111562571D01*
X150185666Y-111610190D01*
X149804714Y-111610190D01*
X150757095Y-111181619D02*
X150804714Y-111134000D01*
X150899952Y-111086380D01*
X151138047Y-111086380D01*
X151233285Y-111134000D01*
X151280904Y-111181619D01*
X151328523Y-111276857D01*
X151328523Y-111372095D01*
X151280904Y-111514952D01*
X150709476Y-112086380D01*
X151328523Y-112086380D01*
X152280904Y-112086380D02*
X151709476Y-112086380D01*
X151995190Y-112086380D02*
X151995190Y-111086380D01*
X151899952Y-111229238D01*
X151804714Y-111324476D01*
X151709476Y-111372095D01*
%TO.C,R20*%
X141203642Y-102945980D02*
X140870309Y-102469790D01*
X140632214Y-102945980D02*
X140632214Y-101945980D01*
X141013166Y-101945980D01*
X141108404Y-101993600D01*
X141156023Y-102041219D01*
X141203642Y-102136457D01*
X141203642Y-102279314D01*
X141156023Y-102374552D01*
X141108404Y-102422171D01*
X141013166Y-102469790D01*
X140632214Y-102469790D01*
X141584595Y-102041219D02*
X141632214Y-101993600D01*
X141727452Y-101945980D01*
X141965547Y-101945980D01*
X142060785Y-101993600D01*
X142108404Y-102041219D01*
X142156023Y-102136457D01*
X142156023Y-102231695D01*
X142108404Y-102374552D01*
X141536976Y-102945980D01*
X142156023Y-102945980D01*
X142775071Y-101945980D02*
X142870309Y-101945980D01*
X142965547Y-101993600D01*
X143013166Y-102041219D01*
X143060785Y-102136457D01*
X143108404Y-102326933D01*
X143108404Y-102565028D01*
X143060785Y-102755504D01*
X143013166Y-102850742D01*
X142965547Y-102898361D01*
X142870309Y-102945980D01*
X142775071Y-102945980D01*
X142679833Y-102898361D01*
X142632214Y-102850742D01*
X142584595Y-102755504D01*
X142536976Y-102565028D01*
X142536976Y-102326933D01*
X142584595Y-102136457D01*
X142632214Y-102041219D01*
X142679833Y-101993600D01*
X142775071Y-101945980D01*
%TO.C,Y1*%
X134728190Y-76496190D02*
X135204380Y-76496190D01*
X134204380Y-76829523D02*
X134728190Y-76496190D01*
X134204380Y-76162857D01*
X135204380Y-75305714D02*
X135204380Y-75877142D01*
X135204380Y-75591428D02*
X134204380Y-75591428D01*
X134347238Y-75686666D01*
X134442476Y-75781904D01*
X134490095Y-75877142D01*
%TO.C,U5*%
X166370095Y-78573380D02*
X166370095Y-79382904D01*
X166417714Y-79478142D01*
X166465333Y-79525761D01*
X166560571Y-79573380D01*
X166751047Y-79573380D01*
X166846285Y-79525761D01*
X166893904Y-79478142D01*
X166941523Y-79382904D01*
X166941523Y-78573380D01*
X167893904Y-78573380D02*
X167417714Y-78573380D01*
X167370095Y-79049571D01*
X167417714Y-79001952D01*
X167512952Y-78954333D01*
X167751047Y-78954333D01*
X167846285Y-79001952D01*
X167893904Y-79049571D01*
X167941523Y-79144809D01*
X167941523Y-79382904D01*
X167893904Y-79478142D01*
X167846285Y-79525761D01*
X167751047Y-79573380D01*
X167512952Y-79573380D01*
X167417714Y-79525761D01*
X167370095Y-79478142D01*
%TO.C,U2*%
X173736095Y-62444380D02*
X173736095Y-63253904D01*
X173783714Y-63349142D01*
X173831333Y-63396761D01*
X173926571Y-63444380D01*
X174117047Y-63444380D01*
X174212285Y-63396761D01*
X174259904Y-63349142D01*
X174307523Y-63253904D01*
X174307523Y-62444380D01*
X174736095Y-62539619D02*
X174783714Y-62492000D01*
X174878952Y-62444380D01*
X175117047Y-62444380D01*
X175212285Y-62492000D01*
X175259904Y-62539619D01*
X175307523Y-62634857D01*
X175307523Y-62730095D01*
X175259904Y-62872952D01*
X174688476Y-63444380D01*
X175307523Y-63444380D01*
%TO.C,U1*%
X139873713Y-78790571D02*
X140683237Y-78790571D01*
X140778475Y-78742952D01*
X140826094Y-78695333D01*
X140873713Y-78600095D01*
X140873713Y-78409619D01*
X140826094Y-78314381D01*
X140778475Y-78266762D01*
X140683237Y-78219143D01*
X139873713Y-78219143D01*
X140873713Y-77219143D02*
X140873713Y-77790571D01*
X140873713Y-77504857D02*
X139873713Y-77504857D01*
X140016571Y-77600095D01*
X140111809Y-77695333D01*
X140159428Y-77790571D01*
%TO.C,R11*%
X147518380Y-74556857D02*
X147042190Y-74890190D01*
X147518380Y-75128285D02*
X146518380Y-75128285D01*
X146518380Y-74747333D01*
X146566000Y-74652095D01*
X146613619Y-74604476D01*
X146708857Y-74556857D01*
X146851714Y-74556857D01*
X146946952Y-74604476D01*
X146994571Y-74652095D01*
X147042190Y-74747333D01*
X147042190Y-75128285D01*
X147518380Y-73604476D02*
X147518380Y-74175904D01*
X147518380Y-73890190D02*
X146518380Y-73890190D01*
X146661238Y-73985428D01*
X146756476Y-74080666D01*
X146804095Y-74175904D01*
X147518380Y-72652095D02*
X147518380Y-73223523D01*
X147518380Y-72937809D02*
X146518380Y-72937809D01*
X146661238Y-73033047D01*
X146756476Y-73128285D01*
X146804095Y-73223523D01*
%TO.C,R5*%
X171283333Y-79572380D02*
X170950000Y-79096190D01*
X170711904Y-79572380D02*
X170711904Y-78572380D01*
X171092857Y-78572380D01*
X171188095Y-78620000D01*
X171235714Y-78667619D01*
X171283333Y-78762857D01*
X171283333Y-78905714D01*
X171235714Y-79000952D01*
X171188095Y-79048571D01*
X171092857Y-79096190D01*
X170711904Y-79096190D01*
X172188095Y-78572380D02*
X171711904Y-78572380D01*
X171664285Y-79048571D01*
X171711904Y-79000952D01*
X171807142Y-78953333D01*
X172045238Y-78953333D01*
X172140476Y-79000952D01*
X172188095Y-79048571D01*
X172235714Y-79143809D01*
X172235714Y-79381904D01*
X172188095Y-79477142D01*
X172140476Y-79524761D01*
X172045238Y-79572380D01*
X171807142Y-79572380D01*
X171711904Y-79524761D01*
X171664285Y-79477142D01*
%TO.C,R4*%
X171267333Y-76397380D02*
X170934000Y-75921190D01*
X170695904Y-76397380D02*
X170695904Y-75397380D01*
X171076857Y-75397380D01*
X171172095Y-75445000D01*
X171219714Y-75492619D01*
X171267333Y-75587857D01*
X171267333Y-75730714D01*
X171219714Y-75825952D01*
X171172095Y-75873571D01*
X171076857Y-75921190D01*
X170695904Y-75921190D01*
X172124476Y-75730714D02*
X172124476Y-76397380D01*
X171886380Y-75349761D02*
X171648285Y-76064047D01*
X172267333Y-76064047D01*
%TO.C,R3*%
X160869333Y-63571380D02*
X160536000Y-63095190D01*
X160297904Y-63571380D02*
X160297904Y-62571380D01*
X160678857Y-62571380D01*
X160774095Y-62619000D01*
X160821714Y-62666619D01*
X160869333Y-62761857D01*
X160869333Y-62904714D01*
X160821714Y-62999952D01*
X160774095Y-63047571D01*
X160678857Y-63095190D01*
X160297904Y-63095190D01*
X161202666Y-62571380D02*
X161821714Y-62571380D01*
X161488380Y-62952333D01*
X161631238Y-62952333D01*
X161726476Y-62999952D01*
X161774095Y-63047571D01*
X161821714Y-63142809D01*
X161821714Y-63380904D01*
X161774095Y-63476142D01*
X161726476Y-63523761D01*
X161631238Y-63571380D01*
X161345523Y-63571380D01*
X161250285Y-63523761D01*
X161202666Y-63476142D01*
%TO.C,R2*%
X163933333Y-65604380D02*
X163600000Y-65128190D01*
X163361904Y-65604380D02*
X163361904Y-64604380D01*
X163742857Y-64604380D01*
X163838095Y-64652000D01*
X163885714Y-64699619D01*
X163933333Y-64794857D01*
X163933333Y-64937714D01*
X163885714Y-65032952D01*
X163838095Y-65080571D01*
X163742857Y-65128190D01*
X163361904Y-65128190D01*
X164314285Y-64699619D02*
X164361904Y-64652000D01*
X164457142Y-64604380D01*
X164695238Y-64604380D01*
X164790476Y-64652000D01*
X164838095Y-64699619D01*
X164885714Y-64794857D01*
X164885714Y-64890095D01*
X164838095Y-65032952D01*
X164266666Y-65604380D01*
X164885714Y-65604380D01*
%TO.C,R1*%
X140168333Y-84018380D02*
X139835000Y-83542190D01*
X139596904Y-84018380D02*
X139596904Y-83018380D01*
X139977857Y-83018380D01*
X140073095Y-83066000D01*
X140120714Y-83113619D01*
X140168333Y-83208857D01*
X140168333Y-83351714D01*
X140120714Y-83446952D01*
X140073095Y-83494571D01*
X139977857Y-83542190D01*
X139596904Y-83542190D01*
X141120714Y-84018380D02*
X140549285Y-84018380D01*
X140835000Y-84018380D02*
X140835000Y-83018380D01*
X140739761Y-83161238D01*
X140644523Y-83256476D01*
X140549285Y-83304095D01*
%TO.C,L2*%
X153376333Y-80589380D02*
X152900142Y-80589380D01*
X152900142Y-79589380D01*
X153662047Y-79684619D02*
X153709666Y-79637000D01*
X153804904Y-79589380D01*
X154043000Y-79589380D01*
X154138238Y-79637000D01*
X154185857Y-79684619D01*
X154233476Y-79779857D01*
X154233476Y-79875095D01*
X154185857Y-80017952D01*
X153614428Y-80589380D01*
X154233476Y-80589380D01*
%TO.C,L1*%
X149808030Y-92385732D02*
X149471312Y-92722450D01*
X148764206Y-92015343D01*
X150414122Y-91779641D02*
X150010061Y-92183702D01*
X150212091Y-91981671D02*
X149504984Y-91274564D01*
X149538656Y-91442923D01*
X149538656Y-91577610D01*
X149504984Y-91678625D01*
%TO.C,C19*%
X158869142Y-70940142D02*
X158821523Y-70987761D01*
X158678666Y-71035380D01*
X158583428Y-71035380D01*
X158440571Y-70987761D01*
X158345333Y-70892523D01*
X158297714Y-70797285D01*
X158250095Y-70606809D01*
X158250095Y-70463952D01*
X158297714Y-70273476D01*
X158345333Y-70178238D01*
X158440571Y-70083000D01*
X158583428Y-70035380D01*
X158678666Y-70035380D01*
X158821523Y-70083000D01*
X158869142Y-70130619D01*
X159821523Y-71035380D02*
X159250095Y-71035380D01*
X159535809Y-71035380D02*
X159535809Y-70035380D01*
X159440571Y-70178238D01*
X159345333Y-70273476D01*
X159250095Y-70321095D01*
X160297714Y-71035380D02*
X160488190Y-71035380D01*
X160583428Y-70987761D01*
X160631047Y-70940142D01*
X160726285Y-70797285D01*
X160773904Y-70606809D01*
X160773904Y-70225857D01*
X160726285Y-70130619D01*
X160678666Y-70083000D01*
X160583428Y-70035380D01*
X160392952Y-70035380D01*
X160297714Y-70083000D01*
X160250095Y-70130619D01*
X160202476Y-70225857D01*
X160202476Y-70463952D01*
X160250095Y-70559190D01*
X160297714Y-70606809D01*
X160392952Y-70654428D01*
X160583428Y-70654428D01*
X160678666Y-70606809D01*
X160726285Y-70559190D01*
X160773904Y-70463952D01*
%TO.C,C18*%
X155490942Y-80646542D02*
X155443323Y-80694161D01*
X155300466Y-80741780D01*
X155205228Y-80741780D01*
X155062371Y-80694161D01*
X154967133Y-80598923D01*
X154919514Y-80503685D01*
X154871895Y-80313209D01*
X154871895Y-80170352D01*
X154919514Y-79979876D01*
X154967133Y-79884638D01*
X155062371Y-79789400D01*
X155205228Y-79741780D01*
X155300466Y-79741780D01*
X155443323Y-79789400D01*
X155490942Y-79837019D01*
X156443323Y-80741780D02*
X155871895Y-80741780D01*
X156157609Y-80741780D02*
X156157609Y-79741780D01*
X156062371Y-79884638D01*
X155967133Y-79979876D01*
X155871895Y-80027495D01*
X157014752Y-80170352D02*
X156919514Y-80122733D01*
X156871895Y-80075114D01*
X156824276Y-79979876D01*
X156824276Y-79932257D01*
X156871895Y-79837019D01*
X156919514Y-79789400D01*
X157014752Y-79741780D01*
X157205228Y-79741780D01*
X157300466Y-79789400D01*
X157348085Y-79837019D01*
X157395704Y-79932257D01*
X157395704Y-79979876D01*
X157348085Y-80075114D01*
X157300466Y-80122733D01*
X157205228Y-80170352D01*
X157014752Y-80170352D01*
X156919514Y-80217971D01*
X156871895Y-80265590D01*
X156824276Y-80360828D01*
X156824276Y-80551304D01*
X156871895Y-80646542D01*
X156919514Y-80694161D01*
X157014752Y-80741780D01*
X157205228Y-80741780D01*
X157300466Y-80694161D01*
X157348085Y-80646542D01*
X157395704Y-80551304D01*
X157395704Y-80360828D01*
X157348085Y-80265590D01*
X157300466Y-80217971D01*
X157205228Y-80170352D01*
%TO.C,C17*%
X158763642Y-73759542D02*
X158716023Y-73807161D01*
X158573166Y-73854780D01*
X158477928Y-73854780D01*
X158335071Y-73807161D01*
X158239833Y-73711923D01*
X158192214Y-73616685D01*
X158144595Y-73426209D01*
X158144595Y-73283352D01*
X158192214Y-73092876D01*
X158239833Y-72997638D01*
X158335071Y-72902400D01*
X158477928Y-72854780D01*
X158573166Y-72854780D01*
X158716023Y-72902400D01*
X158763642Y-72950019D01*
X159716023Y-73854780D02*
X159144595Y-73854780D01*
X159430309Y-73854780D02*
X159430309Y-72854780D01*
X159335071Y-72997638D01*
X159239833Y-73092876D01*
X159144595Y-73140495D01*
X160049357Y-72854780D02*
X160716023Y-72854780D01*
X160287452Y-73854780D01*
%TO.C,C8*%
X148423333Y-80240142D02*
X148375714Y-80287761D01*
X148232857Y-80335380D01*
X148137619Y-80335380D01*
X147994761Y-80287761D01*
X147899523Y-80192523D01*
X147851904Y-80097285D01*
X147804285Y-79906809D01*
X147804285Y-79763952D01*
X147851904Y-79573476D01*
X147899523Y-79478238D01*
X147994761Y-79383000D01*
X148137619Y-79335380D01*
X148232857Y-79335380D01*
X148375714Y-79383000D01*
X148423333Y-79430619D01*
X148994761Y-79763952D02*
X148899523Y-79716333D01*
X148851904Y-79668714D01*
X148804285Y-79573476D01*
X148804285Y-79525857D01*
X148851904Y-79430619D01*
X148899523Y-79383000D01*
X148994761Y-79335380D01*
X149185238Y-79335380D01*
X149280476Y-79383000D01*
X149328095Y-79430619D01*
X149375714Y-79525857D01*
X149375714Y-79573476D01*
X149328095Y-79668714D01*
X149280476Y-79716333D01*
X149185238Y-79763952D01*
X148994761Y-79763952D01*
X148899523Y-79811571D01*
X148851904Y-79859190D01*
X148804285Y-79954428D01*
X148804285Y-80144904D01*
X148851904Y-80240142D01*
X148899523Y-80287761D01*
X148994761Y-80335380D01*
X149185238Y-80335380D01*
X149280476Y-80287761D01*
X149328095Y-80240142D01*
X149375714Y-80144904D01*
X149375714Y-79954428D01*
X149328095Y-79859190D01*
X149280476Y-79811571D01*
X149185238Y-79763952D01*
%TO.C,C2*%
X146057686Y-91683389D02*
X146057686Y-91750732D01*
X145990342Y-91885419D01*
X145922999Y-91952763D01*
X145788311Y-92020106D01*
X145653624Y-92020106D01*
X145552609Y-91986435D01*
X145384250Y-91885419D01*
X145283235Y-91784404D01*
X145182220Y-91616045D01*
X145148548Y-91515030D01*
X145148548Y-91380343D01*
X145215892Y-91245656D01*
X145283235Y-91178312D01*
X145417922Y-91110969D01*
X145485266Y-91110969D01*
X145754640Y-90841595D02*
X145754640Y-90774251D01*
X145788311Y-90673236D01*
X145956670Y-90504877D01*
X146057686Y-90471206D01*
X146125029Y-90471206D01*
X146226044Y-90504877D01*
X146293388Y-90572221D01*
X146360731Y-90706908D01*
X146360731Y-91515030D01*
X146798464Y-91077297D01*
%TO.C,C1*%
X155871627Y-90519580D02*
X155871627Y-90586923D01*
X155804283Y-90721610D01*
X155736940Y-90788954D01*
X155602252Y-90856297D01*
X155467565Y-90856297D01*
X155366550Y-90822626D01*
X155198191Y-90721610D01*
X155097176Y-90620595D01*
X154996161Y-90452236D01*
X154962489Y-90351221D01*
X154962489Y-90216534D01*
X155029833Y-90081847D01*
X155097176Y-90014503D01*
X155231863Y-89947160D01*
X155299207Y-89947160D01*
X156612405Y-89913488D02*
X156208344Y-90317549D01*
X156410375Y-90115519D02*
X155703268Y-89408412D01*
X155736940Y-89576771D01*
X155736940Y-89711458D01*
X155703268Y-89812473D01*
%TO.C,AE1*%
X156728066Y-96926866D02*
X156728066Y-96450676D01*
X157013780Y-97022104D02*
X156013780Y-96688771D01*
X157013780Y-96355438D01*
X156489971Y-96022104D02*
X156489971Y-95688771D01*
X157013780Y-95545914D02*
X157013780Y-96022104D01*
X156013780Y-96022104D01*
X156013780Y-95545914D01*
X157013780Y-94593533D02*
X157013780Y-95164961D01*
X157013780Y-94879247D02*
X156013780Y-94879247D01*
X156156638Y-94974485D01*
X156251876Y-95069723D01*
X156299495Y-95164961D01*
%TD*%
M02*
