%TF.GenerationSoftware,KiCad,Pcbnew,(6.0.2)*%
%TF.CreationDate,2022-04-11T01:59:28-07:00*%
%TF.ProjectId,schematic,73636865-6d61-4746-9963-2e6b69636164,rev?*%
%TF.SameCoordinates,Original*%
%TF.FileFunction,Legend,Top*%
%TF.FilePolarity,Positive*%
%FSLAX46Y46*%
G04 Gerber Fmt 4.6, Leading zero omitted, Abs format (unit mm)*
G04 Created by KiCad (PCBNEW (6.0.2)) date 2022-04-11 01:59:28*
%MOMM*%
%LPD*%
G01*
G04 APERTURE LIST*
%ADD10C,0.300000*%
%ADD11C,0.150000*%
%ADD12C,0.120000*%
G04 APERTURE END LIST*
D10*
X184283695Y-115941361D02*
X184283695Y-113941361D01*
X184759885Y-113941361D01*
X185045600Y-114036600D01*
X185236076Y-114227076D01*
X185331314Y-114417552D01*
X185426552Y-114798504D01*
X185426552Y-115084219D01*
X185331314Y-115465171D01*
X185236076Y-115655647D01*
X185045600Y-115846123D01*
X184759885Y-115941361D01*
X184283695Y-115941361D01*
X186283695Y-115941361D02*
X186283695Y-113941361D01*
X188378933Y-115941361D02*
X187712266Y-114988980D01*
X187236076Y-115941361D02*
X187236076Y-113941361D01*
X187997980Y-113941361D01*
X188188457Y-114036600D01*
X188283695Y-114131838D01*
X188378933Y-114322314D01*
X188378933Y-114608028D01*
X188283695Y-114798504D01*
X188188457Y-114893742D01*
X187997980Y-114988980D01*
X187236076Y-114988980D01*
X188950361Y-113941361D02*
X190093219Y-113941361D01*
X189521790Y-115941361D02*
X189521790Y-113941361D01*
X186626809Y-94027761D02*
X187864904Y-94027761D01*
X187198238Y-94789666D01*
X187483952Y-94789666D01*
X187674428Y-94884904D01*
X187769666Y-94980142D01*
X187864904Y-95170619D01*
X187864904Y-95646809D01*
X187769666Y-95837285D01*
X187674428Y-95932523D01*
X187483952Y-96027761D01*
X186912523Y-96027761D01*
X186722047Y-95932523D01*
X186626809Y-95837285D01*
X188436333Y-94027761D02*
X189103000Y-96027761D01*
X189769666Y-94027761D01*
X190245857Y-94027761D02*
X191483952Y-94027761D01*
X190817285Y-94789666D01*
X191103000Y-94789666D01*
X191293476Y-94884904D01*
X191388714Y-94980142D01*
X191483952Y-95170619D01*
X191483952Y-95646809D01*
X191388714Y-95837285D01*
X191293476Y-95932523D01*
X191103000Y-96027761D01*
X190531571Y-96027761D01*
X190341095Y-95932523D01*
X190245857Y-95837285D01*
X186096733Y-80692761D02*
X186763400Y-82692761D01*
X187430066Y-80692761D01*
X188763400Y-81645142D02*
X189049114Y-81740380D01*
X189144352Y-81835619D01*
X189239590Y-82026095D01*
X189239590Y-82311809D01*
X189144352Y-82502285D01*
X189049114Y-82597523D01*
X188858638Y-82692761D01*
X188096733Y-82692761D01*
X188096733Y-80692761D01*
X188763400Y-80692761D01*
X188953876Y-80788000D01*
X189049114Y-80883238D01*
X189144352Y-81073714D01*
X189144352Y-81264190D01*
X189049114Y-81454666D01*
X188953876Y-81549904D01*
X188763400Y-81645142D01*
X188096733Y-81645142D01*
X190096733Y-80692761D02*
X190096733Y-82311809D01*
X190191971Y-82502285D01*
X190287209Y-82597523D01*
X190477685Y-82692761D01*
X190858638Y-82692761D01*
X191049114Y-82597523D01*
X191144352Y-82502285D01*
X191239590Y-82311809D01*
X191239590Y-80692761D01*
X192096733Y-82597523D02*
X192382447Y-82692761D01*
X192858638Y-82692761D01*
X193049114Y-82597523D01*
X193144352Y-82502285D01*
X193239590Y-82311809D01*
X193239590Y-82121333D01*
X193144352Y-81930857D01*
X193049114Y-81835619D01*
X192858638Y-81740380D01*
X192477685Y-81645142D01*
X192287209Y-81549904D01*
X192191971Y-81454666D01*
X192096733Y-81264190D01*
X192096733Y-81073714D01*
X192191971Y-80883238D01*
X192287209Y-80788000D01*
X192477685Y-80692761D01*
X192953876Y-80692761D01*
X193239590Y-80788000D01*
X175797628Y-48986961D02*
X175797628Y-46986961D01*
X176559533Y-46986961D01*
X176750009Y-47082200D01*
X176845247Y-47177438D01*
X176940485Y-47367914D01*
X176940485Y-47653628D01*
X176845247Y-47844104D01*
X176750009Y-47939342D01*
X176559533Y-48034580D01*
X175797628Y-48034580D01*
X177607152Y-46986961D02*
X178083342Y-48986961D01*
X178464295Y-47558390D01*
X178845247Y-48986961D01*
X179321438Y-46986961D01*
X181226200Y-48986961D02*
X180559533Y-48034580D01*
X180083342Y-48986961D02*
X180083342Y-46986961D01*
X180845247Y-46986961D01*
X181035723Y-47082200D01*
X181130961Y-47177438D01*
X181226200Y-47367914D01*
X181226200Y-47653628D01*
X181130961Y-47844104D01*
X181035723Y-47939342D01*
X180845247Y-48034580D01*
X180083342Y-48034580D01*
X181607152Y-49177438D02*
X183130961Y-49177438D01*
X183607152Y-46986961D02*
X183607152Y-48606009D01*
X183702390Y-48796485D01*
X183797628Y-48891723D01*
X183988104Y-48986961D01*
X184369057Y-48986961D01*
X184559533Y-48891723D01*
X184654771Y-48796485D01*
X184750009Y-48606009D01*
X184750009Y-46986961D01*
X185702390Y-48986961D02*
X185702390Y-46986961D01*
X186845247Y-48986961D01*
X186845247Y-46986961D01*
X188940485Y-48986961D02*
X188273819Y-48034580D01*
X187797628Y-48986961D02*
X187797628Y-46986961D01*
X188559533Y-46986961D01*
X188750009Y-47082200D01*
X188845247Y-47177438D01*
X188940485Y-47367914D01*
X188940485Y-47653628D01*
X188845247Y-47844104D01*
X188750009Y-47939342D01*
X188559533Y-48034580D01*
X187797628Y-48034580D01*
X189797628Y-47939342D02*
X190464295Y-47939342D01*
X190750009Y-48986961D02*
X189797628Y-48986961D01*
X189797628Y-46986961D01*
X190750009Y-46986961D01*
X192654771Y-47082200D02*
X192464295Y-46986961D01*
X192178580Y-46986961D01*
X191892866Y-47082200D01*
X191702390Y-47272676D01*
X191607152Y-47463152D01*
X191511914Y-47844104D01*
X191511914Y-48129819D01*
X191607152Y-48510771D01*
X191702390Y-48701247D01*
X191892866Y-48891723D01*
X192178580Y-48986961D01*
X192369057Y-48986961D01*
X192654771Y-48891723D01*
X192750009Y-48796485D01*
X192750009Y-48129819D01*
X192369057Y-48129819D01*
X188417247Y-66392561D02*
X187464866Y-66392561D01*
X187369628Y-67344942D01*
X187464866Y-67249704D01*
X187655342Y-67154466D01*
X188131533Y-67154466D01*
X188322009Y-67249704D01*
X188417247Y-67344942D01*
X188512485Y-67535419D01*
X188512485Y-68011609D01*
X188417247Y-68202085D01*
X188322009Y-68297323D01*
X188131533Y-68392561D01*
X187655342Y-68392561D01*
X187464866Y-68297323D01*
X187369628Y-68202085D01*
X189083914Y-66392561D02*
X189750580Y-68392561D01*
X190417247Y-66392561D01*
D11*
%TO.C,J8*%
X166519066Y-116787180D02*
X166519066Y-117501466D01*
X166471447Y-117644323D01*
X166376209Y-117739561D01*
X166233352Y-117787180D01*
X166138114Y-117787180D01*
X167138114Y-117215752D02*
X167042876Y-117168133D01*
X166995257Y-117120514D01*
X166947638Y-117025276D01*
X166947638Y-116977657D01*
X166995257Y-116882419D01*
X167042876Y-116834800D01*
X167138114Y-116787180D01*
X167328590Y-116787180D01*
X167423828Y-116834800D01*
X167471447Y-116882419D01*
X167519066Y-116977657D01*
X167519066Y-117025276D01*
X167471447Y-117120514D01*
X167423828Y-117168133D01*
X167328590Y-117215752D01*
X167138114Y-117215752D01*
X167042876Y-117263371D01*
X166995257Y-117310990D01*
X166947638Y-117406228D01*
X166947638Y-117596704D01*
X166995257Y-117691942D01*
X167042876Y-117739561D01*
X167138114Y-117787180D01*
X167328590Y-117787180D01*
X167423828Y-117739561D01*
X167471447Y-117691942D01*
X167519066Y-117596704D01*
X167519066Y-117406228D01*
X167471447Y-117310990D01*
X167423828Y-117263371D01*
X167328590Y-117215752D01*
%TO.C,J7*%
X167807266Y-84275180D02*
X167807266Y-84989466D01*
X167759647Y-85132323D01*
X167664409Y-85227561D01*
X167521552Y-85275180D01*
X167426314Y-85275180D01*
X168188219Y-84275180D02*
X168854885Y-84275180D01*
X168426314Y-85275180D01*
%TO.C,J6*%
X167173266Y-98168980D02*
X167173266Y-98883266D01*
X167125647Y-99026123D01*
X167030409Y-99121361D01*
X166887552Y-99168980D01*
X166792314Y-99168980D01*
X168078028Y-98168980D02*
X167887552Y-98168980D01*
X167792314Y-98216600D01*
X167744695Y-98264219D01*
X167649457Y-98407076D01*
X167601838Y-98597552D01*
X167601838Y-98978504D01*
X167649457Y-99073742D01*
X167697076Y-99121361D01*
X167792314Y-99168980D01*
X167982790Y-99168980D01*
X168078028Y-99121361D01*
X168125647Y-99073742D01*
X168173266Y-98978504D01*
X168173266Y-98740409D01*
X168125647Y-98645171D01*
X168078028Y-98597552D01*
X167982790Y-98549933D01*
X167792314Y-98549933D01*
X167697076Y-98597552D01*
X167649457Y-98645171D01*
X167601838Y-98740409D01*
%TO.C,J5*%
X169458266Y-71219580D02*
X169458266Y-71933866D01*
X169410647Y-72076723D01*
X169315409Y-72171961D01*
X169172552Y-72219580D01*
X169077314Y-72219580D01*
X170410647Y-71219580D02*
X169934457Y-71219580D01*
X169886838Y-71695771D01*
X169934457Y-71648152D01*
X170029695Y-71600533D01*
X170267790Y-71600533D01*
X170363028Y-71648152D01*
X170410647Y-71695771D01*
X170458266Y-71791009D01*
X170458266Y-72029104D01*
X170410647Y-72124342D01*
X170363028Y-72171961D01*
X170267790Y-72219580D01*
X170029695Y-72219580D01*
X169934457Y-72171961D01*
X169886838Y-72124342D01*
%TO.C,J3*%
X169617866Y-58900580D02*
X169617866Y-59614866D01*
X169570247Y-59757723D01*
X169475009Y-59852961D01*
X169332152Y-59900580D01*
X169236914Y-59900580D01*
X169998819Y-58900580D02*
X170617866Y-58900580D01*
X170284533Y-59281533D01*
X170427390Y-59281533D01*
X170522628Y-59329152D01*
X170570247Y-59376771D01*
X170617866Y-59472009D01*
X170617866Y-59710104D01*
X170570247Y-59805342D01*
X170522628Y-59852961D01*
X170427390Y-59900580D01*
X170141676Y-59900580D01*
X170046438Y-59852961D01*
X169998819Y-59805342D01*
%TO.C,R39*%
X143291380Y-87440857D02*
X142815190Y-87774190D01*
X143291380Y-88012285D02*
X142291380Y-88012285D01*
X142291380Y-87631333D01*
X142339000Y-87536095D01*
X142386619Y-87488476D01*
X142481857Y-87440857D01*
X142624714Y-87440857D01*
X142719952Y-87488476D01*
X142767571Y-87536095D01*
X142815190Y-87631333D01*
X142815190Y-88012285D01*
X142291380Y-87107523D02*
X142291380Y-86488476D01*
X142672333Y-86821809D01*
X142672333Y-86678952D01*
X142719952Y-86583714D01*
X142767571Y-86536095D01*
X142862809Y-86488476D01*
X143100904Y-86488476D01*
X143196142Y-86536095D01*
X143243761Y-86583714D01*
X143291380Y-86678952D01*
X143291380Y-86964666D01*
X143243761Y-87059904D01*
X143196142Y-87107523D01*
X143291380Y-86012285D02*
X143291380Y-85821809D01*
X143243761Y-85726571D01*
X143196142Y-85678952D01*
X143053285Y-85583714D01*
X142862809Y-85536095D01*
X142481857Y-85536095D01*
X142386619Y-85583714D01*
X142339000Y-85631333D01*
X142291380Y-85726571D01*
X142291380Y-85917047D01*
X142339000Y-86012285D01*
X142386619Y-86059904D01*
X142481857Y-86107523D01*
X142719952Y-86107523D01*
X142815190Y-86059904D01*
X142862809Y-86012285D01*
X142910428Y-85917047D01*
X142910428Y-85726571D01*
X142862809Y-85631333D01*
X142815190Y-85583714D01*
X142719952Y-85536095D01*
%TO.C,L1*%
X126310380Y-112138866D02*
X126310380Y-112615057D01*
X125310380Y-112615057D01*
X126310380Y-111281723D02*
X126310380Y-111853152D01*
X126310380Y-111567438D02*
X125310380Y-111567438D01*
X125453238Y-111662676D01*
X125548476Y-111757914D01*
X125596095Y-111853152D01*
%TO.C,R26*%
X120612380Y-77053257D02*
X120136190Y-77386590D01*
X120612380Y-77624685D02*
X119612380Y-77624685D01*
X119612380Y-77243733D01*
X119660000Y-77148495D01*
X119707619Y-77100876D01*
X119802857Y-77053257D01*
X119945714Y-77053257D01*
X120040952Y-77100876D01*
X120088571Y-77148495D01*
X120136190Y-77243733D01*
X120136190Y-77624685D01*
X119707619Y-76672304D02*
X119660000Y-76624685D01*
X119612380Y-76529447D01*
X119612380Y-76291352D01*
X119660000Y-76196114D01*
X119707619Y-76148495D01*
X119802857Y-76100876D01*
X119898095Y-76100876D01*
X120040952Y-76148495D01*
X120612380Y-76719923D01*
X120612380Y-76100876D01*
X119612380Y-75243733D02*
X119612380Y-75434209D01*
X119660000Y-75529447D01*
X119707619Y-75577066D01*
X119850476Y-75672304D01*
X120040952Y-75719923D01*
X120421904Y-75719923D01*
X120517142Y-75672304D01*
X120564761Y-75624685D01*
X120612380Y-75529447D01*
X120612380Y-75338971D01*
X120564761Y-75243733D01*
X120517142Y-75196114D01*
X120421904Y-75148495D01*
X120183809Y-75148495D01*
X120088571Y-75196114D01*
X120040952Y-75243733D01*
X119993333Y-75338971D01*
X119993333Y-75529447D01*
X120040952Y-75624685D01*
X120088571Y-75672304D01*
X120183809Y-75719923D01*
%TO.C,L2*%
X144966380Y-54436666D02*
X144966380Y-54912857D01*
X143966380Y-54912857D01*
X144061619Y-54150952D02*
X144014000Y-54103333D01*
X143966380Y-54008095D01*
X143966380Y-53770000D01*
X144014000Y-53674761D01*
X144061619Y-53627142D01*
X144156857Y-53579523D01*
X144252095Y-53579523D01*
X144394952Y-53627142D01*
X144966380Y-54198571D01*
X144966380Y-53579523D01*
%TO.C,U16*%
X129364904Y-64366380D02*
X129364904Y-65175904D01*
X129412523Y-65271142D01*
X129460142Y-65318761D01*
X129555380Y-65366380D01*
X129745857Y-65366380D01*
X129841095Y-65318761D01*
X129888714Y-65271142D01*
X129936333Y-65175904D01*
X129936333Y-64366380D01*
X130936333Y-65366380D02*
X130364904Y-65366380D01*
X130650619Y-65366380D02*
X130650619Y-64366380D01*
X130555380Y-64509238D01*
X130460142Y-64604476D01*
X130364904Y-64652095D01*
X131793476Y-64366380D02*
X131603000Y-64366380D01*
X131507761Y-64414000D01*
X131460142Y-64461619D01*
X131364904Y-64604476D01*
X131317285Y-64794952D01*
X131317285Y-65175904D01*
X131364904Y-65271142D01*
X131412523Y-65318761D01*
X131507761Y-65366380D01*
X131698238Y-65366380D01*
X131793476Y-65318761D01*
X131841095Y-65271142D01*
X131888714Y-65175904D01*
X131888714Y-64937809D01*
X131841095Y-64842571D01*
X131793476Y-64794952D01*
X131698238Y-64747333D01*
X131507761Y-64747333D01*
X131412523Y-64794952D01*
X131364904Y-64842571D01*
X131317285Y-64937809D01*
%TO.C,U15*%
X97369380Y-82670495D02*
X98178904Y-82670495D01*
X98274142Y-82622876D01*
X98321761Y-82575257D01*
X98369380Y-82480019D01*
X98369380Y-82289542D01*
X98321761Y-82194304D01*
X98274142Y-82146685D01*
X98178904Y-82099066D01*
X97369380Y-82099066D01*
X98369380Y-81099066D02*
X98369380Y-81670495D01*
X98369380Y-81384780D02*
X97369380Y-81384780D01*
X97512238Y-81480019D01*
X97607476Y-81575257D01*
X97655095Y-81670495D01*
X97369380Y-80194304D02*
X97369380Y-80670495D01*
X97845571Y-80718114D01*
X97797952Y-80670495D01*
X97750333Y-80575257D01*
X97750333Y-80337161D01*
X97797952Y-80241923D01*
X97845571Y-80194304D01*
X97940809Y-80146685D01*
X98178904Y-80146685D01*
X98274142Y-80194304D01*
X98321761Y-80241923D01*
X98369380Y-80337161D01*
X98369380Y-80575257D01*
X98321761Y-80670495D01*
X98274142Y-80718114D01*
%TO.C,R10*%
X130626142Y-58368380D02*
X130292809Y-57892190D01*
X130054714Y-58368380D02*
X130054714Y-57368380D01*
X130435666Y-57368380D01*
X130530904Y-57416000D01*
X130578523Y-57463619D01*
X130626142Y-57558857D01*
X130626142Y-57701714D01*
X130578523Y-57796952D01*
X130530904Y-57844571D01*
X130435666Y-57892190D01*
X130054714Y-57892190D01*
X131578523Y-58368380D02*
X131007095Y-58368380D01*
X131292809Y-58368380D02*
X131292809Y-57368380D01*
X131197571Y-57511238D01*
X131102333Y-57606476D01*
X131007095Y-57654095D01*
X132197571Y-57368380D02*
X132292809Y-57368380D01*
X132388047Y-57416000D01*
X132435666Y-57463619D01*
X132483285Y-57558857D01*
X132530904Y-57749333D01*
X132530904Y-57987428D01*
X132483285Y-58177904D01*
X132435666Y-58273142D01*
X132388047Y-58320761D01*
X132292809Y-58368380D01*
X132197571Y-58368380D01*
X132102333Y-58320761D01*
X132054714Y-58273142D01*
X132007095Y-58177904D01*
X131959476Y-57987428D01*
X131959476Y-57749333D01*
X132007095Y-57558857D01*
X132054714Y-57463619D01*
X132102333Y-57416000D01*
X132197571Y-57368380D01*
%TO.C,R3*%
X134928333Y-58368380D02*
X134595000Y-57892190D01*
X134356904Y-58368380D02*
X134356904Y-57368380D01*
X134737857Y-57368380D01*
X134833095Y-57416000D01*
X134880714Y-57463619D01*
X134928333Y-57558857D01*
X134928333Y-57701714D01*
X134880714Y-57796952D01*
X134833095Y-57844571D01*
X134737857Y-57892190D01*
X134356904Y-57892190D01*
X135261666Y-57368380D02*
X135880714Y-57368380D01*
X135547380Y-57749333D01*
X135690238Y-57749333D01*
X135785476Y-57796952D01*
X135833095Y-57844571D01*
X135880714Y-57939809D01*
X135880714Y-58177904D01*
X135833095Y-58273142D01*
X135785476Y-58320761D01*
X135690238Y-58368380D01*
X135404523Y-58368380D01*
X135309285Y-58320761D01*
X135261666Y-58273142D01*
%TO.C,C3*%
X136239142Y-80101166D02*
X136286761Y-80148785D01*
X136334380Y-80291642D01*
X136334380Y-80386880D01*
X136286761Y-80529738D01*
X136191523Y-80624976D01*
X136096285Y-80672595D01*
X135905809Y-80720214D01*
X135762952Y-80720214D01*
X135572476Y-80672595D01*
X135477238Y-80624976D01*
X135382000Y-80529738D01*
X135334380Y-80386880D01*
X135334380Y-80291642D01*
X135382000Y-80148785D01*
X135429619Y-80101166D01*
X135334380Y-79767833D02*
X135334380Y-79148785D01*
X135715333Y-79482119D01*
X135715333Y-79339261D01*
X135762952Y-79244023D01*
X135810571Y-79196404D01*
X135905809Y-79148785D01*
X136143904Y-79148785D01*
X136239142Y-79196404D01*
X136286761Y-79244023D01*
X136334380Y-79339261D01*
X136334380Y-79624976D01*
X136286761Y-79720214D01*
X136239142Y-79767833D01*
%TO.C,R25*%
X124422380Y-80958257D02*
X123946190Y-81291590D01*
X124422380Y-81529685D02*
X123422380Y-81529685D01*
X123422380Y-81148733D01*
X123470000Y-81053495D01*
X123517619Y-81005876D01*
X123612857Y-80958257D01*
X123755714Y-80958257D01*
X123850952Y-81005876D01*
X123898571Y-81053495D01*
X123946190Y-81148733D01*
X123946190Y-81529685D01*
X123517619Y-80577304D02*
X123470000Y-80529685D01*
X123422380Y-80434447D01*
X123422380Y-80196352D01*
X123470000Y-80101114D01*
X123517619Y-80053495D01*
X123612857Y-80005876D01*
X123708095Y-80005876D01*
X123850952Y-80053495D01*
X124422380Y-80624923D01*
X124422380Y-80005876D01*
X123422380Y-79101114D02*
X123422380Y-79577304D01*
X123898571Y-79624923D01*
X123850952Y-79577304D01*
X123803333Y-79482066D01*
X123803333Y-79243971D01*
X123850952Y-79148733D01*
X123898571Y-79101114D01*
X123993809Y-79053495D01*
X124231904Y-79053495D01*
X124327142Y-79101114D01*
X124374761Y-79148733D01*
X124422380Y-79243971D01*
X124422380Y-79482066D01*
X124374761Y-79577304D01*
X124327142Y-79624923D01*
%TO.C,C2*%
X128353433Y-107744742D02*
X128305814Y-107792361D01*
X128162957Y-107839980D01*
X128067719Y-107839980D01*
X127924861Y-107792361D01*
X127829623Y-107697123D01*
X127782004Y-107601885D01*
X127734385Y-107411409D01*
X127734385Y-107268552D01*
X127782004Y-107078076D01*
X127829623Y-106982838D01*
X127924861Y-106887600D01*
X128067719Y-106839980D01*
X128162957Y-106839980D01*
X128305814Y-106887600D01*
X128353433Y-106935219D01*
X128734385Y-106935219D02*
X128782004Y-106887600D01*
X128877242Y-106839980D01*
X129115338Y-106839980D01*
X129210576Y-106887600D01*
X129258195Y-106935219D01*
X129305814Y-107030457D01*
X129305814Y-107125695D01*
X129258195Y-107268552D01*
X128686766Y-107839980D01*
X129305814Y-107839980D01*
%TO.C,C1*%
X128378833Y-113561342D02*
X128331214Y-113608961D01*
X128188357Y-113656580D01*
X128093119Y-113656580D01*
X127950261Y-113608961D01*
X127855023Y-113513723D01*
X127807404Y-113418485D01*
X127759785Y-113228009D01*
X127759785Y-113085152D01*
X127807404Y-112894676D01*
X127855023Y-112799438D01*
X127950261Y-112704200D01*
X128093119Y-112656580D01*
X128188357Y-112656580D01*
X128331214Y-112704200D01*
X128378833Y-112751819D01*
X129331214Y-113656580D02*
X128759785Y-113656580D01*
X129045500Y-113656580D02*
X129045500Y-112656580D01*
X128950261Y-112799438D01*
X128855023Y-112894676D01*
X128759785Y-112942295D01*
%TO.C,SW1*%
X117663361Y-48887533D02*
X117710980Y-48744676D01*
X117710980Y-48506580D01*
X117663361Y-48411342D01*
X117615742Y-48363723D01*
X117520504Y-48316104D01*
X117425266Y-48316104D01*
X117330028Y-48363723D01*
X117282409Y-48411342D01*
X117234790Y-48506580D01*
X117187171Y-48697057D01*
X117139552Y-48792295D01*
X117091933Y-48839914D01*
X116996695Y-48887533D01*
X116901457Y-48887533D01*
X116806219Y-48839914D01*
X116758600Y-48792295D01*
X116710980Y-48697057D01*
X116710980Y-48458961D01*
X116758600Y-48316104D01*
X116710980Y-47982771D02*
X117710980Y-47744676D01*
X116996695Y-47554200D01*
X117710980Y-47363723D01*
X116710980Y-47125628D01*
X117710980Y-46220866D02*
X117710980Y-46792295D01*
X117710980Y-46506580D02*
X116710980Y-46506580D01*
X116853838Y-46601819D01*
X116949076Y-46697057D01*
X116996695Y-46792295D01*
%TO.C,R17*%
X121127742Y-50558780D02*
X120794409Y-50082590D01*
X120556314Y-50558780D02*
X120556314Y-49558780D01*
X120937266Y-49558780D01*
X121032504Y-49606400D01*
X121080123Y-49654019D01*
X121127742Y-49749257D01*
X121127742Y-49892114D01*
X121080123Y-49987352D01*
X121032504Y-50034971D01*
X120937266Y-50082590D01*
X120556314Y-50082590D01*
X122080123Y-50558780D02*
X121508695Y-50558780D01*
X121794409Y-50558780D02*
X121794409Y-49558780D01*
X121699171Y-49701638D01*
X121603933Y-49796876D01*
X121508695Y-49844495D01*
X122413457Y-49558780D02*
X123080123Y-49558780D01*
X122651552Y-50558780D01*
%TO.C,BT2*%
X99715685Y-56238371D02*
X99858542Y-56285990D01*
X99906161Y-56333609D01*
X99953780Y-56428847D01*
X99953780Y-56571704D01*
X99906161Y-56666942D01*
X99858542Y-56714561D01*
X99763304Y-56762180D01*
X99382352Y-56762180D01*
X99382352Y-55762180D01*
X99715685Y-55762180D01*
X99810923Y-55809800D01*
X99858542Y-55857419D01*
X99906161Y-55952657D01*
X99906161Y-56047895D01*
X99858542Y-56143133D01*
X99810923Y-56190752D01*
X99715685Y-56238371D01*
X99382352Y-56238371D01*
X100239495Y-55762180D02*
X100810923Y-55762180D01*
X100525209Y-56762180D02*
X100525209Y-55762180D01*
X101096638Y-55857419D02*
X101144257Y-55809800D01*
X101239495Y-55762180D01*
X101477590Y-55762180D01*
X101572828Y-55809800D01*
X101620447Y-55857419D01*
X101668066Y-55952657D01*
X101668066Y-56047895D01*
X101620447Y-56190752D01*
X101049019Y-56762180D01*
X101668066Y-56762180D01*
%TO.C,R20*%
X146645142Y-134436380D02*
X146311809Y-133960190D01*
X146073714Y-134436380D02*
X146073714Y-133436380D01*
X146454666Y-133436380D01*
X146549904Y-133484000D01*
X146597523Y-133531619D01*
X146645142Y-133626857D01*
X146645142Y-133769714D01*
X146597523Y-133864952D01*
X146549904Y-133912571D01*
X146454666Y-133960190D01*
X146073714Y-133960190D01*
X147026095Y-133531619D02*
X147073714Y-133484000D01*
X147168952Y-133436380D01*
X147407047Y-133436380D01*
X147502285Y-133484000D01*
X147549904Y-133531619D01*
X147597523Y-133626857D01*
X147597523Y-133722095D01*
X147549904Y-133864952D01*
X146978476Y-134436380D01*
X147597523Y-134436380D01*
X148216571Y-133436380D02*
X148311809Y-133436380D01*
X148407047Y-133484000D01*
X148454666Y-133531619D01*
X148502285Y-133626857D01*
X148549904Y-133817333D01*
X148549904Y-134055428D01*
X148502285Y-134245904D01*
X148454666Y-134341142D01*
X148407047Y-134388761D01*
X148311809Y-134436380D01*
X148216571Y-134436380D01*
X148121333Y-134388761D01*
X148073714Y-134341142D01*
X148026095Y-134245904D01*
X147978476Y-134055428D01*
X147978476Y-133817333D01*
X148026095Y-133626857D01*
X148073714Y-133531619D01*
X148121333Y-133484000D01*
X148216571Y-133436380D01*
%TO.C,R2*%
X134262333Y-67573380D02*
X133929000Y-67097190D01*
X133690904Y-67573380D02*
X133690904Y-66573380D01*
X134071857Y-66573380D01*
X134167095Y-66621000D01*
X134214714Y-66668619D01*
X134262333Y-66763857D01*
X134262333Y-66906714D01*
X134214714Y-67001952D01*
X134167095Y-67049571D01*
X134071857Y-67097190D01*
X133690904Y-67097190D01*
X134643285Y-66668619D02*
X134690904Y-66621000D01*
X134786142Y-66573380D01*
X135024238Y-66573380D01*
X135119476Y-66621000D01*
X135167095Y-66668619D01*
X135214714Y-66763857D01*
X135214714Y-66859095D01*
X135167095Y-67001952D01*
X134595666Y-67573380D01*
X135214714Y-67573380D01*
%TO.C,J2*%
X104975066Y-86015580D02*
X104975066Y-86729866D01*
X104927447Y-86872723D01*
X104832209Y-86967961D01*
X104689352Y-87015580D01*
X104594114Y-87015580D01*
X105403638Y-86110819D02*
X105451257Y-86063200D01*
X105546495Y-86015580D01*
X105784590Y-86015580D01*
X105879828Y-86063200D01*
X105927447Y-86110819D01*
X105975066Y-86206057D01*
X105975066Y-86301295D01*
X105927447Y-86444152D01*
X105356019Y-87015580D01*
X105975066Y-87015580D01*
%TO.C,R18*%
X120873742Y-58178780D02*
X120540409Y-57702590D01*
X120302314Y-58178780D02*
X120302314Y-57178780D01*
X120683266Y-57178780D01*
X120778504Y-57226400D01*
X120826123Y-57274019D01*
X120873742Y-57369257D01*
X120873742Y-57512114D01*
X120826123Y-57607352D01*
X120778504Y-57654971D01*
X120683266Y-57702590D01*
X120302314Y-57702590D01*
X121826123Y-58178780D02*
X121254695Y-58178780D01*
X121540409Y-58178780D02*
X121540409Y-57178780D01*
X121445171Y-57321638D01*
X121349933Y-57416876D01*
X121254695Y-57464495D01*
X122397552Y-57607352D02*
X122302314Y-57559733D01*
X122254695Y-57512114D01*
X122207076Y-57416876D01*
X122207076Y-57369257D01*
X122254695Y-57274019D01*
X122302314Y-57226400D01*
X122397552Y-57178780D01*
X122588028Y-57178780D01*
X122683266Y-57226400D01*
X122730885Y-57274019D01*
X122778504Y-57369257D01*
X122778504Y-57416876D01*
X122730885Y-57512114D01*
X122683266Y-57559733D01*
X122588028Y-57607352D01*
X122397552Y-57607352D01*
X122302314Y-57654971D01*
X122254695Y-57702590D01*
X122207076Y-57797828D01*
X122207076Y-57988304D01*
X122254695Y-58083542D01*
X122302314Y-58131161D01*
X122397552Y-58178780D01*
X122588028Y-58178780D01*
X122683266Y-58131161D01*
X122730885Y-58083542D01*
X122778504Y-57988304D01*
X122778504Y-57797828D01*
X122730885Y-57702590D01*
X122683266Y-57654971D01*
X122588028Y-57607352D01*
%TO.C,R40*%
X144719142Y-82695380D02*
X144385809Y-82219190D01*
X144147714Y-82695380D02*
X144147714Y-81695380D01*
X144528666Y-81695380D01*
X144623904Y-81743000D01*
X144671523Y-81790619D01*
X144719142Y-81885857D01*
X144719142Y-82028714D01*
X144671523Y-82123952D01*
X144623904Y-82171571D01*
X144528666Y-82219190D01*
X144147714Y-82219190D01*
X145576285Y-82028714D02*
X145576285Y-82695380D01*
X145338190Y-81647761D02*
X145100095Y-82362047D01*
X145719142Y-82362047D01*
X146290571Y-81695380D02*
X146385809Y-81695380D01*
X146481047Y-81743000D01*
X146528666Y-81790619D01*
X146576285Y-81885857D01*
X146623904Y-82076333D01*
X146623904Y-82314428D01*
X146576285Y-82504904D01*
X146528666Y-82600142D01*
X146481047Y-82647761D01*
X146385809Y-82695380D01*
X146290571Y-82695380D01*
X146195333Y-82647761D01*
X146147714Y-82600142D01*
X146100095Y-82504904D01*
X146052476Y-82314428D01*
X146052476Y-82076333D01*
X146100095Y-81885857D01*
X146147714Y-81790619D01*
X146195333Y-81743000D01*
X146290571Y-81695380D01*
%TO.C,Y1*%
X138752809Y-75324190D02*
X138752809Y-75800380D01*
X138419476Y-74800380D02*
X138752809Y-75324190D01*
X139086142Y-74800380D01*
X139943285Y-75800380D02*
X139371857Y-75800380D01*
X139657571Y-75800380D02*
X139657571Y-74800380D01*
X139562333Y-74943238D01*
X139467095Y-75038476D01*
X139371857Y-75086095D01*
%TO.C,BT3*%
X99944285Y-63705971D02*
X100087142Y-63753590D01*
X100134761Y-63801209D01*
X100182380Y-63896447D01*
X100182380Y-64039304D01*
X100134761Y-64134542D01*
X100087142Y-64182161D01*
X99991904Y-64229780D01*
X99610952Y-64229780D01*
X99610952Y-63229780D01*
X99944285Y-63229780D01*
X100039523Y-63277400D01*
X100087142Y-63325019D01*
X100134761Y-63420257D01*
X100134761Y-63515495D01*
X100087142Y-63610733D01*
X100039523Y-63658352D01*
X99944285Y-63705971D01*
X99610952Y-63705971D01*
X100468095Y-63229780D02*
X101039523Y-63229780D01*
X100753809Y-64229780D02*
X100753809Y-63229780D01*
X101277619Y-63229780D02*
X101896666Y-63229780D01*
X101563333Y-63610733D01*
X101706190Y-63610733D01*
X101801428Y-63658352D01*
X101849047Y-63705971D01*
X101896666Y-63801209D01*
X101896666Y-64039304D01*
X101849047Y-64134542D01*
X101801428Y-64182161D01*
X101706190Y-64229780D01*
X101420476Y-64229780D01*
X101325238Y-64182161D01*
X101277619Y-64134542D01*
%TO.C,AE1*%
X129524666Y-119532866D02*
X129524666Y-119056676D01*
X129810380Y-119628104D02*
X128810380Y-119294771D01*
X129810380Y-118961438D01*
X129286571Y-118628104D02*
X129286571Y-118294771D01*
X129810380Y-118151914D02*
X129810380Y-118628104D01*
X128810380Y-118628104D01*
X128810380Y-118151914D01*
X129810380Y-117199533D02*
X129810380Y-117770961D01*
X129810380Y-117485247D02*
X128810380Y-117485247D01*
X128953238Y-117580485D01*
X129048476Y-117675723D01*
X129096095Y-117770961D01*
%TO.C,R19*%
X121102342Y-66459180D02*
X120769009Y-65982990D01*
X120530914Y-66459180D02*
X120530914Y-65459180D01*
X120911866Y-65459180D01*
X121007104Y-65506800D01*
X121054723Y-65554419D01*
X121102342Y-65649657D01*
X121102342Y-65792514D01*
X121054723Y-65887752D01*
X121007104Y-65935371D01*
X120911866Y-65982990D01*
X120530914Y-65982990D01*
X122054723Y-66459180D02*
X121483295Y-66459180D01*
X121769009Y-66459180D02*
X121769009Y-65459180D01*
X121673771Y-65602038D01*
X121578533Y-65697276D01*
X121483295Y-65744895D01*
X122530914Y-66459180D02*
X122721390Y-66459180D01*
X122816628Y-66411561D01*
X122864247Y-66363942D01*
X122959485Y-66221085D01*
X123007104Y-66030609D01*
X123007104Y-65649657D01*
X122959485Y-65554419D01*
X122911866Y-65506800D01*
X122816628Y-65459180D01*
X122626152Y-65459180D01*
X122530914Y-65506800D01*
X122483295Y-65554419D01*
X122435676Y-65649657D01*
X122435676Y-65887752D01*
X122483295Y-65982990D01*
X122530914Y-66030609D01*
X122626152Y-66078228D01*
X122816628Y-66078228D01*
X122911866Y-66030609D01*
X122959485Y-65982990D01*
X123007104Y-65887752D01*
%TO.C,U17*%
X118446704Y-86040980D02*
X118446704Y-86850504D01*
X118494323Y-86945742D01*
X118541942Y-86993361D01*
X118637180Y-87040980D01*
X118827657Y-87040980D01*
X118922895Y-86993361D01*
X118970514Y-86945742D01*
X119018133Y-86850504D01*
X119018133Y-86040980D01*
X120018133Y-87040980D02*
X119446704Y-87040980D01*
X119732419Y-87040980D02*
X119732419Y-86040980D01*
X119637180Y-86183838D01*
X119541942Y-86279076D01*
X119446704Y-86326695D01*
X120351466Y-86040980D02*
X121018133Y-86040980D01*
X120589561Y-87040980D01*
%TO.C,U1*%
X138139095Y-80982380D02*
X138139095Y-81791904D01*
X138186714Y-81887142D01*
X138234333Y-81934761D01*
X138329571Y-81982380D01*
X138520047Y-81982380D01*
X138615285Y-81934761D01*
X138662904Y-81887142D01*
X138710523Y-81791904D01*
X138710523Y-80982380D01*
X139710523Y-81982380D02*
X139139095Y-81982380D01*
X139424809Y-81982380D02*
X139424809Y-80982380D01*
X139329571Y-81125238D01*
X139234333Y-81220476D01*
X139139095Y-81268095D01*
%TO.C,TH1*%
X141681485Y-133410980D02*
X142252914Y-133410980D01*
X141967200Y-134410980D02*
X141967200Y-133410980D01*
X142586247Y-134410980D02*
X142586247Y-133410980D01*
X142586247Y-133887171D02*
X143157676Y-133887171D01*
X143157676Y-134410980D02*
X143157676Y-133410980D01*
X144157676Y-134410980D02*
X143586247Y-134410980D01*
X143871961Y-134410980D02*
X143871961Y-133410980D01*
X143776723Y-133553838D01*
X143681485Y-133649076D01*
X143586247Y-133696695D01*
%TO.C,R4*%
X99692580Y-73564466D02*
X99216390Y-73897800D01*
X99692580Y-74135895D02*
X98692580Y-74135895D01*
X98692580Y-73754942D01*
X98740200Y-73659704D01*
X98787819Y-73612085D01*
X98883057Y-73564466D01*
X99025914Y-73564466D01*
X99121152Y-73612085D01*
X99168771Y-73659704D01*
X99216390Y-73754942D01*
X99216390Y-74135895D01*
X99025914Y-72707323D02*
X99692580Y-72707323D01*
X98644961Y-72945419D02*
X99359247Y-73183514D01*
X99359247Y-72564466D01*
%TO.C,R21*%
X146492742Y-116884980D02*
X146159409Y-116408790D01*
X145921314Y-116884980D02*
X145921314Y-115884980D01*
X146302266Y-115884980D01*
X146397504Y-115932600D01*
X146445123Y-115980219D01*
X146492742Y-116075457D01*
X146492742Y-116218314D01*
X146445123Y-116313552D01*
X146397504Y-116361171D01*
X146302266Y-116408790D01*
X145921314Y-116408790D01*
X146873695Y-115980219D02*
X146921314Y-115932600D01*
X147016552Y-115884980D01*
X147254647Y-115884980D01*
X147349885Y-115932600D01*
X147397504Y-115980219D01*
X147445123Y-116075457D01*
X147445123Y-116170695D01*
X147397504Y-116313552D01*
X146826076Y-116884980D01*
X147445123Y-116884980D01*
X148397504Y-116884980D02*
X147826076Y-116884980D01*
X148111790Y-116884980D02*
X148111790Y-115884980D01*
X148016552Y-116027838D01*
X147921314Y-116123076D01*
X147826076Y-116170695D01*
%TO.C,TH2*%
X141538485Y-115884980D02*
X142109914Y-115884980D01*
X141824200Y-116884980D02*
X141824200Y-115884980D01*
X142443247Y-116884980D02*
X142443247Y-115884980D01*
X142443247Y-116361171D02*
X143014676Y-116361171D01*
X143014676Y-116884980D02*
X143014676Y-115884980D01*
X143443247Y-115980219D02*
X143490866Y-115932600D01*
X143586104Y-115884980D01*
X143824200Y-115884980D01*
X143919438Y-115932600D01*
X143967057Y-115980219D01*
X144014676Y-116075457D01*
X144014676Y-116170695D01*
X143967057Y-116313552D01*
X143395628Y-116884980D01*
X144014676Y-116884980D01*
%TO.C,U19*%
X134364904Y-49897380D02*
X134364904Y-50706904D01*
X134412523Y-50802142D01*
X134460142Y-50849761D01*
X134555380Y-50897380D01*
X134745857Y-50897380D01*
X134841095Y-50849761D01*
X134888714Y-50802142D01*
X134936333Y-50706904D01*
X134936333Y-49897380D01*
X135936333Y-50897380D02*
X135364904Y-50897380D01*
X135650619Y-50897380D02*
X135650619Y-49897380D01*
X135555380Y-50040238D01*
X135460142Y-50135476D01*
X135364904Y-50183095D01*
X136412523Y-50897380D02*
X136603000Y-50897380D01*
X136698238Y-50849761D01*
X136745857Y-50802142D01*
X136841095Y-50659285D01*
X136888714Y-50468809D01*
X136888714Y-50087857D01*
X136841095Y-49992619D01*
X136793476Y-49945000D01*
X136698238Y-49897380D01*
X136507761Y-49897380D01*
X136412523Y-49945000D01*
X136364904Y-49992619D01*
X136317285Y-50087857D01*
X136317285Y-50325952D01*
X136364904Y-50421190D01*
X136412523Y-50468809D01*
X136507761Y-50516428D01*
X136698238Y-50516428D01*
X136793476Y-50468809D01*
X136841095Y-50421190D01*
X136888714Y-50325952D01*
%TO.C,R27*%
X120612380Y-80958257D02*
X120136190Y-81291590D01*
X120612380Y-81529685D02*
X119612380Y-81529685D01*
X119612380Y-81148733D01*
X119660000Y-81053495D01*
X119707619Y-81005876D01*
X119802857Y-80958257D01*
X119945714Y-80958257D01*
X120040952Y-81005876D01*
X120088571Y-81053495D01*
X120136190Y-81148733D01*
X120136190Y-81529685D01*
X119707619Y-80577304D02*
X119660000Y-80529685D01*
X119612380Y-80434447D01*
X119612380Y-80196352D01*
X119660000Y-80101114D01*
X119707619Y-80053495D01*
X119802857Y-80005876D01*
X119898095Y-80005876D01*
X120040952Y-80053495D01*
X120612380Y-80624923D01*
X120612380Y-80005876D01*
X119612380Y-79672542D02*
X119612380Y-79005876D01*
X120612380Y-79434447D01*
%TO.C,U5*%
X108756495Y-72887580D02*
X108756495Y-73697104D01*
X108804114Y-73792342D01*
X108851733Y-73839961D01*
X108946971Y-73887580D01*
X109137447Y-73887580D01*
X109232685Y-73839961D01*
X109280304Y-73792342D01*
X109327923Y-73697104D01*
X109327923Y-72887580D01*
X110280304Y-72887580D02*
X109804114Y-72887580D01*
X109756495Y-73363771D01*
X109804114Y-73316152D01*
X109899352Y-73268533D01*
X110137447Y-73268533D01*
X110232685Y-73316152D01*
X110280304Y-73363771D01*
X110327923Y-73459009D01*
X110327923Y-73697104D01*
X110280304Y-73792342D01*
X110232685Y-73839961D01*
X110137447Y-73887580D01*
X109899352Y-73887580D01*
X109804114Y-73839961D01*
X109756495Y-73792342D01*
%TO.C,TH3*%
X141519685Y-101178380D02*
X142091114Y-101178380D01*
X141805400Y-102178380D02*
X141805400Y-101178380D01*
X142424447Y-102178380D02*
X142424447Y-101178380D01*
X142424447Y-101654571D02*
X142995876Y-101654571D01*
X142995876Y-102178380D02*
X142995876Y-101178380D01*
X143376828Y-101178380D02*
X143995876Y-101178380D01*
X143662542Y-101559333D01*
X143805400Y-101559333D01*
X143900638Y-101606952D01*
X143948257Y-101654571D01*
X143995876Y-101749809D01*
X143995876Y-101987904D01*
X143948257Y-102083142D01*
X143900638Y-102130761D01*
X143805400Y-102178380D01*
X143519685Y-102178380D01*
X143424447Y-102130761D01*
X143376828Y-102083142D01*
%TO.C,R16*%
X109542780Y-69671257D02*
X109066590Y-70004590D01*
X109542780Y-70242685D02*
X108542780Y-70242685D01*
X108542780Y-69861733D01*
X108590400Y-69766495D01*
X108638019Y-69718876D01*
X108733257Y-69671257D01*
X108876114Y-69671257D01*
X108971352Y-69718876D01*
X109018971Y-69766495D01*
X109066590Y-69861733D01*
X109066590Y-70242685D01*
X109542780Y-68718876D02*
X109542780Y-69290304D01*
X109542780Y-69004590D02*
X108542780Y-69004590D01*
X108685638Y-69099828D01*
X108780876Y-69195066D01*
X108828495Y-69290304D01*
X108542780Y-67861733D02*
X108542780Y-68052209D01*
X108590400Y-68147447D01*
X108638019Y-68195066D01*
X108780876Y-68290304D01*
X108971352Y-68337923D01*
X109352304Y-68337923D01*
X109447542Y-68290304D01*
X109495161Y-68242685D01*
X109542780Y-68147447D01*
X109542780Y-67956971D01*
X109495161Y-67861733D01*
X109447542Y-67814114D01*
X109352304Y-67766495D01*
X109114209Y-67766495D01*
X109018971Y-67814114D01*
X108971352Y-67861733D01*
X108923733Y-67956971D01*
X108923733Y-68147447D01*
X108971352Y-68242685D01*
X109018971Y-68290304D01*
X109114209Y-68337923D01*
%TO.C,U4*%
X148579380Y-64896904D02*
X149388904Y-64896904D01*
X149484142Y-64849285D01*
X149531761Y-64801666D01*
X149579380Y-64706428D01*
X149579380Y-64515952D01*
X149531761Y-64420714D01*
X149484142Y-64373095D01*
X149388904Y-64325476D01*
X148579380Y-64325476D01*
X148912714Y-63420714D02*
X149579380Y-63420714D01*
X148531761Y-63658809D02*
X149246047Y-63896904D01*
X149246047Y-63277857D01*
%TO.C,C14*%
X134561342Y-61625542D02*
X134513723Y-61673161D01*
X134370866Y-61720780D01*
X134275628Y-61720780D01*
X134132771Y-61673161D01*
X134037533Y-61577923D01*
X133989914Y-61482685D01*
X133942295Y-61292209D01*
X133942295Y-61149352D01*
X133989914Y-60958876D01*
X134037533Y-60863638D01*
X134132771Y-60768400D01*
X134275628Y-60720780D01*
X134370866Y-60720780D01*
X134513723Y-60768400D01*
X134561342Y-60816019D01*
X135513723Y-61720780D02*
X134942295Y-61720780D01*
X135228009Y-61720780D02*
X135228009Y-60720780D01*
X135132771Y-60863638D01*
X135037533Y-60958876D01*
X134942295Y-61006495D01*
X136370866Y-61054114D02*
X136370866Y-61720780D01*
X136132771Y-60673161D02*
X135894676Y-61387447D01*
X136513723Y-61387447D01*
%TO.C,C4*%
X130847142Y-80101166D02*
X130894761Y-80148785D01*
X130942380Y-80291642D01*
X130942380Y-80386880D01*
X130894761Y-80529738D01*
X130799523Y-80624976D01*
X130704285Y-80672595D01*
X130513809Y-80720214D01*
X130370952Y-80720214D01*
X130180476Y-80672595D01*
X130085238Y-80624976D01*
X129990000Y-80529738D01*
X129942380Y-80386880D01*
X129942380Y-80291642D01*
X129990000Y-80148785D01*
X130037619Y-80101166D01*
X130275714Y-79244023D02*
X130942380Y-79244023D01*
X129894761Y-79482119D02*
X130609047Y-79720214D01*
X130609047Y-79101166D01*
%TO.C,R24*%
X146600942Y-102178380D02*
X146267609Y-101702190D01*
X146029514Y-102178380D02*
X146029514Y-101178380D01*
X146410466Y-101178380D01*
X146505704Y-101226000D01*
X146553323Y-101273619D01*
X146600942Y-101368857D01*
X146600942Y-101511714D01*
X146553323Y-101606952D01*
X146505704Y-101654571D01*
X146410466Y-101702190D01*
X146029514Y-101702190D01*
X146981895Y-101273619D02*
X147029514Y-101226000D01*
X147124752Y-101178380D01*
X147362847Y-101178380D01*
X147458085Y-101226000D01*
X147505704Y-101273619D01*
X147553323Y-101368857D01*
X147553323Y-101464095D01*
X147505704Y-101606952D01*
X146934276Y-102178380D01*
X147553323Y-102178380D01*
X148410466Y-101511714D02*
X148410466Y-102178380D01*
X148172371Y-101130761D02*
X147934276Y-101845047D01*
X148553323Y-101845047D01*
%TO.C,R22*%
X120708942Y-72284580D02*
X120375609Y-71808390D01*
X120137514Y-72284580D02*
X120137514Y-71284580D01*
X120518466Y-71284580D01*
X120613704Y-71332200D01*
X120661323Y-71379819D01*
X120708942Y-71475057D01*
X120708942Y-71617914D01*
X120661323Y-71713152D01*
X120613704Y-71760771D01*
X120518466Y-71808390D01*
X120137514Y-71808390D01*
X121089895Y-71379819D02*
X121137514Y-71332200D01*
X121232752Y-71284580D01*
X121470847Y-71284580D01*
X121566085Y-71332200D01*
X121613704Y-71379819D01*
X121661323Y-71475057D01*
X121661323Y-71570295D01*
X121613704Y-71713152D01*
X121042276Y-72284580D01*
X121661323Y-72284580D01*
X122042276Y-71379819D02*
X122089895Y-71332200D01*
X122185133Y-71284580D01*
X122423228Y-71284580D01*
X122518466Y-71332200D01*
X122566085Y-71379819D01*
X122613704Y-71475057D01*
X122613704Y-71570295D01*
X122566085Y-71713152D01*
X121994657Y-72284580D01*
X122613704Y-72284580D01*
%TO.C,J1*%
X156892666Y-62747380D02*
X156892666Y-63461666D01*
X156845047Y-63604523D01*
X156749809Y-63699761D01*
X156606952Y-63747380D01*
X156511714Y-63747380D01*
X157892666Y-63747380D02*
X157321238Y-63747380D01*
X157606952Y-63747380D02*
X157606952Y-62747380D01*
X157511714Y-62890238D01*
X157416476Y-62985476D01*
X157321238Y-63033095D01*
%TO.C,BT1*%
X99563285Y-48948571D02*
X99706142Y-48996190D01*
X99753761Y-49043809D01*
X99801380Y-49139047D01*
X99801380Y-49281904D01*
X99753761Y-49377142D01*
X99706142Y-49424761D01*
X99610904Y-49472380D01*
X99229952Y-49472380D01*
X99229952Y-48472380D01*
X99563285Y-48472380D01*
X99658523Y-48520000D01*
X99706142Y-48567619D01*
X99753761Y-48662857D01*
X99753761Y-48758095D01*
X99706142Y-48853333D01*
X99658523Y-48900952D01*
X99563285Y-48948571D01*
X99229952Y-48948571D01*
X100087095Y-48472380D02*
X100658523Y-48472380D01*
X100372809Y-49472380D02*
X100372809Y-48472380D01*
X101515666Y-49472380D02*
X100944238Y-49472380D01*
X101229952Y-49472380D02*
X101229952Y-48472380D01*
X101134714Y-48615238D01*
X101039476Y-48710476D01*
X100944238Y-48758095D01*
%TO.C,U20*%
X136603904Y-64944380D02*
X136603904Y-65753904D01*
X136651523Y-65849142D01*
X136699142Y-65896761D01*
X136794380Y-65944380D01*
X136984857Y-65944380D01*
X137080095Y-65896761D01*
X137127714Y-65849142D01*
X137175333Y-65753904D01*
X137175333Y-64944380D01*
X137603904Y-65039619D02*
X137651523Y-64992000D01*
X137746761Y-64944380D01*
X137984857Y-64944380D01*
X138080095Y-64992000D01*
X138127714Y-65039619D01*
X138175333Y-65134857D01*
X138175333Y-65230095D01*
X138127714Y-65372952D01*
X137556285Y-65944380D01*
X138175333Y-65944380D01*
X138794380Y-64944380D02*
X138889619Y-64944380D01*
X138984857Y-64992000D01*
X139032476Y-65039619D01*
X139080095Y-65134857D01*
X139127714Y-65325333D01*
X139127714Y-65563428D01*
X139080095Y-65753904D01*
X139032476Y-65849142D01*
X138984857Y-65896761D01*
X138889619Y-65944380D01*
X138794380Y-65944380D01*
X138699142Y-65896761D01*
X138651523Y-65849142D01*
X138603904Y-65753904D01*
X138556285Y-65563428D01*
X138556285Y-65325333D01*
X138603904Y-65134857D01*
X138651523Y-65039619D01*
X138699142Y-64992000D01*
X138794380Y-64944380D01*
%TO.C,R23*%
X124422380Y-77053257D02*
X123946190Y-77386590D01*
X124422380Y-77624685D02*
X123422380Y-77624685D01*
X123422380Y-77243733D01*
X123470000Y-77148495D01*
X123517619Y-77100876D01*
X123612857Y-77053257D01*
X123755714Y-77053257D01*
X123850952Y-77100876D01*
X123898571Y-77148495D01*
X123946190Y-77243733D01*
X123946190Y-77624685D01*
X123517619Y-76672304D02*
X123470000Y-76624685D01*
X123422380Y-76529447D01*
X123422380Y-76291352D01*
X123470000Y-76196114D01*
X123517619Y-76148495D01*
X123612857Y-76100876D01*
X123708095Y-76100876D01*
X123850952Y-76148495D01*
X124422380Y-76719923D01*
X124422380Y-76100876D01*
X123422380Y-75767542D02*
X123422380Y-75148495D01*
X123803333Y-75481828D01*
X123803333Y-75338971D01*
X123850952Y-75243733D01*
X123898571Y-75196114D01*
X123993809Y-75148495D01*
X124231904Y-75148495D01*
X124327142Y-75196114D01*
X124374761Y-75243733D01*
X124422380Y-75338971D01*
X124422380Y-75624685D01*
X124374761Y-75719923D01*
X124327142Y-75767542D01*
%TO.C,R33*%
X105321580Y-79831257D02*
X104845390Y-80164590D01*
X105321580Y-80402685D02*
X104321580Y-80402685D01*
X104321580Y-80021733D01*
X104369200Y-79926495D01*
X104416819Y-79878876D01*
X104512057Y-79831257D01*
X104654914Y-79831257D01*
X104750152Y-79878876D01*
X104797771Y-79926495D01*
X104845390Y-80021733D01*
X104845390Y-80402685D01*
X104321580Y-79497923D02*
X104321580Y-78878876D01*
X104702533Y-79212209D01*
X104702533Y-79069352D01*
X104750152Y-78974114D01*
X104797771Y-78926495D01*
X104893009Y-78878876D01*
X105131104Y-78878876D01*
X105226342Y-78926495D01*
X105273961Y-78974114D01*
X105321580Y-79069352D01*
X105321580Y-79355066D01*
X105273961Y-79450304D01*
X105226342Y-79497923D01*
X104321580Y-78545542D02*
X104321580Y-77926495D01*
X104702533Y-78259828D01*
X104702533Y-78116971D01*
X104750152Y-78021733D01*
X104797771Y-77974114D01*
X104893009Y-77926495D01*
X105131104Y-77926495D01*
X105226342Y-77974114D01*
X105273961Y-78021733D01*
X105321580Y-78116971D01*
X105321580Y-78402685D01*
X105273961Y-78497923D01*
X105226342Y-78545542D01*
%TO.C,J4*%
X144663666Y-80341380D02*
X144663666Y-81055666D01*
X144616047Y-81198523D01*
X144520809Y-81293761D01*
X144377952Y-81341380D01*
X144282714Y-81341380D01*
X145568428Y-80674714D02*
X145568428Y-81341380D01*
X145330333Y-80293761D02*
X145092238Y-81008047D01*
X145711285Y-81008047D01*
%TO.C,R29*%
X116802380Y-80958257D02*
X116326190Y-81291590D01*
X116802380Y-81529685D02*
X115802380Y-81529685D01*
X115802380Y-81148733D01*
X115850000Y-81053495D01*
X115897619Y-81005876D01*
X115992857Y-80958257D01*
X116135714Y-80958257D01*
X116230952Y-81005876D01*
X116278571Y-81053495D01*
X116326190Y-81148733D01*
X116326190Y-81529685D01*
X115897619Y-80577304D02*
X115850000Y-80529685D01*
X115802380Y-80434447D01*
X115802380Y-80196352D01*
X115850000Y-80101114D01*
X115897619Y-80053495D01*
X115992857Y-80005876D01*
X116088095Y-80005876D01*
X116230952Y-80053495D01*
X116802380Y-80624923D01*
X116802380Y-80005876D01*
X116802380Y-79529685D02*
X116802380Y-79339209D01*
X116754761Y-79243971D01*
X116707142Y-79196352D01*
X116564285Y-79101114D01*
X116373809Y-79053495D01*
X115992857Y-79053495D01*
X115897619Y-79101114D01*
X115850000Y-79148733D01*
X115802380Y-79243971D01*
X115802380Y-79434447D01*
X115850000Y-79529685D01*
X115897619Y-79577304D01*
X115992857Y-79624923D01*
X116230952Y-79624923D01*
X116326190Y-79577304D01*
X116373809Y-79529685D01*
X116421428Y-79434447D01*
X116421428Y-79243971D01*
X116373809Y-79148733D01*
X116326190Y-79101114D01*
X116230952Y-79053495D01*
%TO.C,R15*%
X109491980Y-61594057D02*
X109015790Y-61927390D01*
X109491980Y-62165485D02*
X108491980Y-62165485D01*
X108491980Y-61784533D01*
X108539600Y-61689295D01*
X108587219Y-61641676D01*
X108682457Y-61594057D01*
X108825314Y-61594057D01*
X108920552Y-61641676D01*
X108968171Y-61689295D01*
X109015790Y-61784533D01*
X109015790Y-62165485D01*
X109491980Y-60641676D02*
X109491980Y-61213104D01*
X109491980Y-60927390D02*
X108491980Y-60927390D01*
X108634838Y-61022628D01*
X108730076Y-61117866D01*
X108777695Y-61213104D01*
X108491980Y-59736914D02*
X108491980Y-60213104D01*
X108968171Y-60260723D01*
X108920552Y-60213104D01*
X108872933Y-60117866D01*
X108872933Y-59879771D01*
X108920552Y-59784533D01*
X108968171Y-59736914D01*
X109063409Y-59689295D01*
X109301504Y-59689295D01*
X109396742Y-59736914D01*
X109444361Y-59784533D01*
X109491980Y-59879771D01*
X109491980Y-60117866D01*
X109444361Y-60213104D01*
X109396742Y-60260723D01*
%TO.C,R28*%
X116802380Y-77053257D02*
X116326190Y-77386590D01*
X116802380Y-77624685D02*
X115802380Y-77624685D01*
X115802380Y-77243733D01*
X115850000Y-77148495D01*
X115897619Y-77100876D01*
X115992857Y-77053257D01*
X116135714Y-77053257D01*
X116230952Y-77100876D01*
X116278571Y-77148495D01*
X116326190Y-77243733D01*
X116326190Y-77624685D01*
X115897619Y-76672304D02*
X115850000Y-76624685D01*
X115802380Y-76529447D01*
X115802380Y-76291352D01*
X115850000Y-76196114D01*
X115897619Y-76148495D01*
X115992857Y-76100876D01*
X116088095Y-76100876D01*
X116230952Y-76148495D01*
X116802380Y-76719923D01*
X116802380Y-76100876D01*
X116230952Y-75529447D02*
X116183333Y-75624685D01*
X116135714Y-75672304D01*
X116040476Y-75719923D01*
X115992857Y-75719923D01*
X115897619Y-75672304D01*
X115850000Y-75624685D01*
X115802380Y-75529447D01*
X115802380Y-75338971D01*
X115850000Y-75243733D01*
X115897619Y-75196114D01*
X115992857Y-75148495D01*
X116040476Y-75148495D01*
X116135714Y-75196114D01*
X116183333Y-75243733D01*
X116230952Y-75338971D01*
X116230952Y-75529447D01*
X116278571Y-75624685D01*
X116326190Y-75672304D01*
X116421428Y-75719923D01*
X116611904Y-75719923D01*
X116707142Y-75672304D01*
X116754761Y-75624685D01*
X116802380Y-75529447D01*
X116802380Y-75338971D01*
X116754761Y-75243733D01*
X116707142Y-75196114D01*
X116611904Y-75148495D01*
X116421428Y-75148495D01*
X116326190Y-75196114D01*
X116278571Y-75243733D01*
X116230952Y-75338971D01*
%TO.C,R12*%
X106030742Y-48576580D02*
X105697409Y-48100390D01*
X105459314Y-48576580D02*
X105459314Y-47576580D01*
X105840266Y-47576580D01*
X105935504Y-47624200D01*
X105983123Y-47671819D01*
X106030742Y-47767057D01*
X106030742Y-47909914D01*
X105983123Y-48005152D01*
X105935504Y-48052771D01*
X105840266Y-48100390D01*
X105459314Y-48100390D01*
X106983123Y-48576580D02*
X106411695Y-48576580D01*
X106697409Y-48576580D02*
X106697409Y-47576580D01*
X106602171Y-47719438D01*
X106506933Y-47814676D01*
X106411695Y-47862295D01*
X107364076Y-47671819D02*
X107411695Y-47624200D01*
X107506933Y-47576580D01*
X107745028Y-47576580D01*
X107840266Y-47624200D01*
X107887885Y-47671819D01*
X107935504Y-47767057D01*
X107935504Y-47862295D01*
X107887885Y-48005152D01*
X107316457Y-48576580D01*
X107935504Y-48576580D01*
%TO.C,R5*%
X103443980Y-75316466D02*
X102967790Y-75649800D01*
X103443980Y-75887895D02*
X102443980Y-75887895D01*
X102443980Y-75506942D01*
X102491600Y-75411704D01*
X102539219Y-75364085D01*
X102634457Y-75316466D01*
X102777314Y-75316466D01*
X102872552Y-75364085D01*
X102920171Y-75411704D01*
X102967790Y-75506942D01*
X102967790Y-75887895D01*
X102443980Y-74411704D02*
X102443980Y-74887895D01*
X102920171Y-74935514D01*
X102872552Y-74887895D01*
X102824933Y-74792657D01*
X102824933Y-74554561D01*
X102872552Y-74459323D01*
X102920171Y-74411704D01*
X103015409Y-74364085D01*
X103253504Y-74364085D01*
X103348742Y-74411704D01*
X103396361Y-74459323D01*
X103443980Y-74554561D01*
X103443980Y-74792657D01*
X103396361Y-74887895D01*
X103348742Y-74935514D01*
%TO.C,U8*%
X147599495Y-64528980D02*
X147599495Y-65338504D01*
X147647114Y-65433742D01*
X147694733Y-65481361D01*
X147789971Y-65528980D01*
X147980447Y-65528980D01*
X148075685Y-65481361D01*
X148123304Y-65433742D01*
X148170923Y-65338504D01*
X148170923Y-64528980D01*
X148789971Y-64957552D02*
X148694733Y-64909933D01*
X148647114Y-64862314D01*
X148599495Y-64767076D01*
X148599495Y-64719457D01*
X148647114Y-64624219D01*
X148694733Y-64576600D01*
X148789971Y-64528980D01*
X148980447Y-64528980D01*
X149075685Y-64576600D01*
X149123304Y-64624219D01*
X149170923Y-64719457D01*
X149170923Y-64767076D01*
X149123304Y-64862314D01*
X149075685Y-64909933D01*
X148980447Y-64957552D01*
X148789971Y-64957552D01*
X148694733Y-65005171D01*
X148647114Y-65052790D01*
X148599495Y-65148028D01*
X148599495Y-65338504D01*
X148647114Y-65433742D01*
X148694733Y-65481361D01*
X148789971Y-65528980D01*
X148980447Y-65528980D01*
X149075685Y-65481361D01*
X149123304Y-65433742D01*
X149170923Y-65338504D01*
X149170923Y-65148028D01*
X149123304Y-65052790D01*
X149075685Y-65005171D01*
X148980447Y-64957552D01*
%TO.C,C8*%
X140746542Y-90463666D02*
X140794161Y-90511285D01*
X140841780Y-90654142D01*
X140841780Y-90749380D01*
X140794161Y-90892238D01*
X140698923Y-90987476D01*
X140603685Y-91035095D01*
X140413209Y-91082714D01*
X140270352Y-91082714D01*
X140079876Y-91035095D01*
X139984638Y-90987476D01*
X139889400Y-90892238D01*
X139841780Y-90749380D01*
X139841780Y-90654142D01*
X139889400Y-90511285D01*
X139937019Y-90463666D01*
X140270352Y-89892238D02*
X140222733Y-89987476D01*
X140175114Y-90035095D01*
X140079876Y-90082714D01*
X140032257Y-90082714D01*
X139937019Y-90035095D01*
X139889400Y-89987476D01*
X139841780Y-89892238D01*
X139841780Y-89701761D01*
X139889400Y-89606523D01*
X139937019Y-89558904D01*
X140032257Y-89511285D01*
X140079876Y-89511285D01*
X140175114Y-89558904D01*
X140222733Y-89606523D01*
X140270352Y-89701761D01*
X140270352Y-89892238D01*
X140317971Y-89987476D01*
X140365590Y-90035095D01*
X140460828Y-90082714D01*
X140651304Y-90082714D01*
X140746542Y-90035095D01*
X140794161Y-89987476D01*
X140841780Y-89892238D01*
X140841780Y-89701761D01*
X140794161Y-89606523D01*
X140746542Y-89558904D01*
X140651304Y-89511285D01*
X140460828Y-89511285D01*
X140365590Y-89558904D01*
X140317971Y-89606523D01*
X140270352Y-89701761D01*
%TO.C,U3*%
X164599580Y-56464104D02*
X165409104Y-56464104D01*
X165504342Y-56416485D01*
X165551961Y-56368866D01*
X165599580Y-56273628D01*
X165599580Y-56083152D01*
X165551961Y-55987914D01*
X165504342Y-55940295D01*
X165409104Y-55892676D01*
X164599580Y-55892676D01*
X164599580Y-55511723D02*
X164599580Y-54892676D01*
X164980533Y-55226009D01*
X164980533Y-55083152D01*
X165028152Y-54987914D01*
X165075771Y-54940295D01*
X165171009Y-54892676D01*
X165409104Y-54892676D01*
X165504342Y-54940295D01*
X165551961Y-54987914D01*
X165599580Y-55083152D01*
X165599580Y-55368866D01*
X165551961Y-55464104D01*
X165504342Y-55511723D01*
D12*
%TO.C,R39*%
X145224000Y-87025064D02*
X145224000Y-86570936D01*
X143754000Y-87025064D02*
X143754000Y-86570936D01*
%TO.C,L1*%
X128218000Y-112233452D02*
X128218000Y-111710948D01*
X126798000Y-112233452D02*
X126798000Y-111710948D01*
%TO.C,R26*%
X117775000Y-76183336D02*
X117775000Y-76637464D01*
X119245000Y-76183336D02*
X119245000Y-76637464D01*
%TO.C,L2*%
X143614000Y-50820000D02*
X143614000Y-57720000D01*
X138514000Y-50820000D02*
X138514000Y-57720000D01*
%TO.C,U16*%
X129703000Y-65714000D02*
X131253000Y-65714000D01*
X131253000Y-67514000D02*
X129953000Y-67514000D01*
%TO.C,U15*%
X98745400Y-80329200D02*
X98745400Y-82129200D01*
X101965400Y-82129200D02*
X101965400Y-79679200D01*
%TO.C,R10*%
X131496064Y-55531000D02*
X131041936Y-55531000D01*
X131496064Y-57001000D02*
X131041936Y-57001000D01*
%TO.C,R3*%
X135322064Y-57001000D02*
X134867936Y-57001000D01*
X135322064Y-55531000D02*
X134867936Y-55531000D01*
%TO.C,C3*%
X133467000Y-79673248D02*
X133467000Y-80195752D01*
X134937000Y-79673248D02*
X134937000Y-80195752D01*
%TO.C,R25*%
X121585000Y-80088336D02*
X121585000Y-80542464D01*
X123055000Y-80088336D02*
X123055000Y-80542464D01*
%TO.C,C2*%
X128258848Y-109802600D02*
X128781352Y-109802600D01*
X128258848Y-108332600D02*
X128781352Y-108332600D01*
%TO.C,C1*%
X128284248Y-114149200D02*
X128806752Y-114149200D01*
X128284248Y-115619200D02*
X128806752Y-115619200D01*
%TO.C,SW1*%
X115877600Y-46337000D02*
X115877600Y-47667000D01*
X114547600Y-46337000D02*
X115877600Y-46337000D01*
X113277600Y-46337000D02*
X113277600Y-48997000D01*
X113277600Y-48997000D02*
X110677600Y-48997000D01*
X110677600Y-46337000D02*
X110677600Y-48997000D01*
X113277600Y-46337000D02*
X110677600Y-46337000D01*
%TO.C,R17*%
X121543536Y-51021400D02*
X121997664Y-51021400D01*
X121543536Y-52491400D02*
X121997664Y-52491400D01*
%TO.C,BT2*%
X99171400Y-62509800D02*
X101831400Y-62509800D01*
X101831400Y-59909800D02*
X101831400Y-62509800D01*
X99171400Y-59909800D02*
X101831400Y-59909800D01*
X99171400Y-57309800D02*
X100501400Y-57309800D01*
X99171400Y-58639800D02*
X99171400Y-57309800D01*
X99171400Y-59909800D02*
X99171400Y-62509800D01*
%TO.C,R20*%
X147515064Y-131599000D02*
X147060936Y-131599000D01*
X147515064Y-133069000D02*
X147060936Y-133069000D01*
%TO.C,R2*%
X134656064Y-64736000D02*
X134201936Y-64736000D01*
X134656064Y-66206000D02*
X134201936Y-66206000D01*
%TO.C,J2*%
X104496600Y-84298000D02*
X97096600Y-84298000D01*
X97096600Y-84298000D02*
X97096600Y-93198000D01*
X104496600Y-93198000D02*
X104496600Y-84298000D01*
X97096600Y-93198000D02*
X104496600Y-93198000D01*
%TO.C,R18*%
X121289536Y-58641400D02*
X121743664Y-58641400D01*
X121289536Y-60111400D02*
X121743664Y-60111400D01*
%TO.C,R40*%
X145134936Y-84628000D02*
X145589064Y-84628000D01*
X145134936Y-83158000D02*
X145589064Y-83158000D01*
%TO.C,Y1*%
X136529000Y-76148000D02*
X136529000Y-80548000D01*
X136529000Y-80548000D02*
X141929000Y-80548000D01*
%TO.C,BT3*%
X102060000Y-67377400D02*
X102060000Y-69977400D01*
X99400000Y-66107400D02*
X99400000Y-64777400D01*
X99400000Y-67377400D02*
X102060000Y-67377400D01*
X99400000Y-64777400D02*
X100730000Y-64777400D01*
X99400000Y-67377400D02*
X99400000Y-69977400D01*
X99400000Y-69977400D02*
X102060000Y-69977400D01*
%TO.C,AE1*%
X128668000Y-116056200D02*
X126348000Y-116056200D01*
X126348000Y-116056200D02*
X126348000Y-119966200D01*
X128668000Y-119966200D02*
X128668000Y-116056200D01*
%TO.C,R19*%
X121518136Y-66921800D02*
X121972264Y-66921800D01*
X121518136Y-68391800D02*
X121972264Y-68391800D01*
%TO.C,U17*%
X108170400Y-95482200D02*
X108170400Y-100607200D01*
X107220400Y-93982200D02*
X107220400Y-95482200D01*
X117620400Y-95482200D02*
X116670400Y-95482200D01*
X117620400Y-93982200D02*
X117620400Y-95482200D01*
X107220400Y-95482200D02*
X108170400Y-95482200D01*
X116670400Y-95482200D02*
X116670400Y-96582200D01*
%TO.C,U1*%
X136966000Y-87813000D02*
X136291000Y-87813000D01*
X140836000Y-82593000D02*
X141511000Y-82593000D01*
X140836000Y-87813000D02*
X141511000Y-87813000D01*
%TO.C,TH1*%
X143194264Y-131573600D02*
X142740136Y-131573600D01*
X143194264Y-133043600D02*
X142740136Y-133043600D01*
%TO.C,R4*%
X101970200Y-74124864D02*
X101970200Y-72670736D01*
X100150200Y-74124864D02*
X100150200Y-72670736D01*
%TO.C,R21*%
X147362664Y-114047600D02*
X146908536Y-114047600D01*
X147362664Y-115517600D02*
X146908536Y-115517600D01*
%TO.C,TH2*%
X143051264Y-114047600D02*
X142597136Y-114047600D01*
X143051264Y-115517600D02*
X142597136Y-115517600D01*
%TO.C,U19*%
X136503000Y-51735000D02*
X133553000Y-51735000D01*
X134703000Y-54955000D02*
X136503000Y-54955000D01*
%TO.C,R27*%
X119245000Y-80088336D02*
X119245000Y-80542464D01*
X117775000Y-80088336D02*
X117775000Y-80542464D01*
%TO.C,U5*%
X109518400Y-74280200D02*
X111468400Y-74280200D01*
X109518400Y-83150200D02*
X111468400Y-83150200D01*
X109518400Y-74280200D02*
X106068400Y-74280200D01*
X109518400Y-83150200D02*
X107568400Y-83150200D01*
%TO.C,TH3*%
X143032464Y-100811000D02*
X142578336Y-100811000D01*
X143032464Y-99341000D02*
X142578336Y-99341000D01*
%TO.C,R16*%
X108180400Y-66851336D02*
X108180400Y-71205464D01*
X104760400Y-66851336D02*
X104760400Y-71205464D01*
%TO.C,U4*%
X149967000Y-64135000D02*
X149967000Y-67585000D01*
X155087000Y-64135000D02*
X155087000Y-66085000D01*
X149967000Y-64135000D02*
X149967000Y-62185000D01*
X155087000Y-64135000D02*
X155087000Y-62185000D01*
%TO.C,C14*%
X135465452Y-58853400D02*
X134942948Y-58853400D01*
X135465452Y-60323400D02*
X134942948Y-60323400D01*
%TO.C,C4*%
X131435000Y-80195752D02*
X131435000Y-79673248D01*
X132905000Y-80195752D02*
X132905000Y-79673248D01*
%TO.C,R24*%
X147470864Y-99341000D02*
X147016736Y-99341000D01*
X147470864Y-100811000D02*
X147016736Y-100811000D01*
%TO.C,R22*%
X121124736Y-72747200D02*
X121578864Y-72747200D01*
X121124736Y-74217200D02*
X121578864Y-74217200D01*
%TO.C,J1*%
X158556000Y-59695000D02*
X155896000Y-59695000D01*
X158556000Y-60965000D02*
X158556000Y-62295000D01*
X158556000Y-59695000D02*
X158556000Y-57095000D01*
X155896000Y-59695000D02*
X155896000Y-57095000D01*
X158556000Y-62295000D02*
X157226000Y-62295000D01*
X158556000Y-57095000D02*
X155896000Y-57095000D01*
%TO.C,BT1*%
X101679000Y-52620000D02*
X101679000Y-55220000D01*
X99019000Y-52620000D02*
X101679000Y-52620000D01*
X99019000Y-55220000D02*
X101679000Y-55220000D01*
X99019000Y-52620000D02*
X99019000Y-55220000D01*
X99019000Y-51350000D02*
X99019000Y-50020000D01*
X99019000Y-50020000D02*
X100349000Y-50020000D01*
%TO.C,U20*%
X136942000Y-70002000D02*
X138742000Y-70002000D01*
X138742000Y-66782000D02*
X135792000Y-66782000D01*
%TO.C,R23*%
X121585000Y-76183336D02*
X121585000Y-76637464D01*
X123055000Y-76183336D02*
X123055000Y-76637464D01*
%TO.C,R33*%
X102484200Y-78961336D02*
X102484200Y-79415464D01*
X103954200Y-78961336D02*
X103954200Y-79415464D01*
%TO.C,J4*%
X146327000Y-72149000D02*
X143667000Y-72149000D01*
X146327000Y-79889000D02*
X144997000Y-79889000D01*
X146327000Y-77289000D02*
X146327000Y-72149000D01*
X146327000Y-78559000D02*
X146327000Y-79889000D01*
X143667000Y-77289000D02*
X143667000Y-72149000D01*
X146327000Y-77289000D02*
X143667000Y-77289000D01*
%TO.C,R29*%
X113965000Y-80088336D02*
X113965000Y-80542464D01*
X115435000Y-80088336D02*
X115435000Y-80542464D01*
%TO.C,R15*%
X108129600Y-58774136D02*
X108129600Y-63128264D01*
X104709600Y-58774136D02*
X104709600Y-63128264D01*
%TO.C,R28*%
X113965000Y-76183336D02*
X113965000Y-76637464D01*
X115435000Y-76183336D02*
X115435000Y-76637464D01*
%TO.C,R12*%
X104684200Y-50671536D02*
X104684200Y-55025664D01*
X108104200Y-50671536D02*
X108104200Y-55025664D01*
%TO.C,R5*%
X103906600Y-75376864D02*
X103906600Y-74922736D01*
X105376600Y-75376864D02*
X105376600Y-74922736D01*
%TO.C,U8*%
X147461400Y-65876600D02*
X149011400Y-65876600D01*
X149011400Y-67676600D02*
X147711400Y-67676600D01*
%TO.C,C8*%
X137974400Y-90035748D02*
X137974400Y-90558252D01*
X139444400Y-90035748D02*
X139444400Y-90558252D01*
%TO.C,U3*%
X159187200Y-55702200D02*
X159187200Y-53752200D01*
X164307200Y-55702200D02*
X164307200Y-52252200D01*
X164307200Y-55702200D02*
X164307200Y-57652200D01*
X159187200Y-55702200D02*
X159187200Y-57652200D01*
%TD*%
M02*
