%TF.GenerationSoftware,KiCad,Pcbnew,(5.1.10)-1*%
%TF.CreationDate,2022-02-15T22:18:45-08:00*%
%TF.ProjectId,schematic,73636865-6d61-4746-9963-2e6b69636164,rev?*%
%TF.SameCoordinates,Original*%
%TF.FileFunction,Copper,L1,Top*%
%TF.FilePolarity,Positive*%
%FSLAX46Y46*%
G04 Gerber Fmt 4.6, Leading zero omitted, Abs format (unit mm)*
G04 Created by KiCad (PCBNEW (5.1.10)-1) date 2022-02-15 22:18:45*
%MOMM*%
%LPD*%
G01*
G04 APERTURE LIST*
%TA.AperFunction,ComponentPad*%
%ADD10O,1.000000X1.000000*%
%TD*%
%TA.AperFunction,ComponentPad*%
%ADD11R,1.000000X1.000000*%
%TD*%
%TA.AperFunction,SMDPad,CuDef*%
%ADD12R,2.500000X2.300000*%
%TD*%
%TA.AperFunction,SMDPad,CuDef*%
%ADD13R,0.650000X1.560000*%
%TD*%
%TA.AperFunction,ComponentPad*%
%ADD14O,1.100000X1.700000*%
%TD*%
%TA.AperFunction,SMDPad,CuDef*%
%ADD15R,0.800000X1.600000*%
%TD*%
%TA.AperFunction,SMDPad,CuDef*%
%ADD16R,0.760000X1.600000*%
%TD*%
%TA.AperFunction,SMDPad,CuDef*%
%ADD17R,0.700000X1.600000*%
%TD*%
%TA.AperFunction,SMDPad,CuDef*%
%ADD18R,1.800000X2.100000*%
%TD*%
%TA.AperFunction,ComponentPad*%
%ADD19C,0.500000*%
%TD*%
%TA.AperFunction,SMDPad,CuDef*%
%ADD20R,3.700000X3.700000*%
%TD*%
%TA.AperFunction,SMDPad,CuDef*%
%ADD21R,2.400000X1.500000*%
%TD*%
%TA.AperFunction,ViaPad*%
%ADD22C,0.400000*%
%TD*%
%TA.AperFunction,ViaPad*%
%ADD23C,0.600000*%
%TD*%
%TA.AperFunction,Conductor*%
%ADD24C,1.375000*%
%TD*%
%TA.AperFunction,Conductor*%
%ADD25C,0.250000*%
%TD*%
%TA.AperFunction,Conductor*%
%ADD26C,0.500000*%
%TD*%
%TA.AperFunction,Conductor*%
%ADD27C,0.127000*%
%TD*%
%TA.AperFunction,Conductor*%
%ADD28C,1.250000*%
%TD*%
%TA.AperFunction,Conductor*%
%ADD29C,1.000000*%
%TD*%
%TA.AperFunction,Conductor*%
%ADD30C,0.750000*%
%TD*%
%TA.AperFunction,Conductor*%
%ADD31C,0.254000*%
%TD*%
%TA.AperFunction,Conductor*%
%ADD32C,0.100000*%
%TD*%
G04 APERTURE END LIST*
D10*
%TO.P,SW1,2*%
%TO.N,/Power Management/BATT_IN*%
X137287000Y-67945000D03*
D11*
%TO.P,SW1,1*%
%TO.N,VCC_UNREGULATED*%
X137287000Y-69215000D03*
%TD*%
D10*
%TO.P,J3,2*%
%TO.N,/Peltier Driver/PELTIER_P*%
X172593000Y-69850000D03*
D11*
%TO.P,J3,1*%
%TO.N,/Peltier Driver/PELTIER_N*%
X172593000Y-71120000D03*
%TD*%
D10*
%TO.P,Je,2*%
%TO.N,/Power Management/BATT_IN*%
X137414000Y-65532000D03*
D11*
%TO.P,Je,1*%
%TO.N,GND*%
X137414000Y-64262000D03*
%TD*%
D10*
%TO.P,J4,3*%
%TO.N,GND*%
X139827000Y-84709000D03*
%TO.P,J4,2*%
%TO.N,TXD*%
X138557000Y-84709000D03*
D11*
%TO.P,J4,1*%
%TO.N,RXD*%
X137287000Y-84709000D03*
%TD*%
%TO.P,R7,2*%
%TO.N,GND*%
%TA.AperFunction,SMDPad,CuDef*%
G36*
G01*
X147885999Y-81569000D02*
X148786001Y-81569000D01*
G75*
G02*
X149036000Y-81818999I0J-249999D01*
G01*
X149036000Y-82519001D01*
G75*
G02*
X148786001Y-82769000I-249999J0D01*
G01*
X147885999Y-82769000D01*
G75*
G02*
X147636000Y-82519001I0J249999D01*
G01*
X147636000Y-81818999D01*
G75*
G02*
X147885999Y-81569000I249999J0D01*
G01*
G37*
%TD.AperFunction*%
%TO.P,R7,1*%
%TO.N,Net-(R6-Pad2)*%
%TA.AperFunction,SMDPad,CuDef*%
G36*
G01*
X147885999Y-79569000D02*
X148786001Y-79569000D01*
G75*
G02*
X149036000Y-79818999I0J-249999D01*
G01*
X149036000Y-80519001D01*
G75*
G02*
X148786001Y-80769000I-249999J0D01*
G01*
X147885999Y-80769000D01*
G75*
G02*
X147636000Y-80519001I0J249999D01*
G01*
X147636000Y-79818999D01*
G75*
G02*
X147885999Y-79569000I249999J0D01*
G01*
G37*
%TD.AperFunction*%
%TD*%
%TO.P,R6,2*%
%TO.N,Net-(R6-Pad2)*%
%TA.AperFunction,SMDPad,CuDef*%
G36*
G01*
X150691001Y-80737000D02*
X149790999Y-80737000D01*
G75*
G02*
X149541000Y-80487001I0J249999D01*
G01*
X149541000Y-79786999D01*
G75*
G02*
X149790999Y-79537000I249999J0D01*
G01*
X150691001Y-79537000D01*
G75*
G02*
X150941000Y-79786999I0J-249999D01*
G01*
X150941000Y-80487001D01*
G75*
G02*
X150691001Y-80737000I-249999J0D01*
G01*
G37*
%TD.AperFunction*%
%TO.P,R6,1*%
%TO.N,VCC_UNREGULATED*%
%TA.AperFunction,SMDPad,CuDef*%
G36*
G01*
X150691001Y-82737000D02*
X149790999Y-82737000D01*
G75*
G02*
X149541000Y-82487001I0J249999D01*
G01*
X149541000Y-81786999D01*
G75*
G02*
X149790999Y-81537000I249999J0D01*
G01*
X150691001Y-81537000D01*
G75*
G02*
X150941000Y-81786999I0J-249999D01*
G01*
X150941000Y-82487001D01*
G75*
G02*
X150691001Y-82737000I-249999J0D01*
G01*
G37*
%TD.AperFunction*%
%TD*%
%TO.P,C16,2*%
%TO.N,GND*%
%TA.AperFunction,SMDPad,CuDef*%
G36*
G01*
X160450500Y-78824001D02*
X160450500Y-76623999D01*
G75*
G02*
X160700499Y-76374000I249999J0D01*
G01*
X161525501Y-76374000D01*
G75*
G02*
X161775500Y-76623999I0J-249999D01*
G01*
X161775500Y-78824001D01*
G75*
G02*
X161525501Y-79074000I-249999J0D01*
G01*
X160700499Y-79074000D01*
G75*
G02*
X160450500Y-78824001I0J249999D01*
G01*
G37*
%TD.AperFunction*%
%TO.P,C16,1*%
%TO.N,+3V3*%
%TA.AperFunction,SMDPad,CuDef*%
G36*
G01*
X157325500Y-78824001D02*
X157325500Y-76623999D01*
G75*
G02*
X157575499Y-76374000I249999J0D01*
G01*
X158400501Y-76374000D01*
G75*
G02*
X158650500Y-76623999I0J-249999D01*
G01*
X158650500Y-78824001D01*
G75*
G02*
X158400501Y-79074000I-249999J0D01*
G01*
X157575499Y-79074000D01*
G75*
G02*
X157325500Y-78824001I0J249999D01*
G01*
G37*
%TD.AperFunction*%
%TD*%
D12*
%TO.P,D3,2*%
%TO.N,VCC_UNREGULATED*%
X168130000Y-70612000D03*
%TO.P,D3,1*%
%TO.N,Net-(C13-Pad1)*%
X163830000Y-70612000D03*
%TD*%
D13*
%TO.P,U7,5*%
%TO.N,Net-(R12-Pad2)*%
X142433000Y-69008000D03*
%TO.P,U7,4*%
%TO.N,VBUS*%
X144333000Y-69008000D03*
%TO.P,U7,3*%
%TO.N,/Power Management/BATT_IN*%
X144333000Y-71708000D03*
%TO.P,U7,2*%
%TO.N,GND*%
X143383000Y-71708000D03*
%TO.P,U7,1*%
%TO.N,Net-(D4-Pad1)*%
X142433000Y-71708000D03*
%TD*%
D14*
%TO.P,J2,S1*%
%TO.N,GND*%
X159282000Y-65034000D03*
X159282000Y-68834000D03*
X150632000Y-65084000D03*
X150632000Y-68884000D03*
D15*
%TO.P,J2,A12*%
X152182000Y-68834000D03*
D16*
%TO.P,J2,A9*%
%TO.N,VBUS*%
X153412000Y-68834000D03*
D17*
%TO.P,J2,B5*%
%TO.N,Net-(J2-PadB5)*%
X154432000Y-68834000D03*
%TO.P,J2,A5*%
%TO.N,Net-(J2-PadA5)*%
X155432000Y-68834000D03*
D16*
%TO.P,J2,B9*%
%TO.N,VBUS*%
X156452000Y-68834000D03*
D15*
%TO.P,J2,B12*%
%TO.N,GND*%
X157682000Y-68834000D03*
%TD*%
%TO.P,TH3,2*%
%TO.N,GND*%
%TA.AperFunction,SMDPad,CuDef*%
G36*
G01*
X163954000Y-127819999D02*
X163954000Y-128720001D01*
G75*
G02*
X163704001Y-128970000I-249999J0D01*
G01*
X163003999Y-128970000D01*
G75*
G02*
X162754000Y-128720001I0J249999D01*
G01*
X162754000Y-127819999D01*
G75*
G02*
X163003999Y-127570000I249999J0D01*
G01*
X163704001Y-127570000D01*
G75*
G02*
X163954000Y-127819999I0J-249999D01*
G01*
G37*
%TD.AperFunction*%
%TO.P,TH3,1*%
%TO.N,TEMP_SENSE_3*%
%TA.AperFunction,SMDPad,CuDef*%
G36*
G01*
X165954000Y-127819999D02*
X165954000Y-128720001D01*
G75*
G02*
X165704001Y-128970000I-249999J0D01*
G01*
X165003999Y-128970000D01*
G75*
G02*
X164754000Y-128720001I0J249999D01*
G01*
X164754000Y-127819999D01*
G75*
G02*
X165003999Y-127570000I249999J0D01*
G01*
X165704001Y-127570000D01*
G75*
G02*
X165954000Y-127819999I0J-249999D01*
G01*
G37*
%TD.AperFunction*%
%TD*%
%TO.P,TH2,2*%
%TO.N,GND*%
%TA.AperFunction,SMDPad,CuDef*%
G36*
G01*
X150619000Y-115119999D02*
X150619000Y-116020001D01*
G75*
G02*
X150369001Y-116270000I-249999J0D01*
G01*
X149668999Y-116270000D01*
G75*
G02*
X149419000Y-116020001I0J249999D01*
G01*
X149419000Y-115119999D01*
G75*
G02*
X149668999Y-114870000I249999J0D01*
G01*
X150369001Y-114870000D01*
G75*
G02*
X150619000Y-115119999I0J-249999D01*
G01*
G37*
%TD.AperFunction*%
%TO.P,TH2,1*%
%TO.N,TEMP_SENSE_2*%
%TA.AperFunction,SMDPad,CuDef*%
G36*
G01*
X152619000Y-115119999D02*
X152619000Y-116020001D01*
G75*
G02*
X152369001Y-116270000I-249999J0D01*
G01*
X151668999Y-116270000D01*
G75*
G02*
X151419000Y-116020001I0J249999D01*
G01*
X151419000Y-115119999D01*
G75*
G02*
X151668999Y-114870000I249999J0D01*
G01*
X152369001Y-114870000D01*
G75*
G02*
X152619000Y-115119999I0J-249999D01*
G01*
G37*
%TD.AperFunction*%
%TD*%
%TO.P,TH1,2*%
%TO.N,GND*%
%TA.AperFunction,SMDPad,CuDef*%
G36*
G01*
X141475000Y-105975999D02*
X141475000Y-106876001D01*
G75*
G02*
X141225001Y-107126000I-249999J0D01*
G01*
X140524999Y-107126000D01*
G75*
G02*
X140275000Y-106876001I0J249999D01*
G01*
X140275000Y-105975999D01*
G75*
G02*
X140524999Y-105726000I249999J0D01*
G01*
X141225001Y-105726000D01*
G75*
G02*
X141475000Y-105975999I0J-249999D01*
G01*
G37*
%TD.AperFunction*%
%TO.P,TH1,1*%
%TO.N,TEMP_SENSE_1*%
%TA.AperFunction,SMDPad,CuDef*%
G36*
G01*
X143475000Y-105975999D02*
X143475000Y-106876001D01*
G75*
G02*
X143225001Y-107126000I-249999J0D01*
G01*
X142524999Y-107126000D01*
G75*
G02*
X142275000Y-106876001I0J249999D01*
G01*
X142275000Y-105975999D01*
G75*
G02*
X142524999Y-105726000I249999J0D01*
G01*
X143225001Y-105726000D01*
G75*
G02*
X143475000Y-105975999I0J-249999D01*
G01*
G37*
%TD.AperFunction*%
%TD*%
%TO.P,R24,2*%
%TO.N,TEMP_SENSE_3*%
%TA.AperFunction,SMDPad,CuDef*%
G36*
G01*
X164700500Y-126662601D02*
X164700500Y-125762599D01*
G75*
G02*
X164950499Y-125512600I249999J0D01*
G01*
X165650501Y-125512600D01*
G75*
G02*
X165900500Y-125762599I0J-249999D01*
G01*
X165900500Y-126662601D01*
G75*
G02*
X165650501Y-126912600I-249999J0D01*
G01*
X164950499Y-126912600D01*
G75*
G02*
X164700500Y-126662601I0J249999D01*
G01*
G37*
%TD.AperFunction*%
%TO.P,R24,1*%
%TO.N,+3V3*%
%TA.AperFunction,SMDPad,CuDef*%
G36*
G01*
X162700500Y-126662601D02*
X162700500Y-125762599D01*
G75*
G02*
X162950499Y-125512600I249999J0D01*
G01*
X163650501Y-125512600D01*
G75*
G02*
X163900500Y-125762599I0J-249999D01*
G01*
X163900500Y-126662601D01*
G75*
G02*
X163650501Y-126912600I-249999J0D01*
G01*
X162950499Y-126912600D01*
G75*
G02*
X162700500Y-126662601I0J249999D01*
G01*
G37*
%TD.AperFunction*%
%TD*%
%TO.P,R21,2*%
%TO.N,TEMP_SENSE_2*%
%TA.AperFunction,SMDPad,CuDef*%
G36*
G01*
X151419000Y-113734001D02*
X151419000Y-112833999D01*
G75*
G02*
X151668999Y-112584000I249999J0D01*
G01*
X152369001Y-112584000D01*
G75*
G02*
X152619000Y-112833999I0J-249999D01*
G01*
X152619000Y-113734001D01*
G75*
G02*
X152369001Y-113984000I-249999J0D01*
G01*
X151668999Y-113984000D01*
G75*
G02*
X151419000Y-113734001I0J249999D01*
G01*
G37*
%TD.AperFunction*%
%TO.P,R21,1*%
%TO.N,+3V3*%
%TA.AperFunction,SMDPad,CuDef*%
G36*
G01*
X149419000Y-113734001D02*
X149419000Y-112833999D01*
G75*
G02*
X149668999Y-112584000I249999J0D01*
G01*
X150369001Y-112584000D01*
G75*
G02*
X150619000Y-112833999I0J-249999D01*
G01*
X150619000Y-113734001D01*
G75*
G02*
X150369001Y-113984000I-249999J0D01*
G01*
X149668999Y-113984000D01*
G75*
G02*
X149419000Y-113734001I0J249999D01*
G01*
G37*
%TD.AperFunction*%
%TD*%
%TO.P,R20,2*%
%TO.N,TEMP_SENSE_1*%
%TA.AperFunction,SMDPad,CuDef*%
G36*
G01*
X142246500Y-104593601D02*
X142246500Y-103693599D01*
G75*
G02*
X142496499Y-103443600I249999J0D01*
G01*
X143196501Y-103443600D01*
G75*
G02*
X143446500Y-103693599I0J-249999D01*
G01*
X143446500Y-104593601D01*
G75*
G02*
X143196501Y-104843600I-249999J0D01*
G01*
X142496499Y-104843600D01*
G75*
G02*
X142246500Y-104593601I0J249999D01*
G01*
G37*
%TD.AperFunction*%
%TO.P,R20,1*%
%TO.N,+3V3*%
%TA.AperFunction,SMDPad,CuDef*%
G36*
G01*
X140246500Y-104593601D02*
X140246500Y-103693599D01*
G75*
G02*
X140496499Y-103443600I249999J0D01*
G01*
X141196501Y-103443600D01*
G75*
G02*
X141446500Y-103693599I0J-249999D01*
G01*
X141446500Y-104593601D01*
G75*
G02*
X141196501Y-104843600I-249999J0D01*
G01*
X140496499Y-104843600D01*
G75*
G02*
X140246500Y-104593601I0J249999D01*
G01*
G37*
%TD.AperFunction*%
%TD*%
D18*
%TO.P,Y1,4*%
%TO.N,GND*%
X136652000Y-77470000D03*
%TO.P,Y1,3*%
%TO.N,Net-(C7-Pad1)*%
X136652000Y-74570000D03*
%TO.P,Y1,2*%
%TO.N,GND*%
X138852000Y-74570000D03*
%TO.P,Y1,1*%
%TO.N,Net-(C6-Pad1)*%
X138852000Y-77470000D03*
%TD*%
%TO.P,U5,8*%
%TO.N,Net-(C13-Pad1)*%
%TA.AperFunction,SMDPad,CuDef*%
G36*
G01*
X167362000Y-73810000D02*
X167362000Y-73510000D01*
G75*
G02*
X167512000Y-73360000I150000J0D01*
G01*
X169162000Y-73360000D01*
G75*
G02*
X169312000Y-73510000I0J-150000D01*
G01*
X169312000Y-73810000D01*
G75*
G02*
X169162000Y-73960000I-150000J0D01*
G01*
X167512000Y-73960000D01*
G75*
G02*
X167362000Y-73810000I0J150000D01*
G01*
G37*
%TD.AperFunction*%
%TO.P,U5,7*%
%TO.N,Net-(R4-Pad2)*%
%TA.AperFunction,SMDPad,CuDef*%
G36*
G01*
X167362000Y-75080000D02*
X167362000Y-74780000D01*
G75*
G02*
X167512000Y-74630000I150000J0D01*
G01*
X169162000Y-74630000D01*
G75*
G02*
X169312000Y-74780000I0J-150000D01*
G01*
X169312000Y-75080000D01*
G75*
G02*
X169162000Y-75230000I-150000J0D01*
G01*
X167512000Y-75230000D01*
G75*
G02*
X167362000Y-75080000I0J150000D01*
G01*
G37*
%TD.AperFunction*%
%TO.P,U5,6*%
%TO.N,/Peltier Driver/PELTIER_N*%
%TA.AperFunction,SMDPad,CuDef*%
G36*
G01*
X167362000Y-76350000D02*
X167362000Y-76050000D01*
G75*
G02*
X167512000Y-75900000I150000J0D01*
G01*
X169162000Y-75900000D01*
G75*
G02*
X169312000Y-76050000I0J-150000D01*
G01*
X169312000Y-76350000D01*
G75*
G02*
X169162000Y-76500000I-150000J0D01*
G01*
X167512000Y-76500000D01*
G75*
G02*
X167362000Y-76350000I0J150000D01*
G01*
G37*
%TD.AperFunction*%
%TO.P,U5,5*%
%TO.N,Net-(R5-Pad2)*%
%TA.AperFunction,SMDPad,CuDef*%
G36*
G01*
X167362000Y-77620000D02*
X167362000Y-77320000D01*
G75*
G02*
X167512000Y-77170000I150000J0D01*
G01*
X169162000Y-77170000D01*
G75*
G02*
X169312000Y-77320000I0J-150000D01*
G01*
X169312000Y-77620000D01*
G75*
G02*
X169162000Y-77770000I-150000J0D01*
G01*
X167512000Y-77770000D01*
G75*
G02*
X167362000Y-77620000I0J150000D01*
G01*
G37*
%TD.AperFunction*%
%TO.P,U5,4*%
%TO.N,GND*%
%TA.AperFunction,SMDPad,CuDef*%
G36*
G01*
X162412000Y-77620000D02*
X162412000Y-77320000D01*
G75*
G02*
X162562000Y-77170000I150000J0D01*
G01*
X164212000Y-77170000D01*
G75*
G02*
X164362000Y-77320000I0J-150000D01*
G01*
X164362000Y-77620000D01*
G75*
G02*
X164212000Y-77770000I-150000J0D01*
G01*
X162562000Y-77770000D01*
G75*
G02*
X162412000Y-77620000I0J150000D01*
G01*
G37*
%TD.AperFunction*%
%TO.P,U5,3*%
%TO.N,DRIVER_N*%
%TA.AperFunction,SMDPad,CuDef*%
G36*
G01*
X162412000Y-76350000D02*
X162412000Y-76050000D01*
G75*
G02*
X162562000Y-75900000I150000J0D01*
G01*
X164212000Y-75900000D01*
G75*
G02*
X164362000Y-76050000I0J-150000D01*
G01*
X164362000Y-76350000D01*
G75*
G02*
X164212000Y-76500000I-150000J0D01*
G01*
X162562000Y-76500000D01*
G75*
G02*
X162412000Y-76350000I0J150000D01*
G01*
G37*
%TD.AperFunction*%
%TO.P,U5,2*%
%TA.AperFunction,SMDPad,CuDef*%
G36*
G01*
X162412000Y-75080000D02*
X162412000Y-74780000D01*
G75*
G02*
X162562000Y-74630000I150000J0D01*
G01*
X164212000Y-74630000D01*
G75*
G02*
X164362000Y-74780000I0J-150000D01*
G01*
X164362000Y-75080000D01*
G75*
G02*
X164212000Y-75230000I-150000J0D01*
G01*
X162562000Y-75230000D01*
G75*
G02*
X162412000Y-75080000I0J150000D01*
G01*
G37*
%TD.AperFunction*%
%TO.P,U5,1*%
%TO.N,VCC_UNREGULATED*%
%TA.AperFunction,SMDPad,CuDef*%
G36*
G01*
X162412000Y-73810000D02*
X162412000Y-73510000D01*
G75*
G02*
X162562000Y-73360000I150000J0D01*
G01*
X164212000Y-73360000D01*
G75*
G02*
X164362000Y-73510000I0J-150000D01*
G01*
X164362000Y-73810000D01*
G75*
G02*
X164212000Y-73960000I-150000J0D01*
G01*
X162562000Y-73960000D01*
G75*
G02*
X162412000Y-73810000I0J150000D01*
G01*
G37*
%TD.AperFunction*%
%TD*%
%TO.P,U2,8*%
%TO.N,Net-(C12-Pad1)*%
%TA.AperFunction,SMDPad,CuDef*%
G36*
G01*
X168172000Y-67414000D02*
X168172000Y-67714000D01*
G75*
G02*
X168022000Y-67864000I-150000J0D01*
G01*
X166372000Y-67864000D01*
G75*
G02*
X166222000Y-67714000I0J150000D01*
G01*
X166222000Y-67414000D01*
G75*
G02*
X166372000Y-67264000I150000J0D01*
G01*
X168022000Y-67264000D01*
G75*
G02*
X168172000Y-67414000I0J-150000D01*
G01*
G37*
%TD.AperFunction*%
%TO.P,U2,7*%
%TO.N,Net-(R2-Pad2)*%
%TA.AperFunction,SMDPad,CuDef*%
G36*
G01*
X168172000Y-66144000D02*
X168172000Y-66444000D01*
G75*
G02*
X168022000Y-66594000I-150000J0D01*
G01*
X166372000Y-66594000D01*
G75*
G02*
X166222000Y-66444000I0J150000D01*
G01*
X166222000Y-66144000D01*
G75*
G02*
X166372000Y-65994000I150000J0D01*
G01*
X168022000Y-65994000D01*
G75*
G02*
X168172000Y-66144000I0J-150000D01*
G01*
G37*
%TD.AperFunction*%
%TO.P,U2,6*%
%TO.N,/Peltier Driver/PELTIER_P*%
%TA.AperFunction,SMDPad,CuDef*%
G36*
G01*
X168172000Y-64874000D02*
X168172000Y-65174000D01*
G75*
G02*
X168022000Y-65324000I-150000J0D01*
G01*
X166372000Y-65324000D01*
G75*
G02*
X166222000Y-65174000I0J150000D01*
G01*
X166222000Y-64874000D01*
G75*
G02*
X166372000Y-64724000I150000J0D01*
G01*
X168022000Y-64724000D01*
G75*
G02*
X168172000Y-64874000I0J-150000D01*
G01*
G37*
%TD.AperFunction*%
%TO.P,U2,5*%
%TO.N,Net-(R3-Pad2)*%
%TA.AperFunction,SMDPad,CuDef*%
G36*
G01*
X168172000Y-63604000D02*
X168172000Y-63904000D01*
G75*
G02*
X168022000Y-64054000I-150000J0D01*
G01*
X166372000Y-64054000D01*
G75*
G02*
X166222000Y-63904000I0J150000D01*
G01*
X166222000Y-63604000D01*
G75*
G02*
X166372000Y-63454000I150000J0D01*
G01*
X168022000Y-63454000D01*
G75*
G02*
X168172000Y-63604000I0J-150000D01*
G01*
G37*
%TD.AperFunction*%
%TO.P,U2,4*%
%TO.N,GND*%
%TA.AperFunction,SMDPad,CuDef*%
G36*
G01*
X173122000Y-63604000D02*
X173122000Y-63904000D01*
G75*
G02*
X172972000Y-64054000I-150000J0D01*
G01*
X171322000Y-64054000D01*
G75*
G02*
X171172000Y-63904000I0J150000D01*
G01*
X171172000Y-63604000D01*
G75*
G02*
X171322000Y-63454000I150000J0D01*
G01*
X172972000Y-63454000D01*
G75*
G02*
X173122000Y-63604000I0J-150000D01*
G01*
G37*
%TD.AperFunction*%
%TO.P,U2,3*%
%TO.N,DRIVER_P*%
%TA.AperFunction,SMDPad,CuDef*%
G36*
G01*
X173122000Y-64874000D02*
X173122000Y-65174000D01*
G75*
G02*
X172972000Y-65324000I-150000J0D01*
G01*
X171322000Y-65324000D01*
G75*
G02*
X171172000Y-65174000I0J150000D01*
G01*
X171172000Y-64874000D01*
G75*
G02*
X171322000Y-64724000I150000J0D01*
G01*
X172972000Y-64724000D01*
G75*
G02*
X173122000Y-64874000I0J-150000D01*
G01*
G37*
%TD.AperFunction*%
%TO.P,U2,2*%
%TA.AperFunction,SMDPad,CuDef*%
G36*
G01*
X173122000Y-66144000D02*
X173122000Y-66444000D01*
G75*
G02*
X172972000Y-66594000I-150000J0D01*
G01*
X171322000Y-66594000D01*
G75*
G02*
X171172000Y-66444000I0J150000D01*
G01*
X171172000Y-66144000D01*
G75*
G02*
X171322000Y-65994000I150000J0D01*
G01*
X172972000Y-65994000D01*
G75*
G02*
X173122000Y-66144000I0J-150000D01*
G01*
G37*
%TD.AperFunction*%
%TO.P,U2,1*%
%TO.N,VCC_UNREGULATED*%
%TA.AperFunction,SMDPad,CuDef*%
G36*
G01*
X173122000Y-67414000D02*
X173122000Y-67714000D01*
G75*
G02*
X172972000Y-67864000I-150000J0D01*
G01*
X171322000Y-67864000D01*
G75*
G02*
X171172000Y-67714000I0J150000D01*
G01*
X171172000Y-67414000D01*
G75*
G02*
X171322000Y-67264000I150000J0D01*
G01*
X172972000Y-67264000D01*
G75*
G02*
X173122000Y-67414000I0J-150000D01*
G01*
G37*
%TD.AperFunction*%
%TD*%
D19*
%TO.P,U1,49*%
%TO.N,GND*%
X145821333Y-76428667D03*
X145821333Y-77495334D03*
X145821333Y-78562000D03*
X145821333Y-79628667D03*
X144754666Y-76428667D03*
X144754666Y-77495334D03*
X144754666Y-78562000D03*
X144754666Y-79628667D03*
X143688000Y-76428667D03*
X143688000Y-77495334D03*
X143688000Y-78562000D03*
X143688000Y-79628667D03*
X142621333Y-76428667D03*
X142621333Y-77495334D03*
X142621333Y-78562000D03*
X142621333Y-79628667D03*
D20*
X144221333Y-78028667D03*
%TO.P,U1,48*%
%TO.N,Net-(C3-Pad2)*%
%TA.AperFunction,SMDPad,CuDef*%
G36*
G01*
X142121333Y-79703667D02*
X141421333Y-79703667D01*
G75*
G02*
X141371333Y-79653667I0J50000D01*
G01*
X141371333Y-79553667D01*
G75*
G02*
X141421333Y-79503667I50000J0D01*
G01*
X142121333Y-79503667D01*
G75*
G02*
X142171333Y-79553667I0J-50000D01*
G01*
X142171333Y-79653667D01*
G75*
G02*
X142121333Y-79703667I-50000J0D01*
G01*
G37*
%TD.AperFunction*%
%TO.P,U1,47*%
%TO.N,Net-(C3-Pad1)*%
%TA.AperFunction,SMDPad,CuDef*%
G36*
G01*
X142121333Y-79353667D02*
X141421333Y-79353667D01*
G75*
G02*
X141371333Y-79303667I0J50000D01*
G01*
X141371333Y-79203667D01*
G75*
G02*
X141421333Y-79153667I50000J0D01*
G01*
X142121333Y-79153667D01*
G75*
G02*
X142171333Y-79203667I0J-50000D01*
G01*
X142171333Y-79303667D01*
G75*
G02*
X142121333Y-79353667I-50000J0D01*
G01*
G37*
%TD.AperFunction*%
%TO.P,U1,46*%
%TO.N,+3V3*%
%TA.AperFunction,SMDPad,CuDef*%
G36*
G01*
X142121333Y-79003667D02*
X141421333Y-79003667D01*
G75*
G02*
X141371333Y-78953667I0J50000D01*
G01*
X141371333Y-78853667D01*
G75*
G02*
X141421333Y-78803667I50000J0D01*
G01*
X142121333Y-78803667D01*
G75*
G02*
X142171333Y-78853667I0J-50000D01*
G01*
X142171333Y-78953667D01*
G75*
G02*
X142121333Y-79003667I-50000J0D01*
G01*
G37*
%TD.AperFunction*%
%TO.P,U1,45*%
%TO.N,Net-(C6-Pad1)*%
%TA.AperFunction,SMDPad,CuDef*%
G36*
G01*
X142121333Y-78653667D02*
X141421333Y-78653667D01*
G75*
G02*
X141371333Y-78603667I0J50000D01*
G01*
X141371333Y-78503667D01*
G75*
G02*
X141421333Y-78453667I50000J0D01*
G01*
X142121333Y-78453667D01*
G75*
G02*
X142171333Y-78503667I0J-50000D01*
G01*
X142171333Y-78603667D01*
G75*
G02*
X142121333Y-78653667I-50000J0D01*
G01*
G37*
%TD.AperFunction*%
%TO.P,U1,44*%
%TO.N,Net-(C7-Pad1)*%
%TA.AperFunction,SMDPad,CuDef*%
G36*
G01*
X142121333Y-78303667D02*
X141421333Y-78303667D01*
G75*
G02*
X141371333Y-78253667I0J50000D01*
G01*
X141371333Y-78153667D01*
G75*
G02*
X141421333Y-78103667I50000J0D01*
G01*
X142121333Y-78103667D01*
G75*
G02*
X142171333Y-78153667I0J-50000D01*
G01*
X142171333Y-78253667D01*
G75*
G02*
X142121333Y-78303667I-50000J0D01*
G01*
G37*
%TD.AperFunction*%
%TO.P,U1,43*%
%TO.N,+3V3*%
%TA.AperFunction,SMDPad,CuDef*%
G36*
G01*
X142121333Y-77953667D02*
X141421333Y-77953667D01*
G75*
G02*
X141371333Y-77903667I0J50000D01*
G01*
X141371333Y-77803667D01*
G75*
G02*
X141421333Y-77753667I50000J0D01*
G01*
X142121333Y-77753667D01*
G75*
G02*
X142171333Y-77803667I0J-50000D01*
G01*
X142171333Y-77903667D01*
G75*
G02*
X142121333Y-77953667I-50000J0D01*
G01*
G37*
%TD.AperFunction*%
%TO.P,U1,42*%
%TO.N,Net-(U1-Pad42)*%
%TA.AperFunction,SMDPad,CuDef*%
G36*
G01*
X142121333Y-77603667D02*
X141421333Y-77603667D01*
G75*
G02*
X141371333Y-77553667I0J50000D01*
G01*
X141371333Y-77453667D01*
G75*
G02*
X141421333Y-77403667I50000J0D01*
G01*
X142121333Y-77403667D01*
G75*
G02*
X142171333Y-77453667I0J-50000D01*
G01*
X142171333Y-77553667D01*
G75*
G02*
X142121333Y-77603667I-50000J0D01*
G01*
G37*
%TD.AperFunction*%
%TO.P,U1,41*%
%TO.N,TXD*%
%TA.AperFunction,SMDPad,CuDef*%
G36*
G01*
X142121333Y-77253667D02*
X141421333Y-77253667D01*
G75*
G02*
X141371333Y-77203667I0J50000D01*
G01*
X141371333Y-77103667D01*
G75*
G02*
X141421333Y-77053667I50000J0D01*
G01*
X142121333Y-77053667D01*
G75*
G02*
X142171333Y-77103667I0J-50000D01*
G01*
X142171333Y-77203667D01*
G75*
G02*
X142121333Y-77253667I-50000J0D01*
G01*
G37*
%TD.AperFunction*%
%TO.P,U1,40*%
%TO.N,RXD*%
%TA.AperFunction,SMDPad,CuDef*%
G36*
G01*
X142121333Y-76903667D02*
X141421333Y-76903667D01*
G75*
G02*
X141371333Y-76853667I0J50000D01*
G01*
X141371333Y-76753667D01*
G75*
G02*
X141421333Y-76703667I50000J0D01*
G01*
X142121333Y-76703667D01*
G75*
G02*
X142171333Y-76753667I0J-50000D01*
G01*
X142171333Y-76853667D01*
G75*
G02*
X142121333Y-76903667I-50000J0D01*
G01*
G37*
%TD.AperFunction*%
%TO.P,U1,39*%
%TO.N,Net-(U1-Pad39)*%
%TA.AperFunction,SMDPad,CuDef*%
G36*
G01*
X142121333Y-76553667D02*
X141421333Y-76553667D01*
G75*
G02*
X141371333Y-76503667I0J50000D01*
G01*
X141371333Y-76403667D01*
G75*
G02*
X141421333Y-76353667I50000J0D01*
G01*
X142121333Y-76353667D01*
G75*
G02*
X142171333Y-76403667I0J-50000D01*
G01*
X142171333Y-76503667D01*
G75*
G02*
X142121333Y-76553667I-50000J0D01*
G01*
G37*
%TD.AperFunction*%
%TO.P,U1,38*%
%TO.N,Net-(U1-Pad38)*%
%TA.AperFunction,SMDPad,CuDef*%
G36*
G01*
X141996333Y-75978667D02*
X141896333Y-75978667D01*
G75*
G02*
X141846333Y-75928667I0J50000D01*
G01*
X141846333Y-75228667D01*
G75*
G02*
X141896333Y-75178667I50000J0D01*
G01*
X141996333Y-75178667D01*
G75*
G02*
X142046333Y-75228667I0J-50000D01*
G01*
X142046333Y-75928667D01*
G75*
G02*
X141996333Y-75978667I-50000J0D01*
G01*
G37*
%TD.AperFunction*%
%TO.P,U1,37*%
%TO.N,+3V3*%
%TA.AperFunction,SMDPad,CuDef*%
G36*
G01*
X142346333Y-75978667D02*
X142246333Y-75978667D01*
G75*
G02*
X142196333Y-75928667I0J50000D01*
G01*
X142196333Y-75228667D01*
G75*
G02*
X142246333Y-75178667I50000J0D01*
G01*
X142346333Y-75178667D01*
G75*
G02*
X142396333Y-75228667I0J-50000D01*
G01*
X142396333Y-75928667D01*
G75*
G02*
X142346333Y-75978667I-50000J0D01*
G01*
G37*
%TD.AperFunction*%
%TO.P,U1,36*%
%TO.N,Net-(U1-Pad36)*%
%TA.AperFunction,SMDPad,CuDef*%
G36*
G01*
X142696333Y-75978667D02*
X142596333Y-75978667D01*
G75*
G02*
X142546333Y-75928667I0J50000D01*
G01*
X142546333Y-75228667D01*
G75*
G02*
X142596333Y-75178667I50000J0D01*
G01*
X142696333Y-75178667D01*
G75*
G02*
X142746333Y-75228667I0J-50000D01*
G01*
X142746333Y-75928667D01*
G75*
G02*
X142696333Y-75978667I-50000J0D01*
G01*
G37*
%TD.AperFunction*%
%TO.P,U1,35*%
%TO.N,Net-(U1-Pad35)*%
%TA.AperFunction,SMDPad,CuDef*%
G36*
G01*
X143046333Y-75978667D02*
X142946333Y-75978667D01*
G75*
G02*
X142896333Y-75928667I0J50000D01*
G01*
X142896333Y-75228667D01*
G75*
G02*
X142946333Y-75178667I50000J0D01*
G01*
X143046333Y-75178667D01*
G75*
G02*
X143096333Y-75228667I0J-50000D01*
G01*
X143096333Y-75928667D01*
G75*
G02*
X143046333Y-75978667I-50000J0D01*
G01*
G37*
%TD.AperFunction*%
%TO.P,U1,34*%
%TO.N,Net-(U1-Pad34)*%
%TA.AperFunction,SMDPad,CuDef*%
G36*
G01*
X143396333Y-75978667D02*
X143296333Y-75978667D01*
G75*
G02*
X143246333Y-75928667I0J50000D01*
G01*
X143246333Y-75228667D01*
G75*
G02*
X143296333Y-75178667I50000J0D01*
G01*
X143396333Y-75178667D01*
G75*
G02*
X143446333Y-75228667I0J-50000D01*
G01*
X143446333Y-75928667D01*
G75*
G02*
X143396333Y-75978667I-50000J0D01*
G01*
G37*
%TD.AperFunction*%
%TO.P,U1,33*%
%TO.N,Net-(U1-Pad33)*%
%TA.AperFunction,SMDPad,CuDef*%
G36*
G01*
X143746333Y-75978667D02*
X143646333Y-75978667D01*
G75*
G02*
X143596333Y-75928667I0J50000D01*
G01*
X143596333Y-75228667D01*
G75*
G02*
X143646333Y-75178667I50000J0D01*
G01*
X143746333Y-75178667D01*
G75*
G02*
X143796333Y-75228667I0J-50000D01*
G01*
X143796333Y-75928667D01*
G75*
G02*
X143746333Y-75978667I-50000J0D01*
G01*
G37*
%TD.AperFunction*%
%TO.P,U1,32*%
%TO.N,Net-(U1-Pad32)*%
%TA.AperFunction,SMDPad,CuDef*%
G36*
G01*
X144096333Y-75978667D02*
X143996333Y-75978667D01*
G75*
G02*
X143946333Y-75928667I0J50000D01*
G01*
X143946333Y-75228667D01*
G75*
G02*
X143996333Y-75178667I50000J0D01*
G01*
X144096333Y-75178667D01*
G75*
G02*
X144146333Y-75228667I0J-50000D01*
G01*
X144146333Y-75928667D01*
G75*
G02*
X144096333Y-75978667I-50000J0D01*
G01*
G37*
%TD.AperFunction*%
%TO.P,U1,31*%
%TO.N,Net-(U1-Pad31)*%
%TA.AperFunction,SMDPad,CuDef*%
G36*
G01*
X144446333Y-75978667D02*
X144346333Y-75978667D01*
G75*
G02*
X144296333Y-75928667I0J50000D01*
G01*
X144296333Y-75228667D01*
G75*
G02*
X144346333Y-75178667I50000J0D01*
G01*
X144446333Y-75178667D01*
G75*
G02*
X144496333Y-75228667I0J-50000D01*
G01*
X144496333Y-75928667D01*
G75*
G02*
X144446333Y-75978667I-50000J0D01*
G01*
G37*
%TD.AperFunction*%
%TO.P,U1,30*%
%TO.N,Net-(U1-Pad30)*%
%TA.AperFunction,SMDPad,CuDef*%
G36*
G01*
X144796333Y-75978667D02*
X144696333Y-75978667D01*
G75*
G02*
X144646333Y-75928667I0J50000D01*
G01*
X144646333Y-75228667D01*
G75*
G02*
X144696333Y-75178667I50000J0D01*
G01*
X144796333Y-75178667D01*
G75*
G02*
X144846333Y-75228667I0J-50000D01*
G01*
X144846333Y-75928667D01*
G75*
G02*
X144796333Y-75978667I-50000J0D01*
G01*
G37*
%TD.AperFunction*%
%TO.P,U1,29*%
%TO.N,Net-(U1-Pad29)*%
%TA.AperFunction,SMDPad,CuDef*%
G36*
G01*
X145146333Y-75978667D02*
X145046333Y-75978667D01*
G75*
G02*
X144996333Y-75928667I0J50000D01*
G01*
X144996333Y-75228667D01*
G75*
G02*
X145046333Y-75178667I50000J0D01*
G01*
X145146333Y-75178667D01*
G75*
G02*
X145196333Y-75228667I0J-50000D01*
G01*
X145196333Y-75928667D01*
G75*
G02*
X145146333Y-75978667I-50000J0D01*
G01*
G37*
%TD.AperFunction*%
%TO.P,U1,28*%
%TO.N,Net-(U1-Pad28)*%
%TA.AperFunction,SMDPad,CuDef*%
G36*
G01*
X145496333Y-75978667D02*
X145396333Y-75978667D01*
G75*
G02*
X145346333Y-75928667I0J50000D01*
G01*
X145346333Y-75228667D01*
G75*
G02*
X145396333Y-75178667I50000J0D01*
G01*
X145496333Y-75178667D01*
G75*
G02*
X145546333Y-75228667I0J-50000D01*
G01*
X145546333Y-75928667D01*
G75*
G02*
X145496333Y-75978667I-50000J0D01*
G01*
G37*
%TD.AperFunction*%
%TO.P,U1,27*%
%TO.N,Net-(U1-Pad27)*%
%TA.AperFunction,SMDPad,CuDef*%
G36*
G01*
X145846333Y-75978667D02*
X145746333Y-75978667D01*
G75*
G02*
X145696333Y-75928667I0J50000D01*
G01*
X145696333Y-75228667D01*
G75*
G02*
X145746333Y-75178667I50000J0D01*
G01*
X145846333Y-75178667D01*
G75*
G02*
X145896333Y-75228667I0J-50000D01*
G01*
X145896333Y-75928667D01*
G75*
G02*
X145846333Y-75978667I-50000J0D01*
G01*
G37*
%TD.AperFunction*%
%TO.P,U1,26*%
%TO.N,Net-(U1-Pad26)*%
%TA.AperFunction,SMDPad,CuDef*%
G36*
G01*
X146196333Y-75978667D02*
X146096333Y-75978667D01*
G75*
G02*
X146046333Y-75928667I0J50000D01*
G01*
X146046333Y-75228667D01*
G75*
G02*
X146096333Y-75178667I50000J0D01*
G01*
X146196333Y-75178667D01*
G75*
G02*
X146246333Y-75228667I0J-50000D01*
G01*
X146246333Y-75928667D01*
G75*
G02*
X146196333Y-75978667I-50000J0D01*
G01*
G37*
%TD.AperFunction*%
%TO.P,U1,25*%
%TO.N,Net-(U1-Pad25)*%
%TA.AperFunction,SMDPad,CuDef*%
G36*
G01*
X146546333Y-75978667D02*
X146446333Y-75978667D01*
G75*
G02*
X146396333Y-75928667I0J50000D01*
G01*
X146396333Y-75228667D01*
G75*
G02*
X146446333Y-75178667I50000J0D01*
G01*
X146546333Y-75178667D01*
G75*
G02*
X146596333Y-75228667I0J-50000D01*
G01*
X146596333Y-75928667D01*
G75*
G02*
X146546333Y-75978667I-50000J0D01*
G01*
G37*
%TD.AperFunction*%
%TO.P,U1,24*%
%TO.N,Net-(U1-Pad24)*%
%TA.AperFunction,SMDPad,CuDef*%
G36*
G01*
X147021333Y-76553667D02*
X146321333Y-76553667D01*
G75*
G02*
X146271333Y-76503667I0J50000D01*
G01*
X146271333Y-76403667D01*
G75*
G02*
X146321333Y-76353667I50000J0D01*
G01*
X147021333Y-76353667D01*
G75*
G02*
X147071333Y-76403667I0J-50000D01*
G01*
X147071333Y-76503667D01*
G75*
G02*
X147021333Y-76553667I-50000J0D01*
G01*
G37*
%TD.AperFunction*%
%TO.P,U1,23*%
%TO.N,Net-(U1-Pad23)*%
%TA.AperFunction,SMDPad,CuDef*%
G36*
G01*
X147021333Y-76903667D02*
X146321333Y-76903667D01*
G75*
G02*
X146271333Y-76853667I0J50000D01*
G01*
X146271333Y-76753667D01*
G75*
G02*
X146321333Y-76703667I50000J0D01*
G01*
X147021333Y-76703667D01*
G75*
G02*
X147071333Y-76753667I0J-50000D01*
G01*
X147071333Y-76853667D01*
G75*
G02*
X147021333Y-76903667I-50000J0D01*
G01*
G37*
%TD.AperFunction*%
%TO.P,U1,22*%
%TO.N,Net-(U1-Pad22)*%
%TA.AperFunction,SMDPad,CuDef*%
G36*
G01*
X147021333Y-77253667D02*
X146321333Y-77253667D01*
G75*
G02*
X146271333Y-77203667I0J50000D01*
G01*
X146271333Y-77103667D01*
G75*
G02*
X146321333Y-77053667I50000J0D01*
G01*
X147021333Y-77053667D01*
G75*
G02*
X147071333Y-77103667I0J-50000D01*
G01*
X147071333Y-77203667D01*
G75*
G02*
X147021333Y-77253667I-50000J0D01*
G01*
G37*
%TD.AperFunction*%
%TO.P,U1,21*%
%TO.N,Net-(U1-Pad21)*%
%TA.AperFunction,SMDPad,CuDef*%
G36*
G01*
X147021333Y-77603667D02*
X146321333Y-77603667D01*
G75*
G02*
X146271333Y-77553667I0J50000D01*
G01*
X146271333Y-77453667D01*
G75*
G02*
X146321333Y-77403667I50000J0D01*
G01*
X147021333Y-77403667D01*
G75*
G02*
X147071333Y-77453667I0J-50000D01*
G01*
X147071333Y-77553667D01*
G75*
G02*
X147021333Y-77603667I-50000J0D01*
G01*
G37*
%TD.AperFunction*%
%TO.P,U1,20*%
%TO.N,Net-(U1-Pad20)*%
%TA.AperFunction,SMDPad,CuDef*%
G36*
G01*
X147021333Y-77953667D02*
X146321333Y-77953667D01*
G75*
G02*
X146271333Y-77903667I0J50000D01*
G01*
X146271333Y-77803667D01*
G75*
G02*
X146321333Y-77753667I50000J0D01*
G01*
X147021333Y-77753667D01*
G75*
G02*
X147071333Y-77803667I0J-50000D01*
G01*
X147071333Y-77903667D01*
G75*
G02*
X147021333Y-77953667I-50000J0D01*
G01*
G37*
%TD.AperFunction*%
%TO.P,U1,19*%
%TO.N,+3V3*%
%TA.AperFunction,SMDPad,CuDef*%
G36*
G01*
X147021333Y-78303667D02*
X146321333Y-78303667D01*
G75*
G02*
X146271333Y-78253667I0J50000D01*
G01*
X146271333Y-78153667D01*
G75*
G02*
X146321333Y-78103667I50000J0D01*
G01*
X147021333Y-78103667D01*
G75*
G02*
X147071333Y-78153667I0J-50000D01*
G01*
X147071333Y-78253667D01*
G75*
G02*
X147021333Y-78303667I-50000J0D01*
G01*
G37*
%TD.AperFunction*%
%TO.P,U1,18*%
%TO.N,Net-(U1-Pad18)*%
%TA.AperFunction,SMDPad,CuDef*%
G36*
G01*
X147021333Y-78653667D02*
X146321333Y-78653667D01*
G75*
G02*
X146271333Y-78603667I0J50000D01*
G01*
X146271333Y-78503667D01*
G75*
G02*
X146321333Y-78453667I50000J0D01*
G01*
X147021333Y-78453667D01*
G75*
G02*
X147071333Y-78503667I0J-50000D01*
G01*
X147071333Y-78603667D01*
G75*
G02*
X147021333Y-78653667I-50000J0D01*
G01*
G37*
%TD.AperFunction*%
%TO.P,U1,17*%
%TO.N,Net-(U1-Pad17)*%
%TA.AperFunction,SMDPad,CuDef*%
G36*
G01*
X147021333Y-79003667D02*
X146321333Y-79003667D01*
G75*
G02*
X146271333Y-78953667I0J50000D01*
G01*
X146271333Y-78853667D01*
G75*
G02*
X146321333Y-78803667I50000J0D01*
G01*
X147021333Y-78803667D01*
G75*
G02*
X147071333Y-78853667I0J-50000D01*
G01*
X147071333Y-78953667D01*
G75*
G02*
X147021333Y-79003667I-50000J0D01*
G01*
G37*
%TD.AperFunction*%
%TO.P,U1,16*%
%TO.N,Net-(U1-Pad16)*%
%TA.AperFunction,SMDPad,CuDef*%
G36*
G01*
X147021333Y-79353667D02*
X146321333Y-79353667D01*
G75*
G02*
X146271333Y-79303667I0J50000D01*
G01*
X146271333Y-79203667D01*
G75*
G02*
X146321333Y-79153667I50000J0D01*
G01*
X147021333Y-79153667D01*
G75*
G02*
X147071333Y-79203667I0J-50000D01*
G01*
X147071333Y-79303667D01*
G75*
G02*
X147021333Y-79353667I-50000J0D01*
G01*
G37*
%TD.AperFunction*%
%TO.P,U1,15*%
%TO.N,Net-(R6-Pad2)*%
%TA.AperFunction,SMDPad,CuDef*%
G36*
G01*
X147021333Y-79703667D02*
X146321333Y-79703667D01*
G75*
G02*
X146271333Y-79653667I0J50000D01*
G01*
X146271333Y-79553667D01*
G75*
G02*
X146321333Y-79503667I50000J0D01*
G01*
X147021333Y-79503667D01*
G75*
G02*
X147071333Y-79553667I0J-50000D01*
G01*
X147071333Y-79653667D01*
G75*
G02*
X147021333Y-79703667I-50000J0D01*
G01*
G37*
%TD.AperFunction*%
%TO.P,U1,14*%
%TO.N,TEMP_SENSE_3*%
%TA.AperFunction,SMDPad,CuDef*%
G36*
G01*
X146546333Y-80878667D02*
X146446333Y-80878667D01*
G75*
G02*
X146396333Y-80828667I0J50000D01*
G01*
X146396333Y-80128667D01*
G75*
G02*
X146446333Y-80078667I50000J0D01*
G01*
X146546333Y-80078667D01*
G75*
G02*
X146596333Y-80128667I0J-50000D01*
G01*
X146596333Y-80828667D01*
G75*
G02*
X146546333Y-80878667I-50000J0D01*
G01*
G37*
%TD.AperFunction*%
%TO.P,U1,13*%
%TO.N,TEMP_SENSE_2*%
%TA.AperFunction,SMDPad,CuDef*%
G36*
G01*
X146196333Y-80878667D02*
X146096333Y-80878667D01*
G75*
G02*
X146046333Y-80828667I0J50000D01*
G01*
X146046333Y-80128667D01*
G75*
G02*
X146096333Y-80078667I50000J0D01*
G01*
X146196333Y-80078667D01*
G75*
G02*
X146246333Y-80128667I0J-50000D01*
G01*
X146246333Y-80828667D01*
G75*
G02*
X146196333Y-80878667I-50000J0D01*
G01*
G37*
%TD.AperFunction*%
%TO.P,U1,12*%
%TO.N,TEMP_SENSE_1*%
%TA.AperFunction,SMDPad,CuDef*%
G36*
G01*
X145846333Y-80878667D02*
X145746333Y-80878667D01*
G75*
G02*
X145696333Y-80828667I0J50000D01*
G01*
X145696333Y-80128667D01*
G75*
G02*
X145746333Y-80078667I50000J0D01*
G01*
X145846333Y-80078667D01*
G75*
G02*
X145896333Y-80128667I0J-50000D01*
G01*
X145896333Y-80828667D01*
G75*
G02*
X145846333Y-80878667I-50000J0D01*
G01*
G37*
%TD.AperFunction*%
%TO.P,U1,11*%
%TO.N,DRIVER_P*%
%TA.AperFunction,SMDPad,CuDef*%
G36*
G01*
X145496333Y-80878667D02*
X145396333Y-80878667D01*
G75*
G02*
X145346333Y-80828667I0J50000D01*
G01*
X145346333Y-80128667D01*
G75*
G02*
X145396333Y-80078667I50000J0D01*
G01*
X145496333Y-80078667D01*
G75*
G02*
X145546333Y-80128667I0J-50000D01*
G01*
X145546333Y-80828667D01*
G75*
G02*
X145496333Y-80878667I-50000J0D01*
G01*
G37*
%TD.AperFunction*%
%TO.P,U1,10*%
%TO.N,DRIVER_N*%
%TA.AperFunction,SMDPad,CuDef*%
G36*
G01*
X145146333Y-80878667D02*
X145046333Y-80878667D01*
G75*
G02*
X144996333Y-80828667I0J50000D01*
G01*
X144996333Y-80128667D01*
G75*
G02*
X145046333Y-80078667I50000J0D01*
G01*
X145146333Y-80078667D01*
G75*
G02*
X145196333Y-80128667I0J-50000D01*
G01*
X145196333Y-80828667D01*
G75*
G02*
X145146333Y-80878667I-50000J0D01*
G01*
G37*
%TD.AperFunction*%
%TO.P,U1,9*%
%TO.N,Net-(U1-Pad9)*%
%TA.AperFunction,SMDPad,CuDef*%
G36*
G01*
X144796333Y-80878667D02*
X144696333Y-80878667D01*
G75*
G02*
X144646333Y-80828667I0J50000D01*
G01*
X144646333Y-80128667D01*
G75*
G02*
X144696333Y-80078667I50000J0D01*
G01*
X144796333Y-80078667D01*
G75*
G02*
X144846333Y-80128667I0J-50000D01*
G01*
X144846333Y-80828667D01*
G75*
G02*
X144796333Y-80878667I-50000J0D01*
G01*
G37*
%TD.AperFunction*%
%TO.P,U1,8*%
%TO.N,Net-(U1-Pad8)*%
%TA.AperFunction,SMDPad,CuDef*%
G36*
G01*
X144446333Y-80878667D02*
X144346333Y-80878667D01*
G75*
G02*
X144296333Y-80828667I0J50000D01*
G01*
X144296333Y-80128667D01*
G75*
G02*
X144346333Y-80078667I50000J0D01*
G01*
X144446333Y-80078667D01*
G75*
G02*
X144496333Y-80128667I0J-50000D01*
G01*
X144496333Y-80828667D01*
G75*
G02*
X144446333Y-80878667I-50000J0D01*
G01*
G37*
%TD.AperFunction*%
%TO.P,U1,7*%
%TO.N,Net-(U1-Pad7)*%
%TA.AperFunction,SMDPad,CuDef*%
G36*
G01*
X144096333Y-80878667D02*
X143996333Y-80878667D01*
G75*
G02*
X143946333Y-80828667I0J50000D01*
G01*
X143946333Y-80128667D01*
G75*
G02*
X143996333Y-80078667I50000J0D01*
G01*
X144096333Y-80078667D01*
G75*
G02*
X144146333Y-80128667I0J-50000D01*
G01*
X144146333Y-80828667D01*
G75*
G02*
X144096333Y-80878667I-50000J0D01*
G01*
G37*
%TD.AperFunction*%
%TO.P,U1,6*%
%TO.N,Net-(U1-Pad6)*%
%TA.AperFunction,SMDPad,CuDef*%
G36*
G01*
X143746333Y-80878667D02*
X143646333Y-80878667D01*
G75*
G02*
X143596333Y-80828667I0J50000D01*
G01*
X143596333Y-80128667D01*
G75*
G02*
X143646333Y-80078667I50000J0D01*
G01*
X143746333Y-80078667D01*
G75*
G02*
X143796333Y-80128667I0J-50000D01*
G01*
X143796333Y-80828667D01*
G75*
G02*
X143746333Y-80878667I-50000J0D01*
G01*
G37*
%TD.AperFunction*%
%TO.P,U1,5*%
%TO.N,Net-(U1-Pad5)*%
%TA.AperFunction,SMDPad,CuDef*%
G36*
G01*
X143396333Y-80878667D02*
X143296333Y-80878667D01*
G75*
G02*
X143246333Y-80828667I0J50000D01*
G01*
X143246333Y-80128667D01*
G75*
G02*
X143296333Y-80078667I50000J0D01*
G01*
X143396333Y-80078667D01*
G75*
G02*
X143446333Y-80128667I0J-50000D01*
G01*
X143446333Y-80828667D01*
G75*
G02*
X143396333Y-80878667I-50000J0D01*
G01*
G37*
%TD.AperFunction*%
%TO.P,U1,4*%
%TO.N,+3V3*%
%TA.AperFunction,SMDPad,CuDef*%
G36*
G01*
X143046333Y-80878667D02*
X142946333Y-80878667D01*
G75*
G02*
X142896333Y-80828667I0J50000D01*
G01*
X142896333Y-80128667D01*
G75*
G02*
X142946333Y-80078667I50000J0D01*
G01*
X143046333Y-80078667D01*
G75*
G02*
X143096333Y-80128667I0J-50000D01*
G01*
X143096333Y-80828667D01*
G75*
G02*
X143046333Y-80878667I-50000J0D01*
G01*
G37*
%TD.AperFunction*%
%TO.P,U1,3*%
%TA.AperFunction,SMDPad,CuDef*%
G36*
G01*
X142696333Y-80878667D02*
X142596333Y-80878667D01*
G75*
G02*
X142546333Y-80828667I0J50000D01*
G01*
X142546333Y-80128667D01*
G75*
G02*
X142596333Y-80078667I50000J0D01*
G01*
X142696333Y-80078667D01*
G75*
G02*
X142746333Y-80128667I0J-50000D01*
G01*
X142746333Y-80828667D01*
G75*
G02*
X142696333Y-80878667I-50000J0D01*
G01*
G37*
%TD.AperFunction*%
%TO.P,U1,2*%
%TO.N,Net-(C2-Pad1)*%
%TA.AperFunction,SMDPad,CuDef*%
G36*
G01*
X142346333Y-80878667D02*
X142246333Y-80878667D01*
G75*
G02*
X142196333Y-80828667I0J50000D01*
G01*
X142196333Y-80128667D01*
G75*
G02*
X142246333Y-80078667I50000J0D01*
G01*
X142346333Y-80078667D01*
G75*
G02*
X142396333Y-80128667I0J-50000D01*
G01*
X142396333Y-80828667D01*
G75*
G02*
X142346333Y-80878667I-50000J0D01*
G01*
G37*
%TD.AperFunction*%
%TO.P,U1,1*%
%TO.N,+3V3*%
%TA.AperFunction,SMDPad,CuDef*%
G36*
G01*
X141996333Y-80878667D02*
X141896333Y-80878667D01*
G75*
G02*
X141846333Y-80828667I0J50000D01*
G01*
X141846333Y-80128667D01*
G75*
G02*
X141896333Y-80078667I50000J0D01*
G01*
X141996333Y-80078667D01*
G75*
G02*
X142046333Y-80128667I0J-50000D01*
G01*
X142046333Y-80828667D01*
G75*
G02*
X141996333Y-80878667I-50000J0D01*
G01*
G37*
%TD.AperFunction*%
%TD*%
%TO.P,R11,2*%
%TO.N,Net-(R11-Pad2)*%
%TA.AperFunction,SMDPad,CuDef*%
G36*
G01*
X149294001Y-71625000D02*
X148393999Y-71625000D01*
G75*
G02*
X148144000Y-71375001I0J249999D01*
G01*
X148144000Y-70674999D01*
G75*
G02*
X148393999Y-70425000I249999J0D01*
G01*
X149294001Y-70425000D01*
G75*
G02*
X149544000Y-70674999I0J-249999D01*
G01*
X149544000Y-71375001D01*
G75*
G02*
X149294001Y-71625000I-249999J0D01*
G01*
G37*
%TD.AperFunction*%
%TO.P,R11,1*%
%TO.N,Net-(R10-Pad1)*%
%TA.AperFunction,SMDPad,CuDef*%
G36*
G01*
X149294001Y-73625000D02*
X148393999Y-73625000D01*
G75*
G02*
X148144000Y-73375001I0J249999D01*
G01*
X148144000Y-72674999D01*
G75*
G02*
X148393999Y-72425000I249999J0D01*
G01*
X149294001Y-72425000D01*
G75*
G02*
X149544000Y-72674999I0J-249999D01*
G01*
X149544000Y-73375001D01*
G75*
G02*
X149294001Y-73625000I-249999J0D01*
G01*
G37*
%TD.AperFunction*%
%TD*%
%TO.P,R5,2*%
%TO.N,Net-(R5-Pad2)*%
%TA.AperFunction,SMDPad,CuDef*%
G36*
G01*
X171050000Y-77019999D02*
X171050000Y-77920001D01*
G75*
G02*
X170800001Y-78170000I-249999J0D01*
G01*
X170099999Y-78170000D01*
G75*
G02*
X169850000Y-77920001I0J249999D01*
G01*
X169850000Y-77019999D01*
G75*
G02*
X170099999Y-76770000I249999J0D01*
G01*
X170800001Y-76770000D01*
G75*
G02*
X171050000Y-77019999I0J-249999D01*
G01*
G37*
%TD.AperFunction*%
%TO.P,R5,1*%
%TO.N,Net-(R5-Pad1)*%
%TA.AperFunction,SMDPad,CuDef*%
G36*
G01*
X173050000Y-77019999D02*
X173050000Y-77920001D01*
G75*
G02*
X172800001Y-78170000I-249999J0D01*
G01*
X172099999Y-78170000D01*
G75*
G02*
X171850000Y-77920001I0J249999D01*
G01*
X171850000Y-77019999D01*
G75*
G02*
X172099999Y-76770000I249999J0D01*
G01*
X172800001Y-76770000D01*
G75*
G02*
X173050000Y-77019999I0J-249999D01*
G01*
G37*
%TD.AperFunction*%
%TD*%
%TO.P,R4,2*%
%TO.N,Net-(R4-Pad2)*%
%TA.AperFunction,SMDPad,CuDef*%
G36*
G01*
X171034000Y-73844999D02*
X171034000Y-74745001D01*
G75*
G02*
X170784001Y-74995000I-249999J0D01*
G01*
X170083999Y-74995000D01*
G75*
G02*
X169834000Y-74745001I0J249999D01*
G01*
X169834000Y-73844999D01*
G75*
G02*
X170083999Y-73595000I249999J0D01*
G01*
X170784001Y-73595000D01*
G75*
G02*
X171034000Y-73844999I0J-249999D01*
G01*
G37*
%TD.AperFunction*%
%TO.P,R4,1*%
%TO.N,Net-(R4-Pad1)*%
%TA.AperFunction,SMDPad,CuDef*%
G36*
G01*
X173034000Y-73844999D02*
X173034000Y-74745001D01*
G75*
G02*
X172784001Y-74995000I-249999J0D01*
G01*
X172083999Y-74995000D01*
G75*
G02*
X171834000Y-74745001I0J249999D01*
G01*
X171834000Y-73844999D01*
G75*
G02*
X172083999Y-73595000I249999J0D01*
G01*
X172784001Y-73595000D01*
G75*
G02*
X173034000Y-73844999I0J-249999D01*
G01*
G37*
%TD.AperFunction*%
%TD*%
%TO.P,R3,2*%
%TO.N,Net-(R3-Pad2)*%
%TA.AperFunction,SMDPad,CuDef*%
G36*
G01*
X164468000Y-64077001D02*
X164468000Y-63176999D01*
G75*
G02*
X164717999Y-62927000I249999J0D01*
G01*
X165418001Y-62927000D01*
G75*
G02*
X165668000Y-63176999I0J-249999D01*
G01*
X165668000Y-64077001D01*
G75*
G02*
X165418001Y-64327000I-249999J0D01*
G01*
X164717999Y-64327000D01*
G75*
G02*
X164468000Y-64077001I0J249999D01*
G01*
G37*
%TD.AperFunction*%
%TO.P,R3,1*%
%TO.N,Net-(R3-Pad1)*%
%TA.AperFunction,SMDPad,CuDef*%
G36*
G01*
X162468000Y-64077001D02*
X162468000Y-63176999D01*
G75*
G02*
X162717999Y-62927000I249999J0D01*
G01*
X163418001Y-62927000D01*
G75*
G02*
X163668000Y-63176999I0J-249999D01*
G01*
X163668000Y-64077001D01*
G75*
G02*
X163418001Y-64327000I-249999J0D01*
G01*
X162717999Y-64327000D01*
G75*
G02*
X162468000Y-64077001I0J249999D01*
G01*
G37*
%TD.AperFunction*%
%TD*%
%TO.P,R2,2*%
%TO.N,Net-(R2-Pad2)*%
%TA.AperFunction,SMDPad,CuDef*%
G36*
G01*
X164500000Y-67252001D02*
X164500000Y-66351999D01*
G75*
G02*
X164749999Y-66102000I249999J0D01*
G01*
X165450001Y-66102000D01*
G75*
G02*
X165700000Y-66351999I0J-249999D01*
G01*
X165700000Y-67252001D01*
G75*
G02*
X165450001Y-67502000I-249999J0D01*
G01*
X164749999Y-67502000D01*
G75*
G02*
X164500000Y-67252001I0J249999D01*
G01*
G37*
%TD.AperFunction*%
%TO.P,R2,1*%
%TO.N,Net-(R2-Pad1)*%
%TA.AperFunction,SMDPad,CuDef*%
G36*
G01*
X162500000Y-67252001D02*
X162500000Y-66351999D01*
G75*
G02*
X162749999Y-66102000I249999J0D01*
G01*
X163450001Y-66102000D01*
G75*
G02*
X163700000Y-66351999I0J-249999D01*
G01*
X163700000Y-67252001D01*
G75*
G02*
X163450001Y-67502000I-249999J0D01*
G01*
X162749999Y-67502000D01*
G75*
G02*
X162500000Y-67252001I0J249999D01*
G01*
G37*
%TD.AperFunction*%
%TD*%
%TO.P,R1,2*%
%TO.N,Net-(C3-Pad2)*%
%TA.AperFunction,SMDPad,CuDef*%
G36*
G01*
X139630999Y-81315000D02*
X140531001Y-81315000D01*
G75*
G02*
X140781000Y-81564999I0J-249999D01*
G01*
X140781000Y-82265001D01*
G75*
G02*
X140531001Y-82515000I-249999J0D01*
G01*
X139630999Y-82515000D01*
G75*
G02*
X139381000Y-82265001I0J249999D01*
G01*
X139381000Y-81564999D01*
G75*
G02*
X139630999Y-81315000I249999J0D01*
G01*
G37*
%TD.AperFunction*%
%TO.P,R1,1*%
%TO.N,Net-(C3-Pad1)*%
%TA.AperFunction,SMDPad,CuDef*%
G36*
G01*
X139630999Y-79315000D02*
X140531001Y-79315000D01*
G75*
G02*
X140781000Y-79564999I0J-249999D01*
G01*
X140781000Y-80265001D01*
G75*
G02*
X140531001Y-80515000I-249999J0D01*
G01*
X139630999Y-80515000D01*
G75*
G02*
X139381000Y-80265001I0J249999D01*
G01*
X139381000Y-79564999D01*
G75*
G02*
X139630999Y-79315000I249999J0D01*
G01*
G37*
%TD.AperFunction*%
%TD*%
D21*
%TO.P,L2,2*%
%TO.N,Net-(D2-Pad1)*%
X153543000Y-72688000D03*
%TO.P,L2,1*%
%TO.N,+3V3*%
X153543000Y-78188000D03*
%TD*%
%TO.P,L1,2*%
%TO.N,Net-(C2-Pad1)*%
%TA.AperFunction,SMDPad,CuDef*%
G36*
G01*
X150876001Y-89914604D02*
X150239604Y-90551001D01*
G75*
G02*
X149886052Y-90551001I-176776J176776D01*
G01*
X149426431Y-90091380D01*
G75*
G02*
X149426431Y-89737828I176776J176776D01*
G01*
X150062828Y-89101431D01*
G75*
G02*
X150416380Y-89101431I176776J-176776D01*
G01*
X150876001Y-89561052D01*
G75*
G02*
X150876001Y-89914604I-176776J-176776D01*
G01*
G37*
%TD.AperFunction*%
%TO.P,L1,1*%
%TO.N,Net-(AE1-Pad1)*%
%TA.AperFunction,SMDPad,CuDef*%
G36*
G01*
X152325569Y-91364172D02*
X151689172Y-92000569D01*
G75*
G02*
X151335620Y-92000569I-176776J176776D01*
G01*
X150875999Y-91540948D01*
G75*
G02*
X150875999Y-91187396I176776J176776D01*
G01*
X151512396Y-90550999D01*
G75*
G02*
X151865948Y-90550999I176776J-176776D01*
G01*
X152325569Y-91010620D01*
G75*
G02*
X152325569Y-91364172I-176776J-176776D01*
G01*
G37*
%TD.AperFunction*%
%TD*%
%TO.P,C19,2*%
%TO.N,GND*%
%TA.AperFunction,SMDPad,CuDef*%
G36*
G01*
X159962000Y-72738000D02*
X159962000Y-71788000D01*
G75*
G02*
X160212000Y-71538000I250000J0D01*
G01*
X160887000Y-71538000D01*
G75*
G02*
X161137000Y-71788000I0J-250000D01*
G01*
X161137000Y-72738000D01*
G75*
G02*
X160887000Y-72988000I-250000J0D01*
G01*
X160212000Y-72988000D01*
G75*
G02*
X159962000Y-72738000I0J250000D01*
G01*
G37*
%TD.AperFunction*%
%TO.P,C19,1*%
%TO.N,+3V3*%
%TA.AperFunction,SMDPad,CuDef*%
G36*
G01*
X157887000Y-72738000D02*
X157887000Y-71788000D01*
G75*
G02*
X158137000Y-71538000I250000J0D01*
G01*
X158812000Y-71538000D01*
G75*
G02*
X159062000Y-71788000I0J-250000D01*
G01*
X159062000Y-72738000D01*
G75*
G02*
X158812000Y-72988000I-250000J0D01*
G01*
X158137000Y-72988000D01*
G75*
G02*
X157887000Y-72738000I0J250000D01*
G01*
G37*
%TD.AperFunction*%
%TD*%
%TO.P,C18,2*%
%TO.N,GND*%
%TA.AperFunction,SMDPad,CuDef*%
G36*
G01*
X159991300Y-80891400D02*
X159991300Y-79941400D01*
G75*
G02*
X160241300Y-79691400I250000J0D01*
G01*
X160916300Y-79691400D01*
G75*
G02*
X161166300Y-79941400I0J-250000D01*
G01*
X161166300Y-80891400D01*
G75*
G02*
X160916300Y-81141400I-250000J0D01*
G01*
X160241300Y-81141400D01*
G75*
G02*
X159991300Y-80891400I0J250000D01*
G01*
G37*
%TD.AperFunction*%
%TO.P,C18,1*%
%TO.N,+3V3*%
%TA.AperFunction,SMDPad,CuDef*%
G36*
G01*
X157916300Y-80891400D02*
X157916300Y-79941400D01*
G75*
G02*
X158166300Y-79691400I250000J0D01*
G01*
X158841300Y-79691400D01*
G75*
G02*
X159091300Y-79941400I0J-250000D01*
G01*
X159091300Y-80891400D01*
G75*
G02*
X158841300Y-81141400I-250000J0D01*
G01*
X158166300Y-81141400D01*
G75*
G02*
X157916300Y-80891400I0J250000D01*
G01*
G37*
%TD.AperFunction*%
%TD*%
%TO.P,C17,2*%
%TO.N,GND*%
%TA.AperFunction,SMDPad,CuDef*%
G36*
G01*
X159856500Y-75557400D02*
X159856500Y-74607400D01*
G75*
G02*
X160106500Y-74357400I250000J0D01*
G01*
X160781500Y-74357400D01*
G75*
G02*
X161031500Y-74607400I0J-250000D01*
G01*
X161031500Y-75557400D01*
G75*
G02*
X160781500Y-75807400I-250000J0D01*
G01*
X160106500Y-75807400D01*
G75*
G02*
X159856500Y-75557400I0J250000D01*
G01*
G37*
%TD.AperFunction*%
%TO.P,C17,1*%
%TO.N,+3V3*%
%TA.AperFunction,SMDPad,CuDef*%
G36*
G01*
X157781500Y-75557400D02*
X157781500Y-74607400D01*
G75*
G02*
X158031500Y-74357400I250000J0D01*
G01*
X158706500Y-74357400D01*
G75*
G02*
X158956500Y-74607400I0J-250000D01*
G01*
X158956500Y-75557400D01*
G75*
G02*
X158706500Y-75807400I-250000J0D01*
G01*
X158031500Y-75807400D01*
G75*
G02*
X157781500Y-75557400I0J250000D01*
G01*
G37*
%TD.AperFunction*%
%TD*%
%TO.P,C8,2*%
%TO.N,GND*%
%TA.AperFunction,SMDPad,CuDef*%
G36*
G01*
X148811000Y-76871500D02*
X147861000Y-76871500D01*
G75*
G02*
X147611000Y-76621500I0J250000D01*
G01*
X147611000Y-75946500D01*
G75*
G02*
X147861000Y-75696500I250000J0D01*
G01*
X148811000Y-75696500D01*
G75*
G02*
X149061000Y-75946500I0J-250000D01*
G01*
X149061000Y-76621500D01*
G75*
G02*
X148811000Y-76871500I-250000J0D01*
G01*
G37*
%TD.AperFunction*%
%TO.P,C8,1*%
%TO.N,+3V3*%
%TA.AperFunction,SMDPad,CuDef*%
G36*
G01*
X148811000Y-78946500D02*
X147861000Y-78946500D01*
G75*
G02*
X147611000Y-78696500I0J250000D01*
G01*
X147611000Y-78021500D01*
G75*
G02*
X147861000Y-77771500I250000J0D01*
G01*
X148811000Y-77771500D01*
G75*
G02*
X149061000Y-78021500I0J-250000D01*
G01*
X149061000Y-78696500D01*
G75*
G02*
X148811000Y-78946500I-250000J0D01*
G01*
G37*
%TD.AperFunction*%
%TD*%
%TO.P,C2,2*%
%TO.N,GND*%
%TA.AperFunction,SMDPad,CuDef*%
G36*
G01*
X147427927Y-89263322D02*
X148099678Y-89935073D01*
G75*
G02*
X148099678Y-90288627I-176777J-176777D01*
G01*
X147622381Y-90765924D01*
G75*
G02*
X147268827Y-90765924I-176777J176777D01*
G01*
X146597076Y-90094173D01*
G75*
G02*
X146597076Y-89740619I176777J176777D01*
G01*
X147074373Y-89263322D01*
G75*
G02*
X147427927Y-89263322I176777J-176777D01*
G01*
G37*
%TD.AperFunction*%
%TO.P,C2,1*%
%TO.N,Net-(C2-Pad1)*%
%TA.AperFunction,SMDPad,CuDef*%
G36*
G01*
X148895173Y-87796076D02*
X149566924Y-88467827D01*
G75*
G02*
X149566924Y-88821381I-176777J-176777D01*
G01*
X149089627Y-89298678D01*
G75*
G02*
X148736073Y-89298678I-176777J176777D01*
G01*
X148064322Y-88626927D01*
G75*
G02*
X148064322Y-88273373I176777J176777D01*
G01*
X148541619Y-87796076D01*
G75*
G02*
X148895173Y-87796076I176777J-176777D01*
G01*
G37*
%TD.AperFunction*%
%TD*%
%TO.P,C1,2*%
%TO.N,GND*%
%TA.AperFunction,SMDPad,CuDef*%
G36*
G01*
X154197073Y-91965678D02*
X153525322Y-91293927D01*
G75*
G02*
X153525322Y-90940373I176777J176777D01*
G01*
X154002619Y-90463076D01*
G75*
G02*
X154356173Y-90463076I176777J-176777D01*
G01*
X155027924Y-91134827D01*
G75*
G02*
X155027924Y-91488381I-176777J-176777D01*
G01*
X154550627Y-91965678D01*
G75*
G02*
X154197073Y-91965678I-176777J176777D01*
G01*
G37*
%TD.AperFunction*%
%TO.P,C1,1*%
%TO.N,Net-(AE1-Pad1)*%
%TA.AperFunction,SMDPad,CuDef*%
G36*
G01*
X152729827Y-93432924D02*
X152058076Y-92761173D01*
G75*
G02*
X152058076Y-92407619I176777J176777D01*
G01*
X152535373Y-91930322D01*
G75*
G02*
X152888927Y-91930322I176777J-176777D01*
G01*
X153560678Y-92602073D01*
G75*
G02*
X153560678Y-92955627I-176777J-176777D01*
G01*
X153083381Y-93432924D01*
G75*
G02*
X152729827Y-93432924I-176777J176777D01*
G01*
G37*
%TD.AperFunction*%
%TD*%
%TO.P,AE1,2*%
%TO.N,Net-(AE1-Pad2)*%
%TA.AperFunction,SMDPad,CuDef*%
G36*
G01*
X154061399Y-96610200D02*
X155361401Y-96610200D01*
G75*
G02*
X155611400Y-96860199I0J-249999D01*
G01*
X155611400Y-97560201D01*
G75*
G02*
X155361401Y-97810200I-249999J0D01*
G01*
X154061399Y-97810200D01*
G75*
G02*
X153811400Y-97560201I0J249999D01*
G01*
X153811400Y-96860199D01*
G75*
G02*
X154061399Y-96610200I249999J0D01*
G01*
G37*
%TD.AperFunction*%
%TO.P,AE1,1*%
%TO.N,Net-(AE1-Pad1)*%
%TA.AperFunction,SMDPad,CuDef*%
G36*
G01*
X154061399Y-93710200D02*
X155361401Y-93710200D01*
G75*
G02*
X155611400Y-93960199I0J-249999D01*
G01*
X155611400Y-94660201D01*
G75*
G02*
X155361401Y-94910200I-249999J0D01*
G01*
X154061399Y-94910200D01*
G75*
G02*
X153811400Y-94660201I0J249999D01*
G01*
X153811400Y-93960199D01*
G75*
G02*
X154061399Y-93710200I249999J0D01*
G01*
G37*
%TD.AperFunction*%
%TD*%
D22*
%TO.N,GND*%
X151688800Y-77165200D03*
X163322000Y-128143000D03*
X159385000Y-76771500D03*
X163398200Y-77482700D03*
X144424400Y-81343500D03*
X172466000Y-76161900D03*
X163220400Y-65341500D03*
X138747500Y-74460100D03*
D23*
X136893300Y-77482700D03*
D22*
X173786800Y-65100200D03*
X139827000Y-86614000D03*
X139827000Y-90424000D03*
X137287000Y-86614000D03*
X137287000Y-90424000D03*
X137287000Y-88519000D03*
X155956000Y-82550000D03*
X154178000Y-82550000D03*
X165862000Y-89154000D03*
X168402000Y-89154000D03*
X167767000Y-84074000D03*
X169672000Y-84074000D03*
X151892000Y-62484000D03*
X152527000Y-62484000D03*
X143129000Y-63119000D03*
X137287000Y-63119000D03*
X139827000Y-88519000D03*
X140875000Y-106426000D03*
X150019000Y-115570000D03*
X148336000Y-82169000D03*
X168859200Y-81229200D03*
X167944800Y-81991200D03*
X167030400Y-81076800D03*
%TO.N,+3V3*%
X142938500Y-81330800D03*
X141782800Y-80479900D03*
X147574000Y-79216000D03*
X140652500Y-75628500D03*
X140930068Y-79138443D03*
X140986707Y-77501271D03*
X137414000Y-104521000D03*
%TO.N,Net-(C7-Pad1)*%
X136652000Y-74485500D03*
X140908797Y-78022493D03*
%TO.N,Net-(C13-Pad1)*%
X164922200Y-73888600D03*
%TO.N,VBUS*%
X144399000Y-68707000D03*
X153412000Y-70163502D03*
%TO.N,Net-(R11-Pad2)*%
X148793200Y-71196200D03*
%TO.N,Net-(R12-Pad2)*%
X142367000Y-68961000D03*
%TO.N,Net-(C3-Pad2)*%
X140081000Y-82042000D03*
%TO.N,Net-(C3-Pad1)*%
X140081000Y-80010000D03*
%TO.N,Net-(C6-Pad1)*%
X138874500Y-77470000D03*
X140906500Y-78549500D03*
%TO.N,/Peltier Driver/PELTIER_P*%
X167182800Y-65024000D03*
%TO.N,Net-(C12-Pad1)*%
X167182800Y-68453000D03*
%TO.N,/Peltier Driver/PELTIER_N*%
X168337000Y-76200000D03*
%TO.N,Net-(D4-Pad1)*%
X142494000Y-72263000D03*
%TO.N,Net-(J2-PadB5)*%
X154762200Y-66852800D03*
%TO.N,Net-(J2-PadA5)*%
X155448000Y-68834000D03*
%TO.N,Net-(R2-Pad1)*%
X163068000Y-66700400D03*
%TO.N,Net-(R3-Pad1)*%
X163118800Y-63906400D03*
%TO.N,Net-(R4-Pad1)*%
X172440600Y-74853800D03*
%TO.N,Net-(R5-Pad1)*%
X172466000Y-77470000D03*
%TO.N,Net-(R10-Pad1)*%
X148782000Y-72644000D03*
%TO.N,DRIVER_P*%
X164439600Y-84175600D03*
X166674800Y-83515200D03*
%TO.N,/Power Management/BATT_IN*%
X146558000Y-69088000D03*
%TO.N,Net-(D2-Pad1)*%
X153822400Y-72644000D03*
%TO.N,TEMP_SENSE_1*%
X145994000Y-81701124D03*
X142822443Y-104167657D03*
%TO.N,TEMP_SENSE_2*%
X146520665Y-81682284D03*
X152019000Y-113284000D03*
%TO.N,TEMP_SENSE_3*%
X165339950Y-126252050D03*
X147047648Y-81686670D03*
%TO.N,VCC_UNREGULATED*%
X163271200Y-73634600D03*
X172770800Y-67538600D03*
D23*
X166141400Y-71348600D03*
X169037000Y-69034998D03*
D22*
X150774400Y-73393300D03*
X152146000Y-79590900D03*
%TD*%
D24*
%TO.N,Net-(AE1-Pad1)*%
X151600784Y-91473030D02*
X152809377Y-92681623D01*
X151600784Y-91275784D02*
X151600784Y-91473030D01*
X154437954Y-94310200D02*
X154711400Y-94310200D01*
X152809377Y-92681623D02*
X154437954Y-94310200D01*
D25*
%TO.N,GND*%
X147348377Y-90014623D02*
X145767623Y-90014623D01*
X145767623Y-90014623D02*
X144780000Y-89027000D01*
X144424400Y-81343500D02*
X144424400Y-82143600D01*
X140335000Y-89027000D02*
X139827000Y-88519000D01*
X144780000Y-89027000D02*
X140335000Y-89027000D01*
X148336000Y-82169000D02*
X148336000Y-82169000D01*
D26*
X138852000Y-74998602D02*
X138852000Y-74570000D01*
X137853601Y-75997001D02*
X138852000Y-74998602D01*
X137424999Y-75997001D02*
X137853601Y-75997001D01*
X136652000Y-76770000D02*
X137424999Y-75997001D01*
X136652000Y-77470000D02*
X136652000Y-76770000D01*
D27*
%TO.N,+3V3*%
X142646333Y-81119527D02*
X142671930Y-81145124D01*
X142646333Y-80478667D02*
X142646333Y-81119527D01*
X142996333Y-80820721D02*
X142671930Y-81145124D01*
X142996333Y-80478667D02*
X142996333Y-80820721D01*
X141784033Y-80478667D02*
X141782800Y-80479900D01*
X141946333Y-80478667D02*
X141784033Y-80478667D01*
X148180667Y-78203667D02*
X148336000Y-78359000D01*
X146671333Y-78203667D02*
X148180667Y-78203667D01*
D28*
X158453000Y-80264000D02*
X158445200Y-80264000D01*
X157988000Y-79806800D02*
X157988000Y-77724000D01*
X158445200Y-80264000D02*
X157988000Y-79806800D01*
X158369000Y-75184000D02*
X158369000Y-75514200D01*
X157988000Y-75895200D02*
X157988000Y-77724000D01*
X158369000Y-75514200D02*
X157988000Y-75895200D01*
X158474500Y-75078500D02*
X158369000Y-75184000D01*
X158474500Y-72263000D02*
X158474500Y-75078500D01*
X157524000Y-78188000D02*
X157988000Y-77724000D01*
X153543000Y-78188000D02*
X157524000Y-78188000D01*
X153372000Y-78359000D02*
X153543000Y-78188000D01*
X148336000Y-78359000D02*
X153372000Y-78359000D01*
D25*
X142857606Y-81330800D02*
X142671930Y-81145124D01*
X142938500Y-81330800D02*
X142857606Y-81330800D01*
X147574000Y-79121000D02*
X148336000Y-78359000D01*
X147574000Y-79216000D02*
X147574000Y-79121000D01*
D27*
X141339103Y-77853667D02*
X140986707Y-77501271D01*
X140959001Y-79138443D02*
X140930068Y-79138443D01*
X141771333Y-77853667D02*
X141339103Y-77853667D01*
X141193777Y-78903667D02*
X140959001Y-79138443D01*
X141771333Y-78903667D02*
X141193777Y-78903667D01*
D29*
X137791400Y-104143600D02*
X137414000Y-104521000D01*
X140846500Y-104143600D02*
X137791400Y-104143600D01*
X148082000Y-113284000D02*
X150019000Y-113284000D01*
X144272000Y-117094000D02*
X148082000Y-113284000D01*
X137541000Y-117094000D02*
X144272000Y-117094000D01*
X137414000Y-117221000D02*
X137541000Y-117094000D01*
X137414000Y-110236000D02*
X137414000Y-104521000D01*
X137414000Y-124587000D02*
X137414000Y-110236000D01*
X139039600Y-126212600D02*
X137414000Y-124587000D01*
X163300500Y-126212600D02*
X139039600Y-126212600D01*
D26*
X140652500Y-75628500D02*
X140652500Y-74891900D01*
X140652500Y-74891900D02*
X141325600Y-74218800D01*
X153543000Y-77901800D02*
X153543000Y-78188000D01*
X149860000Y-74218800D02*
X153543000Y-77901800D01*
D27*
X142296333Y-74264067D02*
X142341600Y-74218800D01*
X142296333Y-75578667D02*
X142296333Y-74264067D01*
D26*
X142341600Y-74218800D02*
X149860000Y-74218800D01*
X141325600Y-74218800D02*
X142341600Y-74218800D01*
D27*
%TO.N,Net-(C7-Pad1)*%
X141771333Y-78203667D02*
X141089971Y-78203667D01*
X141089971Y-78203667D02*
X140908797Y-78022493D01*
D26*
%TO.N,Net-(C13-Pad1)*%
X164922200Y-71704200D02*
X163830000Y-70612000D01*
X164922200Y-73888600D02*
X164922200Y-71704200D01*
X165150800Y-73660000D02*
X164922200Y-73888600D01*
X168337000Y-73660000D02*
X165150800Y-73660000D01*
%TO.N,VBUS*%
X156452000Y-70134000D02*
X156422498Y-70163502D01*
X156422498Y-70163502D02*
X153412000Y-70163502D01*
X153412000Y-68834000D02*
X153412000Y-70163502D01*
X156452000Y-68834000D02*
X156452000Y-70134000D01*
D27*
%TO.N,TXD*%
X141737177Y-77094177D02*
X140815859Y-77094177D01*
X141771333Y-77128333D02*
X141737177Y-77094177D01*
X141771333Y-77153667D02*
X141771333Y-77128333D01*
X140815859Y-77094177D02*
X140462000Y-77448036D01*
X140462000Y-77448036D02*
X140462000Y-78613000D01*
X140462000Y-78613000D02*
X139950510Y-79124490D01*
X139950510Y-79124490D02*
X139448532Y-79124490D01*
X139448532Y-79124490D02*
X138557000Y-80016022D01*
D25*
X138557000Y-84709000D02*
X138557000Y-80016022D01*
D27*
%TO.N,RXD*%
X140747145Y-76803667D02*
X141771333Y-76803667D01*
X140207991Y-77342821D02*
X140747145Y-76803667D01*
X140207990Y-78486010D02*
X140207991Y-77342821D01*
X139827000Y-78867000D02*
X140207990Y-78486010D01*
X139128500Y-78867000D02*
X139827000Y-78867000D01*
X137287000Y-80708500D02*
X139128500Y-78867000D01*
D25*
X137287000Y-84709000D02*
X137287000Y-80708500D01*
D26*
%TO.N,Net-(R4-Pad2)*%
X169799000Y-74930000D02*
X168337000Y-74930000D01*
X170434000Y-74295000D02*
X169799000Y-74930000D01*
D27*
%TO.N,Net-(C2-Pad1)*%
X142296333Y-80942779D02*
X142296333Y-80478667D01*
X141949019Y-81290093D02*
X142296333Y-80942779D01*
X141949019Y-81923675D02*
X141949019Y-81290093D01*
D24*
X148815623Y-88547377D02*
X148653615Y-88547377D01*
X148653615Y-88547377D02*
X141989466Y-81883228D01*
X148872377Y-88547377D02*
X150151216Y-89826216D01*
X148815623Y-88547377D02*
X148872377Y-88547377D01*
D27*
%TO.N,Net-(C3-Pad2)*%
X141771333Y-79603667D02*
X141376333Y-79603667D01*
X141376333Y-79603667D02*
X141224000Y-79756000D01*
X141224000Y-79756000D02*
X141224000Y-81407000D01*
X140716000Y-81915000D02*
X140081000Y-81915000D01*
X141224000Y-81407000D02*
X140716000Y-81915000D01*
%TO.N,Net-(C3-Pad1)*%
X140081000Y-79915000D02*
X140705776Y-79915000D01*
X141367109Y-79253667D02*
X141771333Y-79253667D01*
X140705776Y-79915000D02*
X141367109Y-79253667D01*
%TO.N,Net-(C6-Pad1)*%
X141771333Y-78553667D02*
X140910667Y-78553667D01*
X140910667Y-78553667D02*
X140906500Y-78549500D01*
D26*
%TO.N,Net-(C12-Pad1)*%
X167197000Y-68438800D02*
X167182800Y-68453000D01*
X167197000Y-67564000D02*
X167197000Y-68438800D01*
%TO.N,Net-(J2-PadB5)*%
X154432000Y-67183000D02*
X154762200Y-66852800D01*
X154432000Y-68834000D02*
X154432000Y-67183000D01*
%TO.N,Net-(R2-Pad2)*%
X165100000Y-66802000D02*
X165582600Y-66802000D01*
X166090600Y-66294000D02*
X167197000Y-66294000D01*
X165582600Y-66802000D02*
X166090600Y-66294000D01*
%TO.N,Net-(R3-Pad2)*%
X165195000Y-63754000D02*
X165068000Y-63627000D01*
X167197000Y-63754000D02*
X165195000Y-63754000D01*
%TO.N,Net-(R5-Pad2)*%
X168337000Y-77470000D02*
X170450000Y-77470000D01*
%TO.N,DRIVER_P*%
X172147000Y-65024000D02*
X172147000Y-66294000D01*
D27*
X145446333Y-81534000D02*
X145542000Y-81629667D01*
X145446333Y-80478667D02*
X145446333Y-81534000D01*
D25*
X173122000Y-66294000D02*
X174345600Y-67517600D01*
X172147000Y-66294000D02*
X173122000Y-66294000D01*
X174345600Y-67517600D02*
X174345600Y-75133200D01*
X174345600Y-75133200D02*
X174345600Y-77571600D01*
X168402000Y-83515200D02*
X166674800Y-83515200D01*
X174345600Y-77571600D02*
X168402000Y-83515200D01*
X146612564Y-82223790D02*
X148564374Y-84175600D01*
X145850563Y-82223789D02*
X146612564Y-82223790D01*
X145542000Y-81915226D02*
X145850563Y-82223789D01*
X148564374Y-84175600D02*
X164439600Y-84175600D01*
X145542000Y-81629667D02*
X145542000Y-81915226D01*
D26*
%TO.N,DRIVER_N*%
X163387000Y-74930000D02*
X163387000Y-76200000D01*
D27*
X145096333Y-80478667D02*
X145096333Y-81725667D01*
D25*
X164362000Y-76200000D02*
X163387000Y-76200000D01*
X165658800Y-77496800D02*
X164362000Y-76200000D01*
X145096333Y-81725667D02*
X145084800Y-81737200D01*
X145084800Y-81737200D02*
X145084800Y-82499200D01*
X145186400Y-82600800D02*
X146456400Y-82600800D01*
X146456400Y-82600800D02*
X149098000Y-85242400D01*
X145084800Y-82499200D02*
X145186400Y-82600800D01*
X149098000Y-85242400D02*
X164541200Y-85242400D01*
X165658800Y-84124800D02*
X165658800Y-77496800D01*
X164541200Y-85242400D02*
X165658800Y-84124800D01*
D30*
%TO.N,/Power Management/BATT_IN*%
X144333000Y-71313000D02*
X146558000Y-69088000D01*
X144333000Y-71708000D02*
X144333000Y-71313000D01*
%TO.N,Net-(R6-Pad2)*%
X148368000Y-80137000D02*
X148336000Y-80169000D01*
X150241000Y-80137000D02*
X148368000Y-80137000D01*
D27*
X146671333Y-79603667D02*
X147294667Y-79603667D01*
X147860000Y-80169000D02*
X148336000Y-80169000D01*
X147294667Y-79603667D02*
X147860000Y-80169000D01*
%TO.N,TEMP_SENSE_1*%
X145994000Y-81635469D02*
X145994000Y-81701124D01*
X145796333Y-81437802D02*
X145994000Y-81635469D01*
X145796333Y-80478667D02*
X145796333Y-81437802D01*
D30*
X142875000Y-104220214D02*
X142822443Y-104167657D01*
X142875000Y-106426000D02*
X142875000Y-104220214D01*
D27*
%TO.N,TEMP_SENSE_2*%
X146520665Y-81649847D02*
X146520665Y-81682284D01*
X146146333Y-81275515D02*
X146520665Y-81649847D01*
X146146333Y-80478667D02*
X146146333Y-81275515D01*
D30*
X152019000Y-113284000D02*
X152019000Y-115570000D01*
%TO.N,TEMP_SENSE_3*%
X165354000Y-126266100D02*
X165339950Y-126252050D01*
X165354000Y-128270000D02*
X165354000Y-126266100D01*
X165339950Y-126252050D02*
X165300500Y-126212600D01*
D27*
X147047648Y-81686670D02*
X147047648Y-81617248D01*
X146496333Y-81065933D02*
X146496333Y-80478667D01*
X147047648Y-81617248D02*
X146496333Y-81065933D01*
D26*
%TO.N,VCC_UNREGULATED*%
X169037000Y-69705000D02*
X168130000Y-70612000D01*
X169037000Y-69062600D02*
X170561000Y-69062600D01*
X172059600Y-67564000D02*
X172147000Y-67564000D01*
X170561000Y-69062600D02*
X172059600Y-67564000D01*
D28*
X167418800Y-71323200D02*
X168130000Y-70612000D01*
X166141400Y-71323200D02*
X167418800Y-71323200D01*
X168130000Y-69969600D02*
X169037000Y-69062600D01*
X168130000Y-70612000D02*
X168130000Y-69969600D01*
X169037000Y-69062600D02*
X169037000Y-69034998D01*
X153605209Y-65850791D02*
X156096991Y-65850791D01*
X152769990Y-66686010D02*
X153605209Y-65850791D01*
X161299319Y-68709999D02*
X165407799Y-68709999D01*
X159821310Y-67231990D02*
X161299319Y-68709999D01*
X157478190Y-67231990D02*
X159821310Y-67231990D01*
X156096991Y-65850791D02*
X157478190Y-67231990D01*
X167309800Y-70612000D02*
X168130000Y-70612000D01*
X165407799Y-68709999D02*
X167309800Y-70612000D01*
D26*
X150774400Y-70637390D02*
X148998090Y-68861080D01*
X148998090Y-68861080D02*
X148998090Y-66686010D01*
X150774400Y-73393300D02*
X150774400Y-70637390D01*
D28*
X148998090Y-66686010D02*
X152769990Y-66686010D01*
D30*
X150241000Y-82137000D02*
X150755600Y-82137000D01*
X152146000Y-80746600D02*
X152146000Y-79590900D01*
X150755600Y-82137000D02*
X152146000Y-80746600D01*
D28*
X139319000Y-69215000D02*
X137287000Y-69215000D01*
X141847990Y-66686010D02*
X139319000Y-69215000D01*
X148998090Y-66686010D02*
X141847990Y-66686010D01*
%TD*%
D31*
%TO.N,GND*%
X147076699Y-88475892D02*
X147006970Y-88497043D01*
X146896656Y-88556007D01*
X146799965Y-88635360D01*
X146588768Y-88850902D01*
X146588768Y-89075408D01*
X147348377Y-89835018D01*
X147362520Y-89820876D01*
X147542125Y-90000481D01*
X147527982Y-90014623D01*
X148287592Y-90774232D01*
X148512098Y-90774232D01*
X148727640Y-90563035D01*
X148806993Y-90466344D01*
X148865957Y-90356030D01*
X148902266Y-90236331D01*
X148914527Y-90111850D01*
X148912681Y-90093111D01*
X149076721Y-90257151D01*
X149080360Y-90263959D01*
X149158562Y-90359249D01*
X149618183Y-90818870D01*
X149713473Y-90897072D01*
X149822188Y-90955182D01*
X149940151Y-90990965D01*
X150062828Y-91003048D01*
X150185505Y-90990965D01*
X150303468Y-90955182D01*
X150412183Y-90897072D01*
X150484906Y-90837390D01*
X150560553Y-90814443D01*
X150672272Y-90754728D01*
X150612556Y-90866448D01*
X150589609Y-90942095D01*
X150529928Y-91014817D01*
X150471818Y-91123532D01*
X150436035Y-91241495D01*
X150423952Y-91364172D01*
X150436035Y-91486849D01*
X150471818Y-91604812D01*
X150529928Y-91713527D01*
X150579758Y-91774245D01*
X150612556Y-91882367D01*
X150711403Y-92067296D01*
X150844428Y-92229387D01*
X150885041Y-92262717D01*
X152094324Y-93472000D01*
X141224000Y-93472000D01*
X141224000Y-90856610D01*
X146685995Y-90856610D01*
X146685995Y-91081117D01*
X146994419Y-91393886D01*
X147091110Y-91473239D01*
X147201425Y-91532203D01*
X147321123Y-91568512D01*
X147445604Y-91580773D01*
X147570085Y-91568512D01*
X147689784Y-91532203D01*
X147800098Y-91473239D01*
X147896789Y-91393886D01*
X148107986Y-91178344D01*
X148107986Y-90953838D01*
X147348377Y-90194228D01*
X146685995Y-90856610D01*
X141224000Y-90856610D01*
X141224000Y-89917396D01*
X145782227Y-89917396D01*
X145794488Y-90041877D01*
X145830797Y-90161575D01*
X145889761Y-90271890D01*
X145969114Y-90368581D01*
X146281883Y-90677005D01*
X146506390Y-90677005D01*
X147168772Y-90014623D01*
X146409162Y-89255014D01*
X146184656Y-89255014D01*
X145969114Y-89466211D01*
X145889761Y-89562902D01*
X145830797Y-89673216D01*
X145794488Y-89792915D01*
X145782227Y-89917396D01*
X141224000Y-89917396D01*
X141224000Y-82623192D01*
X147076699Y-88475892D01*
%TA.AperFunction,Conductor*%
D32*
G36*
X147076699Y-88475892D02*
G01*
X147006970Y-88497043D01*
X146896656Y-88556007D01*
X146799965Y-88635360D01*
X146588768Y-88850902D01*
X146588768Y-89075408D01*
X147348377Y-89835018D01*
X147362520Y-89820876D01*
X147542125Y-90000481D01*
X147527982Y-90014623D01*
X148287592Y-90774232D01*
X148512098Y-90774232D01*
X148727640Y-90563035D01*
X148806993Y-90466344D01*
X148865957Y-90356030D01*
X148902266Y-90236331D01*
X148914527Y-90111850D01*
X148912681Y-90093111D01*
X149076721Y-90257151D01*
X149080360Y-90263959D01*
X149158562Y-90359249D01*
X149618183Y-90818870D01*
X149713473Y-90897072D01*
X149822188Y-90955182D01*
X149940151Y-90990965D01*
X150062828Y-91003048D01*
X150185505Y-90990965D01*
X150303468Y-90955182D01*
X150412183Y-90897072D01*
X150484906Y-90837390D01*
X150560553Y-90814443D01*
X150672272Y-90754728D01*
X150612556Y-90866448D01*
X150589609Y-90942095D01*
X150529928Y-91014817D01*
X150471818Y-91123532D01*
X150436035Y-91241495D01*
X150423952Y-91364172D01*
X150436035Y-91486849D01*
X150471818Y-91604812D01*
X150529928Y-91713527D01*
X150579758Y-91774245D01*
X150612556Y-91882367D01*
X150711403Y-92067296D01*
X150844428Y-92229387D01*
X150885041Y-92262717D01*
X152094324Y-93472000D01*
X141224000Y-93472000D01*
X141224000Y-90856610D01*
X146685995Y-90856610D01*
X146685995Y-91081117D01*
X146994419Y-91393886D01*
X147091110Y-91473239D01*
X147201425Y-91532203D01*
X147321123Y-91568512D01*
X147445604Y-91580773D01*
X147570085Y-91568512D01*
X147689784Y-91532203D01*
X147800098Y-91473239D01*
X147896789Y-91393886D01*
X148107986Y-91178344D01*
X148107986Y-90953838D01*
X147348377Y-90194228D01*
X146685995Y-90856610D01*
X141224000Y-90856610D01*
X141224000Y-89917396D01*
X145782227Y-89917396D01*
X145794488Y-90041877D01*
X145830797Y-90161575D01*
X145889761Y-90271890D01*
X145969114Y-90368581D01*
X146281883Y-90677005D01*
X146506390Y-90677005D01*
X147168772Y-90014623D01*
X146409162Y-89255014D01*
X146184656Y-89255014D01*
X145969114Y-89466211D01*
X145889761Y-89562902D01*
X145830797Y-89673216D01*
X145794488Y-89792915D01*
X145782227Y-89917396D01*
X141224000Y-89917396D01*
X141224000Y-82623192D01*
X147076699Y-88475892D01*
G37*
%TD.AperFunction*%
D31*
X144582800Y-82075934D02*
X144582801Y-82474548D01*
X144580373Y-82499200D01*
X144590065Y-82597609D01*
X144618770Y-82692236D01*
X144665384Y-82779445D01*
X144712401Y-82836735D01*
X144712404Y-82836738D01*
X144728117Y-82855884D01*
X144747263Y-82871597D01*
X144813998Y-82938332D01*
X144829716Y-82957484D01*
X144906155Y-83020217D01*
X144993364Y-83066831D01*
X145087991Y-83095536D01*
X145161747Y-83102800D01*
X145161756Y-83102800D01*
X145186399Y-83105227D01*
X145211042Y-83102800D01*
X146248466Y-83102800D01*
X148725603Y-85579938D01*
X148741316Y-85599084D01*
X148760462Y-85614797D01*
X148760465Y-85614800D01*
X148817754Y-85661817D01*
X148904963Y-85708431D01*
X148999590Y-85737136D01*
X149008432Y-85738007D01*
X149073347Y-85744400D01*
X149073354Y-85744400D01*
X149098000Y-85746827D01*
X149122645Y-85744400D01*
X151993844Y-85744400D01*
X167605157Y-93472000D01*
X155752975Y-93472000D01*
X155710756Y-93437352D01*
X155602041Y-93379242D01*
X155484078Y-93343459D01*
X155361401Y-93331376D01*
X155138331Y-93331376D01*
X155120737Y-93321972D01*
X154920078Y-93261103D01*
X154891470Y-93258285D01*
X154410137Y-92776953D01*
X154498331Y-92768266D01*
X154618030Y-92731957D01*
X154728344Y-92672993D01*
X154825035Y-92593640D01*
X155036232Y-92378098D01*
X155036232Y-92153592D01*
X154276623Y-91393982D01*
X154262481Y-91408125D01*
X154082876Y-91228520D01*
X154097018Y-91214377D01*
X154456228Y-91214377D01*
X155215838Y-91973986D01*
X155440344Y-91973986D01*
X155655886Y-91762789D01*
X155735239Y-91666098D01*
X155794203Y-91555784D01*
X155830512Y-91436085D01*
X155842773Y-91311604D01*
X155830512Y-91187123D01*
X155794203Y-91067425D01*
X155735239Y-90957110D01*
X155655886Y-90860419D01*
X155343117Y-90551995D01*
X155118610Y-90551995D01*
X154456228Y-91214377D01*
X154097018Y-91214377D01*
X153337408Y-90454768D01*
X153112902Y-90454768D01*
X152897360Y-90665965D01*
X152818007Y-90762656D01*
X152759043Y-90872970D01*
X152733206Y-90958148D01*
X152729750Y-90946756D01*
X152671640Y-90838041D01*
X152593438Y-90742751D01*
X152133817Y-90283130D01*
X152038527Y-90204928D01*
X151929812Y-90146818D01*
X151811849Y-90111035D01*
X151689172Y-90098952D01*
X151566495Y-90111035D01*
X151448532Y-90146818D01*
X151339817Y-90204928D01*
X151267096Y-90264608D01*
X151191447Y-90287556D01*
X151079728Y-90347271D01*
X151139443Y-90235553D01*
X151162390Y-90159906D01*
X151222072Y-90087183D01*
X151241596Y-90050656D01*
X153517014Y-90050656D01*
X153517014Y-90275162D01*
X154276623Y-91034772D01*
X154939005Y-90372390D01*
X154939005Y-90147883D01*
X154630581Y-89835114D01*
X154533890Y-89755761D01*
X154423575Y-89696797D01*
X154303877Y-89660488D01*
X154179396Y-89648227D01*
X154054915Y-89660488D01*
X153935216Y-89696797D01*
X153824902Y-89755761D01*
X153728211Y-89835114D01*
X153517014Y-90050656D01*
X151241596Y-90050656D01*
X151280182Y-89978468D01*
X151315965Y-89860505D01*
X151328048Y-89737828D01*
X151315965Y-89615151D01*
X151280182Y-89497188D01*
X151222072Y-89388473D01*
X151143870Y-89293183D01*
X150684249Y-88833562D01*
X150588959Y-88755360D01*
X150582151Y-88751721D01*
X149662069Y-87831639D01*
X149628734Y-87791020D01*
X149466643Y-87657996D01*
X149281714Y-87559149D01*
X149153268Y-87520185D01*
X149067752Y-87450005D01*
X149054694Y-87443026D01*
X143348485Y-81736816D01*
X143386685Y-81698616D01*
X143449831Y-81604112D01*
X143480423Y-81530257D01*
X144582800Y-82075934D01*
%TA.AperFunction,Conductor*%
D32*
G36*
X144582800Y-82075934D02*
G01*
X144582801Y-82474548D01*
X144580373Y-82499200D01*
X144590065Y-82597609D01*
X144618770Y-82692236D01*
X144665384Y-82779445D01*
X144712401Y-82836735D01*
X144712404Y-82836738D01*
X144728117Y-82855884D01*
X144747263Y-82871597D01*
X144813998Y-82938332D01*
X144829716Y-82957484D01*
X144906155Y-83020217D01*
X144993364Y-83066831D01*
X145087991Y-83095536D01*
X145161747Y-83102800D01*
X145161756Y-83102800D01*
X145186399Y-83105227D01*
X145211042Y-83102800D01*
X146248466Y-83102800D01*
X148725603Y-85579938D01*
X148741316Y-85599084D01*
X148760462Y-85614797D01*
X148760465Y-85614800D01*
X148817754Y-85661817D01*
X148904963Y-85708431D01*
X148999590Y-85737136D01*
X149008432Y-85738007D01*
X149073347Y-85744400D01*
X149073354Y-85744400D01*
X149098000Y-85746827D01*
X149122645Y-85744400D01*
X151993844Y-85744400D01*
X167605157Y-93472000D01*
X155752975Y-93472000D01*
X155710756Y-93437352D01*
X155602041Y-93379242D01*
X155484078Y-93343459D01*
X155361401Y-93331376D01*
X155138331Y-93331376D01*
X155120737Y-93321972D01*
X154920078Y-93261103D01*
X154891470Y-93258285D01*
X154410137Y-92776953D01*
X154498331Y-92768266D01*
X154618030Y-92731957D01*
X154728344Y-92672993D01*
X154825035Y-92593640D01*
X155036232Y-92378098D01*
X155036232Y-92153592D01*
X154276623Y-91393982D01*
X154262481Y-91408125D01*
X154082876Y-91228520D01*
X154097018Y-91214377D01*
X154456228Y-91214377D01*
X155215838Y-91973986D01*
X155440344Y-91973986D01*
X155655886Y-91762789D01*
X155735239Y-91666098D01*
X155794203Y-91555784D01*
X155830512Y-91436085D01*
X155842773Y-91311604D01*
X155830512Y-91187123D01*
X155794203Y-91067425D01*
X155735239Y-90957110D01*
X155655886Y-90860419D01*
X155343117Y-90551995D01*
X155118610Y-90551995D01*
X154456228Y-91214377D01*
X154097018Y-91214377D01*
X153337408Y-90454768D01*
X153112902Y-90454768D01*
X152897360Y-90665965D01*
X152818007Y-90762656D01*
X152759043Y-90872970D01*
X152733206Y-90958148D01*
X152729750Y-90946756D01*
X152671640Y-90838041D01*
X152593438Y-90742751D01*
X152133817Y-90283130D01*
X152038527Y-90204928D01*
X151929812Y-90146818D01*
X151811849Y-90111035D01*
X151689172Y-90098952D01*
X151566495Y-90111035D01*
X151448532Y-90146818D01*
X151339817Y-90204928D01*
X151267096Y-90264608D01*
X151191447Y-90287556D01*
X151079728Y-90347271D01*
X151139443Y-90235553D01*
X151162390Y-90159906D01*
X151222072Y-90087183D01*
X151241596Y-90050656D01*
X153517014Y-90050656D01*
X153517014Y-90275162D01*
X154276623Y-91034772D01*
X154939005Y-90372390D01*
X154939005Y-90147883D01*
X154630581Y-89835114D01*
X154533890Y-89755761D01*
X154423575Y-89696797D01*
X154303877Y-89660488D01*
X154179396Y-89648227D01*
X154054915Y-89660488D01*
X153935216Y-89696797D01*
X153824902Y-89755761D01*
X153728211Y-89835114D01*
X153517014Y-90050656D01*
X151241596Y-90050656D01*
X151280182Y-89978468D01*
X151315965Y-89860505D01*
X151328048Y-89737828D01*
X151315965Y-89615151D01*
X151280182Y-89497188D01*
X151222072Y-89388473D01*
X151143870Y-89293183D01*
X150684249Y-88833562D01*
X150588959Y-88755360D01*
X150582151Y-88751721D01*
X149662069Y-87831639D01*
X149628734Y-87791020D01*
X149466643Y-87657996D01*
X149281714Y-87559149D01*
X149153268Y-87520185D01*
X149067752Y-87450005D01*
X149054694Y-87443026D01*
X143348485Y-81736816D01*
X143386685Y-81698616D01*
X143449831Y-81604112D01*
X143480423Y-81530257D01*
X144582800Y-82075934D01*
G37*
%TD.AperFunction*%
%TD*%
D31*
%TO.N,GND*%
X136779000Y-77343000D02*
X136799000Y-77343000D01*
X136799000Y-77597000D01*
X136779000Y-77597000D01*
X136779000Y-78996250D01*
X136937750Y-79155000D01*
X137552000Y-79158072D01*
X137676482Y-79145812D01*
X137796180Y-79109502D01*
X137906494Y-79050537D01*
X138003185Y-78971185D01*
X138062570Y-78898824D01*
X138473715Y-78898824D01*
X137145793Y-80226747D01*
X137093965Y-80242469D01*
X137006756Y-80289083D01*
X136930317Y-80351816D01*
X136867584Y-80428255D01*
X136820970Y-80515464D01*
X136792265Y-80610091D01*
X136785001Y-80683847D01*
X136785000Y-83830373D01*
X136713095Y-83837455D01*
X136642030Y-83859012D01*
X136576537Y-83894019D01*
X136519131Y-83941131D01*
X136472019Y-83998537D01*
X136437012Y-84064030D01*
X136415455Y-84135095D01*
X136408176Y-84209000D01*
X136408176Y-85209000D01*
X136415455Y-85282905D01*
X136437012Y-85353970D01*
X136472019Y-85419463D01*
X136519131Y-85476869D01*
X136576537Y-85523981D01*
X136642030Y-85558988D01*
X136713095Y-85580545D01*
X136787000Y-85587824D01*
X137787000Y-85587824D01*
X137860905Y-85580545D01*
X137931970Y-85558988D01*
X137997463Y-85523981D01*
X138054869Y-85476869D01*
X138080641Y-85445466D01*
X138141585Y-85486187D01*
X138301189Y-85552297D01*
X138470623Y-85586000D01*
X138643377Y-85586000D01*
X138812811Y-85552297D01*
X138972415Y-85486187D01*
X138993772Y-85471917D01*
X139084980Y-85567865D01*
X139266794Y-85696123D01*
X139470136Y-85786446D01*
X139525126Y-85803119D01*
X139700000Y-85676954D01*
X139700000Y-84836000D01*
X139954000Y-84836000D01*
X139954000Y-85676954D01*
X140128874Y-85803119D01*
X140183864Y-85786446D01*
X140387206Y-85696123D01*
X140569020Y-85567865D01*
X140722318Y-85406601D01*
X140841210Y-85218529D01*
X140921126Y-85010876D01*
X140796129Y-84836000D01*
X139954000Y-84836000D01*
X139700000Y-84836000D01*
X139680000Y-84836000D01*
X139680000Y-84582000D01*
X139700000Y-84582000D01*
X139700000Y-83741046D01*
X139954000Y-83741046D01*
X139954000Y-84582000D01*
X140796129Y-84582000D01*
X140921126Y-84407124D01*
X140841210Y-84199471D01*
X140722318Y-84011399D01*
X140569020Y-83850135D01*
X140387206Y-83721877D01*
X140183864Y-83631554D01*
X140128874Y-83614881D01*
X139954000Y-83741046D01*
X139700000Y-83741046D01*
X139525126Y-83614881D01*
X139470136Y-83631554D01*
X139266794Y-83721877D01*
X139084980Y-83850135D01*
X139059000Y-83877465D01*
X139059000Y-82522400D01*
X139108152Y-82614356D01*
X139186354Y-82709646D01*
X139281644Y-82787848D01*
X139390359Y-82845958D01*
X139508322Y-82881741D01*
X139630999Y-82893824D01*
X140531001Y-82893824D01*
X140653678Y-82881741D01*
X140771641Y-82845958D01*
X140880356Y-82787848D01*
X140970000Y-82714280D01*
X140970000Y-93472000D01*
X135809000Y-93472000D01*
X135809000Y-79157787D01*
X136366250Y-79155000D01*
X136525000Y-78996250D01*
X136525000Y-77597000D01*
X136505000Y-77597000D01*
X136505000Y-77343000D01*
X136525000Y-77343000D01*
X136525000Y-77323000D01*
X136779000Y-77323000D01*
X136779000Y-77343000D01*
%TA.AperFunction,Conductor*%
D32*
G36*
X136779000Y-77343000D02*
G01*
X136799000Y-77343000D01*
X136799000Y-77597000D01*
X136779000Y-77597000D01*
X136779000Y-78996250D01*
X136937750Y-79155000D01*
X137552000Y-79158072D01*
X137676482Y-79145812D01*
X137796180Y-79109502D01*
X137906494Y-79050537D01*
X138003185Y-78971185D01*
X138062570Y-78898824D01*
X138473715Y-78898824D01*
X137145793Y-80226747D01*
X137093965Y-80242469D01*
X137006756Y-80289083D01*
X136930317Y-80351816D01*
X136867584Y-80428255D01*
X136820970Y-80515464D01*
X136792265Y-80610091D01*
X136785001Y-80683847D01*
X136785000Y-83830373D01*
X136713095Y-83837455D01*
X136642030Y-83859012D01*
X136576537Y-83894019D01*
X136519131Y-83941131D01*
X136472019Y-83998537D01*
X136437012Y-84064030D01*
X136415455Y-84135095D01*
X136408176Y-84209000D01*
X136408176Y-85209000D01*
X136415455Y-85282905D01*
X136437012Y-85353970D01*
X136472019Y-85419463D01*
X136519131Y-85476869D01*
X136576537Y-85523981D01*
X136642030Y-85558988D01*
X136713095Y-85580545D01*
X136787000Y-85587824D01*
X137787000Y-85587824D01*
X137860905Y-85580545D01*
X137931970Y-85558988D01*
X137997463Y-85523981D01*
X138054869Y-85476869D01*
X138080641Y-85445466D01*
X138141585Y-85486187D01*
X138301189Y-85552297D01*
X138470623Y-85586000D01*
X138643377Y-85586000D01*
X138812811Y-85552297D01*
X138972415Y-85486187D01*
X138993772Y-85471917D01*
X139084980Y-85567865D01*
X139266794Y-85696123D01*
X139470136Y-85786446D01*
X139525126Y-85803119D01*
X139700000Y-85676954D01*
X139700000Y-84836000D01*
X139954000Y-84836000D01*
X139954000Y-85676954D01*
X140128874Y-85803119D01*
X140183864Y-85786446D01*
X140387206Y-85696123D01*
X140569020Y-85567865D01*
X140722318Y-85406601D01*
X140841210Y-85218529D01*
X140921126Y-85010876D01*
X140796129Y-84836000D01*
X139954000Y-84836000D01*
X139700000Y-84836000D01*
X139680000Y-84836000D01*
X139680000Y-84582000D01*
X139700000Y-84582000D01*
X139700000Y-83741046D01*
X139954000Y-83741046D01*
X139954000Y-84582000D01*
X140796129Y-84582000D01*
X140921126Y-84407124D01*
X140841210Y-84199471D01*
X140722318Y-84011399D01*
X140569020Y-83850135D01*
X140387206Y-83721877D01*
X140183864Y-83631554D01*
X140128874Y-83614881D01*
X139954000Y-83741046D01*
X139700000Y-83741046D01*
X139525126Y-83614881D01*
X139470136Y-83631554D01*
X139266794Y-83721877D01*
X139084980Y-83850135D01*
X139059000Y-83877465D01*
X139059000Y-82522400D01*
X139108152Y-82614356D01*
X139186354Y-82709646D01*
X139281644Y-82787848D01*
X139390359Y-82845958D01*
X139508322Y-82881741D01*
X139630999Y-82893824D01*
X140531001Y-82893824D01*
X140653678Y-82881741D01*
X140771641Y-82845958D01*
X140880356Y-82787848D01*
X140970000Y-82714280D01*
X140970000Y-93472000D01*
X135809000Y-93472000D01*
X135809000Y-79157787D01*
X136366250Y-79155000D01*
X136525000Y-78996250D01*
X136525000Y-77597000D01*
X136505000Y-77597000D01*
X136505000Y-77343000D01*
X136525000Y-77343000D01*
X136525000Y-77323000D01*
X136779000Y-77323000D01*
X136779000Y-77343000D01*
G37*
%TD.AperFunction*%
D31*
X175595000Y-93472000D02*
X167923712Y-93472000D01*
X152312399Y-85744400D01*
X164516557Y-85744400D01*
X164541200Y-85746827D01*
X164565843Y-85744400D01*
X164565853Y-85744400D01*
X164639609Y-85737136D01*
X164734236Y-85708431D01*
X164821445Y-85661817D01*
X164897884Y-85599084D01*
X164913601Y-85579933D01*
X165996338Y-84497197D01*
X166015484Y-84481484D01*
X166078217Y-84405045D01*
X166124831Y-84317836D01*
X166153536Y-84223209D01*
X166160800Y-84149453D01*
X166160800Y-84149444D01*
X166163227Y-84124801D01*
X166160800Y-84100158D01*
X166160800Y-83782068D01*
X166163469Y-83788512D01*
X166226615Y-83883016D01*
X166306984Y-83963385D01*
X166401488Y-84026531D01*
X166506495Y-84070026D01*
X166617970Y-84092200D01*
X166731630Y-84092200D01*
X166843105Y-84070026D01*
X166948112Y-84026531D01*
X166962077Y-84017200D01*
X168377357Y-84017200D01*
X168402000Y-84019627D01*
X168426643Y-84017200D01*
X168426653Y-84017200D01*
X168500409Y-84009936D01*
X168595036Y-83981231D01*
X168682245Y-83934617D01*
X168758684Y-83871884D01*
X168774402Y-83852732D01*
X174683144Y-77943992D01*
X174702284Y-77928284D01*
X174717992Y-77909144D01*
X174718000Y-77909136D01*
X174765017Y-77851846D01*
X174792929Y-77799625D01*
X174811631Y-77764636D01*
X174840336Y-77670009D01*
X174847600Y-77596253D01*
X174847600Y-77596243D01*
X174850027Y-77571600D01*
X174847600Y-77546957D01*
X174847600Y-67542243D01*
X174850027Y-67517600D01*
X174847600Y-67492957D01*
X174847600Y-67492947D01*
X174840336Y-67419191D01*
X174811631Y-67324564D01*
X174780932Y-67267130D01*
X174765017Y-67237354D01*
X174718000Y-67180064D01*
X174717992Y-67180056D01*
X174702284Y-67160916D01*
X174683143Y-67145207D01*
X173494401Y-65956467D01*
X173478684Y-65937316D01*
X173442308Y-65907463D01*
X173411701Y-65850201D01*
X173345935Y-65770065D01*
X173265799Y-65704299D01*
X173181051Y-65659000D01*
X173265799Y-65613701D01*
X173345935Y-65547935D01*
X173411701Y-65467799D01*
X173460570Y-65376372D01*
X173490663Y-65277168D01*
X173500824Y-65174000D01*
X173500824Y-64874000D01*
X173490663Y-64770832D01*
X173460570Y-64671628D01*
X173427902Y-64610510D01*
X173476494Y-64584537D01*
X173573185Y-64505185D01*
X173652537Y-64408494D01*
X173711502Y-64298180D01*
X173747812Y-64178482D01*
X173760072Y-64054000D01*
X173757000Y-64039750D01*
X173598250Y-63881000D01*
X172274000Y-63881000D01*
X172274000Y-63901000D01*
X172020000Y-63901000D01*
X172020000Y-63881000D01*
X170695750Y-63881000D01*
X170537000Y-64039750D01*
X170533928Y-64054000D01*
X170546188Y-64178482D01*
X170582498Y-64298180D01*
X170641463Y-64408494D01*
X170720815Y-64505185D01*
X170817506Y-64584537D01*
X170866098Y-64610510D01*
X170833430Y-64671628D01*
X170803337Y-64770832D01*
X170793176Y-64874000D01*
X170793176Y-65174000D01*
X170803337Y-65277168D01*
X170833430Y-65376372D01*
X170882299Y-65467799D01*
X170948065Y-65547935D01*
X171028201Y-65613701D01*
X171112949Y-65659000D01*
X171028201Y-65704299D01*
X170948065Y-65770065D01*
X170882299Y-65850201D01*
X170833430Y-65941628D01*
X170803337Y-66040832D01*
X170793176Y-66144000D01*
X170793176Y-66444000D01*
X170803337Y-66547168D01*
X170833430Y-66646372D01*
X170882299Y-66737799D01*
X170948065Y-66817935D01*
X171028201Y-66883701D01*
X171112949Y-66929000D01*
X171028201Y-66974299D01*
X170948065Y-67040065D01*
X170882299Y-67120201D01*
X170833430Y-67211628D01*
X170803337Y-67310832D01*
X170793176Y-67414000D01*
X170793176Y-67714000D01*
X170803337Y-67817168D01*
X170830424Y-67906464D01*
X170301289Y-68435600D01*
X169841318Y-68435600D01*
X169748949Y-68323049D01*
X169596375Y-68197834D01*
X169422304Y-68104792D01*
X169233426Y-68047496D01*
X169037000Y-68028150D01*
X168840575Y-68047496D01*
X168651697Y-68104792D01*
X168477625Y-68197834D01*
X168325051Y-68323049D01*
X168199836Y-68475623D01*
X168191684Y-68490874D01*
X167599383Y-69083176D01*
X167198018Y-69083176D01*
X167196523Y-69081681D01*
X167305712Y-69070927D01*
X167423903Y-69035074D01*
X167532827Y-68976852D01*
X167604381Y-68918130D01*
X167618573Y-68903938D01*
X167642501Y-68884301D01*
X167720853Y-68788828D01*
X167779075Y-68679903D01*
X167814927Y-68561713D01*
X167824000Y-68469594D01*
X167827033Y-68438800D01*
X167824000Y-68408006D01*
X167824000Y-68242824D01*
X168022000Y-68242824D01*
X168125168Y-68232663D01*
X168224372Y-68202570D01*
X168315799Y-68153701D01*
X168395935Y-68087935D01*
X168461701Y-68007799D01*
X168510570Y-67916372D01*
X168540663Y-67817168D01*
X168550824Y-67714000D01*
X168550824Y-67414000D01*
X168540663Y-67310832D01*
X168510570Y-67211628D01*
X168461701Y-67120201D01*
X168395935Y-67040065D01*
X168315799Y-66974299D01*
X168231051Y-66929000D01*
X168315799Y-66883701D01*
X168395935Y-66817935D01*
X168461701Y-66737799D01*
X168510570Y-66646372D01*
X168540663Y-66547168D01*
X168550824Y-66444000D01*
X168550824Y-66144000D01*
X168540663Y-66040832D01*
X168510570Y-65941628D01*
X168461701Y-65850201D01*
X168395935Y-65770065D01*
X168315799Y-65704299D01*
X168231051Y-65659000D01*
X168315799Y-65613701D01*
X168395935Y-65547935D01*
X168461701Y-65467799D01*
X168510570Y-65376372D01*
X168540663Y-65277168D01*
X168550824Y-65174000D01*
X168550824Y-64874000D01*
X168540663Y-64770832D01*
X168510570Y-64671628D01*
X168461701Y-64580201D01*
X168395935Y-64500065D01*
X168315799Y-64434299D01*
X168231051Y-64389000D01*
X168315799Y-64343701D01*
X168395935Y-64277935D01*
X168461701Y-64197799D01*
X168510570Y-64106372D01*
X168540663Y-64007168D01*
X168550824Y-63904000D01*
X168550824Y-63604000D01*
X168540663Y-63500832D01*
X168526457Y-63454000D01*
X170533928Y-63454000D01*
X170537000Y-63468250D01*
X170695750Y-63627000D01*
X172020000Y-63627000D01*
X172020000Y-62977750D01*
X172274000Y-62977750D01*
X172274000Y-63627000D01*
X173598250Y-63627000D01*
X173757000Y-63468250D01*
X173760072Y-63454000D01*
X173747812Y-63329518D01*
X173711502Y-63209820D01*
X173652537Y-63099506D01*
X173573185Y-63002815D01*
X173476494Y-62923463D01*
X173366180Y-62864498D01*
X173246482Y-62828188D01*
X173122000Y-62815928D01*
X172432750Y-62819000D01*
X172274000Y-62977750D01*
X172020000Y-62977750D01*
X171861250Y-62819000D01*
X171172000Y-62815928D01*
X171047518Y-62828188D01*
X170927820Y-62864498D01*
X170817506Y-62923463D01*
X170720815Y-63002815D01*
X170641463Y-63099506D01*
X170582498Y-63209820D01*
X170546188Y-63329518D01*
X170533928Y-63454000D01*
X168526457Y-63454000D01*
X168510570Y-63401628D01*
X168461701Y-63310201D01*
X168395935Y-63230065D01*
X168315799Y-63164299D01*
X168224372Y-63115430D01*
X168125168Y-63085337D01*
X168022000Y-63075176D01*
X166372000Y-63075176D01*
X166268832Y-63085337D01*
X166169628Y-63115430D01*
X166147982Y-63127000D01*
X166041899Y-63127000D01*
X166034741Y-63054322D01*
X165998958Y-62936359D01*
X165940848Y-62827644D01*
X165862646Y-62732354D01*
X165767356Y-62654152D01*
X165658641Y-62596042D01*
X165540678Y-62560259D01*
X165418001Y-62548176D01*
X164717999Y-62548176D01*
X164595322Y-62560259D01*
X164477359Y-62596042D01*
X164368644Y-62654152D01*
X164273354Y-62732354D01*
X164195152Y-62827644D01*
X164137042Y-62936359D01*
X164101259Y-63054322D01*
X164089176Y-63176999D01*
X164089176Y-64077001D01*
X164101259Y-64199678D01*
X164137042Y-64317641D01*
X164195152Y-64426356D01*
X164273354Y-64521646D01*
X164368644Y-64599848D01*
X164477359Y-64657958D01*
X164595322Y-64693741D01*
X164717999Y-64705824D01*
X165418001Y-64705824D01*
X165540678Y-64693741D01*
X165658641Y-64657958D01*
X165767356Y-64599848D01*
X165862646Y-64521646D01*
X165940848Y-64426356D01*
X165965092Y-64381000D01*
X166147982Y-64381000D01*
X166162949Y-64389000D01*
X166078201Y-64434299D01*
X165998065Y-64500065D01*
X165932299Y-64580201D01*
X165883430Y-64671628D01*
X165853337Y-64770832D01*
X165843176Y-64874000D01*
X165843176Y-65174000D01*
X165853337Y-65277168D01*
X165883430Y-65376372D01*
X165932299Y-65467799D01*
X165998065Y-65547935D01*
X166078201Y-65613701D01*
X166162949Y-65659000D01*
X166147982Y-65667000D01*
X166121391Y-65667000D01*
X166090599Y-65663967D01*
X166059807Y-65667000D01*
X166059806Y-65667000D01*
X165967687Y-65676073D01*
X165849497Y-65711925D01*
X165740572Y-65770147D01*
X165720218Y-65786851D01*
X165690641Y-65771042D01*
X165572678Y-65735259D01*
X165450001Y-65723176D01*
X164749999Y-65723176D01*
X164627322Y-65735259D01*
X164509359Y-65771042D01*
X164400644Y-65829152D01*
X164305354Y-65907354D01*
X164227152Y-66002644D01*
X164169042Y-66111359D01*
X164133259Y-66229322D01*
X164121176Y-66351999D01*
X164121176Y-67252001D01*
X164133259Y-67374678D01*
X164169042Y-67492641D01*
X164227152Y-67601356D01*
X164305354Y-67696646D01*
X164319188Y-67707999D01*
X163880812Y-67707999D01*
X163894646Y-67696646D01*
X163972848Y-67601356D01*
X164030958Y-67492641D01*
X164066741Y-67374678D01*
X164078824Y-67252001D01*
X164078824Y-66351999D01*
X164066741Y-66229322D01*
X164030958Y-66111359D01*
X163972848Y-66002644D01*
X163894646Y-65907354D01*
X163799356Y-65829152D01*
X163690641Y-65771042D01*
X163572678Y-65735259D01*
X163450001Y-65723176D01*
X162749999Y-65723176D01*
X162627322Y-65735259D01*
X162509359Y-65771042D01*
X162400644Y-65829152D01*
X162305354Y-65907354D01*
X162227152Y-66002644D01*
X162169042Y-66111359D01*
X162133259Y-66229322D01*
X162121176Y-66351999D01*
X162121176Y-67252001D01*
X162133259Y-67374678D01*
X162169042Y-67492641D01*
X162227152Y-67601356D01*
X162305354Y-67696646D01*
X162319188Y-67707999D01*
X161714361Y-67707999D01*
X160564641Y-66558280D01*
X160533259Y-66520041D01*
X160380685Y-66394826D01*
X160206614Y-66301784D01*
X160040599Y-66251423D01*
X160196734Y-66097948D01*
X160328196Y-65904813D01*
X160419454Y-65689742D01*
X160467000Y-65461000D01*
X160467000Y-65161000D01*
X159409000Y-65161000D01*
X159409000Y-65181000D01*
X159155000Y-65181000D01*
X159155000Y-65161000D01*
X158097000Y-65161000D01*
X158097000Y-65461000D01*
X158144546Y-65689742D01*
X158235804Y-65904813D01*
X158367266Y-66097948D01*
X158501596Y-66229990D01*
X157893232Y-66229990D01*
X156840322Y-65177081D01*
X156808940Y-65138842D01*
X156656366Y-65013627D01*
X156482295Y-64920585D01*
X156293417Y-64863289D01*
X156146214Y-64848791D01*
X156146207Y-64848791D01*
X156096991Y-64843944D01*
X156047775Y-64848791D01*
X153654424Y-64848791D01*
X153605208Y-64843944D01*
X153555992Y-64848791D01*
X153555986Y-64848791D01*
X153428821Y-64861315D01*
X153408782Y-64863289D01*
X153284177Y-64901088D01*
X153219905Y-64920585D01*
X153045834Y-65013627D01*
X152893260Y-65138842D01*
X152861882Y-65177077D01*
X152354949Y-65684010D01*
X151781038Y-65684010D01*
X151817000Y-65511000D01*
X151817000Y-65211000D01*
X150759000Y-65211000D01*
X150759000Y-65231000D01*
X150505000Y-65231000D01*
X150505000Y-65211000D01*
X149447000Y-65211000D01*
X149447000Y-65511000D01*
X149482962Y-65684010D01*
X141897206Y-65684010D01*
X141847990Y-65679163D01*
X141798774Y-65684010D01*
X141798767Y-65684010D01*
X141669747Y-65696717D01*
X141651563Y-65698508D01*
X141570245Y-65723176D01*
X141462686Y-65755804D01*
X141288615Y-65848846D01*
X141136041Y-65974061D01*
X141104663Y-66012295D01*
X138903959Y-68213000D01*
X138125248Y-68213000D01*
X138130297Y-68200811D01*
X138164000Y-68031377D01*
X138164000Y-67858623D01*
X138130297Y-67689189D01*
X138064187Y-67529585D01*
X137968210Y-67385945D01*
X137846055Y-67263790D01*
X137702415Y-67167813D01*
X137542811Y-67101703D01*
X137373377Y-67068000D01*
X137200623Y-67068000D01*
X137031189Y-67101703D01*
X136871585Y-67167813D01*
X136727945Y-67263790D01*
X136605790Y-67385945D01*
X136509813Y-67529585D01*
X136443703Y-67689189D01*
X136410000Y-67858623D01*
X136410000Y-68031377D01*
X136443703Y-68200811D01*
X136509813Y-68360415D01*
X136550534Y-68421359D01*
X136519131Y-68447131D01*
X136472019Y-68504537D01*
X136437012Y-68570030D01*
X136415455Y-68641095D01*
X136408176Y-68715000D01*
X136408176Y-68733566D01*
X136356794Y-68829696D01*
X136299498Y-69018574D01*
X136280152Y-69215000D01*
X136299498Y-69411426D01*
X136356794Y-69600304D01*
X136408176Y-69696434D01*
X136408176Y-69715000D01*
X136415455Y-69788905D01*
X136437012Y-69859970D01*
X136472019Y-69925463D01*
X136519131Y-69982869D01*
X136576537Y-70029981D01*
X136642030Y-70064988D01*
X136713095Y-70086545D01*
X136787000Y-70093824D01*
X136805566Y-70093824D01*
X136901696Y-70145206D01*
X137090574Y-70202502D01*
X137237777Y-70217000D01*
X139269784Y-70217000D01*
X139319000Y-70221847D01*
X139368216Y-70217000D01*
X139368223Y-70217000D01*
X139515426Y-70202502D01*
X139704304Y-70145206D01*
X139878375Y-70052164D01*
X140030949Y-69926949D01*
X140062332Y-69888709D01*
X141729846Y-68221195D01*
X141729176Y-68228000D01*
X141729176Y-69788000D01*
X141736455Y-69861905D01*
X141758012Y-69932970D01*
X141793019Y-69998463D01*
X141840131Y-70055869D01*
X141897537Y-70102981D01*
X141963030Y-70137988D01*
X142034095Y-70159545D01*
X142108000Y-70166824D01*
X142758000Y-70166824D01*
X142831905Y-70159545D01*
X142902970Y-70137988D01*
X142968463Y-70102981D01*
X143025869Y-70055869D01*
X143072981Y-69998463D01*
X143107988Y-69932970D01*
X143129545Y-69861905D01*
X143136824Y-69788000D01*
X143136824Y-68228000D01*
X143129545Y-68154095D01*
X143107988Y-68083030D01*
X143072981Y-68017537D01*
X143025869Y-67960131D01*
X142968463Y-67913019D01*
X142902970Y-67878012D01*
X142831905Y-67856455D01*
X142758000Y-67849176D01*
X142108000Y-67849176D01*
X142101196Y-67849846D01*
X142263032Y-67688010D01*
X148371091Y-67688010D01*
X148371090Y-68830286D01*
X148368057Y-68861080D01*
X148371090Y-68891873D01*
X148380163Y-68983992D01*
X148416015Y-69102182D01*
X148474237Y-69211107D01*
X148552589Y-69306581D01*
X148576517Y-69326218D01*
X149296745Y-70046446D01*
X149294001Y-70046176D01*
X148393999Y-70046176D01*
X148271322Y-70058259D01*
X148153359Y-70094042D01*
X148044644Y-70152152D01*
X147949354Y-70230354D01*
X147871152Y-70325644D01*
X147813042Y-70434359D01*
X147777259Y-70552322D01*
X147765176Y-70674999D01*
X147765176Y-71375001D01*
X147777259Y-71497678D01*
X147813042Y-71615641D01*
X147871152Y-71724356D01*
X147949354Y-71819646D01*
X148044644Y-71897848D01*
X148153359Y-71955958D01*
X148271322Y-71991741D01*
X148393999Y-72003824D01*
X149294001Y-72003824D01*
X149416678Y-71991741D01*
X149534641Y-71955958D01*
X149643356Y-71897848D01*
X149738646Y-71819646D01*
X149816848Y-71724356D01*
X149874958Y-71615641D01*
X149910741Y-71497678D01*
X149922824Y-71375001D01*
X149922824Y-70674999D01*
X149922554Y-70672256D01*
X150147401Y-70897103D01*
X150147400Y-73424093D01*
X150156473Y-73516212D01*
X150192325Y-73634402D01*
X150236143Y-73716379D01*
X150210028Y-73694947D01*
X150101103Y-73636725D01*
X149982913Y-73600873D01*
X149890794Y-73591800D01*
X149882440Y-73590977D01*
X149910741Y-73497678D01*
X149922824Y-73375001D01*
X149922824Y-72674999D01*
X149910741Y-72552322D01*
X149874958Y-72434359D01*
X149816848Y-72325644D01*
X149738646Y-72230354D01*
X149643356Y-72152152D01*
X149534641Y-72094042D01*
X149416678Y-72058259D01*
X149294001Y-72046176D01*
X148393999Y-72046176D01*
X148271322Y-72058259D01*
X148153359Y-72094042D01*
X148044644Y-72152152D01*
X147949354Y-72230354D01*
X147871152Y-72325644D01*
X147813042Y-72434359D01*
X147777259Y-72552322D01*
X147765176Y-72674999D01*
X147765176Y-73375001D01*
X147777259Y-73497678D01*
X147805810Y-73591800D01*
X141356393Y-73591800D01*
X141325599Y-73588767D01*
X141202687Y-73600873D01*
X141084497Y-73636725D01*
X140975572Y-73694947D01*
X140880099Y-73773299D01*
X140860466Y-73797222D01*
X140387055Y-74270634D01*
X140390072Y-73520000D01*
X140377812Y-73395518D01*
X140341502Y-73275820D01*
X140282537Y-73165506D01*
X140203185Y-73068815D01*
X140106494Y-72989463D01*
X139996180Y-72930498D01*
X139876482Y-72894188D01*
X139752000Y-72881928D01*
X139137750Y-72885000D01*
X138979000Y-73043750D01*
X138979000Y-74443000D01*
X138999000Y-74443000D01*
X138999000Y-74697000D01*
X138979000Y-74697000D01*
X138979000Y-74717000D01*
X138725000Y-74717000D01*
X138725000Y-74697000D01*
X138705000Y-74697000D01*
X138705000Y-74443000D01*
X138725000Y-74443000D01*
X138725000Y-73043750D01*
X138566250Y-72885000D01*
X137952000Y-72881928D01*
X137827518Y-72894188D01*
X137707820Y-72930498D01*
X137597506Y-72989463D01*
X137500815Y-73068815D01*
X137441430Y-73141176D01*
X135809000Y-73141176D01*
X135809000Y-70928000D01*
X141729176Y-70928000D01*
X141729176Y-72488000D01*
X141736455Y-72561905D01*
X141758012Y-72632970D01*
X141793019Y-72698463D01*
X141840131Y-72755869D01*
X141897537Y-72802981D01*
X141963030Y-72837988D01*
X142034095Y-72859545D01*
X142108000Y-72866824D01*
X142547430Y-72866824D01*
X142606815Y-72939185D01*
X142703506Y-73018537D01*
X142813820Y-73077502D01*
X142933518Y-73113812D01*
X143058000Y-73126072D01*
X143097250Y-73123000D01*
X143256000Y-72964250D01*
X143256000Y-71835000D01*
X143236000Y-71835000D01*
X143236000Y-71581000D01*
X143256000Y-71581000D01*
X143256000Y-70451750D01*
X143510000Y-70451750D01*
X143510000Y-71581000D01*
X143530000Y-71581000D01*
X143530000Y-71835000D01*
X143510000Y-71835000D01*
X143510000Y-72964250D01*
X143668750Y-73123000D01*
X143708000Y-73126072D01*
X143832482Y-73113812D01*
X143952180Y-73077502D01*
X144062494Y-73018537D01*
X144159185Y-72939185D01*
X144218570Y-72866824D01*
X144658000Y-72866824D01*
X144731905Y-72859545D01*
X144802970Y-72837988D01*
X144868463Y-72802981D01*
X144925869Y-72755869D01*
X144972981Y-72698463D01*
X145007988Y-72632970D01*
X145029545Y-72561905D01*
X145036824Y-72488000D01*
X145036824Y-71978360D01*
X145074119Y-71855418D01*
X145085000Y-71744938D01*
X145085000Y-71624488D01*
X147115863Y-69593626D01*
X147186290Y-69507811D01*
X147256117Y-69377171D01*
X147299118Y-69235418D01*
X147313638Y-69088001D01*
X147299118Y-68940583D01*
X147256117Y-68798831D01*
X147186290Y-68668191D01*
X147092316Y-68553684D01*
X146977809Y-68459710D01*
X146847169Y-68389883D01*
X146705417Y-68346882D01*
X146557999Y-68332362D01*
X146410582Y-68346882D01*
X146268829Y-68389883D01*
X146138189Y-68459710D01*
X146052374Y-68530137D01*
X145036824Y-69545687D01*
X145036824Y-68228000D01*
X145029545Y-68154095D01*
X145007988Y-68083030D01*
X144972981Y-68017537D01*
X144925869Y-67960131D01*
X144868463Y-67913019D01*
X144802970Y-67878012D01*
X144731905Y-67856455D01*
X144658000Y-67849176D01*
X144008000Y-67849176D01*
X143934095Y-67856455D01*
X143863030Y-67878012D01*
X143797537Y-67913019D01*
X143740131Y-67960131D01*
X143693019Y-68017537D01*
X143658012Y-68083030D01*
X143636455Y-68154095D01*
X143629176Y-68228000D01*
X143629176Y-69788000D01*
X143636455Y-69861905D01*
X143658012Y-69932970D01*
X143693019Y-69998463D01*
X143740131Y-70055869D01*
X143797537Y-70102981D01*
X143863030Y-70137988D01*
X143934095Y-70159545D01*
X144008000Y-70166824D01*
X144415688Y-70166824D01*
X144129807Y-70452705D01*
X144062494Y-70397463D01*
X143952180Y-70338498D01*
X143832482Y-70302188D01*
X143708000Y-70289928D01*
X143668750Y-70293000D01*
X143510000Y-70451750D01*
X143256000Y-70451750D01*
X143097250Y-70293000D01*
X143058000Y-70289928D01*
X142933518Y-70302188D01*
X142813820Y-70338498D01*
X142703506Y-70397463D01*
X142606815Y-70476815D01*
X142547430Y-70549176D01*
X142108000Y-70549176D01*
X142034095Y-70556455D01*
X141963030Y-70578012D01*
X141897537Y-70613019D01*
X141840131Y-70660131D01*
X141793019Y-70717537D01*
X141758012Y-70783030D01*
X141736455Y-70854095D01*
X141729176Y-70928000D01*
X135809000Y-70928000D01*
X135809000Y-64762000D01*
X136275928Y-64762000D01*
X136288188Y-64886482D01*
X136324498Y-65006180D01*
X136383463Y-65116494D01*
X136462815Y-65213185D01*
X136559506Y-65292537D01*
X136566688Y-65296376D01*
X136537000Y-65445623D01*
X136537000Y-65618377D01*
X136570703Y-65787811D01*
X136636813Y-65947415D01*
X136732790Y-66091055D01*
X136854945Y-66213210D01*
X136998585Y-66309187D01*
X137158189Y-66375297D01*
X137327623Y-66409000D01*
X137500377Y-66409000D01*
X137669811Y-66375297D01*
X137829415Y-66309187D01*
X137973055Y-66213210D01*
X138095210Y-66091055D01*
X138191187Y-65947415D01*
X138257297Y-65787811D01*
X138291000Y-65618377D01*
X138291000Y-65445623D01*
X138261312Y-65296376D01*
X138268494Y-65292537D01*
X138365185Y-65213185D01*
X138444537Y-65116494D01*
X138503502Y-65006180D01*
X138539812Y-64886482D01*
X138552072Y-64762000D01*
X138550567Y-64657000D01*
X149447000Y-64657000D01*
X149447000Y-64957000D01*
X150505000Y-64957000D01*
X150505000Y-63765639D01*
X150759000Y-63765639D01*
X150759000Y-64957000D01*
X151817000Y-64957000D01*
X151817000Y-64657000D01*
X151806608Y-64607000D01*
X158097000Y-64607000D01*
X158097000Y-64907000D01*
X159155000Y-64907000D01*
X159155000Y-63715639D01*
X159409000Y-63715639D01*
X159409000Y-64907000D01*
X160467000Y-64907000D01*
X160467000Y-64607000D01*
X160419454Y-64378258D01*
X160328196Y-64163187D01*
X160196734Y-63970052D01*
X160030119Y-63806275D01*
X159834754Y-63678150D01*
X159618147Y-63590601D01*
X159591744Y-63590197D01*
X159409000Y-63715639D01*
X159155000Y-63715639D01*
X158972256Y-63590197D01*
X158945853Y-63590601D01*
X158729246Y-63678150D01*
X158533881Y-63806275D01*
X158367266Y-63970052D01*
X158235804Y-64163187D01*
X158144546Y-64378258D01*
X158097000Y-64607000D01*
X151806608Y-64607000D01*
X151769454Y-64428258D01*
X151678196Y-64213187D01*
X151546734Y-64020052D01*
X151380119Y-63856275D01*
X151184754Y-63728150D01*
X150968147Y-63640601D01*
X150941744Y-63640197D01*
X150759000Y-63765639D01*
X150505000Y-63765639D01*
X150322256Y-63640197D01*
X150295853Y-63640601D01*
X150079246Y-63728150D01*
X149883881Y-63856275D01*
X149717266Y-64020052D01*
X149585804Y-64213187D01*
X149494546Y-64428258D01*
X149447000Y-64657000D01*
X138550567Y-64657000D01*
X138549000Y-64547750D01*
X138390250Y-64389000D01*
X137541000Y-64389000D01*
X137541000Y-64409000D01*
X137287000Y-64409000D01*
X137287000Y-64389000D01*
X136437750Y-64389000D01*
X136279000Y-64547750D01*
X136275928Y-64762000D01*
X135809000Y-64762000D01*
X135809000Y-63762000D01*
X136275928Y-63762000D01*
X136279000Y-63976250D01*
X136437750Y-64135000D01*
X137287000Y-64135000D01*
X137287000Y-63285750D01*
X137541000Y-63285750D01*
X137541000Y-64135000D01*
X138390250Y-64135000D01*
X138549000Y-63976250D01*
X138552072Y-63762000D01*
X138539812Y-63637518D01*
X138503502Y-63517820D01*
X138444537Y-63407506D01*
X138365185Y-63310815D01*
X138268494Y-63231463D01*
X138166601Y-63176999D01*
X162089176Y-63176999D01*
X162089176Y-64077001D01*
X162101259Y-64199678D01*
X162137042Y-64317641D01*
X162195152Y-64426356D01*
X162273354Y-64521646D01*
X162368644Y-64599848D01*
X162477359Y-64657958D01*
X162595322Y-64693741D01*
X162717999Y-64705824D01*
X163418001Y-64705824D01*
X163540678Y-64693741D01*
X163658641Y-64657958D01*
X163767356Y-64599848D01*
X163862646Y-64521646D01*
X163940848Y-64426356D01*
X163998958Y-64317641D01*
X164034741Y-64199678D01*
X164046824Y-64077001D01*
X164046824Y-63176999D01*
X164034741Y-63054322D01*
X163998958Y-62936359D01*
X163940848Y-62827644D01*
X163862646Y-62732354D01*
X163767356Y-62654152D01*
X163658641Y-62596042D01*
X163540678Y-62560259D01*
X163418001Y-62548176D01*
X162717999Y-62548176D01*
X162595322Y-62560259D01*
X162477359Y-62596042D01*
X162368644Y-62654152D01*
X162273354Y-62732354D01*
X162195152Y-62827644D01*
X162137042Y-62936359D01*
X162101259Y-63054322D01*
X162089176Y-63176999D01*
X138166601Y-63176999D01*
X138158180Y-63172498D01*
X138038482Y-63136188D01*
X137914000Y-63123928D01*
X137699750Y-63127000D01*
X137541000Y-63285750D01*
X137287000Y-63285750D01*
X137128250Y-63127000D01*
X136914000Y-63123928D01*
X136789518Y-63136188D01*
X136669820Y-63172498D01*
X136559506Y-63231463D01*
X136462815Y-63310815D01*
X136383463Y-63407506D01*
X136324498Y-63517820D01*
X136288188Y-63637518D01*
X136275928Y-63762000D01*
X135809000Y-63762000D01*
X135809000Y-62276000D01*
X175595000Y-62276000D01*
X175595000Y-93472000D01*
%TA.AperFunction,Conductor*%
D32*
G36*
X175595000Y-93472000D02*
G01*
X167923712Y-93472000D01*
X152312399Y-85744400D01*
X164516557Y-85744400D01*
X164541200Y-85746827D01*
X164565843Y-85744400D01*
X164565853Y-85744400D01*
X164639609Y-85737136D01*
X164734236Y-85708431D01*
X164821445Y-85661817D01*
X164897884Y-85599084D01*
X164913601Y-85579933D01*
X165996338Y-84497197D01*
X166015484Y-84481484D01*
X166078217Y-84405045D01*
X166124831Y-84317836D01*
X166153536Y-84223209D01*
X166160800Y-84149453D01*
X166160800Y-84149444D01*
X166163227Y-84124801D01*
X166160800Y-84100158D01*
X166160800Y-83782068D01*
X166163469Y-83788512D01*
X166226615Y-83883016D01*
X166306984Y-83963385D01*
X166401488Y-84026531D01*
X166506495Y-84070026D01*
X166617970Y-84092200D01*
X166731630Y-84092200D01*
X166843105Y-84070026D01*
X166948112Y-84026531D01*
X166962077Y-84017200D01*
X168377357Y-84017200D01*
X168402000Y-84019627D01*
X168426643Y-84017200D01*
X168426653Y-84017200D01*
X168500409Y-84009936D01*
X168595036Y-83981231D01*
X168682245Y-83934617D01*
X168758684Y-83871884D01*
X168774402Y-83852732D01*
X174683144Y-77943992D01*
X174702284Y-77928284D01*
X174717992Y-77909144D01*
X174718000Y-77909136D01*
X174765017Y-77851846D01*
X174792929Y-77799625D01*
X174811631Y-77764636D01*
X174840336Y-77670009D01*
X174847600Y-77596253D01*
X174847600Y-77596243D01*
X174850027Y-77571600D01*
X174847600Y-77546957D01*
X174847600Y-67542243D01*
X174850027Y-67517600D01*
X174847600Y-67492957D01*
X174847600Y-67492947D01*
X174840336Y-67419191D01*
X174811631Y-67324564D01*
X174780932Y-67267130D01*
X174765017Y-67237354D01*
X174718000Y-67180064D01*
X174717992Y-67180056D01*
X174702284Y-67160916D01*
X174683143Y-67145207D01*
X173494401Y-65956467D01*
X173478684Y-65937316D01*
X173442308Y-65907463D01*
X173411701Y-65850201D01*
X173345935Y-65770065D01*
X173265799Y-65704299D01*
X173181051Y-65659000D01*
X173265799Y-65613701D01*
X173345935Y-65547935D01*
X173411701Y-65467799D01*
X173460570Y-65376372D01*
X173490663Y-65277168D01*
X173500824Y-65174000D01*
X173500824Y-64874000D01*
X173490663Y-64770832D01*
X173460570Y-64671628D01*
X173427902Y-64610510D01*
X173476494Y-64584537D01*
X173573185Y-64505185D01*
X173652537Y-64408494D01*
X173711502Y-64298180D01*
X173747812Y-64178482D01*
X173760072Y-64054000D01*
X173757000Y-64039750D01*
X173598250Y-63881000D01*
X172274000Y-63881000D01*
X172274000Y-63901000D01*
X172020000Y-63901000D01*
X172020000Y-63881000D01*
X170695750Y-63881000D01*
X170537000Y-64039750D01*
X170533928Y-64054000D01*
X170546188Y-64178482D01*
X170582498Y-64298180D01*
X170641463Y-64408494D01*
X170720815Y-64505185D01*
X170817506Y-64584537D01*
X170866098Y-64610510D01*
X170833430Y-64671628D01*
X170803337Y-64770832D01*
X170793176Y-64874000D01*
X170793176Y-65174000D01*
X170803337Y-65277168D01*
X170833430Y-65376372D01*
X170882299Y-65467799D01*
X170948065Y-65547935D01*
X171028201Y-65613701D01*
X171112949Y-65659000D01*
X171028201Y-65704299D01*
X170948065Y-65770065D01*
X170882299Y-65850201D01*
X170833430Y-65941628D01*
X170803337Y-66040832D01*
X170793176Y-66144000D01*
X170793176Y-66444000D01*
X170803337Y-66547168D01*
X170833430Y-66646372D01*
X170882299Y-66737799D01*
X170948065Y-66817935D01*
X171028201Y-66883701D01*
X171112949Y-66929000D01*
X171028201Y-66974299D01*
X170948065Y-67040065D01*
X170882299Y-67120201D01*
X170833430Y-67211628D01*
X170803337Y-67310832D01*
X170793176Y-67414000D01*
X170793176Y-67714000D01*
X170803337Y-67817168D01*
X170830424Y-67906464D01*
X170301289Y-68435600D01*
X169841318Y-68435600D01*
X169748949Y-68323049D01*
X169596375Y-68197834D01*
X169422304Y-68104792D01*
X169233426Y-68047496D01*
X169037000Y-68028150D01*
X168840575Y-68047496D01*
X168651697Y-68104792D01*
X168477625Y-68197834D01*
X168325051Y-68323049D01*
X168199836Y-68475623D01*
X168191684Y-68490874D01*
X167599383Y-69083176D01*
X167198018Y-69083176D01*
X167196523Y-69081681D01*
X167305712Y-69070927D01*
X167423903Y-69035074D01*
X167532827Y-68976852D01*
X167604381Y-68918130D01*
X167618573Y-68903938D01*
X167642501Y-68884301D01*
X167720853Y-68788828D01*
X167779075Y-68679903D01*
X167814927Y-68561713D01*
X167824000Y-68469594D01*
X167827033Y-68438800D01*
X167824000Y-68408006D01*
X167824000Y-68242824D01*
X168022000Y-68242824D01*
X168125168Y-68232663D01*
X168224372Y-68202570D01*
X168315799Y-68153701D01*
X168395935Y-68087935D01*
X168461701Y-68007799D01*
X168510570Y-67916372D01*
X168540663Y-67817168D01*
X168550824Y-67714000D01*
X168550824Y-67414000D01*
X168540663Y-67310832D01*
X168510570Y-67211628D01*
X168461701Y-67120201D01*
X168395935Y-67040065D01*
X168315799Y-66974299D01*
X168231051Y-66929000D01*
X168315799Y-66883701D01*
X168395935Y-66817935D01*
X168461701Y-66737799D01*
X168510570Y-66646372D01*
X168540663Y-66547168D01*
X168550824Y-66444000D01*
X168550824Y-66144000D01*
X168540663Y-66040832D01*
X168510570Y-65941628D01*
X168461701Y-65850201D01*
X168395935Y-65770065D01*
X168315799Y-65704299D01*
X168231051Y-65659000D01*
X168315799Y-65613701D01*
X168395935Y-65547935D01*
X168461701Y-65467799D01*
X168510570Y-65376372D01*
X168540663Y-65277168D01*
X168550824Y-65174000D01*
X168550824Y-64874000D01*
X168540663Y-64770832D01*
X168510570Y-64671628D01*
X168461701Y-64580201D01*
X168395935Y-64500065D01*
X168315799Y-64434299D01*
X168231051Y-64389000D01*
X168315799Y-64343701D01*
X168395935Y-64277935D01*
X168461701Y-64197799D01*
X168510570Y-64106372D01*
X168540663Y-64007168D01*
X168550824Y-63904000D01*
X168550824Y-63604000D01*
X168540663Y-63500832D01*
X168526457Y-63454000D01*
X170533928Y-63454000D01*
X170537000Y-63468250D01*
X170695750Y-63627000D01*
X172020000Y-63627000D01*
X172020000Y-62977750D01*
X172274000Y-62977750D01*
X172274000Y-63627000D01*
X173598250Y-63627000D01*
X173757000Y-63468250D01*
X173760072Y-63454000D01*
X173747812Y-63329518D01*
X173711502Y-63209820D01*
X173652537Y-63099506D01*
X173573185Y-63002815D01*
X173476494Y-62923463D01*
X173366180Y-62864498D01*
X173246482Y-62828188D01*
X173122000Y-62815928D01*
X172432750Y-62819000D01*
X172274000Y-62977750D01*
X172020000Y-62977750D01*
X171861250Y-62819000D01*
X171172000Y-62815928D01*
X171047518Y-62828188D01*
X170927820Y-62864498D01*
X170817506Y-62923463D01*
X170720815Y-63002815D01*
X170641463Y-63099506D01*
X170582498Y-63209820D01*
X170546188Y-63329518D01*
X170533928Y-63454000D01*
X168526457Y-63454000D01*
X168510570Y-63401628D01*
X168461701Y-63310201D01*
X168395935Y-63230065D01*
X168315799Y-63164299D01*
X168224372Y-63115430D01*
X168125168Y-63085337D01*
X168022000Y-63075176D01*
X166372000Y-63075176D01*
X166268832Y-63085337D01*
X166169628Y-63115430D01*
X166147982Y-63127000D01*
X166041899Y-63127000D01*
X166034741Y-63054322D01*
X165998958Y-62936359D01*
X165940848Y-62827644D01*
X165862646Y-62732354D01*
X165767356Y-62654152D01*
X165658641Y-62596042D01*
X165540678Y-62560259D01*
X165418001Y-62548176D01*
X164717999Y-62548176D01*
X164595322Y-62560259D01*
X164477359Y-62596042D01*
X164368644Y-62654152D01*
X164273354Y-62732354D01*
X164195152Y-62827644D01*
X164137042Y-62936359D01*
X164101259Y-63054322D01*
X164089176Y-63176999D01*
X164089176Y-64077001D01*
X164101259Y-64199678D01*
X164137042Y-64317641D01*
X164195152Y-64426356D01*
X164273354Y-64521646D01*
X164368644Y-64599848D01*
X164477359Y-64657958D01*
X164595322Y-64693741D01*
X164717999Y-64705824D01*
X165418001Y-64705824D01*
X165540678Y-64693741D01*
X165658641Y-64657958D01*
X165767356Y-64599848D01*
X165862646Y-64521646D01*
X165940848Y-64426356D01*
X165965092Y-64381000D01*
X166147982Y-64381000D01*
X166162949Y-64389000D01*
X166078201Y-64434299D01*
X165998065Y-64500065D01*
X165932299Y-64580201D01*
X165883430Y-64671628D01*
X165853337Y-64770832D01*
X165843176Y-64874000D01*
X165843176Y-65174000D01*
X165853337Y-65277168D01*
X165883430Y-65376372D01*
X165932299Y-65467799D01*
X165998065Y-65547935D01*
X166078201Y-65613701D01*
X166162949Y-65659000D01*
X166147982Y-65667000D01*
X166121391Y-65667000D01*
X166090599Y-65663967D01*
X166059807Y-65667000D01*
X166059806Y-65667000D01*
X165967687Y-65676073D01*
X165849497Y-65711925D01*
X165740572Y-65770147D01*
X165720218Y-65786851D01*
X165690641Y-65771042D01*
X165572678Y-65735259D01*
X165450001Y-65723176D01*
X164749999Y-65723176D01*
X164627322Y-65735259D01*
X164509359Y-65771042D01*
X164400644Y-65829152D01*
X164305354Y-65907354D01*
X164227152Y-66002644D01*
X164169042Y-66111359D01*
X164133259Y-66229322D01*
X164121176Y-66351999D01*
X164121176Y-67252001D01*
X164133259Y-67374678D01*
X164169042Y-67492641D01*
X164227152Y-67601356D01*
X164305354Y-67696646D01*
X164319188Y-67707999D01*
X163880812Y-67707999D01*
X163894646Y-67696646D01*
X163972848Y-67601356D01*
X164030958Y-67492641D01*
X164066741Y-67374678D01*
X164078824Y-67252001D01*
X164078824Y-66351999D01*
X164066741Y-66229322D01*
X164030958Y-66111359D01*
X163972848Y-66002644D01*
X163894646Y-65907354D01*
X163799356Y-65829152D01*
X163690641Y-65771042D01*
X163572678Y-65735259D01*
X163450001Y-65723176D01*
X162749999Y-65723176D01*
X162627322Y-65735259D01*
X162509359Y-65771042D01*
X162400644Y-65829152D01*
X162305354Y-65907354D01*
X162227152Y-66002644D01*
X162169042Y-66111359D01*
X162133259Y-66229322D01*
X162121176Y-66351999D01*
X162121176Y-67252001D01*
X162133259Y-67374678D01*
X162169042Y-67492641D01*
X162227152Y-67601356D01*
X162305354Y-67696646D01*
X162319188Y-67707999D01*
X161714361Y-67707999D01*
X160564641Y-66558280D01*
X160533259Y-66520041D01*
X160380685Y-66394826D01*
X160206614Y-66301784D01*
X160040599Y-66251423D01*
X160196734Y-66097948D01*
X160328196Y-65904813D01*
X160419454Y-65689742D01*
X160467000Y-65461000D01*
X160467000Y-65161000D01*
X159409000Y-65161000D01*
X159409000Y-65181000D01*
X159155000Y-65181000D01*
X159155000Y-65161000D01*
X158097000Y-65161000D01*
X158097000Y-65461000D01*
X158144546Y-65689742D01*
X158235804Y-65904813D01*
X158367266Y-66097948D01*
X158501596Y-66229990D01*
X157893232Y-66229990D01*
X156840322Y-65177081D01*
X156808940Y-65138842D01*
X156656366Y-65013627D01*
X156482295Y-64920585D01*
X156293417Y-64863289D01*
X156146214Y-64848791D01*
X156146207Y-64848791D01*
X156096991Y-64843944D01*
X156047775Y-64848791D01*
X153654424Y-64848791D01*
X153605208Y-64843944D01*
X153555992Y-64848791D01*
X153555986Y-64848791D01*
X153428821Y-64861315D01*
X153408782Y-64863289D01*
X153284177Y-64901088D01*
X153219905Y-64920585D01*
X153045834Y-65013627D01*
X152893260Y-65138842D01*
X152861882Y-65177077D01*
X152354949Y-65684010D01*
X151781038Y-65684010D01*
X151817000Y-65511000D01*
X151817000Y-65211000D01*
X150759000Y-65211000D01*
X150759000Y-65231000D01*
X150505000Y-65231000D01*
X150505000Y-65211000D01*
X149447000Y-65211000D01*
X149447000Y-65511000D01*
X149482962Y-65684010D01*
X141897206Y-65684010D01*
X141847990Y-65679163D01*
X141798774Y-65684010D01*
X141798767Y-65684010D01*
X141669747Y-65696717D01*
X141651563Y-65698508D01*
X141570245Y-65723176D01*
X141462686Y-65755804D01*
X141288615Y-65848846D01*
X141136041Y-65974061D01*
X141104663Y-66012295D01*
X138903959Y-68213000D01*
X138125248Y-68213000D01*
X138130297Y-68200811D01*
X138164000Y-68031377D01*
X138164000Y-67858623D01*
X138130297Y-67689189D01*
X138064187Y-67529585D01*
X137968210Y-67385945D01*
X137846055Y-67263790D01*
X137702415Y-67167813D01*
X137542811Y-67101703D01*
X137373377Y-67068000D01*
X137200623Y-67068000D01*
X137031189Y-67101703D01*
X136871585Y-67167813D01*
X136727945Y-67263790D01*
X136605790Y-67385945D01*
X136509813Y-67529585D01*
X136443703Y-67689189D01*
X136410000Y-67858623D01*
X136410000Y-68031377D01*
X136443703Y-68200811D01*
X136509813Y-68360415D01*
X136550534Y-68421359D01*
X136519131Y-68447131D01*
X136472019Y-68504537D01*
X136437012Y-68570030D01*
X136415455Y-68641095D01*
X136408176Y-68715000D01*
X136408176Y-68733566D01*
X136356794Y-68829696D01*
X136299498Y-69018574D01*
X136280152Y-69215000D01*
X136299498Y-69411426D01*
X136356794Y-69600304D01*
X136408176Y-69696434D01*
X136408176Y-69715000D01*
X136415455Y-69788905D01*
X136437012Y-69859970D01*
X136472019Y-69925463D01*
X136519131Y-69982869D01*
X136576537Y-70029981D01*
X136642030Y-70064988D01*
X136713095Y-70086545D01*
X136787000Y-70093824D01*
X136805566Y-70093824D01*
X136901696Y-70145206D01*
X137090574Y-70202502D01*
X137237777Y-70217000D01*
X139269784Y-70217000D01*
X139319000Y-70221847D01*
X139368216Y-70217000D01*
X139368223Y-70217000D01*
X139515426Y-70202502D01*
X139704304Y-70145206D01*
X139878375Y-70052164D01*
X140030949Y-69926949D01*
X140062332Y-69888709D01*
X141729846Y-68221195D01*
X141729176Y-68228000D01*
X141729176Y-69788000D01*
X141736455Y-69861905D01*
X141758012Y-69932970D01*
X141793019Y-69998463D01*
X141840131Y-70055869D01*
X141897537Y-70102981D01*
X141963030Y-70137988D01*
X142034095Y-70159545D01*
X142108000Y-70166824D01*
X142758000Y-70166824D01*
X142831905Y-70159545D01*
X142902970Y-70137988D01*
X142968463Y-70102981D01*
X143025869Y-70055869D01*
X143072981Y-69998463D01*
X143107988Y-69932970D01*
X143129545Y-69861905D01*
X143136824Y-69788000D01*
X143136824Y-68228000D01*
X143129545Y-68154095D01*
X143107988Y-68083030D01*
X143072981Y-68017537D01*
X143025869Y-67960131D01*
X142968463Y-67913019D01*
X142902970Y-67878012D01*
X142831905Y-67856455D01*
X142758000Y-67849176D01*
X142108000Y-67849176D01*
X142101196Y-67849846D01*
X142263032Y-67688010D01*
X148371091Y-67688010D01*
X148371090Y-68830286D01*
X148368057Y-68861080D01*
X148371090Y-68891873D01*
X148380163Y-68983992D01*
X148416015Y-69102182D01*
X148474237Y-69211107D01*
X148552589Y-69306581D01*
X148576517Y-69326218D01*
X149296745Y-70046446D01*
X149294001Y-70046176D01*
X148393999Y-70046176D01*
X148271322Y-70058259D01*
X148153359Y-70094042D01*
X148044644Y-70152152D01*
X147949354Y-70230354D01*
X147871152Y-70325644D01*
X147813042Y-70434359D01*
X147777259Y-70552322D01*
X147765176Y-70674999D01*
X147765176Y-71375001D01*
X147777259Y-71497678D01*
X147813042Y-71615641D01*
X147871152Y-71724356D01*
X147949354Y-71819646D01*
X148044644Y-71897848D01*
X148153359Y-71955958D01*
X148271322Y-71991741D01*
X148393999Y-72003824D01*
X149294001Y-72003824D01*
X149416678Y-71991741D01*
X149534641Y-71955958D01*
X149643356Y-71897848D01*
X149738646Y-71819646D01*
X149816848Y-71724356D01*
X149874958Y-71615641D01*
X149910741Y-71497678D01*
X149922824Y-71375001D01*
X149922824Y-70674999D01*
X149922554Y-70672256D01*
X150147401Y-70897103D01*
X150147400Y-73424093D01*
X150156473Y-73516212D01*
X150192325Y-73634402D01*
X150236143Y-73716379D01*
X150210028Y-73694947D01*
X150101103Y-73636725D01*
X149982913Y-73600873D01*
X149890794Y-73591800D01*
X149882440Y-73590977D01*
X149910741Y-73497678D01*
X149922824Y-73375001D01*
X149922824Y-72674999D01*
X149910741Y-72552322D01*
X149874958Y-72434359D01*
X149816848Y-72325644D01*
X149738646Y-72230354D01*
X149643356Y-72152152D01*
X149534641Y-72094042D01*
X149416678Y-72058259D01*
X149294001Y-72046176D01*
X148393999Y-72046176D01*
X148271322Y-72058259D01*
X148153359Y-72094042D01*
X148044644Y-72152152D01*
X147949354Y-72230354D01*
X147871152Y-72325644D01*
X147813042Y-72434359D01*
X147777259Y-72552322D01*
X147765176Y-72674999D01*
X147765176Y-73375001D01*
X147777259Y-73497678D01*
X147805810Y-73591800D01*
X141356393Y-73591800D01*
X141325599Y-73588767D01*
X141202687Y-73600873D01*
X141084497Y-73636725D01*
X140975572Y-73694947D01*
X140880099Y-73773299D01*
X140860466Y-73797222D01*
X140387055Y-74270634D01*
X140390072Y-73520000D01*
X140377812Y-73395518D01*
X140341502Y-73275820D01*
X140282537Y-73165506D01*
X140203185Y-73068815D01*
X140106494Y-72989463D01*
X139996180Y-72930498D01*
X139876482Y-72894188D01*
X139752000Y-72881928D01*
X139137750Y-72885000D01*
X138979000Y-73043750D01*
X138979000Y-74443000D01*
X138999000Y-74443000D01*
X138999000Y-74697000D01*
X138979000Y-74697000D01*
X138979000Y-74717000D01*
X138725000Y-74717000D01*
X138725000Y-74697000D01*
X138705000Y-74697000D01*
X138705000Y-74443000D01*
X138725000Y-74443000D01*
X138725000Y-73043750D01*
X138566250Y-72885000D01*
X137952000Y-72881928D01*
X137827518Y-72894188D01*
X137707820Y-72930498D01*
X137597506Y-72989463D01*
X137500815Y-73068815D01*
X137441430Y-73141176D01*
X135809000Y-73141176D01*
X135809000Y-70928000D01*
X141729176Y-70928000D01*
X141729176Y-72488000D01*
X141736455Y-72561905D01*
X141758012Y-72632970D01*
X141793019Y-72698463D01*
X141840131Y-72755869D01*
X141897537Y-72802981D01*
X141963030Y-72837988D01*
X142034095Y-72859545D01*
X142108000Y-72866824D01*
X142547430Y-72866824D01*
X142606815Y-72939185D01*
X142703506Y-73018537D01*
X142813820Y-73077502D01*
X142933518Y-73113812D01*
X143058000Y-73126072D01*
X143097250Y-73123000D01*
X143256000Y-72964250D01*
X143256000Y-71835000D01*
X143236000Y-71835000D01*
X143236000Y-71581000D01*
X143256000Y-71581000D01*
X143256000Y-70451750D01*
X143510000Y-70451750D01*
X143510000Y-71581000D01*
X143530000Y-71581000D01*
X143530000Y-71835000D01*
X143510000Y-71835000D01*
X143510000Y-72964250D01*
X143668750Y-73123000D01*
X143708000Y-73126072D01*
X143832482Y-73113812D01*
X143952180Y-73077502D01*
X144062494Y-73018537D01*
X144159185Y-72939185D01*
X144218570Y-72866824D01*
X144658000Y-72866824D01*
X144731905Y-72859545D01*
X144802970Y-72837988D01*
X144868463Y-72802981D01*
X144925869Y-72755869D01*
X144972981Y-72698463D01*
X145007988Y-72632970D01*
X145029545Y-72561905D01*
X145036824Y-72488000D01*
X145036824Y-71978360D01*
X145074119Y-71855418D01*
X145085000Y-71744938D01*
X145085000Y-71624488D01*
X147115863Y-69593626D01*
X147186290Y-69507811D01*
X147256117Y-69377171D01*
X147299118Y-69235418D01*
X147313638Y-69088001D01*
X147299118Y-68940583D01*
X147256117Y-68798831D01*
X147186290Y-68668191D01*
X147092316Y-68553684D01*
X146977809Y-68459710D01*
X146847169Y-68389883D01*
X146705417Y-68346882D01*
X146557999Y-68332362D01*
X146410582Y-68346882D01*
X146268829Y-68389883D01*
X146138189Y-68459710D01*
X146052374Y-68530137D01*
X145036824Y-69545687D01*
X145036824Y-68228000D01*
X145029545Y-68154095D01*
X145007988Y-68083030D01*
X144972981Y-68017537D01*
X144925869Y-67960131D01*
X144868463Y-67913019D01*
X144802970Y-67878012D01*
X144731905Y-67856455D01*
X144658000Y-67849176D01*
X144008000Y-67849176D01*
X143934095Y-67856455D01*
X143863030Y-67878012D01*
X143797537Y-67913019D01*
X143740131Y-67960131D01*
X143693019Y-68017537D01*
X143658012Y-68083030D01*
X143636455Y-68154095D01*
X143629176Y-68228000D01*
X143629176Y-69788000D01*
X143636455Y-69861905D01*
X143658012Y-69932970D01*
X143693019Y-69998463D01*
X143740131Y-70055869D01*
X143797537Y-70102981D01*
X143863030Y-70137988D01*
X143934095Y-70159545D01*
X144008000Y-70166824D01*
X144415688Y-70166824D01*
X144129807Y-70452705D01*
X144062494Y-70397463D01*
X143952180Y-70338498D01*
X143832482Y-70302188D01*
X143708000Y-70289928D01*
X143668750Y-70293000D01*
X143510000Y-70451750D01*
X143256000Y-70451750D01*
X143097250Y-70293000D01*
X143058000Y-70289928D01*
X142933518Y-70302188D01*
X142813820Y-70338498D01*
X142703506Y-70397463D01*
X142606815Y-70476815D01*
X142547430Y-70549176D01*
X142108000Y-70549176D01*
X142034095Y-70556455D01*
X141963030Y-70578012D01*
X141897537Y-70613019D01*
X141840131Y-70660131D01*
X141793019Y-70717537D01*
X141758012Y-70783030D01*
X141736455Y-70854095D01*
X141729176Y-70928000D01*
X135809000Y-70928000D01*
X135809000Y-64762000D01*
X136275928Y-64762000D01*
X136288188Y-64886482D01*
X136324498Y-65006180D01*
X136383463Y-65116494D01*
X136462815Y-65213185D01*
X136559506Y-65292537D01*
X136566688Y-65296376D01*
X136537000Y-65445623D01*
X136537000Y-65618377D01*
X136570703Y-65787811D01*
X136636813Y-65947415D01*
X136732790Y-66091055D01*
X136854945Y-66213210D01*
X136998585Y-66309187D01*
X137158189Y-66375297D01*
X137327623Y-66409000D01*
X137500377Y-66409000D01*
X137669811Y-66375297D01*
X137829415Y-66309187D01*
X137973055Y-66213210D01*
X138095210Y-66091055D01*
X138191187Y-65947415D01*
X138257297Y-65787811D01*
X138291000Y-65618377D01*
X138291000Y-65445623D01*
X138261312Y-65296376D01*
X138268494Y-65292537D01*
X138365185Y-65213185D01*
X138444537Y-65116494D01*
X138503502Y-65006180D01*
X138539812Y-64886482D01*
X138552072Y-64762000D01*
X138550567Y-64657000D01*
X149447000Y-64657000D01*
X149447000Y-64957000D01*
X150505000Y-64957000D01*
X150505000Y-63765639D01*
X150759000Y-63765639D01*
X150759000Y-64957000D01*
X151817000Y-64957000D01*
X151817000Y-64657000D01*
X151806608Y-64607000D01*
X158097000Y-64607000D01*
X158097000Y-64907000D01*
X159155000Y-64907000D01*
X159155000Y-63715639D01*
X159409000Y-63715639D01*
X159409000Y-64907000D01*
X160467000Y-64907000D01*
X160467000Y-64607000D01*
X160419454Y-64378258D01*
X160328196Y-64163187D01*
X160196734Y-63970052D01*
X160030119Y-63806275D01*
X159834754Y-63678150D01*
X159618147Y-63590601D01*
X159591744Y-63590197D01*
X159409000Y-63715639D01*
X159155000Y-63715639D01*
X158972256Y-63590197D01*
X158945853Y-63590601D01*
X158729246Y-63678150D01*
X158533881Y-63806275D01*
X158367266Y-63970052D01*
X158235804Y-64163187D01*
X158144546Y-64378258D01*
X158097000Y-64607000D01*
X151806608Y-64607000D01*
X151769454Y-64428258D01*
X151678196Y-64213187D01*
X151546734Y-64020052D01*
X151380119Y-63856275D01*
X151184754Y-63728150D01*
X150968147Y-63640601D01*
X150941744Y-63640197D01*
X150759000Y-63765639D01*
X150505000Y-63765639D01*
X150322256Y-63640197D01*
X150295853Y-63640601D01*
X150079246Y-63728150D01*
X149883881Y-63856275D01*
X149717266Y-64020052D01*
X149585804Y-64213187D01*
X149494546Y-64428258D01*
X149447000Y-64657000D01*
X138550567Y-64657000D01*
X138549000Y-64547750D01*
X138390250Y-64389000D01*
X137541000Y-64389000D01*
X137541000Y-64409000D01*
X137287000Y-64409000D01*
X137287000Y-64389000D01*
X136437750Y-64389000D01*
X136279000Y-64547750D01*
X136275928Y-64762000D01*
X135809000Y-64762000D01*
X135809000Y-63762000D01*
X136275928Y-63762000D01*
X136279000Y-63976250D01*
X136437750Y-64135000D01*
X137287000Y-64135000D01*
X137287000Y-63285750D01*
X137541000Y-63285750D01*
X137541000Y-64135000D01*
X138390250Y-64135000D01*
X138549000Y-63976250D01*
X138552072Y-63762000D01*
X138539812Y-63637518D01*
X138503502Y-63517820D01*
X138444537Y-63407506D01*
X138365185Y-63310815D01*
X138268494Y-63231463D01*
X138166601Y-63176999D01*
X162089176Y-63176999D01*
X162089176Y-64077001D01*
X162101259Y-64199678D01*
X162137042Y-64317641D01*
X162195152Y-64426356D01*
X162273354Y-64521646D01*
X162368644Y-64599848D01*
X162477359Y-64657958D01*
X162595322Y-64693741D01*
X162717999Y-64705824D01*
X163418001Y-64705824D01*
X163540678Y-64693741D01*
X163658641Y-64657958D01*
X163767356Y-64599848D01*
X163862646Y-64521646D01*
X163940848Y-64426356D01*
X163998958Y-64317641D01*
X164034741Y-64199678D01*
X164046824Y-64077001D01*
X164046824Y-63176999D01*
X164034741Y-63054322D01*
X163998958Y-62936359D01*
X163940848Y-62827644D01*
X163862646Y-62732354D01*
X163767356Y-62654152D01*
X163658641Y-62596042D01*
X163540678Y-62560259D01*
X163418001Y-62548176D01*
X162717999Y-62548176D01*
X162595322Y-62560259D01*
X162477359Y-62596042D01*
X162368644Y-62654152D01*
X162273354Y-62732354D01*
X162195152Y-62827644D01*
X162137042Y-62936359D01*
X162101259Y-63054322D01*
X162089176Y-63176999D01*
X138166601Y-63176999D01*
X138158180Y-63172498D01*
X138038482Y-63136188D01*
X137914000Y-63123928D01*
X137699750Y-63127000D01*
X137541000Y-63285750D01*
X137287000Y-63285750D01*
X137128250Y-63127000D01*
X136914000Y-63123928D01*
X136789518Y-63136188D01*
X136669820Y-63172498D01*
X136559506Y-63231463D01*
X136462815Y-63310815D01*
X136383463Y-63407506D01*
X136324498Y-63517820D01*
X136288188Y-63637518D01*
X136275928Y-63762000D01*
X135809000Y-63762000D01*
X135809000Y-62276000D01*
X175595000Y-62276000D01*
X175595000Y-93472000D01*
G37*
%TD.AperFunction*%
D31*
X163514000Y-77343000D02*
X163534000Y-77343000D01*
X163534000Y-77597000D01*
X163514000Y-77597000D01*
X163514000Y-78246250D01*
X163672750Y-78405000D01*
X164362000Y-78408072D01*
X164486482Y-78395812D01*
X164606180Y-78359502D01*
X164716494Y-78300537D01*
X164813185Y-78221185D01*
X164892537Y-78124494D01*
X164951502Y-78014180D01*
X164987812Y-77894482D01*
X165000072Y-77770000D01*
X164997000Y-77755750D01*
X164838252Y-77597002D01*
X164997000Y-77597002D01*
X164997000Y-77544935D01*
X165156801Y-77704736D01*
X165156800Y-83916865D01*
X165006362Y-84067303D01*
X164994426Y-84007295D01*
X164950931Y-83902288D01*
X164887785Y-83807784D01*
X164807416Y-83727415D01*
X164712912Y-83664269D01*
X164607905Y-83620774D01*
X164496430Y-83598600D01*
X164382770Y-83598600D01*
X164271295Y-83620774D01*
X164166288Y-83664269D01*
X164152323Y-83673600D01*
X148772309Y-83673600D01*
X148463002Y-83364293D01*
X148463002Y-83245252D01*
X148621750Y-83404000D01*
X149036000Y-83407072D01*
X149160482Y-83394812D01*
X149280180Y-83358502D01*
X149390494Y-83299537D01*
X149487185Y-83220185D01*
X149566537Y-83123494D01*
X149589823Y-83079929D01*
X149668322Y-83103741D01*
X149790999Y-83115824D01*
X150691001Y-83115824D01*
X150813678Y-83103741D01*
X150931641Y-83067958D01*
X151040356Y-83009848D01*
X151135646Y-82931646D01*
X151213848Y-82836356D01*
X151271958Y-82727641D01*
X151288754Y-82672272D01*
X151289917Y-82671317D01*
X151313467Y-82642621D01*
X152651622Y-81304466D01*
X152680317Y-81280917D01*
X152774290Y-81166410D01*
X152844118Y-81035770D01*
X152887119Y-80894018D01*
X152898000Y-80783538D01*
X152898000Y-80783536D01*
X152901638Y-80746600D01*
X152898000Y-80709665D01*
X152898000Y-79553962D01*
X152887119Y-79443482D01*
X152862098Y-79361000D01*
X153322784Y-79361000D01*
X153372000Y-79365847D01*
X153421216Y-79361000D01*
X153421223Y-79361000D01*
X153568426Y-79346502D01*
X153666260Y-79316824D01*
X154743000Y-79316824D01*
X154816905Y-79309545D01*
X154887970Y-79287988D01*
X154953463Y-79252981D01*
X155010869Y-79205869D01*
X155023892Y-79190000D01*
X156986000Y-79190000D01*
X156986000Y-79757584D01*
X156981153Y-79806800D01*
X156986000Y-79856013D01*
X156986000Y-79856022D01*
X156992801Y-79925074D01*
X157000498Y-80003226D01*
X157049779Y-80165680D01*
X157057794Y-80192103D01*
X157150836Y-80366175D01*
X157276051Y-80518749D01*
X157314291Y-80550132D01*
X157537476Y-80773317D01*
X157537476Y-80891400D01*
X157549559Y-81014077D01*
X157585342Y-81132041D01*
X157643452Y-81240756D01*
X157721654Y-81336046D01*
X157816944Y-81414248D01*
X157925659Y-81472358D01*
X158043623Y-81508141D01*
X158166300Y-81520224D01*
X158841300Y-81520224D01*
X158963977Y-81508141D01*
X159081941Y-81472358D01*
X159190656Y-81414248D01*
X159285946Y-81336046D01*
X159363135Y-81241990D01*
X159365488Y-81265882D01*
X159401798Y-81385580D01*
X159460763Y-81495894D01*
X159540115Y-81592585D01*
X159636806Y-81671937D01*
X159747120Y-81730902D01*
X159866818Y-81767212D01*
X159991300Y-81779472D01*
X160293050Y-81776400D01*
X160451800Y-81617650D01*
X160451800Y-80543400D01*
X160705800Y-80543400D01*
X160705800Y-81617650D01*
X160864550Y-81776400D01*
X161166300Y-81779472D01*
X161290782Y-81767212D01*
X161410480Y-81730902D01*
X161520794Y-81671937D01*
X161617485Y-81592585D01*
X161696837Y-81495894D01*
X161755802Y-81385580D01*
X161792112Y-81265882D01*
X161804372Y-81141400D01*
X161801300Y-80702150D01*
X161642550Y-80543400D01*
X160705800Y-80543400D01*
X160451800Y-80543400D01*
X160431800Y-80543400D01*
X160431800Y-80289400D01*
X160451800Y-80289400D01*
X160451800Y-80269400D01*
X160705800Y-80269400D01*
X160705800Y-80289400D01*
X161642550Y-80289400D01*
X161801300Y-80130650D01*
X161804247Y-79709241D01*
X161899982Y-79699812D01*
X162019680Y-79663502D01*
X162129994Y-79604537D01*
X162226685Y-79525185D01*
X162306037Y-79428494D01*
X162365002Y-79318180D01*
X162401312Y-79198482D01*
X162413572Y-79074000D01*
X162411650Y-78408037D01*
X162412000Y-78408072D01*
X163101250Y-78405000D01*
X163260000Y-78246250D01*
X163260000Y-77597000D01*
X163240000Y-77597000D01*
X163240000Y-77343000D01*
X163260000Y-77343000D01*
X163260000Y-77323000D01*
X163514000Y-77323000D01*
X163514000Y-77343000D01*
%TA.AperFunction,Conductor*%
D32*
G36*
X163514000Y-77343000D02*
G01*
X163534000Y-77343000D01*
X163534000Y-77597000D01*
X163514000Y-77597000D01*
X163514000Y-78246250D01*
X163672750Y-78405000D01*
X164362000Y-78408072D01*
X164486482Y-78395812D01*
X164606180Y-78359502D01*
X164716494Y-78300537D01*
X164813185Y-78221185D01*
X164892537Y-78124494D01*
X164951502Y-78014180D01*
X164987812Y-77894482D01*
X165000072Y-77770000D01*
X164997000Y-77755750D01*
X164838252Y-77597002D01*
X164997000Y-77597002D01*
X164997000Y-77544935D01*
X165156801Y-77704736D01*
X165156800Y-83916865D01*
X165006362Y-84067303D01*
X164994426Y-84007295D01*
X164950931Y-83902288D01*
X164887785Y-83807784D01*
X164807416Y-83727415D01*
X164712912Y-83664269D01*
X164607905Y-83620774D01*
X164496430Y-83598600D01*
X164382770Y-83598600D01*
X164271295Y-83620774D01*
X164166288Y-83664269D01*
X164152323Y-83673600D01*
X148772309Y-83673600D01*
X148463002Y-83364293D01*
X148463002Y-83245252D01*
X148621750Y-83404000D01*
X149036000Y-83407072D01*
X149160482Y-83394812D01*
X149280180Y-83358502D01*
X149390494Y-83299537D01*
X149487185Y-83220185D01*
X149566537Y-83123494D01*
X149589823Y-83079929D01*
X149668322Y-83103741D01*
X149790999Y-83115824D01*
X150691001Y-83115824D01*
X150813678Y-83103741D01*
X150931641Y-83067958D01*
X151040356Y-83009848D01*
X151135646Y-82931646D01*
X151213848Y-82836356D01*
X151271958Y-82727641D01*
X151288754Y-82672272D01*
X151289917Y-82671317D01*
X151313467Y-82642621D01*
X152651622Y-81304466D01*
X152680317Y-81280917D01*
X152774290Y-81166410D01*
X152844118Y-81035770D01*
X152887119Y-80894018D01*
X152898000Y-80783538D01*
X152898000Y-80783536D01*
X152901638Y-80746600D01*
X152898000Y-80709665D01*
X152898000Y-79553962D01*
X152887119Y-79443482D01*
X152862098Y-79361000D01*
X153322784Y-79361000D01*
X153372000Y-79365847D01*
X153421216Y-79361000D01*
X153421223Y-79361000D01*
X153568426Y-79346502D01*
X153666260Y-79316824D01*
X154743000Y-79316824D01*
X154816905Y-79309545D01*
X154887970Y-79287988D01*
X154953463Y-79252981D01*
X155010869Y-79205869D01*
X155023892Y-79190000D01*
X156986000Y-79190000D01*
X156986000Y-79757584D01*
X156981153Y-79806800D01*
X156986000Y-79856013D01*
X156986000Y-79856022D01*
X156992801Y-79925074D01*
X157000498Y-80003226D01*
X157049779Y-80165680D01*
X157057794Y-80192103D01*
X157150836Y-80366175D01*
X157276051Y-80518749D01*
X157314291Y-80550132D01*
X157537476Y-80773317D01*
X157537476Y-80891400D01*
X157549559Y-81014077D01*
X157585342Y-81132041D01*
X157643452Y-81240756D01*
X157721654Y-81336046D01*
X157816944Y-81414248D01*
X157925659Y-81472358D01*
X158043623Y-81508141D01*
X158166300Y-81520224D01*
X158841300Y-81520224D01*
X158963977Y-81508141D01*
X159081941Y-81472358D01*
X159190656Y-81414248D01*
X159285946Y-81336046D01*
X159363135Y-81241990D01*
X159365488Y-81265882D01*
X159401798Y-81385580D01*
X159460763Y-81495894D01*
X159540115Y-81592585D01*
X159636806Y-81671937D01*
X159747120Y-81730902D01*
X159866818Y-81767212D01*
X159991300Y-81779472D01*
X160293050Y-81776400D01*
X160451800Y-81617650D01*
X160451800Y-80543400D01*
X160705800Y-80543400D01*
X160705800Y-81617650D01*
X160864550Y-81776400D01*
X161166300Y-81779472D01*
X161290782Y-81767212D01*
X161410480Y-81730902D01*
X161520794Y-81671937D01*
X161617485Y-81592585D01*
X161696837Y-81495894D01*
X161755802Y-81385580D01*
X161792112Y-81265882D01*
X161804372Y-81141400D01*
X161801300Y-80702150D01*
X161642550Y-80543400D01*
X160705800Y-80543400D01*
X160451800Y-80543400D01*
X160431800Y-80543400D01*
X160431800Y-80289400D01*
X160451800Y-80289400D01*
X160451800Y-80269400D01*
X160705800Y-80269400D01*
X160705800Y-80289400D01*
X161642550Y-80289400D01*
X161801300Y-80130650D01*
X161804247Y-79709241D01*
X161899982Y-79699812D01*
X162019680Y-79663502D01*
X162129994Y-79604537D01*
X162226685Y-79525185D01*
X162306037Y-79428494D01*
X162365002Y-79318180D01*
X162401312Y-79198482D01*
X162413572Y-79074000D01*
X162411650Y-78408037D01*
X162412000Y-78408072D01*
X163101250Y-78405000D01*
X163260000Y-78246250D01*
X163260000Y-77597000D01*
X163240000Y-77597000D01*
X163240000Y-77343000D01*
X163260000Y-77343000D01*
X163260000Y-77323000D01*
X163514000Y-77323000D01*
X163514000Y-77343000D01*
G37*
%TD.AperFunction*%
D31*
X173843600Y-67725536D02*
X173843601Y-75108538D01*
X173843600Y-75108548D01*
X173843601Y-77363663D01*
X173428824Y-77778440D01*
X173428824Y-77019999D01*
X173416741Y-76897322D01*
X173380958Y-76779359D01*
X173322848Y-76670644D01*
X173244646Y-76575354D01*
X173149356Y-76497152D01*
X173040641Y-76439042D01*
X172922678Y-76403259D01*
X172800001Y-76391176D01*
X172099999Y-76391176D01*
X171977322Y-76403259D01*
X171859359Y-76439042D01*
X171750644Y-76497152D01*
X171655354Y-76575354D01*
X171577152Y-76670644D01*
X171519042Y-76779359D01*
X171483259Y-76897322D01*
X171471176Y-77019999D01*
X171471176Y-77920001D01*
X171483259Y-78042678D01*
X171519042Y-78160641D01*
X171577152Y-78269356D01*
X171655354Y-78364646D01*
X171750644Y-78442848D01*
X171859359Y-78500958D01*
X171977322Y-78536741D01*
X172099999Y-78548824D01*
X172658440Y-78548824D01*
X168194066Y-83013200D01*
X166962077Y-83013200D01*
X166948112Y-83003869D01*
X166843105Y-82960374D01*
X166731630Y-82938200D01*
X166617970Y-82938200D01*
X166506495Y-82960374D01*
X166401488Y-83003869D01*
X166306984Y-83067015D01*
X166226615Y-83147384D01*
X166163469Y-83241888D01*
X166160800Y-83248332D01*
X166160800Y-77521442D01*
X166163227Y-77496799D01*
X166160800Y-77472156D01*
X166160800Y-77472147D01*
X166153536Y-77398391D01*
X166124831Y-77303764D01*
X166078217Y-77216555D01*
X166053141Y-77186000D01*
X166031199Y-77159264D01*
X166031197Y-77159262D01*
X166015484Y-77140116D01*
X165996338Y-77124403D01*
X164734401Y-75862467D01*
X164718684Y-75843316D01*
X164682308Y-75813463D01*
X164651701Y-75756201D01*
X164585935Y-75676065D01*
X164505799Y-75610299D01*
X164421051Y-75565000D01*
X164505799Y-75519701D01*
X164585935Y-75453935D01*
X164651701Y-75373799D01*
X164700570Y-75282372D01*
X164730663Y-75183168D01*
X164740824Y-75080000D01*
X164740824Y-74780000D01*
X164730663Y-74676832D01*
X164700570Y-74577628D01*
X164651701Y-74486201D01*
X164606030Y-74430550D01*
X164681097Y-74470675D01*
X164799287Y-74506527D01*
X164922200Y-74518633D01*
X165045112Y-74506527D01*
X165163302Y-74470675D01*
X165272227Y-74412453D01*
X165367701Y-74334101D01*
X165387338Y-74310173D01*
X165410511Y-74287000D01*
X167287982Y-74287000D01*
X167302949Y-74295000D01*
X167218201Y-74340299D01*
X167138065Y-74406065D01*
X167072299Y-74486201D01*
X167023430Y-74577628D01*
X166993337Y-74676832D01*
X166983176Y-74780000D01*
X166983176Y-75080000D01*
X166993337Y-75183168D01*
X167023430Y-75282372D01*
X167072299Y-75373799D01*
X167138065Y-75453935D01*
X167218201Y-75519701D01*
X167302949Y-75565000D01*
X167218201Y-75610299D01*
X167138065Y-75676065D01*
X167072299Y-75756201D01*
X167023430Y-75847628D01*
X166993337Y-75946832D01*
X166983176Y-76050000D01*
X166983176Y-76350000D01*
X166993337Y-76453168D01*
X167023430Y-76552372D01*
X167072299Y-76643799D01*
X167138065Y-76723935D01*
X167218201Y-76789701D01*
X167302949Y-76835000D01*
X167218201Y-76880299D01*
X167138065Y-76946065D01*
X167072299Y-77026201D01*
X167023430Y-77117628D01*
X166993337Y-77216832D01*
X166983176Y-77320000D01*
X166983176Y-77620000D01*
X166993337Y-77723168D01*
X167023430Y-77822372D01*
X167072299Y-77913799D01*
X167138065Y-77993935D01*
X167218201Y-78059701D01*
X167309628Y-78108570D01*
X167408832Y-78138663D01*
X167512000Y-78148824D01*
X169162000Y-78148824D01*
X169265168Y-78138663D01*
X169364372Y-78108570D01*
X169386018Y-78097000D01*
X169499737Y-78097000D01*
X169519042Y-78160641D01*
X169577152Y-78269356D01*
X169655354Y-78364646D01*
X169750644Y-78442848D01*
X169859359Y-78500958D01*
X169977322Y-78536741D01*
X170099999Y-78548824D01*
X170800001Y-78548824D01*
X170922678Y-78536741D01*
X171040641Y-78500958D01*
X171149356Y-78442848D01*
X171244646Y-78364646D01*
X171322848Y-78269356D01*
X171380958Y-78160641D01*
X171416741Y-78042678D01*
X171428824Y-77920001D01*
X171428824Y-77019999D01*
X171416741Y-76897322D01*
X171380958Y-76779359D01*
X171322848Y-76670644D01*
X171244646Y-76575354D01*
X171149356Y-76497152D01*
X171040641Y-76439042D01*
X170922678Y-76403259D01*
X170800001Y-76391176D01*
X170099999Y-76391176D01*
X169977322Y-76403259D01*
X169859359Y-76439042D01*
X169750644Y-76497152D01*
X169655354Y-76575354D01*
X169606404Y-76635000D01*
X169650570Y-76552372D01*
X169680663Y-76453168D01*
X169690824Y-76350000D01*
X169690824Y-76050000D01*
X169680663Y-75946832D01*
X169650570Y-75847628D01*
X169601701Y-75756201D01*
X169535935Y-75676065D01*
X169455799Y-75610299D01*
X169371051Y-75565000D01*
X169386018Y-75557000D01*
X169768206Y-75557000D01*
X169799000Y-75560033D01*
X169829794Y-75557000D01*
X169921913Y-75547927D01*
X170040103Y-75512075D01*
X170149028Y-75453853D01*
X170244501Y-75375501D01*
X170245877Y-75373824D01*
X170784001Y-75373824D01*
X170906678Y-75361741D01*
X171024641Y-75325958D01*
X171133356Y-75267848D01*
X171228646Y-75189646D01*
X171306848Y-75094356D01*
X171364958Y-74985641D01*
X171400741Y-74867678D01*
X171412824Y-74745001D01*
X171412824Y-73844999D01*
X171455176Y-73844999D01*
X171455176Y-74745001D01*
X171467259Y-74867678D01*
X171503042Y-74985641D01*
X171561152Y-75094356D01*
X171639354Y-75189646D01*
X171734644Y-75267848D01*
X171843359Y-75325958D01*
X171961322Y-75361741D01*
X172083999Y-75373824D01*
X172188275Y-75373824D01*
X172272295Y-75408626D01*
X172383770Y-75430800D01*
X172497430Y-75430800D01*
X172608905Y-75408626D01*
X172692925Y-75373824D01*
X172784001Y-75373824D01*
X172906678Y-75361741D01*
X173024641Y-75325958D01*
X173133356Y-75267848D01*
X173228646Y-75189646D01*
X173306848Y-75094356D01*
X173364958Y-74985641D01*
X173400741Y-74867678D01*
X173412824Y-74745001D01*
X173412824Y-73844999D01*
X173400741Y-73722322D01*
X173364958Y-73604359D01*
X173306848Y-73495644D01*
X173228646Y-73400354D01*
X173133356Y-73322152D01*
X173024641Y-73264042D01*
X172906678Y-73228259D01*
X172784001Y-73216176D01*
X172083999Y-73216176D01*
X171961322Y-73228259D01*
X171843359Y-73264042D01*
X171734644Y-73322152D01*
X171639354Y-73400354D01*
X171561152Y-73495644D01*
X171503042Y-73604359D01*
X171467259Y-73722322D01*
X171455176Y-73844999D01*
X171412824Y-73844999D01*
X171400741Y-73722322D01*
X171364958Y-73604359D01*
X171306848Y-73495644D01*
X171228646Y-73400354D01*
X171133356Y-73322152D01*
X171024641Y-73264042D01*
X170906678Y-73228259D01*
X170784001Y-73216176D01*
X170083999Y-73216176D01*
X169961322Y-73228259D01*
X169843359Y-73264042D01*
X169734644Y-73322152D01*
X169670856Y-73374501D01*
X169650570Y-73307628D01*
X169601701Y-73216201D01*
X169535935Y-73136065D01*
X169455799Y-73070299D01*
X169364372Y-73021430D01*
X169265168Y-72991337D01*
X169162000Y-72981176D01*
X167512000Y-72981176D01*
X167408832Y-72991337D01*
X167309628Y-73021430D01*
X167287982Y-73033000D01*
X165549200Y-73033000D01*
X165549200Y-72133425D01*
X165582025Y-72160364D01*
X165756096Y-72253406D01*
X165944974Y-72310702D01*
X166092177Y-72325200D01*
X167369584Y-72325200D01*
X167418800Y-72330047D01*
X167468016Y-72325200D01*
X167468023Y-72325200D01*
X167615226Y-72310702D01*
X167804104Y-72253406D01*
X167978175Y-72160364D01*
X168001984Y-72140824D01*
X169380000Y-72140824D01*
X169453905Y-72133545D01*
X169524970Y-72111988D01*
X169590463Y-72076981D01*
X169647869Y-72029869D01*
X169694981Y-71972463D01*
X169729988Y-71906970D01*
X169751545Y-71835905D01*
X169758824Y-71762000D01*
X169758824Y-70620000D01*
X171714176Y-70620000D01*
X171714176Y-71620000D01*
X171721455Y-71693905D01*
X171743012Y-71764970D01*
X171778019Y-71830463D01*
X171825131Y-71887869D01*
X171882537Y-71934981D01*
X171948030Y-71969988D01*
X172019095Y-71991545D01*
X172093000Y-71998824D01*
X173093000Y-71998824D01*
X173166905Y-71991545D01*
X173237970Y-71969988D01*
X173303463Y-71934981D01*
X173360869Y-71887869D01*
X173407981Y-71830463D01*
X173442988Y-71764970D01*
X173464545Y-71693905D01*
X173471824Y-71620000D01*
X173471824Y-70620000D01*
X173464545Y-70546095D01*
X173442988Y-70475030D01*
X173407981Y-70409537D01*
X173360869Y-70352131D01*
X173329466Y-70326359D01*
X173370187Y-70265415D01*
X173436297Y-70105811D01*
X173470000Y-69936377D01*
X173470000Y-69763623D01*
X173436297Y-69594189D01*
X173370187Y-69434585D01*
X173274210Y-69290945D01*
X173152055Y-69168790D01*
X173008415Y-69072813D01*
X172848811Y-69006703D01*
X172679377Y-68973000D01*
X172506623Y-68973000D01*
X172337189Y-69006703D01*
X172177585Y-69072813D01*
X172033945Y-69168790D01*
X171911790Y-69290945D01*
X171815813Y-69434585D01*
X171749703Y-69594189D01*
X171716000Y-69763623D01*
X171716000Y-69936377D01*
X171749703Y-70105811D01*
X171815813Y-70265415D01*
X171856534Y-70326359D01*
X171825131Y-70352131D01*
X171778019Y-70409537D01*
X171743012Y-70475030D01*
X171721455Y-70546095D01*
X171714176Y-70620000D01*
X169758824Y-70620000D01*
X169758824Y-69762516D01*
X169818665Y-69689600D01*
X170530206Y-69689600D01*
X170561000Y-69692633D01*
X170591794Y-69689600D01*
X170683913Y-69680527D01*
X170802103Y-69644675D01*
X170911028Y-69586453D01*
X171006501Y-69508101D01*
X171026138Y-69484173D01*
X172267488Y-68242824D01*
X172972000Y-68242824D01*
X173075168Y-68232663D01*
X173174372Y-68202570D01*
X173265799Y-68153701D01*
X173345935Y-68087935D01*
X173411701Y-68007799D01*
X173460570Y-67916372D01*
X173490663Y-67817168D01*
X173500824Y-67714000D01*
X173500824Y-67414000D01*
X173497411Y-67379346D01*
X173843600Y-67725536D01*
%TA.AperFunction,Conductor*%
D32*
G36*
X173843600Y-67725536D02*
G01*
X173843601Y-75108538D01*
X173843600Y-75108548D01*
X173843601Y-77363663D01*
X173428824Y-77778440D01*
X173428824Y-77019999D01*
X173416741Y-76897322D01*
X173380958Y-76779359D01*
X173322848Y-76670644D01*
X173244646Y-76575354D01*
X173149356Y-76497152D01*
X173040641Y-76439042D01*
X172922678Y-76403259D01*
X172800001Y-76391176D01*
X172099999Y-76391176D01*
X171977322Y-76403259D01*
X171859359Y-76439042D01*
X171750644Y-76497152D01*
X171655354Y-76575354D01*
X171577152Y-76670644D01*
X171519042Y-76779359D01*
X171483259Y-76897322D01*
X171471176Y-77019999D01*
X171471176Y-77920001D01*
X171483259Y-78042678D01*
X171519042Y-78160641D01*
X171577152Y-78269356D01*
X171655354Y-78364646D01*
X171750644Y-78442848D01*
X171859359Y-78500958D01*
X171977322Y-78536741D01*
X172099999Y-78548824D01*
X172658440Y-78548824D01*
X168194066Y-83013200D01*
X166962077Y-83013200D01*
X166948112Y-83003869D01*
X166843105Y-82960374D01*
X166731630Y-82938200D01*
X166617970Y-82938200D01*
X166506495Y-82960374D01*
X166401488Y-83003869D01*
X166306984Y-83067015D01*
X166226615Y-83147384D01*
X166163469Y-83241888D01*
X166160800Y-83248332D01*
X166160800Y-77521442D01*
X166163227Y-77496799D01*
X166160800Y-77472156D01*
X166160800Y-77472147D01*
X166153536Y-77398391D01*
X166124831Y-77303764D01*
X166078217Y-77216555D01*
X166053141Y-77186000D01*
X166031199Y-77159264D01*
X166031197Y-77159262D01*
X166015484Y-77140116D01*
X165996338Y-77124403D01*
X164734401Y-75862467D01*
X164718684Y-75843316D01*
X164682308Y-75813463D01*
X164651701Y-75756201D01*
X164585935Y-75676065D01*
X164505799Y-75610299D01*
X164421051Y-75565000D01*
X164505799Y-75519701D01*
X164585935Y-75453935D01*
X164651701Y-75373799D01*
X164700570Y-75282372D01*
X164730663Y-75183168D01*
X164740824Y-75080000D01*
X164740824Y-74780000D01*
X164730663Y-74676832D01*
X164700570Y-74577628D01*
X164651701Y-74486201D01*
X164606030Y-74430550D01*
X164681097Y-74470675D01*
X164799287Y-74506527D01*
X164922200Y-74518633D01*
X165045112Y-74506527D01*
X165163302Y-74470675D01*
X165272227Y-74412453D01*
X165367701Y-74334101D01*
X165387338Y-74310173D01*
X165410511Y-74287000D01*
X167287982Y-74287000D01*
X167302949Y-74295000D01*
X167218201Y-74340299D01*
X167138065Y-74406065D01*
X167072299Y-74486201D01*
X167023430Y-74577628D01*
X166993337Y-74676832D01*
X166983176Y-74780000D01*
X166983176Y-75080000D01*
X166993337Y-75183168D01*
X167023430Y-75282372D01*
X167072299Y-75373799D01*
X167138065Y-75453935D01*
X167218201Y-75519701D01*
X167302949Y-75565000D01*
X167218201Y-75610299D01*
X167138065Y-75676065D01*
X167072299Y-75756201D01*
X167023430Y-75847628D01*
X166993337Y-75946832D01*
X166983176Y-76050000D01*
X166983176Y-76350000D01*
X166993337Y-76453168D01*
X167023430Y-76552372D01*
X167072299Y-76643799D01*
X167138065Y-76723935D01*
X167218201Y-76789701D01*
X167302949Y-76835000D01*
X167218201Y-76880299D01*
X167138065Y-76946065D01*
X167072299Y-77026201D01*
X167023430Y-77117628D01*
X166993337Y-77216832D01*
X166983176Y-77320000D01*
X166983176Y-77620000D01*
X166993337Y-77723168D01*
X167023430Y-77822372D01*
X167072299Y-77913799D01*
X167138065Y-77993935D01*
X167218201Y-78059701D01*
X167309628Y-78108570D01*
X167408832Y-78138663D01*
X167512000Y-78148824D01*
X169162000Y-78148824D01*
X169265168Y-78138663D01*
X169364372Y-78108570D01*
X169386018Y-78097000D01*
X169499737Y-78097000D01*
X169519042Y-78160641D01*
X169577152Y-78269356D01*
X169655354Y-78364646D01*
X169750644Y-78442848D01*
X169859359Y-78500958D01*
X169977322Y-78536741D01*
X170099999Y-78548824D01*
X170800001Y-78548824D01*
X170922678Y-78536741D01*
X171040641Y-78500958D01*
X171149356Y-78442848D01*
X171244646Y-78364646D01*
X171322848Y-78269356D01*
X171380958Y-78160641D01*
X171416741Y-78042678D01*
X171428824Y-77920001D01*
X171428824Y-77019999D01*
X171416741Y-76897322D01*
X171380958Y-76779359D01*
X171322848Y-76670644D01*
X171244646Y-76575354D01*
X171149356Y-76497152D01*
X171040641Y-76439042D01*
X170922678Y-76403259D01*
X170800001Y-76391176D01*
X170099999Y-76391176D01*
X169977322Y-76403259D01*
X169859359Y-76439042D01*
X169750644Y-76497152D01*
X169655354Y-76575354D01*
X169606404Y-76635000D01*
X169650570Y-76552372D01*
X169680663Y-76453168D01*
X169690824Y-76350000D01*
X169690824Y-76050000D01*
X169680663Y-75946832D01*
X169650570Y-75847628D01*
X169601701Y-75756201D01*
X169535935Y-75676065D01*
X169455799Y-75610299D01*
X169371051Y-75565000D01*
X169386018Y-75557000D01*
X169768206Y-75557000D01*
X169799000Y-75560033D01*
X169829794Y-75557000D01*
X169921913Y-75547927D01*
X170040103Y-75512075D01*
X170149028Y-75453853D01*
X170244501Y-75375501D01*
X170245877Y-75373824D01*
X170784001Y-75373824D01*
X170906678Y-75361741D01*
X171024641Y-75325958D01*
X171133356Y-75267848D01*
X171228646Y-75189646D01*
X171306848Y-75094356D01*
X171364958Y-74985641D01*
X171400741Y-74867678D01*
X171412824Y-74745001D01*
X171412824Y-73844999D01*
X171455176Y-73844999D01*
X171455176Y-74745001D01*
X171467259Y-74867678D01*
X171503042Y-74985641D01*
X171561152Y-75094356D01*
X171639354Y-75189646D01*
X171734644Y-75267848D01*
X171843359Y-75325958D01*
X171961322Y-75361741D01*
X172083999Y-75373824D01*
X172188275Y-75373824D01*
X172272295Y-75408626D01*
X172383770Y-75430800D01*
X172497430Y-75430800D01*
X172608905Y-75408626D01*
X172692925Y-75373824D01*
X172784001Y-75373824D01*
X172906678Y-75361741D01*
X173024641Y-75325958D01*
X173133356Y-75267848D01*
X173228646Y-75189646D01*
X173306848Y-75094356D01*
X173364958Y-74985641D01*
X173400741Y-74867678D01*
X173412824Y-74745001D01*
X173412824Y-73844999D01*
X173400741Y-73722322D01*
X173364958Y-73604359D01*
X173306848Y-73495644D01*
X173228646Y-73400354D01*
X173133356Y-73322152D01*
X173024641Y-73264042D01*
X172906678Y-73228259D01*
X172784001Y-73216176D01*
X172083999Y-73216176D01*
X171961322Y-73228259D01*
X171843359Y-73264042D01*
X171734644Y-73322152D01*
X171639354Y-73400354D01*
X171561152Y-73495644D01*
X171503042Y-73604359D01*
X171467259Y-73722322D01*
X171455176Y-73844999D01*
X171412824Y-73844999D01*
X171400741Y-73722322D01*
X171364958Y-73604359D01*
X171306848Y-73495644D01*
X171228646Y-73400354D01*
X171133356Y-73322152D01*
X171024641Y-73264042D01*
X170906678Y-73228259D01*
X170784001Y-73216176D01*
X170083999Y-73216176D01*
X169961322Y-73228259D01*
X169843359Y-73264042D01*
X169734644Y-73322152D01*
X169670856Y-73374501D01*
X169650570Y-73307628D01*
X169601701Y-73216201D01*
X169535935Y-73136065D01*
X169455799Y-73070299D01*
X169364372Y-73021430D01*
X169265168Y-72991337D01*
X169162000Y-72981176D01*
X167512000Y-72981176D01*
X167408832Y-72991337D01*
X167309628Y-73021430D01*
X167287982Y-73033000D01*
X165549200Y-73033000D01*
X165549200Y-72133425D01*
X165582025Y-72160364D01*
X165756096Y-72253406D01*
X165944974Y-72310702D01*
X166092177Y-72325200D01*
X167369584Y-72325200D01*
X167418800Y-72330047D01*
X167468016Y-72325200D01*
X167468023Y-72325200D01*
X167615226Y-72310702D01*
X167804104Y-72253406D01*
X167978175Y-72160364D01*
X168001984Y-72140824D01*
X169380000Y-72140824D01*
X169453905Y-72133545D01*
X169524970Y-72111988D01*
X169590463Y-72076981D01*
X169647869Y-72029869D01*
X169694981Y-71972463D01*
X169729988Y-71906970D01*
X169751545Y-71835905D01*
X169758824Y-71762000D01*
X169758824Y-70620000D01*
X171714176Y-70620000D01*
X171714176Y-71620000D01*
X171721455Y-71693905D01*
X171743012Y-71764970D01*
X171778019Y-71830463D01*
X171825131Y-71887869D01*
X171882537Y-71934981D01*
X171948030Y-71969988D01*
X172019095Y-71991545D01*
X172093000Y-71998824D01*
X173093000Y-71998824D01*
X173166905Y-71991545D01*
X173237970Y-71969988D01*
X173303463Y-71934981D01*
X173360869Y-71887869D01*
X173407981Y-71830463D01*
X173442988Y-71764970D01*
X173464545Y-71693905D01*
X173471824Y-71620000D01*
X173471824Y-70620000D01*
X173464545Y-70546095D01*
X173442988Y-70475030D01*
X173407981Y-70409537D01*
X173360869Y-70352131D01*
X173329466Y-70326359D01*
X173370187Y-70265415D01*
X173436297Y-70105811D01*
X173470000Y-69936377D01*
X173470000Y-69763623D01*
X173436297Y-69594189D01*
X173370187Y-69434585D01*
X173274210Y-69290945D01*
X173152055Y-69168790D01*
X173008415Y-69072813D01*
X172848811Y-69006703D01*
X172679377Y-68973000D01*
X172506623Y-68973000D01*
X172337189Y-69006703D01*
X172177585Y-69072813D01*
X172033945Y-69168790D01*
X171911790Y-69290945D01*
X171815813Y-69434585D01*
X171749703Y-69594189D01*
X171716000Y-69763623D01*
X171716000Y-69936377D01*
X171749703Y-70105811D01*
X171815813Y-70265415D01*
X171856534Y-70326359D01*
X171825131Y-70352131D01*
X171778019Y-70409537D01*
X171743012Y-70475030D01*
X171721455Y-70546095D01*
X171714176Y-70620000D01*
X169758824Y-70620000D01*
X169758824Y-69762516D01*
X169818665Y-69689600D01*
X170530206Y-69689600D01*
X170561000Y-69692633D01*
X170591794Y-69689600D01*
X170683913Y-69680527D01*
X170802103Y-69644675D01*
X170911028Y-69586453D01*
X171006501Y-69508101D01*
X171026138Y-69484173D01*
X172267488Y-68242824D01*
X172972000Y-68242824D01*
X173075168Y-68232663D01*
X173174372Y-68202570D01*
X173265799Y-68153701D01*
X173345935Y-68087935D01*
X173411701Y-68007799D01*
X173460570Y-67916372D01*
X173490663Y-67817168D01*
X173500824Y-67714000D01*
X173500824Y-67414000D01*
X173497411Y-67379346D01*
X173843600Y-67725536D01*
G37*
%TD.AperFunction*%
D31*
X148463000Y-82042000D02*
X148483000Y-82042000D01*
X148483000Y-82296000D01*
X148463000Y-82296000D01*
X148463000Y-82316000D01*
X148209000Y-82316000D01*
X148209000Y-82296000D01*
X148189000Y-82296000D01*
X148189000Y-82042000D01*
X148209000Y-82042000D01*
X148209000Y-82022000D01*
X148463000Y-82022000D01*
X148463000Y-82042000D01*
%TA.AperFunction,Conductor*%
D32*
G36*
X148463000Y-82042000D02*
G01*
X148483000Y-82042000D01*
X148483000Y-82296000D01*
X148463000Y-82296000D01*
X148463000Y-82316000D01*
X148209000Y-82316000D01*
X148209000Y-82296000D01*
X148189000Y-82296000D01*
X148189000Y-82042000D01*
X148209000Y-82042000D01*
X148209000Y-82022000D01*
X148463000Y-82022000D01*
X148463000Y-82042000D01*
G37*
%TD.AperFunction*%
D31*
X144612674Y-81249251D02*
X144655834Y-81253502D01*
X144655834Y-81474821D01*
X144618769Y-81544165D01*
X144590064Y-81638792D01*
X144582800Y-81712548D01*
X144582800Y-81712557D01*
X144580373Y-81737200D01*
X144582800Y-81761843D01*
X144582800Y-81918249D01*
X143515083Y-81389729D01*
X143515500Y-81387630D01*
X143515500Y-81273970D01*
X143508842Y-81240500D01*
X143521333Y-81236711D01*
X143562674Y-81249251D01*
X143646333Y-81257491D01*
X143746333Y-81257491D01*
X143829992Y-81249251D01*
X143871333Y-81236711D01*
X143912674Y-81249251D01*
X143996333Y-81257491D01*
X144096333Y-81257491D01*
X144179992Y-81249251D01*
X144221333Y-81236711D01*
X144262674Y-81249251D01*
X144346333Y-81257491D01*
X144446333Y-81257491D01*
X144529992Y-81249251D01*
X144571333Y-81236711D01*
X144612674Y-81249251D01*
%TA.AperFunction,Conductor*%
D32*
G36*
X144612674Y-81249251D02*
G01*
X144655834Y-81253502D01*
X144655834Y-81474821D01*
X144618769Y-81544165D01*
X144590064Y-81638792D01*
X144582800Y-81712548D01*
X144582800Y-81712557D01*
X144580373Y-81737200D01*
X144582800Y-81761843D01*
X144582800Y-81918249D01*
X143515083Y-81389729D01*
X143515500Y-81387630D01*
X143515500Y-81273970D01*
X143508842Y-81240500D01*
X143521333Y-81236711D01*
X143562674Y-81249251D01*
X143646333Y-81257491D01*
X143746333Y-81257491D01*
X143829992Y-81249251D01*
X143871333Y-81236711D01*
X143912674Y-81249251D01*
X143996333Y-81257491D01*
X144096333Y-81257491D01*
X144179992Y-81249251D01*
X144221333Y-81236711D01*
X144262674Y-81249251D01*
X144346333Y-81257491D01*
X144446333Y-81257491D01*
X144529992Y-81249251D01*
X144571333Y-81236711D01*
X144612674Y-81249251D01*
G37*
%TD.AperFunction*%
D31*
X159266998Y-76051580D02*
X159325963Y-76161894D01*
X159405315Y-76258585D01*
X159502006Y-76337937D01*
X159612320Y-76396902D01*
X159732018Y-76433212D01*
X159812622Y-76441151D01*
X159815500Y-77438250D01*
X159974250Y-77597000D01*
X160986000Y-77597000D01*
X160986000Y-77577000D01*
X161240000Y-77577000D01*
X161240000Y-77597000D01*
X161260000Y-77597000D01*
X161260000Y-77851000D01*
X161240000Y-77851000D01*
X161240000Y-77871000D01*
X160986000Y-77871000D01*
X160986000Y-77851000D01*
X159974250Y-77851000D01*
X159815500Y-78009750D01*
X159812428Y-79074000D01*
X159813201Y-79081852D01*
X159747120Y-79101898D01*
X159636806Y-79160863D01*
X159540115Y-79240215D01*
X159460763Y-79336906D01*
X159401798Y-79447220D01*
X159365488Y-79566918D01*
X159363135Y-79590810D01*
X159285946Y-79496754D01*
X159190656Y-79418552D01*
X159081941Y-79360442D01*
X158990000Y-79332553D01*
X158990000Y-79036481D01*
X159017241Y-78946678D01*
X159029324Y-78824001D01*
X159029324Y-76623999D01*
X159017241Y-76501322D01*
X158990000Y-76411519D01*
X158990000Y-76310241D01*
X159042709Y-76257532D01*
X159080949Y-76226149D01*
X159206164Y-76073575D01*
X159249229Y-75993005D01*
X159266998Y-76051580D01*
%TA.AperFunction,Conductor*%
D32*
G36*
X159266998Y-76051580D02*
G01*
X159325963Y-76161894D01*
X159405315Y-76258585D01*
X159502006Y-76337937D01*
X159612320Y-76396902D01*
X159732018Y-76433212D01*
X159812622Y-76441151D01*
X159815500Y-77438250D01*
X159974250Y-77597000D01*
X160986000Y-77597000D01*
X160986000Y-77577000D01*
X161240000Y-77577000D01*
X161240000Y-77597000D01*
X161260000Y-77597000D01*
X161260000Y-77851000D01*
X161240000Y-77851000D01*
X161240000Y-77871000D01*
X160986000Y-77871000D01*
X160986000Y-77851000D01*
X159974250Y-77851000D01*
X159815500Y-78009750D01*
X159812428Y-79074000D01*
X159813201Y-79081852D01*
X159747120Y-79101898D01*
X159636806Y-79160863D01*
X159540115Y-79240215D01*
X159460763Y-79336906D01*
X159401798Y-79447220D01*
X159365488Y-79566918D01*
X159363135Y-79590810D01*
X159285946Y-79496754D01*
X159190656Y-79418552D01*
X159081941Y-79360442D01*
X158990000Y-79332553D01*
X158990000Y-79036481D01*
X159017241Y-78946678D01*
X159029324Y-78824001D01*
X159029324Y-76623999D01*
X159017241Y-76501322D01*
X158990000Y-76411519D01*
X158990000Y-76310241D01*
X159042709Y-76257532D01*
X159080949Y-76226149D01*
X159206164Y-76073575D01*
X159249229Y-75993005D01*
X159266998Y-76051580D01*
G37*
%TD.AperFunction*%
D31*
X144284164Y-77917550D02*
X144333507Y-77916493D01*
X144332450Y-77965836D01*
X144368333Y-78001719D01*
X144368333Y-78055615D01*
X144332450Y-78091498D01*
X144333507Y-78140841D01*
X144284164Y-78139784D01*
X144248281Y-78175667D01*
X144194385Y-78175667D01*
X144158502Y-78139784D01*
X144109159Y-78140841D01*
X144110216Y-78091498D01*
X144074333Y-78055615D01*
X144074333Y-78001719D01*
X144110216Y-77965836D01*
X144109159Y-77916493D01*
X144158502Y-77917550D01*
X144194385Y-77881667D01*
X144248281Y-77881667D01*
X144284164Y-77917550D01*
%TA.AperFunction,Conductor*%
D32*
G36*
X144284164Y-77917550D02*
G01*
X144333507Y-77916493D01*
X144332450Y-77965836D01*
X144368333Y-78001719D01*
X144368333Y-78055615D01*
X144332450Y-78091498D01*
X144333507Y-78140841D01*
X144284164Y-78139784D01*
X144248281Y-78175667D01*
X144194385Y-78175667D01*
X144158502Y-78139784D01*
X144109159Y-78140841D01*
X144110216Y-78091498D01*
X144074333Y-78055615D01*
X144074333Y-78001719D01*
X144110216Y-77965836D01*
X144109159Y-77916493D01*
X144158502Y-77917550D01*
X144194385Y-77881667D01*
X144248281Y-77881667D01*
X144284164Y-77917550D01*
G37*
%TD.AperFunction*%
D31*
X152011998Y-77257509D02*
X151993012Y-77293030D01*
X151973607Y-77357000D01*
X149470372Y-77357000D01*
X149512185Y-77322685D01*
X149591537Y-77225994D01*
X149650502Y-77115680D01*
X149686812Y-76995982D01*
X149699072Y-76871500D01*
X149696000Y-76569750D01*
X149537250Y-76411000D01*
X148463000Y-76411000D01*
X148463000Y-76431000D01*
X148209000Y-76431000D01*
X148209000Y-76411000D01*
X148189000Y-76411000D01*
X148189000Y-76157000D01*
X148209000Y-76157000D01*
X148209000Y-75220250D01*
X148463000Y-75220250D01*
X148463000Y-76157000D01*
X149537250Y-76157000D01*
X149696000Y-75998250D01*
X149699072Y-75696500D01*
X149686812Y-75572018D01*
X149650502Y-75452320D01*
X149591537Y-75342006D01*
X149512185Y-75245315D01*
X149415494Y-75165963D01*
X149305180Y-75106998D01*
X149185482Y-75070688D01*
X149061000Y-75058428D01*
X148621750Y-75061500D01*
X148463000Y-75220250D01*
X148209000Y-75220250D01*
X148050250Y-75061500D01*
X147611000Y-75058428D01*
X147486518Y-75070688D01*
X147366820Y-75106998D01*
X147256506Y-75165963D01*
X147159815Y-75245315D01*
X147080463Y-75342006D01*
X147021498Y-75452320D01*
X146985188Y-75572018D01*
X146975157Y-75673868D01*
X146975157Y-75228667D01*
X146966917Y-75145008D01*
X146942515Y-75064563D01*
X146902887Y-74990425D01*
X146849557Y-74925443D01*
X146784575Y-74872113D01*
X146735347Y-74845800D01*
X149600289Y-74845800D01*
X152011998Y-77257509D01*
%TA.AperFunction,Conductor*%
D32*
G36*
X152011998Y-77257509D02*
G01*
X151993012Y-77293030D01*
X151973607Y-77357000D01*
X149470372Y-77357000D01*
X149512185Y-77322685D01*
X149591537Y-77225994D01*
X149650502Y-77115680D01*
X149686812Y-76995982D01*
X149699072Y-76871500D01*
X149696000Y-76569750D01*
X149537250Y-76411000D01*
X148463000Y-76411000D01*
X148463000Y-76431000D01*
X148209000Y-76431000D01*
X148209000Y-76411000D01*
X148189000Y-76411000D01*
X148189000Y-76157000D01*
X148209000Y-76157000D01*
X148209000Y-75220250D01*
X148463000Y-75220250D01*
X148463000Y-76157000D01*
X149537250Y-76157000D01*
X149696000Y-75998250D01*
X149699072Y-75696500D01*
X149686812Y-75572018D01*
X149650502Y-75452320D01*
X149591537Y-75342006D01*
X149512185Y-75245315D01*
X149415494Y-75165963D01*
X149305180Y-75106998D01*
X149185482Y-75070688D01*
X149061000Y-75058428D01*
X148621750Y-75061500D01*
X148463000Y-75220250D01*
X148209000Y-75220250D01*
X148050250Y-75061500D01*
X147611000Y-75058428D01*
X147486518Y-75070688D01*
X147366820Y-75106998D01*
X147256506Y-75165963D01*
X147159815Y-75245315D01*
X147080463Y-75342006D01*
X147021498Y-75452320D01*
X146985188Y-75572018D01*
X146975157Y-75673868D01*
X146975157Y-75228667D01*
X146966917Y-75145008D01*
X146942515Y-75064563D01*
X146902887Y-74990425D01*
X146849557Y-74925443D01*
X146784575Y-74872113D01*
X146735347Y-74845800D01*
X149600289Y-74845800D01*
X152011998Y-77257509D01*
G37*
%TD.AperFunction*%
D31*
X152309000Y-68707000D02*
X152329000Y-68707000D01*
X152329000Y-68961000D01*
X152309000Y-68961000D01*
X152309000Y-70110250D01*
X152467750Y-70269000D01*
X152582000Y-70272072D01*
X152706482Y-70259812D01*
X152788988Y-70234784D01*
X152794073Y-70286415D01*
X152829925Y-70404605D01*
X152888147Y-70513530D01*
X152966499Y-70609003D01*
X153061972Y-70687355D01*
X153170897Y-70745577D01*
X153289087Y-70781429D01*
X153381206Y-70790502D01*
X153412000Y-70793535D01*
X153442794Y-70790502D01*
X156391704Y-70790502D01*
X156422498Y-70793535D01*
X156453292Y-70790502D01*
X156545411Y-70781429D01*
X156663601Y-70745577D01*
X156772526Y-70687355D01*
X156867999Y-70609003D01*
X156881297Y-70592799D01*
X156897501Y-70579501D01*
X156975853Y-70484028D01*
X157034075Y-70375103D01*
X157069927Y-70256913D01*
X157072191Y-70233928D01*
X157157518Y-70259812D01*
X157282000Y-70272072D01*
X157396250Y-70269000D01*
X157555000Y-70110250D01*
X157555000Y-68961000D01*
X157809000Y-68961000D01*
X157809000Y-70110250D01*
X157967750Y-70269000D01*
X158082000Y-70272072D01*
X158206482Y-70259812D01*
X158326180Y-70223502D01*
X158436494Y-70164537D01*
X158533185Y-70085185D01*
X158545945Y-70069637D01*
X158729246Y-70189850D01*
X158945853Y-70277399D01*
X158972256Y-70277803D01*
X159155000Y-70152361D01*
X159155000Y-68961000D01*
X157809000Y-68961000D01*
X157555000Y-68961000D01*
X157535000Y-68961000D01*
X157535000Y-68707000D01*
X157555000Y-68707000D01*
X157555000Y-68687000D01*
X157809000Y-68687000D01*
X157809000Y-68707000D01*
X159155000Y-68707000D01*
X159155000Y-68687000D01*
X159409000Y-68687000D01*
X159409000Y-68707000D01*
X159429000Y-68707000D01*
X159429000Y-68961000D01*
X159409000Y-68961000D01*
X159409000Y-70152361D01*
X159591744Y-70277803D01*
X159618147Y-70277399D01*
X159834754Y-70189850D01*
X160030119Y-70061725D01*
X160196734Y-69897948D01*
X160328196Y-69704813D01*
X160419454Y-69489742D01*
X160461197Y-69288919D01*
X160555992Y-69383714D01*
X160587370Y-69421948D01*
X160739944Y-69547163D01*
X160914015Y-69640205D01*
X161102893Y-69697501D01*
X161250096Y-69711999D01*
X161250105Y-69711999D01*
X161299318Y-69716846D01*
X161348531Y-69711999D01*
X162201176Y-69711999D01*
X162201176Y-71762000D01*
X162208455Y-71835905D01*
X162230012Y-71906970D01*
X162265019Y-71972463D01*
X162312131Y-72029869D01*
X162369537Y-72076981D01*
X162435030Y-72111988D01*
X162506095Y-72133545D01*
X162580000Y-72140824D01*
X164295201Y-72140824D01*
X164295200Y-72989370D01*
X164212000Y-72981176D01*
X162562000Y-72981176D01*
X162458832Y-72991337D01*
X162359628Y-73021430D01*
X162268201Y-73070299D01*
X162188065Y-73136065D01*
X162122299Y-73216201D01*
X162073430Y-73307628D01*
X162043337Y-73406832D01*
X162033176Y-73510000D01*
X162033176Y-73810000D01*
X162043337Y-73913168D01*
X162073430Y-74012372D01*
X162122299Y-74103799D01*
X162188065Y-74183935D01*
X162268201Y-74249701D01*
X162352949Y-74295000D01*
X162268201Y-74340299D01*
X162188065Y-74406065D01*
X162122299Y-74486201D01*
X162073430Y-74577628D01*
X162043337Y-74676832D01*
X162033176Y-74780000D01*
X162033176Y-75080000D01*
X162043337Y-75183168D01*
X162073430Y-75282372D01*
X162122299Y-75373799D01*
X162188065Y-75453935D01*
X162268201Y-75519701D01*
X162352949Y-75565000D01*
X162268201Y-75610299D01*
X162188065Y-75676065D01*
X162122299Y-75756201D01*
X162087731Y-75820873D01*
X162019680Y-75784498D01*
X161899982Y-75748188D01*
X161775500Y-75735928D01*
X161669078Y-75736796D01*
X161666500Y-75368150D01*
X161507750Y-75209400D01*
X160571000Y-75209400D01*
X160571000Y-75229400D01*
X160317000Y-75229400D01*
X160317000Y-75209400D01*
X160297000Y-75209400D01*
X160297000Y-74955400D01*
X160317000Y-74955400D01*
X160317000Y-73881150D01*
X160571000Y-73881150D01*
X160571000Y-74955400D01*
X161507750Y-74955400D01*
X161666500Y-74796650D01*
X161669572Y-74357400D01*
X161657312Y-74232918D01*
X161621002Y-74113220D01*
X161562037Y-74002906D01*
X161482685Y-73906215D01*
X161385994Y-73826863D01*
X161275680Y-73767898D01*
X161155982Y-73731588D01*
X161031500Y-73719328D01*
X160729750Y-73722400D01*
X160571000Y-73881150D01*
X160317000Y-73881150D01*
X160158250Y-73722400D01*
X159856500Y-73719328D01*
X159732018Y-73731588D01*
X159612320Y-73767898D01*
X159502006Y-73826863D01*
X159476500Y-73847795D01*
X159476500Y-73397372D01*
X159510815Y-73439185D01*
X159607506Y-73518537D01*
X159717820Y-73577502D01*
X159837518Y-73613812D01*
X159962000Y-73626072D01*
X160263750Y-73623000D01*
X160422500Y-73464250D01*
X160422500Y-72390000D01*
X160676500Y-72390000D01*
X160676500Y-73464250D01*
X160835250Y-73623000D01*
X161137000Y-73626072D01*
X161261482Y-73613812D01*
X161381180Y-73577502D01*
X161491494Y-73518537D01*
X161588185Y-73439185D01*
X161667537Y-73342494D01*
X161726502Y-73232180D01*
X161762812Y-73112482D01*
X161775072Y-72988000D01*
X161772000Y-72548750D01*
X161613250Y-72390000D01*
X160676500Y-72390000D01*
X160422500Y-72390000D01*
X160402500Y-72390000D01*
X160402500Y-72136000D01*
X160422500Y-72136000D01*
X160422500Y-71061750D01*
X160676500Y-71061750D01*
X160676500Y-72136000D01*
X161613250Y-72136000D01*
X161772000Y-71977250D01*
X161775072Y-71538000D01*
X161762812Y-71413518D01*
X161726502Y-71293820D01*
X161667537Y-71183506D01*
X161588185Y-71086815D01*
X161491494Y-71007463D01*
X161381180Y-70948498D01*
X161261482Y-70912188D01*
X161137000Y-70899928D01*
X160835250Y-70903000D01*
X160676500Y-71061750D01*
X160422500Y-71061750D01*
X160263750Y-70903000D01*
X159962000Y-70899928D01*
X159837518Y-70912188D01*
X159717820Y-70948498D01*
X159607506Y-71007463D01*
X159510815Y-71086815D01*
X159431463Y-71183506D01*
X159372498Y-71293820D01*
X159336188Y-71413518D01*
X159333835Y-71437410D01*
X159256646Y-71343354D01*
X159161356Y-71265152D01*
X159052641Y-71207042D01*
X158934677Y-71171259D01*
X158812000Y-71159176D01*
X158137000Y-71159176D01*
X158014323Y-71171259D01*
X157896359Y-71207042D01*
X157787644Y-71265152D01*
X157692354Y-71343354D01*
X157614152Y-71438644D01*
X157556042Y-71547359D01*
X157520259Y-71665323D01*
X157508176Y-71788000D01*
X157508176Y-71996761D01*
X157486998Y-72066575D01*
X157472500Y-72213778D01*
X157472501Y-74325678D01*
X157450542Y-74366759D01*
X157414759Y-74484723D01*
X157402676Y-74607400D01*
X157402676Y-74917760D01*
X157382085Y-74985641D01*
X157381498Y-74987575D01*
X157370891Y-75095268D01*
X157314291Y-75151868D01*
X157276051Y-75183251D01*
X157150836Y-75335825D01*
X157082431Y-75463804D01*
X157057794Y-75509897D01*
X157003564Y-75688669D01*
X157000498Y-75698775D01*
X156986000Y-75845978D01*
X156986000Y-75845984D01*
X156981153Y-75895200D01*
X156986000Y-75944416D01*
X156986000Y-76411518D01*
X156958759Y-76501322D01*
X156946676Y-76623999D01*
X156946676Y-77186000D01*
X155023892Y-77186000D01*
X155010869Y-77170131D01*
X154953463Y-77123019D01*
X154887970Y-77088012D01*
X154816905Y-77066455D01*
X154743000Y-77059176D01*
X153587087Y-77059176D01*
X150468825Y-73940914D01*
X150533297Y-73975375D01*
X150651487Y-74011227D01*
X150774400Y-74023333D01*
X150897312Y-74011227D01*
X151015502Y-73975375D01*
X151124427Y-73917153D01*
X151219901Y-73838801D01*
X151298253Y-73743328D01*
X151356475Y-73634403D01*
X151392327Y-73516213D01*
X151401400Y-73424094D01*
X151401400Y-71938000D01*
X151964176Y-71938000D01*
X151964176Y-73438000D01*
X151971455Y-73511905D01*
X151993012Y-73582970D01*
X152028019Y-73648463D01*
X152075131Y-73705869D01*
X152132537Y-73752981D01*
X152198030Y-73787988D01*
X152269095Y-73809545D01*
X152343000Y-73816824D01*
X154743000Y-73816824D01*
X154816905Y-73809545D01*
X154887970Y-73787988D01*
X154953463Y-73752981D01*
X155010869Y-73705869D01*
X155057981Y-73648463D01*
X155092988Y-73582970D01*
X155114545Y-73511905D01*
X155121824Y-73438000D01*
X155121824Y-71938000D01*
X155114545Y-71864095D01*
X155092988Y-71793030D01*
X155057981Y-71727537D01*
X155010869Y-71670131D01*
X154953463Y-71623019D01*
X154887970Y-71588012D01*
X154816905Y-71566455D01*
X154743000Y-71559176D01*
X152343000Y-71559176D01*
X152269095Y-71566455D01*
X152198030Y-71588012D01*
X152132537Y-71623019D01*
X152075131Y-71670131D01*
X152028019Y-71727537D01*
X151993012Y-71793030D01*
X151971455Y-71864095D01*
X151964176Y-71938000D01*
X151401400Y-71938000D01*
X151401400Y-70668184D01*
X151404433Y-70637390D01*
X151392327Y-70514477D01*
X151384625Y-70489088D01*
X151356475Y-70396287D01*
X151298253Y-70287362D01*
X151233191Y-70208084D01*
X151370690Y-70117909D01*
X151427506Y-70164537D01*
X151537820Y-70223502D01*
X151657518Y-70259812D01*
X151782000Y-70272072D01*
X151896250Y-70269000D01*
X152055000Y-70110250D01*
X152055000Y-68961000D01*
X151305750Y-68961000D01*
X151255750Y-69011000D01*
X150759000Y-69011000D01*
X150759000Y-69031000D01*
X150505000Y-69031000D01*
X150505000Y-69011000D01*
X150485000Y-69011000D01*
X150485000Y-68757000D01*
X150505000Y-68757000D01*
X150505000Y-68737000D01*
X150759000Y-68737000D01*
X150759000Y-68757000D01*
X151817000Y-68757000D01*
X151817000Y-68707000D01*
X152055000Y-68707000D01*
X152055000Y-68687000D01*
X152309000Y-68687000D01*
X152309000Y-68707000D01*
%TA.AperFunction,Conductor*%
D32*
G36*
X152309000Y-68707000D02*
G01*
X152329000Y-68707000D01*
X152329000Y-68961000D01*
X152309000Y-68961000D01*
X152309000Y-70110250D01*
X152467750Y-70269000D01*
X152582000Y-70272072D01*
X152706482Y-70259812D01*
X152788988Y-70234784D01*
X152794073Y-70286415D01*
X152829925Y-70404605D01*
X152888147Y-70513530D01*
X152966499Y-70609003D01*
X153061972Y-70687355D01*
X153170897Y-70745577D01*
X153289087Y-70781429D01*
X153381206Y-70790502D01*
X153412000Y-70793535D01*
X153442794Y-70790502D01*
X156391704Y-70790502D01*
X156422498Y-70793535D01*
X156453292Y-70790502D01*
X156545411Y-70781429D01*
X156663601Y-70745577D01*
X156772526Y-70687355D01*
X156867999Y-70609003D01*
X156881297Y-70592799D01*
X156897501Y-70579501D01*
X156975853Y-70484028D01*
X157034075Y-70375103D01*
X157069927Y-70256913D01*
X157072191Y-70233928D01*
X157157518Y-70259812D01*
X157282000Y-70272072D01*
X157396250Y-70269000D01*
X157555000Y-70110250D01*
X157555000Y-68961000D01*
X157809000Y-68961000D01*
X157809000Y-70110250D01*
X157967750Y-70269000D01*
X158082000Y-70272072D01*
X158206482Y-70259812D01*
X158326180Y-70223502D01*
X158436494Y-70164537D01*
X158533185Y-70085185D01*
X158545945Y-70069637D01*
X158729246Y-70189850D01*
X158945853Y-70277399D01*
X158972256Y-70277803D01*
X159155000Y-70152361D01*
X159155000Y-68961000D01*
X157809000Y-68961000D01*
X157555000Y-68961000D01*
X157535000Y-68961000D01*
X157535000Y-68707000D01*
X157555000Y-68707000D01*
X157555000Y-68687000D01*
X157809000Y-68687000D01*
X157809000Y-68707000D01*
X159155000Y-68707000D01*
X159155000Y-68687000D01*
X159409000Y-68687000D01*
X159409000Y-68707000D01*
X159429000Y-68707000D01*
X159429000Y-68961000D01*
X159409000Y-68961000D01*
X159409000Y-70152361D01*
X159591744Y-70277803D01*
X159618147Y-70277399D01*
X159834754Y-70189850D01*
X160030119Y-70061725D01*
X160196734Y-69897948D01*
X160328196Y-69704813D01*
X160419454Y-69489742D01*
X160461197Y-69288919D01*
X160555992Y-69383714D01*
X160587370Y-69421948D01*
X160739944Y-69547163D01*
X160914015Y-69640205D01*
X161102893Y-69697501D01*
X161250096Y-69711999D01*
X161250105Y-69711999D01*
X161299318Y-69716846D01*
X161348531Y-69711999D01*
X162201176Y-69711999D01*
X162201176Y-71762000D01*
X162208455Y-71835905D01*
X162230012Y-71906970D01*
X162265019Y-71972463D01*
X162312131Y-72029869D01*
X162369537Y-72076981D01*
X162435030Y-72111988D01*
X162506095Y-72133545D01*
X162580000Y-72140824D01*
X164295201Y-72140824D01*
X164295200Y-72989370D01*
X164212000Y-72981176D01*
X162562000Y-72981176D01*
X162458832Y-72991337D01*
X162359628Y-73021430D01*
X162268201Y-73070299D01*
X162188065Y-73136065D01*
X162122299Y-73216201D01*
X162073430Y-73307628D01*
X162043337Y-73406832D01*
X162033176Y-73510000D01*
X162033176Y-73810000D01*
X162043337Y-73913168D01*
X162073430Y-74012372D01*
X162122299Y-74103799D01*
X162188065Y-74183935D01*
X162268201Y-74249701D01*
X162352949Y-74295000D01*
X162268201Y-74340299D01*
X162188065Y-74406065D01*
X162122299Y-74486201D01*
X162073430Y-74577628D01*
X162043337Y-74676832D01*
X162033176Y-74780000D01*
X162033176Y-75080000D01*
X162043337Y-75183168D01*
X162073430Y-75282372D01*
X162122299Y-75373799D01*
X162188065Y-75453935D01*
X162268201Y-75519701D01*
X162352949Y-75565000D01*
X162268201Y-75610299D01*
X162188065Y-75676065D01*
X162122299Y-75756201D01*
X162087731Y-75820873D01*
X162019680Y-75784498D01*
X161899982Y-75748188D01*
X161775500Y-75735928D01*
X161669078Y-75736796D01*
X161666500Y-75368150D01*
X161507750Y-75209400D01*
X160571000Y-75209400D01*
X160571000Y-75229400D01*
X160317000Y-75229400D01*
X160317000Y-75209400D01*
X160297000Y-75209400D01*
X160297000Y-74955400D01*
X160317000Y-74955400D01*
X160317000Y-73881150D01*
X160571000Y-73881150D01*
X160571000Y-74955400D01*
X161507750Y-74955400D01*
X161666500Y-74796650D01*
X161669572Y-74357400D01*
X161657312Y-74232918D01*
X161621002Y-74113220D01*
X161562037Y-74002906D01*
X161482685Y-73906215D01*
X161385994Y-73826863D01*
X161275680Y-73767898D01*
X161155982Y-73731588D01*
X161031500Y-73719328D01*
X160729750Y-73722400D01*
X160571000Y-73881150D01*
X160317000Y-73881150D01*
X160158250Y-73722400D01*
X159856500Y-73719328D01*
X159732018Y-73731588D01*
X159612320Y-73767898D01*
X159502006Y-73826863D01*
X159476500Y-73847795D01*
X159476500Y-73397372D01*
X159510815Y-73439185D01*
X159607506Y-73518537D01*
X159717820Y-73577502D01*
X159837518Y-73613812D01*
X159962000Y-73626072D01*
X160263750Y-73623000D01*
X160422500Y-73464250D01*
X160422500Y-72390000D01*
X160676500Y-72390000D01*
X160676500Y-73464250D01*
X160835250Y-73623000D01*
X161137000Y-73626072D01*
X161261482Y-73613812D01*
X161381180Y-73577502D01*
X161491494Y-73518537D01*
X161588185Y-73439185D01*
X161667537Y-73342494D01*
X161726502Y-73232180D01*
X161762812Y-73112482D01*
X161775072Y-72988000D01*
X161772000Y-72548750D01*
X161613250Y-72390000D01*
X160676500Y-72390000D01*
X160422500Y-72390000D01*
X160402500Y-72390000D01*
X160402500Y-72136000D01*
X160422500Y-72136000D01*
X160422500Y-71061750D01*
X160676500Y-71061750D01*
X160676500Y-72136000D01*
X161613250Y-72136000D01*
X161772000Y-71977250D01*
X161775072Y-71538000D01*
X161762812Y-71413518D01*
X161726502Y-71293820D01*
X161667537Y-71183506D01*
X161588185Y-71086815D01*
X161491494Y-71007463D01*
X161381180Y-70948498D01*
X161261482Y-70912188D01*
X161137000Y-70899928D01*
X160835250Y-70903000D01*
X160676500Y-71061750D01*
X160422500Y-71061750D01*
X160263750Y-70903000D01*
X159962000Y-70899928D01*
X159837518Y-70912188D01*
X159717820Y-70948498D01*
X159607506Y-71007463D01*
X159510815Y-71086815D01*
X159431463Y-71183506D01*
X159372498Y-71293820D01*
X159336188Y-71413518D01*
X159333835Y-71437410D01*
X159256646Y-71343354D01*
X159161356Y-71265152D01*
X159052641Y-71207042D01*
X158934677Y-71171259D01*
X158812000Y-71159176D01*
X158137000Y-71159176D01*
X158014323Y-71171259D01*
X157896359Y-71207042D01*
X157787644Y-71265152D01*
X157692354Y-71343354D01*
X157614152Y-71438644D01*
X157556042Y-71547359D01*
X157520259Y-71665323D01*
X157508176Y-71788000D01*
X157508176Y-71996761D01*
X157486998Y-72066575D01*
X157472500Y-72213778D01*
X157472501Y-74325678D01*
X157450542Y-74366759D01*
X157414759Y-74484723D01*
X157402676Y-74607400D01*
X157402676Y-74917760D01*
X157382085Y-74985641D01*
X157381498Y-74987575D01*
X157370891Y-75095268D01*
X157314291Y-75151868D01*
X157276051Y-75183251D01*
X157150836Y-75335825D01*
X157082431Y-75463804D01*
X157057794Y-75509897D01*
X157003564Y-75688669D01*
X157000498Y-75698775D01*
X156986000Y-75845978D01*
X156986000Y-75845984D01*
X156981153Y-75895200D01*
X156986000Y-75944416D01*
X156986000Y-76411518D01*
X156958759Y-76501322D01*
X156946676Y-76623999D01*
X156946676Y-77186000D01*
X155023892Y-77186000D01*
X155010869Y-77170131D01*
X154953463Y-77123019D01*
X154887970Y-77088012D01*
X154816905Y-77066455D01*
X154743000Y-77059176D01*
X153587087Y-77059176D01*
X150468825Y-73940914D01*
X150533297Y-73975375D01*
X150651487Y-74011227D01*
X150774400Y-74023333D01*
X150897312Y-74011227D01*
X151015502Y-73975375D01*
X151124427Y-73917153D01*
X151219901Y-73838801D01*
X151298253Y-73743328D01*
X151356475Y-73634403D01*
X151392327Y-73516213D01*
X151401400Y-73424094D01*
X151401400Y-71938000D01*
X151964176Y-71938000D01*
X151964176Y-73438000D01*
X151971455Y-73511905D01*
X151993012Y-73582970D01*
X152028019Y-73648463D01*
X152075131Y-73705869D01*
X152132537Y-73752981D01*
X152198030Y-73787988D01*
X152269095Y-73809545D01*
X152343000Y-73816824D01*
X154743000Y-73816824D01*
X154816905Y-73809545D01*
X154887970Y-73787988D01*
X154953463Y-73752981D01*
X155010869Y-73705869D01*
X155057981Y-73648463D01*
X155092988Y-73582970D01*
X155114545Y-73511905D01*
X155121824Y-73438000D01*
X155121824Y-71938000D01*
X155114545Y-71864095D01*
X155092988Y-71793030D01*
X155057981Y-71727537D01*
X155010869Y-71670131D01*
X154953463Y-71623019D01*
X154887970Y-71588012D01*
X154816905Y-71566455D01*
X154743000Y-71559176D01*
X152343000Y-71559176D01*
X152269095Y-71566455D01*
X152198030Y-71588012D01*
X152132537Y-71623019D01*
X152075131Y-71670131D01*
X152028019Y-71727537D01*
X151993012Y-71793030D01*
X151971455Y-71864095D01*
X151964176Y-71938000D01*
X151401400Y-71938000D01*
X151401400Y-70668184D01*
X151404433Y-70637390D01*
X151392327Y-70514477D01*
X151384625Y-70489088D01*
X151356475Y-70396287D01*
X151298253Y-70287362D01*
X151233191Y-70208084D01*
X151370690Y-70117909D01*
X151427506Y-70164537D01*
X151537820Y-70223502D01*
X151657518Y-70259812D01*
X151782000Y-70272072D01*
X151896250Y-70269000D01*
X152055000Y-70110250D01*
X152055000Y-68961000D01*
X151305750Y-68961000D01*
X151255750Y-69011000D01*
X150759000Y-69011000D01*
X150759000Y-69031000D01*
X150505000Y-69031000D01*
X150505000Y-69011000D01*
X150485000Y-69011000D01*
X150485000Y-68757000D01*
X150505000Y-68757000D01*
X150505000Y-68737000D01*
X150759000Y-68737000D01*
X150759000Y-68757000D01*
X151817000Y-68757000D01*
X151817000Y-68707000D01*
X152055000Y-68707000D01*
X152055000Y-68687000D01*
X152309000Y-68687000D01*
X152309000Y-68707000D01*
G37*
%TD.AperFunction*%
%TD*%
M02*
