%TF.GenerationSoftware,KiCad,Pcbnew,(6.0.2)*%
%TF.CreationDate,2022-03-20T03:32:58-07:00*%
%TF.ProjectId,ChargerPOC,43686172-6765-4725-904f-432e6b696361,rev?*%
%TF.SameCoordinates,Original*%
%TF.FileFunction,Copper,L2,Bot*%
%TF.FilePolarity,Positive*%
%FSLAX46Y46*%
G04 Gerber Fmt 4.6, Leading zero omitted, Abs format (unit mm)*
G04 Created by KiCad (PCBNEW (6.0.2)) date 2022-03-20 03:32:58*
%MOMM*%
%LPD*%
G01*
G04 APERTURE LIST*
G04 Aperture macros list*
%AMRoundRect*
0 Rectangle with rounded corners*
0 $1 Rounding radius*
0 $2 $3 $4 $5 $6 $7 $8 $9 X,Y pos of 4 corners*
0 Add a 4 corners polygon primitive as box body*
4,1,4,$2,$3,$4,$5,$6,$7,$8,$9,$2,$3,0*
0 Add four circle primitives for the rounded corners*
1,1,$1+$1,$2,$3*
1,1,$1+$1,$4,$5*
1,1,$1+$1,$6,$7*
1,1,$1+$1,$8,$9*
0 Add four rect primitives between the rounded corners*
20,1,$1+$1,$2,$3,$4,$5,0*
20,1,$1+$1,$4,$5,$6,$7,0*
20,1,$1+$1,$6,$7,$8,$9,0*
20,1,$1+$1,$8,$9,$2,$3,0*%
G04 Aperture macros list end*
%TA.AperFunction,ComponentPad*%
%ADD10R,10.000000X8.000000*%
%TD*%
%TA.AperFunction,ComponentPad*%
%ADD11R,1.700000X1.700000*%
%TD*%
%TA.AperFunction,ComponentPad*%
%ADD12O,1.700000X1.700000*%
%TD*%
%TA.AperFunction,ComponentPad*%
%ADD13R,8.000000X10.000000*%
%TD*%
%TA.AperFunction,SMDPad,CuDef*%
%ADD14R,0.650000X1.560000*%
%TD*%
%TA.AperFunction,SMDPad,CuDef*%
%ADD15RoundRect,0.137500X0.587500X0.137500X-0.587500X0.137500X-0.587500X-0.137500X0.587500X-0.137500X0*%
%TD*%
%TA.AperFunction,SMDPad,CuDef*%
%ADD16RoundRect,0.250000X-0.450000X0.350000X-0.450000X-0.350000X0.450000X-0.350000X0.450000X0.350000X0*%
%TD*%
%TA.AperFunction,SMDPad,CuDef*%
%ADD17RoundRect,0.250000X-0.350000X-0.450000X0.350000X-0.450000X0.350000X0.450000X-0.350000X0.450000X0*%
%TD*%
%TA.AperFunction,ViaPad*%
%ADD18C,0.800000*%
%TD*%
%TA.AperFunction,Conductor*%
%ADD19C,1.000000*%
%TD*%
%TA.AperFunction,Conductor*%
%ADD20C,2.000000*%
%TD*%
%TA.AperFunction,Conductor*%
%ADD21C,1.250000*%
%TD*%
%TA.AperFunction,Conductor*%
%ADD22C,0.500000*%
%TD*%
G04 APERTURE END LIST*
D10*
%TO.P,J5,1,Pin_1*%
%TO.N,Net-(BT1-Pad1)*%
X33248600Y-74422000D03*
X33248600Y-82422000D03*
%TD*%
%TO.P,J4,1,Pin_1*%
%TO.N,+BATT*%
X51943000Y-80334000D03*
X51943000Y-88334000D03*
%TD*%
D11*
%TO.P,J3,1,Pin_1*%
%TO.N,GND*%
X56438800Y-116763800D03*
D12*
%TO.P,J3,2,Pin_2*%
%TO.N,Net-(J3-Pad2)*%
X56438800Y-114223800D03*
%TO.P,J3,3,Pin_3*%
%TO.N,Net-(J3-Pad3)*%
X56438800Y-111683800D03*
%TO.P,J3,4,Pin_4*%
%TO.N,Net-(J3-Pad4)*%
X56438800Y-109143800D03*
%TD*%
D11*
%TO.P,J2,1,Pin_1*%
%TO.N,GND*%
X43408600Y-114925000D03*
D12*
%TO.P,J2,2,Pin_2*%
%TO.N,Net-(J2-Pad2)*%
X43408600Y-112385000D03*
%TO.P,J2,3,Pin_3*%
%TO.N,Net-(J2-Pad3)*%
X43408600Y-109845000D03*
%TO.P,J2,4,Pin_4*%
%TO.N,Net-(J2-Pad4)*%
X43408600Y-107305000D03*
%TD*%
D10*
%TO.P,J1,1,Pin_1*%
%TO.N,VBUS*%
X93903800Y-82219800D03*
X93903800Y-90219800D03*
%TD*%
D13*
%TO.P,J6,1,Pin_1*%
%TO.N,GND*%
X84251800Y-114198400D03*
X76251800Y-114198400D03*
%TD*%
D14*
%TO.P,U9,1*%
%TO.N,Net-(R11-Pad2)*%
X54086800Y-69980800D03*
%TO.P,U9,2*%
X53136800Y-69980800D03*
%TO.P,U9,3*%
%TO.N,GND*%
X52186800Y-69980800D03*
%TO.P,U9,4*%
%TO.N,N/C*%
X52186800Y-67280800D03*
%TO.P,U9,5*%
X54086800Y-67280800D03*
%TD*%
D15*
%TO.P,U4,1*%
%TO.N,Net-(R4-Pad1)*%
X37344800Y-96164400D03*
%TO.P,U4,2*%
%TO.N,GND*%
X37344800Y-98704400D03*
%TO.P,U4,3*%
%TO.N,Net-(U1-Pad3)*%
X31844800Y-98704400D03*
%TO.P,U4,4*%
%TO.N,Net-(BT1-Pad1)*%
X31844800Y-96164400D03*
%TD*%
D16*
%TO.P,R23,1*%
%TO.N,Net-(J3-Pad2)*%
X43789600Y-126346200D03*
%TO.P,R23,2*%
%TO.N,GND*%
X43789600Y-128346200D03*
%TD*%
%TO.P,R22,1*%
%TO.N,Net-(BT2-Pad2)*%
X43662600Y-122129800D03*
%TO.P,R22,2*%
%TO.N,Net-(J3-Pad2)*%
X43662600Y-124129800D03*
%TD*%
%TO.P,R21,1*%
%TO.N,Net-(J3-Pad3)*%
X49707800Y-113112800D03*
%TO.P,R21,2*%
%TO.N,GND*%
X49707800Y-115112800D03*
%TD*%
%TO.P,R20,1*%
%TO.N,Net-(BT1-Pad2)*%
X49758600Y-108991400D03*
%TO.P,R20,2*%
%TO.N,Net-(J3-Pad3)*%
X49758600Y-110991400D03*
%TD*%
%TO.P,R19,1*%
%TO.N,Net-(R19-Pad1)*%
X44475400Y-98787200D03*
%TO.P,R19,2*%
%TO.N,GND*%
X44475400Y-100787200D03*
%TD*%
%TO.P,R18,1*%
%TO.N,Net-(R16-Pad1)*%
X60325000Y-71440800D03*
%TO.P,R18,2*%
%TO.N,Net-(R18-Pad2)*%
X60325000Y-73440800D03*
%TD*%
D17*
%TO.P,R16,1*%
%TO.N,Net-(R16-Pad1)*%
X64820800Y-69443600D03*
%TO.P,R16,2*%
%TO.N,GND*%
X66820800Y-69443600D03*
%TD*%
%TO.P,R11,1*%
%TO.N,VBUS*%
X51663600Y-73533000D03*
%TO.P,R11,2*%
%TO.N,Net-(R11-Pad2)*%
X53663600Y-73533000D03*
%TD*%
%TO.P,R10,1*%
%TO.N,Net-(R10-Pad1)*%
X61137800Y-67513200D03*
%TO.P,R10,2*%
%TO.N,GND*%
X63137800Y-67513200D03*
%TD*%
%TO.P,R9,1*%
%TO.N,+BATT*%
X57385200Y-67513200D03*
%TO.P,R9,2*%
%TO.N,Net-(R10-Pad1)*%
X59385200Y-67513200D03*
%TD*%
D16*
%TO.P,R8,1*%
%TO.N,Net-(J3-Pad4)*%
X44348400Y-94697800D03*
%TO.P,R8,2*%
%TO.N,Net-(R19-Pad1)*%
X44348400Y-96697800D03*
%TD*%
%TO.P,R7,1*%
%TO.N,Net-(BT1-Pad1)*%
X44348400Y-90557600D03*
%TO.P,R7,2*%
%TO.N,Net-(J3-Pad4)*%
X44348400Y-92557600D03*
%TD*%
D11*
%TO.P,BT3,1,+*%
%TO.N,Net-(BT2-Pad2)*%
X26517600Y-125013800D03*
D12*
%TO.P,BT3,2,-*%
%TO.N,GND*%
X26517600Y-127553800D03*
%TD*%
D11*
%TO.P,BT2,1,+*%
%TO.N,Net-(BT1-Pad2)*%
X26009600Y-106995200D03*
D12*
%TO.P,BT2,2,-*%
%TO.N,Net-(BT2-Pad2)*%
X26009600Y-109535200D03*
%TD*%
D11*
%TO.P,BT1,1,+*%
%TO.N,Net-(BT1-Pad1)*%
X25450800Y-91846400D03*
D12*
%TO.P,BT1,2,-*%
%TO.N,Net-(BT1-Pad2)*%
X25450800Y-94386400D03*
%TD*%
D15*
%TO.P,U6,1*%
%TO.N,Net-(R6-Pad1)*%
X35947800Y-123799600D03*
%TO.P,U6,2*%
%TO.N,GND*%
X35947800Y-126339600D03*
%TO.P,U6,3*%
%TO.N,Net-(U3-Pad3)*%
X30447800Y-126339600D03*
%TO.P,U6,4*%
%TO.N,Net-(BT2-Pad2)*%
X30447800Y-123799600D03*
%TD*%
%TO.P,U5,1*%
%TO.N,Net-(R5-Pad1)*%
X36786000Y-109804200D03*
%TO.P,U5,2*%
%TO.N,GND*%
X36786000Y-112344200D03*
%TO.P,U5,3*%
%TO.N,Net-(U2-Pad3)*%
X31286000Y-112344200D03*
%TO.P,U5,4*%
%TO.N,Net-(BT1-Pad2)*%
X31286000Y-109804200D03*
%TD*%
D18*
%TO.N,Net-(U1-Pad3)*%
X31902400Y-98755200D03*
%TO.N,GND*%
X74930000Y-124460000D03*
X95250000Y-105410000D03*
X95250000Y-105410000D03*
X63500000Y-124460000D03*
X64770000Y-113030000D03*
X88900000Y-101600000D03*
X78740000Y-102870000D03*
X41910000Y-73660000D03*
X40640000Y-64770000D03*
X49530000Y-68580000D03*
X49530000Y-71120000D03*
%TO.N,Net-(U3-Pad3)*%
X30734000Y-126365000D03*
%TO.N,Net-(U2-Pad3)*%
X31369000Y-112420400D03*
%TO.N,Net-(BT2-Pad2)*%
X31648400Y-117602000D03*
%TO.N,Net-(BT1-Pad2)*%
X31978600Y-104063800D03*
%TO.N,Net-(BT1-Pad1)*%
X32791400Y-90144600D03*
%TO.N,Net-(R4-Pad1)*%
X37490400Y-96088200D03*
%TO.N,Net-(R5-Pad1)*%
X36957000Y-109829600D03*
%TO.N,Net-(R6-Pad1)*%
X35941000Y-123825000D03*
%TO.N,Net-(R10-Pad1)*%
X60564800Y-67402200D03*
%TO.N,Net-(R11-Pad2)*%
X60532919Y-68773562D03*
%TO.N,VBUS*%
X60564800Y-69942200D03*
%TO.N,Net-(R14-Pad1)*%
X73025000Y-78131600D03*
X66624200Y-74015600D03*
%TO.N,VBUS*%
X82326000Y-76497400D03*
X63423800Y-71323200D03*
%TO.N,Net-(R16-Pad1)*%
X60375800Y-71424800D03*
%TO.N,Net-(R18-Pad2)*%
X60333000Y-73448800D03*
X83921600Y-76479400D03*
%TD*%
D19*
%TO.N,Net-(BT1-Pad1)*%
X27152600Y-90144600D02*
X25450800Y-91846400D01*
X32791400Y-90144600D02*
X27152600Y-90144600D01*
D20*
X33248600Y-82422000D02*
X33248600Y-84048600D01*
X33248600Y-84048600D02*
X25450800Y-91846400D01*
D19*
%TO.N,Net-(BT2-Pad2)*%
X40411400Y-117602000D02*
X31648400Y-117602000D01*
X43662600Y-120853200D02*
X40411400Y-117602000D01*
X43662600Y-122129800D02*
X43662600Y-120853200D01*
%TO.N,Net-(BT1-Pad2)*%
X48082200Y-104063800D02*
X31978600Y-104063800D01*
X49758600Y-105740200D02*
X48082200Y-104063800D01*
X49758600Y-108991400D02*
X49758600Y-105740200D01*
%TO.N,Net-(BT1-Pad1)*%
X33204400Y-90557600D02*
X32791400Y-90144600D01*
X44348400Y-90557600D02*
X33204400Y-90557600D01*
%TO.N,Net-(R19-Pad1)*%
X44348400Y-98660200D02*
X44475400Y-98787200D01*
X44348400Y-96697800D02*
X44348400Y-98660200D01*
%TO.N,Net-(J3-Pad4)*%
X56438800Y-106645376D02*
X56438800Y-109143800D01*
X44491224Y-94697800D02*
X56438800Y-106645376D01*
X44348400Y-94697800D02*
X44491224Y-94697800D01*
X44348400Y-94697800D02*
X44348400Y-92557600D01*
D21*
%TO.N,Net-(J3-Pad2)*%
X51968400Y-117492119D02*
X55236719Y-114223800D01*
X51968400Y-122402600D02*
X51968400Y-117492119D01*
X50241200Y-124129800D02*
X51968400Y-122402600D01*
X43662600Y-124129800D02*
X50241200Y-124129800D01*
X55236719Y-114223800D02*
X56438800Y-114223800D01*
%TO.N,Net-(BT1-Pad2)*%
X29047200Y-106995200D02*
X31978600Y-104063800D01*
X26009600Y-106995200D02*
X29047200Y-106995200D01*
%TO.N,Net-(BT2-Pad2)*%
X26517600Y-125013800D02*
X29233600Y-125013800D01*
X29233600Y-125013800D02*
X30447800Y-123799600D01*
X30447800Y-118802600D02*
X31648400Y-117602000D01*
X30447800Y-123799600D02*
X30447800Y-118802600D01*
%TO.N,Net-(BT1-Pad2)*%
X31286000Y-104756400D02*
X31978600Y-104063800D01*
X31286000Y-109804200D02*
X31286000Y-104756400D01*
%TO.N,Net-(BT1-Pad1)*%
X31844800Y-91091200D02*
X32791400Y-90144600D01*
X31844800Y-96164400D02*
X31844800Y-91091200D01*
%TO.N,Net-(J3-Pad2)*%
X43662600Y-126219200D02*
X43789600Y-126346200D01*
X43662600Y-124129800D02*
X43662600Y-126219200D01*
%TO.N,Net-(J3-Pad3)*%
X55746400Y-110991400D02*
X56438800Y-111683800D01*
X49758600Y-110991400D02*
X55746400Y-110991400D01*
X49707800Y-111042200D02*
X49758600Y-110991400D01*
X49707800Y-113112800D02*
X49707800Y-111042200D01*
D22*
%TO.N,+BATT*%
X48133000Y-76524000D02*
X51943000Y-80334000D01*
X51790600Y-63931800D02*
X48133000Y-67589400D01*
X48133000Y-67589400D02*
X48133000Y-76524000D01*
X56388000Y-63931800D02*
X51790600Y-63931800D01*
X57385200Y-64929000D02*
X56388000Y-63931800D01*
X57385200Y-67513200D02*
X57385200Y-64929000D01*
%TO.N,Net-(R10-Pad1)*%
X60453800Y-67513200D02*
X60564800Y-67402200D01*
X59385200Y-67513200D02*
X60453800Y-67513200D01*
%TO.N,Net-(R11-Pad2)*%
X55294038Y-68773562D02*
X60532919Y-68773562D01*
X54086800Y-69980800D02*
X55294038Y-68773562D01*
X54086800Y-70084400D02*
X53663600Y-70507600D01*
X54086800Y-69980800D02*
X54086800Y-70084400D01*
X53663600Y-70507600D02*
X53136800Y-69980800D01*
X53663600Y-73533000D02*
X53663600Y-70507600D01*
%TO.N,VBUS*%
X54152800Y-75823730D02*
X60034330Y-69942200D01*
X60034330Y-69942200D02*
X60564800Y-69942200D01*
X54152800Y-75869800D02*
X54152800Y-75823730D01*
X52654200Y-75869800D02*
X54152800Y-75869800D01*
X51663600Y-73533000D02*
X51663600Y-74879200D01*
X51663600Y-74879200D02*
X52654200Y-75869800D01*
%TO.N,Net-(R14-Pad1)*%
X66624200Y-74015600D02*
X68909000Y-74015600D01*
%TO.N,Net-(R18-Pad2)*%
X65865301Y-78981101D02*
X60333000Y-73448800D01*
X81419899Y-78981101D02*
X65865301Y-78981101D01*
%TO.N,Net-(R14-Pad1)*%
X68909000Y-74015600D02*
X73025000Y-78131600D01*
%TO.N,Net-(R18-Pad2)*%
X83921600Y-76479400D02*
X81419899Y-78981101D01*
%TO.N,VBUS*%
X63423800Y-71323200D02*
X77151800Y-71323200D01*
X77151800Y-71323200D02*
X82326000Y-76497400D01*
%TO.N,Net-(R16-Pad1)*%
X62357000Y-69443600D02*
X60375800Y-71424800D01*
X64820800Y-69443600D02*
X62357000Y-69443600D01*
%TO.N,Net-(R18-Pad2)*%
X60333000Y-73448800D02*
X60325000Y-73440800D01*
%TD*%
%TA.AperFunction,Conductor*%
%TO.N,GND*%
G36*
X99764121Y-60218002D02*
G01*
X99810614Y-60271658D01*
X99822000Y-60324000D01*
X99822000Y-130176000D01*
X99801998Y-130244121D01*
X99748342Y-130290614D01*
X99696000Y-130302000D01*
X23494000Y-130302000D01*
X23425879Y-130281998D01*
X23379386Y-130228342D01*
X23368000Y-130176000D01*
X23368000Y-127821766D01*
X25185857Y-127821766D01*
X25216165Y-127956246D01*
X25219245Y-127966075D01*
X25299370Y-128163403D01*
X25304013Y-128172594D01*
X25415294Y-128354188D01*
X25421377Y-128362499D01*
X25560813Y-128523467D01*
X25568180Y-128530683D01*
X25732034Y-128666716D01*
X25740481Y-128672631D01*
X25924356Y-128780079D01*
X25933642Y-128784529D01*
X26132601Y-128860503D01*
X26142499Y-128863379D01*
X26245850Y-128884406D01*
X26259899Y-128883210D01*
X26263600Y-128872865D01*
X26263600Y-128872317D01*
X26771600Y-128872317D01*
X26775664Y-128886159D01*
X26789078Y-128888193D01*
X26795784Y-128887334D01*
X26805862Y-128885192D01*
X27009855Y-128823991D01*
X27019442Y-128820233D01*
X27176492Y-128743295D01*
X42581601Y-128743295D01*
X42581938Y-128749814D01*
X42591857Y-128845406D01*
X42594749Y-128858800D01*
X42646188Y-129012984D01*
X42652361Y-129026162D01*
X42737663Y-129164007D01*
X42746699Y-129175408D01*
X42861429Y-129289939D01*
X42872840Y-129298951D01*
X43010843Y-129384016D01*
X43024024Y-129390163D01*
X43178310Y-129441338D01*
X43191686Y-129444205D01*
X43286038Y-129453872D01*
X43292454Y-129454200D01*
X43517485Y-129454200D01*
X43532724Y-129449725D01*
X43533929Y-129448335D01*
X43535600Y-129440652D01*
X43535600Y-129436084D01*
X44043600Y-129436084D01*
X44048075Y-129451323D01*
X44049465Y-129452528D01*
X44057148Y-129454199D01*
X44286695Y-129454199D01*
X44293214Y-129453862D01*
X44388806Y-129443943D01*
X44402200Y-129441051D01*
X44556384Y-129389612D01*
X44569562Y-129383439D01*
X44707407Y-129298137D01*
X44718808Y-129289101D01*
X44833339Y-129174371D01*
X44842351Y-129162960D01*
X44927416Y-129024957D01*
X44933563Y-129011776D01*
X44984738Y-128857490D01*
X44987605Y-128844114D01*
X44997272Y-128749762D01*
X44997600Y-128743346D01*
X44997600Y-128618315D01*
X44993125Y-128603076D01*
X44991735Y-128601871D01*
X44984052Y-128600200D01*
X44061715Y-128600200D01*
X44046476Y-128604675D01*
X44045271Y-128606065D01*
X44043600Y-128613748D01*
X44043600Y-129436084D01*
X43535600Y-129436084D01*
X43535600Y-128618315D01*
X43531125Y-128603076D01*
X43529735Y-128601871D01*
X43522052Y-128600200D01*
X42599716Y-128600200D01*
X42584477Y-128604675D01*
X42583272Y-128606065D01*
X42581601Y-128613748D01*
X42581601Y-128743295D01*
X27176492Y-128743295D01*
X27210695Y-128726539D01*
X27219545Y-128721264D01*
X27392928Y-128597592D01*
X27400800Y-128590939D01*
X27551652Y-128440612D01*
X27558330Y-128432765D01*
X27682603Y-128259820D01*
X27687913Y-128250983D01*
X27782270Y-128060067D01*
X27786069Y-128050472D01*
X27847977Y-127846710D01*
X27850155Y-127836637D01*
X27851586Y-127825762D01*
X27849375Y-127811578D01*
X27836217Y-127807800D01*
X26789715Y-127807800D01*
X26774476Y-127812275D01*
X26773271Y-127813665D01*
X26771600Y-127821348D01*
X26771600Y-128872317D01*
X26263600Y-128872317D01*
X26263600Y-127825915D01*
X26259125Y-127810676D01*
X26257735Y-127809471D01*
X26250052Y-127807800D01*
X25200825Y-127807800D01*
X25187294Y-127811773D01*
X25185857Y-127821766D01*
X23368000Y-127821766D01*
X23368000Y-115819669D01*
X42050601Y-115819669D01*
X42050971Y-115826490D01*
X42056495Y-115877352D01*
X42060121Y-115892604D01*
X42105276Y-116013054D01*
X42113814Y-116028649D01*
X42190315Y-116130724D01*
X42202876Y-116143285D01*
X42304951Y-116219786D01*
X42320546Y-116228324D01*
X42440994Y-116273478D01*
X42456249Y-116277105D01*
X42507114Y-116282631D01*
X42513928Y-116283000D01*
X43136485Y-116283000D01*
X43151724Y-116278525D01*
X43152929Y-116277135D01*
X43154600Y-116269452D01*
X43154600Y-116264884D01*
X43662600Y-116264884D01*
X43667075Y-116280123D01*
X43668465Y-116281328D01*
X43676148Y-116282999D01*
X44303269Y-116282999D01*
X44310090Y-116282629D01*
X44360952Y-116277105D01*
X44376204Y-116273479D01*
X44496654Y-116228324D01*
X44512249Y-116219786D01*
X44614324Y-116143285D01*
X44626885Y-116130724D01*
X44703386Y-116028649D01*
X44711924Y-116013054D01*
X44757078Y-115892606D01*
X44760705Y-115877351D01*
X44766231Y-115826486D01*
X44766600Y-115819672D01*
X44766600Y-115509895D01*
X48499801Y-115509895D01*
X48500138Y-115516414D01*
X48510057Y-115612006D01*
X48512949Y-115625400D01*
X48564388Y-115779584D01*
X48570561Y-115792762D01*
X48655863Y-115930607D01*
X48664899Y-115942008D01*
X48779629Y-116056539D01*
X48791040Y-116065551D01*
X48929043Y-116150616D01*
X48942224Y-116156763D01*
X49096510Y-116207938D01*
X49109886Y-116210805D01*
X49204238Y-116220472D01*
X49210654Y-116220800D01*
X49435685Y-116220800D01*
X49450924Y-116216325D01*
X49452129Y-116214935D01*
X49453800Y-116207252D01*
X49453800Y-116202684D01*
X49961800Y-116202684D01*
X49966275Y-116217923D01*
X49967665Y-116219128D01*
X49975348Y-116220799D01*
X50204895Y-116220799D01*
X50211414Y-116220462D01*
X50307006Y-116210543D01*
X50320400Y-116207651D01*
X50474584Y-116156212D01*
X50487762Y-116150039D01*
X50625607Y-116064737D01*
X50637008Y-116055701D01*
X50751539Y-115940971D01*
X50760551Y-115929560D01*
X50845616Y-115791557D01*
X50851763Y-115778376D01*
X50902938Y-115624090D01*
X50905805Y-115610714D01*
X50915472Y-115516362D01*
X50915800Y-115509946D01*
X50915800Y-115384915D01*
X50911325Y-115369676D01*
X50909935Y-115368471D01*
X50902252Y-115366800D01*
X49979915Y-115366800D01*
X49964676Y-115371275D01*
X49963471Y-115372665D01*
X49961800Y-115380348D01*
X49961800Y-116202684D01*
X49453800Y-116202684D01*
X49453800Y-115384915D01*
X49449325Y-115369676D01*
X49447935Y-115368471D01*
X49440252Y-115366800D01*
X48517916Y-115366800D01*
X48502677Y-115371275D01*
X48501472Y-115372665D01*
X48499801Y-115380348D01*
X48499801Y-115509895D01*
X44766600Y-115509895D01*
X44766600Y-115197115D01*
X44762125Y-115181876D01*
X44760735Y-115180671D01*
X44753052Y-115179000D01*
X43680715Y-115179000D01*
X43665476Y-115183475D01*
X43664271Y-115184865D01*
X43662600Y-115192548D01*
X43662600Y-116264884D01*
X43154600Y-116264884D01*
X43154600Y-115197115D01*
X43150125Y-115181876D01*
X43148735Y-115180671D01*
X43141052Y-115179000D01*
X42068716Y-115179000D01*
X42053477Y-115183475D01*
X42052272Y-115184865D01*
X42050601Y-115192548D01*
X42050601Y-115819669D01*
X23368000Y-115819669D01*
X23368000Y-112546930D01*
X30052500Y-112546930D01*
X30052693Y-112549378D01*
X30052693Y-112549386D01*
X30054687Y-112574715D01*
X30055383Y-112583560D01*
X30057176Y-112589732D01*
X30057177Y-112589737D01*
X30096467Y-112724973D01*
X30100919Y-112740296D01*
X30104954Y-112747119D01*
X30179969Y-112873965D01*
X30179972Y-112873969D01*
X30184003Y-112880785D01*
X30299415Y-112996197D01*
X30306231Y-113000228D01*
X30306235Y-113000231D01*
X30432300Y-113074784D01*
X30439904Y-113079281D01*
X30447515Y-113081492D01*
X30447517Y-113081493D01*
X30590463Y-113123023D01*
X30590468Y-113123024D01*
X30596640Y-113124817D01*
X30603045Y-113125321D01*
X30603050Y-113125322D01*
X30630814Y-113127507D01*
X30630822Y-113127507D01*
X30633270Y-113127700D01*
X30755943Y-113127700D01*
X30824064Y-113147702D01*
X30830004Y-113151764D01*
X30876698Y-113185689D01*
X30912248Y-113211518D01*
X30918276Y-113214202D01*
X30918278Y-113214203D01*
X31080681Y-113286509D01*
X31086712Y-113289194D01*
X31169226Y-113306733D01*
X31267056Y-113327528D01*
X31267061Y-113327528D01*
X31273513Y-113328900D01*
X31464487Y-113328900D01*
X31470939Y-113327528D01*
X31470944Y-113327528D01*
X31568774Y-113306733D01*
X31651288Y-113289194D01*
X31657319Y-113286509D01*
X31819722Y-113214203D01*
X31819724Y-113214202D01*
X31825752Y-113211518D01*
X31912942Y-113148170D01*
X31964364Y-113126158D01*
X31968941Y-113125322D01*
X31975360Y-113124817D01*
X32043168Y-113105117D01*
X32124483Y-113081493D01*
X32124485Y-113081492D01*
X32132096Y-113079281D01*
X32139700Y-113074784D01*
X32265765Y-113000231D01*
X32265769Y-113000228D01*
X32272585Y-112996197D01*
X32387997Y-112880785D01*
X32392028Y-112873969D01*
X32392031Y-112873965D01*
X32467046Y-112747119D01*
X32471081Y-112740296D01*
X32475533Y-112724973D01*
X32508915Y-112610071D01*
X35563605Y-112610071D01*
X35599169Y-112732483D01*
X35605416Y-112746919D01*
X35680367Y-112873655D01*
X35690007Y-112886082D01*
X35794118Y-112990193D01*
X35806545Y-112999833D01*
X35933281Y-113074784D01*
X35947717Y-113081031D01*
X36090542Y-113122526D01*
X36103129Y-113124824D01*
X36130857Y-113127007D01*
X36135783Y-113127200D01*
X36513885Y-113127200D01*
X36529124Y-113122725D01*
X36530329Y-113121335D01*
X36532000Y-113113652D01*
X36532000Y-113109085D01*
X37040000Y-113109085D01*
X37044475Y-113124324D01*
X37045865Y-113125529D01*
X37053548Y-113127200D01*
X37436217Y-113127200D01*
X37441143Y-113127007D01*
X37468871Y-113124824D01*
X37481458Y-113122526D01*
X37624283Y-113081031D01*
X37638719Y-113074784D01*
X37765455Y-112999833D01*
X37777882Y-112990193D01*
X37881993Y-112886082D01*
X37891633Y-112873655D01*
X37966584Y-112746919D01*
X37972831Y-112732483D01*
X38006790Y-112615595D01*
X38006750Y-112601495D01*
X37999480Y-112598200D01*
X37058115Y-112598200D01*
X37042876Y-112602675D01*
X37041671Y-112604065D01*
X37040000Y-112611748D01*
X37040000Y-113109085D01*
X36532000Y-113109085D01*
X36532000Y-112616315D01*
X36527525Y-112601076D01*
X36526135Y-112599871D01*
X36518452Y-112598200D01*
X35578271Y-112598200D01*
X35564740Y-112602173D01*
X35563605Y-112610071D01*
X32508915Y-112610071D01*
X32514823Y-112589737D01*
X32514824Y-112589732D01*
X32516617Y-112583560D01*
X32517314Y-112574715D01*
X32519307Y-112549386D01*
X32519307Y-112549378D01*
X32519500Y-112546930D01*
X32519500Y-112351695D01*
X42045851Y-112351695D01*
X42046148Y-112356848D01*
X42046148Y-112356851D01*
X42051611Y-112451590D01*
X42058710Y-112574715D01*
X42059847Y-112579761D01*
X42059848Y-112579767D01*
X42068085Y-112616315D01*
X42107822Y-112792639D01*
X42191866Y-112999616D01*
X42194565Y-113004020D01*
X42294178Y-113166574D01*
X42308587Y-113190088D01*
X42454850Y-113358938D01*
X42458825Y-113362238D01*
X42458831Y-113362244D01*
X42464025Y-113366556D01*
X42503659Y-113425460D01*
X42505155Y-113496441D01*
X42468039Y-113556962D01*
X42427768Y-113581480D01*
X42320546Y-113621676D01*
X42304951Y-113630214D01*
X42202876Y-113706715D01*
X42190315Y-113719276D01*
X42113814Y-113821351D01*
X42105276Y-113836946D01*
X42060122Y-113957394D01*
X42056495Y-113972649D01*
X42050969Y-114023514D01*
X42050600Y-114030328D01*
X42050600Y-114652885D01*
X42055075Y-114668124D01*
X42056465Y-114669329D01*
X42064148Y-114671000D01*
X44748484Y-114671000D01*
X44763723Y-114666525D01*
X44764928Y-114665135D01*
X44766599Y-114657452D01*
X44766599Y-114030331D01*
X44766229Y-114023510D01*
X44760705Y-113972648D01*
X44757079Y-113957396D01*
X44711924Y-113836946D01*
X44703386Y-113821351D01*
X44626885Y-113719276D01*
X44614324Y-113706715D01*
X44512249Y-113630214D01*
X44496654Y-113621676D01*
X44386413Y-113580348D01*
X44329649Y-113537706D01*
X44304949Y-113471145D01*
X44320157Y-113401796D01*
X44341704Y-113373115D01*
X44443030Y-113272144D01*
X44443040Y-113272132D01*
X44446696Y-113268489D01*
X44465475Y-113242356D01*
X44574035Y-113091277D01*
X44577053Y-113087077D01*
X44585038Y-113070922D01*
X44673736Y-112891453D01*
X44673737Y-112891451D01*
X44676030Y-112886811D01*
X44722919Y-112732483D01*
X44739465Y-112678023D01*
X44739465Y-112678021D01*
X44740970Y-112673069D01*
X44770129Y-112451590D01*
X44771756Y-112385000D01*
X44753452Y-112162361D01*
X44699031Y-111945702D01*
X44609954Y-111740840D01*
X44505459Y-111579315D01*
X44491422Y-111557617D01*
X44491420Y-111557614D01*
X44488614Y-111553277D01*
X44338270Y-111388051D01*
X44334219Y-111384852D01*
X44334215Y-111384848D01*
X44167014Y-111252800D01*
X44167010Y-111252798D01*
X44162959Y-111249598D01*
X44121653Y-111226796D01*
X44071684Y-111176364D01*
X44056912Y-111106921D01*
X44082028Y-111040516D01*
X44109380Y-111013909D01*
X44153203Y-110982650D01*
X44288460Y-110886173D01*
X44296324Y-110878337D01*
X44443035Y-110732137D01*
X44446696Y-110728489D01*
X44464946Y-110703092D01*
X44574035Y-110551277D01*
X44577053Y-110547077D01*
X44590670Y-110519526D01*
X44673736Y-110351453D01*
X44673737Y-110351451D01*
X44676030Y-110346811D01*
X44722858Y-110192683D01*
X44739465Y-110138023D01*
X44739465Y-110138021D01*
X44740970Y-110133069D01*
X44770129Y-109911590D01*
X44771756Y-109845000D01*
X44753452Y-109622361D01*
X44699031Y-109405702D01*
X44609954Y-109200840D01*
X44551507Y-109110495D01*
X44491422Y-109017617D01*
X44491420Y-109017614D01*
X44488614Y-109013277D01*
X44338270Y-108848051D01*
X44334219Y-108844852D01*
X44334215Y-108844848D01*
X44167014Y-108712800D01*
X44167010Y-108712798D01*
X44162959Y-108709598D01*
X44121653Y-108686796D01*
X44071684Y-108636364D01*
X44056912Y-108566921D01*
X44082028Y-108500516D01*
X44109380Y-108473909D01*
X44153203Y-108442650D01*
X44288460Y-108346173D01*
X44295753Y-108338906D01*
X44443035Y-108192137D01*
X44446696Y-108188489D01*
X44469938Y-108156145D01*
X44574035Y-108011277D01*
X44577053Y-108007077D01*
X44582592Y-107995871D01*
X44673736Y-107811453D01*
X44673737Y-107811451D01*
X44676030Y-107806811D01*
X44740970Y-107593069D01*
X44770129Y-107371590D01*
X44771756Y-107305000D01*
X44753452Y-107082361D01*
X44699031Y-106865702D01*
X44609954Y-106660840D01*
X44488614Y-106473277D01*
X44338270Y-106308051D01*
X44334219Y-106304852D01*
X44334215Y-106304848D01*
X44167014Y-106172800D01*
X44167010Y-106172798D01*
X44162959Y-106169598D01*
X43967389Y-106061638D01*
X43962520Y-106059914D01*
X43962516Y-106059912D01*
X43761687Y-105988795D01*
X43761683Y-105988794D01*
X43756812Y-105987069D01*
X43751719Y-105986162D01*
X43751716Y-105986161D01*
X43541973Y-105948800D01*
X43541967Y-105948799D01*
X43536884Y-105947894D01*
X43463052Y-105946992D01*
X43318681Y-105945228D01*
X43318679Y-105945228D01*
X43313511Y-105945165D01*
X43092691Y-105978955D01*
X42880356Y-106048357D01*
X42850043Y-106064137D01*
X42740755Y-106121029D01*
X42682207Y-106151507D01*
X42678074Y-106154610D01*
X42678071Y-106154612D01*
X42531128Y-106264940D01*
X42503565Y-106285635D01*
X42349229Y-106447138D01*
X42346315Y-106451410D01*
X42346314Y-106451411D01*
X42340334Y-106460177D01*
X42223343Y-106631680D01*
X42129288Y-106834305D01*
X42069589Y-107049570D01*
X42045851Y-107271695D01*
X42046148Y-107276848D01*
X42046148Y-107276851D01*
X42051611Y-107371590D01*
X42058710Y-107494715D01*
X42059847Y-107499761D01*
X42059848Y-107499767D01*
X42079719Y-107587939D01*
X42107822Y-107712639D01*
X42152833Y-107823488D01*
X42179807Y-107889917D01*
X42191866Y-107919616D01*
X42238595Y-107995871D01*
X42253465Y-108020136D01*
X42308587Y-108110088D01*
X42454850Y-108278938D01*
X42626726Y-108421632D01*
X42673455Y-108448938D01*
X42700045Y-108464476D01*
X42748769Y-108516114D01*
X42761840Y-108585897D01*
X42735109Y-108651669D01*
X42694655Y-108685027D01*
X42682207Y-108691507D01*
X42678074Y-108694610D01*
X42678071Y-108694612D01*
X42599488Y-108753614D01*
X42503565Y-108825635D01*
X42499993Y-108829373D01*
X42375704Y-108959434D01*
X42349229Y-108987138D01*
X42346315Y-108991410D01*
X42346314Y-108991411D01*
X42290553Y-109073154D01*
X42223343Y-109171680D01*
X42181414Y-109262009D01*
X42140314Y-109350552D01*
X42129288Y-109374305D01*
X42069589Y-109589570D01*
X42045851Y-109811695D01*
X42046148Y-109816848D01*
X42046148Y-109816851D01*
X42056966Y-110004461D01*
X42058710Y-110034715D01*
X42059847Y-110039761D01*
X42059848Y-110039767D01*
X42060703Y-110043560D01*
X42107822Y-110252639D01*
X42191866Y-110459616D01*
X42224495Y-110512862D01*
X42288210Y-110616835D01*
X42308587Y-110650088D01*
X42454850Y-110818938D01*
X42626726Y-110961632D01*
X42697195Y-111002811D01*
X42700045Y-111004476D01*
X42748769Y-111056114D01*
X42761840Y-111125897D01*
X42735109Y-111191669D01*
X42694655Y-111225027D01*
X42682207Y-111231507D01*
X42678074Y-111234610D01*
X42678071Y-111234612D01*
X42653847Y-111252800D01*
X42503565Y-111365635D01*
X42349229Y-111527138D01*
X42346315Y-111531410D01*
X42346314Y-111531411D01*
X42323144Y-111565377D01*
X42223343Y-111711680D01*
X42129288Y-111914305D01*
X42069589Y-112129570D01*
X42045851Y-112351695D01*
X32519500Y-112351695D01*
X32519500Y-112141470D01*
X32518968Y-112134707D01*
X32517122Y-112111250D01*
X32517121Y-112111245D01*
X32516617Y-112104840D01*
X32514824Y-112098668D01*
X32514823Y-112098663D01*
X32507310Y-112072805D01*
X35565210Y-112072805D01*
X35565250Y-112086905D01*
X35572520Y-112090200D01*
X36513885Y-112090200D01*
X36529124Y-112085725D01*
X36530329Y-112084335D01*
X36532000Y-112076652D01*
X36532000Y-112072085D01*
X37040000Y-112072085D01*
X37044475Y-112087324D01*
X37045865Y-112088529D01*
X37053548Y-112090200D01*
X37993729Y-112090200D01*
X38007260Y-112086227D01*
X38008395Y-112078329D01*
X37972831Y-111955917D01*
X37966584Y-111941481D01*
X37891633Y-111814745D01*
X37881993Y-111802318D01*
X37777882Y-111698207D01*
X37765455Y-111688567D01*
X37638719Y-111613616D01*
X37624283Y-111607369D01*
X37481458Y-111565874D01*
X37468871Y-111563576D01*
X37441143Y-111561393D01*
X37436216Y-111561200D01*
X37058115Y-111561200D01*
X37042876Y-111565675D01*
X37041671Y-111567065D01*
X37040000Y-111574748D01*
X37040000Y-112072085D01*
X36532000Y-112072085D01*
X36532000Y-111579315D01*
X36527525Y-111564076D01*
X36526135Y-111562871D01*
X36518452Y-111561200D01*
X36135784Y-111561200D01*
X36130857Y-111561393D01*
X36103129Y-111563576D01*
X36090542Y-111565874D01*
X35947717Y-111607369D01*
X35933281Y-111613616D01*
X35806545Y-111688567D01*
X35794118Y-111698207D01*
X35690007Y-111802318D01*
X35680367Y-111814745D01*
X35605416Y-111941481D01*
X35599169Y-111955917D01*
X35565210Y-112072805D01*
X32507310Y-112072805D01*
X32473293Y-111955717D01*
X32473292Y-111955715D01*
X32471081Y-111948104D01*
X32392214Y-111814745D01*
X32392031Y-111814435D01*
X32392028Y-111814431D01*
X32387997Y-111807615D01*
X32272585Y-111692203D01*
X32265769Y-111688172D01*
X32265765Y-111688169D01*
X32138919Y-111613154D01*
X32132096Y-111609119D01*
X32124485Y-111606908D01*
X32124483Y-111606907D01*
X31981537Y-111565377D01*
X31981532Y-111565376D01*
X31975360Y-111563583D01*
X31968955Y-111563079D01*
X31968950Y-111563078D01*
X31941186Y-111560893D01*
X31941178Y-111560893D01*
X31938730Y-111560700D01*
X31697000Y-111560700D01*
X31658063Y-111554533D01*
X31657320Y-111554292D01*
X31651288Y-111551606D01*
X31644836Y-111550234D01*
X31644831Y-111550233D01*
X31470944Y-111513272D01*
X31470939Y-111513272D01*
X31464487Y-111511900D01*
X31273513Y-111511900D01*
X31267061Y-111513272D01*
X31267056Y-111513272D01*
X31093169Y-111550233D01*
X31093164Y-111550234D01*
X31086712Y-111551606D01*
X31080680Y-111554292D01*
X31079937Y-111554533D01*
X31041000Y-111560700D01*
X30633270Y-111560700D01*
X30630822Y-111560893D01*
X30630814Y-111560893D01*
X30603050Y-111563078D01*
X30603045Y-111563079D01*
X30596640Y-111563583D01*
X30590468Y-111565376D01*
X30590463Y-111565377D01*
X30447517Y-111606907D01*
X30447515Y-111606908D01*
X30439904Y-111609119D01*
X30433081Y-111613154D01*
X30306235Y-111688169D01*
X30306231Y-111688172D01*
X30299415Y-111692203D01*
X30184003Y-111807615D01*
X30179972Y-111814431D01*
X30179969Y-111814435D01*
X30179786Y-111814745D01*
X30100919Y-111948104D01*
X30098708Y-111955715D01*
X30098707Y-111955717D01*
X30057177Y-112098663D01*
X30057176Y-112098668D01*
X30055383Y-112104840D01*
X30054879Y-112111245D01*
X30054878Y-112111250D01*
X30053032Y-112134707D01*
X30052500Y-112141470D01*
X30052500Y-112546930D01*
X23368000Y-112546930D01*
X23368000Y-101184295D01*
X43267401Y-101184295D01*
X43267738Y-101190814D01*
X43277657Y-101286406D01*
X43280549Y-101299800D01*
X43331988Y-101453984D01*
X43338161Y-101467162D01*
X43423463Y-101605007D01*
X43432499Y-101616408D01*
X43547229Y-101730939D01*
X43558640Y-101739951D01*
X43696643Y-101825016D01*
X43709824Y-101831163D01*
X43864110Y-101882338D01*
X43877486Y-101885205D01*
X43971838Y-101894872D01*
X43978254Y-101895200D01*
X44203285Y-101895200D01*
X44218524Y-101890725D01*
X44219729Y-101889335D01*
X44221400Y-101881652D01*
X44221400Y-101877084D01*
X44729400Y-101877084D01*
X44733875Y-101892323D01*
X44735265Y-101893528D01*
X44742948Y-101895199D01*
X44972495Y-101895199D01*
X44979014Y-101894862D01*
X45074606Y-101884943D01*
X45088000Y-101882051D01*
X45242184Y-101830612D01*
X45255362Y-101824439D01*
X45393207Y-101739137D01*
X45404608Y-101730101D01*
X45519139Y-101615371D01*
X45528151Y-101603960D01*
X45613216Y-101465957D01*
X45619363Y-101452776D01*
X45670538Y-101298490D01*
X45673405Y-101285114D01*
X45683072Y-101190762D01*
X45683400Y-101184346D01*
X45683400Y-101059315D01*
X45678925Y-101044076D01*
X45677535Y-101042871D01*
X45669852Y-101041200D01*
X44747515Y-101041200D01*
X44732276Y-101045675D01*
X44731071Y-101047065D01*
X44729400Y-101054748D01*
X44729400Y-101877084D01*
X44221400Y-101877084D01*
X44221400Y-101059315D01*
X44216925Y-101044076D01*
X44215535Y-101042871D01*
X44207852Y-101041200D01*
X43285516Y-101041200D01*
X43270277Y-101045675D01*
X43269072Y-101047065D01*
X43267401Y-101054748D01*
X43267401Y-101184295D01*
X23368000Y-101184295D01*
X23368000Y-98907130D01*
X30611300Y-98907130D01*
X30614183Y-98943760D01*
X30615976Y-98949932D01*
X30615977Y-98949937D01*
X30619736Y-98962875D01*
X30659719Y-99100496D01*
X30663754Y-99107319D01*
X30738769Y-99234165D01*
X30738772Y-99234169D01*
X30742803Y-99240985D01*
X30858215Y-99356397D01*
X30865031Y-99360428D01*
X30865035Y-99360431D01*
X30991100Y-99434984D01*
X30998704Y-99439481D01*
X31006315Y-99441692D01*
X31006317Y-99441693D01*
X31149263Y-99483223D01*
X31149268Y-99483224D01*
X31155440Y-99485017D01*
X31161845Y-99485521D01*
X31161850Y-99485522D01*
X31189614Y-99487707D01*
X31189622Y-99487707D01*
X31192070Y-99487900D01*
X31324303Y-99487900D01*
X31392424Y-99507902D01*
X31398364Y-99511964D01*
X31445648Y-99546318D01*
X31451676Y-99549002D01*
X31451678Y-99549003D01*
X31601456Y-99615688D01*
X31620112Y-99623994D01*
X31713512Y-99643847D01*
X31800456Y-99662328D01*
X31800461Y-99662328D01*
X31806913Y-99663700D01*
X31997887Y-99663700D01*
X32004339Y-99662328D01*
X32004344Y-99662328D01*
X32091288Y-99643847D01*
X32184688Y-99623994D01*
X32203344Y-99615688D01*
X32353122Y-99549003D01*
X32353124Y-99549002D01*
X32359152Y-99546318D01*
X32406436Y-99511964D01*
X32473304Y-99488106D01*
X32480497Y-99487900D01*
X32497530Y-99487900D01*
X32499978Y-99487707D01*
X32499986Y-99487707D01*
X32527750Y-99485522D01*
X32527755Y-99485521D01*
X32534160Y-99485017D01*
X32540332Y-99483224D01*
X32540337Y-99483223D01*
X32683283Y-99441693D01*
X32683285Y-99441692D01*
X32690896Y-99439481D01*
X32698500Y-99434984D01*
X32824565Y-99360431D01*
X32824569Y-99360428D01*
X32831385Y-99356397D01*
X32946797Y-99240985D01*
X32950828Y-99234169D01*
X32950831Y-99234165D01*
X33025846Y-99107319D01*
X33029881Y-99100496D01*
X33067715Y-98970271D01*
X36122405Y-98970271D01*
X36157969Y-99092683D01*
X36164216Y-99107119D01*
X36239167Y-99233855D01*
X36248807Y-99246282D01*
X36352918Y-99350393D01*
X36365345Y-99360033D01*
X36492081Y-99434984D01*
X36506517Y-99441231D01*
X36649342Y-99482726D01*
X36661929Y-99485024D01*
X36689657Y-99487207D01*
X36694583Y-99487400D01*
X37072685Y-99487400D01*
X37087924Y-99482925D01*
X37089129Y-99481535D01*
X37090800Y-99473852D01*
X37090800Y-99469285D01*
X37598800Y-99469285D01*
X37603275Y-99484524D01*
X37604665Y-99485729D01*
X37612348Y-99487400D01*
X37995017Y-99487400D01*
X37999943Y-99487207D01*
X38027671Y-99485024D01*
X38040258Y-99482726D01*
X38183083Y-99441231D01*
X38197519Y-99434984D01*
X38324255Y-99360033D01*
X38336682Y-99350393D01*
X38440793Y-99246282D01*
X38450433Y-99233855D01*
X38525384Y-99107119D01*
X38531631Y-99092683D01*
X38565590Y-98975795D01*
X38565550Y-98961695D01*
X38558280Y-98958400D01*
X37616915Y-98958400D01*
X37601676Y-98962875D01*
X37600471Y-98964265D01*
X37598800Y-98971948D01*
X37598800Y-99469285D01*
X37090800Y-99469285D01*
X37090800Y-98976515D01*
X37086325Y-98961276D01*
X37084935Y-98960071D01*
X37077252Y-98958400D01*
X36137071Y-98958400D01*
X36123540Y-98962373D01*
X36122405Y-98970271D01*
X33067715Y-98970271D01*
X33069864Y-98962875D01*
X33073623Y-98949937D01*
X33073624Y-98949932D01*
X33075417Y-98943760D01*
X33078300Y-98907130D01*
X33078300Y-98501670D01*
X33075417Y-98465040D01*
X33073624Y-98458868D01*
X33073623Y-98458863D01*
X33066110Y-98433005D01*
X36124010Y-98433005D01*
X36124050Y-98447105D01*
X36131320Y-98450400D01*
X37072685Y-98450400D01*
X37087924Y-98445925D01*
X37089129Y-98444535D01*
X37090800Y-98436852D01*
X37090800Y-98432285D01*
X37598800Y-98432285D01*
X37603275Y-98447524D01*
X37604665Y-98448729D01*
X37612348Y-98450400D01*
X38552529Y-98450400D01*
X38566060Y-98446427D01*
X38567195Y-98438529D01*
X38531631Y-98316117D01*
X38525384Y-98301681D01*
X38450433Y-98174945D01*
X38440793Y-98162518D01*
X38336682Y-98058407D01*
X38324255Y-98048767D01*
X38197519Y-97973816D01*
X38183083Y-97967569D01*
X38040258Y-97926074D01*
X38027671Y-97923776D01*
X37999943Y-97921593D01*
X37995016Y-97921400D01*
X37616915Y-97921400D01*
X37601676Y-97925875D01*
X37600471Y-97927265D01*
X37598800Y-97934948D01*
X37598800Y-98432285D01*
X37090800Y-98432285D01*
X37090800Y-97939515D01*
X37086325Y-97924276D01*
X37084935Y-97923071D01*
X37077252Y-97921400D01*
X36694584Y-97921400D01*
X36689657Y-97921593D01*
X36661929Y-97923776D01*
X36649342Y-97926074D01*
X36506517Y-97967569D01*
X36492081Y-97973816D01*
X36365345Y-98048767D01*
X36352918Y-98058407D01*
X36248807Y-98162518D01*
X36239167Y-98174945D01*
X36164216Y-98301681D01*
X36157969Y-98316117D01*
X36124010Y-98433005D01*
X33066110Y-98433005D01*
X33032093Y-98315917D01*
X33032092Y-98315915D01*
X33029881Y-98308304D01*
X32951014Y-98174945D01*
X32950831Y-98174635D01*
X32950828Y-98174631D01*
X32946797Y-98167815D01*
X32831385Y-98052403D01*
X32824569Y-98048372D01*
X32824565Y-98048369D01*
X32697719Y-97973354D01*
X32690896Y-97969319D01*
X32683285Y-97967108D01*
X32683283Y-97967107D01*
X32540337Y-97925577D01*
X32540332Y-97925576D01*
X32534160Y-97923783D01*
X32527755Y-97923279D01*
X32527750Y-97923278D01*
X32499986Y-97921093D01*
X32499978Y-97921093D01*
X32497530Y-97920900D01*
X32288946Y-97920900D01*
X32237697Y-97910007D01*
X32190719Y-97889091D01*
X32190718Y-97889091D01*
X32184688Y-97886406D01*
X32091287Y-97866553D01*
X32004344Y-97848072D01*
X32004339Y-97848072D01*
X31997887Y-97846700D01*
X31806913Y-97846700D01*
X31800461Y-97848072D01*
X31800456Y-97848072D01*
X31713513Y-97866553D01*
X31620112Y-97886406D01*
X31614082Y-97889091D01*
X31614081Y-97889091D01*
X31567103Y-97910007D01*
X31515854Y-97920900D01*
X31192070Y-97920900D01*
X31189622Y-97921093D01*
X31189614Y-97921093D01*
X31161850Y-97923278D01*
X31161845Y-97923279D01*
X31155440Y-97923783D01*
X31149268Y-97925576D01*
X31149263Y-97925577D01*
X31006317Y-97967107D01*
X31006315Y-97967108D01*
X30998704Y-97969319D01*
X30991881Y-97973354D01*
X30865035Y-98048369D01*
X30865031Y-98048372D01*
X30858215Y-98052403D01*
X30742803Y-98167815D01*
X30738772Y-98174631D01*
X30738769Y-98174635D01*
X30738586Y-98174945D01*
X30659719Y-98308304D01*
X30657508Y-98315915D01*
X30657507Y-98315917D01*
X30615977Y-98458863D01*
X30615976Y-98458868D01*
X30614183Y-98465040D01*
X30611300Y-98501670D01*
X30611300Y-98907130D01*
X23368000Y-98907130D01*
X23368000Y-91872813D01*
X23937622Y-91872813D01*
X23961311Y-92114402D01*
X23985442Y-92205735D01*
X24022027Y-92344208D01*
X24022029Y-92344214D01*
X24023319Y-92349096D01*
X24081408Y-92479564D01*
X24092300Y-92530809D01*
X24092300Y-92744534D01*
X24099055Y-92806716D01*
X24150185Y-92943105D01*
X24237539Y-93059661D01*
X24354095Y-93147015D01*
X24362504Y-93150167D01*
X24362505Y-93150168D01*
X24471251Y-93190935D01*
X24528016Y-93233576D01*
X24552716Y-93300138D01*
X24537509Y-93369487D01*
X24518116Y-93395968D01*
X24391429Y-93528538D01*
X24265543Y-93713080D01*
X24221402Y-93808175D01*
X24187724Y-93880728D01*
X24171488Y-93915705D01*
X24111789Y-94130970D01*
X24088051Y-94353095D01*
X24088348Y-94358248D01*
X24088348Y-94358251D01*
X24093811Y-94452990D01*
X24100910Y-94576115D01*
X24102047Y-94581161D01*
X24102048Y-94581167D01*
X24102475Y-94583061D01*
X24150022Y-94794039D01*
X24234066Y-95001016D01*
X24350787Y-95191488D01*
X24497050Y-95360338D01*
X24668926Y-95503032D01*
X24861800Y-95615738D01*
X25070492Y-95695430D01*
X25075560Y-95696461D01*
X25075563Y-95696462D01*
X25182817Y-95718283D01*
X25289397Y-95739967D01*
X25294572Y-95740157D01*
X25294574Y-95740157D01*
X25507473Y-95747964D01*
X25507477Y-95747964D01*
X25512637Y-95748153D01*
X25517757Y-95747497D01*
X25517759Y-95747497D01*
X25729088Y-95720425D01*
X25729089Y-95720425D01*
X25734216Y-95719768D01*
X25807469Y-95697791D01*
X25943229Y-95657061D01*
X25943234Y-95657059D01*
X25948184Y-95655574D01*
X26148794Y-95557296D01*
X26330660Y-95427573D01*
X26386683Y-95371746D01*
X26485235Y-95273537D01*
X26488896Y-95269889D01*
X26526158Y-95218034D01*
X26616235Y-95092677D01*
X26619253Y-95088477D01*
X26718230Y-94888211D01*
X26783170Y-94674469D01*
X26812329Y-94452990D01*
X26813956Y-94386400D01*
X26795652Y-94163761D01*
X26741231Y-93947102D01*
X26652154Y-93742240D01*
X26530814Y-93554677D01*
X26527332Y-93550850D01*
X26383598Y-93392888D01*
X26352546Y-93329042D01*
X26360941Y-93258543D01*
X26406117Y-93203775D01*
X26432561Y-93190106D01*
X26539097Y-93150167D01*
X26547505Y-93147015D01*
X26664061Y-93059661D01*
X26751415Y-92943105D01*
X26802545Y-92806716D01*
X26809300Y-92744534D01*
X26809300Y-92673431D01*
X26829302Y-92605310D01*
X26846205Y-92584336D01*
X28240536Y-91190005D01*
X28302848Y-91155979D01*
X28329631Y-91153100D01*
X30585300Y-91153100D01*
X30653421Y-91173102D01*
X30699914Y-91226758D01*
X30711300Y-91279100D01*
X30711300Y-95646614D01*
X30693754Y-95710752D01*
X30663756Y-95761477D01*
X30659719Y-95768304D01*
X30657508Y-95775915D01*
X30657507Y-95775917D01*
X30615977Y-95918863D01*
X30615976Y-95918868D01*
X30614183Y-95925040D01*
X30611300Y-95961670D01*
X30611300Y-96367130D01*
X30614183Y-96403760D01*
X30615976Y-96409932D01*
X30615977Y-96409937D01*
X30657507Y-96552883D01*
X30659719Y-96560496D01*
X30663754Y-96567319D01*
X30738769Y-96694165D01*
X30738772Y-96694169D01*
X30742803Y-96700985D01*
X30858215Y-96816397D01*
X30865036Y-96820431D01*
X30865039Y-96820433D01*
X30944954Y-96867694D01*
X30979902Y-96898316D01*
X31016507Y-96944917D01*
X31016512Y-96944922D01*
X31020217Y-96949639D01*
X31024747Y-96953570D01*
X31024748Y-96953571D01*
X31179048Y-97087467D01*
X31179053Y-97087471D01*
X31183579Y-97091398D01*
X31370799Y-97199707D01*
X31481595Y-97238182D01*
X31569458Y-97268693D01*
X31569460Y-97268694D01*
X31575123Y-97270660D01*
X31581058Y-97271521D01*
X31581060Y-97271521D01*
X31783237Y-97300836D01*
X31783240Y-97300836D01*
X31789177Y-97301697D01*
X32005238Y-97291696D01*
X32140570Y-97259081D01*
X32209677Y-97242426D01*
X32209679Y-97242425D01*
X32215510Y-97241020D01*
X32220968Y-97238538D01*
X32220972Y-97238537D01*
X32347064Y-97181206D01*
X32412406Y-97151497D01*
X32588821Y-97026357D01*
X32723596Y-96885569D01*
X32750474Y-96864247D01*
X32824565Y-96820431D01*
X32824569Y-96820428D01*
X32831385Y-96816397D01*
X32946797Y-96700985D01*
X32950828Y-96694169D01*
X32950831Y-96694165D01*
X33025846Y-96567319D01*
X33029881Y-96560496D01*
X33032093Y-96552883D01*
X33073623Y-96409937D01*
X33073624Y-96409932D01*
X33075417Y-96403760D01*
X33078300Y-96367130D01*
X36111300Y-96367130D01*
X36114183Y-96403760D01*
X36115976Y-96409932D01*
X36115977Y-96409937D01*
X36157507Y-96552883D01*
X36159719Y-96560496D01*
X36163754Y-96567319D01*
X36238769Y-96694165D01*
X36238772Y-96694169D01*
X36242803Y-96700985D01*
X36358215Y-96816397D01*
X36365031Y-96820428D01*
X36365035Y-96820431D01*
X36491881Y-96895446D01*
X36498704Y-96899481D01*
X36506315Y-96901692D01*
X36506317Y-96901693D01*
X36649263Y-96943223D01*
X36649268Y-96943224D01*
X36655440Y-96945017D01*
X36661845Y-96945521D01*
X36661850Y-96945522D01*
X36689614Y-96947707D01*
X36689622Y-96947707D01*
X36692070Y-96947900D01*
X37162400Y-96947900D01*
X37201337Y-96954067D01*
X37202080Y-96954308D01*
X37208112Y-96956994D01*
X37214564Y-96958366D01*
X37214569Y-96958367D01*
X37388456Y-96995328D01*
X37388461Y-96995328D01*
X37394913Y-96996700D01*
X37585887Y-96996700D01*
X37592339Y-96995328D01*
X37592344Y-96995328D01*
X37766231Y-96958367D01*
X37766236Y-96958366D01*
X37772688Y-96956994D01*
X37778720Y-96954308D01*
X37779463Y-96954067D01*
X37818400Y-96947900D01*
X37997530Y-96947900D01*
X37999978Y-96947707D01*
X37999986Y-96947707D01*
X38027750Y-96945522D01*
X38027755Y-96945521D01*
X38034160Y-96945017D01*
X38040332Y-96943224D01*
X38040337Y-96943223D01*
X38183283Y-96901693D01*
X38183285Y-96901692D01*
X38190896Y-96899481D01*
X38197719Y-96895446D01*
X38324565Y-96820431D01*
X38324569Y-96820428D01*
X38331385Y-96816397D01*
X38446797Y-96700985D01*
X38450828Y-96694169D01*
X38450831Y-96694165D01*
X38525846Y-96567319D01*
X38529881Y-96560496D01*
X38532093Y-96552883D01*
X38573623Y-96409937D01*
X38573624Y-96409932D01*
X38575417Y-96403760D01*
X38578300Y-96367130D01*
X38578300Y-95961670D01*
X38575417Y-95925040D01*
X38573624Y-95918868D01*
X38573623Y-95918863D01*
X38532093Y-95775917D01*
X38532092Y-95775915D01*
X38529881Y-95768304D01*
X38517576Y-95747497D01*
X38450831Y-95634635D01*
X38450828Y-95634631D01*
X38446797Y-95627815D01*
X38331385Y-95512403D01*
X38324569Y-95508372D01*
X38324565Y-95508369D01*
X38197719Y-95433354D01*
X38190896Y-95429319D01*
X38183285Y-95427108D01*
X38183283Y-95427107D01*
X38109141Y-95405567D01*
X38070233Y-95386506D01*
X37952494Y-95300963D01*
X37952493Y-95300962D01*
X37947152Y-95297082D01*
X37941124Y-95294398D01*
X37941122Y-95294397D01*
X37778719Y-95222091D01*
X37778718Y-95222091D01*
X37772688Y-95219406D01*
X37667785Y-95197108D01*
X37592344Y-95181072D01*
X37592339Y-95181072D01*
X37585887Y-95179700D01*
X37394913Y-95179700D01*
X37388461Y-95181072D01*
X37388456Y-95181072D01*
X37313015Y-95197108D01*
X37208112Y-95219406D01*
X37202082Y-95222091D01*
X37202081Y-95222091D01*
X37039678Y-95294397D01*
X37039676Y-95294398D01*
X37033648Y-95297082D01*
X37028307Y-95300962D01*
X37028306Y-95300963D01*
X36951404Y-95356836D01*
X36884536Y-95380694D01*
X36877343Y-95380900D01*
X36692070Y-95380900D01*
X36689622Y-95381093D01*
X36689614Y-95381093D01*
X36661850Y-95383278D01*
X36661845Y-95383279D01*
X36655440Y-95383783D01*
X36649268Y-95385576D01*
X36649263Y-95385577D01*
X36506317Y-95427107D01*
X36506315Y-95427108D01*
X36498704Y-95429319D01*
X36491881Y-95433354D01*
X36365035Y-95508369D01*
X36365031Y-95508372D01*
X36358215Y-95512403D01*
X36242803Y-95627815D01*
X36238772Y-95634631D01*
X36238769Y-95634635D01*
X36172024Y-95747497D01*
X36159719Y-95768304D01*
X36157508Y-95775915D01*
X36157507Y-95775917D01*
X36115977Y-95918863D01*
X36115976Y-95918868D01*
X36114183Y-95925040D01*
X36111300Y-95961670D01*
X36111300Y-96367130D01*
X33078300Y-96367130D01*
X33078300Y-95961670D01*
X33075417Y-95925040D01*
X33073624Y-95918868D01*
X33073623Y-95918863D01*
X33032093Y-95775917D01*
X33032092Y-95775915D01*
X33029881Y-95768304D01*
X33025844Y-95761477D01*
X32995846Y-95710752D01*
X32978300Y-95646614D01*
X32978300Y-91688031D01*
X32998302Y-91619910D01*
X33051958Y-91573417D01*
X33118342Y-91562816D01*
X33144123Y-91565707D01*
X33147627Y-91566100D01*
X33151155Y-91566100D01*
X33152139Y-91566155D01*
X33157819Y-91566602D01*
X33187225Y-91569589D01*
X33194737Y-91570352D01*
X33194739Y-91570352D01*
X33200862Y-91570974D01*
X33246508Y-91566659D01*
X33258367Y-91566100D01*
X43177091Y-91566100D01*
X43245212Y-91586102D01*
X43291705Y-91639758D01*
X43301809Y-91710032D01*
X43284351Y-91758216D01*
X43210609Y-91877848D01*
X43206285Y-91884862D01*
X43150603Y-92052739D01*
X43139900Y-92157200D01*
X43139900Y-92958000D01*
X43150874Y-93063766D01*
X43206850Y-93231546D01*
X43267183Y-93329042D01*
X43290694Y-93367035D01*
X43299922Y-93381948D01*
X43305104Y-93387121D01*
X43309649Y-93392855D01*
X43307976Y-93394181D01*
X43336998Y-93447225D01*
X43339900Y-93474111D01*
X43339900Y-93781494D01*
X43319898Y-93849615D01*
X43308717Y-93863502D01*
X43308804Y-93863571D01*
X43304266Y-93869317D01*
X43299095Y-93874497D01*
X43206285Y-94025062D01*
X43203981Y-94032009D01*
X43161946Y-94158742D01*
X43150603Y-94192939D01*
X43139900Y-94297400D01*
X43139900Y-95098200D01*
X43140237Y-95101446D01*
X43140237Y-95101450D01*
X43149123Y-95187089D01*
X43150874Y-95203966D01*
X43206850Y-95371746D01*
X43299922Y-95522148D01*
X43305104Y-95527321D01*
X43386509Y-95608584D01*
X43420588Y-95670866D01*
X43415585Y-95741686D01*
X43386664Y-95786775D01*
X43299095Y-95874497D01*
X43295255Y-95880727D01*
X43295254Y-95880728D01*
X43245361Y-95961670D01*
X43206285Y-96025062D01*
X43150603Y-96192939D01*
X43139900Y-96297400D01*
X43139900Y-97098200D01*
X43150874Y-97203966D01*
X43153055Y-97210502D01*
X43153055Y-97210504D01*
X43183192Y-97300836D01*
X43206850Y-97371746D01*
X43299922Y-97522148D01*
X43305104Y-97527321D01*
X43309649Y-97533055D01*
X43307976Y-97534381D01*
X43336998Y-97587425D01*
X43339900Y-97614311D01*
X43339900Y-98074349D01*
X43331162Y-98113758D01*
X43333285Y-98114462D01*
X43277603Y-98282339D01*
X43276903Y-98289175D01*
X43276902Y-98289178D01*
X43274163Y-98315917D01*
X43266900Y-98386800D01*
X43266900Y-99187600D01*
X43267237Y-99190846D01*
X43267237Y-99190850D01*
X43273021Y-99246591D01*
X43277874Y-99293366D01*
X43280055Y-99299902D01*
X43280055Y-99299904D01*
X43298903Y-99356397D01*
X43333850Y-99461146D01*
X43426922Y-99611548D01*
X43432104Y-99616721D01*
X43513863Y-99698338D01*
X43547942Y-99760621D01*
X43542939Y-99831441D01*
X43514018Y-99876529D01*
X43431661Y-99959029D01*
X43422649Y-99970440D01*
X43337584Y-100108443D01*
X43331437Y-100121624D01*
X43280262Y-100275910D01*
X43277395Y-100289286D01*
X43267728Y-100383638D01*
X43267400Y-100390055D01*
X43267400Y-100515085D01*
X43271875Y-100530324D01*
X43273265Y-100531529D01*
X43280948Y-100533200D01*
X45665284Y-100533200D01*
X45680523Y-100528725D01*
X45681728Y-100527335D01*
X45683399Y-100519652D01*
X45683399Y-100390105D01*
X45683062Y-100383586D01*
X45673143Y-100287994D01*
X45670251Y-100274600D01*
X45618812Y-100120416D01*
X45612639Y-100107238D01*
X45527337Y-99969393D01*
X45518301Y-99957992D01*
X45436938Y-99876770D01*
X45402859Y-99814487D01*
X45407862Y-99743667D01*
X45436783Y-99698580D01*
X45519530Y-99615688D01*
X45519534Y-99615683D01*
X45524705Y-99610503D01*
X45562614Y-99549003D01*
X45613675Y-99466168D01*
X45613676Y-99466166D01*
X45617515Y-99459938D01*
X45673197Y-99292061D01*
X45677888Y-99246282D01*
X45683572Y-99190798D01*
X45683900Y-99187600D01*
X45683900Y-98386800D01*
X45676566Y-98316117D01*
X45673638Y-98287892D01*
X45673637Y-98287888D01*
X45672926Y-98281034D01*
X45616950Y-98113254D01*
X45523878Y-97962852D01*
X45486837Y-97925875D01*
X45398703Y-97837895D01*
X45399827Y-97836769D01*
X45363747Y-97785886D01*
X45356900Y-97744915D01*
X45356900Y-97614106D01*
X45376902Y-97545985D01*
X45388083Y-97532098D01*
X45387996Y-97532029D01*
X45392534Y-97526283D01*
X45397705Y-97521103D01*
X45490515Y-97370538D01*
X45492618Y-97364197D01*
X45539358Y-97311109D01*
X45607635Y-97291645D01*
X45675595Y-97312184D01*
X45695735Y-97328546D01*
X55393395Y-107026205D01*
X55427421Y-107088517D01*
X55430300Y-107115300D01*
X55430300Y-108182181D01*
X55410298Y-108250302D01*
X55395394Y-108269232D01*
X55379429Y-108285938D01*
X55253543Y-108470480D01*
X55219060Y-108544768D01*
X55176543Y-108636364D01*
X55159488Y-108673105D01*
X55099789Y-108888370D01*
X55076051Y-109110495D01*
X55076348Y-109115648D01*
X55076348Y-109115651D01*
X55085524Y-109274788D01*
X55088910Y-109333515D01*
X55090047Y-109338561D01*
X55090048Y-109338567D01*
X55106309Y-109410720D01*
X55138022Y-109551439D01*
X55159815Y-109605108D01*
X55192050Y-109684496D01*
X55199146Y-109755137D01*
X55166924Y-109818401D01*
X55105614Y-109854201D01*
X55075307Y-109857900D01*
X51006960Y-109857900D01*
X50938839Y-109837898D01*
X50892346Y-109784242D01*
X50882242Y-109713968D01*
X50895370Y-109677746D01*
X50893780Y-109677005D01*
X50896875Y-109670368D01*
X50900715Y-109664138D01*
X50931524Y-109571250D01*
X50954232Y-109502789D01*
X50954232Y-109502787D01*
X50956397Y-109496261D01*
X50967100Y-109391800D01*
X50967100Y-108591000D01*
X50966571Y-108585897D01*
X50956838Y-108492092D01*
X50956837Y-108492088D01*
X50956126Y-108485234D01*
X50935778Y-108424242D01*
X50902468Y-108324402D01*
X50900150Y-108317454D01*
X50820344Y-108188489D01*
X50810931Y-108173278D01*
X50810930Y-108173277D01*
X50807078Y-108167052D01*
X50801896Y-108161879D01*
X50797351Y-108156145D01*
X50799024Y-108154819D01*
X50770002Y-108101775D01*
X50767100Y-108074889D01*
X50767100Y-105802050D01*
X50767837Y-105788442D01*
X50771259Y-105756939D01*
X50771925Y-105750812D01*
X50767547Y-105700770D01*
X50767221Y-105695988D01*
X50767100Y-105693510D01*
X50767100Y-105690431D01*
X50766801Y-105687377D01*
X50766800Y-105687366D01*
X50762913Y-105647729D01*
X50762791Y-105646415D01*
X50755223Y-105559918D01*
X50754687Y-105553787D01*
X50753200Y-105548668D01*
X50752680Y-105543367D01*
X50725809Y-105454366D01*
X50725474Y-105453233D01*
X50701230Y-105369786D01*
X50701228Y-105369782D01*
X50699509Y-105363864D01*
X50697056Y-105359132D01*
X50695516Y-105354031D01*
X50651869Y-105271940D01*
X50651257Y-105270774D01*
X50611329Y-105193747D01*
X50608492Y-105188274D01*
X50605169Y-105184111D01*
X50602666Y-105179404D01*
X50543861Y-105107302D01*
X50543033Y-105106275D01*
X50514069Y-105069992D01*
X50514064Y-105069987D01*
X50511862Y-105067228D01*
X50509361Y-105064727D01*
X50508719Y-105064009D01*
X50505006Y-105059661D01*
X50497242Y-105050141D01*
X50477665Y-105026138D01*
X50472923Y-105022215D01*
X50472921Y-105022213D01*
X50442327Y-104996903D01*
X50433547Y-104988913D01*
X48839055Y-103394421D01*
X48829953Y-103384278D01*
X48810097Y-103359582D01*
X48806232Y-103354775D01*
X48767778Y-103322508D01*
X48764131Y-103319328D01*
X48762319Y-103317685D01*
X48760125Y-103315491D01*
X48726851Y-103288158D01*
X48726053Y-103287496D01*
X48654726Y-103227646D01*
X48650056Y-103225078D01*
X48645939Y-103221697D01*
X48564114Y-103177823D01*
X48562955Y-103177194D01*
X48486819Y-103135338D01*
X48486811Y-103135335D01*
X48481413Y-103132367D01*
X48476331Y-103130755D01*
X48471637Y-103128238D01*
X48382669Y-103101038D01*
X48381641Y-103100718D01*
X48292894Y-103072565D01*
X48287598Y-103071971D01*
X48282502Y-103070413D01*
X48189943Y-103061010D01*
X48188807Y-103060889D01*
X48155192Y-103057119D01*
X48142470Y-103055692D01*
X48142466Y-103055692D01*
X48138973Y-103055300D01*
X48135446Y-103055300D01*
X48134461Y-103055245D01*
X48128781Y-103054798D01*
X48099375Y-103051811D01*
X48091863Y-103051048D01*
X48091861Y-103051048D01*
X48085738Y-103050426D01*
X48043459Y-103054423D01*
X48040091Y-103054741D01*
X48028233Y-103055300D01*
X32536128Y-103055300D01*
X32481537Y-103042697D01*
X32477754Y-103040383D01*
X32275225Y-102964459D01*
X32215722Y-102954341D01*
X32067224Y-102929091D01*
X32067221Y-102929091D01*
X32061994Y-102928202D01*
X32061993Y-102928202D01*
X32057275Y-102928305D01*
X32057273Y-102928305D01*
X31851750Y-102932789D01*
X31851748Y-102932789D01*
X31845753Y-102932920D01*
X31634305Y-102978444D01*
X31628789Y-102980791D01*
X31628786Y-102980792D01*
X31453680Y-103055300D01*
X31435281Y-103063129D01*
X31255860Y-103183922D01*
X31251644Y-103187745D01*
X30559709Y-103879680D01*
X30551224Y-103886844D01*
X30551408Y-103887057D01*
X30546872Y-103890972D01*
X30541979Y-103894443D01*
X30537833Y-103898774D01*
X30476395Y-103962953D01*
X30474472Y-103964917D01*
X28614594Y-105824795D01*
X28552282Y-105858821D01*
X28525499Y-105861700D01*
X27345666Y-105861700D01*
X27277545Y-105841698D01*
X27244842Y-105811268D01*
X27222861Y-105781939D01*
X27106305Y-105694585D01*
X26969916Y-105643455D01*
X26907734Y-105636700D01*
X25111466Y-105636700D01*
X25049284Y-105643455D01*
X24912895Y-105694585D01*
X24796339Y-105781939D01*
X24708985Y-105898495D01*
X24657855Y-106034884D01*
X24651100Y-106097066D01*
X24651100Y-107893334D01*
X24657855Y-107955516D01*
X24708985Y-108091905D01*
X24796339Y-108208461D01*
X24912895Y-108295815D01*
X24921304Y-108298967D01*
X24921305Y-108298968D01*
X25030051Y-108339735D01*
X25086816Y-108382376D01*
X25111516Y-108448938D01*
X25096309Y-108518287D01*
X25076916Y-108544768D01*
X25029615Y-108594266D01*
X24950229Y-108677338D01*
X24947315Y-108681610D01*
X24947314Y-108681611D01*
X24940178Y-108692072D01*
X24824343Y-108861880D01*
X24808603Y-108895790D01*
X24748451Y-109025377D01*
X24730288Y-109064505D01*
X24670589Y-109279770D01*
X24646851Y-109501895D01*
X24647148Y-109507048D01*
X24647148Y-109507051D01*
X24659079Y-109713968D01*
X24659710Y-109724915D01*
X24660847Y-109729961D01*
X24660848Y-109729967D01*
X24673080Y-109784242D01*
X24708822Y-109942839D01*
X24792866Y-110149816D01*
X24795565Y-110154220D01*
X24900592Y-110325609D01*
X24909587Y-110340288D01*
X25055850Y-110509138D01*
X25227726Y-110651832D01*
X25420600Y-110764538D01*
X25425425Y-110766380D01*
X25425426Y-110766381D01*
X25490675Y-110791297D01*
X25629292Y-110844230D01*
X25634360Y-110845261D01*
X25634363Y-110845262D01*
X25741617Y-110867083D01*
X25848197Y-110888767D01*
X25853372Y-110888957D01*
X25853374Y-110888957D01*
X26066273Y-110896764D01*
X26066277Y-110896764D01*
X26071437Y-110896953D01*
X26076557Y-110896297D01*
X26076559Y-110896297D01*
X26287888Y-110869225D01*
X26287889Y-110869225D01*
X26293016Y-110868568D01*
X26297966Y-110867083D01*
X26502029Y-110805861D01*
X26502034Y-110805859D01*
X26506984Y-110804374D01*
X26707594Y-110706096D01*
X26889460Y-110576373D01*
X27047696Y-110418689D01*
X27057015Y-110405721D01*
X27175035Y-110241477D01*
X27178053Y-110237277D01*
X27202422Y-110187971D01*
X27274736Y-110041653D01*
X27274737Y-110041651D01*
X27277030Y-110037011D01*
X27341970Y-109823269D01*
X27371129Y-109601790D01*
X27372359Y-109551439D01*
X27372674Y-109538565D01*
X27372674Y-109538561D01*
X27372756Y-109535200D01*
X27354452Y-109312561D01*
X27300031Y-109095902D01*
X27210954Y-108891040D01*
X27116526Y-108745076D01*
X27092422Y-108707817D01*
X27092420Y-108707814D01*
X27089614Y-108703477D01*
X27081787Y-108694875D01*
X26942398Y-108541688D01*
X26911346Y-108477842D01*
X26919741Y-108407343D01*
X26964917Y-108352575D01*
X26991361Y-108338906D01*
X27097897Y-108298967D01*
X27106305Y-108295815D01*
X27222861Y-108208461D01*
X27244841Y-108179133D01*
X27301700Y-108136620D01*
X27345666Y-108128700D01*
X28940833Y-108128700D01*
X28951894Y-108129633D01*
X28951915Y-108129353D01*
X28957888Y-108129792D01*
X28963807Y-108130798D01*
X29058571Y-108128730D01*
X29061319Y-108128700D01*
X29101241Y-108128700D01*
X29108905Y-108127969D01*
X29118101Y-108127431D01*
X29153765Y-108126653D01*
X29174052Y-108126210D01*
X29174053Y-108126210D01*
X29180048Y-108126079D01*
X29213695Y-108118835D01*
X29228244Y-108116583D01*
X29248710Y-108114630D01*
X29262515Y-108113313D01*
X29288503Y-108105689D01*
X29321968Y-108095871D01*
X29330919Y-108093597D01*
X29391495Y-108080556D01*
X29404814Y-108074889D01*
X29423166Y-108067080D01*
X29437027Y-108062117D01*
X29470060Y-108052426D01*
X29525141Y-108024058D01*
X29533486Y-108020139D01*
X29590520Y-107995871D01*
X29619079Y-107976644D01*
X29631754Y-107969148D01*
X29643856Y-107962915D01*
X29662348Y-107953391D01*
X29711074Y-107915117D01*
X29718524Y-107909694D01*
X29766181Y-107877609D01*
X29766183Y-107877607D01*
X29769940Y-107875078D01*
X29774156Y-107871255D01*
X29795349Y-107850062D01*
X29806611Y-107840071D01*
X29827722Y-107823488D01*
X29832439Y-107819783D01*
X29839668Y-107811453D01*
X29874219Y-107771636D01*
X29880289Y-107765122D01*
X29937405Y-107708006D01*
X29999717Y-107673980D01*
X30070532Y-107679045D01*
X30127368Y-107721592D01*
X30152179Y-107788112D01*
X30152500Y-107797101D01*
X30152500Y-109286414D01*
X30134954Y-109350552D01*
X30108639Y-109395050D01*
X30100919Y-109408104D01*
X30098708Y-109415715D01*
X30098707Y-109415717D01*
X30057177Y-109558663D01*
X30057176Y-109558668D01*
X30055383Y-109564840D01*
X30054879Y-109571245D01*
X30054878Y-109571250D01*
X30053032Y-109594707D01*
X30052500Y-109601470D01*
X30052500Y-110006930D01*
X30052693Y-110009378D01*
X30052693Y-110009386D01*
X30054868Y-110037011D01*
X30055383Y-110043560D01*
X30057176Y-110049732D01*
X30057177Y-110049737D01*
X30096467Y-110184973D01*
X30100919Y-110200296D01*
X30104954Y-110207119D01*
X30179969Y-110333965D01*
X30179972Y-110333969D01*
X30184003Y-110340785D01*
X30299415Y-110456197D01*
X30306236Y-110460231D01*
X30306239Y-110460233D01*
X30386154Y-110507494D01*
X30421102Y-110538116D01*
X30457707Y-110584717D01*
X30457712Y-110584722D01*
X30461417Y-110589439D01*
X30465947Y-110593370D01*
X30465948Y-110593371D01*
X30620248Y-110727267D01*
X30620253Y-110727271D01*
X30624779Y-110731198D01*
X30811999Y-110839507D01*
X30848197Y-110852077D01*
X31010658Y-110908493D01*
X31010660Y-110908494D01*
X31016323Y-110910460D01*
X31022258Y-110911321D01*
X31022260Y-110911321D01*
X31224437Y-110940636D01*
X31224440Y-110940636D01*
X31230377Y-110941497D01*
X31446438Y-110931496D01*
X31622947Y-110888957D01*
X31650877Y-110882226D01*
X31650879Y-110882225D01*
X31656710Y-110880820D01*
X31662168Y-110878338D01*
X31662172Y-110878337D01*
X31821574Y-110805861D01*
X31853606Y-110791297D01*
X32030021Y-110666157D01*
X32164796Y-110525369D01*
X32191674Y-110504047D01*
X32265765Y-110460231D01*
X32265769Y-110460228D01*
X32272585Y-110456197D01*
X32387997Y-110340785D01*
X32392028Y-110333969D01*
X32392031Y-110333965D01*
X32467046Y-110207119D01*
X32471081Y-110200296D01*
X32475533Y-110184973D01*
X32514823Y-110049737D01*
X32514824Y-110049732D01*
X32516617Y-110043560D01*
X32517133Y-110037011D01*
X32519307Y-110009386D01*
X32519307Y-110009378D01*
X32519500Y-110006930D01*
X35552500Y-110006930D01*
X35552693Y-110009378D01*
X35552693Y-110009386D01*
X35554868Y-110037011D01*
X35555383Y-110043560D01*
X35557176Y-110049732D01*
X35557177Y-110049737D01*
X35596467Y-110184973D01*
X35600919Y-110200296D01*
X35604954Y-110207119D01*
X35679969Y-110333965D01*
X35679972Y-110333969D01*
X35684003Y-110340785D01*
X35799415Y-110456197D01*
X35806231Y-110460228D01*
X35806235Y-110460231D01*
X35916765Y-110525597D01*
X35939904Y-110539281D01*
X35947515Y-110541492D01*
X35947517Y-110541493D01*
X36090463Y-110583023D01*
X36090468Y-110583024D01*
X36096640Y-110584817D01*
X36103045Y-110585321D01*
X36103050Y-110585322D01*
X36130814Y-110587507D01*
X36130822Y-110587507D01*
X36133270Y-110587700D01*
X36413863Y-110587700D01*
X36481984Y-110607702D01*
X36487924Y-110611764D01*
X36494904Y-110616835D01*
X36500248Y-110620718D01*
X36506276Y-110623402D01*
X36506278Y-110623403D01*
X36668681Y-110695709D01*
X36674712Y-110698394D01*
X36768112Y-110718247D01*
X36855056Y-110736728D01*
X36855061Y-110736728D01*
X36861513Y-110738100D01*
X37052487Y-110738100D01*
X37058939Y-110736728D01*
X37058944Y-110736728D01*
X37145888Y-110718247D01*
X37239288Y-110698394D01*
X37245319Y-110695709D01*
X37407722Y-110623403D01*
X37407724Y-110623402D01*
X37413752Y-110620718D01*
X37419090Y-110616839D01*
X37419098Y-110616835D01*
X37437251Y-110603646D01*
X37476157Y-110584586D01*
X37624483Y-110541493D01*
X37624485Y-110541492D01*
X37632096Y-110539281D01*
X37655235Y-110525597D01*
X37765765Y-110460231D01*
X37765769Y-110460228D01*
X37772585Y-110456197D01*
X37887997Y-110340785D01*
X37892028Y-110333969D01*
X37892031Y-110333965D01*
X37967046Y-110207119D01*
X37971081Y-110200296D01*
X37975533Y-110184973D01*
X38014823Y-110049737D01*
X38014824Y-110049732D01*
X38016617Y-110043560D01*
X38017133Y-110037011D01*
X38019307Y-110009386D01*
X38019307Y-110009378D01*
X38019500Y-110006930D01*
X38019500Y-109601470D01*
X38018968Y-109594707D01*
X38017122Y-109571250D01*
X38017121Y-109571245D01*
X38016617Y-109564840D01*
X38014824Y-109558668D01*
X38014823Y-109558663D01*
X37973293Y-109415717D01*
X37973292Y-109415715D01*
X37971081Y-109408104D01*
X37961439Y-109391800D01*
X37892031Y-109274435D01*
X37892028Y-109274431D01*
X37887997Y-109267615D01*
X37772585Y-109152203D01*
X37765769Y-109148172D01*
X37765765Y-109148169D01*
X37638919Y-109073154D01*
X37632096Y-109069119D01*
X37624485Y-109066908D01*
X37624483Y-109066907D01*
X37481537Y-109025377D01*
X37481532Y-109025376D01*
X37475360Y-109023583D01*
X37468955Y-109023079D01*
X37468950Y-109023078D01*
X37441186Y-109020893D01*
X37441178Y-109020893D01*
X37438730Y-109020700D01*
X37400596Y-109020700D01*
X37349348Y-109009807D01*
X37245323Y-108963492D01*
X37245315Y-108963489D01*
X37239288Y-108960806D01*
X37145888Y-108940953D01*
X37058944Y-108922472D01*
X37058939Y-108922472D01*
X37052487Y-108921100D01*
X36861513Y-108921100D01*
X36855061Y-108922472D01*
X36855056Y-108922472D01*
X36768112Y-108940953D01*
X36674712Y-108960806D01*
X36668685Y-108963489D01*
X36668677Y-108963492D01*
X36564652Y-109009807D01*
X36513404Y-109020700D01*
X36133270Y-109020700D01*
X36130822Y-109020893D01*
X36130814Y-109020893D01*
X36103050Y-109023078D01*
X36103045Y-109023079D01*
X36096640Y-109023583D01*
X36090468Y-109025376D01*
X36090463Y-109025377D01*
X35947517Y-109066907D01*
X35947515Y-109066908D01*
X35939904Y-109069119D01*
X35933081Y-109073154D01*
X35806235Y-109148169D01*
X35806231Y-109148172D01*
X35799415Y-109152203D01*
X35684003Y-109267615D01*
X35679972Y-109274431D01*
X35679969Y-109274435D01*
X35610561Y-109391800D01*
X35600919Y-109408104D01*
X35598708Y-109415715D01*
X35598707Y-109415717D01*
X35557177Y-109558663D01*
X35557176Y-109558668D01*
X35555383Y-109564840D01*
X35554879Y-109571245D01*
X35554878Y-109571250D01*
X35553032Y-109594707D01*
X35552500Y-109601470D01*
X35552500Y-110006930D01*
X32519500Y-110006930D01*
X32519500Y-109601470D01*
X32518968Y-109594707D01*
X32517122Y-109571250D01*
X32517121Y-109571245D01*
X32516617Y-109564840D01*
X32514824Y-109558668D01*
X32514823Y-109558663D01*
X32473293Y-109415717D01*
X32473292Y-109415715D01*
X32471081Y-109408104D01*
X32463361Y-109395050D01*
X32437046Y-109350552D01*
X32419500Y-109286414D01*
X32419500Y-105278102D01*
X32439502Y-105209981D01*
X32456405Y-105189007D01*
X32536207Y-105109205D01*
X32598519Y-105075179D01*
X32625302Y-105072300D01*
X47612275Y-105072300D01*
X47680396Y-105092302D01*
X47701370Y-105109205D01*
X48713195Y-106121029D01*
X48747220Y-106183341D01*
X48750100Y-106210124D01*
X48750100Y-108075094D01*
X48730098Y-108143215D01*
X48718917Y-108157102D01*
X48719004Y-108157171D01*
X48714466Y-108162917D01*
X48709295Y-108168097D01*
X48705455Y-108174327D01*
X48705454Y-108174328D01*
X48628625Y-108298968D01*
X48616485Y-108318662D01*
X48595574Y-108381707D01*
X48563688Y-108477842D01*
X48560803Y-108486539D01*
X48560103Y-108493375D01*
X48560102Y-108493378D01*
X48559371Y-108500516D01*
X48550100Y-108591000D01*
X48550100Y-109391800D01*
X48550437Y-109395046D01*
X48550437Y-109395050D01*
X48552582Y-109415717D01*
X48561074Y-109497566D01*
X48563255Y-109504102D01*
X48563255Y-109504104D01*
X48583518Y-109564840D01*
X48617050Y-109665346D01*
X48710122Y-109815748D01*
X48735657Y-109841238D01*
X48796709Y-109902184D01*
X48830788Y-109964466D01*
X48825785Y-110035286D01*
X48796864Y-110080375D01*
X48709295Y-110168097D01*
X48705455Y-110174327D01*
X48705454Y-110174328D01*
X48666652Y-110237277D01*
X48616485Y-110318662D01*
X48560803Y-110486539D01*
X48560103Y-110493375D01*
X48560102Y-110493378D01*
X48550682Y-110585322D01*
X48550100Y-110591000D01*
X48550100Y-111391800D01*
X48550437Y-111395046D01*
X48550437Y-111395050D01*
X48557297Y-111461161D01*
X48561074Y-111497566D01*
X48563257Y-111504108D01*
X48563257Y-111504110D01*
X48567823Y-111517797D01*
X48574300Y-111557674D01*
X48574300Y-112395660D01*
X48564540Y-112439682D01*
X48565685Y-112440062D01*
X48531058Y-112544461D01*
X48510003Y-112607939D01*
X48509303Y-112614775D01*
X48509302Y-112614778D01*
X48509145Y-112616315D01*
X48499300Y-112712400D01*
X48499300Y-113513200D01*
X48499637Y-113516446D01*
X48499637Y-113516450D01*
X48506385Y-113581480D01*
X48510274Y-113618966D01*
X48512455Y-113625502D01*
X48512455Y-113625504D01*
X48522020Y-113654174D01*
X48566250Y-113786746D01*
X48659322Y-113937148D01*
X48664504Y-113942321D01*
X48746263Y-114023938D01*
X48780342Y-114086221D01*
X48775339Y-114157041D01*
X48746418Y-114202129D01*
X48664061Y-114284629D01*
X48655049Y-114296040D01*
X48569984Y-114434043D01*
X48563837Y-114447224D01*
X48512662Y-114601510D01*
X48509795Y-114614886D01*
X48500128Y-114709238D01*
X48499800Y-114715655D01*
X48499800Y-114840685D01*
X48504275Y-114855924D01*
X48505665Y-114857129D01*
X48513348Y-114858800D01*
X50897684Y-114858800D01*
X50912923Y-114854325D01*
X50914128Y-114852935D01*
X50915799Y-114845252D01*
X50915799Y-114715705D01*
X50915462Y-114709186D01*
X50905543Y-114613594D01*
X50902651Y-114600200D01*
X50851212Y-114446016D01*
X50845039Y-114432838D01*
X50759737Y-114294993D01*
X50750701Y-114283592D01*
X50669338Y-114202370D01*
X50635259Y-114140087D01*
X50640262Y-114069267D01*
X50669183Y-114024180D01*
X50751930Y-113941288D01*
X50751934Y-113941283D01*
X50757105Y-113936103D01*
X50818227Y-113836946D01*
X50846075Y-113791768D01*
X50846076Y-113791766D01*
X50849915Y-113785538D01*
X50893486Y-113654174D01*
X50903432Y-113624189D01*
X50903432Y-113624187D01*
X50905597Y-113617661D01*
X50916300Y-113513200D01*
X50916300Y-112712400D01*
X50910971Y-112661040D01*
X50906038Y-112613492D01*
X50906037Y-112613488D01*
X50905326Y-112606634D01*
X50896363Y-112579767D01*
X50849350Y-112438854D01*
X50850816Y-112438365D01*
X50841300Y-112395618D01*
X50841300Y-112250900D01*
X50861302Y-112182779D01*
X50914958Y-112136286D01*
X50967300Y-112124900D01*
X55066780Y-112124900D01*
X55134901Y-112144902D01*
X55183523Y-112203496D01*
X55222066Y-112298416D01*
X55224765Y-112302820D01*
X55308634Y-112439682D01*
X55338787Y-112488888D01*
X55485050Y-112657738D01*
X55656926Y-112800432D01*
X55727395Y-112841611D01*
X55730245Y-112843276D01*
X55778969Y-112894914D01*
X55792040Y-112964697D01*
X55765309Y-113030469D01*
X55724855Y-113063827D01*
X55712407Y-113070307D01*
X55711190Y-113071221D01*
X55645086Y-113090300D01*
X55343086Y-113090300D01*
X55332025Y-113089367D01*
X55332004Y-113089647D01*
X55326031Y-113089208D01*
X55320112Y-113088202D01*
X55225349Y-113090270D01*
X55222600Y-113090300D01*
X55182678Y-113090300D01*
X55175014Y-113091031D01*
X55165818Y-113091569D01*
X55130154Y-113092347D01*
X55109867Y-113092790D01*
X55109866Y-113092790D01*
X55103871Y-113092921D01*
X55070225Y-113100165D01*
X55055675Y-113102417D01*
X55035209Y-113104370D01*
X55021404Y-113105687D01*
X55015644Y-113107377D01*
X55015643Y-113107377D01*
X54961951Y-113123129D01*
X54953002Y-113125403D01*
X54892424Y-113138444D01*
X54886905Y-113140792D01*
X54886903Y-113140793D01*
X54860753Y-113151920D01*
X54846892Y-113156883D01*
X54813859Y-113166574D01*
X54758778Y-113194942D01*
X54750433Y-113198861D01*
X54693399Y-113223129D01*
X54688422Y-113226480D01*
X54664840Y-113242356D01*
X54652165Y-113249852D01*
X54621571Y-113265609D01*
X54572845Y-113303883D01*
X54565395Y-113309306D01*
X54536292Y-113328900D01*
X54513979Y-113343922D01*
X54509763Y-113347745D01*
X54488570Y-113368938D01*
X54477309Y-113378928D01*
X54451480Y-113399217D01*
X54447549Y-113403747D01*
X54447548Y-113403748D01*
X54409700Y-113447364D01*
X54403630Y-113453878D01*
X51242109Y-116615399D01*
X51233624Y-116622563D01*
X51233808Y-116622776D01*
X51229272Y-116626691D01*
X51224379Y-116630162D01*
X51220233Y-116634493D01*
X51158795Y-116698672D01*
X51156872Y-116700636D01*
X51128682Y-116728826D01*
X51126773Y-116731138D01*
X51126770Y-116731141D01*
X51123796Y-116734743D01*
X51117661Y-116741640D01*
X51078963Y-116782065D01*
X51078960Y-116782069D01*
X51074810Y-116786404D01*
X51071557Y-116791443D01*
X51071554Y-116791446D01*
X51056140Y-116815319D01*
X51047442Y-116827202D01*
X51025524Y-116853744D01*
X50995806Y-116908138D01*
X50991093Y-116916058D01*
X50960741Y-116963065D01*
X50960739Y-116963069D01*
X50957484Y-116968110D01*
X50944616Y-117000039D01*
X50938328Y-117013341D01*
X50933447Y-117022275D01*
X50921821Y-117043554D01*
X50919995Y-117049259D01*
X50919994Y-117049261D01*
X50902931Y-117102568D01*
X50899795Y-117111254D01*
X50876634Y-117168723D01*
X50875484Y-117174609D01*
X50875484Y-117174611D01*
X50870037Y-117202504D01*
X50866375Y-117216767D01*
X50855881Y-117249551D01*
X50855166Y-117255500D01*
X50855165Y-117255506D01*
X50848489Y-117311074D01*
X50847053Y-117320194D01*
X50838586Y-117363554D01*
X50835178Y-117381006D01*
X50834900Y-117386690D01*
X50834900Y-117416664D01*
X50834001Y-117431692D01*
X50830084Y-117464299D01*
X50830507Y-117470275D01*
X50830507Y-117470278D01*
X50834585Y-117527870D01*
X50834900Y-117536769D01*
X50834900Y-121880899D01*
X50814898Y-121949020D01*
X50797995Y-121969994D01*
X49808594Y-122959395D01*
X49746282Y-122993421D01*
X49719499Y-122996300D01*
X44910960Y-122996300D01*
X44842839Y-122976298D01*
X44796346Y-122922642D01*
X44786242Y-122852368D01*
X44799370Y-122816146D01*
X44797780Y-122815405D01*
X44800875Y-122808768D01*
X44804715Y-122802538D01*
X44860397Y-122634661D01*
X44871100Y-122530200D01*
X44871100Y-121729400D01*
X44860126Y-121623634D01*
X44804150Y-121455854D01*
X44711078Y-121305452D01*
X44705896Y-121300279D01*
X44701351Y-121294545D01*
X44703024Y-121293219D01*
X44674002Y-121240175D01*
X44671100Y-121213289D01*
X44671100Y-120915042D01*
X44671837Y-120901435D01*
X44675259Y-120869937D01*
X44675259Y-120869932D01*
X44675924Y-120863811D01*
X44671550Y-120813809D01*
X44671221Y-120808984D01*
X44671100Y-120806513D01*
X44671100Y-120803431D01*
X44666909Y-120760689D01*
X44666787Y-120759374D01*
X44659223Y-120672919D01*
X44658687Y-120666787D01*
X44657200Y-120661668D01*
X44656680Y-120656367D01*
X44629809Y-120567366D01*
X44629474Y-120566233D01*
X44605230Y-120482786D01*
X44605228Y-120482782D01*
X44603509Y-120476864D01*
X44601056Y-120472132D01*
X44599516Y-120467031D01*
X44555869Y-120384940D01*
X44555257Y-120383774D01*
X44515329Y-120306747D01*
X44512492Y-120301274D01*
X44509169Y-120297111D01*
X44506666Y-120292404D01*
X44447845Y-120220282D01*
X44447154Y-120219426D01*
X44415862Y-120180227D01*
X44413358Y-120177723D01*
X44412716Y-120177005D01*
X44409015Y-120172672D01*
X44381665Y-120139138D01*
X44346337Y-120109912D01*
X44337558Y-120101923D01*
X41168255Y-116932621D01*
X41159153Y-116922478D01*
X41139297Y-116897782D01*
X41135432Y-116892975D01*
X41096978Y-116860708D01*
X41093331Y-116857528D01*
X41091519Y-116855885D01*
X41089325Y-116853691D01*
X41056051Y-116826358D01*
X41055253Y-116825696D01*
X40983926Y-116765846D01*
X40979256Y-116763278D01*
X40975139Y-116759897D01*
X40893314Y-116716023D01*
X40892155Y-116715394D01*
X40816019Y-116673538D01*
X40816011Y-116673535D01*
X40810613Y-116670567D01*
X40805531Y-116668955D01*
X40800837Y-116666438D01*
X40711869Y-116639238D01*
X40710841Y-116638918D01*
X40622094Y-116610765D01*
X40616798Y-116610171D01*
X40611702Y-116608613D01*
X40519143Y-116599210D01*
X40518007Y-116599089D01*
X40484392Y-116595319D01*
X40471670Y-116593892D01*
X40471666Y-116593892D01*
X40468173Y-116593500D01*
X40464646Y-116593500D01*
X40463661Y-116593445D01*
X40457981Y-116592998D01*
X40428575Y-116590011D01*
X40421063Y-116589248D01*
X40421061Y-116589248D01*
X40414938Y-116588626D01*
X40372659Y-116592623D01*
X40369291Y-116592941D01*
X40357433Y-116593500D01*
X32205928Y-116593500D01*
X32151337Y-116580897D01*
X32147554Y-116578583D01*
X31945025Y-116502659D01*
X31880486Y-116491685D01*
X31737711Y-116467408D01*
X31737708Y-116467408D01*
X31731793Y-116466402D01*
X31663344Y-116467895D01*
X31521549Y-116470989D01*
X31521547Y-116470989D01*
X31515552Y-116471120D01*
X31304105Y-116516644D01*
X31298589Y-116518991D01*
X31298586Y-116518992D01*
X31123480Y-116593500D01*
X31105081Y-116601329D01*
X30925660Y-116722122D01*
X30921444Y-116725945D01*
X29721509Y-117925880D01*
X29713024Y-117933044D01*
X29713208Y-117933257D01*
X29708672Y-117937172D01*
X29703779Y-117940643D01*
X29699633Y-117944974D01*
X29638195Y-118009153D01*
X29636272Y-118011117D01*
X29608082Y-118039307D01*
X29606173Y-118041619D01*
X29606170Y-118041622D01*
X29603196Y-118045224D01*
X29597061Y-118052121D01*
X29558363Y-118092546D01*
X29558360Y-118092550D01*
X29554210Y-118096885D01*
X29550957Y-118101924D01*
X29550954Y-118101927D01*
X29535540Y-118125800D01*
X29526842Y-118137683D01*
X29504924Y-118164225D01*
X29475206Y-118218619D01*
X29470493Y-118226539D01*
X29440141Y-118273546D01*
X29440139Y-118273550D01*
X29436884Y-118278591D01*
X29424016Y-118310520D01*
X29417728Y-118323822D01*
X29401221Y-118354035D01*
X29399395Y-118359740D01*
X29399394Y-118359742D01*
X29382331Y-118413049D01*
X29379195Y-118421735D01*
X29356034Y-118479204D01*
X29354884Y-118485090D01*
X29354884Y-118485092D01*
X29349437Y-118512985D01*
X29345775Y-118527248D01*
X29335281Y-118560032D01*
X29334566Y-118565981D01*
X29334565Y-118565987D01*
X29327889Y-118621555D01*
X29326453Y-118630675D01*
X29317986Y-118674035D01*
X29314578Y-118691487D01*
X29314300Y-118697171D01*
X29314300Y-118727145D01*
X29313401Y-118742173D01*
X29309484Y-118774780D01*
X29309907Y-118780756D01*
X29309907Y-118780759D01*
X29313985Y-118838351D01*
X29314300Y-118847250D01*
X29314300Y-123277899D01*
X29294298Y-123346020D01*
X29277395Y-123366994D01*
X28800994Y-123843395D01*
X28738682Y-123877421D01*
X28711899Y-123880300D01*
X27853666Y-123880300D01*
X27785545Y-123860298D01*
X27752842Y-123829868D01*
X27730861Y-123800539D01*
X27614305Y-123713185D01*
X27477916Y-123662055D01*
X27415734Y-123655300D01*
X25619466Y-123655300D01*
X25557284Y-123662055D01*
X25420895Y-123713185D01*
X25304339Y-123800539D01*
X25216985Y-123917095D01*
X25165855Y-124053484D01*
X25159100Y-124115666D01*
X25159100Y-125911934D01*
X25165855Y-125974116D01*
X25216985Y-126110505D01*
X25304339Y-126227061D01*
X25420895Y-126314415D01*
X25429304Y-126317567D01*
X25429305Y-126317568D01*
X25538560Y-126358526D01*
X25595325Y-126401167D01*
X25620025Y-126467729D01*
X25604818Y-126537078D01*
X25585425Y-126563559D01*
X25462190Y-126692517D01*
X25455704Y-126700527D01*
X25335698Y-126876449D01*
X25330600Y-126885423D01*
X25240938Y-127078583D01*
X25237375Y-127088270D01*
X25181989Y-127287983D01*
X25183512Y-127296407D01*
X25195892Y-127299800D01*
X27835944Y-127299800D01*
X27849475Y-127295827D01*
X27850780Y-127286747D01*
X27808814Y-127119675D01*
X27805494Y-127109924D01*
X27720572Y-126914614D01*
X27715705Y-126905539D01*
X27600026Y-126726726D01*
X27593736Y-126718557D01*
X27449893Y-126560477D01*
X27418841Y-126496631D01*
X27427235Y-126426133D01*
X27472412Y-126371364D01*
X27498856Y-126357695D01*
X27605897Y-126317567D01*
X27614305Y-126314415D01*
X27730861Y-126227061D01*
X27752841Y-126197733D01*
X27809700Y-126155220D01*
X27853666Y-126147300D01*
X29088300Y-126147300D01*
X29156421Y-126167302D01*
X29202914Y-126220958D01*
X29214300Y-126273300D01*
X29214300Y-126542330D01*
X29214493Y-126544778D01*
X29214493Y-126544786D01*
X29215971Y-126563559D01*
X29217183Y-126578960D01*
X29218976Y-126585132D01*
X29218977Y-126585137D01*
X29260113Y-126726726D01*
X29262719Y-126735696D01*
X29266754Y-126742519D01*
X29341769Y-126869365D01*
X29341772Y-126869369D01*
X29345803Y-126876185D01*
X29461215Y-126991597D01*
X29468031Y-126995628D01*
X29468035Y-126995631D01*
X29553624Y-127046247D01*
X29601704Y-127074681D01*
X29609315Y-127076892D01*
X29609317Y-127076893D01*
X29752263Y-127118423D01*
X29752268Y-127118424D01*
X29758440Y-127120217D01*
X29764845Y-127120721D01*
X29764850Y-127120722D01*
X29792614Y-127122907D01*
X29792622Y-127122907D01*
X29795070Y-127123100D01*
X30190863Y-127123100D01*
X30258984Y-127143102D01*
X30264924Y-127147164D01*
X30277248Y-127156118D01*
X30283276Y-127158802D01*
X30283278Y-127158803D01*
X30307311Y-127169503D01*
X30451712Y-127233794D01*
X30545112Y-127253647D01*
X30632056Y-127272128D01*
X30632061Y-127272128D01*
X30638513Y-127273500D01*
X30829487Y-127273500D01*
X30835939Y-127272128D01*
X30835944Y-127272128D01*
X30922888Y-127253647D01*
X31016288Y-127233794D01*
X31160689Y-127169503D01*
X31184722Y-127158803D01*
X31184724Y-127158802D01*
X31190752Y-127156118D01*
X31337171Y-127049738D01*
X31347088Y-127043224D01*
X31427561Y-126995633D01*
X31427564Y-126995631D01*
X31434385Y-126991597D01*
X31549797Y-126876185D01*
X31553828Y-126869369D01*
X31553831Y-126869365D01*
X31628846Y-126742519D01*
X31632881Y-126735696D01*
X31635487Y-126726726D01*
X31670715Y-126605471D01*
X34725405Y-126605471D01*
X34760969Y-126727883D01*
X34767216Y-126742319D01*
X34842167Y-126869055D01*
X34851807Y-126881482D01*
X34955918Y-126985593D01*
X34968345Y-126995233D01*
X35095081Y-127070184D01*
X35109517Y-127076431D01*
X35252342Y-127117926D01*
X35264929Y-127120224D01*
X35292657Y-127122407D01*
X35297583Y-127122600D01*
X35675685Y-127122600D01*
X35690924Y-127118125D01*
X35692129Y-127116735D01*
X35693800Y-127109052D01*
X35693800Y-127104485D01*
X36201800Y-127104485D01*
X36206275Y-127119724D01*
X36207665Y-127120929D01*
X36215348Y-127122600D01*
X36598017Y-127122600D01*
X36602943Y-127122407D01*
X36630671Y-127120224D01*
X36643258Y-127117926D01*
X36786083Y-127076431D01*
X36800519Y-127070184D01*
X36927255Y-126995233D01*
X36939682Y-126985593D01*
X37043793Y-126881482D01*
X37053433Y-126869055D01*
X37128384Y-126742319D01*
X37134631Y-126727883D01*
X37168590Y-126610995D01*
X37168550Y-126596895D01*
X37161280Y-126593600D01*
X36219915Y-126593600D01*
X36204676Y-126598075D01*
X36203471Y-126599465D01*
X36201800Y-126607148D01*
X36201800Y-127104485D01*
X35693800Y-127104485D01*
X35693800Y-126611715D01*
X35689325Y-126596476D01*
X35687935Y-126595271D01*
X35680252Y-126593600D01*
X34740071Y-126593600D01*
X34726540Y-126597573D01*
X34725405Y-126605471D01*
X31670715Y-126605471D01*
X31676623Y-126585137D01*
X31676624Y-126585132D01*
X31678417Y-126578960D01*
X31679630Y-126563559D01*
X31681107Y-126544786D01*
X31681107Y-126544778D01*
X31681300Y-126542330D01*
X31681300Y-126136870D01*
X31681107Y-126134414D01*
X31678922Y-126106650D01*
X31678921Y-126106645D01*
X31678417Y-126100240D01*
X31676624Y-126094068D01*
X31676623Y-126094063D01*
X31669110Y-126068205D01*
X34727010Y-126068205D01*
X34727050Y-126082305D01*
X34734320Y-126085600D01*
X35675685Y-126085600D01*
X35690924Y-126081125D01*
X35692129Y-126079735D01*
X35693800Y-126072052D01*
X35693800Y-126067485D01*
X36201800Y-126067485D01*
X36206275Y-126082724D01*
X36207665Y-126083929D01*
X36215348Y-126085600D01*
X37155529Y-126085600D01*
X37169060Y-126081627D01*
X37170195Y-126073729D01*
X37134631Y-125951317D01*
X37128384Y-125936881D01*
X37053433Y-125810145D01*
X37043793Y-125797718D01*
X36939682Y-125693607D01*
X36927255Y-125683967D01*
X36800519Y-125609016D01*
X36786083Y-125602769D01*
X36643258Y-125561274D01*
X36630671Y-125558976D01*
X36602943Y-125556793D01*
X36598016Y-125556600D01*
X36219915Y-125556600D01*
X36204676Y-125561075D01*
X36203471Y-125562465D01*
X36201800Y-125570148D01*
X36201800Y-126067485D01*
X35693800Y-126067485D01*
X35693800Y-125574715D01*
X35689325Y-125559476D01*
X35687935Y-125558271D01*
X35680252Y-125556600D01*
X35297584Y-125556600D01*
X35292657Y-125556793D01*
X35264929Y-125558976D01*
X35252342Y-125561274D01*
X35109517Y-125602769D01*
X35095081Y-125609016D01*
X34968345Y-125683967D01*
X34955918Y-125693607D01*
X34851807Y-125797718D01*
X34842167Y-125810145D01*
X34767216Y-125936881D01*
X34760969Y-125951317D01*
X34727010Y-126068205D01*
X31669110Y-126068205D01*
X31635093Y-125951117D01*
X31635092Y-125951115D01*
X31632881Y-125943504D01*
X31612190Y-125908517D01*
X31553831Y-125809835D01*
X31553828Y-125809831D01*
X31549797Y-125803015D01*
X31434385Y-125687603D01*
X31427569Y-125683572D01*
X31427565Y-125683569D01*
X31300719Y-125608554D01*
X31293896Y-125604519D01*
X31286285Y-125602308D01*
X31286283Y-125602307D01*
X31248271Y-125591264D01*
X31203336Y-125578209D01*
X31187247Y-125572321D01*
X31016288Y-125496206D01*
X30922887Y-125476353D01*
X30835944Y-125457872D01*
X30835939Y-125457872D01*
X30829487Y-125456500D01*
X30698101Y-125456500D01*
X30629980Y-125436498D01*
X30583487Y-125382842D01*
X30573383Y-125312568D01*
X30602877Y-125247988D01*
X30609006Y-125241405D01*
X31174091Y-124676320D01*
X31182576Y-124669156D01*
X31182392Y-124668943D01*
X31186928Y-124665028D01*
X31191821Y-124661557D01*
X31257405Y-124593047D01*
X31259328Y-124591083D01*
X31287518Y-124562893D01*
X31292407Y-124556973D01*
X31298539Y-124550079D01*
X31326595Y-124520771D01*
X31353474Y-124499447D01*
X31427565Y-124455631D01*
X31427569Y-124455628D01*
X31434385Y-124451597D01*
X31549797Y-124336185D01*
X31553828Y-124329369D01*
X31553831Y-124329365D01*
X31628846Y-124202519D01*
X31632881Y-124195696D01*
X31635093Y-124188083D01*
X31676623Y-124045137D01*
X31676624Y-124045132D01*
X31678417Y-124038960D01*
X31681300Y-124002330D01*
X34714300Y-124002330D01*
X34717183Y-124038960D01*
X34718976Y-124045132D01*
X34718977Y-124045137D01*
X34760507Y-124188083D01*
X34762719Y-124195696D01*
X34766754Y-124202519D01*
X34841769Y-124329365D01*
X34841772Y-124329369D01*
X34845803Y-124336185D01*
X34961215Y-124451597D01*
X34968031Y-124455628D01*
X34968035Y-124455631D01*
X35057031Y-124508262D01*
X35101704Y-124534681D01*
X35109315Y-124536892D01*
X35109317Y-124536893D01*
X35252263Y-124578423D01*
X35252268Y-124578424D01*
X35258440Y-124580217D01*
X35264845Y-124580721D01*
X35264850Y-124580722D01*
X35292614Y-124582907D01*
X35292622Y-124582907D01*
X35295070Y-124583100D01*
X35397863Y-124583100D01*
X35465984Y-124603102D01*
X35471924Y-124607164D01*
X35484248Y-124616118D01*
X35490276Y-124618802D01*
X35490278Y-124618803D01*
X35652681Y-124691109D01*
X35658712Y-124693794D01*
X35752113Y-124713647D01*
X35839056Y-124732128D01*
X35839061Y-124732128D01*
X35845513Y-124733500D01*
X36036487Y-124733500D01*
X36042939Y-124732128D01*
X36042944Y-124732128D01*
X36129887Y-124713647D01*
X36223288Y-124693794D01*
X36229319Y-124691109D01*
X36391722Y-124618803D01*
X36391724Y-124618802D01*
X36397752Y-124616118D01*
X36410076Y-124607164D01*
X36476943Y-124583306D01*
X36484137Y-124583100D01*
X36600530Y-124583100D01*
X36602978Y-124582907D01*
X36602986Y-124582907D01*
X36630750Y-124580722D01*
X36630755Y-124580721D01*
X36637160Y-124580217D01*
X36643332Y-124578424D01*
X36643337Y-124578423D01*
X36786283Y-124536893D01*
X36786285Y-124536892D01*
X36793896Y-124534681D01*
X36838569Y-124508262D01*
X36927565Y-124455631D01*
X36927569Y-124455628D01*
X36934385Y-124451597D01*
X37049797Y-124336185D01*
X37053828Y-124329369D01*
X37053831Y-124329365D01*
X37128846Y-124202519D01*
X37132881Y-124195696D01*
X37135093Y-124188083D01*
X37176623Y-124045137D01*
X37176624Y-124045132D01*
X37178417Y-124038960D01*
X37181300Y-124002330D01*
X37181300Y-123596870D01*
X37178417Y-123560240D01*
X37176624Y-123554068D01*
X37176623Y-123554063D01*
X37135093Y-123411117D01*
X37135092Y-123411115D01*
X37132881Y-123403504D01*
X37128844Y-123396677D01*
X37053831Y-123269835D01*
X37053828Y-123269831D01*
X37049797Y-123263015D01*
X36934385Y-123147603D01*
X36927569Y-123143572D01*
X36927565Y-123143569D01*
X36800719Y-123068554D01*
X36793896Y-123064519D01*
X36786285Y-123062308D01*
X36786283Y-123062307D01*
X36643337Y-123020777D01*
X36643332Y-123020776D01*
X36637160Y-123018983D01*
X36630755Y-123018479D01*
X36630750Y-123018478D01*
X36602986Y-123016293D01*
X36602978Y-123016293D01*
X36600530Y-123016100D01*
X36384596Y-123016100D01*
X36333348Y-123005207D01*
X36229323Y-122958892D01*
X36229315Y-122958889D01*
X36223288Y-122956206D01*
X36129888Y-122936353D01*
X36042944Y-122917872D01*
X36042939Y-122917872D01*
X36036487Y-122916500D01*
X35845513Y-122916500D01*
X35839061Y-122917872D01*
X35839056Y-122917872D01*
X35752112Y-122936353D01*
X35658712Y-122956206D01*
X35652685Y-122958889D01*
X35652677Y-122958892D01*
X35548652Y-123005207D01*
X35497404Y-123016100D01*
X35295070Y-123016100D01*
X35292622Y-123016293D01*
X35292614Y-123016293D01*
X35264850Y-123018478D01*
X35264845Y-123018479D01*
X35258440Y-123018983D01*
X35252268Y-123020776D01*
X35252263Y-123020777D01*
X35109317Y-123062307D01*
X35109315Y-123062308D01*
X35101704Y-123064519D01*
X35094881Y-123068554D01*
X34968035Y-123143569D01*
X34968031Y-123143572D01*
X34961215Y-123147603D01*
X34845803Y-123263015D01*
X34841772Y-123269831D01*
X34841769Y-123269835D01*
X34766756Y-123396677D01*
X34762719Y-123403504D01*
X34760508Y-123411115D01*
X34760507Y-123411117D01*
X34718977Y-123554063D01*
X34718976Y-123554068D01*
X34717183Y-123560240D01*
X34714300Y-123596870D01*
X34714300Y-124002330D01*
X31681300Y-124002330D01*
X31681300Y-123596870D01*
X31678417Y-123560240D01*
X31676624Y-123554068D01*
X31676623Y-123554063D01*
X31635093Y-123411117D01*
X31635092Y-123411115D01*
X31632881Y-123403504D01*
X31628844Y-123396677D01*
X31598846Y-123345952D01*
X31581300Y-123281814D01*
X31581300Y-119324301D01*
X31601302Y-119256180D01*
X31618205Y-119235206D01*
X32206006Y-118647405D01*
X32268318Y-118613379D01*
X32295101Y-118610500D01*
X39941475Y-118610500D01*
X40009596Y-118630502D01*
X40030570Y-118647405D01*
X42571991Y-121188825D01*
X42606016Y-121251137D01*
X42600952Y-121321952D01*
X42590158Y-121344032D01*
X42520485Y-121457062D01*
X42464803Y-121624939D01*
X42454100Y-121729400D01*
X42454100Y-122530200D01*
X42465074Y-122635966D01*
X42521050Y-122803746D01*
X42614122Y-122954148D01*
X42676376Y-123016293D01*
X42700709Y-123040584D01*
X42734788Y-123102866D01*
X42729785Y-123173686D01*
X42700864Y-123218775D01*
X42647790Y-123271942D01*
X42613295Y-123306497D01*
X42609455Y-123312727D01*
X42609454Y-123312728D01*
X42557705Y-123396681D01*
X42520485Y-123457062D01*
X42518181Y-123464009D01*
X42474928Y-123594414D01*
X42464803Y-123624939D01*
X42464103Y-123631775D01*
X42464102Y-123631778D01*
X42461000Y-123662055D01*
X42454100Y-123729400D01*
X42454100Y-124530200D01*
X42454437Y-124533446D01*
X42454437Y-124533450D01*
X42463015Y-124616118D01*
X42465074Y-124635966D01*
X42467255Y-124642502D01*
X42467255Y-124642504D01*
X42521050Y-124803746D01*
X42519584Y-124804235D01*
X42529100Y-124846982D01*
X42529100Y-126112833D01*
X42528167Y-126123894D01*
X42528447Y-126123915D01*
X42528008Y-126129888D01*
X42527002Y-126135807D01*
X42527133Y-126141808D01*
X42529070Y-126230570D01*
X42529100Y-126233319D01*
X42529100Y-126273241D01*
X42529831Y-126280905D01*
X42530369Y-126290101D01*
X42531721Y-126352048D01*
X42532983Y-126357908D01*
X42538965Y-126385694D01*
X42541217Y-126400244D01*
X42544487Y-126434515D01*
X42546177Y-126440275D01*
X42546177Y-126440276D01*
X42561929Y-126493968D01*
X42564203Y-126502919D01*
X42577244Y-126563494D01*
X42576514Y-126563651D01*
X42581100Y-126593272D01*
X42581100Y-126746600D01*
X42592074Y-126852366D01*
X42594255Y-126858902D01*
X42594255Y-126858904D01*
X42636522Y-126985593D01*
X42648050Y-127020146D01*
X42741122Y-127170548D01*
X42746304Y-127175721D01*
X42828063Y-127257338D01*
X42862142Y-127319621D01*
X42857139Y-127390441D01*
X42828218Y-127435529D01*
X42745861Y-127518029D01*
X42736849Y-127529440D01*
X42651784Y-127667443D01*
X42645637Y-127680624D01*
X42594464Y-127834904D01*
X42591595Y-127848286D01*
X42581928Y-127942638D01*
X42581600Y-127949055D01*
X42581600Y-128074085D01*
X42586075Y-128089324D01*
X42587465Y-128090529D01*
X42595148Y-128092200D01*
X44979484Y-128092200D01*
X44994723Y-128087725D01*
X44995928Y-128086335D01*
X44997599Y-128078652D01*
X44997599Y-127949105D01*
X44997262Y-127942586D01*
X44987343Y-127846994D01*
X44984451Y-127833600D01*
X44933012Y-127679416D01*
X44926839Y-127666238D01*
X44841537Y-127528393D01*
X44832501Y-127516992D01*
X44751138Y-127435770D01*
X44717059Y-127373487D01*
X44722062Y-127302667D01*
X44750983Y-127257580D01*
X44833730Y-127174688D01*
X44833734Y-127174683D01*
X44838905Y-127169503D01*
X44855179Y-127143102D01*
X44927875Y-127025168D01*
X44927876Y-127025166D01*
X44931715Y-127018938D01*
X44976000Y-126885423D01*
X44985232Y-126857589D01*
X44985232Y-126857587D01*
X44987397Y-126851061D01*
X44998100Y-126746600D01*
X44998100Y-125945800D01*
X44987126Y-125840034D01*
X44974776Y-125803015D01*
X44933468Y-125679202D01*
X44931150Y-125672254D01*
X44838078Y-125521852D01*
X44832896Y-125516679D01*
X44828349Y-125510942D01*
X44829391Y-125510117D01*
X44799004Y-125454586D01*
X44796100Y-125427692D01*
X44796100Y-125389300D01*
X44816102Y-125321179D01*
X44869758Y-125274686D01*
X44922100Y-125263300D01*
X50134833Y-125263300D01*
X50145894Y-125264233D01*
X50145915Y-125263953D01*
X50151888Y-125264392D01*
X50157807Y-125265398D01*
X50252571Y-125263330D01*
X50255319Y-125263300D01*
X50295241Y-125263300D01*
X50302905Y-125262569D01*
X50312101Y-125262031D01*
X50347765Y-125261253D01*
X50368052Y-125260810D01*
X50368053Y-125260810D01*
X50374048Y-125260679D01*
X50407695Y-125253435D01*
X50422244Y-125251183D01*
X50442710Y-125249230D01*
X50456515Y-125247913D01*
X50478699Y-125241405D01*
X50515968Y-125230471D01*
X50524919Y-125228197D01*
X50585495Y-125215156D01*
X50617166Y-125201680D01*
X50631027Y-125196717D01*
X50664060Y-125187026D01*
X50719141Y-125158658D01*
X50727486Y-125154739D01*
X50784520Y-125130471D01*
X50813079Y-125111244D01*
X50825754Y-125103748D01*
X50831012Y-125101040D01*
X50856348Y-125087991D01*
X50905074Y-125049717D01*
X50912524Y-125044294D01*
X50960181Y-125012209D01*
X50960183Y-125012207D01*
X50963940Y-125009678D01*
X50968156Y-125005855D01*
X50989349Y-124984662D01*
X51000611Y-124974671D01*
X51021722Y-124958088D01*
X51026439Y-124954383D01*
X51068219Y-124906236D01*
X51074289Y-124899722D01*
X52694695Y-123279317D01*
X52703177Y-123272155D01*
X52702993Y-123271942D01*
X52707527Y-123268029D01*
X52712421Y-123264557D01*
X52777982Y-123196071D01*
X52779905Y-123194107D01*
X52808119Y-123165893D01*
X52813020Y-123159957D01*
X52819136Y-123153080D01*
X52861990Y-123108315D01*
X52865242Y-123103278D01*
X52865247Y-123103272D01*
X52880666Y-123079392D01*
X52889364Y-123067508D01*
X52907459Y-123045596D01*
X52911276Y-123040974D01*
X52940988Y-122986591D01*
X52945697Y-122978676D01*
X52979316Y-122926609D01*
X52992187Y-122894672D01*
X52998473Y-122881376D01*
X53014979Y-122851164D01*
X53026426Y-122815405D01*
X53033868Y-122792154D01*
X53037004Y-122783467D01*
X53057926Y-122731554D01*
X53060166Y-122725996D01*
X53066763Y-122692215D01*
X53070425Y-122677953D01*
X53079089Y-122650888D01*
X53079091Y-122650878D01*
X53080919Y-122645168D01*
X53081635Y-122639212D01*
X53081636Y-122639205D01*
X53088311Y-122583645D01*
X53089747Y-122574525D01*
X53100753Y-122518162D01*
X53101622Y-122513713D01*
X53101900Y-122508029D01*
X53101900Y-122478055D01*
X53102799Y-122463027D01*
X53106002Y-122436367D01*
X53106002Y-122436363D01*
X53106716Y-122430420D01*
X53102215Y-122366845D01*
X53101900Y-122357947D01*
X53101900Y-119243069D01*
X71743801Y-119243069D01*
X71744171Y-119249890D01*
X71749695Y-119300752D01*
X71753321Y-119316004D01*
X71798476Y-119436454D01*
X71807014Y-119452049D01*
X71883515Y-119554124D01*
X71896076Y-119566685D01*
X71998151Y-119643186D01*
X72013746Y-119651724D01*
X72134194Y-119696878D01*
X72149449Y-119700505D01*
X72200314Y-119706031D01*
X72207128Y-119706400D01*
X75979685Y-119706400D01*
X75994924Y-119701925D01*
X75996129Y-119700535D01*
X75997800Y-119692852D01*
X75997800Y-119688284D01*
X76505800Y-119688284D01*
X76510275Y-119703523D01*
X76511665Y-119704728D01*
X76519348Y-119706399D01*
X80203693Y-119706399D01*
X80203729Y-119706400D01*
X83979685Y-119706400D01*
X83994924Y-119701925D01*
X83996129Y-119700535D01*
X83997800Y-119692852D01*
X83997800Y-119688284D01*
X84505800Y-119688284D01*
X84510275Y-119703523D01*
X84511665Y-119704728D01*
X84519348Y-119706399D01*
X88296469Y-119706399D01*
X88303290Y-119706029D01*
X88354152Y-119700505D01*
X88369404Y-119696879D01*
X88489854Y-119651724D01*
X88505449Y-119643186D01*
X88607524Y-119566685D01*
X88620085Y-119554124D01*
X88696586Y-119452049D01*
X88705124Y-119436454D01*
X88750278Y-119316006D01*
X88753905Y-119300751D01*
X88759431Y-119249886D01*
X88759800Y-119243072D01*
X88759800Y-114470515D01*
X88755325Y-114455276D01*
X88753935Y-114454071D01*
X88746252Y-114452400D01*
X84523915Y-114452400D01*
X84508676Y-114456875D01*
X84507471Y-114458265D01*
X84505800Y-114465948D01*
X84505800Y-119688284D01*
X83997800Y-119688284D01*
X83997800Y-114470515D01*
X83993325Y-114455276D01*
X83991935Y-114454071D01*
X83984252Y-114452400D01*
X76523915Y-114452400D01*
X76508676Y-114456875D01*
X76507471Y-114458265D01*
X76505800Y-114465948D01*
X76505800Y-119688284D01*
X75997800Y-119688284D01*
X75997800Y-114470515D01*
X75993325Y-114455276D01*
X75991935Y-114454071D01*
X75984252Y-114452400D01*
X71761916Y-114452400D01*
X71746677Y-114456875D01*
X71745472Y-114458265D01*
X71743801Y-114465948D01*
X71743801Y-119243069D01*
X53101900Y-119243069D01*
X53101900Y-118013820D01*
X53121902Y-117945699D01*
X53138805Y-117924725D01*
X53405061Y-117658469D01*
X55080801Y-117658469D01*
X55081171Y-117665290D01*
X55086695Y-117716152D01*
X55090321Y-117731404D01*
X55135476Y-117851854D01*
X55144014Y-117867449D01*
X55220515Y-117969524D01*
X55233076Y-117982085D01*
X55335151Y-118058586D01*
X55350746Y-118067124D01*
X55471194Y-118112278D01*
X55486449Y-118115905D01*
X55537314Y-118121431D01*
X55544128Y-118121800D01*
X56166685Y-118121800D01*
X56181924Y-118117325D01*
X56183129Y-118115935D01*
X56184800Y-118108252D01*
X56184800Y-118103684D01*
X56692800Y-118103684D01*
X56697275Y-118118923D01*
X56698665Y-118120128D01*
X56706348Y-118121799D01*
X57333469Y-118121799D01*
X57340290Y-118121429D01*
X57391152Y-118115905D01*
X57406404Y-118112279D01*
X57526854Y-118067124D01*
X57542449Y-118058586D01*
X57644524Y-117982085D01*
X57657085Y-117969524D01*
X57733586Y-117867449D01*
X57742124Y-117851854D01*
X57787278Y-117731406D01*
X57790905Y-117716151D01*
X57796431Y-117665286D01*
X57796800Y-117658472D01*
X57796800Y-117035915D01*
X57792325Y-117020676D01*
X57790935Y-117019471D01*
X57783252Y-117017800D01*
X56710915Y-117017800D01*
X56695676Y-117022275D01*
X56694471Y-117023665D01*
X56692800Y-117031348D01*
X56692800Y-118103684D01*
X56184800Y-118103684D01*
X56184800Y-117035915D01*
X56180325Y-117020676D01*
X56178935Y-117019471D01*
X56171252Y-117017800D01*
X55098916Y-117017800D01*
X55083677Y-117022275D01*
X55082472Y-117023665D01*
X55080801Y-117031348D01*
X55080801Y-117658469D01*
X53405061Y-117658469D01*
X54865705Y-116197825D01*
X54928017Y-116163799D01*
X54998832Y-116168864D01*
X55055668Y-116211411D01*
X55080479Y-116277931D01*
X55080800Y-116286920D01*
X55080800Y-116491685D01*
X55085275Y-116506924D01*
X55086665Y-116508129D01*
X55094348Y-116509800D01*
X57778684Y-116509800D01*
X57793923Y-116505325D01*
X57795128Y-116503935D01*
X57796799Y-116496252D01*
X57796799Y-115869131D01*
X57796429Y-115862310D01*
X57790905Y-115811448D01*
X57787279Y-115796196D01*
X57742124Y-115675746D01*
X57733586Y-115660151D01*
X57657085Y-115558076D01*
X57644524Y-115545515D01*
X57542449Y-115469014D01*
X57526854Y-115460476D01*
X57416613Y-115419148D01*
X57359849Y-115376506D01*
X57335149Y-115309945D01*
X57350357Y-115240596D01*
X57371904Y-115211915D01*
X57473230Y-115110944D01*
X57473240Y-115110932D01*
X57476896Y-115107289D01*
X57607253Y-114925877D01*
X57640405Y-114858800D01*
X57703936Y-114730253D01*
X57703937Y-114730251D01*
X57706230Y-114725611D01*
X57771170Y-114511869D01*
X57800329Y-114290390D01*
X57800495Y-114283592D01*
X57801874Y-114227165D01*
X57801874Y-114227161D01*
X57801956Y-114223800D01*
X57783652Y-114001161D01*
X57764844Y-113926285D01*
X71743800Y-113926285D01*
X71748275Y-113941524D01*
X71749665Y-113942729D01*
X71757348Y-113944400D01*
X75979685Y-113944400D01*
X75994924Y-113939925D01*
X75996129Y-113938535D01*
X75997800Y-113930852D01*
X75997800Y-113926285D01*
X76505800Y-113926285D01*
X76510275Y-113941524D01*
X76511665Y-113942729D01*
X76519348Y-113944400D01*
X83979685Y-113944400D01*
X83994924Y-113939925D01*
X83996129Y-113938535D01*
X83997800Y-113930852D01*
X83997800Y-113926285D01*
X84505800Y-113926285D01*
X84510275Y-113941524D01*
X84511665Y-113942729D01*
X84519348Y-113944400D01*
X88741684Y-113944400D01*
X88756923Y-113939925D01*
X88758128Y-113938535D01*
X88759799Y-113930852D01*
X88759799Y-109153731D01*
X88759429Y-109146910D01*
X88753905Y-109096048D01*
X88750279Y-109080796D01*
X88705124Y-108960346D01*
X88696586Y-108944751D01*
X88620085Y-108842676D01*
X88607524Y-108830115D01*
X88505449Y-108753614D01*
X88489854Y-108745076D01*
X88369406Y-108699922D01*
X88354151Y-108696295D01*
X88303286Y-108690769D01*
X88296472Y-108690400D01*
X84523915Y-108690400D01*
X84508676Y-108694875D01*
X84507471Y-108696265D01*
X84505800Y-108703948D01*
X84505800Y-113926285D01*
X83997800Y-113926285D01*
X83997800Y-108708516D01*
X83993325Y-108693277D01*
X83991935Y-108692072D01*
X83984252Y-108690401D01*
X80299907Y-108690401D01*
X80299871Y-108690400D01*
X76523915Y-108690400D01*
X76508676Y-108694875D01*
X76507471Y-108696265D01*
X76505800Y-108703948D01*
X76505800Y-113926285D01*
X75997800Y-113926285D01*
X75997800Y-108708516D01*
X75993325Y-108693277D01*
X75991935Y-108692072D01*
X75984252Y-108690401D01*
X72207131Y-108690401D01*
X72200310Y-108690771D01*
X72149448Y-108696295D01*
X72134196Y-108699921D01*
X72013746Y-108745076D01*
X71998151Y-108753614D01*
X71896076Y-108830115D01*
X71883515Y-108842676D01*
X71807014Y-108944751D01*
X71798476Y-108960346D01*
X71753322Y-109080794D01*
X71749695Y-109096049D01*
X71744169Y-109146914D01*
X71743800Y-109153728D01*
X71743800Y-113926285D01*
X57764844Y-113926285D01*
X57729231Y-113784502D01*
X57640154Y-113579640D01*
X57586330Y-113496441D01*
X57521622Y-113396417D01*
X57521620Y-113396414D01*
X57518814Y-113392077D01*
X57368470Y-113226851D01*
X57364419Y-113223652D01*
X57364415Y-113223648D01*
X57197214Y-113091600D01*
X57197210Y-113091598D01*
X57193159Y-113088398D01*
X57151853Y-113065596D01*
X57101884Y-113015164D01*
X57087112Y-112945721D01*
X57112228Y-112879316D01*
X57139580Y-112852709D01*
X57183403Y-112821450D01*
X57318660Y-112724973D01*
X57334539Y-112709150D01*
X57442570Y-112601495D01*
X57476896Y-112567289D01*
X57493300Y-112544461D01*
X57604235Y-112390077D01*
X57607253Y-112385877D01*
X57621599Y-112356851D01*
X57703936Y-112190253D01*
X57703937Y-112190251D01*
X57706230Y-112185611D01*
X57771170Y-111971869D01*
X57800329Y-111750390D01*
X57801275Y-111711680D01*
X57801874Y-111687165D01*
X57801874Y-111687161D01*
X57801956Y-111683800D01*
X57783652Y-111461161D01*
X57729231Y-111244502D01*
X57640154Y-111039640D01*
X57587550Y-110958327D01*
X57521622Y-110856417D01*
X57521620Y-110856414D01*
X57518814Y-110852077D01*
X57368470Y-110686851D01*
X57364419Y-110683652D01*
X57364415Y-110683648D01*
X57197214Y-110551600D01*
X57197210Y-110551598D01*
X57193159Y-110548398D01*
X57151853Y-110525596D01*
X57101884Y-110475164D01*
X57087112Y-110405721D01*
X57112228Y-110339316D01*
X57139580Y-110312709D01*
X57230865Y-110247596D01*
X57318660Y-110184973D01*
X57476896Y-110027289D01*
X57493300Y-110004461D01*
X57604235Y-109850077D01*
X57607253Y-109845877D01*
X57611197Y-109837898D01*
X57703936Y-109650253D01*
X57703937Y-109650251D01*
X57706230Y-109645611D01*
X57771170Y-109431869D01*
X57800329Y-109210390D01*
X57801275Y-109171680D01*
X57801874Y-109147165D01*
X57801874Y-109147161D01*
X57801956Y-109143800D01*
X57783652Y-108921161D01*
X57729231Y-108704502D01*
X57640154Y-108499640D01*
X57518814Y-108312077D01*
X57498924Y-108290218D01*
X57480106Y-108269537D01*
X57449054Y-108205691D01*
X57447300Y-108184738D01*
X57447300Y-106707219D01*
X57448037Y-106693612D01*
X57451459Y-106662114D01*
X57451459Y-106662109D01*
X57452124Y-106655988D01*
X57447750Y-106605988D01*
X57447421Y-106601162D01*
X57447300Y-106598690D01*
X57447300Y-106595607D01*
X57446126Y-106583638D01*
X57443110Y-106552870D01*
X57442988Y-106551557D01*
X57435423Y-106465094D01*
X57434887Y-106458963D01*
X57433400Y-106453844D01*
X57432880Y-106448543D01*
X57406009Y-106359542D01*
X57405674Y-106358409D01*
X57381430Y-106274962D01*
X57381428Y-106274958D01*
X57379709Y-106269040D01*
X57377256Y-106264308D01*
X57375716Y-106259207D01*
X57349619Y-106210124D01*
X57332069Y-106177116D01*
X57331457Y-106175950D01*
X57291529Y-106098923D01*
X57288692Y-106093450D01*
X57285369Y-106089287D01*
X57282866Y-106084580D01*
X57224045Y-106012458D01*
X57223354Y-106011602D01*
X57192062Y-105972403D01*
X57189558Y-105969899D01*
X57188916Y-105969181D01*
X57185215Y-105964848D01*
X57157865Y-105931314D01*
X57122537Y-105902088D01*
X57113758Y-105894099D01*
X51494259Y-100274600D01*
X45593130Y-94373472D01*
X45559104Y-94311160D01*
X45556898Y-94297381D01*
X45553843Y-94267934D01*
X88395300Y-94267934D01*
X88402055Y-94330116D01*
X88453185Y-94466505D01*
X88540539Y-94583061D01*
X88657095Y-94670415D01*
X88793484Y-94721545D01*
X88855666Y-94728300D01*
X98951934Y-94728300D01*
X99014116Y-94721545D01*
X99150505Y-94670415D01*
X99267061Y-94583061D01*
X99354415Y-94466505D01*
X99405545Y-94330116D01*
X99412300Y-94267934D01*
X99412300Y-78171666D01*
X99405545Y-78109484D01*
X99354415Y-77973095D01*
X99267061Y-77856539D01*
X99150505Y-77769185D01*
X99014116Y-77718055D01*
X98951934Y-77711300D01*
X88855666Y-77711300D01*
X88793484Y-77718055D01*
X88657095Y-77769185D01*
X88540539Y-77856539D01*
X88453185Y-77973095D01*
X88402055Y-78109484D01*
X88395300Y-78171666D01*
X88395300Y-94267934D01*
X45553843Y-94267934D01*
X45546638Y-94198492D01*
X45546637Y-94198488D01*
X45545926Y-94191634D01*
X45534953Y-94158742D01*
X45492268Y-94030802D01*
X45489950Y-94023854D01*
X45396878Y-93873452D01*
X45391696Y-93868279D01*
X45387151Y-93862545D01*
X45388824Y-93861219D01*
X45359802Y-93808175D01*
X45356900Y-93781289D01*
X45356900Y-93473906D01*
X45376902Y-93405785D01*
X45388083Y-93391898D01*
X45387996Y-93391829D01*
X45392534Y-93386083D01*
X45397705Y-93380903D01*
X45404742Y-93369487D01*
X45486675Y-93236568D01*
X45486676Y-93236566D01*
X45490515Y-93230338D01*
X45546197Y-93062461D01*
X45556900Y-92958000D01*
X45556900Y-92382134D01*
X46434500Y-92382134D01*
X46441255Y-92444316D01*
X46492385Y-92580705D01*
X46579739Y-92697261D01*
X46696295Y-92784615D01*
X46832684Y-92835745D01*
X46894866Y-92842500D01*
X56991134Y-92842500D01*
X57053316Y-92835745D01*
X57189705Y-92784615D01*
X57306261Y-92697261D01*
X57393615Y-92580705D01*
X57444745Y-92444316D01*
X57451500Y-92382134D01*
X57451500Y-76285866D01*
X57444745Y-76223684D01*
X57393615Y-76087295D01*
X57306261Y-75970739D01*
X57189705Y-75883385D01*
X57053316Y-75832255D01*
X56991134Y-75825500D01*
X55527901Y-75825500D01*
X55459780Y-75805498D01*
X55413287Y-75751842D01*
X55403183Y-75681568D01*
X55432677Y-75616988D01*
X55438806Y-75610405D01*
X58977655Y-72071556D01*
X59039967Y-72037530D01*
X59110782Y-72042595D01*
X59167618Y-72085142D01*
X59180850Y-72107198D01*
X59181134Y-72107804D01*
X59183450Y-72114746D01*
X59276522Y-72265148D01*
X59349156Y-72337655D01*
X59363109Y-72351584D01*
X59397188Y-72413866D01*
X59392185Y-72484686D01*
X59363264Y-72529775D01*
X59322002Y-72571109D01*
X59275695Y-72617497D01*
X59271855Y-72623727D01*
X59271854Y-72623728D01*
X59188438Y-72759054D01*
X59182885Y-72768062D01*
X59180581Y-72775009D01*
X59132392Y-72920296D01*
X59127203Y-72935939D01*
X59116500Y-73040400D01*
X59116500Y-73841200D01*
X59127474Y-73946966D01*
X59183450Y-74114746D01*
X59276522Y-74265148D01*
X59401697Y-74390105D01*
X59407927Y-74393945D01*
X59407928Y-74393946D01*
X59524521Y-74465815D01*
X59552262Y-74482915D01*
X59588372Y-74494892D01*
X59713611Y-74536432D01*
X59713613Y-74536432D01*
X59720139Y-74538597D01*
X59726975Y-74539297D01*
X59726978Y-74539298D01*
X59770031Y-74543709D01*
X59824600Y-74549300D01*
X60308629Y-74549300D01*
X60376750Y-74569302D01*
X60397724Y-74586205D01*
X65281531Y-79470012D01*
X65293917Y-79484424D01*
X65302450Y-79496019D01*
X65302455Y-79496024D01*
X65306793Y-79501919D01*
X65312371Y-79506658D01*
X65312374Y-79506661D01*
X65347069Y-79536136D01*
X65354585Y-79543066D01*
X65360280Y-79548761D01*
X65363162Y-79551041D01*
X65382552Y-79566382D01*
X65385956Y-79569173D01*
X65436004Y-79611692D01*
X65441586Y-79616434D01*
X65448102Y-79619762D01*
X65453151Y-79623129D01*
X65458280Y-79626296D01*
X65464017Y-79630835D01*
X65530176Y-79661756D01*
X65534070Y-79663659D01*
X65599109Y-79696870D01*
X65606217Y-79698609D01*
X65611860Y-79700708D01*
X65617623Y-79702625D01*
X65624251Y-79705723D01*
X65631413Y-79707213D01*
X65631414Y-79707213D01*
X65695713Y-79720587D01*
X65699997Y-79721557D01*
X65770911Y-79738909D01*
X65776513Y-79739257D01*
X65776516Y-79739257D01*
X65782065Y-79739601D01*
X65782063Y-79739637D01*
X65786056Y-79739876D01*
X65790248Y-79740250D01*
X65797416Y-79741741D01*
X65874821Y-79739647D01*
X65878229Y-79739601D01*
X81352829Y-79739601D01*
X81371779Y-79741034D01*
X81386014Y-79743200D01*
X81386018Y-79743200D01*
X81393248Y-79744300D01*
X81400540Y-79743707D01*
X81400543Y-79743707D01*
X81445917Y-79740016D01*
X81456132Y-79739601D01*
X81464192Y-79739601D01*
X81481579Y-79737574D01*
X81492406Y-79736312D01*
X81496781Y-79735879D01*
X81562238Y-79730555D01*
X81562241Y-79730554D01*
X81569536Y-79729961D01*
X81576500Y-79727705D01*
X81582459Y-79726514D01*
X81588314Y-79725130D01*
X81595580Y-79724283D01*
X81664226Y-79699366D01*
X81668354Y-79697949D01*
X81730835Y-79677708D01*
X81730837Y-79677707D01*
X81737798Y-79675452D01*
X81744053Y-79671656D01*
X81749527Y-79669150D01*
X81754957Y-79666431D01*
X81761836Y-79663934D01*
X81767957Y-79659921D01*
X81822875Y-79623915D01*
X81826579Y-79621578D01*
X81889006Y-79583696D01*
X81897383Y-79576298D01*
X81897407Y-79576325D01*
X81900399Y-79573672D01*
X81903632Y-79570969D01*
X81909751Y-79566957D01*
X81963027Y-79510718D01*
X81965405Y-79508276D01*
X84077931Y-77395750D01*
X84140828Y-77361599D01*
X84197424Y-77349569D01*
X84197433Y-77349566D01*
X84203888Y-77348194D01*
X84212493Y-77344363D01*
X84372322Y-77273203D01*
X84372324Y-77273202D01*
X84378352Y-77270518D01*
X84532853Y-77158266D01*
X84660640Y-77016344D01*
X84718914Y-76915410D01*
X84752823Y-76856679D01*
X84752824Y-76856678D01*
X84756127Y-76850956D01*
X84815142Y-76669328D01*
X84835104Y-76479400D01*
X84815142Y-76289472D01*
X84756127Y-76107844D01*
X84749118Y-76095703D01*
X84718914Y-76043390D01*
X84660640Y-75942456D01*
X84633868Y-75912722D01*
X84537275Y-75805445D01*
X84537271Y-75805441D01*
X84532853Y-75800534D01*
X84433757Y-75728536D01*
X84383694Y-75692163D01*
X84383693Y-75692162D01*
X84378352Y-75688282D01*
X84372324Y-75685598D01*
X84372322Y-75685597D01*
X84209919Y-75613291D01*
X84209918Y-75613291D01*
X84203888Y-75610606D01*
X84110487Y-75590753D01*
X84023544Y-75572272D01*
X84023539Y-75572272D01*
X84017087Y-75570900D01*
X83826113Y-75570900D01*
X83819661Y-75572272D01*
X83819656Y-75572272D01*
X83732713Y-75590753D01*
X83639312Y-75610606D01*
X83633282Y-75613291D01*
X83633281Y-75613291D01*
X83470878Y-75685597D01*
X83470876Y-75685598D01*
X83464848Y-75688282D01*
X83459507Y-75692162D01*
X83459506Y-75692163D01*
X83409443Y-75728536D01*
X83310347Y-75800534D01*
X83209333Y-75912722D01*
X83209332Y-75912723D01*
X83148886Y-75949962D01*
X83077902Y-75948610D01*
X83022060Y-75912722D01*
X82941675Y-75823445D01*
X82941674Y-75823444D01*
X82937253Y-75818534D01*
X82782752Y-75706282D01*
X82776724Y-75703598D01*
X82776722Y-75703597D01*
X82614319Y-75631291D01*
X82614318Y-75631291D01*
X82608288Y-75628606D01*
X82601833Y-75627234D01*
X82601824Y-75627231D01*
X82545228Y-75615201D01*
X82482331Y-75581050D01*
X77735570Y-70834289D01*
X77723184Y-70819877D01*
X77714651Y-70808282D01*
X77714646Y-70808277D01*
X77710308Y-70802382D01*
X77704730Y-70797643D01*
X77704727Y-70797640D01*
X77670032Y-70768165D01*
X77662516Y-70761235D01*
X77656821Y-70755540D01*
X77650680Y-70750682D01*
X77634549Y-70737919D01*
X77631145Y-70735128D01*
X77581097Y-70692609D01*
X77581095Y-70692608D01*
X77575515Y-70687867D01*
X77568999Y-70684539D01*
X77563950Y-70681172D01*
X77558821Y-70678005D01*
X77553084Y-70673466D01*
X77486925Y-70642545D01*
X77483025Y-70640639D01*
X77482657Y-70640451D01*
X77417992Y-70607431D01*
X77410884Y-70605692D01*
X77405241Y-70603593D01*
X77399478Y-70601676D01*
X77392850Y-70598578D01*
X77321383Y-70583713D01*
X77317099Y-70582743D01*
X77246190Y-70565392D01*
X77240588Y-70565044D01*
X77240585Y-70565044D01*
X77235036Y-70564700D01*
X77235038Y-70564664D01*
X77231045Y-70564425D01*
X77226853Y-70564051D01*
X77219685Y-70562560D01*
X77153475Y-70564351D01*
X77142279Y-70564654D01*
X77138872Y-70564700D01*
X67872237Y-70564700D01*
X67804116Y-70544698D01*
X67757623Y-70491042D01*
X67747519Y-70420768D01*
X67770560Y-70367115D01*
X67769710Y-70366591D01*
X67773256Y-70360838D01*
X67773355Y-70360608D01*
X67773551Y-70360360D01*
X67858616Y-70222357D01*
X67864763Y-70209176D01*
X67915938Y-70054890D01*
X67918805Y-70041514D01*
X67928472Y-69947162D01*
X67928800Y-69940746D01*
X67928800Y-69715715D01*
X67924325Y-69700476D01*
X67922935Y-69699271D01*
X67915252Y-69697600D01*
X66692800Y-69697600D01*
X66624679Y-69677598D01*
X66578186Y-69623942D01*
X66566800Y-69571600D01*
X66566800Y-69171485D01*
X67074800Y-69171485D01*
X67079275Y-69186724D01*
X67080665Y-69187929D01*
X67088348Y-69189600D01*
X67910684Y-69189600D01*
X67925923Y-69185125D01*
X67927128Y-69183735D01*
X67928799Y-69176052D01*
X67928799Y-68946505D01*
X67928462Y-68939986D01*
X67918543Y-68844394D01*
X67915651Y-68831000D01*
X67864212Y-68676816D01*
X67858039Y-68663638D01*
X67772737Y-68525793D01*
X67763701Y-68514392D01*
X67648971Y-68399861D01*
X67637560Y-68390849D01*
X67499557Y-68305784D01*
X67486376Y-68299637D01*
X67332090Y-68248462D01*
X67318714Y-68245595D01*
X67224362Y-68235928D01*
X67217945Y-68235600D01*
X67092915Y-68235600D01*
X67077676Y-68240075D01*
X67076471Y-68241465D01*
X67074800Y-68249148D01*
X67074800Y-69171485D01*
X66566800Y-69171485D01*
X66566800Y-68253716D01*
X66562325Y-68238477D01*
X66560935Y-68237272D01*
X66553252Y-68235601D01*
X66423705Y-68235601D01*
X66417186Y-68235938D01*
X66321594Y-68245857D01*
X66308200Y-68248749D01*
X66154016Y-68300188D01*
X66140838Y-68306361D01*
X66002993Y-68391663D01*
X65991592Y-68400699D01*
X65910370Y-68482062D01*
X65848087Y-68516141D01*
X65777267Y-68511138D01*
X65732180Y-68482217D01*
X65649288Y-68399470D01*
X65649283Y-68399466D01*
X65644103Y-68394295D01*
X65514962Y-68314691D01*
X65499768Y-68305325D01*
X65499766Y-68305324D01*
X65493538Y-68301485D01*
X65413795Y-68275036D01*
X65332189Y-68247968D01*
X65332187Y-68247968D01*
X65325661Y-68245803D01*
X65318825Y-68245103D01*
X65318822Y-68245102D01*
X65275769Y-68240691D01*
X65221200Y-68235100D01*
X64420400Y-68235100D01*
X64375124Y-68239798D01*
X64305304Y-68226934D01*
X64253522Y-68178363D01*
X64236219Y-68109507D01*
X64236777Y-68101629D01*
X64245472Y-68016762D01*
X64245800Y-68010346D01*
X64245800Y-67785315D01*
X64241325Y-67770076D01*
X64239935Y-67768871D01*
X64232252Y-67767200D01*
X63009800Y-67767200D01*
X62941679Y-67747198D01*
X62895186Y-67693542D01*
X62883800Y-67641200D01*
X62883800Y-67241085D01*
X63391800Y-67241085D01*
X63396275Y-67256324D01*
X63397665Y-67257529D01*
X63405348Y-67259200D01*
X64227684Y-67259200D01*
X64242923Y-67254725D01*
X64244128Y-67253335D01*
X64245799Y-67245652D01*
X64245799Y-67016105D01*
X64245462Y-67009586D01*
X64235543Y-66913994D01*
X64232651Y-66900600D01*
X64181212Y-66746416D01*
X64175039Y-66733238D01*
X64089737Y-66595393D01*
X64080701Y-66583992D01*
X63965971Y-66469461D01*
X63954560Y-66460449D01*
X63816557Y-66375384D01*
X63803376Y-66369237D01*
X63649090Y-66318062D01*
X63635714Y-66315195D01*
X63541362Y-66305528D01*
X63534945Y-66305200D01*
X63409915Y-66305200D01*
X63394676Y-66309675D01*
X63393471Y-66311065D01*
X63391800Y-66318748D01*
X63391800Y-67241085D01*
X62883800Y-67241085D01*
X62883800Y-66323316D01*
X62879325Y-66308077D01*
X62877935Y-66306872D01*
X62870252Y-66305201D01*
X62740705Y-66305201D01*
X62734186Y-66305538D01*
X62638594Y-66315457D01*
X62625200Y-66318349D01*
X62471016Y-66369788D01*
X62457838Y-66375961D01*
X62319993Y-66461263D01*
X62308592Y-66470299D01*
X62227370Y-66551662D01*
X62165087Y-66585741D01*
X62094267Y-66580738D01*
X62049180Y-66551817D01*
X61966288Y-66469070D01*
X61966283Y-66469066D01*
X61961103Y-66463895D01*
X61947800Y-66455695D01*
X61816768Y-66374925D01*
X61816766Y-66374924D01*
X61810538Y-66371085D01*
X61730795Y-66344636D01*
X61649189Y-66317568D01*
X61649187Y-66317568D01*
X61642661Y-66315403D01*
X61635825Y-66314703D01*
X61635822Y-66314702D01*
X61592769Y-66310291D01*
X61538200Y-66304700D01*
X60737400Y-66304700D01*
X60734154Y-66305037D01*
X60734150Y-66305037D01*
X60638492Y-66314962D01*
X60638488Y-66314963D01*
X60631634Y-66315674D01*
X60625098Y-66317855D01*
X60625096Y-66317855D01*
X60608728Y-66323316D01*
X60463854Y-66371650D01*
X60327921Y-66455768D01*
X60259473Y-66474605D01*
X60195505Y-66455883D01*
X60064168Y-66374925D01*
X60064166Y-66374924D01*
X60057938Y-66371085D01*
X59978195Y-66344636D01*
X59896589Y-66317568D01*
X59896587Y-66317568D01*
X59890061Y-66315403D01*
X59883225Y-66314703D01*
X59883222Y-66314702D01*
X59840169Y-66310291D01*
X59785600Y-66304700D01*
X58984800Y-66304700D01*
X58981554Y-66305037D01*
X58981550Y-66305037D01*
X58885892Y-66314962D01*
X58885888Y-66314963D01*
X58879034Y-66315674D01*
X58872498Y-66317855D01*
X58872496Y-66317855D01*
X58856128Y-66323316D01*
X58711254Y-66371650D01*
X58560852Y-66464722D01*
X58555679Y-66469904D01*
X58474416Y-66551309D01*
X58412134Y-66585388D01*
X58341314Y-66580385D01*
X58296225Y-66551464D01*
X58213683Y-66469066D01*
X58208503Y-66463895D01*
X58202272Y-66460054D01*
X58196527Y-66455517D01*
X58197577Y-66454187D01*
X58156092Y-66408093D01*
X58143700Y-66353603D01*
X58143700Y-64996070D01*
X58145133Y-64977120D01*
X58147299Y-64962885D01*
X58147299Y-64962881D01*
X58148399Y-64955651D01*
X58144115Y-64902982D01*
X58143700Y-64892767D01*
X58143700Y-64884707D01*
X58140409Y-64856480D01*
X58139978Y-64852121D01*
X58134653Y-64786660D01*
X58134060Y-64779364D01*
X58131805Y-64772403D01*
X58130618Y-64766463D01*
X58129229Y-64760588D01*
X58128382Y-64753319D01*
X58103464Y-64684670D01*
X58102047Y-64680542D01*
X58081807Y-64618064D01*
X58081806Y-64618062D01*
X58079551Y-64611101D01*
X58075755Y-64604846D01*
X58073249Y-64599372D01*
X58070530Y-64593942D01*
X58068033Y-64587063D01*
X58028014Y-64526024D01*
X58025667Y-64522305D01*
X57987795Y-64459893D01*
X57980397Y-64451516D01*
X57980424Y-64451492D01*
X57977771Y-64448500D01*
X57975068Y-64445267D01*
X57971056Y-64439148D01*
X57914817Y-64385872D01*
X57912375Y-64383494D01*
X56971770Y-63442889D01*
X56959384Y-63428477D01*
X56950851Y-63416882D01*
X56950846Y-63416877D01*
X56946508Y-63410982D01*
X56940930Y-63406243D01*
X56940927Y-63406240D01*
X56906232Y-63376765D01*
X56898716Y-63369835D01*
X56893021Y-63364140D01*
X56876736Y-63351256D01*
X56870749Y-63346519D01*
X56867345Y-63343728D01*
X56817297Y-63301209D01*
X56817295Y-63301208D01*
X56811715Y-63296467D01*
X56805199Y-63293139D01*
X56800150Y-63289772D01*
X56795021Y-63286605D01*
X56789284Y-63282066D01*
X56723125Y-63251145D01*
X56719225Y-63249239D01*
X56654192Y-63216031D01*
X56647084Y-63214292D01*
X56641441Y-63212193D01*
X56635678Y-63210276D01*
X56629050Y-63207178D01*
X56557583Y-63192313D01*
X56553299Y-63191343D01*
X56482390Y-63173992D01*
X56476788Y-63173644D01*
X56476785Y-63173644D01*
X56471236Y-63173300D01*
X56471238Y-63173264D01*
X56467245Y-63173025D01*
X56463053Y-63172651D01*
X56455885Y-63171160D01*
X56392120Y-63172885D01*
X56378479Y-63173254D01*
X56375072Y-63173300D01*
X51857670Y-63173300D01*
X51838720Y-63171867D01*
X51824485Y-63169701D01*
X51824481Y-63169701D01*
X51817251Y-63168601D01*
X51809959Y-63169194D01*
X51809956Y-63169194D01*
X51764582Y-63172885D01*
X51754367Y-63173300D01*
X51746307Y-63173300D01*
X51742673Y-63173724D01*
X51742667Y-63173724D01*
X51729642Y-63175243D01*
X51718080Y-63176591D01*
X51713732Y-63177021D01*
X51691659Y-63178816D01*
X51648262Y-63182346D01*
X51648259Y-63182347D01*
X51640964Y-63182940D01*
X51634000Y-63185196D01*
X51628061Y-63186383D01*
X51622190Y-63187770D01*
X51614919Y-63188618D01*
X51608043Y-63191114D01*
X51608034Y-63191116D01*
X51546302Y-63213525D01*
X51542198Y-63214935D01*
X51472701Y-63237448D01*
X51466446Y-63241244D01*
X51460987Y-63243743D01*
X51455539Y-63246471D01*
X51448663Y-63248967D01*
X51387610Y-63288995D01*
X51383937Y-63291313D01*
X51321493Y-63329205D01*
X51313117Y-63336602D01*
X51313093Y-63336575D01*
X51310099Y-63339230D01*
X51306868Y-63341932D01*
X51300748Y-63345944D01*
X51271551Y-63376765D01*
X51247472Y-63402183D01*
X51245094Y-63404625D01*
X47644089Y-67005630D01*
X47629677Y-67018016D01*
X47618082Y-67026549D01*
X47618077Y-67026554D01*
X47612182Y-67030892D01*
X47607443Y-67036470D01*
X47607440Y-67036473D01*
X47577965Y-67071168D01*
X47571035Y-67078684D01*
X47565340Y-67084379D01*
X47563060Y-67087261D01*
X47547719Y-67106651D01*
X47544928Y-67110055D01*
X47502409Y-67160103D01*
X47497667Y-67165685D01*
X47494339Y-67172201D01*
X47490972Y-67177250D01*
X47487805Y-67182379D01*
X47483266Y-67188116D01*
X47452345Y-67254275D01*
X47450442Y-67258169D01*
X47417231Y-67323208D01*
X47415492Y-67330316D01*
X47413393Y-67335959D01*
X47411476Y-67341722D01*
X47408378Y-67348350D01*
X47406888Y-67355512D01*
X47406888Y-67355513D01*
X47393514Y-67419812D01*
X47392544Y-67424096D01*
X47375192Y-67495010D01*
X47374500Y-67506164D01*
X47374464Y-67506162D01*
X47374225Y-67510155D01*
X47373851Y-67514347D01*
X47372360Y-67521515D01*
X47372558Y-67528832D01*
X47374454Y-67598921D01*
X47374500Y-67602328D01*
X47374500Y-75699500D01*
X47354498Y-75767621D01*
X47300842Y-75814114D01*
X47248500Y-75825500D01*
X46894866Y-75825500D01*
X46832684Y-75832255D01*
X46696295Y-75883385D01*
X46579739Y-75970739D01*
X46492385Y-76087295D01*
X46441255Y-76223684D01*
X46434500Y-76285866D01*
X46434500Y-92382134D01*
X45556900Y-92382134D01*
X45556900Y-92157200D01*
X45556563Y-92153950D01*
X45546638Y-92058292D01*
X45546637Y-92058288D01*
X45545926Y-92051434D01*
X45489950Y-91883654D01*
X45396878Y-91733252D01*
X45310291Y-91646816D01*
X45276212Y-91584534D01*
X45281215Y-91513714D01*
X45310136Y-91468625D01*
X45392534Y-91386083D01*
X45397705Y-91380903D01*
X45490515Y-91230338D01*
X45546197Y-91062461D01*
X45556900Y-90958000D01*
X45556900Y-90157200D01*
X45545926Y-90051434D01*
X45489950Y-89883654D01*
X45396878Y-89733252D01*
X45271703Y-89608295D01*
X45265472Y-89604454D01*
X45127368Y-89519325D01*
X45127366Y-89519324D01*
X45121138Y-89515485D01*
X44960654Y-89462255D01*
X44959789Y-89461968D01*
X44959787Y-89461968D01*
X44953261Y-89459803D01*
X44946425Y-89459103D01*
X44946422Y-89459102D01*
X44903369Y-89454691D01*
X44848800Y-89449100D01*
X43848000Y-89449100D01*
X43844754Y-89449437D01*
X43844750Y-89449437D01*
X43749092Y-89459362D01*
X43749088Y-89459363D01*
X43742234Y-89460074D01*
X43735698Y-89462255D01*
X43735696Y-89462255D01*
X43603594Y-89506328D01*
X43574454Y-89516050D01*
X43568226Y-89519904D01*
X43568224Y-89519905D01*
X43551517Y-89530244D01*
X43485214Y-89549100D01*
X33824553Y-89549100D01*
X33756432Y-89529098D01*
X33723595Y-89498489D01*
X33696538Y-89462255D01*
X33634922Y-89379741D01*
X33475072Y-89234034D01*
X33469958Y-89230906D01*
X33469955Y-89230904D01*
X33295668Y-89124311D01*
X33290554Y-89121183D01*
X33088025Y-89045259D01*
X33026583Y-89034812D01*
X32880712Y-89010008D01*
X32880709Y-89010008D01*
X32874794Y-89009002D01*
X32806345Y-89010495D01*
X32664550Y-89013589D01*
X32664548Y-89013589D01*
X32658553Y-89013720D01*
X32447105Y-89059244D01*
X32441589Y-89061591D01*
X32441586Y-89061592D01*
X32290120Y-89126041D01*
X32240787Y-89136100D01*
X30598631Y-89136100D01*
X30530510Y-89116098D01*
X30484017Y-89062442D01*
X30473913Y-88992168D01*
X30503407Y-88927588D01*
X30509536Y-88921005D01*
X32463136Y-86967405D01*
X32525448Y-86933379D01*
X32552231Y-86930500D01*
X38296734Y-86930500D01*
X38358916Y-86923745D01*
X38495305Y-86872615D01*
X38611861Y-86785261D01*
X38699215Y-86668705D01*
X38750345Y-86532316D01*
X38757100Y-86470134D01*
X38757100Y-70373866D01*
X38750345Y-70311684D01*
X38699215Y-70175295D01*
X38611861Y-70058739D01*
X38495305Y-69971385D01*
X38358916Y-69920255D01*
X38296734Y-69913500D01*
X28200466Y-69913500D01*
X28138284Y-69920255D01*
X28001895Y-69971385D01*
X27885339Y-70058739D01*
X27797985Y-70175295D01*
X27746855Y-70311684D01*
X27740100Y-70373866D01*
X27740100Y-86470134D01*
X27746855Y-86532316D01*
X27797985Y-86668705D01*
X27885339Y-86785261D01*
X28001895Y-86872615D01*
X28010304Y-86875767D01*
X28010305Y-86875768D01*
X28029104Y-86882816D01*
X28085867Y-86925458D01*
X28110566Y-86992020D01*
X28095358Y-87061369D01*
X28073967Y-87089892D01*
X24712864Y-90450995D01*
X24650552Y-90485021D01*
X24623769Y-90487900D01*
X24552666Y-90487900D01*
X24490484Y-90494655D01*
X24354095Y-90545785D01*
X24237539Y-90633139D01*
X24150185Y-90749695D01*
X24099055Y-90886084D01*
X24092300Y-90948266D01*
X24092300Y-91157333D01*
X24083125Y-91204533D01*
X24006645Y-91393829D01*
X24005525Y-91398759D01*
X23966531Y-91570394D01*
X23952865Y-91630544D01*
X23937622Y-91872813D01*
X23368000Y-91872813D01*
X23368000Y-60324000D01*
X23388002Y-60255879D01*
X23441658Y-60209386D01*
X23494000Y-60198000D01*
X99696000Y-60198000D01*
X99764121Y-60218002D01*
G37*
%TD.AperFunction*%
%TA.AperFunction,Conductor*%
G36*
X56089750Y-64710302D02*
G01*
X56110724Y-64727205D01*
X56589795Y-65206276D01*
X56623821Y-65268588D01*
X56626700Y-65295371D01*
X56626700Y-66353772D01*
X56606698Y-66421893D01*
X56572312Y-66455695D01*
X56572812Y-66456325D01*
X56567080Y-66460868D01*
X56560852Y-66464722D01*
X56435895Y-66589897D01*
X56343085Y-66740462D01*
X56287403Y-66908339D01*
X56276700Y-67012800D01*
X56276700Y-67889062D01*
X56256698Y-67957183D01*
X56203042Y-68003676D01*
X56150700Y-68015062D01*
X55361101Y-68015062D01*
X55342152Y-68013629D01*
X55341945Y-68013598D01*
X55320689Y-68010364D01*
X55313397Y-68010957D01*
X55313394Y-68010957D01*
X55268029Y-68014647D01*
X55257815Y-68015062D01*
X55249745Y-68015062D01*
X55246125Y-68015484D01*
X55246107Y-68015485D01*
X55221499Y-68018354D01*
X55217138Y-68018786D01*
X55192019Y-68020829D01*
X55151699Y-68024108D01*
X55151696Y-68024109D01*
X55144401Y-68024702D01*
X55137437Y-68026958D01*
X55131478Y-68028149D01*
X55125622Y-68029533D01*
X55118357Y-68030380D01*
X55111486Y-68032874D01*
X55111478Y-68032876D01*
X55089290Y-68040930D01*
X55018432Y-68045371D01*
X54956422Y-68010797D01*
X54922948Y-67948187D01*
X54920300Y-67922491D01*
X54920300Y-66452666D01*
X54913545Y-66390484D01*
X54862415Y-66254095D01*
X54775061Y-66137539D01*
X54658505Y-66050185D01*
X54522116Y-65999055D01*
X54459934Y-65992300D01*
X53713666Y-65992300D01*
X53651484Y-65999055D01*
X53515095Y-66050185D01*
X53398539Y-66137539D01*
X53311185Y-66254095D01*
X53260055Y-66390484D01*
X53259261Y-66397790D01*
X53224165Y-66459224D01*
X53161210Y-66492044D01*
X53090505Y-66485618D01*
X53034498Y-66441986D01*
X53014346Y-66397860D01*
X53013545Y-66390484D01*
X52962415Y-66254095D01*
X52875061Y-66137539D01*
X52758505Y-66050185D01*
X52622116Y-65999055D01*
X52559934Y-65992300D01*
X51813666Y-65992300D01*
X51751484Y-65999055D01*
X51615095Y-66050185D01*
X51498539Y-66137539D01*
X51411185Y-66254095D01*
X51360055Y-66390484D01*
X51353300Y-66452666D01*
X51353300Y-68108934D01*
X51360055Y-68171116D01*
X51411185Y-68307505D01*
X51498539Y-68424061D01*
X51615095Y-68511415D01*
X51623503Y-68514567D01*
X51631375Y-68518877D01*
X51630176Y-68521068D01*
X51676313Y-68555724D01*
X51701014Y-68622285D01*
X51685808Y-68691635D01*
X51635523Y-68741754D01*
X51627529Y-68745404D01*
X51608151Y-68756014D01*
X51506076Y-68832515D01*
X51493515Y-68845076D01*
X51417014Y-68947151D01*
X51408476Y-68962746D01*
X51363322Y-69083194D01*
X51359695Y-69098449D01*
X51354169Y-69149314D01*
X51353800Y-69156128D01*
X51353800Y-69708685D01*
X51358275Y-69723924D01*
X51359665Y-69725129D01*
X51367348Y-69726800D01*
X52177300Y-69726800D01*
X52245421Y-69746802D01*
X52291914Y-69800458D01*
X52303300Y-69852800D01*
X52303300Y-70808934D01*
X52310055Y-70871116D01*
X52361185Y-71007505D01*
X52366571Y-71014691D01*
X52415626Y-71080145D01*
X52440474Y-71146651D01*
X52440800Y-71155710D01*
X52440800Y-71250684D01*
X52445275Y-71265923D01*
X52446665Y-71267128D01*
X52454348Y-71268799D01*
X52556469Y-71268799D01*
X52563290Y-71268429D01*
X52614149Y-71262905D01*
X52631564Y-71258765D01*
X52689858Y-71258766D01*
X52694084Y-71259771D01*
X52701484Y-71262545D01*
X52763666Y-71269300D01*
X52779100Y-71269300D01*
X52847221Y-71289302D01*
X52893714Y-71342958D01*
X52905100Y-71395300D01*
X52905100Y-72373572D01*
X52885098Y-72441693D01*
X52850712Y-72475495D01*
X52851212Y-72476125D01*
X52845480Y-72480668D01*
X52839252Y-72484522D01*
X52834079Y-72489704D01*
X52752816Y-72571109D01*
X52690534Y-72605188D01*
X52619714Y-72600185D01*
X52574625Y-72571264D01*
X52492083Y-72488866D01*
X52486903Y-72483695D01*
X52473600Y-72475495D01*
X52342568Y-72394725D01*
X52342566Y-72394724D01*
X52336338Y-72390885D01*
X52218575Y-72351825D01*
X52174989Y-72337368D01*
X52174987Y-72337368D01*
X52168461Y-72335203D01*
X52161625Y-72334503D01*
X52161622Y-72334502D01*
X52118569Y-72330091D01*
X52064000Y-72324500D01*
X51263200Y-72324500D01*
X51259954Y-72324837D01*
X51259950Y-72324837D01*
X51164292Y-72334762D01*
X51164288Y-72334763D01*
X51157434Y-72335474D01*
X51150898Y-72337655D01*
X51150896Y-72337655D01*
X51108424Y-72351825D01*
X50989654Y-72391450D01*
X50839252Y-72484522D01*
X50714295Y-72609697D01*
X50621485Y-72760262D01*
X50565803Y-72928139D01*
X50555100Y-73032600D01*
X50555100Y-74033400D01*
X50555437Y-74036646D01*
X50555437Y-74036650D01*
X50564187Y-74120976D01*
X50566074Y-74139166D01*
X50568255Y-74145702D01*
X50568255Y-74145704D01*
X50588214Y-74205528D01*
X50622050Y-74306946D01*
X50715122Y-74457348D01*
X50840297Y-74582305D01*
X50846528Y-74586146D01*
X50852273Y-74590683D01*
X50851223Y-74592013D01*
X50892708Y-74638107D01*
X50905100Y-74692597D01*
X50905100Y-74812130D01*
X50903667Y-74831080D01*
X50900401Y-74852549D01*
X50900994Y-74859841D01*
X50900994Y-74859844D01*
X50904685Y-74905218D01*
X50905100Y-74915433D01*
X50905100Y-74923493D01*
X50905525Y-74927137D01*
X50908389Y-74951707D01*
X50908822Y-74956082D01*
X50914740Y-75028837D01*
X50916996Y-75035801D01*
X50918187Y-75041760D01*
X50919571Y-75047615D01*
X50920418Y-75054881D01*
X50945335Y-75123527D01*
X50946752Y-75127655D01*
X50969249Y-75197099D01*
X50973045Y-75203354D01*
X50975551Y-75208828D01*
X50978270Y-75214258D01*
X50980767Y-75221137D01*
X50984780Y-75227257D01*
X50984780Y-75227258D01*
X51020786Y-75282176D01*
X51023123Y-75285880D01*
X51061005Y-75348307D01*
X51064721Y-75352515D01*
X51064722Y-75352516D01*
X51068403Y-75356684D01*
X51068376Y-75356708D01*
X51071029Y-75359700D01*
X51073732Y-75362933D01*
X51077744Y-75369052D01*
X51083056Y-75374084D01*
X51133983Y-75422328D01*
X51136425Y-75424706D01*
X51322124Y-75610405D01*
X51356150Y-75672717D01*
X51351085Y-75743532D01*
X51308538Y-75800368D01*
X51242018Y-75825179D01*
X51233029Y-75825500D01*
X49017500Y-75825500D01*
X48949379Y-75805498D01*
X48902886Y-75751842D01*
X48891500Y-75699500D01*
X48891500Y-70805469D01*
X51353801Y-70805469D01*
X51354171Y-70812290D01*
X51359695Y-70863152D01*
X51363321Y-70878404D01*
X51408476Y-70998854D01*
X51417014Y-71014449D01*
X51493515Y-71116524D01*
X51506076Y-71129085D01*
X51608151Y-71205586D01*
X51623746Y-71214124D01*
X51744194Y-71259278D01*
X51759449Y-71262905D01*
X51810314Y-71268431D01*
X51817128Y-71268800D01*
X51914685Y-71268800D01*
X51929924Y-71264325D01*
X51931129Y-71262935D01*
X51932800Y-71255252D01*
X51932800Y-70252915D01*
X51928325Y-70237676D01*
X51926935Y-70236471D01*
X51919252Y-70234800D01*
X51371916Y-70234800D01*
X51356677Y-70239275D01*
X51355472Y-70240665D01*
X51353801Y-70248348D01*
X51353801Y-70805469D01*
X48891500Y-70805469D01*
X48891500Y-67955771D01*
X48911502Y-67887650D01*
X48928405Y-67866676D01*
X52067876Y-64727205D01*
X52130188Y-64693179D01*
X52156971Y-64690300D01*
X56021629Y-64690300D01*
X56089750Y-64710302D01*
G37*
%TD.AperFunction*%
%TD*%
M02*
