%TF.GenerationSoftware,KiCad,Pcbnew,(6.0.2)*%
%TF.CreationDate,2022-03-20T03:32:58-07:00*%
%TF.ProjectId,ChargerPOC,43686172-6765-4725-904f-432e6b696361,rev?*%
%TF.SameCoordinates,Original*%
%TF.FileFunction,Soldermask,Bot*%
%TF.FilePolarity,Negative*%
%FSLAX46Y46*%
G04 Gerber Fmt 4.6, Leading zero omitted, Abs format (unit mm)*
G04 Created by KiCad (PCBNEW (6.0.2)) date 2022-03-20 03:32:58*
%MOMM*%
%LPD*%
G01*
G04 APERTURE LIST*
G04 Aperture macros list*
%AMRoundRect*
0 Rectangle with rounded corners*
0 $1 Rounding radius*
0 $2 $3 $4 $5 $6 $7 $8 $9 X,Y pos of 4 corners*
0 Add a 4 corners polygon primitive as box body*
4,1,4,$2,$3,$4,$5,$6,$7,$8,$9,$2,$3,0*
0 Add four circle primitives for the rounded corners*
1,1,$1+$1,$2,$3*
1,1,$1+$1,$4,$5*
1,1,$1+$1,$6,$7*
1,1,$1+$1,$8,$9*
0 Add four rect primitives between the rounded corners*
20,1,$1+$1,$2,$3,$4,$5,0*
20,1,$1+$1,$4,$5,$6,$7,0*
20,1,$1+$1,$6,$7,$8,$9,0*
20,1,$1+$1,$8,$9,$2,$3,0*%
G04 Aperture macros list end*
%ADD10R,10.000000X8.000000*%
%ADD11R,1.700000X1.700000*%
%ADD12O,1.700000X1.700000*%
%ADD13R,8.000000X10.000000*%
%ADD14R,0.650000X1.560000*%
%ADD15RoundRect,0.137500X0.587500X0.137500X-0.587500X0.137500X-0.587500X-0.137500X0.587500X-0.137500X0*%
%ADD16RoundRect,0.250000X-0.450000X0.350000X-0.450000X-0.350000X0.450000X-0.350000X0.450000X0.350000X0*%
%ADD17RoundRect,0.250000X-0.350000X-0.450000X0.350000X-0.450000X0.350000X0.450000X-0.350000X0.450000X0*%
G04 APERTURE END LIST*
D10*
%TO.C,J5*%
X33248600Y-74422000D03*
X33248600Y-82422000D03*
%TD*%
%TO.C,J4*%
X51943000Y-80334000D03*
X51943000Y-88334000D03*
%TD*%
D11*
%TO.C,J3*%
X56438800Y-116763800D03*
D12*
X56438800Y-114223800D03*
X56438800Y-111683800D03*
X56438800Y-109143800D03*
%TD*%
D11*
%TO.C,J2*%
X43408600Y-114925000D03*
D12*
X43408600Y-112385000D03*
X43408600Y-109845000D03*
X43408600Y-107305000D03*
%TD*%
D10*
%TO.C,J1*%
X93903800Y-82219800D03*
X93903800Y-90219800D03*
%TD*%
D13*
%TO.C,J6*%
X84251800Y-114198400D03*
X76251800Y-114198400D03*
%TD*%
D14*
%TO.C,U9*%
X54086800Y-69980800D03*
X53136800Y-69980800D03*
X52186800Y-69980800D03*
X52186800Y-67280800D03*
X54086800Y-67280800D03*
%TD*%
D15*
%TO.C,U4*%
X37344800Y-96164400D03*
X37344800Y-98704400D03*
X31844800Y-98704400D03*
X31844800Y-96164400D03*
%TD*%
D16*
%TO.C,R23*%
X43789600Y-126346200D03*
X43789600Y-128346200D03*
%TD*%
%TO.C,R22*%
X43662600Y-122129800D03*
X43662600Y-124129800D03*
%TD*%
%TO.C,R21*%
X49707800Y-113112800D03*
X49707800Y-115112800D03*
%TD*%
%TO.C,R20*%
X49758600Y-108991400D03*
X49758600Y-110991400D03*
%TD*%
%TO.C,R19*%
X44475400Y-98787200D03*
X44475400Y-100787200D03*
%TD*%
%TO.C,R18*%
X60325000Y-71440800D03*
X60325000Y-73440800D03*
%TD*%
D17*
%TO.C,R16*%
X64820800Y-69443600D03*
X66820800Y-69443600D03*
%TD*%
%TO.C,R11*%
X51663600Y-73533000D03*
X53663600Y-73533000D03*
%TD*%
%TO.C,R10*%
X61137800Y-67513200D03*
X63137800Y-67513200D03*
%TD*%
%TO.C,R9*%
X57385200Y-67513200D03*
X59385200Y-67513200D03*
%TD*%
D16*
%TO.C,R8*%
X44348400Y-94697800D03*
X44348400Y-96697800D03*
%TD*%
%TO.C,R7*%
X44348400Y-90557600D03*
X44348400Y-92557600D03*
%TD*%
D11*
%TO.C,BT3*%
X26517600Y-125013800D03*
D12*
X26517600Y-127553800D03*
%TD*%
D11*
%TO.C,BT2*%
X26009600Y-106995200D03*
D12*
X26009600Y-109535200D03*
%TD*%
D11*
%TO.C,BT1*%
X25450800Y-91846400D03*
D12*
X25450800Y-94386400D03*
%TD*%
D15*
%TO.C,U6*%
X35947800Y-123799600D03*
X35947800Y-126339600D03*
X30447800Y-126339600D03*
X30447800Y-123799600D03*
%TD*%
%TO.C,U5*%
X36786000Y-109804200D03*
X36786000Y-112344200D03*
X31286000Y-112344200D03*
X31286000Y-109804200D03*
%TD*%
M02*
