%TF.GenerationSoftware,KiCad,Pcbnew,(5.1.10)-1*%
%TF.CreationDate,2022-03-06T22:53:43-08:00*%
%TF.ProjectId,bb2,6262322e-6b69-4636-9164-5f7063625858,rev?*%
%TF.SameCoordinates,Original*%
%TF.FileFunction,Legend,Top*%
%TF.FilePolarity,Positive*%
%FSLAX46Y46*%
G04 Gerber Fmt 4.6, Leading zero omitted, Abs format (unit mm)*
G04 Created by KiCad (PCBNEW (5.1.10)-1) date 2022-03-06 22:53:43*
%MOMM*%
%LPD*%
G01*
G04 APERTURE LIST*
%ADD10C,1.500000*%
%ADD11C,0.300000*%
%ADD12C,0.187500*%
%ADD13C,0.120000*%
%ADD14C,0.150000*%
G04 APERTURE END LIST*
D10*
X118080571Y-116634000D02*
X117509142Y-116348285D01*
X116652000Y-116348285D01*
X115794857Y-116634000D01*
X115223428Y-117205428D01*
X114937714Y-117776857D01*
X114652000Y-118919714D01*
X114652000Y-119776857D01*
X114937714Y-120919714D01*
X115223428Y-121491142D01*
X115794857Y-122062571D01*
X116652000Y-122348285D01*
X117223428Y-122348285D01*
X118080571Y-122062571D01*
X118366285Y-121776857D01*
X118366285Y-119776857D01*
X117223428Y-119776857D01*
X125223428Y-120634000D02*
X128080571Y-120634000D01*
X124652000Y-122348285D02*
X126652000Y-116348285D01*
X128652000Y-122348285D01*
X134366285Y-116348285D02*
X137794857Y-116348285D01*
X136080571Y-122348285D02*
X136080571Y-116348285D01*
X145509142Y-116348285D02*
X146652000Y-116348285D01*
X147223428Y-116634000D01*
X147794857Y-117205428D01*
X148080571Y-118348285D01*
X148080571Y-120348285D01*
X147794857Y-121491142D01*
X147223428Y-122062571D01*
X146652000Y-122348285D01*
X145509142Y-122348285D01*
X144937714Y-122062571D01*
X144366285Y-121491142D01*
X144080571Y-120348285D01*
X144080571Y-118348285D01*
X144366285Y-117205428D01*
X144937714Y-116634000D01*
X145509142Y-116348285D01*
X158652000Y-122348285D02*
X156652000Y-119491142D01*
X155223428Y-122348285D02*
X155223428Y-116348285D01*
X157509142Y-116348285D01*
X158080571Y-116634000D01*
X158366285Y-116919714D01*
X158652000Y-117491142D01*
X158652000Y-118348285D01*
X158366285Y-118919714D01*
X158080571Y-119205428D01*
X157509142Y-119491142D01*
X155223428Y-119491142D01*
D11*
X165441428Y-155618571D02*
X165441428Y-154118571D01*
X165441428Y-155547142D02*
X165298571Y-155618571D01*
X165012857Y-155618571D01*
X164870000Y-155547142D01*
X164798571Y-155475714D01*
X164727142Y-155332857D01*
X164727142Y-154904285D01*
X164798571Y-154761428D01*
X164870000Y-154690000D01*
X165012857Y-154618571D01*
X165298571Y-154618571D01*
X165441428Y-154690000D01*
X166155714Y-155618571D02*
X166155714Y-154618571D01*
X166155714Y-154118571D02*
X166084285Y-154190000D01*
X166155714Y-154261428D01*
X166227142Y-154190000D01*
X166155714Y-154118571D01*
X166155714Y-154261428D01*
X166870000Y-155618571D02*
X166870000Y-154618571D01*
X166870000Y-154904285D02*
X166941428Y-154761428D01*
X167012857Y-154690000D01*
X167155714Y-154618571D01*
X167298571Y-154618571D01*
X167584285Y-154618571D02*
X168155714Y-154618571D01*
X167798571Y-154118571D02*
X167798571Y-155404285D01*
X167870000Y-155547142D01*
X168012857Y-155618571D01*
X168155714Y-155618571D01*
X165354285Y-141418571D02*
X165854285Y-142918571D01*
X166354285Y-141418571D01*
X167068571Y-142918571D02*
X166925714Y-142847142D01*
X166854285Y-142775714D01*
X166782857Y-142632857D01*
X166782857Y-142204285D01*
X166854285Y-142061428D01*
X166925714Y-141990000D01*
X167068571Y-141918571D01*
X167282857Y-141918571D01*
X167425714Y-141990000D01*
X167497142Y-142061428D01*
X167568571Y-142204285D01*
X167568571Y-142632857D01*
X167497142Y-142775714D01*
X167425714Y-142847142D01*
X167282857Y-142918571D01*
X167068571Y-142918571D01*
X168854285Y-141918571D02*
X168854285Y-142918571D01*
X168211428Y-141918571D02*
X168211428Y-142704285D01*
X168282857Y-142847142D01*
X168425714Y-142918571D01*
X168640000Y-142918571D01*
X168782857Y-142847142D01*
X168854285Y-142775714D01*
X169354285Y-141918571D02*
X169925714Y-141918571D01*
X169568571Y-141418571D02*
X169568571Y-142704285D01*
X169640000Y-142847142D01*
X169782857Y-142918571D01*
X169925714Y-142918571D01*
X167374285Y-129988571D02*
X167874285Y-131488571D01*
X168374285Y-129988571D01*
X168874285Y-131488571D02*
X168874285Y-130488571D01*
X168874285Y-129988571D02*
X168802857Y-130060000D01*
X168874285Y-130131428D01*
X168945714Y-130060000D01*
X168874285Y-129988571D01*
X168874285Y-130131428D01*
X169588571Y-130488571D02*
X169588571Y-131488571D01*
X169588571Y-130631428D02*
X169660000Y-130560000D01*
X169802857Y-130488571D01*
X170017142Y-130488571D01*
X170160000Y-130560000D01*
X170231428Y-130702857D01*
X170231428Y-131488571D01*
D12*
X145336685Y-136907228D02*
X145229542Y-136871514D01*
X145050971Y-136871514D01*
X144979542Y-136907228D01*
X144943828Y-136942942D01*
X144908114Y-137014371D01*
X144908114Y-137085800D01*
X144943828Y-137157228D01*
X144979542Y-137192942D01*
X145050971Y-137228657D01*
X145193828Y-137264371D01*
X145265257Y-137300085D01*
X145300971Y-137335800D01*
X145336685Y-137407228D01*
X145336685Y-137478657D01*
X145300971Y-137550085D01*
X145265257Y-137585800D01*
X145193828Y-137621514D01*
X145015257Y-137621514D01*
X144908114Y-137585800D01*
X144586685Y-136871514D02*
X144586685Y-137621514D01*
X144265257Y-136871514D02*
X144265257Y-137264371D01*
X144300971Y-137335800D01*
X144372400Y-137371514D01*
X144479542Y-137371514D01*
X144550971Y-137335800D01*
X144586685Y-137300085D01*
X143800971Y-136871514D02*
X143872400Y-136907228D01*
X143908114Y-136942942D01*
X143943828Y-137014371D01*
X143943828Y-137228657D01*
X143908114Y-137300085D01*
X143872400Y-137335800D01*
X143800971Y-137371514D01*
X143693828Y-137371514D01*
X143622400Y-137335800D01*
X143586685Y-137300085D01*
X143550971Y-137228657D01*
X143550971Y-137014371D01*
X143586685Y-136942942D01*
X143622400Y-136907228D01*
X143693828Y-136871514D01*
X143800971Y-136871514D01*
X143229542Y-136871514D02*
X143229542Y-137371514D01*
X143229542Y-137228657D02*
X143193828Y-137300085D01*
X143158114Y-137335800D01*
X143086685Y-137371514D01*
X143015257Y-137371514D01*
X142872400Y-137371514D02*
X142586685Y-137371514D01*
X142765257Y-137621514D02*
X142765257Y-136978657D01*
X142729542Y-136907228D01*
X142658114Y-136871514D01*
X142586685Y-136871514D01*
X141336685Y-136871514D02*
X141586685Y-137228657D01*
X141765257Y-136871514D02*
X141765257Y-137621514D01*
X141479542Y-137621514D01*
X141408114Y-137585800D01*
X141372400Y-137550085D01*
X141336685Y-137478657D01*
X141336685Y-137371514D01*
X141372400Y-137300085D01*
X141408114Y-137264371D01*
X141479542Y-137228657D01*
X141765257Y-137228657D01*
X140622400Y-136871514D02*
X141050971Y-136871514D01*
X140836685Y-136871514D02*
X140836685Y-137621514D01*
X140908114Y-137514371D01*
X140979542Y-137442942D01*
X141050971Y-137407228D01*
X139836685Y-137371514D02*
X139550971Y-137371514D01*
X139729542Y-137621514D02*
X139729542Y-136978657D01*
X139693828Y-136907228D01*
X139622400Y-136871514D01*
X139550971Y-136871514D01*
X139193828Y-136871514D02*
X139265257Y-136907228D01*
X139300971Y-136942942D01*
X139336685Y-137014371D01*
X139336685Y-137228657D01*
X139300971Y-137300085D01*
X139265257Y-137335800D01*
X139193828Y-137371514D01*
X139086685Y-137371514D01*
X139015257Y-137335800D01*
X138979542Y-137300085D01*
X138943828Y-137228657D01*
X138943828Y-137014371D01*
X138979542Y-136942942D01*
X139015257Y-136907228D01*
X139086685Y-136871514D01*
X139193828Y-136871514D01*
X138050971Y-137264371D02*
X137800971Y-137264371D01*
X137693828Y-136871514D02*
X138050971Y-136871514D01*
X138050971Y-137621514D01*
X137693828Y-137621514D01*
X137372400Y-136871514D02*
X137372400Y-137621514D01*
X136943828Y-136871514D01*
X136943828Y-137621514D01*
D11*
X102537142Y-153562857D02*
X103037142Y-153562857D01*
X103251428Y-154348571D02*
X102537142Y-154348571D01*
X102537142Y-152848571D01*
X103251428Y-152848571D01*
X103894285Y-154348571D02*
X103894285Y-152848571D01*
X104751428Y-154348571D01*
X104751428Y-152848571D01*
X106822857Y-154348571D02*
X106680000Y-154277142D01*
X106608571Y-154205714D01*
X106537142Y-154062857D01*
X106537142Y-153634285D01*
X106608571Y-153491428D01*
X106680000Y-153420000D01*
X106822857Y-153348571D01*
X107037142Y-153348571D01*
X107180000Y-153420000D01*
X107251428Y-153491428D01*
X107322857Y-153634285D01*
X107322857Y-154062857D01*
X107251428Y-154205714D01*
X107180000Y-154277142D01*
X107037142Y-154348571D01*
X106822857Y-154348571D01*
X107965714Y-153348571D02*
X107965714Y-154848571D01*
X107965714Y-153420000D02*
X108108571Y-153348571D01*
X108394285Y-153348571D01*
X108537142Y-153420000D01*
X108608571Y-153491428D01*
X108680000Y-153634285D01*
X108680000Y-154062857D01*
X108608571Y-154205714D01*
X108537142Y-154277142D01*
X108394285Y-154348571D01*
X108108571Y-154348571D01*
X107965714Y-154277142D01*
X109108571Y-153348571D02*
X109680000Y-153348571D01*
X109322857Y-152848571D02*
X109322857Y-154134285D01*
X109394285Y-154277142D01*
X109537142Y-154348571D01*
X109680000Y-154348571D01*
X110394285Y-154348571D02*
X110251428Y-154277142D01*
X110180000Y-154205714D01*
X110108571Y-154062857D01*
X110108571Y-153634285D01*
X110180000Y-153491428D01*
X110251428Y-153420000D01*
X110394285Y-153348571D01*
X110608571Y-153348571D01*
X110751428Y-153420000D01*
X110822857Y-153491428D01*
X110894285Y-153634285D01*
X110894285Y-154062857D01*
X110822857Y-154205714D01*
X110751428Y-154277142D01*
X110608571Y-154348571D01*
X110394285Y-154348571D01*
X106869028Y-143324971D02*
X106869028Y-141824971D01*
X106869028Y-143253542D02*
X106726171Y-143324971D01*
X106440457Y-143324971D01*
X106297600Y-143253542D01*
X106226171Y-143182114D01*
X106154742Y-143039257D01*
X106154742Y-142610685D01*
X106226171Y-142467828D01*
X106297600Y-142396400D01*
X106440457Y-142324971D01*
X106726171Y-142324971D01*
X106869028Y-142396400D01*
X107583314Y-143324971D02*
X107583314Y-142324971D01*
X107583314Y-141824971D02*
X107511885Y-141896400D01*
X107583314Y-141967828D01*
X107654742Y-141896400D01*
X107583314Y-141824971D01*
X107583314Y-141967828D01*
X108297600Y-143324971D02*
X108297600Y-142324971D01*
X108297600Y-142610685D02*
X108369028Y-142467828D01*
X108440457Y-142396400D01*
X108583314Y-142324971D01*
X108726171Y-142324971D01*
X109011885Y-142324971D02*
X109583314Y-142324971D01*
X109226171Y-141824971D02*
X109226171Y-143110685D01*
X109297600Y-143253542D01*
X109440457Y-143324971D01*
X109583314Y-143324971D01*
X104632857Y-130218571D02*
X103918571Y-130218571D01*
X103918571Y-128718571D01*
X105347142Y-130218571D02*
X105204285Y-130147142D01*
X105132857Y-130075714D01*
X105061428Y-129932857D01*
X105061428Y-129504285D01*
X105132857Y-129361428D01*
X105204285Y-129290000D01*
X105347142Y-129218571D01*
X105561428Y-129218571D01*
X105704285Y-129290000D01*
X105775714Y-129361428D01*
X105847142Y-129504285D01*
X105847142Y-129932857D01*
X105775714Y-130075714D01*
X105704285Y-130147142D01*
X105561428Y-130218571D01*
X105347142Y-130218571D01*
X106347142Y-129218571D02*
X106632857Y-130218571D01*
X106918571Y-129504285D01*
X107204285Y-130218571D01*
X107490000Y-129218571D01*
X108061428Y-130218571D02*
X108061428Y-128718571D01*
X108561428Y-129790000D01*
X109061428Y-128718571D01*
X109061428Y-130218571D01*
X110061428Y-128718571D02*
X110347142Y-128718571D01*
X110490000Y-128790000D01*
X110632857Y-128932857D01*
X110704285Y-129218571D01*
X110704285Y-129718571D01*
X110632857Y-130004285D01*
X110490000Y-130147142D01*
X110347142Y-130218571D01*
X110061428Y-130218571D01*
X109918571Y-130147142D01*
X109775714Y-130004285D01*
X109704285Y-129718571D01*
X109704285Y-129218571D01*
X109775714Y-128932857D01*
X109918571Y-128790000D01*
X110061428Y-128718571D01*
X111275714Y-130147142D02*
X111490000Y-130218571D01*
X111847142Y-130218571D01*
X111990000Y-130147142D01*
X112061428Y-130075714D01*
X112132857Y-129932857D01*
X112132857Y-129790000D01*
X112061428Y-129647142D01*
X111990000Y-129575714D01*
X111847142Y-129504285D01*
X111561428Y-129432857D01*
X111418571Y-129361428D01*
X111347142Y-129290000D01*
X111275714Y-129147142D01*
X111275714Y-129004285D01*
X111347142Y-128861428D01*
X111418571Y-128790000D01*
X111561428Y-128718571D01*
X111918571Y-128718571D01*
X112132857Y-128790000D01*
X113561428Y-128790000D02*
X113418571Y-128718571D01*
X113204285Y-128718571D01*
X112990000Y-128790000D01*
X112847142Y-128932857D01*
X112775714Y-129075714D01*
X112704285Y-129361428D01*
X112704285Y-129575714D01*
X112775714Y-129861428D01*
X112847142Y-130004285D01*
X112990000Y-130147142D01*
X113204285Y-130218571D01*
X113347142Y-130218571D01*
X113561428Y-130147142D01*
X113632857Y-130075714D01*
X113632857Y-129575714D01*
X113347142Y-129575714D01*
X114918571Y-130218571D02*
X114918571Y-129432857D01*
X114847142Y-129290000D01*
X114704285Y-129218571D01*
X114418571Y-129218571D01*
X114275714Y-129290000D01*
X114918571Y-130147142D02*
X114775714Y-130218571D01*
X114418571Y-130218571D01*
X114275714Y-130147142D01*
X114204285Y-130004285D01*
X114204285Y-129861428D01*
X114275714Y-129718571D01*
X114418571Y-129647142D01*
X114775714Y-129647142D01*
X114918571Y-129575714D01*
X115418571Y-129218571D02*
X115990000Y-129218571D01*
X115632857Y-128718571D02*
X115632857Y-130004285D01*
X115704285Y-130147142D01*
X115847142Y-130218571D01*
X115990000Y-130218571D01*
X117061428Y-130147142D02*
X116918571Y-130218571D01*
X116632857Y-130218571D01*
X116490000Y-130147142D01*
X116418571Y-130004285D01*
X116418571Y-129432857D01*
X116490000Y-129290000D01*
X116632857Y-129218571D01*
X116918571Y-129218571D01*
X117061428Y-129290000D01*
X117132857Y-129432857D01*
X117132857Y-129575714D01*
X116418571Y-129718571D01*
X105023600Y-119422171D02*
X105309314Y-119422171D01*
X105452171Y-119493600D01*
X105595028Y-119636457D01*
X105666457Y-119922171D01*
X105666457Y-120422171D01*
X105595028Y-120707885D01*
X105452171Y-120850742D01*
X105309314Y-120922171D01*
X105023600Y-120922171D01*
X104880742Y-120850742D01*
X104737885Y-120707885D01*
X104666457Y-120422171D01*
X104666457Y-119922171D01*
X104737885Y-119636457D01*
X104880742Y-119493600D01*
X105023600Y-119422171D01*
X106952171Y-119922171D02*
X106952171Y-120922171D01*
X106309314Y-119922171D02*
X106309314Y-120707885D01*
X106380742Y-120850742D01*
X106523600Y-120922171D01*
X106737885Y-120922171D01*
X106880742Y-120850742D01*
X106952171Y-120779314D01*
X107452171Y-119922171D02*
X108023600Y-119922171D01*
X107666457Y-119422171D02*
X107666457Y-120707885D01*
X107737885Y-120850742D01*
X107880742Y-120922171D01*
X108023600Y-120922171D01*
X102914285Y-96968571D02*
X103414285Y-98468571D01*
X103914285Y-96968571D01*
X105057142Y-98397142D02*
X104914285Y-98468571D01*
X104628571Y-98468571D01*
X104485714Y-98397142D01*
X104414285Y-98325714D01*
X104342857Y-98182857D01*
X104342857Y-97754285D01*
X104414285Y-97611428D01*
X104485714Y-97540000D01*
X104628571Y-97468571D01*
X104914285Y-97468571D01*
X105057142Y-97540000D01*
X106342857Y-98397142D02*
X106200000Y-98468571D01*
X105914285Y-98468571D01*
X105771428Y-98397142D01*
X105700000Y-98325714D01*
X105628571Y-98182857D01*
X105628571Y-97754285D01*
X105700000Y-97611428D01*
X105771428Y-97540000D01*
X105914285Y-97468571D01*
X106200000Y-97468571D01*
X106342857Y-97540000D01*
X106985714Y-98468571D02*
X106985714Y-96968571D01*
X107342857Y-96968571D01*
X107557142Y-97040000D01*
X107700000Y-97182857D01*
X107771428Y-97325714D01*
X107842857Y-97611428D01*
X107842857Y-97825714D01*
X107771428Y-98111428D01*
X107700000Y-98254285D01*
X107557142Y-98397142D01*
X107342857Y-98468571D01*
X106985714Y-98468571D01*
X108485714Y-98468571D02*
X108485714Y-97468571D01*
X108485714Y-97754285D02*
X108557142Y-97611428D01*
X108628571Y-97540000D01*
X108771428Y-97468571D01*
X108914285Y-97468571D01*
X109414285Y-98468571D02*
X109414285Y-97468571D01*
X109414285Y-96968571D02*
X109342857Y-97040000D01*
X109414285Y-97111428D01*
X109485714Y-97040000D01*
X109414285Y-96968571D01*
X109414285Y-97111428D01*
X109985714Y-97468571D02*
X110342857Y-98468571D01*
X110700000Y-97468571D01*
X111842857Y-98397142D02*
X111700000Y-98468571D01*
X111414285Y-98468571D01*
X111271428Y-98397142D01*
X111200000Y-98254285D01*
X111200000Y-97682857D01*
X111271428Y-97540000D01*
X111414285Y-97468571D01*
X111700000Y-97468571D01*
X111842857Y-97540000D01*
X111914285Y-97682857D01*
X111914285Y-97825714D01*
X111200000Y-97968571D01*
X112557142Y-98468571D02*
X112557142Y-97468571D01*
X112557142Y-97754285D02*
X112628571Y-97611428D01*
X112700000Y-97540000D01*
X112842857Y-97468571D01*
X112985714Y-97468571D01*
X103384742Y-110000171D02*
X103384742Y-108500171D01*
X103956171Y-108500171D01*
X104099028Y-108571600D01*
X104170457Y-108643028D01*
X104241885Y-108785885D01*
X104241885Y-109000171D01*
X104170457Y-109143028D01*
X104099028Y-109214457D01*
X103956171Y-109285885D01*
X103384742Y-109285885D01*
X104741885Y-108500171D02*
X105099028Y-110000171D01*
X105384742Y-108928742D01*
X105670457Y-110000171D01*
X106027600Y-108500171D01*
X106599028Y-110000171D02*
X106599028Y-108500171D01*
X107099028Y-109571600D01*
X107599028Y-108500171D01*
X107599028Y-110000171D01*
X108313314Y-110000171D02*
X108313314Y-108500171D01*
X109027600Y-109000171D02*
X109027600Y-110000171D01*
X109027600Y-109143028D02*
X109099028Y-109071600D01*
X109241885Y-109000171D01*
X109456171Y-109000171D01*
X109599028Y-109071600D01*
X109670457Y-109214457D01*
X109670457Y-110000171D01*
X105351485Y-86097371D02*
X105851485Y-87597371D01*
X106351485Y-86097371D01*
X107494342Y-87525942D02*
X107351485Y-87597371D01*
X107065771Y-87597371D01*
X106922914Y-87525942D01*
X106851485Y-87454514D01*
X106780057Y-87311657D01*
X106780057Y-86883085D01*
X106851485Y-86740228D01*
X106922914Y-86668800D01*
X107065771Y-86597371D01*
X107351485Y-86597371D01*
X107494342Y-86668800D01*
X108780057Y-87525942D02*
X108637200Y-87597371D01*
X108351485Y-87597371D01*
X108208628Y-87525942D01*
X108137200Y-87454514D01*
X108065771Y-87311657D01*
X108065771Y-86883085D01*
X108137200Y-86740228D01*
X108208628Y-86668800D01*
X108351485Y-86597371D01*
X108637200Y-86597371D01*
X108780057Y-86668800D01*
D13*
%TO.C,R2*%
X131802200Y-146902664D02*
X131802200Y-146448536D01*
X133272200Y-146902664D02*
X133272200Y-146448536D01*
%TO.C,J2*%
X115510000Y-96002800D02*
X116840000Y-96002800D01*
X115510000Y-97332800D02*
X115510000Y-96002800D01*
X115510000Y-98602800D02*
X118170000Y-98602800D01*
X118170000Y-98602800D02*
X118170000Y-113902800D01*
X115510000Y-98602800D02*
X115510000Y-113902800D01*
X115510000Y-113902800D02*
X118170000Y-113902800D01*
%TO.C,U3*%
X140028600Y-111331600D02*
X140028600Y-112796600D01*
X139673600Y-111331600D02*
X140028600Y-111331600D01*
X139673600Y-109321600D02*
X139673600Y-111331600D01*
X139673600Y-107311600D02*
X140028600Y-107311600D01*
X139673600Y-109321600D02*
X139673600Y-107311600D01*
X143993600Y-111331600D02*
X143638600Y-111331600D01*
X143993600Y-109321600D02*
X143993600Y-111331600D01*
X143993600Y-107311600D02*
X143638600Y-107311600D01*
X143993600Y-109321600D02*
X143993600Y-107311600D01*
%TO.C,R4*%
X131478264Y-111025000D02*
X131024136Y-111025000D01*
X131478264Y-112495000D02*
X131024136Y-112495000D01*
%TO.C,U2*%
X148082000Y-104165400D02*
X148082000Y-96799400D01*
X148082000Y-96799400D02*
X152908000Y-96799400D01*
X152908000Y-96799400D02*
X152908000Y-104165400D01*
X152908000Y-104165400D02*
X148082000Y-104165400D01*
%TO.C,D2*%
X138005600Y-98923600D02*
X133705600Y-98923600D01*
X138005600Y-100923600D02*
X138005600Y-98923600D01*
X133705600Y-100923600D02*
X138005600Y-100923600D01*
%TO.C,D1*%
X126626400Y-98822000D02*
X122326400Y-98822000D01*
X126626400Y-100822000D02*
X126626400Y-98822000D01*
X122326400Y-100822000D02*
X126626400Y-100822000D01*
%TO.C,C7*%
X140082600Y-100801448D02*
X140082600Y-101323952D01*
X141552600Y-100801448D02*
X141552600Y-101323952D01*
%TO.C,C6*%
X129211400Y-100707648D02*
X129211400Y-101230152D01*
X130681400Y-100707648D02*
X130681400Y-101230152D01*
D14*
%TO.C,U1*%
X134858000Y-140784400D02*
X132858000Y-140784400D01*
X133858000Y-142984400D02*
X132858000Y-142984400D01*
D13*
%TO.C,R3*%
X130545064Y-144372000D02*
X130090936Y-144372000D01*
X130545064Y-142902000D02*
X130090936Y-142902000D01*
%TO.C,R1*%
X138301400Y-139946136D02*
X138301400Y-140400264D01*
X136831400Y-139946136D02*
X136831400Y-140400264D01*
%TO.C,L1*%
X128296000Y-141056800D02*
X118296000Y-141056800D01*
X128296000Y-132856800D02*
X118296000Y-132856800D01*
%TO.C,J1*%
X139944800Y-149716800D02*
X142604800Y-149716800D01*
X139944800Y-144576800D02*
X139944800Y-149716800D01*
X142604800Y-144576800D02*
X142604800Y-149716800D01*
X139944800Y-144576800D02*
X142604800Y-144576800D01*
X139944800Y-143306800D02*
X139944800Y-141976800D01*
X139944800Y-141976800D02*
X141274800Y-141976800D01*
%TO.C,C5*%
X117578200Y-145121352D02*
X117578200Y-144598848D01*
X119048200Y-145121352D02*
X119048200Y-144598848D01*
%TO.C,C4*%
X121743800Y-145222952D02*
X121743800Y-144700448D01*
X123213800Y-145222952D02*
X123213800Y-144700448D01*
%TO.C,C3*%
X123163000Y-148807448D02*
X123163000Y-149329952D01*
X121693000Y-148807448D02*
X121693000Y-149329952D01*
%TO.C,C2*%
X118809600Y-148730048D02*
X118809600Y-150152552D01*
X116089600Y-148730048D02*
X116089600Y-150152552D01*
%TO.C,C1*%
X126366600Y-146899352D02*
X126366600Y-146376848D01*
X127836600Y-146899352D02*
X127836600Y-146376848D01*
%TO.C,R2*%
D14*
X131339580Y-146842266D02*
X130863390Y-147175600D01*
X131339580Y-147413695D02*
X130339580Y-147413695D01*
X130339580Y-147032742D01*
X130387200Y-146937504D01*
X130434819Y-146889885D01*
X130530057Y-146842266D01*
X130672914Y-146842266D01*
X130768152Y-146889885D01*
X130815771Y-146937504D01*
X130863390Y-147032742D01*
X130863390Y-147413695D01*
X130434819Y-146461314D02*
X130387200Y-146413695D01*
X130339580Y-146318457D01*
X130339580Y-146080361D01*
X130387200Y-145985123D01*
X130434819Y-145937504D01*
X130530057Y-145889885D01*
X130625295Y-145889885D01*
X130768152Y-145937504D01*
X131339580Y-146508933D01*
X131339580Y-145889885D01*
%TO.C,J12*%
X83918476Y-156309580D02*
X83918476Y-157023866D01*
X83870857Y-157166723D01*
X83775619Y-157261961D01*
X83632761Y-157309580D01*
X83537523Y-157309580D01*
X84918476Y-157309580D02*
X84347047Y-157309580D01*
X84632761Y-157309580D02*
X84632761Y-156309580D01*
X84537523Y-156452438D01*
X84442285Y-156547676D01*
X84347047Y-156595295D01*
X85299428Y-156404819D02*
X85347047Y-156357200D01*
X85442285Y-156309580D01*
X85680380Y-156309580D01*
X85775619Y-156357200D01*
X85823238Y-156404819D01*
X85870857Y-156500057D01*
X85870857Y-156595295D01*
X85823238Y-156738152D01*
X85251809Y-157309580D01*
X85870857Y-157309580D01*
%TO.C,J11*%
X100416876Y-137489180D02*
X100416876Y-138203466D01*
X100369257Y-138346323D01*
X100274019Y-138441561D01*
X100131161Y-138489180D01*
X100035923Y-138489180D01*
X101416876Y-138489180D02*
X100845447Y-138489180D01*
X101131161Y-138489180D02*
X101131161Y-137489180D01*
X101035923Y-137632038D01*
X100940685Y-137727276D01*
X100845447Y-137774895D01*
X102369257Y-138489180D02*
X101797828Y-138489180D01*
X102083542Y-138489180D02*
X102083542Y-137489180D01*
X101988304Y-137632038D01*
X101893066Y-137727276D01*
X101797828Y-137774895D01*
%TO.C,J10*%
X83867676Y-134109980D02*
X83867676Y-134824266D01*
X83820057Y-134967123D01*
X83724819Y-135062361D01*
X83581961Y-135109980D01*
X83486723Y-135109980D01*
X84867676Y-135109980D02*
X84296247Y-135109980D01*
X84581961Y-135109980D02*
X84581961Y-134109980D01*
X84486723Y-134252838D01*
X84391485Y-134348076D01*
X84296247Y-134395695D01*
X85486723Y-134109980D02*
X85581961Y-134109980D01*
X85677200Y-134157600D01*
X85724819Y-134205219D01*
X85772438Y-134300457D01*
X85820057Y-134490933D01*
X85820057Y-134729028D01*
X85772438Y-134919504D01*
X85724819Y-135014742D01*
X85677200Y-135062361D01*
X85581961Y-135109980D01*
X85486723Y-135109980D01*
X85391485Y-135062361D01*
X85343866Y-135014742D01*
X85296247Y-134919504D01*
X85248628Y-134729028D01*
X85248628Y-134490933D01*
X85296247Y-134300457D01*
X85343866Y-134205219D01*
X85391485Y-134157600D01*
X85486723Y-134109980D01*
%TO.C,J9*%
X84445466Y-123137180D02*
X84445466Y-123851466D01*
X84397847Y-123994323D01*
X84302609Y-124089561D01*
X84159752Y-124137180D01*
X84064514Y-124137180D01*
X84969276Y-124137180D02*
X85159752Y-124137180D01*
X85254990Y-124089561D01*
X85302609Y-124041942D01*
X85397847Y-123899085D01*
X85445466Y-123708609D01*
X85445466Y-123327657D01*
X85397847Y-123232419D01*
X85350228Y-123184800D01*
X85254990Y-123137180D01*
X85064514Y-123137180D01*
X84969276Y-123184800D01*
X84921657Y-123232419D01*
X84874038Y-123327657D01*
X84874038Y-123565752D01*
X84921657Y-123660990D01*
X84969276Y-123708609D01*
X85064514Y-123756228D01*
X85254990Y-123756228D01*
X85350228Y-123708609D01*
X85397847Y-123660990D01*
X85445466Y-123565752D01*
%TO.C,J8*%
X84140666Y-112062780D02*
X84140666Y-112777066D01*
X84093047Y-112919923D01*
X83997809Y-113015161D01*
X83854952Y-113062780D01*
X83759714Y-113062780D01*
X84759714Y-112491352D02*
X84664476Y-112443733D01*
X84616857Y-112396114D01*
X84569238Y-112300876D01*
X84569238Y-112253257D01*
X84616857Y-112158019D01*
X84664476Y-112110400D01*
X84759714Y-112062780D01*
X84950190Y-112062780D01*
X85045428Y-112110400D01*
X85093047Y-112158019D01*
X85140666Y-112253257D01*
X85140666Y-112300876D01*
X85093047Y-112396114D01*
X85045428Y-112443733D01*
X84950190Y-112491352D01*
X84759714Y-112491352D01*
X84664476Y-112538971D01*
X84616857Y-112586590D01*
X84569238Y-112681828D01*
X84569238Y-112872304D01*
X84616857Y-112967542D01*
X84664476Y-113015161D01*
X84759714Y-113062780D01*
X84950190Y-113062780D01*
X85045428Y-113015161D01*
X85093047Y-112967542D01*
X85140666Y-112872304D01*
X85140666Y-112681828D01*
X85093047Y-112586590D01*
X85045428Y-112538971D01*
X84950190Y-112491352D01*
%TO.C,J7*%
X84242266Y-100988380D02*
X84242266Y-101702666D01*
X84194647Y-101845523D01*
X84099409Y-101940761D01*
X83956552Y-101988380D01*
X83861314Y-101988380D01*
X84623219Y-100988380D02*
X85289885Y-100988380D01*
X84861314Y-101988380D01*
%TO.C,J6*%
X84242266Y-90117180D02*
X84242266Y-90831466D01*
X84194647Y-90974323D01*
X84099409Y-91069561D01*
X83956552Y-91117180D01*
X83861314Y-91117180D01*
X85147028Y-90117180D02*
X84956552Y-90117180D01*
X84861314Y-90164800D01*
X84813695Y-90212419D01*
X84718457Y-90355276D01*
X84670838Y-90545752D01*
X84670838Y-90926704D01*
X84718457Y-91021942D01*
X84766076Y-91069561D01*
X84861314Y-91117180D01*
X85051790Y-91117180D01*
X85147028Y-91069561D01*
X85194647Y-91021942D01*
X85242266Y-90926704D01*
X85242266Y-90688609D01*
X85194647Y-90593371D01*
X85147028Y-90545752D01*
X85051790Y-90498133D01*
X84861314Y-90498133D01*
X84766076Y-90545752D01*
X84718457Y-90593371D01*
X84670838Y-90688609D01*
%TO.C,J5*%
X162893466Y-125652780D02*
X162893466Y-126367066D01*
X162845847Y-126509923D01*
X162750609Y-126605161D01*
X162607752Y-126652780D01*
X162512514Y-126652780D01*
X163845847Y-125652780D02*
X163369657Y-125652780D01*
X163322038Y-126128971D01*
X163369657Y-126081352D01*
X163464895Y-126033733D01*
X163702990Y-126033733D01*
X163798228Y-126081352D01*
X163845847Y-126128971D01*
X163893466Y-126224209D01*
X163893466Y-126462304D01*
X163845847Y-126557542D01*
X163798228Y-126605161D01*
X163702990Y-126652780D01*
X163464895Y-126652780D01*
X163369657Y-126605161D01*
X163322038Y-126557542D01*
%TO.C,J4*%
X162893466Y-137235180D02*
X162893466Y-137949466D01*
X162845847Y-138092323D01*
X162750609Y-138187561D01*
X162607752Y-138235180D01*
X162512514Y-138235180D01*
X163798228Y-137568514D02*
X163798228Y-138235180D01*
X163560133Y-137187561D02*
X163322038Y-137901847D01*
X163941085Y-137901847D01*
%TO.C,J3*%
X162741066Y-149071580D02*
X162741066Y-149785866D01*
X162693447Y-149928723D01*
X162598209Y-150023961D01*
X162455352Y-150071580D01*
X162360114Y-150071580D01*
X163122019Y-149071580D02*
X163741066Y-149071580D01*
X163407733Y-149452533D01*
X163550590Y-149452533D01*
X163645828Y-149500152D01*
X163693447Y-149547771D01*
X163741066Y-149643009D01*
X163741066Y-149881104D01*
X163693447Y-149976342D01*
X163645828Y-150023961D01*
X163550590Y-150071580D01*
X163264876Y-150071580D01*
X163169638Y-150023961D01*
X163122019Y-149976342D01*
%TO.C,J2*%
X116506666Y-94455180D02*
X116506666Y-95169466D01*
X116459047Y-95312323D01*
X116363809Y-95407561D01*
X116220952Y-95455180D01*
X116125714Y-95455180D01*
X116935238Y-94550419D02*
X116982857Y-94502800D01*
X117078095Y-94455180D01*
X117316190Y-94455180D01*
X117411428Y-94502800D01*
X117459047Y-94550419D01*
X117506666Y-94645657D01*
X117506666Y-94740895D01*
X117459047Y-94883752D01*
X116887619Y-95455180D01*
X117506666Y-95455180D01*
%TO.C,U3*%
X138285980Y-110083504D02*
X139095504Y-110083504D01*
X139190742Y-110035885D01*
X139238361Y-109988266D01*
X139285980Y-109893028D01*
X139285980Y-109702552D01*
X139238361Y-109607314D01*
X139190742Y-109559695D01*
X139095504Y-109512076D01*
X138285980Y-109512076D01*
X138285980Y-109131123D02*
X138285980Y-108512076D01*
X138666933Y-108845409D01*
X138666933Y-108702552D01*
X138714552Y-108607314D01*
X138762171Y-108559695D01*
X138857409Y-108512076D01*
X139095504Y-108512076D01*
X139190742Y-108559695D01*
X139238361Y-108607314D01*
X139285980Y-108702552D01*
X139285980Y-108988266D01*
X139238361Y-109083504D01*
X139190742Y-109131123D01*
%TO.C,R4*%
X131084533Y-113862380D02*
X130751200Y-113386190D01*
X130513104Y-113862380D02*
X130513104Y-112862380D01*
X130894057Y-112862380D01*
X130989295Y-112910000D01*
X131036914Y-112957619D01*
X131084533Y-113052857D01*
X131084533Y-113195714D01*
X131036914Y-113290952D01*
X130989295Y-113338571D01*
X130894057Y-113386190D01*
X130513104Y-113386190D01*
X131941676Y-113195714D02*
X131941676Y-113862380D01*
X131703580Y-112814761D02*
X131465485Y-113529047D01*
X132084533Y-113529047D01*
%TO.C,U2*%
X149733095Y-105395780D02*
X149733095Y-106205304D01*
X149780714Y-106300542D01*
X149828333Y-106348161D01*
X149923571Y-106395780D01*
X150114047Y-106395780D01*
X150209285Y-106348161D01*
X150256904Y-106300542D01*
X150304523Y-106205304D01*
X150304523Y-105395780D01*
X150733095Y-105491019D02*
X150780714Y-105443400D01*
X150875952Y-105395780D01*
X151114047Y-105395780D01*
X151209285Y-105443400D01*
X151256904Y-105491019D01*
X151304523Y-105586257D01*
X151304523Y-105681495D01*
X151256904Y-105824352D01*
X150685476Y-106395780D01*
X151304523Y-106395780D01*
%TO.C,D2*%
X134717504Y-102375980D02*
X134717504Y-101375980D01*
X134955600Y-101375980D01*
X135098457Y-101423600D01*
X135193695Y-101518838D01*
X135241314Y-101614076D01*
X135288933Y-101804552D01*
X135288933Y-101947409D01*
X135241314Y-102137885D01*
X135193695Y-102233123D01*
X135098457Y-102328361D01*
X134955600Y-102375980D01*
X134717504Y-102375980D01*
X135669885Y-101471219D02*
X135717504Y-101423600D01*
X135812742Y-101375980D01*
X136050838Y-101375980D01*
X136146076Y-101423600D01*
X136193695Y-101471219D01*
X136241314Y-101566457D01*
X136241314Y-101661695D01*
X136193695Y-101804552D01*
X135622266Y-102375980D01*
X136241314Y-102375980D01*
%TO.C,D1*%
X123338304Y-102274380D02*
X123338304Y-101274380D01*
X123576400Y-101274380D01*
X123719257Y-101322000D01*
X123814495Y-101417238D01*
X123862114Y-101512476D01*
X123909733Y-101702952D01*
X123909733Y-101845809D01*
X123862114Y-102036285D01*
X123814495Y-102131523D01*
X123719257Y-102226761D01*
X123576400Y-102274380D01*
X123338304Y-102274380D01*
X124862114Y-102274380D02*
X124290685Y-102274380D01*
X124576400Y-102274380D02*
X124576400Y-101274380D01*
X124481161Y-101417238D01*
X124385923Y-101512476D01*
X124290685Y-101560095D01*
%TO.C,C7*%
X142854742Y-101229366D02*
X142902361Y-101276985D01*
X142949980Y-101419842D01*
X142949980Y-101515080D01*
X142902361Y-101657938D01*
X142807123Y-101753176D01*
X142711885Y-101800795D01*
X142521409Y-101848414D01*
X142378552Y-101848414D01*
X142188076Y-101800795D01*
X142092838Y-101753176D01*
X141997600Y-101657938D01*
X141949980Y-101515080D01*
X141949980Y-101419842D01*
X141997600Y-101276985D01*
X142045219Y-101229366D01*
X141949980Y-100896033D02*
X141949980Y-100229366D01*
X142949980Y-100657938D01*
%TO.C,C6*%
X131983542Y-101135566D02*
X132031161Y-101183185D01*
X132078780Y-101326042D01*
X132078780Y-101421280D01*
X132031161Y-101564138D01*
X131935923Y-101659376D01*
X131840685Y-101706995D01*
X131650209Y-101754614D01*
X131507352Y-101754614D01*
X131316876Y-101706995D01*
X131221638Y-101659376D01*
X131126400Y-101564138D01*
X131078780Y-101421280D01*
X131078780Y-101326042D01*
X131126400Y-101183185D01*
X131174019Y-101135566D01*
X131078780Y-100278423D02*
X131078780Y-100468900D01*
X131126400Y-100564138D01*
X131174019Y-100611757D01*
X131316876Y-100706995D01*
X131507352Y-100754614D01*
X131888304Y-100754614D01*
X131983542Y-100706995D01*
X132031161Y-100659376D01*
X132078780Y-100564138D01*
X132078780Y-100373661D01*
X132031161Y-100278423D01*
X131983542Y-100230804D01*
X131888304Y-100183185D01*
X131650209Y-100183185D01*
X131554971Y-100230804D01*
X131507352Y-100278423D01*
X131459733Y-100373661D01*
X131459733Y-100564138D01*
X131507352Y-100659376D01*
X131554971Y-100706995D01*
X131650209Y-100754614D01*
%TO.C,U1*%
X133096095Y-143361780D02*
X133096095Y-144171304D01*
X133143714Y-144266542D01*
X133191333Y-144314161D01*
X133286571Y-144361780D01*
X133477047Y-144361780D01*
X133572285Y-144314161D01*
X133619904Y-144266542D01*
X133667523Y-144171304D01*
X133667523Y-143361780D01*
X134667523Y-144361780D02*
X134096095Y-144361780D01*
X134381809Y-144361780D02*
X134381809Y-143361780D01*
X134286571Y-143504638D01*
X134191333Y-143599876D01*
X134096095Y-143647495D01*
%TO.C,R3*%
X130151333Y-145739380D02*
X129818000Y-145263190D01*
X129579904Y-145739380D02*
X129579904Y-144739380D01*
X129960857Y-144739380D01*
X130056095Y-144787000D01*
X130103714Y-144834619D01*
X130151333Y-144929857D01*
X130151333Y-145072714D01*
X130103714Y-145167952D01*
X130056095Y-145215571D01*
X129960857Y-145263190D01*
X129579904Y-145263190D01*
X130484666Y-144739380D02*
X131103714Y-144739380D01*
X130770380Y-145120333D01*
X130913238Y-145120333D01*
X131008476Y-145167952D01*
X131056095Y-145215571D01*
X131103714Y-145310809D01*
X131103714Y-145548904D01*
X131056095Y-145644142D01*
X131008476Y-145691761D01*
X130913238Y-145739380D01*
X130627523Y-145739380D01*
X130532285Y-145691761D01*
X130484666Y-145644142D01*
%TO.C,R1*%
X139668780Y-140339866D02*
X139192590Y-140673200D01*
X139668780Y-140911295D02*
X138668780Y-140911295D01*
X138668780Y-140530342D01*
X138716400Y-140435104D01*
X138764019Y-140387485D01*
X138859257Y-140339866D01*
X139002114Y-140339866D01*
X139097352Y-140387485D01*
X139144971Y-140435104D01*
X139192590Y-140530342D01*
X139192590Y-140911295D01*
X139668780Y-139387485D02*
X139668780Y-139958914D01*
X139668780Y-139673200D02*
X138668780Y-139673200D01*
X138811638Y-139768438D01*
X138906876Y-139863676D01*
X138954495Y-139958914D01*
%TO.C,L1*%
X123129333Y-142409180D02*
X122653142Y-142409180D01*
X122653142Y-141409180D01*
X123986476Y-142409180D02*
X123415047Y-142409180D01*
X123700761Y-142409180D02*
X123700761Y-141409180D01*
X123605523Y-141552038D01*
X123510285Y-141647276D01*
X123415047Y-141694895D01*
%TO.C,J1*%
X140941466Y-140429180D02*
X140941466Y-141143466D01*
X140893847Y-141286323D01*
X140798609Y-141381561D01*
X140655752Y-141429180D01*
X140560514Y-141429180D01*
X141941466Y-141429180D02*
X141370038Y-141429180D01*
X141655752Y-141429180D02*
X141655752Y-140429180D01*
X141560514Y-140572038D01*
X141465276Y-140667276D01*
X141370038Y-140714895D01*
%TO.C,C5*%
X116990342Y-145026766D02*
X117037961Y-145074385D01*
X117085580Y-145217242D01*
X117085580Y-145312480D01*
X117037961Y-145455338D01*
X116942723Y-145550576D01*
X116847485Y-145598195D01*
X116657009Y-145645814D01*
X116514152Y-145645814D01*
X116323676Y-145598195D01*
X116228438Y-145550576D01*
X116133200Y-145455338D01*
X116085580Y-145312480D01*
X116085580Y-145217242D01*
X116133200Y-145074385D01*
X116180819Y-145026766D01*
X116085580Y-144122004D02*
X116085580Y-144598195D01*
X116561771Y-144645814D01*
X116514152Y-144598195D01*
X116466533Y-144502957D01*
X116466533Y-144264861D01*
X116514152Y-144169623D01*
X116561771Y-144122004D01*
X116657009Y-144074385D01*
X116895104Y-144074385D01*
X116990342Y-144122004D01*
X117037961Y-144169623D01*
X117085580Y-144264861D01*
X117085580Y-144502957D01*
X117037961Y-144598195D01*
X116990342Y-144645814D01*
%TO.C,C4*%
X121155942Y-145128366D02*
X121203561Y-145175985D01*
X121251180Y-145318842D01*
X121251180Y-145414080D01*
X121203561Y-145556938D01*
X121108323Y-145652176D01*
X121013085Y-145699795D01*
X120822609Y-145747414D01*
X120679752Y-145747414D01*
X120489276Y-145699795D01*
X120394038Y-145652176D01*
X120298800Y-145556938D01*
X120251180Y-145414080D01*
X120251180Y-145318842D01*
X120298800Y-145175985D01*
X120346419Y-145128366D01*
X120584514Y-144271223D02*
X121251180Y-144271223D01*
X120203561Y-144509319D02*
X120917847Y-144747414D01*
X120917847Y-144128366D01*
%TO.C,C3*%
X124465142Y-149235366D02*
X124512761Y-149282985D01*
X124560380Y-149425842D01*
X124560380Y-149521080D01*
X124512761Y-149663938D01*
X124417523Y-149759176D01*
X124322285Y-149806795D01*
X124131809Y-149854414D01*
X123988952Y-149854414D01*
X123798476Y-149806795D01*
X123703238Y-149759176D01*
X123608000Y-149663938D01*
X123560380Y-149521080D01*
X123560380Y-149425842D01*
X123608000Y-149282985D01*
X123655619Y-149235366D01*
X123560380Y-148902033D02*
X123560380Y-148282985D01*
X123941333Y-148616319D01*
X123941333Y-148473461D01*
X123988952Y-148378223D01*
X124036571Y-148330604D01*
X124131809Y-148282985D01*
X124369904Y-148282985D01*
X124465142Y-148330604D01*
X124512761Y-148378223D01*
X124560380Y-148473461D01*
X124560380Y-148759176D01*
X124512761Y-148854414D01*
X124465142Y-148902033D01*
%TO.C,C2*%
X120106742Y-149607966D02*
X120154361Y-149655585D01*
X120201980Y-149798442D01*
X120201980Y-149893680D01*
X120154361Y-150036538D01*
X120059123Y-150131776D01*
X119963885Y-150179395D01*
X119773409Y-150227014D01*
X119630552Y-150227014D01*
X119440076Y-150179395D01*
X119344838Y-150131776D01*
X119249600Y-150036538D01*
X119201980Y-149893680D01*
X119201980Y-149798442D01*
X119249600Y-149655585D01*
X119297219Y-149607966D01*
X119297219Y-149227014D02*
X119249600Y-149179395D01*
X119201980Y-149084157D01*
X119201980Y-148846061D01*
X119249600Y-148750823D01*
X119297219Y-148703204D01*
X119392457Y-148655585D01*
X119487695Y-148655585D01*
X119630552Y-148703204D01*
X120201980Y-149274633D01*
X120201980Y-148655585D01*
%TO.C,C1*%
X125778742Y-146804766D02*
X125826361Y-146852385D01*
X125873980Y-146995242D01*
X125873980Y-147090480D01*
X125826361Y-147233338D01*
X125731123Y-147328576D01*
X125635885Y-147376195D01*
X125445409Y-147423814D01*
X125302552Y-147423814D01*
X125112076Y-147376195D01*
X125016838Y-147328576D01*
X124921600Y-147233338D01*
X124873980Y-147090480D01*
X124873980Y-146995242D01*
X124921600Y-146852385D01*
X124969219Y-146804766D01*
X125873980Y-145852385D02*
X125873980Y-146423814D01*
X125873980Y-146138100D02*
X124873980Y-146138100D01*
X125016838Y-146233338D01*
X125112076Y-146328576D01*
X125159695Y-146423814D01*
%TD*%
M02*
