M48
; DRILL file {KiCad (5.1.10)-1} date 01/27/22 03:50:05
; FORMAT={-:-/ absolute / inch / decimal}
; #@! TF.CreationDate,2022-01-27T03:50:05-08:00
; #@! TF.GenerationSoftware,Kicad,Pcbnew,(5.1.10)-1
; #@! TF.FileFunction,Plated,1,2,PTH
FMAT,2
INCH
T1C0.0079
T2C0.0394
%
G90
G05
T1
X5.25Y-4.1
X5.425Y-2.875
X5.425Y-3.25
X5.575Y-3.975
X5.925Y-2.85
X5.95Y-3.3
X6.577Y-3.652
X6.5815Y-3.551
X6.65Y-3.3
X6.6705Y-3.6065
X6.6705Y-3.6485
X6.6705Y-3.6905
X6.6705Y-3.7325
X6.6975Y-3.529
X6.7125Y-3.6065
X6.7125Y-3.6485
X6.7125Y-3.6905
X6.7125Y-3.7325
X6.721Y-3.8835
X6.7525Y-3.5285
X6.7545Y-3.6065
X6.7545Y-3.6485
X6.7545Y-3.6905
X6.7545Y-3.7325
X6.7965Y-3.6065
X6.7965Y-3.6485
X6.7965Y-3.6905
X6.7965Y-3.7325
X6.825Y-4.025
X6.8515Y-3.447
X7.0343Y-3.5345
X7.1Y-3.45
X7.125Y-4.425
X7.425Y-4.45
T2
X5.5215Y-4.4125
X5.6215Y-4.4125
X5.7215Y-4.4125
X5.8215Y-4.4125
X5.9215Y-4.4125
X6.0215Y-4.4125
X6.1215Y-4.4125
X6.2215Y-4.4125
X6.3215Y-4.4125
X6.3465Y-2.6885
X6.4215Y-4.4125
X6.4465Y-2.6885
X6.5215Y-4.4125
X6.5465Y-2.6885
X6.618Y-4.225
X6.6215Y-4.4125
X6.6465Y-2.6885
X6.718Y-4.225
X6.7215Y-4.4125
X6.7465Y-2.6885
X6.818Y-4.225
X6.8215Y-4.4125
X6.8465Y-2.6885
X6.918Y-4.225
X6.9465Y-2.6885
X7.018Y-4.225
X7.0465Y-2.6885
X7.118Y-4.225
X7.1465Y-2.6885
X7.218Y-4.225
X7.2465Y-2.6885
X7.318Y-4.225
X7.418Y-4.225
X7.518Y-4.225
X7.5605Y-2.6995
X7.5605Y-2.7995
X7.5605Y-2.8995
X7.5605Y-2.9995
X7.5605Y-3.0995
X7.5605Y-3.1995
X7.5605Y-3.2995
X7.5605Y-3.3995
X7.5605Y-3.4995
X7.5605Y-3.5995
X7.5605Y-3.6995
X7.5605Y-3.7995
X7.5605Y-3.8995
X7.5605Y-3.9995
T0
M30
