%TF.GenerationSoftware,KiCad,Pcbnew,(5.1.10)-1*%
%TF.CreationDate,2022-01-27T03:50:03-08:00*%
%TF.ProjectId,schematic,73636865-6d61-4746-9963-2e6b69636164,rev?*%
%TF.SameCoordinates,Original*%
%TF.FileFunction,Soldermask,Top*%
%TF.FilePolarity,Negative*%
%FSLAX46Y46*%
G04 Gerber Fmt 4.6, Leading zero omitted, Abs format (unit mm)*
G04 Created by KiCad (PCBNEW (5.1.10)-1) date 2022-01-27 03:50:03*
%MOMM*%
%LPD*%
G01*
G04 APERTURE LIST*
%ADD10O,1.700000X1.700000*%
%ADD11R,1.700000X1.700000*%
%ADD12R,1.800000X2.100000*%
%ADD13R,3.700000X3.700000*%
G04 APERTURE END LIST*
%TO.C,C4*%
G36*
G01*
X158321500Y-85580200D02*
X158321500Y-86530200D01*
G75*
G02*
X158071500Y-86780200I-250000J0D01*
G01*
X157396500Y-86780200D01*
G75*
G02*
X157146500Y-86530200I0J250000D01*
G01*
X157146500Y-85580200D01*
G75*
G02*
X157396500Y-85330200I250000J0D01*
G01*
X158071500Y-85330200D01*
G75*
G02*
X158321500Y-85580200I0J-250000D01*
G01*
G37*
G36*
G01*
X160396500Y-85580200D02*
X160396500Y-86530200D01*
G75*
G02*
X160146500Y-86780200I-250000J0D01*
G01*
X159471500Y-86780200D01*
G75*
G02*
X159221500Y-86530200I0J250000D01*
G01*
X159221500Y-85580200D01*
G75*
G02*
X159471500Y-85330200I250000J0D01*
G01*
X160146500Y-85330200D01*
G75*
G02*
X160396500Y-85580200I0J-250000D01*
G01*
G37*
%TD*%
%TO.C,C5*%
G36*
G01*
X161750500Y-92565200D02*
X161750500Y-93515200D01*
G75*
G02*
X161500500Y-93765200I-250000J0D01*
G01*
X160825500Y-93765200D01*
G75*
G02*
X160575500Y-93515200I0J250000D01*
G01*
X160575500Y-92565200D01*
G75*
G02*
X160825500Y-92315200I250000J0D01*
G01*
X161500500Y-92315200D01*
G75*
G02*
X161750500Y-92565200I0J-250000D01*
G01*
G37*
G36*
G01*
X163825500Y-92565200D02*
X163825500Y-93515200D01*
G75*
G02*
X163575500Y-93765200I-250000J0D01*
G01*
X162900500Y-93765200D01*
G75*
G02*
X162650500Y-93515200I0J250000D01*
G01*
X162650500Y-92565200D01*
G75*
G02*
X162900500Y-92315200I250000J0D01*
G01*
X163575500Y-92315200D01*
G75*
G02*
X163825500Y-92565200I0J-250000D01*
G01*
G37*
%TD*%
D10*
%TO.C,J5*%
X192036700Y-68567300D03*
X192036700Y-71107300D03*
X192036700Y-73647300D03*
X192036700Y-76187300D03*
X192036700Y-78727300D03*
X192036700Y-81267300D03*
X192036700Y-83807300D03*
X192036700Y-86347300D03*
X192036700Y-88887300D03*
X192036700Y-91427300D03*
X192036700Y-93967300D03*
X192036700Y-96507300D03*
X192036700Y-99047300D03*
D11*
X192036700Y-101587300D03*
%TD*%
D10*
%TO.C,J3*%
X161201100Y-68287900D03*
X163741100Y-68287900D03*
X166281100Y-68287900D03*
X168821100Y-68287900D03*
X171361100Y-68287900D03*
X173901100Y-68287900D03*
X176441100Y-68287900D03*
X178981100Y-68287900D03*
X181521100Y-68287900D03*
D11*
X184061100Y-68287900D03*
%TD*%
D10*
%TO.C,J2*%
X190957200Y-107315000D03*
X188417200Y-107315000D03*
X185877200Y-107315000D03*
X183337200Y-107315000D03*
X180797200Y-107315000D03*
X178257200Y-107315000D03*
X175717200Y-107315000D03*
X173177200Y-107315000D03*
X170637200Y-107315000D03*
D11*
X168097200Y-107315000D03*
%TD*%
D10*
%TO.C,J1*%
X173266100Y-112077500D03*
X170726100Y-112077500D03*
X168186100Y-112077500D03*
X165646100Y-112077500D03*
X163106100Y-112077500D03*
X160566100Y-112077500D03*
X158026100Y-112077500D03*
X155486100Y-112077500D03*
X152946100Y-112077500D03*
X150406100Y-112077500D03*
X147866100Y-112077500D03*
X145326100Y-112077500D03*
X142786100Y-112077500D03*
D11*
X140246100Y-112077500D03*
%TD*%
D12*
%TO.C,Y1*%
X171148100Y-80987900D03*
X171148100Y-83887900D03*
X168948100Y-83887900D03*
X168948100Y-80987900D03*
%TD*%
D13*
%TO.C,U1*%
X171030900Y-93205300D03*
G36*
G01*
X169355900Y-91105300D02*
X169355900Y-90405300D01*
G75*
G02*
X169405900Y-90355300I50000J0D01*
G01*
X169505900Y-90355300D01*
G75*
G02*
X169555900Y-90405300I0J-50000D01*
G01*
X169555900Y-91105300D01*
G75*
G02*
X169505900Y-91155300I-50000J0D01*
G01*
X169405900Y-91155300D01*
G75*
G02*
X169355900Y-91105300I0J50000D01*
G01*
G37*
G36*
G01*
X169705900Y-91105300D02*
X169705900Y-90405300D01*
G75*
G02*
X169755900Y-90355300I50000J0D01*
G01*
X169855900Y-90355300D01*
G75*
G02*
X169905900Y-90405300I0J-50000D01*
G01*
X169905900Y-91105300D01*
G75*
G02*
X169855900Y-91155300I-50000J0D01*
G01*
X169755900Y-91155300D01*
G75*
G02*
X169705900Y-91105300I0J50000D01*
G01*
G37*
G36*
G01*
X170055900Y-91105300D02*
X170055900Y-90405300D01*
G75*
G02*
X170105900Y-90355300I50000J0D01*
G01*
X170205900Y-90355300D01*
G75*
G02*
X170255900Y-90405300I0J-50000D01*
G01*
X170255900Y-91105300D01*
G75*
G02*
X170205900Y-91155300I-50000J0D01*
G01*
X170105900Y-91155300D01*
G75*
G02*
X170055900Y-91105300I0J50000D01*
G01*
G37*
G36*
G01*
X170405900Y-91105300D02*
X170405900Y-90405300D01*
G75*
G02*
X170455900Y-90355300I50000J0D01*
G01*
X170555900Y-90355300D01*
G75*
G02*
X170605900Y-90405300I0J-50000D01*
G01*
X170605900Y-91105300D01*
G75*
G02*
X170555900Y-91155300I-50000J0D01*
G01*
X170455900Y-91155300D01*
G75*
G02*
X170405900Y-91105300I0J50000D01*
G01*
G37*
G36*
G01*
X170755900Y-91105300D02*
X170755900Y-90405300D01*
G75*
G02*
X170805900Y-90355300I50000J0D01*
G01*
X170905900Y-90355300D01*
G75*
G02*
X170955900Y-90405300I0J-50000D01*
G01*
X170955900Y-91105300D01*
G75*
G02*
X170905900Y-91155300I-50000J0D01*
G01*
X170805900Y-91155300D01*
G75*
G02*
X170755900Y-91105300I0J50000D01*
G01*
G37*
G36*
G01*
X171105900Y-91105300D02*
X171105900Y-90405300D01*
G75*
G02*
X171155900Y-90355300I50000J0D01*
G01*
X171255900Y-90355300D01*
G75*
G02*
X171305900Y-90405300I0J-50000D01*
G01*
X171305900Y-91105300D01*
G75*
G02*
X171255900Y-91155300I-50000J0D01*
G01*
X171155900Y-91155300D01*
G75*
G02*
X171105900Y-91105300I0J50000D01*
G01*
G37*
G36*
G01*
X171455900Y-91105300D02*
X171455900Y-90405300D01*
G75*
G02*
X171505900Y-90355300I50000J0D01*
G01*
X171605900Y-90355300D01*
G75*
G02*
X171655900Y-90405300I0J-50000D01*
G01*
X171655900Y-91105300D01*
G75*
G02*
X171605900Y-91155300I-50000J0D01*
G01*
X171505900Y-91155300D01*
G75*
G02*
X171455900Y-91105300I0J50000D01*
G01*
G37*
G36*
G01*
X171805900Y-91105300D02*
X171805900Y-90405300D01*
G75*
G02*
X171855900Y-90355300I50000J0D01*
G01*
X171955900Y-90355300D01*
G75*
G02*
X172005900Y-90405300I0J-50000D01*
G01*
X172005900Y-91105300D01*
G75*
G02*
X171955900Y-91155300I-50000J0D01*
G01*
X171855900Y-91155300D01*
G75*
G02*
X171805900Y-91105300I0J50000D01*
G01*
G37*
G36*
G01*
X172155900Y-91105300D02*
X172155900Y-90405300D01*
G75*
G02*
X172205900Y-90355300I50000J0D01*
G01*
X172305900Y-90355300D01*
G75*
G02*
X172355900Y-90405300I0J-50000D01*
G01*
X172355900Y-91105300D01*
G75*
G02*
X172305900Y-91155300I-50000J0D01*
G01*
X172205900Y-91155300D01*
G75*
G02*
X172155900Y-91105300I0J50000D01*
G01*
G37*
G36*
G01*
X172505900Y-91105300D02*
X172505900Y-90405300D01*
G75*
G02*
X172555900Y-90355300I50000J0D01*
G01*
X172655900Y-90355300D01*
G75*
G02*
X172705900Y-90405300I0J-50000D01*
G01*
X172705900Y-91105300D01*
G75*
G02*
X172655900Y-91155300I-50000J0D01*
G01*
X172555900Y-91155300D01*
G75*
G02*
X172505900Y-91105300I0J50000D01*
G01*
G37*
G36*
G01*
X173080900Y-90980300D02*
X173080900Y-90880300D01*
G75*
G02*
X173130900Y-90830300I50000J0D01*
G01*
X173830900Y-90830300D01*
G75*
G02*
X173880900Y-90880300I0J-50000D01*
G01*
X173880900Y-90980300D01*
G75*
G02*
X173830900Y-91030300I-50000J0D01*
G01*
X173130900Y-91030300D01*
G75*
G02*
X173080900Y-90980300I0J50000D01*
G01*
G37*
G36*
G01*
X173080900Y-91330300D02*
X173080900Y-91230300D01*
G75*
G02*
X173130900Y-91180300I50000J0D01*
G01*
X173830900Y-91180300D01*
G75*
G02*
X173880900Y-91230300I0J-50000D01*
G01*
X173880900Y-91330300D01*
G75*
G02*
X173830900Y-91380300I-50000J0D01*
G01*
X173130900Y-91380300D01*
G75*
G02*
X173080900Y-91330300I0J50000D01*
G01*
G37*
G36*
G01*
X173080900Y-91680300D02*
X173080900Y-91580300D01*
G75*
G02*
X173130900Y-91530300I50000J0D01*
G01*
X173830900Y-91530300D01*
G75*
G02*
X173880900Y-91580300I0J-50000D01*
G01*
X173880900Y-91680300D01*
G75*
G02*
X173830900Y-91730300I-50000J0D01*
G01*
X173130900Y-91730300D01*
G75*
G02*
X173080900Y-91680300I0J50000D01*
G01*
G37*
G36*
G01*
X173080900Y-92030300D02*
X173080900Y-91930300D01*
G75*
G02*
X173130900Y-91880300I50000J0D01*
G01*
X173830900Y-91880300D01*
G75*
G02*
X173880900Y-91930300I0J-50000D01*
G01*
X173880900Y-92030300D01*
G75*
G02*
X173830900Y-92080300I-50000J0D01*
G01*
X173130900Y-92080300D01*
G75*
G02*
X173080900Y-92030300I0J50000D01*
G01*
G37*
G36*
G01*
X173080900Y-92380300D02*
X173080900Y-92280300D01*
G75*
G02*
X173130900Y-92230300I50000J0D01*
G01*
X173830900Y-92230300D01*
G75*
G02*
X173880900Y-92280300I0J-50000D01*
G01*
X173880900Y-92380300D01*
G75*
G02*
X173830900Y-92430300I-50000J0D01*
G01*
X173130900Y-92430300D01*
G75*
G02*
X173080900Y-92380300I0J50000D01*
G01*
G37*
G36*
G01*
X173080900Y-92730300D02*
X173080900Y-92630300D01*
G75*
G02*
X173130900Y-92580300I50000J0D01*
G01*
X173830900Y-92580300D01*
G75*
G02*
X173880900Y-92630300I0J-50000D01*
G01*
X173880900Y-92730300D01*
G75*
G02*
X173830900Y-92780300I-50000J0D01*
G01*
X173130900Y-92780300D01*
G75*
G02*
X173080900Y-92730300I0J50000D01*
G01*
G37*
G36*
G01*
X173080900Y-93080300D02*
X173080900Y-92980300D01*
G75*
G02*
X173130900Y-92930300I50000J0D01*
G01*
X173830900Y-92930300D01*
G75*
G02*
X173880900Y-92980300I0J-50000D01*
G01*
X173880900Y-93080300D01*
G75*
G02*
X173830900Y-93130300I-50000J0D01*
G01*
X173130900Y-93130300D01*
G75*
G02*
X173080900Y-93080300I0J50000D01*
G01*
G37*
G36*
G01*
X173080900Y-93430300D02*
X173080900Y-93330300D01*
G75*
G02*
X173130900Y-93280300I50000J0D01*
G01*
X173830900Y-93280300D01*
G75*
G02*
X173880900Y-93330300I0J-50000D01*
G01*
X173880900Y-93430300D01*
G75*
G02*
X173830900Y-93480300I-50000J0D01*
G01*
X173130900Y-93480300D01*
G75*
G02*
X173080900Y-93430300I0J50000D01*
G01*
G37*
G36*
G01*
X173080900Y-93780300D02*
X173080900Y-93680300D01*
G75*
G02*
X173130900Y-93630300I50000J0D01*
G01*
X173830900Y-93630300D01*
G75*
G02*
X173880900Y-93680300I0J-50000D01*
G01*
X173880900Y-93780300D01*
G75*
G02*
X173830900Y-93830300I-50000J0D01*
G01*
X173130900Y-93830300D01*
G75*
G02*
X173080900Y-93780300I0J50000D01*
G01*
G37*
G36*
G01*
X173080900Y-94130300D02*
X173080900Y-94030300D01*
G75*
G02*
X173130900Y-93980300I50000J0D01*
G01*
X173830900Y-93980300D01*
G75*
G02*
X173880900Y-94030300I0J-50000D01*
G01*
X173880900Y-94130300D01*
G75*
G02*
X173830900Y-94180300I-50000J0D01*
G01*
X173130900Y-94180300D01*
G75*
G02*
X173080900Y-94130300I0J50000D01*
G01*
G37*
G36*
G01*
X173080900Y-94480300D02*
X173080900Y-94380300D01*
G75*
G02*
X173130900Y-94330300I50000J0D01*
G01*
X173830900Y-94330300D01*
G75*
G02*
X173880900Y-94380300I0J-50000D01*
G01*
X173880900Y-94480300D01*
G75*
G02*
X173830900Y-94530300I-50000J0D01*
G01*
X173130900Y-94530300D01*
G75*
G02*
X173080900Y-94480300I0J50000D01*
G01*
G37*
G36*
G01*
X173080900Y-94830300D02*
X173080900Y-94730300D01*
G75*
G02*
X173130900Y-94680300I50000J0D01*
G01*
X173830900Y-94680300D01*
G75*
G02*
X173880900Y-94730300I0J-50000D01*
G01*
X173880900Y-94830300D01*
G75*
G02*
X173830900Y-94880300I-50000J0D01*
G01*
X173130900Y-94880300D01*
G75*
G02*
X173080900Y-94830300I0J50000D01*
G01*
G37*
G36*
G01*
X173080900Y-95180300D02*
X173080900Y-95080300D01*
G75*
G02*
X173130900Y-95030300I50000J0D01*
G01*
X173830900Y-95030300D01*
G75*
G02*
X173880900Y-95080300I0J-50000D01*
G01*
X173880900Y-95180300D01*
G75*
G02*
X173830900Y-95230300I-50000J0D01*
G01*
X173130900Y-95230300D01*
G75*
G02*
X173080900Y-95180300I0J50000D01*
G01*
G37*
G36*
G01*
X173080900Y-95530300D02*
X173080900Y-95430300D01*
G75*
G02*
X173130900Y-95380300I50000J0D01*
G01*
X173830900Y-95380300D01*
G75*
G02*
X173880900Y-95430300I0J-50000D01*
G01*
X173880900Y-95530300D01*
G75*
G02*
X173830900Y-95580300I-50000J0D01*
G01*
X173130900Y-95580300D01*
G75*
G02*
X173080900Y-95530300I0J50000D01*
G01*
G37*
G36*
G01*
X172505900Y-96005300D02*
X172505900Y-95305300D01*
G75*
G02*
X172555900Y-95255300I50000J0D01*
G01*
X172655900Y-95255300D01*
G75*
G02*
X172705900Y-95305300I0J-50000D01*
G01*
X172705900Y-96005300D01*
G75*
G02*
X172655900Y-96055300I-50000J0D01*
G01*
X172555900Y-96055300D01*
G75*
G02*
X172505900Y-96005300I0J50000D01*
G01*
G37*
G36*
G01*
X172155900Y-96005300D02*
X172155900Y-95305300D01*
G75*
G02*
X172205900Y-95255300I50000J0D01*
G01*
X172305900Y-95255300D01*
G75*
G02*
X172355900Y-95305300I0J-50000D01*
G01*
X172355900Y-96005300D01*
G75*
G02*
X172305900Y-96055300I-50000J0D01*
G01*
X172205900Y-96055300D01*
G75*
G02*
X172155900Y-96005300I0J50000D01*
G01*
G37*
G36*
G01*
X171805900Y-96005300D02*
X171805900Y-95305300D01*
G75*
G02*
X171855900Y-95255300I50000J0D01*
G01*
X171955900Y-95255300D01*
G75*
G02*
X172005900Y-95305300I0J-50000D01*
G01*
X172005900Y-96005300D01*
G75*
G02*
X171955900Y-96055300I-50000J0D01*
G01*
X171855900Y-96055300D01*
G75*
G02*
X171805900Y-96005300I0J50000D01*
G01*
G37*
G36*
G01*
X171455900Y-96005300D02*
X171455900Y-95305300D01*
G75*
G02*
X171505900Y-95255300I50000J0D01*
G01*
X171605900Y-95255300D01*
G75*
G02*
X171655900Y-95305300I0J-50000D01*
G01*
X171655900Y-96005300D01*
G75*
G02*
X171605900Y-96055300I-50000J0D01*
G01*
X171505900Y-96055300D01*
G75*
G02*
X171455900Y-96005300I0J50000D01*
G01*
G37*
G36*
G01*
X171105900Y-96005300D02*
X171105900Y-95305300D01*
G75*
G02*
X171155900Y-95255300I50000J0D01*
G01*
X171255900Y-95255300D01*
G75*
G02*
X171305900Y-95305300I0J-50000D01*
G01*
X171305900Y-96005300D01*
G75*
G02*
X171255900Y-96055300I-50000J0D01*
G01*
X171155900Y-96055300D01*
G75*
G02*
X171105900Y-96005300I0J50000D01*
G01*
G37*
G36*
G01*
X170755900Y-96005300D02*
X170755900Y-95305300D01*
G75*
G02*
X170805900Y-95255300I50000J0D01*
G01*
X170905900Y-95255300D01*
G75*
G02*
X170955900Y-95305300I0J-50000D01*
G01*
X170955900Y-96005300D01*
G75*
G02*
X170905900Y-96055300I-50000J0D01*
G01*
X170805900Y-96055300D01*
G75*
G02*
X170755900Y-96005300I0J50000D01*
G01*
G37*
G36*
G01*
X170405900Y-96005300D02*
X170405900Y-95305300D01*
G75*
G02*
X170455900Y-95255300I50000J0D01*
G01*
X170555900Y-95255300D01*
G75*
G02*
X170605900Y-95305300I0J-50000D01*
G01*
X170605900Y-96005300D01*
G75*
G02*
X170555900Y-96055300I-50000J0D01*
G01*
X170455900Y-96055300D01*
G75*
G02*
X170405900Y-96005300I0J50000D01*
G01*
G37*
G36*
G01*
X170055900Y-96005300D02*
X170055900Y-95305300D01*
G75*
G02*
X170105900Y-95255300I50000J0D01*
G01*
X170205900Y-95255300D01*
G75*
G02*
X170255900Y-95305300I0J-50000D01*
G01*
X170255900Y-96005300D01*
G75*
G02*
X170205900Y-96055300I-50000J0D01*
G01*
X170105900Y-96055300D01*
G75*
G02*
X170055900Y-96005300I0J50000D01*
G01*
G37*
G36*
G01*
X169705900Y-96005300D02*
X169705900Y-95305300D01*
G75*
G02*
X169755900Y-95255300I50000J0D01*
G01*
X169855900Y-95255300D01*
G75*
G02*
X169905900Y-95305300I0J-50000D01*
G01*
X169905900Y-96005300D01*
G75*
G02*
X169855900Y-96055300I-50000J0D01*
G01*
X169755900Y-96055300D01*
G75*
G02*
X169705900Y-96005300I0J50000D01*
G01*
G37*
G36*
G01*
X169355900Y-96005300D02*
X169355900Y-95305300D01*
G75*
G02*
X169405900Y-95255300I50000J0D01*
G01*
X169505900Y-95255300D01*
G75*
G02*
X169555900Y-95305300I0J-50000D01*
G01*
X169555900Y-96005300D01*
G75*
G02*
X169505900Y-96055300I-50000J0D01*
G01*
X169405900Y-96055300D01*
G75*
G02*
X169355900Y-96005300I0J50000D01*
G01*
G37*
G36*
G01*
X168180900Y-95530300D02*
X168180900Y-95430300D01*
G75*
G02*
X168230900Y-95380300I50000J0D01*
G01*
X168930900Y-95380300D01*
G75*
G02*
X168980900Y-95430300I0J-50000D01*
G01*
X168980900Y-95530300D01*
G75*
G02*
X168930900Y-95580300I-50000J0D01*
G01*
X168230900Y-95580300D01*
G75*
G02*
X168180900Y-95530300I0J50000D01*
G01*
G37*
G36*
G01*
X168180900Y-95180300D02*
X168180900Y-95080300D01*
G75*
G02*
X168230900Y-95030300I50000J0D01*
G01*
X168930900Y-95030300D01*
G75*
G02*
X168980900Y-95080300I0J-50000D01*
G01*
X168980900Y-95180300D01*
G75*
G02*
X168930900Y-95230300I-50000J0D01*
G01*
X168230900Y-95230300D01*
G75*
G02*
X168180900Y-95180300I0J50000D01*
G01*
G37*
G36*
G01*
X168180900Y-94830300D02*
X168180900Y-94730300D01*
G75*
G02*
X168230900Y-94680300I50000J0D01*
G01*
X168930900Y-94680300D01*
G75*
G02*
X168980900Y-94730300I0J-50000D01*
G01*
X168980900Y-94830300D01*
G75*
G02*
X168930900Y-94880300I-50000J0D01*
G01*
X168230900Y-94880300D01*
G75*
G02*
X168180900Y-94830300I0J50000D01*
G01*
G37*
G36*
G01*
X168180900Y-94480300D02*
X168180900Y-94380300D01*
G75*
G02*
X168230900Y-94330300I50000J0D01*
G01*
X168930900Y-94330300D01*
G75*
G02*
X168980900Y-94380300I0J-50000D01*
G01*
X168980900Y-94480300D01*
G75*
G02*
X168930900Y-94530300I-50000J0D01*
G01*
X168230900Y-94530300D01*
G75*
G02*
X168180900Y-94480300I0J50000D01*
G01*
G37*
G36*
G01*
X168180900Y-94130300D02*
X168180900Y-94030300D01*
G75*
G02*
X168230900Y-93980300I50000J0D01*
G01*
X168930900Y-93980300D01*
G75*
G02*
X168980900Y-94030300I0J-50000D01*
G01*
X168980900Y-94130300D01*
G75*
G02*
X168930900Y-94180300I-50000J0D01*
G01*
X168230900Y-94180300D01*
G75*
G02*
X168180900Y-94130300I0J50000D01*
G01*
G37*
G36*
G01*
X168180900Y-93780300D02*
X168180900Y-93680300D01*
G75*
G02*
X168230900Y-93630300I50000J0D01*
G01*
X168930900Y-93630300D01*
G75*
G02*
X168980900Y-93680300I0J-50000D01*
G01*
X168980900Y-93780300D01*
G75*
G02*
X168930900Y-93830300I-50000J0D01*
G01*
X168230900Y-93830300D01*
G75*
G02*
X168180900Y-93780300I0J50000D01*
G01*
G37*
G36*
G01*
X168180900Y-93430300D02*
X168180900Y-93330300D01*
G75*
G02*
X168230900Y-93280300I50000J0D01*
G01*
X168930900Y-93280300D01*
G75*
G02*
X168980900Y-93330300I0J-50000D01*
G01*
X168980900Y-93430300D01*
G75*
G02*
X168930900Y-93480300I-50000J0D01*
G01*
X168230900Y-93480300D01*
G75*
G02*
X168180900Y-93430300I0J50000D01*
G01*
G37*
G36*
G01*
X168180900Y-93080300D02*
X168180900Y-92980300D01*
G75*
G02*
X168230900Y-92930300I50000J0D01*
G01*
X168930900Y-92930300D01*
G75*
G02*
X168980900Y-92980300I0J-50000D01*
G01*
X168980900Y-93080300D01*
G75*
G02*
X168930900Y-93130300I-50000J0D01*
G01*
X168230900Y-93130300D01*
G75*
G02*
X168180900Y-93080300I0J50000D01*
G01*
G37*
G36*
G01*
X168180900Y-92730300D02*
X168180900Y-92630300D01*
G75*
G02*
X168230900Y-92580300I50000J0D01*
G01*
X168930900Y-92580300D01*
G75*
G02*
X168980900Y-92630300I0J-50000D01*
G01*
X168980900Y-92730300D01*
G75*
G02*
X168930900Y-92780300I-50000J0D01*
G01*
X168230900Y-92780300D01*
G75*
G02*
X168180900Y-92730300I0J50000D01*
G01*
G37*
G36*
G01*
X168180900Y-92380300D02*
X168180900Y-92280300D01*
G75*
G02*
X168230900Y-92230300I50000J0D01*
G01*
X168930900Y-92230300D01*
G75*
G02*
X168980900Y-92280300I0J-50000D01*
G01*
X168980900Y-92380300D01*
G75*
G02*
X168930900Y-92430300I-50000J0D01*
G01*
X168230900Y-92430300D01*
G75*
G02*
X168180900Y-92380300I0J50000D01*
G01*
G37*
G36*
G01*
X168180900Y-92030300D02*
X168180900Y-91930300D01*
G75*
G02*
X168230900Y-91880300I50000J0D01*
G01*
X168930900Y-91880300D01*
G75*
G02*
X168980900Y-91930300I0J-50000D01*
G01*
X168980900Y-92030300D01*
G75*
G02*
X168930900Y-92080300I-50000J0D01*
G01*
X168230900Y-92080300D01*
G75*
G02*
X168180900Y-92030300I0J50000D01*
G01*
G37*
G36*
G01*
X168180900Y-91680300D02*
X168180900Y-91580300D01*
G75*
G02*
X168230900Y-91530300I50000J0D01*
G01*
X168930900Y-91530300D01*
G75*
G02*
X168980900Y-91580300I0J-50000D01*
G01*
X168980900Y-91680300D01*
G75*
G02*
X168930900Y-91730300I-50000J0D01*
G01*
X168230900Y-91730300D01*
G75*
G02*
X168180900Y-91680300I0J50000D01*
G01*
G37*
G36*
G01*
X168180900Y-91330300D02*
X168180900Y-91230300D01*
G75*
G02*
X168230900Y-91180300I50000J0D01*
G01*
X168930900Y-91180300D01*
G75*
G02*
X168980900Y-91230300I0J-50000D01*
G01*
X168980900Y-91330300D01*
G75*
G02*
X168930900Y-91380300I-50000J0D01*
G01*
X168230900Y-91380300D01*
G75*
G02*
X168180900Y-91330300I0J50000D01*
G01*
G37*
G36*
G01*
X168180900Y-90980300D02*
X168180900Y-90880300D01*
G75*
G02*
X168230900Y-90830300I50000J0D01*
G01*
X168930900Y-90830300D01*
G75*
G02*
X168980900Y-90880300I0J-50000D01*
G01*
X168980900Y-90980300D01*
G75*
G02*
X168930900Y-91030300I-50000J0D01*
G01*
X168230900Y-91030300D01*
G75*
G02*
X168180900Y-90980300I0J50000D01*
G01*
G37*
%TD*%
%TO.C,R1*%
G36*
G01*
X162605299Y-84966000D02*
X163505301Y-84966000D01*
G75*
G02*
X163755300Y-85215999I0J-249999D01*
G01*
X163755300Y-85916001D01*
G75*
G02*
X163505301Y-86166000I-249999J0D01*
G01*
X162605299Y-86166000D01*
G75*
G02*
X162355300Y-85916001I0J249999D01*
G01*
X162355300Y-85215999D01*
G75*
G02*
X162605299Y-84966000I249999J0D01*
G01*
G37*
G36*
G01*
X162605299Y-82966000D02*
X163505301Y-82966000D01*
G75*
G02*
X163755300Y-83215999I0J-249999D01*
G01*
X163755300Y-83916001D01*
G75*
G02*
X163505301Y-84166000I-249999J0D01*
G01*
X162605299Y-84166000D01*
G75*
G02*
X162355300Y-83916001I0J249999D01*
G01*
X162355300Y-83215999D01*
G75*
G02*
X162605299Y-82966000I249999J0D01*
G01*
G37*
%TD*%
%TO.C,L1*%
G36*
G01*
X133072400Y-91763001D02*
X133072400Y-90862999D01*
G75*
G02*
X133322399Y-90613000I249999J0D01*
G01*
X133972401Y-90613000D01*
G75*
G02*
X134222400Y-90862999I0J-249999D01*
G01*
X134222400Y-91763001D01*
G75*
G02*
X133972401Y-92013000I-249999J0D01*
G01*
X133322399Y-92013000D01*
G75*
G02*
X133072400Y-91763001I0J249999D01*
G01*
G37*
G36*
G01*
X131022400Y-91763001D02*
X131022400Y-90862999D01*
G75*
G02*
X131272399Y-90613000I249999J0D01*
G01*
X131922401Y-90613000D01*
G75*
G02*
X132172400Y-90862999I0J-249999D01*
G01*
X132172400Y-91763001D01*
G75*
G02*
X131922401Y-92013000I-249999J0D01*
G01*
X131272399Y-92013000D01*
G75*
G02*
X131022400Y-91763001I0J249999D01*
G01*
G37*
%TD*%
%TO.C,C10*%
G36*
G01*
X180158900Y-90251300D02*
X180158900Y-89301300D01*
G75*
G02*
X180408900Y-89051300I250000J0D01*
G01*
X181083900Y-89051300D01*
G75*
G02*
X181333900Y-89301300I0J-250000D01*
G01*
X181333900Y-90251300D01*
G75*
G02*
X181083900Y-90501300I-250000J0D01*
G01*
X180408900Y-90501300D01*
G75*
G02*
X180158900Y-90251300I0J250000D01*
G01*
G37*
G36*
G01*
X178083900Y-90251300D02*
X178083900Y-89301300D01*
G75*
G02*
X178333900Y-89051300I250000J0D01*
G01*
X179008900Y-89051300D01*
G75*
G02*
X179258900Y-89301300I0J-250000D01*
G01*
X179258900Y-90251300D01*
G75*
G02*
X179008900Y-90501300I-250000J0D01*
G01*
X178333900Y-90501300D01*
G75*
G02*
X178083900Y-90251300I0J250000D01*
G01*
G37*
%TD*%
%TO.C,C9*%
G36*
G01*
X174528500Y-85956900D02*
X173578500Y-85956900D01*
G75*
G02*
X173328500Y-85706900I0J250000D01*
G01*
X173328500Y-85031900D01*
G75*
G02*
X173578500Y-84781900I250000J0D01*
G01*
X174528500Y-84781900D01*
G75*
G02*
X174778500Y-85031900I0J-250000D01*
G01*
X174778500Y-85706900D01*
G75*
G02*
X174528500Y-85956900I-250000J0D01*
G01*
G37*
G36*
G01*
X174528500Y-88031900D02*
X173578500Y-88031900D01*
G75*
G02*
X173328500Y-87781900I0J250000D01*
G01*
X173328500Y-87106900D01*
G75*
G02*
X173578500Y-86856900I250000J0D01*
G01*
X174528500Y-86856900D01*
G75*
G02*
X174778500Y-87106900I0J-250000D01*
G01*
X174778500Y-87781900D01*
G75*
G02*
X174528500Y-88031900I-250000J0D01*
G01*
G37*
%TD*%
%TO.C,C8*%
G36*
G01*
X170238400Y-100128400D02*
X171188400Y-100128400D01*
G75*
G02*
X171438400Y-100378400I0J-250000D01*
G01*
X171438400Y-101053400D01*
G75*
G02*
X171188400Y-101303400I-250000J0D01*
G01*
X170238400Y-101303400D01*
G75*
G02*
X169988400Y-101053400I0J250000D01*
G01*
X169988400Y-100378400D01*
G75*
G02*
X170238400Y-100128400I250000J0D01*
G01*
G37*
G36*
G01*
X170238400Y-98053400D02*
X171188400Y-98053400D01*
G75*
G02*
X171438400Y-98303400I0J-250000D01*
G01*
X171438400Y-98978400D01*
G75*
G02*
X171188400Y-99228400I-250000J0D01*
G01*
X170238400Y-99228400D01*
G75*
G02*
X169988400Y-98978400I0J250000D01*
G01*
X169988400Y-98303400D01*
G75*
G02*
X170238400Y-98053400I250000J0D01*
G01*
G37*
%TD*%
%TO.C,C7*%
G36*
G01*
X169772000Y-86520000D02*
X169772000Y-87470000D01*
G75*
G02*
X169522000Y-87720000I-250000J0D01*
G01*
X168847000Y-87720000D01*
G75*
G02*
X168597000Y-87470000I0J250000D01*
G01*
X168597000Y-86520000D01*
G75*
G02*
X168847000Y-86270000I250000J0D01*
G01*
X169522000Y-86270000D01*
G75*
G02*
X169772000Y-86520000I0J-250000D01*
G01*
G37*
G36*
G01*
X171847000Y-86520000D02*
X171847000Y-87470000D01*
G75*
G02*
X171597000Y-87720000I-250000J0D01*
G01*
X170922000Y-87720000D01*
G75*
G02*
X170672000Y-87470000I0J250000D01*
G01*
X170672000Y-86520000D01*
G75*
G02*
X170922000Y-86270000I250000J0D01*
G01*
X171597000Y-86270000D01*
G75*
G02*
X171847000Y-86520000I0J-250000D01*
G01*
G37*
%TD*%
%TO.C,C6*%
G36*
G01*
X170473700Y-78326000D02*
X170473700Y-77376000D01*
G75*
G02*
X170723700Y-77126000I250000J0D01*
G01*
X171398700Y-77126000D01*
G75*
G02*
X171648700Y-77376000I0J-250000D01*
G01*
X171648700Y-78326000D01*
G75*
G02*
X171398700Y-78576000I-250000J0D01*
G01*
X170723700Y-78576000D01*
G75*
G02*
X170473700Y-78326000I0J250000D01*
G01*
G37*
G36*
G01*
X168398700Y-78326000D02*
X168398700Y-77376000D01*
G75*
G02*
X168648700Y-77126000I250000J0D01*
G01*
X169323700Y-77126000D01*
G75*
G02*
X169573700Y-77376000I0J-250000D01*
G01*
X169573700Y-78326000D01*
G75*
G02*
X169323700Y-78576000I-250000J0D01*
G01*
X168648700Y-78576000D01*
G75*
G02*
X168398700Y-78326000I0J250000D01*
G01*
G37*
%TD*%
%TO.C,C3*%
G36*
G01*
X159481500Y-83016600D02*
X160431500Y-83016600D01*
G75*
G02*
X160681500Y-83266600I0J-250000D01*
G01*
X160681500Y-83941600D01*
G75*
G02*
X160431500Y-84191600I-250000J0D01*
G01*
X159481500Y-84191600D01*
G75*
G02*
X159231500Y-83941600I0J250000D01*
G01*
X159231500Y-83266600D01*
G75*
G02*
X159481500Y-83016600I250000J0D01*
G01*
G37*
G36*
G01*
X159481500Y-80941600D02*
X160431500Y-80941600D01*
G75*
G02*
X160681500Y-81191600I0J-250000D01*
G01*
X160681500Y-81866600D01*
G75*
G02*
X160431500Y-82116600I-250000J0D01*
G01*
X159481500Y-82116600D01*
G75*
G02*
X159231500Y-81866600I0J250000D01*
G01*
X159231500Y-81191600D01*
G75*
G02*
X159481500Y-80941600I250000J0D01*
G01*
G37*
%TD*%
%TO.C,C2*%
G36*
G01*
X136253200Y-92800500D02*
X137203200Y-92800500D01*
G75*
G02*
X137453200Y-93050500I0J-250000D01*
G01*
X137453200Y-93725500D01*
G75*
G02*
X137203200Y-93975500I-250000J0D01*
G01*
X136253200Y-93975500D01*
G75*
G02*
X136003200Y-93725500I0J250000D01*
G01*
X136003200Y-93050500D01*
G75*
G02*
X136253200Y-92800500I250000J0D01*
G01*
G37*
G36*
G01*
X136253200Y-90725500D02*
X137203200Y-90725500D01*
G75*
G02*
X137453200Y-90975500I0J-250000D01*
G01*
X137453200Y-91650500D01*
G75*
G02*
X137203200Y-91900500I-250000J0D01*
G01*
X136253200Y-91900500D01*
G75*
G02*
X136003200Y-91650500I0J250000D01*
G01*
X136003200Y-90975500D01*
G75*
G02*
X136253200Y-90725500I250000J0D01*
G01*
G37*
%TD*%
%TO.C,C1*%
G36*
G01*
X128391900Y-92737000D02*
X129341900Y-92737000D01*
G75*
G02*
X129591900Y-92987000I0J-250000D01*
G01*
X129591900Y-93662000D01*
G75*
G02*
X129341900Y-93912000I-250000J0D01*
G01*
X128391900Y-93912000D01*
G75*
G02*
X128141900Y-93662000I0J250000D01*
G01*
X128141900Y-92987000D01*
G75*
G02*
X128391900Y-92737000I250000J0D01*
G01*
G37*
G36*
G01*
X128391900Y-90662000D02*
X129341900Y-90662000D01*
G75*
G02*
X129591900Y-90912000I0J-250000D01*
G01*
X129591900Y-91587000D01*
G75*
G02*
X129341900Y-91837000I-250000J0D01*
G01*
X128391900Y-91837000D01*
G75*
G02*
X128141900Y-91587000I0J250000D01*
G01*
X128141900Y-90912000D01*
G75*
G02*
X128391900Y-90662000I250000J0D01*
G01*
G37*
%TD*%
%TO.C,AE1*%
G36*
G01*
X122414000Y-90599499D02*
X122414000Y-91899501D01*
G75*
G02*
X122164001Y-92149500I-249999J0D01*
G01*
X121463999Y-92149500D01*
G75*
G02*
X121214000Y-91899501I0J249999D01*
G01*
X121214000Y-90599499D01*
G75*
G02*
X121463999Y-90349500I249999J0D01*
G01*
X122164001Y-90349500D01*
G75*
G02*
X122414000Y-90599499I0J-249999D01*
G01*
G37*
G36*
G01*
X125314000Y-90599499D02*
X125314000Y-91899501D01*
G75*
G02*
X125064001Y-92149500I-249999J0D01*
G01*
X124363999Y-92149500D01*
G75*
G02*
X124114000Y-91899501I0J249999D01*
G01*
X124114000Y-90599499D01*
G75*
G02*
X124363999Y-90349500I249999J0D01*
G01*
X125064001Y-90349500D01*
G75*
G02*
X125314000Y-90599499I0J-249999D01*
G01*
G37*
%TD*%
M02*
