G04 #@! TF.GenerationSoftware,KiCad,Pcbnew,(5.1.12)-1*
G04 #@! TF.CreationDate,2022-01-07T20:34:09-08:00*
G04 #@! TF.ProjectId,schematic,73636865-6d61-4746-9963-2e6b69636164,rev?*
G04 #@! TF.SameCoordinates,Original*
G04 #@! TF.FileFunction,Soldermask,Bot*
G04 #@! TF.FilePolarity,Negative*
%FSLAX46Y46*%
G04 Gerber Fmt 4.6, Leading zero omitted, Abs format (unit mm)*
G04 Created by KiCad (PCBNEW (5.1.12)-1) date 2022-01-07 20:34:09*
%MOMM*%
%LPD*%
G01*
G04 APERTURE LIST*
%ADD10O,1.600000X1.600000*%
%ADD11R,1.600000X1.600000*%
%ADD12O,2.200000X2.200000*%
%ADD13R,2.200000X2.200000*%
%ADD14O,1.700000X1.700000*%
%ADD15R,1.700000X1.700000*%
%ADD16O,1.700000X1.100000*%
G04 APERTURE END LIST*
D10*
G04 #@! TO.C,U4*
X152463500Y-109537500D03*
X144843500Y-117157500D03*
X152463500Y-112077500D03*
X144843500Y-114617500D03*
X152463500Y-114617500D03*
X144843500Y-112077500D03*
X152463500Y-117157500D03*
D11*
X144843500Y-109537500D03*
G04 #@! TD*
D12*
G04 #@! TO.C,D3*
X141033500Y-122364500D03*
D13*
X141033500Y-112204500D03*
G04 #@! TD*
D14*
G04 #@! TO.C,J11*
X138176000Y-128460500D03*
X140716000Y-128460500D03*
X143256000Y-128460500D03*
D15*
X145796000Y-128460500D03*
G04 #@! TD*
G04 #@! TO.C,J11*
X147383500Y-79502000D03*
D14*
X144843500Y-79502000D03*
X142303500Y-79502000D03*
X139763500Y-79502000D03*
G04 #@! TD*
D13*
G04 #@! TO.C,D3*
X142621000Y-63246000D03*
D12*
X142621000Y-73406000D03*
G04 #@! TD*
D11*
G04 #@! TO.C,U4*
X146431000Y-60579000D03*
D10*
X154051000Y-68199000D03*
X146431000Y-63119000D03*
X154051000Y-65659000D03*
X146431000Y-65659000D03*
X154051000Y-63119000D03*
X146431000Y-68199000D03*
X154051000Y-60579000D03*
G04 #@! TD*
G04 #@! TO.C,U4*
X118935500Y-98679000D03*
X111315500Y-106299000D03*
X118935500Y-101219000D03*
X111315500Y-103759000D03*
X118935500Y-103759000D03*
X111315500Y-101219000D03*
X118935500Y-106299000D03*
D11*
X111315500Y-98679000D03*
G04 #@! TD*
D14*
G04 #@! TO.C,J11*
X104648000Y-117602000D03*
X107188000Y-117602000D03*
X109728000Y-117602000D03*
D15*
X112268000Y-117602000D03*
G04 #@! TD*
D12*
G04 #@! TO.C,D3*
X107505500Y-111506000D03*
D13*
X107505500Y-101346000D03*
G04 #@! TD*
D16*
G04 #@! TO.C,J2*
X181496500Y-127391000D03*
X185296500Y-127391000D03*
X181546500Y-136041000D03*
X185346500Y-136041000D03*
G04 #@! TD*
D15*
G04 #@! TO.C,J3*
X170116500Y-135001000D03*
D14*
X170116500Y-132461000D03*
X170116500Y-129921000D03*
X170116500Y-127381000D03*
G04 #@! TD*
D15*
G04 #@! TO.C,J1*
X111683800Y-91122500D03*
D14*
X109143800Y-91122500D03*
X106603800Y-91122500D03*
X104063800Y-91122500D03*
G04 #@! TD*
D13*
G04 #@! TO.C,D1*
X106553000Y-74561700D03*
D12*
X106553000Y-84721700D03*
G04 #@! TD*
D15*
G04 #@! TO.C,J10*
X134035800Y-90271600D03*
D14*
X134035800Y-92811600D03*
X134035800Y-95351600D03*
X134035800Y-97891600D03*
G04 #@! TD*
D13*
G04 #@! TO.C,D2*
X153847800Y-87325200D03*
D12*
X143687800Y-87325200D03*
G04 #@! TD*
D15*
G04 #@! TO.C,J10*
X164579300Y-109448600D03*
D14*
X164579300Y-111988600D03*
X164579300Y-114528600D03*
X164579300Y-117068600D03*
G04 #@! TD*
D13*
G04 #@! TO.C,D2*
X184391300Y-106502200D03*
D12*
X174231300Y-106502200D03*
G04 #@! TD*
D15*
G04 #@! TO.C,J10*
X166484300Y-87350600D03*
D14*
X166484300Y-89890600D03*
X166484300Y-92430600D03*
X166484300Y-94970600D03*
G04 #@! TD*
D13*
G04 #@! TO.C,D2*
X186296300Y-84404200D03*
D12*
X176136300Y-84404200D03*
G04 #@! TD*
D15*
G04 #@! TO.C,J10*
X166166800Y-63982600D03*
D14*
X166166800Y-66522600D03*
X166166800Y-69062600D03*
X166166800Y-71602600D03*
G04 #@! TD*
D13*
G04 #@! TO.C,D2*
X185978800Y-61036200D03*
D12*
X175818800Y-61036200D03*
G04 #@! TD*
D14*
G04 #@! TO.C,J9*
X134645400Y-145351500D03*
X132105400Y-145351500D03*
X129565400Y-145351500D03*
D15*
X127025400Y-145351500D03*
G04 #@! TD*
D14*
G04 #@! TO.C,J8*
X107911900Y-145567400D03*
X105371900Y-145567400D03*
X102831900Y-145567400D03*
D15*
X100291900Y-145567400D03*
G04 #@! TD*
D14*
G04 #@! TO.C,J7*
X148107400Y-144703800D03*
X145567400Y-144703800D03*
X143027400Y-144703800D03*
D15*
X140487400Y-144703800D03*
G04 #@! TD*
D14*
G04 #@! TO.C,J6*
X161582100Y-144678400D03*
X159042100Y-144678400D03*
X156502100Y-144678400D03*
D15*
X153962100Y-144678400D03*
G04 #@! TD*
D14*
G04 #@! TO.C,J5*
X174574200Y-144767300D03*
X172034200Y-144767300D03*
X169494200Y-144767300D03*
D15*
X166954200Y-144767300D03*
G04 #@! TD*
D14*
G04 #@! TO.C,J4*
X121627900Y-145338800D03*
X119087900Y-145338800D03*
X116547900Y-145338800D03*
D15*
X114007900Y-145338800D03*
G04 #@! TD*
D14*
G04 #@! TO.C,J3*
X106743500Y-68389500D03*
X106743500Y-65849500D03*
X106743500Y-63309500D03*
D15*
X106743500Y-60769500D03*
G04 #@! TD*
D16*
G04 #@! TO.C,J2*
X91513500Y-59729500D03*
X95313500Y-59729500D03*
X91563500Y-68379500D03*
X95363500Y-68379500D03*
G04 #@! TD*
M02*
