%TF.GenerationSoftware,KiCad,Pcbnew,(6.0.2)*%
%TF.CreationDate,2022-05-11T05:14:46-07:00*%
%TF.ProjectId,InsulinCoolerBoard,496e7375-6c69-46e4-936f-6f6c6572426f,rev?*%
%TF.SameCoordinates,Original*%
%TF.FileFunction,Soldermask,Bot*%
%TF.FilePolarity,Negative*%
%FSLAX46Y46*%
G04 Gerber Fmt 4.6, Leading zero omitted, Abs format (unit mm)*
G04 Created by KiCad (PCBNEW (6.0.2)) date 2022-05-11 05:14:46*
%MOMM*%
%LPD*%
G01*
G04 APERTURE LIST*
G04 Aperture macros list*
%AMRoundRect*
0 Rectangle with rounded corners*
0 $1 Rounding radius*
0 $2 $3 $4 $5 $6 $7 $8 $9 X,Y pos of 4 corners*
0 Add a 4 corners polygon primitive as box body*
4,1,4,$2,$3,$4,$5,$6,$7,$8,$9,$2,$3,0*
0 Add four circle primitives for the rounded corners*
1,1,$1+$1,$2,$3*
1,1,$1+$1,$4,$5*
1,1,$1+$1,$6,$7*
1,1,$1+$1,$8,$9*
0 Add four rect primitives between the rounded corners*
20,1,$1+$1,$2,$3,$4,$5,0*
20,1,$1+$1,$4,$5,$6,$7,0*
20,1,$1+$1,$6,$7,$8,$9,0*
20,1,$1+$1,$8,$9,$2,$3,0*%
G04 Aperture macros list end*
%ADD10R,1.000000X1.000000*%
%ADD11O,1.000000X1.000000*%
%ADD12R,1.700000X1.700000*%
%ADD13O,1.700000X1.700000*%
%ADD14RoundRect,0.250000X-0.450000X0.350000X-0.450000X-0.350000X0.450000X-0.350000X0.450000X0.350000X0*%
%ADD15O,1.700000X1.100000*%
%ADD16RoundRect,0.250000X-0.350000X-0.450000X0.350000X-0.450000X0.350000X0.450000X-0.350000X0.450000X0*%
%ADD17R,3.500000X1.800000*%
%ADD18RoundRect,0.062500X-0.325000X-0.062500X0.325000X-0.062500X0.325000X0.062500X-0.325000X0.062500X0*%
%ADD19R,0.900000X1.650000*%
%ADD20RoundRect,0.150000X-0.512500X-0.150000X0.512500X-0.150000X0.512500X0.150000X-0.512500X0.150000X0*%
%ADD21R,0.650000X1.560000*%
%ADD22RoundRect,0.250000X0.475000X-0.337500X0.475000X0.337500X-0.475000X0.337500X-0.475000X-0.337500X0*%
%ADD23RoundRect,0.250000X-0.475000X0.337500X-0.475000X-0.337500X0.475000X-0.337500X0.475000X0.337500X0*%
%ADD24RoundRect,0.250000X0.350000X0.450000X-0.350000X0.450000X-0.350000X-0.450000X0.350000X-0.450000X0*%
%ADD25RoundRect,0.250000X-0.337500X-0.475000X0.337500X-0.475000X0.337500X0.475000X-0.337500X0.475000X0*%
%ADD26R,0.300000X0.450000*%
%ADD27R,1.500000X0.400000*%
%ADD28RoundRect,0.250000X0.337500X0.475000X-0.337500X0.475000X-0.337500X-0.475000X0.337500X-0.475000X0*%
%ADD29RoundRect,0.250000X-0.625000X0.400000X-0.625000X-0.400000X0.625000X-0.400000X0.625000X0.400000X0*%
%ADD30RoundRect,0.249999X-1.425001X0.450001X-1.425001X-0.450001X1.425001X-0.450001X1.425001X0.450001X0*%
%ADD31RoundRect,0.250000X0.450000X-0.350000X0.450000X0.350000X-0.450000X0.350000X-0.450000X-0.350000X0*%
%ADD32R,3.600000X2.700000*%
%ADD33R,1.700000X0.650000*%
%ADD34RoundRect,0.249999X1.425001X-0.450001X1.425001X0.450001X-1.425001X0.450001X-1.425001X-0.450001X0*%
G04 APERTURE END LIST*
D10*
%TO.C,TH3*%
X140142200Y-94716600D03*
D11*
X141412200Y-94716600D03*
%TD*%
D10*
%TO.C,TH2*%
X140131800Y-91465400D03*
D11*
X141401800Y-91465400D03*
%TD*%
D10*
%TO.C,TH1*%
X140182600Y-88188800D03*
D11*
X141452600Y-88188800D03*
%TD*%
D10*
%TO.C,SW1*%
X135458200Y-91363800D03*
D11*
X136728200Y-91363800D03*
%TD*%
D10*
%TO.C,J11*%
X134975600Y-88214200D03*
D11*
X136245600Y-88214200D03*
%TD*%
D10*
%TO.C,J4*%
X134340600Y-98298000D03*
D11*
X135610600Y-98298000D03*
%TD*%
D10*
%TO.C,J9*%
X123705899Y-87011901D03*
D11*
X122435899Y-87011901D03*
%TD*%
D12*
%TO.C,BT2*%
X114985800Y-72161400D03*
D13*
X114985800Y-69621400D03*
%TD*%
D14*
%TO.C,R20*%
X138328400Y-87493600D03*
X138328400Y-89493600D03*
%TD*%
D15*
%TO.C,J2*%
X99300055Y-92148600D03*
X103100055Y-92148600D03*
X103150055Y-100798600D03*
X99350055Y-100798600D03*
%TD*%
D12*
%TO.C,BT3*%
X124612400Y-71551800D03*
D13*
X124612400Y-74091800D03*
%TD*%
D14*
%TO.C,R21*%
X138277600Y-91303600D03*
X138277600Y-93303600D03*
%TD*%
%TO.C,R24*%
X138125200Y-95164400D03*
X138125200Y-97164400D03*
%TD*%
D12*
%TO.C,J1*%
X138175800Y-67949300D03*
D13*
X135635800Y-67949300D03*
%TD*%
D12*
%TO.C,BT1*%
X105181400Y-75514200D03*
D13*
X105181400Y-78054200D03*
%TD*%
D16*
%TO.C,R39*%
X113646200Y-98526600D03*
X115646200Y-98526600D03*
%TD*%
D14*
%TO.C,R34*%
X102260400Y-86858600D03*
X102260400Y-88858600D03*
%TD*%
D17*
%TO.C,D4*%
X105519800Y-98257400D03*
X110519800Y-98257400D03*
%TD*%
D16*
%TO.C,R26*%
X115687600Y-74676000D03*
X117687600Y-74676000D03*
%TD*%
D18*
%TO.C,U6*%
X133113700Y-74216500D03*
X133113700Y-73716500D03*
X133113700Y-73216500D03*
X133113700Y-72716500D03*
X135088700Y-72716500D03*
X135088700Y-73216500D03*
X135088700Y-73716500D03*
X135088700Y-74216500D03*
D19*
X134101200Y-73466500D03*
%TD*%
D14*
%TO.C,R9*%
X98806000Y-97018600D03*
X98806000Y-99018600D03*
%TD*%
D20*
%TO.C,U16*%
X138511700Y-83525400D03*
X138511700Y-82575400D03*
X138511700Y-81625400D03*
X140786700Y-81625400D03*
X140786700Y-82575400D03*
X140786700Y-83525400D03*
%TD*%
D21*
%TO.C,U15*%
X100365600Y-89818200D03*
X99415600Y-89818200D03*
X98465600Y-89818200D03*
X98465600Y-87118200D03*
X100365600Y-87118200D03*
%TD*%
D22*
%TO.C,C6*%
X122869299Y-92857701D03*
X122869299Y-90782701D03*
%TD*%
D18*
%TO.C,U18*%
X138009582Y-74341600D03*
X138009582Y-73841600D03*
X138009582Y-73341600D03*
X138009582Y-72841600D03*
X139984582Y-72841600D03*
X139984582Y-73341600D03*
X139984582Y-73841600D03*
X139984582Y-74341600D03*
D19*
X138997082Y-73591600D03*
%TD*%
D23*
%TO.C,C5*%
X126847299Y-94592701D03*
X126847299Y-96667701D03*
%TD*%
D24*
%TO.C,R25*%
X106079800Y-68986400D03*
X104079800Y-68986400D03*
%TD*%
D25*
%TO.C,C18*%
X130509100Y-88315800D03*
X132584100Y-88315800D03*
%TD*%
%TO.C,C10*%
X126492000Y-89027000D03*
X128567000Y-89027000D03*
%TD*%
D16*
%TO.C,R17*%
X98634800Y-81051400D03*
X100634800Y-81051400D03*
%TD*%
D26*
%TO.C,U2*%
X130934000Y-75338500D03*
X131434000Y-75338500D03*
X131934000Y-75338500D03*
X131934000Y-76738500D03*
X130934000Y-76738500D03*
%TD*%
D27*
%TO.C,U10*%
X109236200Y-70569200D03*
X109236200Y-69919200D03*
X109236200Y-69269200D03*
X111896200Y-69269200D03*
X111896200Y-69919200D03*
X111896200Y-70569200D03*
%TD*%
%TO.C,U11*%
X121116400Y-77549600D03*
X121116400Y-78199600D03*
X121116400Y-78849600D03*
X118456400Y-78849600D03*
X118456400Y-78199600D03*
X118456400Y-77549600D03*
%TD*%
D28*
%TO.C,C11*%
X141677300Y-85394800D03*
X139602300Y-85394800D03*
%TD*%
D14*
%TO.C,R8*%
X101219000Y-97679000D03*
X101219000Y-99679000D03*
%TD*%
%TO.C,R7*%
X106095800Y-87858600D03*
X106095800Y-89858600D03*
%TD*%
D22*
%TO.C,C9*%
X132511800Y-68576100D03*
X132511800Y-66501100D03*
%TD*%
D25*
%TO.C,C12*%
X127838200Y-70129400D03*
X129913200Y-70129400D03*
%TD*%
D16*
%TO.C,R1*%
X120218200Y-97282000D03*
X122218200Y-97282000D03*
%TD*%
D27*
%TO.C,U9*%
X101736200Y-77288200D03*
X101736200Y-77938200D03*
X101736200Y-78588200D03*
X99076200Y-78588200D03*
X99076200Y-77938200D03*
X99076200Y-77288200D03*
%TD*%
D23*
%TO.C,C7*%
X120456299Y-90528701D03*
X120456299Y-92603701D03*
%TD*%
D29*
%TO.C,R4*%
X127381000Y-72084600D03*
X127381000Y-75184600D03*
%TD*%
D23*
%TO.C,C13*%
X136550400Y-83493700D03*
X136550400Y-85568700D03*
%TD*%
D14*
%TO.C,R30*%
X99314000Y-83140800D03*
X99314000Y-85140800D03*
%TD*%
D30*
%TO.C,R16*%
X120548400Y-69746400D03*
X120548400Y-75846400D03*
%TD*%
D28*
%TO.C,C8*%
X133472799Y-92057101D03*
X131397799Y-92057101D03*
%TD*%
D22*
%TO.C,C14*%
X136575800Y-81631700D03*
X136575800Y-79556700D03*
%TD*%
D31*
%TO.C,R2*%
X135737600Y-95005400D03*
X135737600Y-93005400D03*
%TD*%
D16*
%TO.C,R22*%
X104029000Y-71145400D03*
X106029000Y-71145400D03*
%TD*%
D25*
%TO.C,C21*%
X104169300Y-94107000D03*
X106244300Y-94107000D03*
%TD*%
D31*
%TO.C,R33*%
X101066600Y-95183200D03*
X101066600Y-93183200D03*
%TD*%
D32*
%TO.C,L3*%
X112642600Y-94584200D03*
X112642600Y-86284200D03*
%TD*%
D33*
%TO.C,U22*%
X133573899Y-78553701D03*
X133573899Y-79823701D03*
X133573899Y-81093701D03*
X133573899Y-82363701D03*
X126273899Y-82363701D03*
X126273899Y-81093701D03*
X126273899Y-79823701D03*
X126273899Y-78553701D03*
%TD*%
D24*
%TO.C,R29*%
X125637800Y-68605400D03*
X123637800Y-68605400D03*
%TD*%
D34*
%TO.C,R15*%
X111023400Y-78481000D03*
X111023400Y-72381000D03*
%TD*%
D31*
%TO.C,R6*%
X103606600Y-85074000D03*
X103606600Y-83074000D03*
%TD*%
D30*
%TO.C,R12*%
X101193600Y-69365400D03*
X101193600Y-75465400D03*
%TD*%
D31*
%TO.C,R31*%
X101371400Y-85140800D03*
X101371400Y-83140800D03*
%TD*%
%TO.C,R5*%
X105689400Y-85886800D03*
X105689400Y-83886800D03*
%TD*%
M02*
