%TF.GenerationSoftware,KiCad,Pcbnew,(6.0.2)*%
%TF.CreationDate,2022-05-11T05:14:46-07:00*%
%TF.ProjectId,InsulinCoolerBoard,496e7375-6c69-46e4-936f-6f6c6572426f,rev?*%
%TF.SameCoordinates,Original*%
%TF.FileFunction,Paste,Top*%
%TF.FilePolarity,Positive*%
%FSLAX46Y46*%
G04 Gerber Fmt 4.6, Leading zero omitted, Abs format (unit mm)*
G04 Created by KiCad (PCBNEW (6.0.2)) date 2022-05-11 05:14:46*
%MOMM*%
%LPD*%
G01*
G04 APERTURE LIST*
G04 Aperture macros list*
%AMRoundRect*
0 Rectangle with rounded corners*
0 $1 Rounding radius*
0 $2 $3 $4 $5 $6 $7 $8 $9 X,Y pos of 4 corners*
0 Add a 4 corners polygon primitive as box body*
4,1,4,$2,$3,$4,$5,$6,$7,$8,$9,$2,$3,0*
0 Add four circle primitives for the rounded corners*
1,1,$1+$1,$2,$3*
1,1,$1+$1,$4,$5*
1,1,$1+$1,$6,$7*
1,1,$1+$1,$8,$9*
0 Add four rect primitives between the rounded corners*
20,1,$1+$1,$2,$3,$4,$5,0*
20,1,$1+$1,$4,$5,$6,$7,0*
20,1,$1+$1,$6,$7,$8,$9,0*
20,1,$1+$1,$8,$9,$2,$3,0*%
%AMFreePoly0*
4,1,9,3.862500,-0.866500,0.737500,-0.866500,0.737500,-0.450000,-0.737500,-0.450000,-0.737500,0.450000,0.737500,0.450000,0.737500,0.866500,3.862500,0.866500,3.862500,-0.866500,3.862500,-0.866500,$1*%
G04 Aperture macros list end*
%ADD10RoundRect,0.250000X0.475000X-0.337500X0.475000X0.337500X-0.475000X0.337500X-0.475000X-0.337500X0*%
%ADD11RoundRect,0.237500X0.237500X-0.287500X0.237500X0.287500X-0.237500X0.287500X-0.237500X-0.287500X0*%
%ADD12R,1.600000X3.100000*%
%ADD13R,2.400000X4.200000*%
%ADD14RoundRect,0.250000X0.450000X-0.350000X0.450000X0.350000X-0.450000X0.350000X-0.450000X-0.350000X0*%
%ADD15RoundRect,0.250000X-0.337500X-0.475000X0.337500X-0.475000X0.337500X0.475000X-0.337500X0.475000X0*%
%ADD16RoundRect,0.237500X0.300000X0.237500X-0.300000X0.237500X-0.300000X-0.237500X0.300000X-0.237500X0*%
%ADD17R,1.600000X0.700000*%
%ADD18R,1.600000X0.760000*%
%ADD19R,1.600000X0.800000*%
%ADD20RoundRect,0.250000X0.350000X0.450000X-0.350000X0.450000X-0.350000X-0.450000X0.350000X-0.450000X0*%
%ADD21R,1.800000X2.100000*%
%ADD22RoundRect,0.250000X-0.650000X0.350000X-0.650000X-0.350000X0.650000X-0.350000X0.650000X0.350000X0*%
%ADD23R,5.250000X4.550000*%
%ADD24R,1.100000X4.600000*%
%ADD25RoundRect,0.247500X0.247500X-0.247500X0.247500X0.247500X-0.247500X0.247500X-0.247500X-0.247500X0*%
%ADD26RoundRect,0.050000X0.050000X-0.350000X0.050000X0.350000X-0.050000X0.350000X-0.050000X-0.350000X0*%
%ADD27RoundRect,0.050000X0.350000X-0.050000X0.350000X0.050000X-0.350000X0.050000X-0.350000X-0.050000X0*%
%ADD28RoundRect,0.250000X-0.475000X0.337500X-0.475000X-0.337500X0.475000X-0.337500X0.475000X0.337500X0*%
%ADD29R,1.300000X0.900000*%
%ADD30FreePoly0,0.000000*%
%ADD31RoundRect,0.150000X0.825000X0.150000X-0.825000X0.150000X-0.825000X-0.150000X0.825000X-0.150000X0*%
%ADD32RoundRect,0.150000X0.150000X-0.725000X0.150000X0.725000X-0.150000X0.725000X-0.150000X-0.725000X0*%
%ADD33RoundRect,0.250000X0.337500X0.475000X-0.337500X0.475000X-0.337500X-0.475000X0.337500X-0.475000X0*%
%ADD34RoundRect,0.250000X-0.350000X-0.450000X0.350000X-0.450000X0.350000X0.450000X-0.350000X0.450000X0*%
%ADD35RoundRect,0.250000X-0.450000X0.350000X-0.450000X-0.350000X0.450000X-0.350000X0.450000X0.350000X0*%
G04 APERTURE END LIST*
D10*
%TO.C,C17*%
X128270000Y-76348500D03*
X128270000Y-74273500D03*
%TD*%
D11*
%TO.C,L1*%
X126669800Y-100341400D03*
X126669800Y-98591400D03*
%TD*%
D12*
%TO.C,U14*%
X118465600Y-78428200D03*
X121005600Y-78428200D03*
X121005600Y-69538200D03*
X118465600Y-69538200D03*
%TD*%
D13*
%TO.C,L2*%
X141097000Y-83769200D03*
X136597000Y-83769200D03*
%TD*%
D14*
%TO.C,R10*%
X129822299Y-99196400D03*
X129822299Y-97196400D03*
%TD*%
D15*
%TO.C,C3*%
X120175200Y-97282000D03*
X122250200Y-97282000D03*
%TD*%
D16*
%TO.C,C2*%
X126617900Y-96977200D03*
X124892900Y-96977200D03*
%TD*%
%TO.C,C1*%
X126644400Y-101955600D03*
X124919400Y-101955600D03*
%TD*%
D17*
%TO.C,J2*%
X103100055Y-95998600D03*
D18*
X103100055Y-98018600D03*
D19*
X103100055Y-99248600D03*
D17*
X103100055Y-96998600D03*
D18*
X103100055Y-94978600D03*
D19*
X103100055Y-93748600D03*
%TD*%
D20*
%TO.C,R40*%
X115655600Y-98501200D03*
X113655600Y-98501200D03*
%TD*%
D21*
%TO.C,Y1*%
X122783299Y-93174701D03*
X122783299Y-90274701D03*
X120583299Y-90274701D03*
X120583299Y-93174701D03*
%TD*%
D22*
%TO.C,AE1*%
X126644400Y-105613200D03*
X126644400Y-108513200D03*
%TD*%
D23*
%TO.C,U17*%
X109105600Y-83211800D03*
X109105600Y-88061800D03*
X114655600Y-83211800D03*
X114655600Y-88061800D03*
D24*
X108480600Y-94786800D03*
X110180600Y-94786800D03*
X111880600Y-94786800D03*
X113580600Y-94786800D03*
X115280600Y-94786800D03*
%TD*%
D25*
%TO.C,U1*%
X127308299Y-93282701D03*
X129768299Y-92052701D03*
X129768299Y-90822701D03*
X128538299Y-92052701D03*
X128538299Y-90822701D03*
X129768299Y-93282701D03*
X127308299Y-92052701D03*
X127308299Y-90822701D03*
X128538299Y-93282701D03*
D26*
X126263299Y-94502701D03*
X126613299Y-94502701D03*
X126963299Y-94502701D03*
X127313299Y-94502701D03*
X127663299Y-94502701D03*
X128013299Y-94502701D03*
X128363299Y-94502701D03*
X128713299Y-94502701D03*
X129063299Y-94502701D03*
X129413299Y-94502701D03*
X129763299Y-94502701D03*
X130113299Y-94502701D03*
X130463299Y-94502701D03*
X130813299Y-94502701D03*
D27*
X130988299Y-93627701D03*
X130988299Y-93277701D03*
X130988299Y-92927701D03*
X130988299Y-92577701D03*
X130988299Y-92227701D03*
X130988299Y-91877701D03*
X130988299Y-91527701D03*
X130988299Y-91177701D03*
X130988299Y-90827701D03*
X130988299Y-90477701D03*
D26*
X130813299Y-89602701D03*
X130463299Y-89602701D03*
X130113299Y-89602701D03*
X129763299Y-89602701D03*
X129413299Y-89602701D03*
X129063299Y-89602701D03*
X128713299Y-89602701D03*
X128363299Y-89602701D03*
X128013299Y-89602701D03*
X127663299Y-89602701D03*
X127313299Y-89602701D03*
X126963299Y-89602701D03*
X126613299Y-89602701D03*
X126263299Y-89602701D03*
D27*
X126088299Y-90477701D03*
X126088299Y-90827701D03*
X126088299Y-91177701D03*
X126088299Y-91527701D03*
X126088299Y-91877701D03*
X126088299Y-92227701D03*
X126088299Y-92577701D03*
X126088299Y-92927701D03*
X126088299Y-93277701D03*
X126088299Y-93627701D03*
%TD*%
D28*
%TO.C,C16*%
X132108299Y-97298901D03*
X132108299Y-99373901D03*
%TD*%
D29*
%TO.C,U19*%
X127382000Y-66902200D03*
D30*
X127469500Y-68402200D03*
D29*
X127382000Y-69902200D03*
%TD*%
D20*
%TO.C,R27*%
X115960400Y-74980800D03*
X113960400Y-74980800D03*
%TD*%
D31*
%TO.C,U5*%
X103465400Y-89052400D03*
X103465400Y-87782400D03*
X103465400Y-86512400D03*
X103465400Y-85242400D03*
X103465400Y-83972400D03*
X103465400Y-82702400D03*
X103465400Y-81432400D03*
X98515400Y-81432400D03*
X98515400Y-82702400D03*
X98515400Y-83972400D03*
X98515400Y-85242400D03*
X98515400Y-86512400D03*
X98515400Y-87782400D03*
X98515400Y-89052400D03*
%TD*%
D32*
%TO.C,U4*%
X138060982Y-76142400D03*
X139330982Y-76142400D03*
X140600982Y-76142400D03*
X141870982Y-76142400D03*
X141870982Y-70992400D03*
X140600982Y-70992400D03*
X139330982Y-70992400D03*
X138060982Y-70992400D03*
%TD*%
D12*
%TO.C,U12*%
X99136200Y-78624000D03*
X101676200Y-78624000D03*
X101676200Y-69734000D03*
X99136200Y-69734000D03*
%TD*%
D33*
%TO.C,C4*%
X122250200Y-99314000D03*
X120175200Y-99314000D03*
%TD*%
D32*
%TO.C,U3*%
X132500800Y-76124300D03*
X133770800Y-76124300D03*
X135040800Y-76124300D03*
X136310800Y-76124300D03*
X136310800Y-70974300D03*
X135040800Y-70974300D03*
X133770800Y-70974300D03*
X132500800Y-70974300D03*
%TD*%
D12*
%TO.C,U13*%
X111404400Y-69487400D03*
X108864400Y-69487400D03*
X108864400Y-78377400D03*
X111404400Y-78377400D03*
%TD*%
D14*
%TO.C,R23*%
X106070400Y-71078600D03*
X106070400Y-69078600D03*
%TD*%
D34*
%TO.C,R28*%
X123628400Y-68605400D03*
X125628400Y-68605400D03*
%TD*%
%TO.C,R18*%
X113960400Y-78308200D03*
X115960400Y-78308200D03*
%TD*%
D35*
%TO.C,R19*%
X119100600Y-81143600D03*
X119100600Y-83143600D03*
%TD*%
M02*
