%TF.GenerationSoftware,KiCad,Pcbnew,(6.0.2)*%
%TF.CreationDate,2022-05-11T05:14:46-07:00*%
%TF.ProjectId,InsulinCoolerBoard,496e7375-6c69-46e4-936f-6f6c6572426f,rev?*%
%TF.SameCoordinates,Original*%
%TF.FileFunction,Legend,Top*%
%TF.FilePolarity,Positive*%
%FSLAX46Y46*%
G04 Gerber Fmt 4.6, Leading zero omitted, Abs format (unit mm)*
G04 Created by KiCad (PCBNEW (6.0.2)) date 2022-05-11 05:14:46*
%MOMM*%
%LPD*%
G01*
G04 APERTURE LIST*
%ADD10C,0.200000*%
%ADD11C,0.400000*%
%ADD12C,0.150000*%
%ADD13C,0.120000*%
G04 APERTURE END LIST*
D10*
X98349847Y-106346761D02*
X98349847Y-107775333D01*
X98254609Y-108061047D01*
X98064133Y-108251523D01*
X97778419Y-108346761D01*
X97587942Y-108346761D01*
X99587942Y-108346761D02*
X99397466Y-108251523D01*
X99302228Y-108156285D01*
X99206990Y-107965809D01*
X99206990Y-107394380D01*
X99302228Y-107203904D01*
X99397466Y-107108666D01*
X99587942Y-107013428D01*
X99873657Y-107013428D01*
X100064133Y-107108666D01*
X100159371Y-107203904D01*
X100254609Y-107394380D01*
X100254609Y-107965809D01*
X100159371Y-108156285D01*
X100064133Y-108251523D01*
X99873657Y-108346761D01*
X99587942Y-108346761D01*
X101873657Y-108251523D02*
X101683180Y-108346761D01*
X101302228Y-108346761D01*
X101111752Y-108251523D01*
X101016514Y-108061047D01*
X101016514Y-107299142D01*
X101111752Y-107108666D01*
X101302228Y-107013428D01*
X101683180Y-107013428D01*
X101873657Y-107108666D01*
X101968895Y-107299142D01*
X101968895Y-107489619D01*
X101016514Y-107680095D01*
X102730800Y-108251523D02*
X102921276Y-108346761D01*
X103302228Y-108346761D01*
X103492704Y-108251523D01*
X103587942Y-108061047D01*
X103587942Y-107965809D01*
X103492704Y-107775333D01*
X103302228Y-107680095D01*
X103016514Y-107680095D01*
X102826038Y-107584857D01*
X102730800Y-107394380D01*
X102730800Y-107299142D01*
X102826038Y-107108666D01*
X103016514Y-107013428D01*
X103302228Y-107013428D01*
X103492704Y-107108666D01*
X104445085Y-107013428D02*
X104445085Y-109013428D01*
X104445085Y-107108666D02*
X104635561Y-107013428D01*
X105016514Y-107013428D01*
X105206990Y-107108666D01*
X105302228Y-107203904D01*
X105397466Y-107394380D01*
X105397466Y-107965809D01*
X105302228Y-108156285D01*
X105206990Y-108251523D01*
X105016514Y-108346761D01*
X104635561Y-108346761D01*
X104445085Y-108251523D01*
X106254609Y-108346761D02*
X106254609Y-106346761D01*
X107111752Y-108346761D02*
X107111752Y-107299142D01*
X107016514Y-107108666D01*
X106826038Y-107013428D01*
X106540323Y-107013428D01*
X106349847Y-107108666D01*
X106254609Y-107203904D01*
X108921276Y-108346761D02*
X108921276Y-107299142D01*
X108826038Y-107108666D01*
X108635561Y-107013428D01*
X108254609Y-107013428D01*
X108064133Y-107108666D01*
X108921276Y-108251523D02*
X108730800Y-108346761D01*
X108254609Y-108346761D01*
X108064133Y-108251523D01*
X107968895Y-108061047D01*
X107968895Y-107870571D01*
X108064133Y-107680095D01*
X108254609Y-107584857D01*
X108730800Y-107584857D01*
X108921276Y-107489619D01*
X109873657Y-107013428D02*
X109873657Y-108346761D01*
X109873657Y-107203904D02*
X109968895Y-107108666D01*
X110159371Y-107013428D01*
X110445085Y-107013428D01*
X110635561Y-107108666D01*
X110730800Y-107299142D01*
X110730800Y-108346761D01*
X114159371Y-108346761D02*
X113206990Y-108346761D01*
X113206990Y-106346761D01*
X115683180Y-107013428D02*
X115683180Y-108346761D01*
X114826038Y-107013428D02*
X114826038Y-108061047D01*
X114921276Y-108251523D01*
X115111752Y-108346761D01*
X115397466Y-108346761D01*
X115587942Y-108251523D01*
X115683180Y-108156285D01*
D11*
X98074152Y-105601152D02*
X98074152Y-103101152D01*
X99264628Y-103934485D02*
X99264628Y-105601152D01*
X99264628Y-104172580D02*
X99383676Y-104053533D01*
X99621771Y-103934485D01*
X99978914Y-103934485D01*
X100217009Y-104053533D01*
X100336057Y-104291628D01*
X100336057Y-105601152D01*
X101407485Y-105482104D02*
X101645580Y-105601152D01*
X102121771Y-105601152D01*
X102359866Y-105482104D01*
X102478914Y-105244009D01*
X102478914Y-105124961D01*
X102359866Y-104886866D01*
X102121771Y-104767819D01*
X101764628Y-104767819D01*
X101526533Y-104648771D01*
X101407485Y-104410676D01*
X101407485Y-104291628D01*
X101526533Y-104053533D01*
X101764628Y-103934485D01*
X102121771Y-103934485D01*
X102359866Y-104053533D01*
X104621771Y-103934485D02*
X104621771Y-105601152D01*
X103550342Y-103934485D02*
X103550342Y-105244009D01*
X103669390Y-105482104D01*
X103907485Y-105601152D01*
X104264628Y-105601152D01*
X104502723Y-105482104D01*
X104621771Y-105363057D01*
X106169390Y-105601152D02*
X105931295Y-105482104D01*
X105812247Y-105244009D01*
X105812247Y-103101152D01*
X107121771Y-105601152D02*
X107121771Y-103934485D01*
X107121771Y-103101152D02*
X107002723Y-103220200D01*
X107121771Y-103339247D01*
X107240819Y-103220200D01*
X107121771Y-103101152D01*
X107121771Y-103339247D01*
X108312247Y-103934485D02*
X108312247Y-105601152D01*
X108312247Y-104172580D02*
X108431295Y-104053533D01*
X108669390Y-103934485D01*
X109026533Y-103934485D01*
X109264628Y-104053533D01*
X109383676Y-104291628D01*
X109383676Y-105601152D01*
X113907485Y-105363057D02*
X113788438Y-105482104D01*
X113431295Y-105601152D01*
X113193200Y-105601152D01*
X112836057Y-105482104D01*
X112597961Y-105244009D01*
X112478914Y-105005914D01*
X112359866Y-104529723D01*
X112359866Y-104172580D01*
X112478914Y-103696390D01*
X112597961Y-103458295D01*
X112836057Y-103220200D01*
X113193200Y-103101152D01*
X113431295Y-103101152D01*
X113788438Y-103220200D01*
X113907485Y-103339247D01*
X115336057Y-105601152D02*
X115097961Y-105482104D01*
X114978914Y-105363057D01*
X114859866Y-105124961D01*
X114859866Y-104410676D01*
X114978914Y-104172580D01*
X115097961Y-104053533D01*
X115336057Y-103934485D01*
X115693200Y-103934485D01*
X115931295Y-104053533D01*
X116050342Y-104172580D01*
X116169390Y-104410676D01*
X116169390Y-105124961D01*
X116050342Y-105363057D01*
X115931295Y-105482104D01*
X115693200Y-105601152D01*
X115336057Y-105601152D01*
X117597961Y-105601152D02*
X117359866Y-105482104D01*
X117240819Y-105363057D01*
X117121771Y-105124961D01*
X117121771Y-104410676D01*
X117240819Y-104172580D01*
X117359866Y-104053533D01*
X117597961Y-103934485D01*
X117955104Y-103934485D01*
X118193200Y-104053533D01*
X118312247Y-104172580D01*
X118431295Y-104410676D01*
X118431295Y-105124961D01*
X118312247Y-105363057D01*
X118193200Y-105482104D01*
X117955104Y-105601152D01*
X117597961Y-105601152D01*
X119859866Y-105601152D02*
X119621771Y-105482104D01*
X119502723Y-105244009D01*
X119502723Y-103101152D01*
X121764628Y-105482104D02*
X121526533Y-105601152D01*
X121050342Y-105601152D01*
X120812247Y-105482104D01*
X120693200Y-105244009D01*
X120693200Y-104291628D01*
X120812247Y-104053533D01*
X121050342Y-103934485D01*
X121526533Y-103934485D01*
X121764628Y-104053533D01*
X121883676Y-104291628D01*
X121883676Y-104529723D01*
X120693200Y-104767819D01*
X122955104Y-105601152D02*
X122955104Y-103934485D01*
X122955104Y-104410676D02*
X123074152Y-104172580D01*
X123193200Y-104053533D01*
X123431295Y-103934485D01*
X123669390Y-103934485D01*
D12*
%TO.C,TH3*%
X137899580Y-96002314D02*
X137899580Y-95430885D01*
X138899580Y-95716600D02*
X137899580Y-95716600D01*
X138899580Y-95097552D02*
X137899580Y-95097552D01*
X138375771Y-95097552D02*
X138375771Y-94526123D01*
X138899580Y-94526123D02*
X137899580Y-94526123D01*
X137899580Y-94145171D02*
X137899580Y-93526123D01*
X138280533Y-93859457D01*
X138280533Y-93716600D01*
X138328152Y-93621361D01*
X138375771Y-93573742D01*
X138471009Y-93526123D01*
X138709104Y-93526123D01*
X138804342Y-93573742D01*
X138851961Y-93621361D01*
X138899580Y-93716600D01*
X138899580Y-94002314D01*
X138851961Y-94097552D01*
X138804342Y-94145171D01*
%TO.C,TH2*%
X137889180Y-92751114D02*
X137889180Y-92179685D01*
X138889180Y-92465400D02*
X137889180Y-92465400D01*
X138889180Y-91846352D02*
X137889180Y-91846352D01*
X138365371Y-91846352D02*
X138365371Y-91274923D01*
X138889180Y-91274923D02*
X137889180Y-91274923D01*
X137984419Y-90846352D02*
X137936800Y-90798733D01*
X137889180Y-90703495D01*
X137889180Y-90465400D01*
X137936800Y-90370161D01*
X137984419Y-90322542D01*
X138079657Y-90274923D01*
X138174895Y-90274923D01*
X138317752Y-90322542D01*
X138889180Y-90893971D01*
X138889180Y-90274923D01*
%TO.C,TH1*%
X137939980Y-89474514D02*
X137939980Y-88903085D01*
X138939980Y-89188800D02*
X137939980Y-89188800D01*
X138939980Y-88569752D02*
X137939980Y-88569752D01*
X138416171Y-88569752D02*
X138416171Y-87998323D01*
X138939980Y-87998323D02*
X137939980Y-87998323D01*
X138939980Y-86998323D02*
X138939980Y-87569752D01*
X138939980Y-87284038D02*
X137939980Y-87284038D01*
X138082838Y-87379276D01*
X138178076Y-87474514D01*
X138225695Y-87569752D01*
%TO.C,SW1*%
X134167961Y-92697133D02*
X134215580Y-92554276D01*
X134215580Y-92316180D01*
X134167961Y-92220942D01*
X134120342Y-92173323D01*
X134025104Y-92125704D01*
X133929866Y-92125704D01*
X133834628Y-92173323D01*
X133787009Y-92220942D01*
X133739390Y-92316180D01*
X133691771Y-92506657D01*
X133644152Y-92601895D01*
X133596533Y-92649514D01*
X133501295Y-92697133D01*
X133406057Y-92697133D01*
X133310819Y-92649514D01*
X133263200Y-92601895D01*
X133215580Y-92506657D01*
X133215580Y-92268561D01*
X133263200Y-92125704D01*
X133215580Y-91792371D02*
X134215580Y-91554276D01*
X133501295Y-91363800D01*
X134215580Y-91173323D01*
X133215580Y-90935228D01*
X134215580Y-90030466D02*
X134215580Y-90601895D01*
X134215580Y-90316180D02*
X133215580Y-90316180D01*
X133358438Y-90411419D01*
X133453676Y-90506657D01*
X133501295Y-90601895D01*
%TO.C,J11*%
X132732980Y-89023723D02*
X133447266Y-89023723D01*
X133590123Y-89071342D01*
X133685361Y-89166580D01*
X133732980Y-89309438D01*
X133732980Y-89404676D01*
X133732980Y-88023723D02*
X133732980Y-88595152D01*
X133732980Y-88309438D02*
X132732980Y-88309438D01*
X132875838Y-88404676D01*
X132971076Y-88499914D01*
X133018695Y-88595152D01*
X133732980Y-87071342D02*
X133732980Y-87642771D01*
X133732980Y-87357057D02*
X132732980Y-87357057D01*
X132875838Y-87452295D01*
X132971076Y-87547533D01*
X133018695Y-87642771D01*
%TO.C,J4*%
X133651666Y-96505780D02*
X133651666Y-97220066D01*
X133604047Y-97362923D01*
X133508809Y-97458161D01*
X133365952Y-97505780D01*
X133270714Y-97505780D01*
X134556428Y-96839114D02*
X134556428Y-97505780D01*
X134318333Y-96458161D02*
X134080238Y-97172447D01*
X134699285Y-97172447D01*
%TO.C,J9*%
X124853279Y-87345234D02*
X125567565Y-87345234D01*
X125710422Y-87392853D01*
X125805660Y-87488091D01*
X125853279Y-87630948D01*
X125853279Y-87726186D01*
X125853279Y-86821424D02*
X125853279Y-86630948D01*
X125805660Y-86535710D01*
X125758041Y-86488091D01*
X125615184Y-86392853D01*
X125424708Y-86345234D01*
X125043756Y-86345234D01*
X124948518Y-86392853D01*
X124900899Y-86440472D01*
X124853279Y-86535710D01*
X124853279Y-86726186D01*
X124900899Y-86821424D01*
X124948518Y-86869043D01*
X125043756Y-86916662D01*
X125281851Y-86916662D01*
X125377089Y-86869043D01*
X125424708Y-86821424D01*
X125472327Y-86726186D01*
X125472327Y-86535710D01*
X125424708Y-86440472D01*
X125377089Y-86392853D01*
X125281851Y-86345234D01*
%TO.C,C17*%
X127026942Y-75928457D02*
X127074561Y-75976076D01*
X127122180Y-76118933D01*
X127122180Y-76214171D01*
X127074561Y-76357028D01*
X126979323Y-76452266D01*
X126884085Y-76499885D01*
X126693609Y-76547504D01*
X126550752Y-76547504D01*
X126360276Y-76499885D01*
X126265038Y-76452266D01*
X126169800Y-76357028D01*
X126122180Y-76214171D01*
X126122180Y-76118933D01*
X126169800Y-75976076D01*
X126217419Y-75928457D01*
X127122180Y-74976076D02*
X127122180Y-75547504D01*
X127122180Y-75261790D02*
X126122180Y-75261790D01*
X126265038Y-75357028D01*
X126360276Y-75452266D01*
X126407895Y-75547504D01*
X126122180Y-74642742D02*
X126122180Y-73976076D01*
X127122180Y-74404647D01*
%TO.C,L1*%
X125692180Y-99633066D02*
X125692180Y-100109257D01*
X124692180Y-100109257D01*
X125692180Y-98775923D02*
X125692180Y-99347352D01*
X125692180Y-99061638D02*
X124692180Y-99061638D01*
X124835038Y-99156876D01*
X124930276Y-99252114D01*
X124977895Y-99347352D01*
%TO.C,U14*%
X118827704Y-66452580D02*
X118827704Y-67262104D01*
X118875323Y-67357342D01*
X118922942Y-67404961D01*
X119018180Y-67452580D01*
X119208657Y-67452580D01*
X119303895Y-67404961D01*
X119351514Y-67357342D01*
X119399133Y-67262104D01*
X119399133Y-66452580D01*
X120399133Y-67452580D02*
X119827704Y-67452580D01*
X120113419Y-67452580D02*
X120113419Y-66452580D01*
X120018180Y-66595438D01*
X119922942Y-66690676D01*
X119827704Y-66738295D01*
X121256276Y-66785914D02*
X121256276Y-67452580D01*
X121018180Y-66404961D02*
X120780085Y-67119247D01*
X121399133Y-67119247D01*
%TO.C,L2*%
X138756533Y-80716380D02*
X138280342Y-80716380D01*
X138280342Y-79716380D01*
X139042247Y-79811619D02*
X139089866Y-79764000D01*
X139185104Y-79716380D01*
X139423200Y-79716380D01*
X139518438Y-79764000D01*
X139566057Y-79811619D01*
X139613676Y-79906857D01*
X139613676Y-80002095D01*
X139566057Y-80144952D01*
X138994628Y-80716380D01*
X139613676Y-80716380D01*
%TO.C,R10*%
X128624679Y-98839257D02*
X128148489Y-99172590D01*
X128624679Y-99410685D02*
X127624679Y-99410685D01*
X127624679Y-99029733D01*
X127672299Y-98934495D01*
X127719918Y-98886876D01*
X127815156Y-98839257D01*
X127958013Y-98839257D01*
X128053251Y-98886876D01*
X128100870Y-98934495D01*
X128148489Y-99029733D01*
X128148489Y-99410685D01*
X128624679Y-97886876D02*
X128624679Y-98458304D01*
X128624679Y-98172590D02*
X127624679Y-98172590D01*
X127767537Y-98267828D01*
X127862775Y-98363066D01*
X127910394Y-98458304D01*
X127624679Y-97267828D02*
X127624679Y-97172590D01*
X127672299Y-97077352D01*
X127719918Y-97029733D01*
X127815156Y-96982114D01*
X128005632Y-96934495D01*
X128243727Y-96934495D01*
X128434203Y-96982114D01*
X128529441Y-97029733D01*
X128577060Y-97077352D01*
X128624679Y-97172590D01*
X128624679Y-97267828D01*
X128577060Y-97363066D01*
X128529441Y-97410685D01*
X128434203Y-97458304D01*
X128243727Y-97505923D01*
X128005632Y-97505923D01*
X127815156Y-97458304D01*
X127719918Y-97410685D01*
X127672299Y-97363066D01*
X127624679Y-97267828D01*
%TO.C,C3*%
X121046033Y-95959142D02*
X120998414Y-96006761D01*
X120855557Y-96054380D01*
X120760319Y-96054380D01*
X120617461Y-96006761D01*
X120522223Y-95911523D01*
X120474604Y-95816285D01*
X120426985Y-95625809D01*
X120426985Y-95482952D01*
X120474604Y-95292476D01*
X120522223Y-95197238D01*
X120617461Y-95102000D01*
X120760319Y-95054380D01*
X120855557Y-95054380D01*
X120998414Y-95102000D01*
X121046033Y-95149619D01*
X121379366Y-95054380D02*
X121998414Y-95054380D01*
X121665080Y-95435333D01*
X121807938Y-95435333D01*
X121903176Y-95482952D01*
X121950795Y-95530571D01*
X121998414Y-95625809D01*
X121998414Y-95863904D01*
X121950795Y-95959142D01*
X121903176Y-96006761D01*
X121807938Y-96054380D01*
X121522223Y-96054380D01*
X121426985Y-96006761D01*
X121379366Y-95959142D01*
%TO.C,C2*%
X124115533Y-98731342D02*
X124067914Y-98778961D01*
X123925057Y-98826580D01*
X123829819Y-98826580D01*
X123686961Y-98778961D01*
X123591723Y-98683723D01*
X123544104Y-98588485D01*
X123496485Y-98398009D01*
X123496485Y-98255152D01*
X123544104Y-98064676D01*
X123591723Y-97969438D01*
X123686961Y-97874200D01*
X123829819Y-97826580D01*
X123925057Y-97826580D01*
X124067914Y-97874200D01*
X124115533Y-97921819D01*
X124496485Y-97921819D02*
X124544104Y-97874200D01*
X124639342Y-97826580D01*
X124877438Y-97826580D01*
X124972676Y-97874200D01*
X125020295Y-97921819D01*
X125067914Y-98017057D01*
X125067914Y-98112295D01*
X125020295Y-98255152D01*
X124448866Y-98826580D01*
X125067914Y-98826580D01*
%TO.C,C1*%
X125615233Y-103742742D02*
X125567614Y-103790361D01*
X125424757Y-103837980D01*
X125329519Y-103837980D01*
X125186661Y-103790361D01*
X125091423Y-103695123D01*
X125043804Y-103599885D01*
X124996185Y-103409409D01*
X124996185Y-103266552D01*
X125043804Y-103076076D01*
X125091423Y-102980838D01*
X125186661Y-102885600D01*
X125329519Y-102837980D01*
X125424757Y-102837980D01*
X125567614Y-102885600D01*
X125615233Y-102933219D01*
X126567614Y-103837980D02*
X125996185Y-103837980D01*
X126281900Y-103837980D02*
X126281900Y-102837980D01*
X126186661Y-102980838D01*
X126091423Y-103076076D01*
X125996185Y-103123695D01*
%TO.C,BT2*%
X114352485Y-66954171D02*
X114495342Y-67001790D01*
X114542961Y-67049409D01*
X114590580Y-67144647D01*
X114590580Y-67287504D01*
X114542961Y-67382742D01*
X114495342Y-67430361D01*
X114400104Y-67477980D01*
X114019152Y-67477980D01*
X114019152Y-66477980D01*
X114352485Y-66477980D01*
X114447723Y-66525600D01*
X114495342Y-66573219D01*
X114542961Y-66668457D01*
X114542961Y-66763695D01*
X114495342Y-66858933D01*
X114447723Y-66906552D01*
X114352485Y-66954171D01*
X114019152Y-66954171D01*
X114876295Y-66477980D02*
X115447723Y-66477980D01*
X115162009Y-67477980D02*
X115162009Y-66477980D01*
X115733438Y-66573219D02*
X115781057Y-66525600D01*
X115876295Y-66477980D01*
X116114390Y-66477980D01*
X116209628Y-66525600D01*
X116257247Y-66573219D01*
X116304866Y-66668457D01*
X116304866Y-66763695D01*
X116257247Y-66906552D01*
X115685819Y-67477980D01*
X116304866Y-67477980D01*
%TO.C,J2*%
X104619466Y-93716180D02*
X104619466Y-94430466D01*
X104571847Y-94573323D01*
X104476609Y-94668561D01*
X104333752Y-94716180D01*
X104238514Y-94716180D01*
X105048038Y-93811419D02*
X105095657Y-93763800D01*
X105190895Y-93716180D01*
X105428990Y-93716180D01*
X105524228Y-93763800D01*
X105571847Y-93811419D01*
X105619466Y-93906657D01*
X105619466Y-94001895D01*
X105571847Y-94144752D01*
X105000419Y-94716180D01*
X105619466Y-94716180D01*
%TO.C,R40*%
X114012742Y-100603580D02*
X113679409Y-100127390D01*
X113441314Y-100603580D02*
X113441314Y-99603580D01*
X113822266Y-99603580D01*
X113917504Y-99651200D01*
X113965123Y-99698819D01*
X114012742Y-99794057D01*
X114012742Y-99936914D01*
X113965123Y-100032152D01*
X113917504Y-100079771D01*
X113822266Y-100127390D01*
X113441314Y-100127390D01*
X114869885Y-99936914D02*
X114869885Y-100603580D01*
X114631790Y-99555961D02*
X114393695Y-100270247D01*
X115012742Y-100270247D01*
X115584171Y-99603580D02*
X115679409Y-99603580D01*
X115774647Y-99651200D01*
X115822266Y-99698819D01*
X115869885Y-99794057D01*
X115917504Y-99984533D01*
X115917504Y-100222628D01*
X115869885Y-100413104D01*
X115822266Y-100508342D01*
X115774647Y-100555961D01*
X115679409Y-100603580D01*
X115584171Y-100603580D01*
X115488933Y-100555961D01*
X115441314Y-100508342D01*
X115393695Y-100413104D01*
X115346076Y-100222628D01*
X115346076Y-99984533D01*
X115393695Y-99794057D01*
X115441314Y-99698819D01*
X115488933Y-99651200D01*
X115584171Y-99603580D01*
%TO.C,Y1*%
X117837009Y-91847990D02*
X117837009Y-92324180D01*
X117503676Y-91324180D02*
X117837009Y-91847990D01*
X118170342Y-91324180D01*
X119027485Y-92324180D02*
X118456057Y-92324180D01*
X118741771Y-92324180D02*
X118741771Y-91324180D01*
X118646533Y-91467038D01*
X118551295Y-91562276D01*
X118456057Y-91609895D01*
%TO.C,BT3*%
X123623485Y-76306371D02*
X123766342Y-76353990D01*
X123813961Y-76401609D01*
X123861580Y-76496847D01*
X123861580Y-76639704D01*
X123813961Y-76734942D01*
X123766342Y-76782561D01*
X123671104Y-76830180D01*
X123290152Y-76830180D01*
X123290152Y-75830180D01*
X123623485Y-75830180D01*
X123718723Y-75877800D01*
X123766342Y-75925419D01*
X123813961Y-76020657D01*
X123813961Y-76115895D01*
X123766342Y-76211133D01*
X123718723Y-76258752D01*
X123623485Y-76306371D01*
X123290152Y-76306371D01*
X124147295Y-75830180D02*
X124718723Y-75830180D01*
X124433009Y-76830180D02*
X124433009Y-75830180D01*
X124956819Y-75830180D02*
X125575866Y-75830180D01*
X125242533Y-76211133D01*
X125385390Y-76211133D01*
X125480628Y-76258752D01*
X125528247Y-76306371D01*
X125575866Y-76401609D01*
X125575866Y-76639704D01*
X125528247Y-76734942D01*
X125480628Y-76782561D01*
X125385390Y-76830180D01*
X125099676Y-76830180D01*
X125004438Y-76782561D01*
X124956819Y-76734942D01*
%TO.C,AE1*%
X128661066Y-108229866D02*
X128661066Y-107753676D01*
X128946780Y-108325104D02*
X127946780Y-107991771D01*
X128946780Y-107658438D01*
X128422971Y-107325104D02*
X128422971Y-106991771D01*
X128946780Y-106848914D02*
X128946780Y-107325104D01*
X127946780Y-107325104D01*
X127946780Y-106848914D01*
X128946780Y-105896533D02*
X128946780Y-106467961D01*
X128946780Y-106182247D02*
X127946780Y-106182247D01*
X128089638Y-106277485D01*
X128184876Y-106372723D01*
X128232495Y-106467961D01*
%TO.C,U17*%
X117735504Y-86294980D02*
X117735504Y-87104504D01*
X117783123Y-87199742D01*
X117830742Y-87247361D01*
X117925980Y-87294980D01*
X118116457Y-87294980D01*
X118211695Y-87247361D01*
X118259314Y-87199742D01*
X118306933Y-87104504D01*
X118306933Y-86294980D01*
X119306933Y-87294980D02*
X118735504Y-87294980D01*
X119021219Y-87294980D02*
X119021219Y-86294980D01*
X118925980Y-86437838D01*
X118830742Y-86533076D01*
X118735504Y-86580695D01*
X119640266Y-86294980D02*
X120306933Y-86294980D01*
X119878361Y-87294980D01*
%TO.C,U1*%
X124317679Y-92814605D02*
X125127203Y-92814605D01*
X125222441Y-92766986D01*
X125270060Y-92719367D01*
X125317679Y-92624129D01*
X125317679Y-92433653D01*
X125270060Y-92338415D01*
X125222441Y-92290796D01*
X125127203Y-92243177D01*
X124317679Y-92243177D01*
X125317679Y-91243177D02*
X125317679Y-91814605D01*
X125317679Y-91528891D02*
X124317679Y-91528891D01*
X124460537Y-91624129D01*
X124555775Y-91719367D01*
X124603394Y-91814605D01*
%TO.C,C16*%
X131513342Y-95962742D02*
X131465723Y-96010361D01*
X131322866Y-96057980D01*
X131227628Y-96057980D01*
X131084771Y-96010361D01*
X130989533Y-95915123D01*
X130941914Y-95819885D01*
X130894295Y-95629409D01*
X130894295Y-95486552D01*
X130941914Y-95296076D01*
X130989533Y-95200838D01*
X131084771Y-95105600D01*
X131227628Y-95057980D01*
X131322866Y-95057980D01*
X131465723Y-95105600D01*
X131513342Y-95153219D01*
X132465723Y-96057980D02*
X131894295Y-96057980D01*
X132180009Y-96057980D02*
X132180009Y-95057980D01*
X132084771Y-95200838D01*
X131989533Y-95296076D01*
X131894295Y-95343695D01*
X133322866Y-95057980D02*
X133132390Y-95057980D01*
X133037152Y-95105600D01*
X132989533Y-95153219D01*
X132894295Y-95296076D01*
X132846676Y-95486552D01*
X132846676Y-95867504D01*
X132894295Y-95962742D01*
X132941914Y-96010361D01*
X133037152Y-96057980D01*
X133227628Y-96057980D01*
X133322866Y-96010361D01*
X133370485Y-95962742D01*
X133418104Y-95867504D01*
X133418104Y-95629409D01*
X133370485Y-95534171D01*
X133322866Y-95486552D01*
X133227628Y-95438933D01*
X133037152Y-95438933D01*
X132941914Y-95486552D01*
X132894295Y-95534171D01*
X132846676Y-95629409D01*
%TO.C,U19*%
X128093904Y-64354580D02*
X128093904Y-65164104D01*
X128141523Y-65259342D01*
X128189142Y-65306961D01*
X128284380Y-65354580D01*
X128474857Y-65354580D01*
X128570095Y-65306961D01*
X128617714Y-65259342D01*
X128665333Y-65164104D01*
X128665333Y-64354580D01*
X129665333Y-65354580D02*
X129093904Y-65354580D01*
X129379619Y-65354580D02*
X129379619Y-64354580D01*
X129284380Y-64497438D01*
X129189142Y-64592676D01*
X129093904Y-64640295D01*
X130141523Y-65354580D02*
X130332000Y-65354580D01*
X130427238Y-65306961D01*
X130474857Y-65259342D01*
X130570095Y-65116485D01*
X130617714Y-64926009D01*
X130617714Y-64545057D01*
X130570095Y-64449819D01*
X130522476Y-64402200D01*
X130427238Y-64354580D01*
X130236761Y-64354580D01*
X130141523Y-64402200D01*
X130093904Y-64449819D01*
X130046285Y-64545057D01*
X130046285Y-64783152D01*
X130093904Y-64878390D01*
X130141523Y-64926009D01*
X130236761Y-64973628D01*
X130427238Y-64973628D01*
X130522476Y-64926009D01*
X130570095Y-64878390D01*
X130617714Y-64783152D01*
%TO.C,R27*%
X114317542Y-77083180D02*
X113984209Y-76606990D01*
X113746114Y-77083180D02*
X113746114Y-76083180D01*
X114127066Y-76083180D01*
X114222304Y-76130800D01*
X114269923Y-76178419D01*
X114317542Y-76273657D01*
X114317542Y-76416514D01*
X114269923Y-76511752D01*
X114222304Y-76559371D01*
X114127066Y-76606990D01*
X113746114Y-76606990D01*
X114698495Y-76178419D02*
X114746114Y-76130800D01*
X114841352Y-76083180D01*
X115079447Y-76083180D01*
X115174685Y-76130800D01*
X115222304Y-76178419D01*
X115269923Y-76273657D01*
X115269923Y-76368895D01*
X115222304Y-76511752D01*
X114650876Y-77083180D01*
X115269923Y-77083180D01*
X115603257Y-76083180D02*
X116269923Y-76083180D01*
X115841352Y-77083180D01*
%TO.C,U5*%
X100228495Y-89974780D02*
X100228495Y-90784304D01*
X100276114Y-90879542D01*
X100323733Y-90927161D01*
X100418971Y-90974780D01*
X100609447Y-90974780D01*
X100704685Y-90927161D01*
X100752304Y-90879542D01*
X100799923Y-90784304D01*
X100799923Y-89974780D01*
X101752304Y-89974780D02*
X101276114Y-89974780D01*
X101228495Y-90450971D01*
X101276114Y-90403352D01*
X101371352Y-90355733D01*
X101609447Y-90355733D01*
X101704685Y-90403352D01*
X101752304Y-90450971D01*
X101799923Y-90546209D01*
X101799923Y-90784304D01*
X101752304Y-90879542D01*
X101704685Y-90927161D01*
X101609447Y-90974780D01*
X101371352Y-90974780D01*
X101276114Y-90927161D01*
X101228495Y-90879542D01*
%TO.C,U4*%
X135799580Y-74371104D02*
X136609104Y-74371104D01*
X136704342Y-74323485D01*
X136751961Y-74275866D01*
X136799580Y-74180628D01*
X136799580Y-73990152D01*
X136751961Y-73894914D01*
X136704342Y-73847295D01*
X136609104Y-73799676D01*
X135799580Y-73799676D01*
X136132914Y-72894914D02*
X136799580Y-72894914D01*
X135751961Y-73133009D02*
X136466247Y-73371104D01*
X136466247Y-72752057D01*
%TO.C,U12*%
X100255304Y-66519380D02*
X100255304Y-67328904D01*
X100302923Y-67424142D01*
X100350542Y-67471761D01*
X100445780Y-67519380D01*
X100636257Y-67519380D01*
X100731495Y-67471761D01*
X100779114Y-67424142D01*
X100826733Y-67328904D01*
X100826733Y-66519380D01*
X101826733Y-67519380D02*
X101255304Y-67519380D01*
X101541019Y-67519380D02*
X101541019Y-66519380D01*
X101445780Y-66662238D01*
X101350542Y-66757476D01*
X101255304Y-66805095D01*
X102207685Y-66614619D02*
X102255304Y-66567000D01*
X102350542Y-66519380D01*
X102588638Y-66519380D01*
X102683876Y-66567000D01*
X102731495Y-66614619D01*
X102779114Y-66709857D01*
X102779114Y-66805095D01*
X102731495Y-66947952D01*
X102160066Y-67519380D01*
X102779114Y-67519380D01*
%TO.C,C4*%
X121046033Y-101351142D02*
X120998414Y-101398761D01*
X120855557Y-101446380D01*
X120760319Y-101446380D01*
X120617461Y-101398761D01*
X120522223Y-101303523D01*
X120474604Y-101208285D01*
X120426985Y-101017809D01*
X120426985Y-100874952D01*
X120474604Y-100684476D01*
X120522223Y-100589238D01*
X120617461Y-100494000D01*
X120760319Y-100446380D01*
X120855557Y-100446380D01*
X120998414Y-100494000D01*
X121046033Y-100541619D01*
X121903176Y-100779714D02*
X121903176Y-101446380D01*
X121665080Y-100398761D02*
X121426985Y-101113047D01*
X122046033Y-101113047D01*
%TO.C,J1*%
X139958180Y-68282633D02*
X140672466Y-68282633D01*
X140815323Y-68330252D01*
X140910561Y-68425490D01*
X140958180Y-68568347D01*
X140958180Y-68663585D01*
X140958180Y-67282633D02*
X140958180Y-67854061D01*
X140958180Y-67568347D02*
X139958180Y-67568347D01*
X140101038Y-67663585D01*
X140196276Y-67758823D01*
X140243895Y-67854061D01*
%TO.C,BT1*%
X104522685Y-72755371D02*
X104665542Y-72802990D01*
X104713161Y-72850609D01*
X104760780Y-72945847D01*
X104760780Y-73088704D01*
X104713161Y-73183942D01*
X104665542Y-73231561D01*
X104570304Y-73279180D01*
X104189352Y-73279180D01*
X104189352Y-72279180D01*
X104522685Y-72279180D01*
X104617923Y-72326800D01*
X104665542Y-72374419D01*
X104713161Y-72469657D01*
X104713161Y-72564895D01*
X104665542Y-72660133D01*
X104617923Y-72707752D01*
X104522685Y-72755371D01*
X104189352Y-72755371D01*
X105046495Y-72279180D02*
X105617923Y-72279180D01*
X105332209Y-73279180D02*
X105332209Y-72279180D01*
X106475066Y-73279180D02*
X105903638Y-73279180D01*
X106189352Y-73279180D02*
X106189352Y-72279180D01*
X106094114Y-72422038D01*
X105998876Y-72517276D01*
X105903638Y-72564895D01*
%TO.C,U3*%
X130458180Y-74311204D02*
X131267704Y-74311204D01*
X131362942Y-74263585D01*
X131410561Y-74215966D01*
X131458180Y-74120728D01*
X131458180Y-73930252D01*
X131410561Y-73835014D01*
X131362942Y-73787395D01*
X131267704Y-73739776D01*
X130458180Y-73739776D01*
X130458180Y-73358823D02*
X130458180Y-72739776D01*
X130839133Y-73073109D01*
X130839133Y-72930252D01*
X130886752Y-72835014D01*
X130934371Y-72787395D01*
X131029609Y-72739776D01*
X131267704Y-72739776D01*
X131362942Y-72787395D01*
X131410561Y-72835014D01*
X131458180Y-72930252D01*
X131458180Y-73215966D01*
X131410561Y-73311204D01*
X131362942Y-73358823D01*
%TO.C,U13*%
X104476704Y-79563980D02*
X104476704Y-80373504D01*
X104524323Y-80468742D01*
X104571942Y-80516361D01*
X104667180Y-80563980D01*
X104857657Y-80563980D01*
X104952895Y-80516361D01*
X105000514Y-80468742D01*
X105048133Y-80373504D01*
X105048133Y-79563980D01*
X106048133Y-80563980D02*
X105476704Y-80563980D01*
X105762419Y-80563980D02*
X105762419Y-79563980D01*
X105667180Y-79706838D01*
X105571942Y-79802076D01*
X105476704Y-79849695D01*
X106381466Y-79563980D02*
X107000514Y-79563980D01*
X106667180Y-79944933D01*
X106810038Y-79944933D01*
X106905276Y-79992552D01*
X106952895Y-80040171D01*
X107000514Y-80135409D01*
X107000514Y-80373504D01*
X106952895Y-80468742D01*
X106905276Y-80516361D01*
X106810038Y-80563980D01*
X106524323Y-80563980D01*
X106429085Y-80516361D01*
X106381466Y-80468742D01*
%TO.C,R23*%
X105198942Y-67965580D02*
X104865609Y-67489390D01*
X104627514Y-67965580D02*
X104627514Y-66965580D01*
X105008466Y-66965580D01*
X105103704Y-67013200D01*
X105151323Y-67060819D01*
X105198942Y-67156057D01*
X105198942Y-67298914D01*
X105151323Y-67394152D01*
X105103704Y-67441771D01*
X105008466Y-67489390D01*
X104627514Y-67489390D01*
X105579895Y-67060819D02*
X105627514Y-67013200D01*
X105722752Y-66965580D01*
X105960847Y-66965580D01*
X106056085Y-67013200D01*
X106103704Y-67060819D01*
X106151323Y-67156057D01*
X106151323Y-67251295D01*
X106103704Y-67394152D01*
X105532276Y-67965580D01*
X106151323Y-67965580D01*
X106484657Y-66965580D02*
X107103704Y-66965580D01*
X106770371Y-67346533D01*
X106913228Y-67346533D01*
X107008466Y-67394152D01*
X107056085Y-67441771D01*
X107103704Y-67537009D01*
X107103704Y-67775104D01*
X107056085Y-67870342D01*
X107008466Y-67917961D01*
X106913228Y-67965580D01*
X106627514Y-67965580D01*
X106532276Y-67917961D01*
X106484657Y-67870342D01*
%TO.C,R28*%
X123985542Y-67407780D02*
X123652209Y-66931590D01*
X123414114Y-67407780D02*
X123414114Y-66407780D01*
X123795066Y-66407780D01*
X123890304Y-66455400D01*
X123937923Y-66503019D01*
X123985542Y-66598257D01*
X123985542Y-66741114D01*
X123937923Y-66836352D01*
X123890304Y-66883971D01*
X123795066Y-66931590D01*
X123414114Y-66931590D01*
X124366495Y-66503019D02*
X124414114Y-66455400D01*
X124509352Y-66407780D01*
X124747447Y-66407780D01*
X124842685Y-66455400D01*
X124890304Y-66503019D01*
X124937923Y-66598257D01*
X124937923Y-66693495D01*
X124890304Y-66836352D01*
X124318876Y-67407780D01*
X124937923Y-67407780D01*
X125509352Y-66836352D02*
X125414114Y-66788733D01*
X125366495Y-66741114D01*
X125318876Y-66645876D01*
X125318876Y-66598257D01*
X125366495Y-66503019D01*
X125414114Y-66455400D01*
X125509352Y-66407780D01*
X125699828Y-66407780D01*
X125795066Y-66455400D01*
X125842685Y-66503019D01*
X125890304Y-66598257D01*
X125890304Y-66645876D01*
X125842685Y-66741114D01*
X125795066Y-66788733D01*
X125699828Y-66836352D01*
X125509352Y-66836352D01*
X125414114Y-66883971D01*
X125366495Y-66931590D01*
X125318876Y-67026828D01*
X125318876Y-67217304D01*
X125366495Y-67312542D01*
X125414114Y-67360161D01*
X125509352Y-67407780D01*
X125699828Y-67407780D01*
X125795066Y-67360161D01*
X125842685Y-67312542D01*
X125890304Y-67217304D01*
X125890304Y-67026828D01*
X125842685Y-66931590D01*
X125795066Y-66883971D01*
X125699828Y-66836352D01*
%TO.C,R18*%
X114571542Y-80436980D02*
X114238209Y-79960790D01*
X114000114Y-80436980D02*
X114000114Y-79436980D01*
X114381066Y-79436980D01*
X114476304Y-79484600D01*
X114523923Y-79532219D01*
X114571542Y-79627457D01*
X114571542Y-79770314D01*
X114523923Y-79865552D01*
X114476304Y-79913171D01*
X114381066Y-79960790D01*
X114000114Y-79960790D01*
X115523923Y-80436980D02*
X114952495Y-80436980D01*
X115238209Y-80436980D02*
X115238209Y-79436980D01*
X115142971Y-79579838D01*
X115047733Y-79675076D01*
X114952495Y-79722695D01*
X116095352Y-79865552D02*
X116000114Y-79817933D01*
X115952495Y-79770314D01*
X115904876Y-79675076D01*
X115904876Y-79627457D01*
X115952495Y-79532219D01*
X116000114Y-79484600D01*
X116095352Y-79436980D01*
X116285828Y-79436980D01*
X116381066Y-79484600D01*
X116428685Y-79532219D01*
X116476304Y-79627457D01*
X116476304Y-79675076D01*
X116428685Y-79770314D01*
X116381066Y-79817933D01*
X116285828Y-79865552D01*
X116095352Y-79865552D01*
X116000114Y-79913171D01*
X115952495Y-79960790D01*
X115904876Y-80056028D01*
X115904876Y-80246504D01*
X115952495Y-80341742D01*
X116000114Y-80389361D01*
X116095352Y-80436980D01*
X116285828Y-80436980D01*
X116381066Y-80389361D01*
X116428685Y-80341742D01*
X116476304Y-80246504D01*
X116476304Y-80056028D01*
X116428685Y-79960790D01*
X116381066Y-79913171D01*
X116285828Y-79865552D01*
%TO.C,R19*%
X121150142Y-82468980D02*
X120816809Y-81992790D01*
X120578714Y-82468980D02*
X120578714Y-81468980D01*
X120959666Y-81468980D01*
X121054904Y-81516600D01*
X121102523Y-81564219D01*
X121150142Y-81659457D01*
X121150142Y-81802314D01*
X121102523Y-81897552D01*
X121054904Y-81945171D01*
X120959666Y-81992790D01*
X120578714Y-81992790D01*
X122102523Y-82468980D02*
X121531095Y-82468980D01*
X121816809Y-82468980D02*
X121816809Y-81468980D01*
X121721571Y-81611838D01*
X121626333Y-81707076D01*
X121531095Y-81754695D01*
X122578714Y-82468980D02*
X122769190Y-82468980D01*
X122864428Y-82421361D01*
X122912047Y-82373742D01*
X123007285Y-82230885D01*
X123054904Y-82040409D01*
X123054904Y-81659457D01*
X123007285Y-81564219D01*
X122959666Y-81516600D01*
X122864428Y-81468980D01*
X122673952Y-81468980D01*
X122578714Y-81516600D01*
X122531095Y-81564219D01*
X122483476Y-81659457D01*
X122483476Y-81897552D01*
X122531095Y-81992790D01*
X122578714Y-82040409D01*
X122673952Y-82088028D01*
X122864428Y-82088028D01*
X122959666Y-82040409D01*
X123007285Y-81992790D01*
X123054904Y-81897552D01*
D13*
%TO.C,TH3*%
X140902200Y-94153129D02*
X140902200Y-93606600D01*
X140902200Y-95826600D02*
X140902200Y-95280071D01*
X139382200Y-95826600D02*
X139382200Y-94716600D01*
X140902200Y-95826600D02*
X142107200Y-95826600D01*
X142107200Y-95826600D02*
X142107200Y-95024130D01*
X140142200Y-95826600D02*
X139382200Y-95826600D01*
X140902200Y-93606600D02*
X142107200Y-93606600D01*
X142107200Y-94409070D02*
X142107200Y-93606600D01*
%TO.C,TH2*%
X140891800Y-90901929D02*
X140891800Y-90355400D01*
X140891800Y-92575400D02*
X140891800Y-92028871D01*
X139371800Y-92575400D02*
X139371800Y-91465400D01*
X140891800Y-92575400D02*
X142096800Y-92575400D01*
X142096800Y-92575400D02*
X142096800Y-91772930D01*
X140131800Y-92575400D02*
X139371800Y-92575400D01*
X140891800Y-90355400D02*
X142096800Y-90355400D01*
X142096800Y-91157870D02*
X142096800Y-90355400D01*
%TO.C,TH1*%
X140942600Y-87625329D02*
X140942600Y-87078800D01*
X140942600Y-89298800D02*
X140942600Y-88752271D01*
X139422600Y-89298800D02*
X139422600Y-88188800D01*
X140942600Y-89298800D02*
X142147600Y-89298800D01*
X142147600Y-89298800D02*
X142147600Y-88496330D01*
X140182600Y-89298800D02*
X139422600Y-89298800D01*
X140942600Y-87078800D02*
X142147600Y-87078800D01*
X142147600Y-87881270D02*
X142147600Y-87078800D01*
%TO.C,SW1*%
X136218200Y-90800329D02*
X136218200Y-90253800D01*
X136218200Y-92473800D02*
X136218200Y-91927271D01*
X134698200Y-92473800D02*
X134698200Y-91363800D01*
X136218200Y-92473800D02*
X137423200Y-92473800D01*
X137423200Y-92473800D02*
X137423200Y-91671330D01*
X135458200Y-92473800D02*
X134698200Y-92473800D01*
X136218200Y-90253800D02*
X137423200Y-90253800D01*
X137423200Y-91056270D02*
X137423200Y-90253800D01*
%TO.C,J11*%
X135735600Y-87650729D02*
X135735600Y-87104200D01*
X135735600Y-89324200D02*
X135735600Y-88777671D01*
X134215600Y-89324200D02*
X134215600Y-88214200D01*
X135735600Y-89324200D02*
X136940600Y-89324200D01*
X136940600Y-89324200D02*
X136940600Y-88521730D01*
X134975600Y-89324200D02*
X134215600Y-89324200D01*
X135735600Y-87104200D02*
X136940600Y-87104200D01*
X136940600Y-87906670D02*
X136940600Y-87104200D01*
%TO.C,J4*%
X135100600Y-97734529D02*
X135100600Y-97188000D01*
X135100600Y-99408000D02*
X135100600Y-98861471D01*
X133580600Y-99408000D02*
X133580600Y-98298000D01*
X135100600Y-99408000D02*
X136305600Y-99408000D01*
X136305600Y-99408000D02*
X136305600Y-98605530D01*
X134340600Y-99408000D02*
X133580600Y-99408000D01*
X135100600Y-97188000D02*
X136305600Y-97188000D01*
X136305600Y-97990470D02*
X136305600Y-97188000D01*
%TO.C,J9*%
X122945899Y-87575372D02*
X122945899Y-88121901D01*
X122945899Y-85901901D02*
X122945899Y-86448430D01*
X124465899Y-85901901D02*
X124465899Y-87011901D01*
X122945899Y-85901901D02*
X121740899Y-85901901D01*
X121740899Y-85901901D02*
X121740899Y-86704371D01*
X123705899Y-85901901D02*
X124465899Y-85901901D01*
X122945899Y-88121901D02*
X121740899Y-88121901D01*
X121740899Y-87319431D02*
X121740899Y-88121901D01*
%TO.C,C17*%
X127535000Y-75572252D02*
X127535000Y-75049748D01*
X129005000Y-75572252D02*
X129005000Y-75049748D01*
%TO.C,L1*%
X127179800Y-99637667D02*
X127179800Y-99295133D01*
X126159800Y-99637667D02*
X126159800Y-99295133D01*
%TO.C,U14*%
X117135600Y-71448200D02*
X117135600Y-72983200D01*
X117135600Y-74983200D02*
X117135600Y-76518200D01*
X117135600Y-76518200D02*
X122335600Y-76518200D01*
X122395600Y-67748200D02*
X117075600Y-67748200D01*
X117075600Y-67748200D02*
X117075600Y-80218200D01*
X122335600Y-71448200D02*
X117135600Y-71448200D01*
X122395600Y-80218200D02*
X122395600Y-67748200D01*
X117075600Y-80218200D02*
X122395600Y-80218200D01*
X122335600Y-76518200D02*
X122335600Y-71448200D01*
X117135600Y-74983200D02*
G75*
G03*
X117135600Y-72983200I0J1000000D01*
G01*
%TO.C,L2*%
X142297000Y-86319200D02*
X135397000Y-86319200D01*
X142297000Y-81219200D02*
X135397000Y-81219200D01*
%TO.C,R10*%
X129087299Y-98423464D02*
X129087299Y-97969336D01*
X130557299Y-98423464D02*
X130557299Y-97969336D01*
%TO.C,C3*%
X120951448Y-96547000D02*
X121473952Y-96547000D01*
X120951448Y-98017000D02*
X121473952Y-98017000D01*
%TO.C,C2*%
X125901667Y-97487200D02*
X125609133Y-97487200D01*
X125901667Y-96467200D02*
X125609133Y-96467200D01*
%TO.C,C1*%
X125928167Y-102465600D02*
X125635633Y-102465600D01*
X125928167Y-101445600D02*
X125635633Y-101445600D01*
%TO.C,BT2*%
X116315800Y-72161400D02*
X116315800Y-73491400D01*
X116315800Y-68291400D02*
X113655800Y-68291400D01*
X116315800Y-70891400D02*
X116315800Y-68291400D01*
X116315800Y-70891400D02*
X113655800Y-70891400D01*
X116315800Y-73491400D02*
X114985800Y-73491400D01*
X113655800Y-70891400D02*
X113655800Y-68291400D01*
%TO.C,J2*%
X98324855Y-91998600D02*
X96600055Y-91998600D01*
X100255255Y-92020200D02*
X102084055Y-92020200D01*
X96600055Y-100898600D02*
X98375655Y-100898600D01*
X104000055Y-100402200D02*
X104000055Y-92477400D01*
X96600055Y-91998600D02*
X96600055Y-100898600D01*
X100306055Y-100910200D02*
X102134855Y-100910200D01*
%TO.C,R40*%
X114882664Y-99236200D02*
X114428536Y-99236200D01*
X114882664Y-97766200D02*
X114428536Y-97766200D01*
%TO.C,Y1*%
X123883299Y-94424701D02*
X123883299Y-89024701D01*
X119483299Y-94424701D02*
X123883299Y-94424701D01*
%TO.C,BT3*%
X123282400Y-71551800D02*
X123282400Y-70221800D01*
X123282400Y-75421800D02*
X125942400Y-75421800D01*
X123282400Y-72821800D02*
X123282400Y-75421800D01*
X123282400Y-72821800D02*
X125942400Y-72821800D01*
X123282400Y-70221800D02*
X124612400Y-70221800D01*
X125942400Y-72821800D02*
X125942400Y-75421800D01*
%TO.C,AE1*%
X127804400Y-104753200D02*
X125484400Y-104753200D01*
X125484400Y-104753200D02*
X125484400Y-108663200D01*
X127804400Y-108663200D02*
X127804400Y-104753200D01*
%TO.C,U17*%
X117080600Y-90461800D02*
X117080600Y-91961800D01*
X117080600Y-91961800D02*
X116130600Y-91961800D01*
X106680600Y-91961800D02*
X107630600Y-91961800D01*
X107630600Y-91961800D02*
X107630600Y-97086800D01*
X106680600Y-90461800D02*
X106680600Y-91961800D01*
X116130600Y-91961800D02*
X116130600Y-93061800D01*
%TO.C,U1*%
X131148299Y-90117701D02*
X131148299Y-89442701D01*
X131148299Y-93987701D02*
X131148299Y-94662701D01*
X125928299Y-90117701D02*
X125928299Y-89442701D01*
%TO.C,C16*%
X132843299Y-98075149D02*
X132843299Y-98597653D01*
X131373299Y-98075149D02*
X131373299Y-98597653D01*
%TO.C,U19*%
X130692000Y-66042200D02*
X130692000Y-67352200D01*
X127972000Y-66042200D02*
X130692000Y-66042200D01*
X127972000Y-66042200D02*
X127972000Y-66272200D01*
X130692000Y-69452200D02*
X130692000Y-70762200D01*
X126832000Y-66272200D02*
X127972000Y-66272200D01*
X127972000Y-70762200D02*
X127972000Y-70532200D01*
X130692000Y-70762200D02*
X127972000Y-70762200D01*
%TO.C,R27*%
X115187464Y-75715800D02*
X114733336Y-75715800D01*
X115187464Y-74245800D02*
X114733336Y-74245800D01*
%TO.C,U5*%
X100990400Y-89677400D02*
X99040400Y-89677400D01*
X100990400Y-80807400D02*
X99040400Y-80807400D01*
X100990400Y-89677400D02*
X104440400Y-89677400D01*
X100990400Y-80807400D02*
X102940400Y-80807400D01*
%TO.C,U4*%
X137405982Y-73567400D02*
X137405982Y-71617400D01*
X142525982Y-73567400D02*
X142525982Y-75517400D01*
X142525982Y-73567400D02*
X142525982Y-71617400D01*
X137405982Y-73567400D02*
X137405982Y-77017400D01*
%TO.C,U12*%
X97806200Y-71644000D02*
X97806200Y-73179000D01*
X97806200Y-75179000D02*
X97806200Y-76714000D01*
X97806200Y-76714000D02*
X103006200Y-76714000D01*
X103066200Y-67944000D02*
X97746200Y-67944000D01*
X97746200Y-67944000D02*
X97746200Y-80414000D01*
X103006200Y-71644000D02*
X97806200Y-71644000D01*
X103066200Y-80414000D02*
X103066200Y-67944000D01*
X97746200Y-80414000D02*
X103066200Y-80414000D01*
X103006200Y-76714000D02*
X103006200Y-71644000D01*
X97806200Y-75179000D02*
G75*
G03*
X97806200Y-73179000I0J1000000D01*
G01*
%TO.C,C4*%
X121473952Y-100049000D02*
X120951448Y-100049000D01*
X121473952Y-98579000D02*
X120951448Y-98579000D01*
%TO.C,J1*%
X138175800Y-66619300D02*
X139505800Y-66619300D01*
X134305800Y-66619300D02*
X134305800Y-69279300D01*
X136905800Y-66619300D02*
X134305800Y-66619300D01*
X136905800Y-66619300D02*
X136905800Y-69279300D01*
X139505800Y-66619300D02*
X139505800Y-67949300D01*
X136905800Y-69279300D02*
X134305800Y-69279300D01*
%TO.C,BT1*%
X103851400Y-75514200D02*
X103851400Y-74184200D01*
X103851400Y-79384200D02*
X106511400Y-79384200D01*
X103851400Y-76784200D02*
X103851400Y-79384200D01*
X103851400Y-76784200D02*
X106511400Y-76784200D01*
X103851400Y-74184200D02*
X105181400Y-74184200D01*
X106511400Y-76784200D02*
X106511400Y-79384200D01*
%TO.C,U3*%
X131845800Y-73549300D02*
X131845800Y-71599300D01*
X136965800Y-73549300D02*
X136965800Y-75499300D01*
X136965800Y-73549300D02*
X136965800Y-71599300D01*
X131845800Y-73549300D02*
X131845800Y-76999300D01*
%TO.C,U13*%
X112734400Y-76467400D02*
X112734400Y-74932400D01*
X112734400Y-72932400D02*
X112734400Y-71397400D01*
X112734400Y-71397400D02*
X107534400Y-71397400D01*
X107474400Y-80167400D02*
X112794400Y-80167400D01*
X112794400Y-80167400D02*
X112794400Y-67697400D01*
X107534400Y-76467400D02*
X112734400Y-76467400D01*
X107474400Y-67697400D02*
X107474400Y-80167400D01*
X112794400Y-67697400D02*
X107474400Y-67697400D01*
X107534400Y-71397400D02*
X107534400Y-76467400D01*
X112734400Y-72932400D02*
G75*
G03*
X112734400Y-74932400I0J-1000000D01*
G01*
%TO.C,R23*%
X105335400Y-70305664D02*
X105335400Y-69851536D01*
X106805400Y-70305664D02*
X106805400Y-69851536D01*
%TO.C,R28*%
X124401336Y-67870400D02*
X124855464Y-67870400D01*
X124401336Y-69340400D02*
X124855464Y-69340400D01*
%TO.C,R18*%
X114733336Y-77573200D02*
X115187464Y-77573200D01*
X114733336Y-79043200D02*
X115187464Y-79043200D01*
%TO.C,R19*%
X119835600Y-81916536D02*
X119835600Y-82370664D01*
X118365600Y-81916536D02*
X118365600Y-82370664D01*
%TD*%
M02*
