%TF.GenerationSoftware,KiCad,Pcbnew,(6.0.2)*%
%TF.CreationDate,2022-05-11T05:14:46-07:00*%
%TF.ProjectId,InsulinCoolerBoard,496e7375-6c69-46e4-936f-6f6c6572426f,rev?*%
%TF.SameCoordinates,Original*%
%TF.FileFunction,Legend,Bot*%
%TF.FilePolarity,Positive*%
%FSLAX46Y46*%
G04 Gerber Fmt 4.6, Leading zero omitted, Abs format (unit mm)*
G04 Created by KiCad (PCBNEW (6.0.2)) date 2022-05-11 05:14:46*
%MOMM*%
%LPD*%
G01*
G04 APERTURE LIST*
%ADD10C,0.150000*%
%ADD11C,0.120000*%
%ADD12C,0.300000*%
G04 APERTURE END LIST*
D10*
%TO.C,R20*%
X141308057Y-90190580D02*
X141641390Y-89714390D01*
X141879485Y-90190580D02*
X141879485Y-89190580D01*
X141498533Y-89190580D01*
X141403295Y-89238200D01*
X141355676Y-89285819D01*
X141308057Y-89381057D01*
X141308057Y-89523914D01*
X141355676Y-89619152D01*
X141403295Y-89666771D01*
X141498533Y-89714390D01*
X141879485Y-89714390D01*
X140927104Y-89285819D02*
X140879485Y-89238200D01*
X140784247Y-89190580D01*
X140546152Y-89190580D01*
X140450914Y-89238200D01*
X140403295Y-89285819D01*
X140355676Y-89381057D01*
X140355676Y-89476295D01*
X140403295Y-89619152D01*
X140974723Y-90190580D01*
X140355676Y-90190580D01*
X139736628Y-89190580D02*
X139641390Y-89190580D01*
X139546152Y-89238200D01*
X139498533Y-89285819D01*
X139450914Y-89381057D01*
X139403295Y-89571533D01*
X139403295Y-89809628D01*
X139450914Y-90000104D01*
X139498533Y-90095342D01*
X139546152Y-90142961D01*
X139641390Y-90190580D01*
X139736628Y-90190580D01*
X139831866Y-90142961D01*
X139879485Y-90095342D01*
X139927104Y-90000104D01*
X139974723Y-89809628D01*
X139974723Y-89571533D01*
X139927104Y-89381057D01*
X139879485Y-89285819D01*
X139831866Y-89238200D01*
X139736628Y-89190580D01*
%TO.C,R21*%
X141181057Y-93619580D02*
X141514390Y-93143390D01*
X141752485Y-93619580D02*
X141752485Y-92619580D01*
X141371533Y-92619580D01*
X141276295Y-92667200D01*
X141228676Y-92714819D01*
X141181057Y-92810057D01*
X141181057Y-92952914D01*
X141228676Y-93048152D01*
X141276295Y-93095771D01*
X141371533Y-93143390D01*
X141752485Y-93143390D01*
X140800104Y-92714819D02*
X140752485Y-92667200D01*
X140657247Y-92619580D01*
X140419152Y-92619580D01*
X140323914Y-92667200D01*
X140276295Y-92714819D01*
X140228676Y-92810057D01*
X140228676Y-92905295D01*
X140276295Y-93048152D01*
X140847723Y-93619580D01*
X140228676Y-93619580D01*
X139276295Y-93619580D02*
X139847723Y-93619580D01*
X139562009Y-93619580D02*
X139562009Y-92619580D01*
X139657247Y-92762438D01*
X139752485Y-92857676D01*
X139847723Y-92905295D01*
%TO.C,R24*%
X141308057Y-97556580D02*
X141641390Y-97080390D01*
X141879485Y-97556580D02*
X141879485Y-96556580D01*
X141498533Y-96556580D01*
X141403295Y-96604200D01*
X141355676Y-96651819D01*
X141308057Y-96747057D01*
X141308057Y-96889914D01*
X141355676Y-96985152D01*
X141403295Y-97032771D01*
X141498533Y-97080390D01*
X141879485Y-97080390D01*
X140927104Y-96651819D02*
X140879485Y-96604200D01*
X140784247Y-96556580D01*
X140546152Y-96556580D01*
X140450914Y-96604200D01*
X140403295Y-96651819D01*
X140355676Y-96747057D01*
X140355676Y-96842295D01*
X140403295Y-96985152D01*
X140974723Y-97556580D01*
X140355676Y-97556580D01*
X139498533Y-96889914D02*
X139498533Y-97556580D01*
X139736628Y-96508961D02*
X139974723Y-97223247D01*
X139355676Y-97223247D01*
%TO.C,R39*%
X115289057Y-100628980D02*
X115622390Y-100152790D01*
X115860485Y-100628980D02*
X115860485Y-99628980D01*
X115479533Y-99628980D01*
X115384295Y-99676600D01*
X115336676Y-99724219D01*
X115289057Y-99819457D01*
X115289057Y-99962314D01*
X115336676Y-100057552D01*
X115384295Y-100105171D01*
X115479533Y-100152790D01*
X115860485Y-100152790D01*
X114955723Y-99628980D02*
X114336676Y-99628980D01*
X114670009Y-100009933D01*
X114527152Y-100009933D01*
X114431914Y-100057552D01*
X114384295Y-100105171D01*
X114336676Y-100200409D01*
X114336676Y-100438504D01*
X114384295Y-100533742D01*
X114431914Y-100581361D01*
X114527152Y-100628980D01*
X114812866Y-100628980D01*
X114908104Y-100581361D01*
X114955723Y-100533742D01*
X113860485Y-100628980D02*
X113670009Y-100628980D01*
X113574771Y-100581361D01*
X113527152Y-100533742D01*
X113431914Y-100390885D01*
X113384295Y-100200409D01*
X113384295Y-99819457D01*
X113431914Y-99724219D01*
X113479533Y-99676600D01*
X113574771Y-99628980D01*
X113765247Y-99628980D01*
X113860485Y-99676600D01*
X113908104Y-99724219D01*
X113955723Y-99819457D01*
X113955723Y-100057552D01*
X113908104Y-100152790D01*
X113860485Y-100200409D01*
X113765247Y-100248028D01*
X113574771Y-100248028D01*
X113479533Y-100200409D01*
X113431914Y-100152790D01*
X113384295Y-100057552D01*
%TO.C,R34*%
X103411257Y-91028780D02*
X103744590Y-90552590D01*
X103982685Y-91028780D02*
X103982685Y-90028780D01*
X103601733Y-90028780D01*
X103506495Y-90076400D01*
X103458876Y-90124019D01*
X103411257Y-90219257D01*
X103411257Y-90362114D01*
X103458876Y-90457352D01*
X103506495Y-90504971D01*
X103601733Y-90552590D01*
X103982685Y-90552590D01*
X103077923Y-90028780D02*
X102458876Y-90028780D01*
X102792209Y-90409733D01*
X102649352Y-90409733D01*
X102554114Y-90457352D01*
X102506495Y-90504971D01*
X102458876Y-90600209D01*
X102458876Y-90838304D01*
X102506495Y-90933542D01*
X102554114Y-90981161D01*
X102649352Y-91028780D01*
X102935066Y-91028780D01*
X103030304Y-90981161D01*
X103077923Y-90933542D01*
X101601733Y-90362114D02*
X101601733Y-91028780D01*
X101839828Y-89981161D02*
X102077923Y-90695447D01*
X101458876Y-90695447D01*
%TO.C,D4*%
X108757895Y-101209780D02*
X108757895Y-100209780D01*
X108519800Y-100209780D01*
X108376942Y-100257400D01*
X108281704Y-100352638D01*
X108234085Y-100447876D01*
X108186466Y-100638352D01*
X108186466Y-100781209D01*
X108234085Y-100971685D01*
X108281704Y-101066923D01*
X108376942Y-101162161D01*
X108519800Y-101209780D01*
X108757895Y-101209780D01*
X107329323Y-100543114D02*
X107329323Y-101209780D01*
X107567419Y-100162161D02*
X107805514Y-100876447D01*
X107186466Y-100876447D01*
%TO.C,R26*%
X117330457Y-76778380D02*
X117663790Y-76302190D01*
X117901885Y-76778380D02*
X117901885Y-75778380D01*
X117520933Y-75778380D01*
X117425695Y-75826000D01*
X117378076Y-75873619D01*
X117330457Y-75968857D01*
X117330457Y-76111714D01*
X117378076Y-76206952D01*
X117425695Y-76254571D01*
X117520933Y-76302190D01*
X117901885Y-76302190D01*
X116949504Y-75873619D02*
X116901885Y-75826000D01*
X116806647Y-75778380D01*
X116568552Y-75778380D01*
X116473314Y-75826000D01*
X116425695Y-75873619D01*
X116378076Y-75968857D01*
X116378076Y-76064095D01*
X116425695Y-76206952D01*
X116997123Y-76778380D01*
X116378076Y-76778380D01*
X115520933Y-75778380D02*
X115711409Y-75778380D01*
X115806647Y-75826000D01*
X115854266Y-75873619D01*
X115949504Y-76016476D01*
X115997123Y-76206952D01*
X115997123Y-76587904D01*
X115949504Y-76683142D01*
X115901885Y-76730761D01*
X115806647Y-76778380D01*
X115616171Y-76778380D01*
X115520933Y-76730761D01*
X115473314Y-76683142D01*
X115425695Y-76587904D01*
X115425695Y-76349809D01*
X115473314Y-76254571D01*
X115520933Y-76206952D01*
X115616171Y-76159333D01*
X115806647Y-76159333D01*
X115901885Y-76206952D01*
X115949504Y-76254571D01*
X115997123Y-76349809D01*
%TO.C,U6*%
X133135895Y-76078119D02*
X133135895Y-75268595D01*
X133183514Y-75173357D01*
X133231133Y-75125738D01*
X133326371Y-75078119D01*
X133516847Y-75078119D01*
X133612085Y-75125738D01*
X133659704Y-75173357D01*
X133707323Y-75268595D01*
X133707323Y-76078119D01*
X134612085Y-76078119D02*
X134421609Y-76078119D01*
X134326371Y-76030500D01*
X134278752Y-75982880D01*
X134183514Y-75840023D01*
X134135895Y-75649547D01*
X134135895Y-75268595D01*
X134183514Y-75173357D01*
X134231133Y-75125738D01*
X134326371Y-75078119D01*
X134516847Y-75078119D01*
X134612085Y-75125738D01*
X134659704Y-75173357D01*
X134707323Y-75268595D01*
X134707323Y-75506690D01*
X134659704Y-75601928D01*
X134612085Y-75649547D01*
X134516847Y-75697166D01*
X134326371Y-75697166D01*
X134231133Y-75649547D01*
X134183514Y-75601928D01*
X134135895Y-75506690D01*
%TO.C,R9*%
X97759780Y-97699533D02*
X97283590Y-97366200D01*
X97759780Y-97128104D02*
X96759780Y-97128104D01*
X96759780Y-97509057D01*
X96807400Y-97604295D01*
X96855019Y-97651914D01*
X96950257Y-97699533D01*
X97093114Y-97699533D01*
X97188352Y-97651914D01*
X97235971Y-97604295D01*
X97283590Y-97509057D01*
X97283590Y-97128104D01*
X97759780Y-98175723D02*
X97759780Y-98366200D01*
X97712161Y-98461438D01*
X97664542Y-98509057D01*
X97521685Y-98604295D01*
X97331209Y-98651914D01*
X96950257Y-98651914D01*
X96855019Y-98604295D01*
X96807400Y-98556676D01*
X96759780Y-98461438D01*
X96759780Y-98270961D01*
X96807400Y-98175723D01*
X96855019Y-98128104D01*
X96950257Y-98080485D01*
X97188352Y-98080485D01*
X97283590Y-98128104D01*
X97331209Y-98175723D01*
X97378828Y-98270961D01*
X97378828Y-98461438D01*
X97331209Y-98556676D01*
X97283590Y-98604295D01*
X97188352Y-98651914D01*
%TO.C,U16*%
X142182695Y-79614780D02*
X142182695Y-80424304D01*
X142135076Y-80519542D01*
X142087457Y-80567161D01*
X141992219Y-80614780D01*
X141801742Y-80614780D01*
X141706504Y-80567161D01*
X141658885Y-80519542D01*
X141611266Y-80424304D01*
X141611266Y-79614780D01*
X140611266Y-80614780D02*
X141182695Y-80614780D01*
X140896980Y-80614780D02*
X140896980Y-79614780D01*
X140992219Y-79757638D01*
X141087457Y-79852876D01*
X141182695Y-79900495D01*
X139754123Y-79614780D02*
X139944600Y-79614780D01*
X140039838Y-79662400D01*
X140087457Y-79710019D01*
X140182695Y-79852876D01*
X140230314Y-80043352D01*
X140230314Y-80424304D01*
X140182695Y-80519542D01*
X140135076Y-80567161D01*
X140039838Y-80614780D01*
X139849361Y-80614780D01*
X139754123Y-80567161D01*
X139706504Y-80519542D01*
X139658885Y-80424304D01*
X139658885Y-80186209D01*
X139706504Y-80090971D01*
X139754123Y-80043352D01*
X139849361Y-79995733D01*
X140039838Y-79995733D01*
X140135076Y-80043352D01*
X140182695Y-80090971D01*
X140230314Y-80186209D01*
%TO.C,U15*%
X96937580Y-90455904D02*
X97747104Y-90455904D01*
X97842342Y-90503523D01*
X97889961Y-90551142D01*
X97937580Y-90646380D01*
X97937580Y-90836857D01*
X97889961Y-90932095D01*
X97842342Y-90979714D01*
X97747104Y-91027333D01*
X96937580Y-91027333D01*
X97937580Y-92027333D02*
X97937580Y-91455904D01*
X97937580Y-91741619D02*
X96937580Y-91741619D01*
X97080438Y-91646380D01*
X97175676Y-91551142D01*
X97223295Y-91455904D01*
X96937580Y-92932095D02*
X96937580Y-92455904D01*
X97413771Y-92408285D01*
X97366152Y-92455904D01*
X97318533Y-92551142D01*
X97318533Y-92789238D01*
X97366152Y-92884476D01*
X97413771Y-92932095D01*
X97509009Y-92979714D01*
X97747104Y-92979714D01*
X97842342Y-92932095D01*
X97889961Y-92884476D01*
X97937580Y-92789238D01*
X97937580Y-92551142D01*
X97889961Y-92455904D01*
X97842342Y-92408285D01*
%TO.C,C6*%
X124906441Y-91653534D02*
X124954060Y-91605915D01*
X125001679Y-91463058D01*
X125001679Y-91367820D01*
X124954060Y-91224962D01*
X124858822Y-91129724D01*
X124763584Y-91082105D01*
X124573108Y-91034486D01*
X124430251Y-91034486D01*
X124239775Y-91082105D01*
X124144537Y-91129724D01*
X124049299Y-91224962D01*
X124001679Y-91367820D01*
X124001679Y-91463058D01*
X124049299Y-91605915D01*
X124096918Y-91653534D01*
X124001679Y-92510677D02*
X124001679Y-92320201D01*
X124049299Y-92224962D01*
X124096918Y-92177343D01*
X124239775Y-92082105D01*
X124430251Y-92034486D01*
X124811203Y-92034486D01*
X124906441Y-92082105D01*
X124954060Y-92129724D01*
X125001679Y-92224962D01*
X125001679Y-92415439D01*
X124954060Y-92510677D01*
X124906441Y-92558296D01*
X124811203Y-92605915D01*
X124573108Y-92605915D01*
X124477870Y-92558296D01*
X124430251Y-92510677D01*
X124382632Y-92415439D01*
X124382632Y-92224962D01*
X124430251Y-92129724D01*
X124477870Y-92082105D01*
X124573108Y-92034486D01*
%TO.C,U18*%
X138320986Y-77106219D02*
X138320986Y-76296695D01*
X138368605Y-76201457D01*
X138416224Y-76153838D01*
X138511462Y-76106219D01*
X138701939Y-76106219D01*
X138797177Y-76153838D01*
X138844796Y-76201457D01*
X138892415Y-76296695D01*
X138892415Y-77106219D01*
X139892415Y-76106219D02*
X139320986Y-76106219D01*
X139606701Y-76106219D02*
X139606701Y-77106219D01*
X139511462Y-76963361D01*
X139416224Y-76868123D01*
X139320986Y-76820504D01*
X140463843Y-76677647D02*
X140368605Y-76725266D01*
X140320986Y-76772885D01*
X140273367Y-76868123D01*
X140273367Y-76915742D01*
X140320986Y-77010980D01*
X140368605Y-77058600D01*
X140463843Y-77106219D01*
X140654320Y-77106219D01*
X140749558Y-77058600D01*
X140797177Y-77010980D01*
X140844796Y-76915742D01*
X140844796Y-76868123D01*
X140797177Y-76772885D01*
X140749558Y-76725266D01*
X140654320Y-76677647D01*
X140463843Y-76677647D01*
X140368605Y-76630028D01*
X140320986Y-76582409D01*
X140273367Y-76487171D01*
X140273367Y-76296695D01*
X140320986Y-76201457D01*
X140368605Y-76153838D01*
X140463843Y-76106219D01*
X140654320Y-76106219D01*
X140749558Y-76153838D01*
X140797177Y-76201457D01*
X140844796Y-76296695D01*
X140844796Y-76487171D01*
X140797177Y-76582409D01*
X140749558Y-76630028D01*
X140654320Y-76677647D01*
%TO.C,C5*%
X128855441Y-95569034D02*
X128903060Y-95521415D01*
X128950679Y-95378558D01*
X128950679Y-95283320D01*
X128903060Y-95140462D01*
X128807822Y-95045224D01*
X128712584Y-94997605D01*
X128522108Y-94949986D01*
X128379251Y-94949986D01*
X128188775Y-94997605D01*
X128093537Y-95045224D01*
X127998299Y-95140462D01*
X127950679Y-95283320D01*
X127950679Y-95378558D01*
X127998299Y-95521415D01*
X128045918Y-95569034D01*
X127950679Y-96473796D02*
X127950679Y-95997605D01*
X128426870Y-95949986D01*
X128379251Y-95997605D01*
X128331632Y-96092843D01*
X128331632Y-96330939D01*
X128379251Y-96426177D01*
X128426870Y-96473796D01*
X128522108Y-96521415D01*
X128760203Y-96521415D01*
X128855441Y-96473796D01*
X128903060Y-96426177D01*
X128950679Y-96330939D01*
X128950679Y-96092843D01*
X128903060Y-95997605D01*
X128855441Y-95949986D01*
%TO.C,R25*%
X105443257Y-67889380D02*
X105776590Y-67413190D01*
X106014685Y-67889380D02*
X106014685Y-66889380D01*
X105633733Y-66889380D01*
X105538495Y-66937000D01*
X105490876Y-66984619D01*
X105443257Y-67079857D01*
X105443257Y-67222714D01*
X105490876Y-67317952D01*
X105538495Y-67365571D01*
X105633733Y-67413190D01*
X106014685Y-67413190D01*
X105062304Y-66984619D02*
X105014685Y-66937000D01*
X104919447Y-66889380D01*
X104681352Y-66889380D01*
X104586114Y-66937000D01*
X104538495Y-66984619D01*
X104490876Y-67079857D01*
X104490876Y-67175095D01*
X104538495Y-67317952D01*
X105109923Y-67889380D01*
X104490876Y-67889380D01*
X103586114Y-66889380D02*
X104062304Y-66889380D01*
X104109923Y-67365571D01*
X104062304Y-67317952D01*
X103967066Y-67270333D01*
X103728971Y-67270333D01*
X103633733Y-67317952D01*
X103586114Y-67365571D01*
X103538495Y-67460809D01*
X103538495Y-67698904D01*
X103586114Y-67794142D01*
X103633733Y-67841761D01*
X103728971Y-67889380D01*
X103967066Y-67889380D01*
X104062304Y-67841761D01*
X104109923Y-67794142D01*
%TO.C,C18*%
X132189457Y-90352942D02*
X132237076Y-90400561D01*
X132379933Y-90448180D01*
X132475171Y-90448180D01*
X132618028Y-90400561D01*
X132713266Y-90305323D01*
X132760885Y-90210085D01*
X132808504Y-90019609D01*
X132808504Y-89876752D01*
X132760885Y-89686276D01*
X132713266Y-89591038D01*
X132618028Y-89495800D01*
X132475171Y-89448180D01*
X132379933Y-89448180D01*
X132237076Y-89495800D01*
X132189457Y-89543419D01*
X131237076Y-90448180D02*
X131808504Y-90448180D01*
X131522790Y-90448180D02*
X131522790Y-89448180D01*
X131618028Y-89591038D01*
X131713266Y-89686276D01*
X131808504Y-89733895D01*
X130665647Y-89876752D02*
X130760885Y-89829133D01*
X130808504Y-89781514D01*
X130856123Y-89686276D01*
X130856123Y-89638657D01*
X130808504Y-89543419D01*
X130760885Y-89495800D01*
X130665647Y-89448180D01*
X130475171Y-89448180D01*
X130379933Y-89495800D01*
X130332314Y-89543419D01*
X130284695Y-89638657D01*
X130284695Y-89686276D01*
X130332314Y-89781514D01*
X130379933Y-89829133D01*
X130475171Y-89876752D01*
X130665647Y-89876752D01*
X130760885Y-89924371D01*
X130808504Y-89971990D01*
X130856123Y-90067228D01*
X130856123Y-90257704D01*
X130808504Y-90352942D01*
X130760885Y-90400561D01*
X130665647Y-90448180D01*
X130475171Y-90448180D01*
X130379933Y-90400561D01*
X130332314Y-90352942D01*
X130284695Y-90257704D01*
X130284695Y-90067228D01*
X130332314Y-89971990D01*
X130379933Y-89924371D01*
X130475171Y-89876752D01*
%TO.C,C10*%
X128172357Y-91064142D02*
X128219976Y-91111761D01*
X128362833Y-91159380D01*
X128458071Y-91159380D01*
X128600928Y-91111761D01*
X128696166Y-91016523D01*
X128743785Y-90921285D01*
X128791404Y-90730809D01*
X128791404Y-90587952D01*
X128743785Y-90397476D01*
X128696166Y-90302238D01*
X128600928Y-90207000D01*
X128458071Y-90159380D01*
X128362833Y-90159380D01*
X128219976Y-90207000D01*
X128172357Y-90254619D01*
X127219976Y-91159380D02*
X127791404Y-91159380D01*
X127505690Y-91159380D02*
X127505690Y-90159380D01*
X127600928Y-90302238D01*
X127696166Y-90397476D01*
X127791404Y-90445095D01*
X126600928Y-90159380D02*
X126505690Y-90159380D01*
X126410452Y-90207000D01*
X126362833Y-90254619D01*
X126315214Y-90349857D01*
X126267595Y-90540333D01*
X126267595Y-90778428D01*
X126315214Y-90968904D01*
X126362833Y-91064142D01*
X126410452Y-91111761D01*
X126505690Y-91159380D01*
X126600928Y-91159380D01*
X126696166Y-91111761D01*
X126743785Y-91064142D01*
X126791404Y-90968904D01*
X126839023Y-90778428D01*
X126839023Y-90540333D01*
X126791404Y-90349857D01*
X126743785Y-90254619D01*
X126696166Y-90207000D01*
X126600928Y-90159380D01*
%TO.C,R17*%
X103462057Y-80716380D02*
X103795390Y-80240190D01*
X104033485Y-80716380D02*
X104033485Y-79716380D01*
X103652533Y-79716380D01*
X103557295Y-79764000D01*
X103509676Y-79811619D01*
X103462057Y-79906857D01*
X103462057Y-80049714D01*
X103509676Y-80144952D01*
X103557295Y-80192571D01*
X103652533Y-80240190D01*
X104033485Y-80240190D01*
X102509676Y-80716380D02*
X103081104Y-80716380D01*
X102795390Y-80716380D02*
X102795390Y-79716380D01*
X102890628Y-79859238D01*
X102985866Y-79954476D01*
X103081104Y-80002095D01*
X102176342Y-79716380D02*
X101509676Y-79716380D01*
X101938247Y-80716380D01*
%TO.C,U2*%
X129186380Y-75276595D02*
X129995904Y-75276595D01*
X130091142Y-75324214D01*
X130138761Y-75371833D01*
X130186380Y-75467071D01*
X130186380Y-75657547D01*
X130138761Y-75752785D01*
X130091142Y-75800404D01*
X129995904Y-75848023D01*
X129186380Y-75848023D01*
X129281619Y-76276595D02*
X129234000Y-76324214D01*
X129186380Y-76419452D01*
X129186380Y-76657547D01*
X129234000Y-76752785D01*
X129281619Y-76800404D01*
X129376857Y-76848023D01*
X129472095Y-76848023D01*
X129614952Y-76800404D01*
X130186380Y-76228976D01*
X130186380Y-76848023D01*
%TO.C,U10*%
X111550295Y-67288780D02*
X111550295Y-68098304D01*
X111502676Y-68193542D01*
X111455057Y-68241161D01*
X111359819Y-68288780D01*
X111169342Y-68288780D01*
X111074104Y-68241161D01*
X111026485Y-68193542D01*
X110978866Y-68098304D01*
X110978866Y-67288780D01*
X109978866Y-68288780D02*
X110550295Y-68288780D01*
X110264580Y-68288780D02*
X110264580Y-67288780D01*
X110359819Y-67431638D01*
X110455057Y-67526876D01*
X110550295Y-67574495D01*
X109359819Y-67288780D02*
X109264580Y-67288780D01*
X109169342Y-67336400D01*
X109121723Y-67384019D01*
X109074104Y-67479257D01*
X109026485Y-67669733D01*
X109026485Y-67907828D01*
X109074104Y-68098304D01*
X109121723Y-68193542D01*
X109169342Y-68241161D01*
X109264580Y-68288780D01*
X109359819Y-68288780D01*
X109455057Y-68241161D01*
X109502676Y-68193542D01*
X109550295Y-68098304D01*
X109597914Y-67907828D01*
X109597914Y-67669733D01*
X109550295Y-67479257D01*
X109502676Y-67384019D01*
X109455057Y-67336400D01*
X109359819Y-67288780D01*
%TO.C,U11*%
X121659495Y-80293580D02*
X121659495Y-81103104D01*
X121611876Y-81198342D01*
X121564257Y-81245961D01*
X121469019Y-81293580D01*
X121278542Y-81293580D01*
X121183304Y-81245961D01*
X121135685Y-81198342D01*
X121088066Y-81103104D01*
X121088066Y-80293580D01*
X120088066Y-81293580D02*
X120659495Y-81293580D01*
X120373780Y-81293580D02*
X120373780Y-80293580D01*
X120469019Y-80436438D01*
X120564257Y-80531676D01*
X120659495Y-80579295D01*
X119135685Y-81293580D02*
X119707114Y-81293580D01*
X119421400Y-81293580D02*
X119421400Y-80293580D01*
X119516638Y-80436438D01*
X119611876Y-80531676D01*
X119707114Y-80579295D01*
%TO.C,C11*%
X141485857Y-87250542D02*
X141533476Y-87298161D01*
X141676333Y-87345780D01*
X141771571Y-87345780D01*
X141914428Y-87298161D01*
X142009666Y-87202923D01*
X142057285Y-87107685D01*
X142104904Y-86917209D01*
X142104904Y-86774352D01*
X142057285Y-86583876D01*
X142009666Y-86488638D01*
X141914428Y-86393400D01*
X141771571Y-86345780D01*
X141676333Y-86345780D01*
X141533476Y-86393400D01*
X141485857Y-86441019D01*
X140533476Y-87345780D02*
X141104904Y-87345780D01*
X140819190Y-87345780D02*
X140819190Y-86345780D01*
X140914428Y-86488638D01*
X141009666Y-86583876D01*
X141104904Y-86631495D01*
X139581095Y-87345780D02*
X140152523Y-87345780D01*
X139866809Y-87345780D02*
X139866809Y-86345780D01*
X139962047Y-86488638D01*
X140057285Y-86583876D01*
X140152523Y-86631495D01*
%TO.C,R8*%
X103423980Y-98105933D02*
X102947790Y-97772600D01*
X103423980Y-97534504D02*
X102423980Y-97534504D01*
X102423980Y-97915457D01*
X102471600Y-98010695D01*
X102519219Y-98058314D01*
X102614457Y-98105933D01*
X102757314Y-98105933D01*
X102852552Y-98058314D01*
X102900171Y-98010695D01*
X102947790Y-97915457D01*
X102947790Y-97534504D01*
X102852552Y-98677361D02*
X102804933Y-98582123D01*
X102757314Y-98534504D01*
X102662076Y-98486885D01*
X102614457Y-98486885D01*
X102519219Y-98534504D01*
X102471600Y-98582123D01*
X102423980Y-98677361D01*
X102423980Y-98867838D01*
X102471600Y-98963076D01*
X102519219Y-99010695D01*
X102614457Y-99058314D01*
X102662076Y-99058314D01*
X102757314Y-99010695D01*
X102804933Y-98963076D01*
X102852552Y-98867838D01*
X102852552Y-98677361D01*
X102900171Y-98582123D01*
X102947790Y-98534504D01*
X103043028Y-98486885D01*
X103233504Y-98486885D01*
X103328742Y-98534504D01*
X103376361Y-98582123D01*
X103423980Y-98677361D01*
X103423980Y-98867838D01*
X103376361Y-98963076D01*
X103328742Y-99010695D01*
X103233504Y-99058314D01*
X103043028Y-99058314D01*
X102947790Y-99010695D01*
X102900171Y-98963076D01*
X102852552Y-98867838D01*
%TO.C,R7*%
X104535266Y-89758780D02*
X104868600Y-89282590D01*
X105106695Y-89758780D02*
X105106695Y-88758780D01*
X104725742Y-88758780D01*
X104630504Y-88806400D01*
X104582885Y-88854019D01*
X104535266Y-88949257D01*
X104535266Y-89092114D01*
X104582885Y-89187352D01*
X104630504Y-89234971D01*
X104725742Y-89282590D01*
X105106695Y-89282590D01*
X104201933Y-88758780D02*
X103535266Y-88758780D01*
X103963838Y-89758780D01*
%TO.C,C9*%
X134548942Y-67371933D02*
X134596561Y-67324314D01*
X134644180Y-67181457D01*
X134644180Y-67086219D01*
X134596561Y-66943361D01*
X134501323Y-66848123D01*
X134406085Y-66800504D01*
X134215609Y-66752885D01*
X134072752Y-66752885D01*
X133882276Y-66800504D01*
X133787038Y-66848123D01*
X133691800Y-66943361D01*
X133644180Y-67086219D01*
X133644180Y-67181457D01*
X133691800Y-67324314D01*
X133739419Y-67371933D01*
X134644180Y-67848123D02*
X134644180Y-68038600D01*
X134596561Y-68133838D01*
X134548942Y-68181457D01*
X134406085Y-68276695D01*
X134215609Y-68324314D01*
X133834657Y-68324314D01*
X133739419Y-68276695D01*
X133691800Y-68229076D01*
X133644180Y-68133838D01*
X133644180Y-67943361D01*
X133691800Y-67848123D01*
X133739419Y-67800504D01*
X133834657Y-67752885D01*
X134072752Y-67752885D01*
X134167990Y-67800504D01*
X134215609Y-67848123D01*
X134263228Y-67943361D01*
X134263228Y-68133838D01*
X134215609Y-68229076D01*
X134167990Y-68276695D01*
X134072752Y-68324314D01*
%TO.C,C12*%
X130589257Y-72239142D02*
X130636876Y-72286761D01*
X130779733Y-72334380D01*
X130874971Y-72334380D01*
X131017828Y-72286761D01*
X131113066Y-72191523D01*
X131160685Y-72096285D01*
X131208304Y-71905809D01*
X131208304Y-71762952D01*
X131160685Y-71572476D01*
X131113066Y-71477238D01*
X131017828Y-71382000D01*
X130874971Y-71334380D01*
X130779733Y-71334380D01*
X130636876Y-71382000D01*
X130589257Y-71429619D01*
X129636876Y-72334380D02*
X130208304Y-72334380D01*
X129922590Y-72334380D02*
X129922590Y-71334380D01*
X130017828Y-71477238D01*
X130113066Y-71572476D01*
X130208304Y-71620095D01*
X129255923Y-71429619D02*
X129208304Y-71382000D01*
X129113066Y-71334380D01*
X128874971Y-71334380D01*
X128779733Y-71382000D01*
X128732114Y-71429619D01*
X128684495Y-71524857D01*
X128684495Y-71620095D01*
X128732114Y-71762952D01*
X129303542Y-72334380D01*
X128684495Y-72334380D01*
%TO.C,R1*%
X121384866Y-99384380D02*
X121718200Y-98908190D01*
X121956295Y-99384380D02*
X121956295Y-98384380D01*
X121575342Y-98384380D01*
X121480104Y-98432000D01*
X121432485Y-98479619D01*
X121384866Y-98574857D01*
X121384866Y-98717714D01*
X121432485Y-98812952D01*
X121480104Y-98860571D01*
X121575342Y-98908190D01*
X121956295Y-98908190D01*
X120432485Y-99384380D02*
X121003914Y-99384380D01*
X120718200Y-99384380D02*
X120718200Y-98384380D01*
X120813438Y-98527238D01*
X120908676Y-98622476D01*
X121003914Y-98670095D01*
%TO.C,U9*%
X97978980Y-74650695D02*
X98788504Y-74650695D01*
X98883742Y-74698314D01*
X98931361Y-74745933D01*
X98978980Y-74841171D01*
X98978980Y-75031647D01*
X98931361Y-75126885D01*
X98883742Y-75174504D01*
X98788504Y-75222123D01*
X97978980Y-75222123D01*
X98978980Y-75745933D02*
X98978980Y-75936409D01*
X98931361Y-76031647D01*
X98883742Y-76079266D01*
X98740885Y-76174504D01*
X98550409Y-76222123D01*
X98169457Y-76222123D01*
X98074219Y-76174504D01*
X98026600Y-76126885D01*
X97978980Y-76031647D01*
X97978980Y-75841171D01*
X98026600Y-75745933D01*
X98074219Y-75698314D01*
X98169457Y-75650695D01*
X98407552Y-75650695D01*
X98502790Y-75698314D01*
X98550409Y-75745933D01*
X98598028Y-75841171D01*
X98598028Y-76031647D01*
X98550409Y-76126885D01*
X98502790Y-76174504D01*
X98407552Y-76222123D01*
%TO.C,C7*%
X119152942Y-92060733D02*
X119200561Y-92013114D01*
X119248180Y-91870257D01*
X119248180Y-91775019D01*
X119200561Y-91632161D01*
X119105323Y-91536923D01*
X119010085Y-91489304D01*
X118819609Y-91441685D01*
X118676752Y-91441685D01*
X118486276Y-91489304D01*
X118391038Y-91536923D01*
X118295800Y-91632161D01*
X118248180Y-91775019D01*
X118248180Y-91870257D01*
X118295800Y-92013114D01*
X118343419Y-92060733D01*
X118248180Y-92394066D02*
X118248180Y-93060733D01*
X119248180Y-92632161D01*
%TO.C,R4*%
X129738380Y-73594933D02*
X129262190Y-73261600D01*
X129738380Y-73023504D02*
X128738380Y-73023504D01*
X128738380Y-73404457D01*
X128786000Y-73499695D01*
X128833619Y-73547314D01*
X128928857Y-73594933D01*
X129071714Y-73594933D01*
X129166952Y-73547314D01*
X129214571Y-73499695D01*
X129262190Y-73404457D01*
X129262190Y-73023504D01*
X129071714Y-74452076D02*
X129738380Y-74452076D01*
X128690761Y-74213980D02*
X129405047Y-73975885D01*
X129405047Y-74594933D01*
%TO.C,C13*%
X135227542Y-83888342D02*
X135275161Y-83840723D01*
X135322780Y-83697866D01*
X135322780Y-83602628D01*
X135275161Y-83459771D01*
X135179923Y-83364533D01*
X135084685Y-83316914D01*
X134894209Y-83269295D01*
X134751352Y-83269295D01*
X134560876Y-83316914D01*
X134465638Y-83364533D01*
X134370400Y-83459771D01*
X134322780Y-83602628D01*
X134322780Y-83697866D01*
X134370400Y-83840723D01*
X134418019Y-83888342D01*
X135322780Y-84840723D02*
X135322780Y-84269295D01*
X135322780Y-84555009D02*
X134322780Y-84555009D01*
X134465638Y-84459771D01*
X134560876Y-84364533D01*
X134608495Y-84269295D01*
X134322780Y-85174057D02*
X134322780Y-85793104D01*
X134703733Y-85459771D01*
X134703733Y-85602628D01*
X134751352Y-85697866D01*
X134798971Y-85745485D01*
X134894209Y-85793104D01*
X135132304Y-85793104D01*
X135227542Y-85745485D01*
X135275161Y-85697866D01*
X135322780Y-85602628D01*
X135322780Y-85316914D01*
X135275161Y-85221676D01*
X135227542Y-85174057D01*
%TO.C,R30*%
X98116380Y-83497942D02*
X97640190Y-83164609D01*
X98116380Y-82926514D02*
X97116380Y-82926514D01*
X97116380Y-83307466D01*
X97164000Y-83402704D01*
X97211619Y-83450323D01*
X97306857Y-83497942D01*
X97449714Y-83497942D01*
X97544952Y-83450323D01*
X97592571Y-83402704D01*
X97640190Y-83307466D01*
X97640190Y-82926514D01*
X97116380Y-83831276D02*
X97116380Y-84450323D01*
X97497333Y-84116990D01*
X97497333Y-84259847D01*
X97544952Y-84355085D01*
X97592571Y-84402704D01*
X97687809Y-84450323D01*
X97925904Y-84450323D01*
X98021142Y-84402704D01*
X98068761Y-84355085D01*
X98116380Y-84259847D01*
X98116380Y-83974133D01*
X98068761Y-83878895D01*
X98021142Y-83831276D01*
X97116380Y-85069371D02*
X97116380Y-85164609D01*
X97164000Y-85259847D01*
X97211619Y-85307466D01*
X97306857Y-85355085D01*
X97497333Y-85402704D01*
X97735428Y-85402704D01*
X97925904Y-85355085D01*
X98021142Y-85307466D01*
X98068761Y-85259847D01*
X98116380Y-85164609D01*
X98116380Y-85069371D01*
X98068761Y-84974133D01*
X98021142Y-84926514D01*
X97925904Y-84878895D01*
X97735428Y-84831276D01*
X97497333Y-84831276D01*
X97306857Y-84878895D01*
X97211619Y-84926514D01*
X97164000Y-84974133D01*
X97116380Y-85069371D01*
%TO.C,R16*%
X121140457Y-68348580D02*
X121473790Y-67872390D01*
X121711885Y-68348580D02*
X121711885Y-67348580D01*
X121330933Y-67348580D01*
X121235695Y-67396200D01*
X121188076Y-67443819D01*
X121140457Y-67539057D01*
X121140457Y-67681914D01*
X121188076Y-67777152D01*
X121235695Y-67824771D01*
X121330933Y-67872390D01*
X121711885Y-67872390D01*
X120188076Y-68348580D02*
X120759504Y-68348580D01*
X120473790Y-68348580D02*
X120473790Y-67348580D01*
X120569028Y-67491438D01*
X120664266Y-67586676D01*
X120759504Y-67634295D01*
X119330933Y-67348580D02*
X119521409Y-67348580D01*
X119616647Y-67396200D01*
X119664266Y-67443819D01*
X119759504Y-67586676D01*
X119807123Y-67777152D01*
X119807123Y-68158104D01*
X119759504Y-68253342D01*
X119711885Y-68300961D01*
X119616647Y-68348580D01*
X119426171Y-68348580D01*
X119330933Y-68300961D01*
X119283314Y-68253342D01*
X119235695Y-68158104D01*
X119235695Y-67920009D01*
X119283314Y-67824771D01*
X119330933Y-67777152D01*
X119426171Y-67729533D01*
X119616647Y-67729533D01*
X119711885Y-67777152D01*
X119759504Y-67824771D01*
X119807123Y-67920009D01*
%TO.C,C8*%
X133796066Y-94159342D02*
X133843685Y-94206961D01*
X133986542Y-94254580D01*
X134081780Y-94254580D01*
X134224638Y-94206961D01*
X134319876Y-94111723D01*
X134367495Y-94016485D01*
X134415114Y-93826009D01*
X134415114Y-93683152D01*
X134367495Y-93492676D01*
X134319876Y-93397438D01*
X134224638Y-93302200D01*
X134081780Y-93254580D01*
X133986542Y-93254580D01*
X133843685Y-93302200D01*
X133796066Y-93349819D01*
X133224638Y-93683152D02*
X133319876Y-93635533D01*
X133367495Y-93587914D01*
X133415114Y-93492676D01*
X133415114Y-93445057D01*
X133367495Y-93349819D01*
X133319876Y-93302200D01*
X133224638Y-93254580D01*
X133034161Y-93254580D01*
X132938923Y-93302200D01*
X132891304Y-93349819D01*
X132843685Y-93445057D01*
X132843685Y-93492676D01*
X132891304Y-93587914D01*
X132938923Y-93635533D01*
X133034161Y-93683152D01*
X133224638Y-93683152D01*
X133319876Y-93730771D01*
X133367495Y-93778390D01*
X133415114Y-93873628D01*
X133415114Y-94064104D01*
X133367495Y-94159342D01*
X133319876Y-94206961D01*
X133224638Y-94254580D01*
X133034161Y-94254580D01*
X132938923Y-94206961D01*
X132891304Y-94159342D01*
X132843685Y-94064104D01*
X132843685Y-93873628D01*
X132891304Y-93778390D01*
X132938923Y-93730771D01*
X133034161Y-93683152D01*
%TO.C,C14*%
X138812542Y-78808342D02*
X138860161Y-78760723D01*
X138907780Y-78617866D01*
X138907780Y-78522628D01*
X138860161Y-78379771D01*
X138764923Y-78284533D01*
X138669685Y-78236914D01*
X138479209Y-78189295D01*
X138336352Y-78189295D01*
X138145876Y-78236914D01*
X138050638Y-78284533D01*
X137955400Y-78379771D01*
X137907780Y-78522628D01*
X137907780Y-78617866D01*
X137955400Y-78760723D01*
X138003019Y-78808342D01*
X138907780Y-79760723D02*
X138907780Y-79189295D01*
X138907780Y-79475009D02*
X137907780Y-79475009D01*
X138050638Y-79379771D01*
X138145876Y-79284533D01*
X138193495Y-79189295D01*
X138241114Y-80617866D02*
X138907780Y-80617866D01*
X137860161Y-80379771D02*
X138574447Y-80141676D01*
X138574447Y-80760723D01*
%TO.C,R2*%
X135904266Y-97226380D02*
X136237600Y-96750190D01*
X136475695Y-97226380D02*
X136475695Y-96226380D01*
X136094742Y-96226380D01*
X135999504Y-96274000D01*
X135951885Y-96321619D01*
X135904266Y-96416857D01*
X135904266Y-96559714D01*
X135951885Y-96654952D01*
X135999504Y-96702571D01*
X136094742Y-96750190D01*
X136475695Y-96750190D01*
X135523314Y-96321619D02*
X135475695Y-96274000D01*
X135380457Y-96226380D01*
X135142361Y-96226380D01*
X135047123Y-96274000D01*
X134999504Y-96321619D01*
X134951885Y-96416857D01*
X134951885Y-96512095D01*
X134999504Y-96654952D01*
X135570933Y-97226380D01*
X134951885Y-97226380D01*
%TO.C,R22*%
X105798857Y-73299580D02*
X106132190Y-72823390D01*
X106370285Y-73299580D02*
X106370285Y-72299580D01*
X105989333Y-72299580D01*
X105894095Y-72347200D01*
X105846476Y-72394819D01*
X105798857Y-72490057D01*
X105798857Y-72632914D01*
X105846476Y-72728152D01*
X105894095Y-72775771D01*
X105989333Y-72823390D01*
X106370285Y-72823390D01*
X105417904Y-72394819D02*
X105370285Y-72347200D01*
X105275047Y-72299580D01*
X105036952Y-72299580D01*
X104941714Y-72347200D01*
X104894095Y-72394819D01*
X104846476Y-72490057D01*
X104846476Y-72585295D01*
X104894095Y-72728152D01*
X105465523Y-73299580D01*
X104846476Y-73299580D01*
X104465523Y-72394819D02*
X104417904Y-72347200D01*
X104322666Y-72299580D01*
X104084571Y-72299580D01*
X103989333Y-72347200D01*
X103941714Y-72394819D01*
X103894095Y-72490057D01*
X103894095Y-72585295D01*
X103941714Y-72728152D01*
X104513142Y-73299580D01*
X103894095Y-73299580D01*
%TO.C,C21*%
X105849657Y-96144142D02*
X105897276Y-96191761D01*
X106040133Y-96239380D01*
X106135371Y-96239380D01*
X106278228Y-96191761D01*
X106373466Y-96096523D01*
X106421085Y-96001285D01*
X106468704Y-95810809D01*
X106468704Y-95667952D01*
X106421085Y-95477476D01*
X106373466Y-95382238D01*
X106278228Y-95287000D01*
X106135371Y-95239380D01*
X106040133Y-95239380D01*
X105897276Y-95287000D01*
X105849657Y-95334619D01*
X105468704Y-95334619D02*
X105421085Y-95287000D01*
X105325847Y-95239380D01*
X105087752Y-95239380D01*
X104992514Y-95287000D01*
X104944895Y-95334619D01*
X104897276Y-95429857D01*
X104897276Y-95525095D01*
X104944895Y-95667952D01*
X105516323Y-96239380D01*
X104897276Y-96239380D01*
X103944895Y-96239380D02*
X104516323Y-96239380D01*
X104230609Y-96239380D02*
X104230609Y-95239380D01*
X104325847Y-95382238D01*
X104421085Y-95477476D01*
X104516323Y-95525095D01*
%TO.C,R33*%
X99398057Y-94330780D02*
X99731390Y-93854590D01*
X99969485Y-94330780D02*
X99969485Y-93330780D01*
X99588533Y-93330780D01*
X99493295Y-93378400D01*
X99445676Y-93426019D01*
X99398057Y-93521257D01*
X99398057Y-93664114D01*
X99445676Y-93759352D01*
X99493295Y-93806971D01*
X99588533Y-93854590D01*
X99969485Y-93854590D01*
X99064723Y-93330780D02*
X98445676Y-93330780D01*
X98779009Y-93711733D01*
X98636152Y-93711733D01*
X98540914Y-93759352D01*
X98493295Y-93806971D01*
X98445676Y-93902209D01*
X98445676Y-94140304D01*
X98493295Y-94235542D01*
X98540914Y-94283161D01*
X98636152Y-94330780D01*
X98921866Y-94330780D01*
X99017104Y-94283161D01*
X99064723Y-94235542D01*
X98112342Y-93330780D02*
X97493295Y-93330780D01*
X97826628Y-93711733D01*
X97683771Y-93711733D01*
X97588533Y-93759352D01*
X97540914Y-93806971D01*
X97493295Y-93902209D01*
X97493295Y-94140304D01*
X97540914Y-94235542D01*
X97588533Y-94283161D01*
X97683771Y-94330780D01*
X97969485Y-94330780D01*
X98064723Y-94283161D01*
X98112342Y-94235542D01*
%TO.C,L3*%
X119241866Y-87320380D02*
X119718057Y-87320380D01*
X119718057Y-86320380D01*
X119003771Y-86320380D02*
X118384723Y-86320380D01*
X118718057Y-86701333D01*
X118575200Y-86701333D01*
X118479961Y-86748952D01*
X118432342Y-86796571D01*
X118384723Y-86891809D01*
X118384723Y-87129904D01*
X118432342Y-87225142D01*
X118479961Y-87272761D01*
X118575200Y-87320380D01*
X118860914Y-87320380D01*
X118956152Y-87272761D01*
X119003771Y-87225142D01*
%TO.C,U22*%
X133876895Y-83805780D02*
X133876895Y-84615304D01*
X133829276Y-84710542D01*
X133781657Y-84758161D01*
X133686419Y-84805780D01*
X133495942Y-84805780D01*
X133400704Y-84758161D01*
X133353085Y-84710542D01*
X133305466Y-84615304D01*
X133305466Y-83805780D01*
X132876895Y-83901019D02*
X132829276Y-83853400D01*
X132734038Y-83805780D01*
X132495942Y-83805780D01*
X132400704Y-83853400D01*
X132353085Y-83901019D01*
X132305466Y-83996257D01*
X132305466Y-84091495D01*
X132353085Y-84234352D01*
X132924514Y-84805780D01*
X132305466Y-84805780D01*
X131924514Y-83901019D02*
X131876895Y-83853400D01*
X131781657Y-83805780D01*
X131543561Y-83805780D01*
X131448323Y-83853400D01*
X131400704Y-83901019D01*
X131353085Y-83996257D01*
X131353085Y-84091495D01*
X131400704Y-84234352D01*
X131972133Y-84805780D01*
X131353085Y-84805780D01*
%TO.C,R29*%
X125280657Y-67407780D02*
X125613990Y-66931590D01*
X125852085Y-67407780D02*
X125852085Y-66407780D01*
X125471133Y-66407780D01*
X125375895Y-66455400D01*
X125328276Y-66503019D01*
X125280657Y-66598257D01*
X125280657Y-66741114D01*
X125328276Y-66836352D01*
X125375895Y-66883971D01*
X125471133Y-66931590D01*
X125852085Y-66931590D01*
X124899704Y-66503019D02*
X124852085Y-66455400D01*
X124756847Y-66407780D01*
X124518752Y-66407780D01*
X124423514Y-66455400D01*
X124375895Y-66503019D01*
X124328276Y-66598257D01*
X124328276Y-66693495D01*
X124375895Y-66836352D01*
X124947323Y-67407780D01*
X124328276Y-67407780D01*
X123852085Y-67407780D02*
X123661609Y-67407780D01*
X123566371Y-67360161D01*
X123518752Y-67312542D01*
X123423514Y-67169685D01*
X123375895Y-66979209D01*
X123375895Y-66598257D01*
X123423514Y-66503019D01*
X123471133Y-66455400D01*
X123566371Y-66407780D01*
X123756847Y-66407780D01*
X123852085Y-66455400D01*
X123899704Y-66503019D01*
X123947323Y-66598257D01*
X123947323Y-66836352D01*
X123899704Y-66931590D01*
X123852085Y-66979209D01*
X123756847Y-67026828D01*
X123566371Y-67026828D01*
X123471133Y-66979209D01*
X123423514Y-66931590D01*
X123375895Y-66836352D01*
%TO.C,R15*%
X111488457Y-74620380D02*
X111821790Y-74144190D01*
X112059885Y-74620380D02*
X112059885Y-73620380D01*
X111678933Y-73620380D01*
X111583695Y-73668000D01*
X111536076Y-73715619D01*
X111488457Y-73810857D01*
X111488457Y-73953714D01*
X111536076Y-74048952D01*
X111583695Y-74096571D01*
X111678933Y-74144190D01*
X112059885Y-74144190D01*
X110536076Y-74620380D02*
X111107504Y-74620380D01*
X110821790Y-74620380D02*
X110821790Y-73620380D01*
X110917028Y-73763238D01*
X111012266Y-73858476D01*
X111107504Y-73906095D01*
X109631314Y-73620380D02*
X110107504Y-73620380D01*
X110155123Y-74096571D01*
X110107504Y-74048952D01*
X110012266Y-74001333D01*
X109774171Y-74001333D01*
X109678933Y-74048952D01*
X109631314Y-74096571D01*
X109583695Y-74191809D01*
X109583695Y-74429904D01*
X109631314Y-74525142D01*
X109678933Y-74572761D01*
X109774171Y-74620380D01*
X110012266Y-74620380D01*
X110107504Y-74572761D01*
X110155123Y-74525142D01*
%TO.C,R6*%
X105754466Y-82494380D02*
X106087800Y-82018190D01*
X106325895Y-82494380D02*
X106325895Y-81494380D01*
X105944942Y-81494380D01*
X105849704Y-81542000D01*
X105802085Y-81589619D01*
X105754466Y-81684857D01*
X105754466Y-81827714D01*
X105802085Y-81922952D01*
X105849704Y-81970571D01*
X105944942Y-82018190D01*
X106325895Y-82018190D01*
X104897323Y-81494380D02*
X105087800Y-81494380D01*
X105183038Y-81542000D01*
X105230657Y-81589619D01*
X105325895Y-81732476D01*
X105373514Y-81922952D01*
X105373514Y-82303904D01*
X105325895Y-82399142D01*
X105278276Y-82446761D01*
X105183038Y-82494380D01*
X104992561Y-82494380D01*
X104897323Y-82446761D01*
X104849704Y-82399142D01*
X104802085Y-82303904D01*
X104802085Y-82065809D01*
X104849704Y-81970571D01*
X104897323Y-81922952D01*
X104992561Y-81875333D01*
X105183038Y-81875333D01*
X105278276Y-81922952D01*
X105325895Y-81970571D01*
X105373514Y-82065809D01*
%TO.C,R12*%
X101755257Y-68143380D02*
X102088590Y-67667190D01*
X102326685Y-68143380D02*
X102326685Y-67143380D01*
X101945733Y-67143380D01*
X101850495Y-67191000D01*
X101802876Y-67238619D01*
X101755257Y-67333857D01*
X101755257Y-67476714D01*
X101802876Y-67571952D01*
X101850495Y-67619571D01*
X101945733Y-67667190D01*
X102326685Y-67667190D01*
X100802876Y-68143380D02*
X101374304Y-68143380D01*
X101088590Y-68143380D02*
X101088590Y-67143380D01*
X101183828Y-67286238D01*
X101279066Y-67381476D01*
X101374304Y-67429095D01*
X100421923Y-67238619D02*
X100374304Y-67191000D01*
X100279066Y-67143380D01*
X100040971Y-67143380D01*
X99945733Y-67191000D01*
X99898114Y-67238619D01*
X99850495Y-67333857D01*
X99850495Y-67429095D01*
X99898114Y-67571952D01*
X100469542Y-68143380D01*
X99850495Y-68143380D01*
%TO.C,R31*%
X103512857Y-81986380D02*
X103846190Y-81510190D01*
X104084285Y-81986380D02*
X104084285Y-80986380D01*
X103703333Y-80986380D01*
X103608095Y-81034000D01*
X103560476Y-81081619D01*
X103512857Y-81176857D01*
X103512857Y-81319714D01*
X103560476Y-81414952D01*
X103608095Y-81462571D01*
X103703333Y-81510190D01*
X104084285Y-81510190D01*
X103179523Y-80986380D02*
X102560476Y-80986380D01*
X102893809Y-81367333D01*
X102750952Y-81367333D01*
X102655714Y-81414952D01*
X102608095Y-81462571D01*
X102560476Y-81557809D01*
X102560476Y-81795904D01*
X102608095Y-81891142D01*
X102655714Y-81938761D01*
X102750952Y-81986380D01*
X103036666Y-81986380D01*
X103131904Y-81938761D01*
X103179523Y-81891142D01*
X101608095Y-81986380D02*
X102179523Y-81986380D01*
X101893809Y-81986380D02*
X101893809Y-80986380D01*
X101989047Y-81129238D01*
X102084285Y-81224476D01*
X102179523Y-81272095D01*
%TO.C,R5*%
X107811866Y-84500980D02*
X108145200Y-84024790D01*
X108383295Y-84500980D02*
X108383295Y-83500980D01*
X108002342Y-83500980D01*
X107907104Y-83548600D01*
X107859485Y-83596219D01*
X107811866Y-83691457D01*
X107811866Y-83834314D01*
X107859485Y-83929552D01*
X107907104Y-83977171D01*
X108002342Y-84024790D01*
X108383295Y-84024790D01*
X106907104Y-83500980D02*
X107383295Y-83500980D01*
X107430914Y-83977171D01*
X107383295Y-83929552D01*
X107288057Y-83881933D01*
X107049961Y-83881933D01*
X106954723Y-83929552D01*
X106907104Y-83977171D01*
X106859485Y-84072409D01*
X106859485Y-84310504D01*
X106907104Y-84405742D01*
X106954723Y-84453361D01*
X107049961Y-84500980D01*
X107288057Y-84500980D01*
X107383295Y-84453361D01*
X107430914Y-84405742D01*
D11*
%TO.C,R20*%
X137593400Y-88266536D02*
X137593400Y-88720664D01*
X139063400Y-88266536D02*
X139063400Y-88720664D01*
%TO.C,R21*%
X137542600Y-92076536D02*
X137542600Y-92530664D01*
X139012600Y-92076536D02*
X139012600Y-92530664D01*
%TO.C,R24*%
X137390200Y-95937336D02*
X137390200Y-96391464D01*
X138860200Y-95937336D02*
X138860200Y-96391464D01*
%TO.C,R39*%
X114419136Y-99261600D02*
X114873264Y-99261600D01*
X114419136Y-97791600D02*
X114873264Y-97791600D01*
%TO.C,R34*%
X101525400Y-87631536D02*
X101525400Y-88085664D01*
X102995400Y-87631536D02*
X102995400Y-88085664D01*
%TO.C,D4*%
X103619800Y-96607400D02*
X110519800Y-96607400D01*
X103619800Y-99907400D02*
X103619800Y-96607400D01*
X103619800Y-99907400D02*
X110519800Y-99907400D01*
%TO.C,R26*%
X116460536Y-75411000D02*
X116914664Y-75411000D01*
X116460536Y-73941000D02*
X116914664Y-73941000D01*
%TO.C,U6*%
X132097800Y-74884100D02*
X132097800Y-74909500D01*
X132097800Y-74858700D02*
X132097800Y-74909500D01*
D12*
X132097800Y-74909500D02*
X132097800Y-74909500D01*
D11*
X133101200Y-72356500D02*
X135101200Y-72356500D01*
X134101200Y-74576500D02*
X135101200Y-74576500D01*
X132097800Y-74909500D02*
X132097800Y-74884100D01*
%TO.C,R9*%
X98071000Y-97791536D02*
X98071000Y-98245664D01*
X99541000Y-97791536D02*
X99541000Y-98245664D01*
%TO.C,U16*%
X139649200Y-84135400D02*
X140449200Y-84135400D01*
X139649200Y-81015400D02*
X140449200Y-81015400D01*
X139649200Y-81015400D02*
X138849200Y-81015400D01*
X139649200Y-84135400D02*
X137849200Y-84135400D01*
%TO.C,U15*%
X101025600Y-87568200D02*
X101025600Y-90018200D01*
X97805600Y-89368200D02*
X97805600Y-87568200D01*
%TO.C,C6*%
X123604299Y-92081453D02*
X123604299Y-91558949D01*
X122134299Y-92081453D02*
X122134299Y-91558949D01*
%TO.C,U18*%
X136993682Y-75009200D02*
X136993682Y-75034600D01*
X136993682Y-74983800D02*
X136993682Y-75034600D01*
D12*
X136993682Y-75034600D02*
X136993682Y-75034600D01*
D11*
X137997082Y-72481600D02*
X139997082Y-72481600D01*
X138997082Y-74701600D02*
X139997082Y-74701600D01*
X136993682Y-75034600D02*
X136993682Y-75009200D01*
%TO.C,C5*%
X126112299Y-95368949D02*
X126112299Y-95891453D01*
X127582299Y-95368949D02*
X127582299Y-95891453D01*
%TO.C,R25*%
X105306864Y-68251400D02*
X104852736Y-68251400D01*
X105306864Y-69721400D02*
X104852736Y-69721400D01*
%TO.C,C18*%
X131285348Y-89050800D02*
X131807852Y-89050800D01*
X131285348Y-87580800D02*
X131807852Y-87580800D01*
%TO.C,C10*%
X127268248Y-89762000D02*
X127790752Y-89762000D01*
X127268248Y-88292000D02*
X127790752Y-88292000D01*
%TO.C,R17*%
X99407736Y-81786400D02*
X99861864Y-81786400D01*
X99407736Y-80316400D02*
X99861864Y-80316400D01*
%TO.C,U2*%
X130534000Y-75138500D02*
X130534000Y-76688500D01*
X132334000Y-76688500D02*
X132334000Y-75388500D01*
%TO.C,U10*%
X109866200Y-68759200D02*
X111266200Y-68759200D01*
X111266200Y-71079200D02*
X109366200Y-71079200D01*
%TO.C,U11*%
X120486400Y-79359600D02*
X119086400Y-79359600D01*
X119086400Y-77039600D02*
X120986400Y-77039600D01*
%TO.C,C11*%
X140901052Y-84659800D02*
X140378548Y-84659800D01*
X140901052Y-86129800D02*
X140378548Y-86129800D01*
%TO.C,R8*%
X100484000Y-98451936D02*
X100484000Y-98906064D01*
X101954000Y-98451936D02*
X101954000Y-98906064D01*
%TO.C,R7*%
X105360800Y-88631536D02*
X105360800Y-89085664D01*
X106830800Y-88631536D02*
X106830800Y-89085664D01*
%TO.C,C9*%
X133246800Y-67799852D02*
X133246800Y-67277348D01*
X131776800Y-67799852D02*
X131776800Y-67277348D01*
%TO.C,C12*%
X128614448Y-70864400D02*
X129136952Y-70864400D01*
X128614448Y-69394400D02*
X129136952Y-69394400D01*
%TO.C,R1*%
X120991136Y-98017000D02*
X121445264Y-98017000D01*
X120991136Y-96547000D02*
X121445264Y-96547000D01*
%TO.C,U9*%
X101106200Y-79098200D02*
X99706200Y-79098200D01*
X99706200Y-76778200D02*
X101606200Y-76778200D01*
%TO.C,C7*%
X119721299Y-91304949D02*
X119721299Y-91827453D01*
X121191299Y-91304949D02*
X121191299Y-91827453D01*
%TO.C,R4*%
X126471000Y-72907536D02*
X126471000Y-74361664D01*
X128291000Y-72907536D02*
X128291000Y-74361664D01*
%TO.C,C13*%
X135815400Y-84269948D02*
X135815400Y-84792452D01*
X137285400Y-84269948D02*
X137285400Y-84792452D01*
%TO.C,R30*%
X98579000Y-83913736D02*
X98579000Y-84367864D01*
X100049000Y-83913736D02*
X100049000Y-84367864D01*
%TO.C,R16*%
X118838400Y-70619336D02*
X118838400Y-74973464D01*
X122258400Y-70619336D02*
X122258400Y-74973464D01*
%TO.C,C8*%
X132696551Y-91322101D02*
X132174047Y-91322101D01*
X132696551Y-92792101D02*
X132174047Y-92792101D01*
%TO.C,C14*%
X137310800Y-80855452D02*
X137310800Y-80332948D01*
X135840800Y-80855452D02*
X135840800Y-80332948D01*
%TO.C,R2*%
X136472600Y-94232464D02*
X136472600Y-93778336D01*
X135002600Y-94232464D02*
X135002600Y-93778336D01*
%TO.C,R22*%
X104801936Y-71880400D02*
X105256064Y-71880400D01*
X104801936Y-70410400D02*
X105256064Y-70410400D01*
%TO.C,C21*%
X104945548Y-94842000D02*
X105468052Y-94842000D01*
X104945548Y-93372000D02*
X105468052Y-93372000D01*
%TO.C,R33*%
X101801600Y-94410264D02*
X101801600Y-93956136D01*
X100331600Y-94410264D02*
X100331600Y-93956136D01*
%TO.C,L3*%
X107342600Y-95734200D02*
X110542600Y-95734200D01*
X117942600Y-85134200D02*
X114742600Y-85134200D01*
X107342600Y-85134200D02*
X107342600Y-95734200D01*
X117942600Y-95734200D02*
X117942600Y-85134200D01*
X110542600Y-85134200D02*
X107342600Y-85134200D01*
X114742600Y-95734200D02*
X117942600Y-95734200D01*
D10*
%TO.C,U22*%
X132673899Y-77703701D02*
X132673899Y-77908701D01*
X132673899Y-83213701D02*
X132673899Y-82913701D01*
X127173899Y-83213701D02*
X127173899Y-82913701D01*
X132673899Y-83213701D02*
X127173899Y-83213701D01*
X127173899Y-77703701D02*
X127173899Y-78003701D01*
X132673899Y-77908701D02*
X134423899Y-77908701D01*
X132673899Y-77703701D02*
X127173899Y-77703701D01*
D11*
%TO.C,R29*%
X124864864Y-67870400D02*
X124410736Y-67870400D01*
X124864864Y-69340400D02*
X124410736Y-69340400D01*
%TO.C,R15*%
X112733400Y-77608064D02*
X112733400Y-73253936D01*
X109313400Y-77608064D02*
X109313400Y-73253936D01*
%TO.C,R6*%
X104341600Y-84301064D02*
X104341600Y-83846936D01*
X102871600Y-84301064D02*
X102871600Y-83846936D01*
%TO.C,R12*%
X99483600Y-70238336D02*
X99483600Y-74592464D01*
X102903600Y-70238336D02*
X102903600Y-74592464D01*
%TO.C,R31*%
X102106400Y-84367864D02*
X102106400Y-83913736D01*
X100636400Y-84367864D02*
X100636400Y-83913736D01*
%TO.C,R5*%
X106424400Y-85113864D02*
X106424400Y-84659736D01*
X104954400Y-85113864D02*
X104954400Y-84659736D01*
%TD*%
M02*
