M48
; DRILL file {KiCad (6.0.2)} date Wed May 11 05:14:40 2022
; FORMAT={-:-/ absolute / inch / decimal}
; #@! TF.CreationDate,2022-05-11T05:14:40-07:00
; #@! TF.GenerationSoftware,Kicad,Pcbnew,(6.0.2)
; #@! TF.FileFunction,Plated,1,2,PTH
FMAT,2
INCH
; #@! TA.AperFunction,Plated,PTH,ViaDrill
T1C0.0079
; #@! TA.AperFunction,Plated,PTH,ViaDrill
T2C0.0157
; #@! TA.AperFunction,Plated,PTH,ViaDrill
T3C0.0236
; #@! TA.AperFunction,Plated,PTH,ComponentDrill
T4C0.0236
; #@! TA.AperFunction,Plated,PTH,ComponentDrill
T5C0.0256
; #@! TA.AperFunction,Plated,PTH,ComponentDrill
T6C0.0394
%
G90
G05
T1
X4.7324Y-3.8289
X4.813Y-3.83
T2
X4.4047Y-3.3715
X4.4047Y-3.4184
X4.4597Y-3.3704
X4.4617Y-3.4114
T3
X3.869Y-3.551
X3.888Y-3.157
X3.891Y-3.816
X3.9265Y-2.7885
X3.943Y-3.539
X3.947Y-3.349
X3.979Y-3.6686
X3.979Y-3.745
X3.985Y-3.846
X4.001Y-2.858
X4.0261Y-3.4234
X4.029Y-3.5
X4.088Y-3.406
X4.091Y-3.458
X4.097Y-3.546
X4.1Y-2.715
X4.151Y-3.173
X4.176Y-2.802
X4.178Y-2.72
X4.186Y-3.788
X4.2298Y-2.762
X4.3512Y-3.8684
X4.3824Y-3.0784
X4.4265Y-2.9577
X4.4707Y-3.6834
X4.4717Y-3.7365
X4.5386Y-3.7318
X4.558Y-3.878
X4.564Y-3.085
X4.6334Y-2.94
X4.666Y-2.733
X4.689Y-3.2734
X4.7114Y-3.3446
X4.745Y-3.65
X4.7474Y-3.56
X4.768Y-2.823
X4.829Y-3.257
X4.836Y-3.571
X4.8431Y-3.6591
X4.8949Y-3.2545
X4.9021Y-3.6756
X4.9071Y-3.5987
X4.9077Y-3.1865
X4.9383Y-3.7467
X4.947Y-2.702
X4.9751Y-3.2487
X4.9811Y-3.4885
X4.9821Y-3.4407
X5.0101Y-3.5807
X5.029Y-2.758
X5.042Y-2.877
X5.049Y-3.0641
X5.0536Y-3.761
X5.0551Y-3.1777
X5.0601Y-3.6237
X5.0684Y-3.2223
X5.0811Y-3.3127
X5.082Y-3.2648
X5.087Y-2.693
X5.1013Y-3.0305
X5.1103Y-3.7592
X5.118Y-2.824
X5.1276Y-2.9916
X5.138Y-3.384
X5.1421Y-3.2907
X5.1461Y-3.4847
X5.1528Y-2.9184
X5.175Y-3.429
X5.1936Y-2.8506
X5.2001Y-3.5657
X5.2404Y-2.8306
X5.2607Y-3.6202
X5.2615Y-2.7715
X5.331Y-2.8306
X5.3664Y-3.0011
X5.3666Y-2.9016
X5.376Y-3.2872
X5.382Y-3.128
X5.4039Y-2.8401
X5.462Y-2.795
X5.528Y-2.966
X5.547Y-3.251
X5.5509Y-2.9207
X5.5583Y-2.877
X5.575Y-3.35
T5
X4.8203Y-3.4257
X4.8703Y-3.4257
X5.289Y-3.87
X5.314Y-3.473
X5.333Y-3.597
X5.339Y-3.87
X5.364Y-3.473
X5.383Y-3.597
X5.517Y-3.601
X5.5174Y-3.729
X5.519Y-3.472
X5.567Y-3.601
X5.5674Y-3.729
X5.569Y-3.472
T6
X4.141Y-2.973
X4.141Y-3.073
X4.527Y-2.741
X4.527Y-2.841
X4.906Y-2.817
X4.906Y-2.917
X5.34Y-2.6752
X5.44Y-2.6752
T4
G00X3.9213Y-3.6279
M15
G01X3.8976Y-3.6279
M16
G05
G00X3.9232Y-3.9684
M15
G01X3.8996Y-3.9684
M16
G05
G00X4.0709Y-3.6279
M15
G01X4.0472Y-3.6279
M16
G05
G00X4.0728Y-3.9684
M15
G01X4.0492Y-3.9684
M16
G05
T0
M30
